<?xml version="1.0" encoding="UTF-8" standalone="no"?>
<!-- Created with Inkscape (http://www.inkscape.org/) -->

<svg
   xmlns:dc="http://purl.org/dc/elements/1.1/"
   xmlns:cc="http://creativecommons.org/ns#"
   xmlns:rdf="http://www.w3.org/1999/02/22-rdf-syntax-ns#"
   xmlns:svg="http://www.w3.org/2000/svg"
   xmlns="http://www.w3.org/2000/svg"
   xmlns:sodipodi="http://sodipodi.sourceforge.net/DTD/sodipodi-0.dtd"
   xmlns:inkscape="http://www.inkscape.org/namespaces/inkscape"
   width="210mm"
   height="297mm"
   viewBox="0 0 744.09448819 1052.3622047"
   id="svg4385"
   version="1.1"
   inkscape:version="0.91 r13725"
   sodipodi:docname="traced_100um_inset.svg">
  <defs
     id="defs4387" />
  <sodipodi:namedview
     id="base"
     pagecolor="#ffffff"
     bordercolor="#666666"
     borderopacity="1.0"
     inkscape:pageopacity="0.0"
     inkscape:pageshadow="2"
     inkscape:zoom="15.731604"
     inkscape:cx="5.47877"
     inkscape:cy="20.672055"
     inkscape:document-units="px"
     inkscape:current-layer="layer1"
     showgrid="false"
     inkscape:window-width="1440"
     inkscape:window-height="852"
     inkscape:window-x="0"
     inkscape:window-y="0"
     inkscape:window-maximized="1" />
  <metadata
     id="metadata4390">
    <rdf:RDF>
      <cc:Work
         rdf:about="">
        <dc:format>image/svg+xml</dc:format>
        <dc:type
           rdf:resource="http://purl.org/dc/dcmitype/StillImage" />
        <dc:title></dc:title>
      </cc:Work>
    </rdf:RDF>
  </metadata>
  <g
     inkscape:label="Layer 1"
     inkscape:groupmode="layer"
     id="layer1">
    <path
       style="fill:#000000"
       d="m 3.57321,1011.7063 c 0,0.225 0,0.4501 0,0.6751 0.43286,0 0.86573,0 1.2986,0 0,-0.4501 0,-0.9002 0,-1.3503 -0.43287,0 -0.86574,0 -1.2986,0 0,0.225 0,0.4501 0,0.6752 z m 1.99813,0 c 0,0.225 0,0.4501 0,0.6751 0.43362,0 0.86724,0 1.30085,0 0,-0.4501 0,-0.9002 0,-1.3503 -0.43361,0 -0.86723,0 -1.30085,0 0,0.225 0,0.4501 0,0.6752 z m -1.74836,2.6989 c 0,0.1917 0,0.3834 0,0.5751 0.0661,0 0.13218,0 0.19827,0 0,-0.3834 0,-0.7667 0,-1.1501 -0.0661,0 -0.13218,0 -0.19827,0 0,0.1917 0,0.3834 0,0.575 z m 0.65029,0 c 0,0.1917 0,0.3834 0,0.5751 0.0661,0 0.13218,0 0.19828,0 0,-0.3834 0,-0.7667 0,-1.1501 -0.0661,0 -0.13219,0 -0.19828,0 0,0.1917 0,0.3834 0,0.575 z m 0.74916,-0.5745 c -0.0334,10e-5 -0.0667,2e-4 -0.10008,3e-4 -3.2e-4,0.3831 -6.4e-4,0.7662 -9.6e-4,1.1493 0.0668,0 0.13363,0 0.20045,0 0,-0.3833 0,-0.7666 0,-1.1499 -0.0331,10e-5 -0.0663,2e-4 -0.0994,3e-4 z m 0.6503,0 c -0.0334,10e-5 -0.0667,2e-4 -0.10008,3e-4 -3.2e-4,0.3831 -6.4e-4,0.7662 -9.7e-4,1.1493 0.0668,0 0.13364,0 0.20045,0 0,-0.3833 0,-0.7666 0,-1.1499 -0.0331,10e-5 -0.0663,2e-4 -0.0994,3e-4 z m 0.54973,0.5752 c -1.6e-4,0.1915 -3.2e-4,0.3829 -4.8e-4,0.5744 0.0668,0 0.13358,0 0.20037,0 -3.2e-4,-0.383 -6.4e-4,-0.766 -9.6e-4,-1.149 -0.0662,0 -0.1323,0 -0.19845,0 -1.6e-4,0.1916 -3.2e-4,0.3831 -4.8e-4,0.5746 z m 3.12265,2.5724 c 0,0.083 0,0.1666 0,0.2499 0.23335,0 0.46671,0 0.70006,0 0,-0.1666 0,-0.3332 0,-0.4998 -0.23335,0 -0.46671,0 -0.70006,0 0,0.083 0,0.1666 0,0.2499 z m -5.9899,0.4609 c 9e-5,0.1838 2e-5,0.3677 7.6e-4,0.5516 0.43336,0 0.86673,2e-4 1.30009,2e-4 0,-0.3669 0,-0.7337 0,-1.1006 -0.43362,0 -0.86724,0 -1.30085,0 0,0.1829 0,0.3659 0,0.5488 z m -2.83294,0.1286 c 0,0.1748 0,0.3496 0,0.5244 0.33986,0 0.67972,0 1.01958,0 0,-0.3496 0,-0.6992 0,-1.0488 -0.33986,0 -0.67972,0 -1.01958,0 0,0.1748 0,0.3496 0,0.5244 z m 7.32424,0.2228 c 0,0.083 0,0.1666 0,0.2498 0.23335,0 0.4667,0 0.70006,0 0,-0.1665 0,-0.3331 0,-0.4997 -0.23336,0 -0.46671,0 -0.70006,0 0,0.083 0,0.1666 0,0.2499 z m -2.2344,0.3555 c 0,0.083 0,0.1667 0,0.25 0.23335,0 0.46671,0 0.70006,0 0,-0.1667 0,-0.3333 0,-0.4999 -0.23335,0 -0.46671,0 -0.70006,0 0,0.083 0,0.1666 0,0.2499 z m 3.733,0.1312 c 6e-5,0.084 6e-5,0.1675 4.8e-4,0.2512 0.23319,2e-4 0.46639,3e-4 0.69958,3e-4 0,-0.1666 0,-0.3332 0,-0.4999 -0.23335,0 -0.46671,0 -0.70006,0 0,0.083 0,0.1656 0,0.2484 z m -5.33884,0.5128 c -0.21667,10e-5 -0.43335,3e-4 -0.65002,5e-4 -3.2e-4,0.3665 -6.4e-4,0.733 -9.6e-4,1.0995 0.43359,0 0.86718,0 1.30077,0 0,-0.3668 0,-0.7336 0,-1.1005 -0.2166,2e-4 -0.43319,3e-4 -0.64979,5e-4 z m 3.84024,0.3011 c 0,0.083 0,0.1666 0,0.2499 0.23335,0 0.4667,0 0.70006,0 0,-0.1666 0,-0.3332 0,-0.4998 -0.23336,0 -0.46671,0 -0.70006,0 0,0.083 0,0.1666 0,0.2499 z m -2.2344,0.3555 c 0,0.083 0,0.1666 0,0.2499 0.23335,0 0.46671,0 0.70006,0 0,-0.1666 0,-0.3332 0,-0.4998 -0.23335,0 -0.46671,0 -0.70006,0 0,0.083 0,0.1666 0,0.2499 z m -5.08984,1.0711 c 0,0.1748 0,0.3496 0,0.5244 0.33986,0 0.67972,0 1.01958,0 0,-0.3496 0,-0.6992 0,-1.0488 -0.33986,0 -0.67972,0 -1.01958,0 0,0.1748 0,0.3496 0,0.5244 z m 2.82844,0.6523 c 5e-5,0.084 6e-5,0.1675 4.8e-4,0.2512 0.23319,2e-4 0.46639,3e-4 0.69958,2e-4 0,-0.1666 0,-0.3332 0,-0.4998 -0.23335,0 -0.46671,0 -0.70006,0 0,0.083 0,0.1656 0,0.2484 z m 3.68689,-0.089 c -1.9e-4,0.059 -1.2e-4,0.118 1e-4,0.177 0.0161,0 0.0323,10e-5 0.0484,10e-5 2.9e-4,-0.064 1.3e-4,-0.1285 -7e-5,-0.1927 -0.0161,0 -0.0322,0 -0.0484,0 -2e-5,0 -4e-5,0.01 -6e-5,0.016 z m 0.50075,-0.01 c -2.3e-4,0.062 -1.3e-4,0.1232 8e-5,0.1848 0.0161,0 0.0323,0 0.0484,0 2.5e-4,-0.065 1.3e-4,-0.1294 -5e-5,-0.1941 -0.0161,0 -0.0322,0 -0.0483,0 -2e-5,0 -3e-5,0.01 -5e-5,0.01 z m -1.00137,10e-4 c -2.1e-4,0.06 -6e-5,0.1206 8e-5,0.1809 0.0165,0 0.0331,0 0.0496,0 3e-5,-0.063 1.9e-4,-0.1263 -9e-5,-0.1894 -0.0165,0 -0.033,0 -0.0495,0 -1e-5,0 -2e-5,0.01 -3e-5,0.01 z m 1.50084,0 c -2e-4,0.06 0,0.1199 1e-5,0.1798 0.0165,0 0.0331,10e-5 0.0496,0 2.7e-4,-0.064 9e-5,-0.1276 -5e-5,-0.1915 -0.0165,0 -0.033,0 -0.0495,0 -2e-5,0 -3e-5,0.01 -5e-5,0.012 z m 0.49949,0.085 c 10e-6,0.031 -2e-5,0.062 0,0.093 0.0166,0 0.0332,0 0.0498,0 -10e-6,-0.062 2e-5,-0.1243 -2e-5,-0.1865 -0.0166,0 -0.0332,0 -0.0498,0 0,0.031 0,0.062 0,0.093 z m -2.87566,0.7778 c -1.9e-4,0.014 -1.3e-4,0.028 -5e-5,0.041 0.0669,0 0.1337,0 0.20055,0 4e-5,-0.014 3e-5,-0.028 -10e-6,-0.042 -0.0668,-10e-5 -0.13366,-10e-5 -0.20049,-10e-5 l -10e-6,5e-4 z m 3.60017,0.01 c -10e-6,0.011 -2e-5,0.023 1e-5,0.034 0.0669,0 0.13371,0 0.20057,0 2e-5,-0.013 2e-5,-0.026 -2e-5,-0.04 -0.0669,0 -0.13369,0 -0.20054,0 -10e-6,0 -10e-6,0 -2e-5,0.01 z m -5.56039,0.2711 c -0.11659,10e-5 -0.23317,2e-4 -0.34976,4e-4 -2.7e-4,0.1663 -5.4e-4,0.3325 -8.1e-4,0.4988 0.2333,0 0.4666,0 0.69991,0 0,-0.1666 0,-0.3331 0,-0.4997 -0.11645,2e-4 -0.23289,3e-4 -0.34934,5e-4 z m 3.16176,0.7391 c 0,0.2333 0,0.4666 0,0.6999 0.4666,0 0.9332,0 1.3998,0 -3.3e-4,-0.4662 -6.6e-4,-0.9325 -9.9e-4,-1.3988 -0.46627,-3e-4 -0.93254,-7e-4 -1.39881,-0 0,0.2333 0,0.4666 0,0.6999 z m -1.20165,-0.5075 c -10e-6,0.011 2e-5,0.021 6e-5,0.032 0.0669,0 0.13372,0 0.20057,0 3e-5,-0.014 10e-6,-0.028 -10e-6,-0.042 -0.0669,0 -0.13373,0 -0.20059,0 -1e-5,0 -2e-5,0.01 -3e-5,0.01 z m 3.60053,-0.01 c -6.6e-4,0.013 -1.2e-4,0.028 -2.3e-4,0.041 0.0669,0 0.13372,0 0.20058,0 3e-5,-0.014 1e-5,-0.028 -10e-6,-0.041 -0.0668,0 -0.13356,0 -0.20034,0 l 0,2e-4 z m 0.083,0.444 c -0.0172,9e-4 -0.0274,0.023 -0.0173,0.037 0.003,0 0.009,0.01 0.0152,0.01 0.005,-0.014 0.0108,-0.029 0.0158,-0.043 -0.004,-0 -0.009,-0 -0.0138,-0 z m -0.0832,0.051 c 0,0.014 3e-5,0.027 7e-5,0.041 0.0668,0 0.13368,0 0.20053,0 2e-5,-0.014 -1e-5,-0.027 -4e-5,-0.04 -0.0669,-2e-4 -0.13371,-5e-4 -0.20056,-5e-4 z m -3.60023,0.029 c 10e-6,0.01 10e-6,0.014 2e-5,0.02 0.0668,0 0.13371,0 0.20057,0 3e-5,-0.014 0,-0.027 -4e-5,-0.04 -0.0669,-2e-4 -0.13369,-3e-4 -0.20054,-3e-4 0,0.01 -10e-6,0.014 -10e-6,0.02 z m -4e-5,0.4805 c -1e-5,0.012 -3e-5,0.023 10e-6,0.035 0.0669,2e-4 0.13371,2e-4 0.20056,2e-4 4e-5,-0.014 3e-5,-0.028 -10e-6,-0.042 -0.0669,0 -0.13369,0 -0.20054,0 -1e-5,0 -1e-5,0 -2e-5,0.01 z m 3.60026,-0 c -3e-5,0.014 -3e-5,0.027 -10e-6,0.041 0.0669,10e-5 0.13371,10e-5 0.20056,10e-5 3e-5,-0.014 3e-5,-0.027 -10e-6,-0.041 -0.0669,-10e-5 -0.13369,-10e-5 -0.20054,-10e-5 z m -7.60324,0.6091 c 0,0.1166 0,0.2333 0,0.35 0.1666,0 0.3332,0 0.4998,0 0,-0.2334 0,-0.4667 0,-0.7001 -0.1666,0 -0.3332,0 -0.4998,0 0,0.1167 0,0.2334 0,0.3501 z m 1.30059,0 c 0,0.1166 0,0.2333 0,0.35 0.16656,0 0.33312,0 0.49968,0 -2.9e-4,-0.2331 -5.9e-4,-0.4661 -8.8e-4,-0.6991 -0.16627,-3e-4 -0.33253,-6e-4 -0.4988,-8e-4 0,0.1166 0,0.2332 0,0.3499 z m 2.70241,-0.1112 c -4e-5,0.013 -3e-5,0.026 -1e-5,0.039 0.0668,0 0.13369,0 0.20053,0 2e-5,-0.013 2e-5,-0.026 10e-6,-0.039 -0.0668,-10e-5 -0.13369,-10e-5 -0.20053,-10e-5 z m 3.60025,0 c -5e-5,0.014 -6e-5,0.027 -3e-5,0.041 0.0669,0 0.13372,0 0.20058,0 3e-5,-0.014 3e-5,-0.027 -10e-6,-0.041 -0.0669,-10e-5 -0.1337,-10e-5 -0.20054,-10e-5 z m -1.7235,0.7382 c -1.9e-4,0.061 -10e-5,0.1216 9e-5,0.1824 0.0164,0 0.0328,10e-5 0.0492,0 9e-5,-0.066 5e-5,-0.1316 -5.1e-4,-0.1974 -0.0162,0 -0.0324,0 -0.0487,0 -3e-5,0 -5e-5,0.01 -7e-5,0.015 z m 0.99901,0.01 c -1.5e-4,0.056 -8e-5,0.1128 8e-5,0.1692 0.0165,0 0.0331,0 0.0496,0 3e-5,-0.063 1.8e-4,-0.1263 -9e-5,-0.1894 -0.0165,0 -0.033,0 -0.0495,0 -3e-5,0.01 -5e-5,0.013 -7e-5,0.02 z m -1.50062,-0.01 c 10e-6,0.058 3.1e-4,0.1167 6.5e-4,0.1751 0.0162,0 0.0325,0 0.0487,0 2e-5,-0.063 1.6e-4,-0.1266 -10e-5,-0.1899 -0.0164,0 -0.0328,-10e-5 -0.0493,-10e-5 0,0 -1e-5,0.01 -1e-5,0.015 z m -0.49975,-0 c -2.2e-4,0.06 -6e-5,0.1206 8e-5,0.1809 0.0165,0 0.0331,0 0.0496,0 3e-5,-0.063 1.9e-4,-0.1263 -9e-5,-0.1894 -0.0165,0 -0.033,0 -0.0495,0 -10e-6,0 -2e-5,0.01 -3e-5,0.01 z m 1.50084,0 c -2e-4,0.06 0,0.1198 10e-6,0.1798 0.0165,0 0.0331,0 0.0496,0 2.6e-4,-0.064 1.3e-4,-0.1276 -6e-5,-0.1915 -0.0165,0 -0.033,0 -0.0495,0 -2e-5,0 -3e-5,0.01 -5e-5,0.012 z m -7.91833,1.381 c 0,0.2164 0,0.4329 0,0.6493 0.36611,0 0.73223,0 1.09834,0 0,-0.4329 0,-0.8657 0,-1.2986 -0.36611,0 -0.73223,0 -1.09834,0 0,0.2165 0,0.4329 0,0.6493 z m 1.89913,0 c 0,0.2164 0,0.4329 0,0.6493 0.36686,0 0.73372,0 1.10058,0 0,-0.4329 0,-0.8657 0,-1.2986 -0.36686,0 -0.73372,0 -1.10058,0 0,0.2165 0,0.4329 0,0.6493 z m -1.90588,2.0521 c 0,0.1332 0,0.2664 0,0.3996 0.0998,0 0.19969,0 0.29953,0 0,-0.2664 0,-0.5327 0,-0.7991 -0.0998,0 -0.19968,0 -0.29953,0 0,0.1332 0,0.2663 0,0.3995 z m 1.89913,0 c 0,0.1332 0,0.2664 0,0.3996 0.0998,0 0.19969,0 0.29953,0 0,-0.2664 0,-0.5327 0,-0.7991 -0.0998,0 -0.19969,0 -0.29953,0 0,0.1332 0,0.2663 0,0.3995 z m 3.56544,-0.021 c -0.002,0.2285 -7.4e-4,0.4571 5.2e-4,0.6856 6e-5,0 1.2e-4,0.01 2.4e-4,0.013 0.0824,10e-5 0.16471,0 0.24707,-4e-4 -3e-4,-0.2351 -3e-5,-0.4702 -1.3e-4,-0.7053 -0.0825,0 -0.1651,0 -0.24765,0 -2e-5,0 -4e-5,0 -5e-5,0.01 z m 0.99238,-0.01 c -0.0637,2e-4 -0.12744,-10e-5 -0.19139,0 -6e-5,0.2326 -5e-5,0.4651 0,0.6976 0.0824,4e-4 0.1648,-3e-4 0.2472,-4e-4 0.002,-0.057 0.001,-0.1142 0.001,-0.1713 4e-5,-0.1753 8.7e-4,-0.3507 -9.6e-4,-0.5258 -0.0188,0 -0.0376,-10e-5 -0.0564,-10e-5 z m 1.4084,0.17 c -10e-6,0.1766 10e-6,0.3533 0,0.5299 0.0826,0 0.16511,-2e-4 0.24767,-4e-4 4.5e-4,-0.2285 0.001,-0.457 4e-4,-0.6854 -9.9e-4,-0 0.002,-0.011 -10e-4,-0.012 -0.0823,0 -0.16461,0 -0.24691,0 -1e-5,0.056 -2e-5,0.1123 -3e-5,0.1684 z m -0.77059,-0.1681 c -0.0101,3e-4 -0.0203,-10e-5 -0.0305,10e-5 0,0.2342 0,0.4685 2e-5,0.7028 0.0826,10e-5 0.16534,10e-4 0.24778,-4e-4 -4e-5,-0.2339 1.2e-4,-0.4678 -8e-5,-0.7017 -0.0724,-3e-4 -0.14485,-10e-4 -0.21727,-8e-4 z m -0.58874,1.6965 c -0.0801,3e-4 -0.16026,4e-4 -0.24039,9e-4 -2.9e-4,0.2293 -5e-5,0.4586 -1.2e-4,0.6879 0.0826,3e-4 0.16522,5e-4 0.24784,4e-4 -4e-5,-0.2297 9e-5,-0.4595 -6e-5,-0.6892 -0.002,0 -0.005,0 -0.007,0 z m -1.04088,0 c -0.003,0.1823 -0.002,0.3649 -0.002,0.5475 2.1e-4,0.051 4.2e-4,0.1032 0.002,0.1542 0.0827,2e-4 0.16536,-2e-4 0.24804,-5e-4 5e-5,-0.2337 -6.7e-4,-0.4675 -9e-4,-0.7012 -0.0824,0 -0.16477,0 -0.24715,0 z m 1.82372,0 c -0.0748,0 -0.14966,0 -0.2245,0 10e-5,0.235 -1.2e-4,0.47 1.2e-4,0.7051 0.0826,-3e-4 0.16513,-3e-4 0.24769,-7e-4 3e-5,-0.2348 1e-5,-0.4696 2e-5,-0.7044 -0.008,0 -0.0156,0 -0.0233,0 z m 0.5765,0 c 4e-5,0.2324 -8e-5,0.4648 6e-5,0.6972 0.0826,-1e-4 0.16516,-1e-4 0.24773,-3e-4 -4e-5,-0.2323 10e-5,-0.4646 -7e-5,-0.6969 -0.0826,0 -0.16514,0 -0.24772,0 z m -7.86536,0.724 c 0,0.1335 0,0.267 0,0.4004 0.0995,-2e-4 0.19901,-4e-4 0.29852,-6e-4 3e-4,-0.2668 6e-4,-0.5337 9.1e-4,-0.8005 -0.0998,0 -0.19962,0 -0.29943,0 0,0.1336 0,0.2672 0,0.4007 z m 0.94956,0 c 0,0.1336 0,0.2671 0,0.4006 0.0999,0 0.19969,0 0.29954,0 0,-0.2671 0,-0.5342 0,-0.8013 -0.0999,0 -0.19969,0 -0.29954,0 0,0.1336 0,0.2672 0,0.4007 z m 0.94957,0 c 0,0.1336 0,0.2671 0,0.4006 0.0998,0 0.19969,0 0.29953,0 0,-0.2671 0,-0.5342 0,-0.8013 -0.0998,0 -0.19969,0 -0.29953,0 0,0.1336 0,0.2672 0,0.4007 z M 0,1032.6835 c 0,0.1834 0,0.3668 0,0.5502 0.43327,-3e-4 0.86654,-7e-4 1.29981,-9e-4 3.2e-4,-0.3665 6.4e-4,-0.733 9.6e-4,-1.0995 -0.43359,0 -0.86718,0 -1.30077,0 0,0.1834 0,0.3668 0,0.5502 z m 2.40991,0.3567 c 0,0.1665 0,0.3331 0,0.4996 0.33386,0 0.66772,0 1.00158,0 0,-0.3331 0,-0.6662 0,-0.9993 -0.33386,0 -0.66772,0 -1.00158,0 0,0.1666 0,0.3331 0,0.4997 z m 1.65161,0 c 0,0.1665 0,0.3331 0,0.4996 0.33311,0 0.66622,0 0.99933,0 0,-0.3331 0,-0.6662 0,-0.9993 -0.33311,0 -0.66622,0 -0.99933,0 0,0.1666 0,0.3331 0,0.4997 z m 1.65161,0 c 0,0.1665 0,0.3331 0,0.4996 0.33311,0 0.66622,0 0.99933,0 0,-0.3331 0,-0.6662 0,-0.9993 -0.33311,0 -0.66622,0 -0.99933,0 0,0.1666 0,0.3331 0,0.4997 z m 1.65161,0 c 0,0.1665 0,0.3331 0,0.4996 0.33311,0 0.66622,0 0.99933,0 0,-0.3331 0,-0.6662 0,-0.9993 -0.33311,0 -0.66622,0 -0.99933,0 0,0.1666 0,0.3331 0,0.4997 z M 0,1034.5837 c 0,0.1831 0,0.3662 0,0.5493 0.43362,0 0.86723,0 1.30085,0 0,-0.3662 0,-0.7323 0,-1.0984 -0.43362,0 -0.86723,0 -1.30085,0 0,0.1831 0,0.3661 0,0.5491 z m 4.06152,0.557 c 0,0.1669 0,0.3338 0,0.5008 0.33311,0 0.66622,0 0.99933,0 0,-0.3339 0,-0.6677 0,-1.0016 -0.33311,0 -0.66622,0 -0.99933,0 0,0.1669 0,0.3338 0,0.5008 z m 1.65161,0 c 0,0.1669 0,0.3338 0,0.5008 0.33311,0 0.66622,0 0.99933,0 0,-0.3339 0,-0.6677 0,-1.0016 -0.33311,0 -0.66622,0 -0.99933,0 0,0.1669 0,0.3338 0,0.5008 z m 1.65161,0 c 0,0.1669 0,0.3338 0,0.5008 0.33311,0 0.66622,0 0.99933,0 0,-0.3339 0,-0.6677 0,-1.0016 -0.33311,0 -0.66622,0 -0.99933,0 0,0.1669 0,0.3338 0,0.5008 z m -4.95428,-0 c -1e-4,0.1674 -3e-4,0.3349 5e-5,0.5024 0.33328,3e-4 0.66657,-3e-4 0.99986,-5e-4 0,-0.3332 0,-0.6663 0,-0.9994 -0.33315,0 -0.66629,0 -0.99943,0 -1.6e-4,0.1658 -3.2e-4,0.3316 -4.8e-4,0.4975 z m -1.61841,2.4323 c 0,0.1166 0,0.2333 0,0.35 0.1666,0 0.3332,0 0.4998,0 0,-0.2334 0,-0.4667 0,-0.7001 -0.1666,0 -0.3332,0 -0.4998,0 0,0.1167 0,0.2334 0,0.3501 z m 1.30059,0 c 0,0.1166 0,0.2332 0,0.3498 0.16627,-2e-4 0.33253,-5e-4 0.4988,-8e-4 2.9e-4,-0.233 5.9e-4,-0.466 8.8e-4,-0.6991 -0.16656,0 -0.33312,0 -0.49968,0 0,0.1167 0,0.2334 0,0.3501 z m 1.39059,0.025 c 0,0.1166 0,0.2333 0,0.35 0.1666,0 0.3332,0 0.4998,0 0,-0.2334 0,-0.4667 0,-0.7001 -0.1666,0 -0.3332,0 -0.4998,0 0,0.1167 0,0.2334 0,0.3501 z m 1.30059,0 c 0,0.1166 0,0.2333 0,0.35 0.1666,0 0.3332,0 0.4998,0 0,-0.2334 0,-0.4667 0,-0.7001 -0.1666,0 -0.3332,0 -0.4998,0 0,0.1167 0,0.2334 0,0.3501 z m 0.0522,2.4585 c -0.0142,-4e-4 -0.0273,0.01 -0.0359,0.018 -0.10646,0.1025 -0.20987,0.2083 -0.31414,0.3132 -0.016,0.017 -0.032,0.033 -0.0469,0.05 -0.0123,0.023 -0.002,0.053 0.0209,0.065 0.009,0.01 0.0194,0 0.0296,0 0.012,-5e-4 0.0229,-0.01 0.0301,-0.017 0.12031,-0.121 0.24198,-0.2405 0.36063,-0.3631 0.008,-0.011 0.007,-0.025 0.004,-0.038 -0.007,-0.02 -0.0265,-0.035 -0.0481,-0.034 z m -1.41517,0 c -0.0277,7e-4 -0.0522,0.028 -0.0472,0.056 0.002,0.015 0.0118,0.028 0.0233,0.038 0.11595,0.1182 0.23373,0.2347 0.35283,0.3499 0.003,0 0.007,0.01 0.0114,0.01 0.009,0 0.0173,0 0.0256,0 0.0163,-0 0.0303,-0.016 0.036,-0.031 0.004,-0.012 0.003,-0.025 -5.5e-4,-0.037 -0.005,-0.01 -0.0127,-0.014 -0.0186,-0.021 -0.0491,-0.053 -0.10129,-0.1028 -0.15174,-0.1545 -0.0658,-0.066 -0.13321,-0.1304 -0.19917,-0.1963 -0.008,-0.01 -0.0206,-0.011 -0.0319,-0.011 z m -0.35127,0.3514 c -0.0239,0 -0.0469,0.021 -0.0494,0.045 -0.002,0.013 7.6e-4,0.027 0.0111,0.035 0.0573,0.061 0.11801,0.1205 0.17709,0.1806 0.0637,0.063 0.12848,0.1258 0.19275,0.1887 0.0137,-3e-4 0.0278,10e-4 0.0413,-3e-4 0.0132,-0 0.0234,-0.017 0.0275,-0.03 0.005,-0.015 0.003,-0.034 -0.0104,-0.045 -0.0542,-0.057 -0.11098,-0.1124 -0.16634,-0.1688 -0.0676,-0.068 -0.1356,-0.1354 -0.20548,-0.2009 -0.006,-0 -0.0119,-0 -0.0182,-0 z m 2.11998,0 c -0.0171,-2e-4 -0.0314,0.011 -0.0419,0.023 -0.11156,0.109 -0.22144,0.2193 -0.33049,0.3307 -0.008,0.01 -0.0185,0.018 -0.0254,0.028 -0.007,0.018 -0.005,0.041 0.01,0.054 0.009,0.01 0.0204,0.016 0.0331,0.015 0.011,-10e-5 0.0243,4e-4 0.0315,-0.01 0.10228,-0.098 0.2014,-0.1985 0.302,-0.2981 0.0214,-0.022 0.0439,-0.043 0.0635,-0.066 0.0134,-0.019 0.0105,-0.047 -0.007,-0.062 -0.009,-0.01 -0.0221,-0.015 -0.0352,-0.014 z m -2.47572,0.3532 c -0.0247,6e-4 -0.0469,0.022 -0.0472,0.047 -0.001,0.012 0.002,0.024 0.0115,0.032 0.037,0.04 0.0768,0.078 0.11508,0.1171 0.0836,0.084 0.16664,0.168 0.25214,0.2495 0.008,0 0.0174,0 0.0262,0 0.0271,-10e-4 0.051,-0.028 0.0469,-0.055 -0.002,-0.011 -0.005,-0.023 -0.0145,-0.03 -0.12124,-0.1207 -0.24016,-0.2434 -0.3644,-0.3609 -0.008,-0 -0.0171,-0 -0.0258,-0 z m 2.82869,5e-4 c -0.0109,2e-4 -0.0225,0 -0.0291,0.013 -0.0837,0.08 -0.16385,0.1627 -0.24632,0.2436 -0.0399,0.04 -0.0803,0.079 -0.11872,0.1202 -0.01,0.015 -0.009,0.037 6e-4,0.052 0.0196,10e-4 0.0372,0.011 0.0528,0.022 0.007,0 0.0133,-0 0.0185,-0.01 0.12052,-0.1217 0.24315,-0.2415 0.3623,-0.3645 0.007,-0.01 0.0115,-0.018 0.0104,-0.029 7.5e-4,-0.011 -0.002,-0.021 -0.009,-0.03 -0.009,-0.013 -0.025,-0.021 -0.0411,-0.02 z m 0.35173,0.3534 c -0.0125,10e-5 -0.0237,0.01 -0.0313,0.017 -0.0912,0.088 -0.17954,0.1786 -0.26941,0.2679 -0.0317,0.032 -0.0637,0.063 -0.094,0.097 -0.0103,0.02 -0.003,0.047 0.0143,0.061 0.0158,0.013 0.0407,0.013 0.0571,10e-4 0.10928,-0.1059 0.21607,-0.2145 0.32371,-0.3221 0.0155,-0.016 0.0319,-0.031 0.0463,-0.048 0.007,-0.015 0.009,-0.033 7.3e-4,-0.047 -0.009,-0.017 -0.028,-0.028 -0.0474,-0.026 z m -3.5198,9e-4 c -0.0131,-5e-4 -0.0275,-10e-4 -0.0386,0.01 -0.0122,0.01 -0.0242,0.023 -0.0228,0.039 -0.001,0.014 0.004,0.029 0.0153,0.038 0.0513,0.053 0.10346,0.105 0.15546,0.1572 0.07,0.07 0.14055,0.1395 0.21296,0.2071 0.007,0 0.0142,-10e-5 0.0212,0 0.007,5e-4 0.015,10e-4 0.0211,-0 0.0158,-0.01 0.0277,-0.026 0.0252,-0.045 0.001,-0.012 -0.004,-0.023 -0.0125,-0.03 -0.0406,-0.044 -0.084,-0.085 -0.12592,-0.128 -0.0783,-0.078 -0.15656,-0.1568 -0.23503,-0.2349 -0.006,-0 -0.0105,-0.01 -0.0165,-0.01 z m -0.37005,0.353 c -0.0101,-5e-4 -0.0198,0 -0.0267,0.011 -0.0102,0.01 -0.0193,0.021 -0.0181,0.034 -4.7e-4,0.012 10e-4,0.026 0.0115,0.034 0.0623,0.065 0.12659,0.1288 0.19002,0.193 0.0573,0.057 0.11426,0.1145 0.17299,0.1702 0.004,0 0.008,0.01 0.0138,0.01 0.0113,-3e-4 0.023,0 0.0335,-0 0.0211,-0.01 0.0341,-0.032 0.0292,-0.054 -0.003,-0.02 -0.0209,-0.032 -0.0336,-0.045 -0.10776,-0.1097 -0.21626,-0.2188 -0.32788,-0.3244 -0.007,-0.01 -0.0134,-0.014 -0.0215,-0.019 -0.007,-0 -0.0153,-0 -0.0232,-0 z m 4.22633,0 c -0.0135,0.01 -0.0221,0.02 -0.0332,0.03 -0.0712,0.069 -0.14138,0.1399 -0.21143,0.2104 -0.0443,0.045 -0.0887,0.09 -0.13237,0.1354 -0.009,0.016 -0.007,0.037 0.003,0.052 0.003,0 0.008,0 0.0119,0 0.0132,0 0.0247,0.012 0.0367,0.018 0.009,-0 0.0169,-0.01 0.0232,-0.015 0.0943,-0.09 0.18516,-0.1838 0.2778,-0.2757 0.0301,-0.03 0.0608,-0.06 0.0893,-0.092 0.0112,-0.022 0.001,-0.052 -0.0203,-0.064 -0.0151,5e-4 -0.03,-10e-4 -0.045,-0 z m -2.91351,1.0018 c -0.27101,0.271 -0.54202,0.5421 -0.81303,0.8131 0.54199,0.5418 1.08357,1.084 1.62605,1.6253 0.54254,-0.5412 1.08405,-1.0835 1.62608,-1.6253 -0.54201,-0.542 -1.08403,-1.0841 -1.62607,-1.6261 -0.27101,0.271 -0.54202,0.542 -0.81303,0.813 z m -1.66598,-0.6529 c -0.0192,0 -0.0356,0.016 -0.0433,0.033 -0.004,0.013 -0.003,0.027 0.003,0.039 0.0103,0.014 0.0246,0.025 0.0362,0.039 0.0992,0.1013 0.19971,0.2015 0.3012,0.3005 0.0135,0.013 0.0273,0.026 0.0418,0.038 0.0138,0 0.0301,0 0.043,-0 0.0192,-0.011 0.0295,-0.035 0.023,-0.056 -0.003,-0.013 -0.0156,-0.02 -0.0233,-0.03 -0.0687,-0.071 -0.13957,-0.14 -0.20914,-0.2103 -0.0482,-0.048 -0.0963,-0.096 -0.1464,-0.1426 -0.008,-0 -0.0169,-0.01 -0.0259,-0.01 z m 4.95099,5e-4 c -0.0123,-6e-4 -0.0239,0.01 -0.0312,0.015 -0.1099,0.1057 -0.21744,0.2137 -0.32491,0.322 -0.013,0.014 -0.0269,0.027 -0.0384,0.042 -0.0116,0.021 -0.006,0.049 0.0138,0.063 0.0129,0.011 0.0313,0.015 0.0468,0.01 0.009,-0 0.0172,-0.01 0.0232,-0.016 0.1091,-0.11 0.21996,-0.2184 0.3279,-0.3293 0.011,-0.012 0.0245,-0.023 0.0324,-0.038 0.005,-0.018 0.002,-0.039 -0.012,-0.052 -0.01,-0.01 -0.0233,-0.016 -0.0375,-0.015 z m -5.28835,0.3519 c -0.0135,-7e-4 -0.0281,-6e-4 -0.0395,0.01 -0.0155,0.01 -0.0248,0.029 -0.0223,0.047 -1.4e-4,0.01 0.004,0.017 0.0108,0.023 0.0431,0.048 0.0898,0.092 0.13514,0.1382 0.0732,0.073 0.14632,0.1465 0.21966,0.2195 0.0155,0 0.0284,0.014 0.0434,0.019 0.0222,-0.01 0.0424,-0.024 0.0429,-0.047 7.1e-4,-0.012 -0.003,-0.024 -0.01,-0.034 -0.12211,-0.1213 -0.24346,-0.2435 -0.36551,-0.3649 -0.004,-0 -0.009,-0 -0.0134,-0.01 l -9.9e-4,10e-5 -2.3e-4,10e-5 z m 5.64483,0 c -0.0115,-10e-5 -0.0235,0 -0.0307,0.013 -0.0546,0.051 -0.10658,0.1052 -0.15998,0.1577 -0.0686,0.068 -0.1377,0.1362 -0.20391,0.2067 -0.006,0.01 -0.009,0.015 -0.008,0.024 -10e-4,0.015 0.005,0.03 0.0174,0.039 0.009,0.01 0.0192,0.01 0.029,0.014 0.0126,-4e-4 0.0267,-0 0.0348,-0.014 0.11677,-0.1123 0.2296,-0.2284 0.34444,-0.3426 0.007,-0.01 0.0155,-0.014 0.0202,-0.022 0.0101,-0.02 0.007,-0.046 -0.009,-0.061 -0.009,-0.01 -0.0211,-0.014 -0.0337,-0.014 z m 0.35301,0.3524 c -0.0134,6e-4 -0.0271,0.01 -0.0354,0.017 -0.11946,0.1198 -0.24069,0.2378 -0.35806,0.3597 -0.0183,0.021 -0.009,0.059 0.0167,0.07 0.0146,0.01 0.0343,0.01 0.0483,-10e-4 0.11032,-0.1067 0.21781,-0.2163 0.32656,-0.3246 0.0158,-0.016 0.0323,-0.032 0.0465,-0.05 0.0104,-0.021 0.004,-0.048 -0.0157,-0.061 -0.008,-0.01 -0.0185,-0.01 -0.029,-0.01 z m -6.36709,5e-4 c -0.0229,6e-4 -0.0423,0.021 -0.046,0.043 -0.004,0.021 0.0109,0.04 0.0252,0.054 0.0366,0.036 0.0723,0.073 0.10879,0.1089 0.081,0.081 0.16215,0.1611 0.24423,0.2406 0.004,0 0.0112,10e-4 0.0166,0 0.008,3e-4 0.0159,0.01 0.0237,0 0.0219,-0.01 0.0369,-0.031 0.0325,-0.054 -2.9e-4,-0.01 -0.002,-0.017 -0.01,-0.022 -0.10571,-0.111 -0.21465,-0.2187 -0.32392,-0.3261 -0.0154,-0.015 -0.0309,-0.03 -0.0475,-0.044 -0.008,-0 -0.0158,-0 -0.024,-0 z m 0.35108,1.0613 c -0.0127,-2e-4 -0.0226,0.01 -0.0308,0.017 -0.0617,0.058 -0.12073,0.1196 -0.18133,0.1791 -0.06,0.06 -0.12067,0.1197 -0.17841,0.1816 -0.008,0.011 -0.007,0.025 -0.005,0.038 0.008,0.024 0.0341,0.042 0.059,0.035 0.0132,-0 0.0206,-0.014 0.0302,-0.022 0.0438,-0.042 0.0862,-0.086 0.12942,-0.1282 0.0749,-0.075 0.14972,-0.1496 0.22449,-0.2245 0.006,-0.012 0.009,-0.025 0.007,-0.038 -0.004,-0.023 -0.0265,-0.04 -0.0496,-0.038 -10e-4,0 -0.003,0 -0.004,0 z m 5.66252,6e-4 c -0.0272,-10e-4 -0.0528,0.025 -0.0491,0.052 2.4e-4,0.01 0.003,0.019 0.0112,0.025 0.0517,0.057 0.10767,0.1099 0.16151,0.1648 0.07,0.07 0.14029,0.1393 0.21223,0.207 0.006,0 0.0126,-4e-4 0.0189,10e-4 0.006,-3e-4 0.0124,0 0.0182,10e-4 0.0212,-0.01 0.035,-0.034 0.0292,-0.056 -0.002,-0.014 -0.0131,-0.024 -0.0231,-0.034 -0.11493,-0.1168 -0.231,-0.2331 -0.34953,-0.3463 -0.006,-0.01 -0.0144,-0.011 -0.023,-0.013 -0.002,-6e-4 -0.004,-0 -0.006,-0 z m -0.35609,0.3543 c -0.02,-0 -0.0374,0.014 -0.0441,0.032 -0.007,0.016 -0.002,0.036 0.01,0.049 0.12015,0.119 0.23846,0.2401 0.36015,0.3575 0.005,0 0.009,0.01 0.0164,0.01 0.0101,-6e-4 0.0205,0 0.0303,-8e-4 0.008,-0 0.0177,-0.01 0.0228,-0.013 0.012,-0.016 0.0136,-0.039 0.004,-0.056 -0.0132,-0.014 -0.0272,-0.027 -0.0405,-0.042 -0.10415,-0.1057 -0.20901,-0.2109 -0.31658,-0.3132 -0.008,-0.01 -0.0147,-0.015 -0.0229,-0.02 -0.006,-10e-4 -0.0124,-10e-4 -0.0187,-10e-4 z m -4.94795,2e-4 c -0.0108,2e-4 -0.0227,0 -0.0295,0.012 -0.0769,0.073 -0.1508,0.1484 -0.22613,0.2227 -0.046,0.046 -0.0923,0.091 -0.13684,0.1387 -0.0134,0.017 -0.0136,0.043 5.1e-4,0.06 0.0172,0 0.0318,0.013 0.0476,0.02 0.0167,-0 0.0269,-0.019 0.0394,-0.029 0.0927,-0.09 0.18316,-0.1822 0.27449,-0.2734 0.0253,-0.026 0.0511,-0.051 0.0752,-0.078 0.0101,-0.019 0.006,-0.046 -0.0114,-0.06 -0.009,-0.01 -0.0213,-0.013 -0.0334,-0.012 z m 4.60661,0.355 c -0.0126,4e-4 -0.0263,-10e-4 -0.037,0.01 -0.014,0.01 -0.023,0.026 -0.0214,0.043 -1.2e-4,0.01 8.6e-4,0.018 0.008,0.024 0.0392,0.044 0.0818,0.085 0.1231,0.1267 0.0741,0.074 0.14812,0.1494 0.22228,0.223 0.009,0.01 0.0188,0.019 0.0299,0.026 0.0119,-10e-4 0.024,8e-4 0.0358,3e-4 0.0202,-0.01 0.035,-0.029 0.0321,-0.051 -2.9e-4,-0.01 -0.005,-0.02 -0.0125,-0.026 -0.0377,-0.041 -0.0779,-0.079 -0.11676,-0.1189 -0.0819,-0.082 -0.1641,-0.1642 -0.24613,-0.2463 -0.005,-0 -0.0112,-0.01 -0.0175,-0.01 z m -4.23457,0 c -0.013,10e-4 -0.0264,-10e-4 -0.0392,7e-4 -0.0149,0.01 -0.025,0.024 -0.0381,0.035 -0.11187,0.1108 -0.22365,0.2218 -0.33304,0.335 -0.008,0.01 -0.0111,0.018 -0.0104,0.029 6.4e-4,0.019 0.0121,0.036 0.0287,0.045 0.005,0.01 0.0126,0 0.019,0 0.01,10e-4 0.0202,0 0.0279,-0.01 0.0131,-0.011 0.025,-0.024 0.0378,-0.036 0.0841,-0.082 0.16642,-0.1658 0.2496,-0.2487 0.0282,-0.029 0.0569,-0.057 0.0837,-0.087 0.0142,-0.024 0.002,-0.058 -0.0236,-0.069 -7.1e-4,-5e-4 -10e-4,-5e-4 -0.002,-4e-4 z m 3.86594,0.3477 c -0.013,0.01 -0.0279,0.011 -0.0358,0.024 -0.0129,0.02 -0.01,0.048 0.008,0.064 0.0217,0.023 0.0445,0.045 0.0665,0.067 0.0987,0.099 0.1979,0.1971 0.29812,0.2945 0.009,0.01 0.0193,0 0.0288,0 0.0224,-0 0.0435,-0.022 0.0422,-0.046 2.3e-4,-0.01 4.9e-4,-0.022 -0.008,-0.029 -0.0439,-0.049 -0.0918,-0.095 -0.13826,-0.1418 -0.0759,-0.076 -0.15151,-0.1518 -0.23025,-0.2246 -0.009,-10e-4 -0.0154,-0.01 -0.0231,-0.012 -0.002,0 -0.005,0 -0.007,0 z m -3.5314,0 c -0.0116,0 -0.0236,0 -0.0308,0.013 -0.0563,0.053 -0.1099,0.1088 -0.1651,0.1632 -0.066,0.066 -0.13207,0.1318 -0.19788,0.198 -0.008,0.015 -0.0111,0.034 -0.003,0.049 0.008,0.016 0.024,0.026 0.0411,0.029 0.007,0 0.0137,0 0.0202,-2e-4 0.0123,-0 0.0186,-0.015 0.0276,-0.022 0.11674,-0.117 0.23519,-0.2323 0.34969,-0.3515 0.007,-0.01 0.01,-0.02 0.008,-0.03 -4e-5,-0.024 -0.0208,-0.044 -0.0436,-0.048 -0.002,-3e-4 -0.004,-4e-4 -0.007,-3e-4 z m 6.84905,0.1585 c -0.0117,0.012 -0.0234,0.023 -0.0351,0.035 0.32978,0.3297 0.65954,0.6595 0.98929,0.9893 0.0234,-0.023 0.0467,-0.047 0.0701,-0.07 -0.32975,-0.3298 -0.65951,-0.6596 -0.98928,-0.9893 -0.0117,0.012 -0.0233,0.023 -0.035,0.035 z m -3.66938,0.1914 c -0.0196,0.01 -0.0395,0.019 -0.0444,0.04 -4.9e-4,0.01 -9e-5,0.019 8.1e-4,0.029 0.007,0.013 0.018,0.022 0.0273,0.032 0.0853,0.088 0.17245,0.175 0.26029,0.261 0.0271,0.026 0.0539,0.053 0.081,0.079 0.0133,0 0.0251,0.014 0.0394,0.014 0.0274,-0 0.0472,-0.033 0.0414,-0.06 -0.003,-0.019 -0.0199,-0.03 -0.0317,-0.043 -0.11091,-0.1128 -0.2224,-0.225 -0.33653,-0.3346 -0.008,-0.01 -0.0168,-0.014 -0.0271,-0.017 -0.003,-0 -0.007,-10e-4 -0.0104,-10e-4 z m -2.822,2e-4 c -0.0112,5e-4 -0.0241,0 -0.0313,0.012 -0.0674,0.063 -0.13206,0.1301 -0.19805,0.1953 -0.0569,0.057 -0.11446,0.1136 -0.16941,0.1725 -0.008,0.01 -0.007,0.021 -0.006,0.032 0.002,0.019 0.0178,0.037 0.0374,0.037 0.0138,0 0.0302,6e-4 0.0398,-0.011 0.0454,-0.042 0.0887,-0.087 0.13317,-0.1308 0.079,-0.079 0.15849,-0.157 0.23548,-0.2378 0.0134,-0.023 0.002,-0.059 -0.0241,-0.067 -0.005,-0 -0.0112,-0 -0.0168,-0 z m 0.35217,0.3546 c -0.0186,-8e-4 -0.0348,0.011 -0.0462,0.025 -0.11185,0.1096 -0.2228,0.2203 -0.33199,0.3327 -0.009,0.01 -0.0198,0.018 -0.0241,0.031 -0.005,0.017 -10e-4,0.036 0.0115,0.048 0.0138,0 0.0259,0.014 0.0405,0.016 0.0177,-6e-4 0.0282,-0.017 0.0406,-0.027 0.0658,-0.062 0.12838,-0.1271 0.1928,-0.1908 0.052,-0.052 0.10427,-0.104 0.15621,-0.1562 0.008,-0.015 0.0134,-0.035 0.004,-0.051 -0.008,-0.016 -0.025,-0.028 -0.0431,-0.027 z m 2.12781,2e-4 c -0.0122,-5e-4 -0.025,9e-4 -0.0353,0.01 -0.0137,0.01 -0.0231,0.024 -0.0214,0.041 -2e-4,0.01 4.9e-4,0.019 0.008,0.025 0.0224,0.026 0.0476,0.05 0.0714,0.075 0.0931,0.094 0.18624,0.1878 0.2799,0.2811 0.007,0.01 0.014,0.014 0.0222,0.018 0.0137,0 0.0275,0 0.0411,10e-4 0.0186,-0.01 0.0316,-0.029 0.0286,-0.05 2.5e-4,-0.01 -0.003,-0.016 -0.009,-0.022 -0.0216,-0.025 -0.0471,-0.049 -0.0707,-0.073 -0.0987,-0.1 -0.19826,-0.1986 -0.2973,-0.298 -0.005,-0 -0.0113,-0.01 -0.0177,-0.01 z m 3.33917,0.1258 c -0.0119,0.012 -0.0238,0.024 -0.0357,0.036 0.32977,0.3298 0.65954,0.6595 0.98931,0.9893 0.0237,-0.024 0.0475,-0.047 0.0712,-0.071 -0.32977,-0.3298 -0.65953,-0.6596 -0.98927,-0.9894 -0.0119,0.012 -0.0237,0.024 -0.0356,0.036 z m -3.70857,0.2266 c -0.0251,0 -0.0446,0.029 -0.0409,0.054 4.8e-4,0.011 0.006,0.021 0.0145,0.028 0.0644,0.067 0.13037,0.1319 0.19593,0.1975 0.0546,0.055 0.1094,0.1096 0.16412,0.1643 0.006,0 0.0124,0.01 0.0198,0.01 0.01,3e-4 0.02,0 0.0301,1e-4 0.0216,-0.011 0.0344,-0.039 0.0245,-0.062 -0.007,-0.014 -0.0209,-0.023 -0.0308,-0.035 -0.11141,-0.1144 -0.22463,-0.2272 -0.33987,-0.3378 -0.005,-0.01 -0.0143,-0.01 -0.0213,-0.011 -0.005,-0 -0.01,-0 -0.0161,-0 z m -1.40606,10e-5 c -0.0105,2e-4 -0.0213,0 -0.0283,0.012 -0.0335,0.03 -0.0642,0.062 -0.0963,0.093 -0.0904,0.09 -0.18074,0.1801 -0.26948,0.2719 -0.0113,0.011 -0.0109,0.029 -0.006,0.044 0.005,0.015 0.0186,0.027 0.034,0.031 0.0106,-5e-4 0.0214,7e-4 0.0319,-10e-5 0.005,-0 0.0104,-0 0.0136,-0.01 0.12133,-0.1223 0.24456,-0.2428 0.36402,-0.3668 0.0114,-0.019 0.005,-0.045 -0.0103,-0.06 -0.009,-0.01 -0.0209,-0.015 -0.0331,-0.015 z m 0.3528,0.3542 c -0.0138,-4e-4 -0.0265,0.01 -0.0349,0.018 -0.092,0.088 -0.18072,0.1792 -0.27106,0.2689 -0.0313,0.032 -0.0631,0.063 -0.0924,0.097 -0.005,0.011 -0.004,0.024 -0.002,0.036 0.008,0.021 0.0314,0.034 0.0535,0.034 0.0164,-0 0.0258,-0.016 0.0375,-0.026 0.0611,-0.057 0.11904,-0.1181 0.17874,-0.1769 0.0586,-0.059 0.11768,-0.1167 0.17418,-0.1772 0.011,-0.02 0.006,-0.048 -0.0124,-0.062 -0.009,-0.01 -0.0201,-0.012 -0.0316,-0.011 z m 0.71291,9e-4 c -0.0129,10e-4 -0.0276,5e-4 -0.0373,0.011 -0.0186,0.015 -0.0233,0.045 -0.009,0.065 0.0123,0.016 0.0283,0.029 0.0421,0.044 0.106,0.1069 0.21184,0.214 0.32092,0.3178 0.007,0.01 0.0155,0.015 0.0262,0.013 0.01,-3e-4 0.02,0 0.0285,-0 0.0183,-0.01 0.0301,-0.031 0.026,-0.052 -2e-4,-0.013 -0.0106,-0.021 -0.0182,-0.029 -0.0491,-0.052 -0.10038,-0.1025 -0.15088,-0.1535 -0.0676,-0.068 -0.13491,-0.1352 -0.20263,-0.2025 -0.008,-0 -0.0168,-0.01 -0.0254,-0.01 z m 3.37722,0.09 c -0.0119,0.012 -0.0237,0.024 -0.0356,0.036 0.32979,0.3296 0.65925,0.6597 0.98952,0.9889 0.0237,-0.024 0.0473,-0.047 0.071,-0.071 -0.32976,-0.3298 -0.65952,-0.6595 -0.98928,-0.9893 -0.0119,0.012 -0.0238,0.024 -0.0356,0.036 z m 2.41948,1.6555 c -0.0589,0.059 -0.11786,0.1178 -0.17679,0.1768 0.1651,0.165 0.32999,0.3302 0.49541,0.4949 0.11806,-0.1175 0.23574,-0.2354 0.35354,-0.3531 -0.16511,-0.1652 -0.33023,-0.3303 -0.49535,-0.4954 -0.0589,0.059 -0.11787,0.1179 -0.17681,0.1768 z m -9.13782,0.3512 c 0,0.1167 0,0.2333 0,0.35 0.1666,0 0.33319,0 0.49979,0 0,-0.2333 0,-0.4667 0,-0.7 -0.1666,0 -0.33319,0 -0.49979,0 0,0.1166 0,0.2333 0,0.35 z m 1.30058,0 c 0,0.1167 0,0.2333 0,0.35 0.16657,0 0.33313,0 0.49969,0 -3e-4,-0.233 -5.9e-4,-0.4661 -8.9e-4,-0.6991 -0.16627,-3e-4 -0.33253,-5e-4 -0.4988,-8e-4 0,0.1166 0,0.2333 0,0.3499 z m 6.91806,0.568 c -0.0589,0.059 -0.11787,0.1179 -0.17681,0.1768 0.16512,0.1651 0.33024,0.3303 0.49536,0.4954 0.11786,-0.1179 0.23574,-0.2358 0.35362,-0.3537 -0.16511,-0.1651 -0.33023,-0.3302 -0.49536,-0.4953 -0.0589,0.059 -0.11787,0.1179 -0.17681,0.1768 z m -6.54453,1.6303 c 0,0.1333 0,0.2665 0,0.3997 0.2671,0 0.53421,0 0.80132,0 0,-0.2664 0,-0.5328 0,-0.7992 -0.26711,0 -0.53422,0 -0.80132,0 0,0.1332 0,0.2664 0,0.3995 z m 4.00077,0 c 0,0.1333 0,0.2665 0,0.3997 0.26635,0 0.53271,0 0.79906,0 0,-0.2664 0,-0.5328 0,-0.7992 -0.26635,0 -0.53271,0 -0.79906,0 0,0.1332 0,0.2664 0,0.3995 z m 2.08814,0.1745 c 0,0.083 0,0.1666 0,0.2499 0.23335,0 0.4667,0 0.70006,0 0,-0.1666 0,-0.3333 0,-0.4999 -0.23336,0 -0.46671,0 -0.70006,0 0,0.083 0,0.1666 0,0.25 z m -6.08891,1.4255 c 0,0.1332 0,0.2663 0,0.3995 0.2671,0 0.53421,0 0.80132,0 0,-0.2664 0,-0.5327 0,-0.7991 -0.26711,0 -0.53422,0 -0.80132,0 0,0.1332 0,0.2664 0,0.3996 z m 4.00077,0 c 0,0.1332 0,0.2663 0,0.3995 0.26635,0 0.53271,0 0.79906,0 0,-0.2664 0,-0.5327 0,-0.7991 -0.26635,0 -0.53271,0 -0.79906,0 0,0.1332 0,0.2664 0,0.3996 z m 2.08814,-0.1249 c 0,0.083 0,0.1666 0,0.2499 0.23335,0 0.4667,0 0.70006,0 0,-0.1666 0,-0.3332 0,-0.4998 -0.23336,0 -0.46671,0 -0.70006,0 0,0.083 0,0.1666 0,0.2499 z"
       id="path4998"
       inkscape:connector-curvature="0" />
  </g>
</svg>
