<?xml version="1.0" encoding="UTF-8" standalone="no"?>
<svg
   xmlns:dc="http://purl.org/dc/elements/1.1/"
   xmlns:cc="http://creativecommons.org/ns#"
   xmlns:rdf="http://www.w3.org/1999/02/22-rdf-syntax-ns#"
   xmlns:svg="http://www.w3.org/2000/svg"
   xmlns="http://www.w3.org/2000/svg"
   xmlns:sodipodi="http://sodipodi.sourceforge.net/DTD/sodipodi-0.dtd"
   xmlns:inkscape="http://www.inkscape.org/namespaces/inkscape"
   version="1.1"
   id="svg4385"
   viewBox="0 0 744.09448819 1052.3622047"
   height="297mm"
   width="210mm"
   inkscape:version="0.91 r13725"
   sodipodi:docname="traced_75um_inset.svg">
  <sodipodi:namedview
     pagecolor="#ffffff"
     bordercolor="#666666"
     borderopacity="1"
     objecttolerance="10"
     gridtolerance="10"
     guidetolerance="10"
     inkscape:pageopacity="0"
     inkscape:pageshadow="2"
     inkscape:window-width="1370"
     inkscape:window-height="829"
     id="namedview7"
     showgrid="false"
     inkscape:zoom="15.151836"
     inkscape:cx="5.508961"
     inkscape:cy="20.690602"
     inkscape:window-x="0"
     inkscape:window-y="0"
     inkscape:window-maximized="0"
     inkscape:current-layer="svg4385" />
  <defs
     id="defs4387" />
  <metadata
     id="metadata4390">
    <rdf:RDF>
      <cc:Work
         rdf:about="">
        <dc:format>image/svg+xml</dc:format>
        <dc:type
           rdf:resource="http://purl.org/dc/dcmitype/StillImage" />
        <dc:title />
      </cc:Work>
    </rdf:RDF>
  </metadata>
  <g
     id="layer1"
     transform="matrix(9.9999999e-4,0,0,9.9999999e-4,-0.08550391,1051.3896)">
    <path
       id="path4998"
       d="m 3658.7422,-39708.338 c 0,233.374 0,466.748 0,700.121 449.5332,0 899.0664,0 1348.5996,0 0,-466.78 0,-933.561 0,-1400.342 -449.5332,0 -899.0664,0 -1348.5996,0 0,233.407 0,466.814 0,700.221 z m 1998.1348,0 c 0,233.374 0,466.748 0,700.121 450.2838,0 900.5677,0 1350.8515,0 0,-466.78 0,-933.561 0,-1400.342 -450.2838,0 -900.5677,0 -1350.8515,0 0,233.407 0,466.814 0,700.221 z m -1748.3672,2698.975 c 0,200.006 0,400.011 0,600.017 82.7584,0 165.5169,0 248.2754,0 0,-400.012 0,-800.024 0,-1200.037 -82.7585,0 -165.517,0 -248.2754,0 0,200.007 0,400.013 0,600.02 z m 650.2929,0 c 0,200.006 0,400.011 0,600.017 82.7591,0 165.5183,0 248.2774,0 0,-400.012 0,-800.024 0,-1200.037 -82.7591,0 -165.5183,0 -248.2774,0 0,200.007 0,400.013 0,600.02 z m 774.0918,-599.52 c -41.6621,0.126 -83.3242,0.251 -124.9863,0.377 -0.3346,399.72 -0.6693,799.44 -1.0039,1199.16 83.4896,0 166.9792,0 250.4687,0 0,-399.97 0,-799.94 0,-1199.91 -41.4928,0.124 -82.9856,0.249 -124.4785,0.373 z m 650.295,0 c -41.6628,0.126 -83.3256,0.251 -124.9883,0.377 -0.3347,399.72 -0.6693,799.44 -1.0039,1199.16 83.4902,0 166.9804,0 250.4707,0 0,-399.97 0,-799.94 0,-1199.91 -41.4929,0.124 -82.9857,0.249 -124.4785,0.373 z m 524.8027,600.184 c -0.1673,199.784 -0.3346,399.569 -0.502,599.353 83.4714,0 166.9427,0 250.4141,0 -0.3353,-399.646 -0.6706,-799.291 -1.0059,-1198.937 -82.8014,0 -165.6028,0 -248.4043,0 -0.1673,199.861 -0.3346,399.722 -0.5019,599.584 z m 3122.6504,2572.404 c 0,91.637 0,183.274 0,274.91 250.0202,0 500.0404,0 750.0604,0 0,-183.273 0,-366.545 0,-549.818 -250.02,0 -500.0402,0 -750.0604,0 0,91.636 0,183.272 0,274.908 z m -5989.9004,460.889 c 0.1,192.183 0,384.367 0.8672,576.549 449.9941,0.09 899.9882,0.293 1349.9824,0.197 0,-383.513 0,-767.026 0,-1150.539 -450.2832,0 -900.5664,0 -1350.8496,0 0,191.264 0,382.528 0,573.793 z m -2832.93947,128.627 c 0,183.139 0,366.278 0,549.418 356.52737,0 713.05467,0 1069.58207,0 0,-366.278 0,-732.556 0,-1098.834 -356.5274,0 -713.0547,0 -1069.58207,0 0,183.138 0,366.277 0,549.416 z m 7324.24027,222.806 c 0,91.604 0,183.207 0,274.811 250.0195,0 500.039,0 750.0586,0 0,-183.24 0,-366.481 0,-549.721 -250.0196,0 -500.0391,0 -750.0586,0 0,91.637 0,183.274 0,274.91 z m -2234.4004,355.51 c 0,91.636 0,183.272 0,274.908 250.0202,0 500.0403,0 750.0605,0 0,-183.272 0,-366.545 0,-549.818 -250.0202,0 -500.0403,0 -750.0605,0 0,91.637 0,183.273 0,274.91 z m 3733.0019,131.166 c 0.063,92.07 0.058,184.141 0.6114,276.209 249.8157,0.151 499.6311,0.307 749.4471,0.248 0,-183.277 0,-366.553 0,-549.83 -250.019,0 -500.0389,0 -750.0585,0 0,91.124 0,182.249 0,273.373 z m -5313.8574,487.748 c -224.9948,0.181 -449.9896,0.361 -674.9844,0.541 -0.3346,383.165 -0.6692,766.33 -1.0039,1149.494 450.2644,0 900.5287,0 1350.793,0 0,-383.494 0,-766.988 0,-1150.482 -224.9349,0.149 -449.8698,0.298 -674.8047,0.447 z m 3815.2559,326.111 c 0,91.637 0,183.274 0,274.911 250.0195,0 500.039,0 750.0586,0 0,-183.274 0,-366.547 0,-549.821 -250.0196,0 -500.0391,0 -750.0586,0 0,91.637 0,183.274 0,274.91 z m -2234.4004,355.51 c 0,91.636 0,183.272 0,274.908 250.0202,0 500.0403,0 750.0605,0 0,-183.272 0,-366.545 0,-549.818 -250.0202,0 -500.0403,0 -750.0605,0 0,91.637 0,183.274 0,274.91 z m -5089.83987,1071.129 c 0,183.139 0,366.278 0,549.416 356.52737,0 713.05467,0 1069.58207,0 0,-366.278 0,-732.556 0,-1098.834 -356.5274,0 -713.0547,0 -1069.58207,0 0,183.14 0,366.279 0,549.418 z m 2828.43947,652.281 c 0.06,92.07 0.06,184.14 0.6113,276.207 249.8164,0.157 499.6328,0.299 749.4492,0.249 0,-183.277 0,-366.553 0,-549.829 -250.0201,0 -500.0403,0 -750.0605,0 0,91.125 0,182.249 0,273.373 z m 3687.0058,-117.988 c -0.3679,76.988 -0.2498,153.977 0.088,230.965 32.7174,0.07 65.4349,0.06 98.1524,0.06 0.5275,-80.893 0.2449,-161.788 -0.01,-242.681 -32.7227,-0.02 -65.4453,-0.03 -98.168,-0.03 -0.021,3.894 -0.043,7.788 -0.065,11.682 z m 500.7911,-7.129 c -0.4814,79.94 -0.2835,159.881 0.014,239.821 32.7207,0.04 65.4414,0.06 98.1621,0.03 0.4556,-81.348 0.2344,-162.698 0.01,-244.047 -32.7187,-0.07 -65.4375,-0.06 -98.1562,-0.06 -0.01,1.42 -0.02,2.84 -0.029,4.26 z m -988.2442,-1.984 c -4.3143,1.405 -14.9295,-3.521 -13.1453,4.013 -0.4609,78.471 -0.168,156.943 0,235.415 33.1699,0 66.3398,0.01 99.5097,0 -0.01,-79.791 0.2919,-159.584 -0.2128,-239.375 -28.7162,-0.03 -57.4323,-0.07 -86.1485,-0.06 z m 1487.6875,8.732 c -0.4504,78.051 -0.059,156.103 -0.1347,234.155 33.1646,0.06 66.3294,0.06 99.4941,0.05 0.4989,-80.498 0.1846,-160.997 0.018,-241.496 -33.1094,-0.01 -66.2188,-0.02 -99.3282,-0.02 -0.016,2.434 -0.032,4.869 -0.049,7.304 z m 499.3574,114.201 c 0.022,39.419 -0.034,78.838 0.012,118.256 33.2506,0.06 66.5013,0.05 99.7519,0.05 -0.012,-78.821 0.037,-157.642 -0.021,-236.463 -33.2473,-0.05 -66.4948,-0.04 -99.7422,-0.05 0,39.401 0,78.801 0,118.201 z m -2875.4785,768.157 c -0.5931,24.657 -0.1461,50.829 -0.1269,76.072 83.4518,0 166.9036,0 250.3554,0 0.1639,-30.618 0.1557,-61.237 -0.012,-91.855 -83.4056,-0.06 -166.8112,-0.05 -250.2168,-0.05 0,5.276 0,10.553 0,15.83 z m 3600.0547,-4.246 c -0.1129,26.239 -0.111,52.479 0.047,78.718 83.4564,0 166.9128,0 250.3691,0 0.1813,-29.935 0.1356,-59.871 -0.025,-89.806 -83.4427,0 -166.8854,0 -250.3281,0 -0.021,3.696 -0.042,7.392 -0.062,11.088 z m -5535.4824,265.82 c -124.8965,0.139 -249.793,0.279 -374.6895,0.418 -0.2981,182.933 -0.5963,365.867 -0.8945,548.801 249.9844,0 499.9688,0 749.9531,0 0,-183.241 0,-366.481 0,-549.721 -124.7897,0.167 -249.5794,0.335 -374.3691,0.502 z m 3136.793,764.123 c 0,241.641 0,483.281 0,724.922 483.2701,0 966.5403,0 1449.8105,0 -0.3418,-482.934 -0.6836,-965.869 -1.0254,-1448.803 -482.9283,-0.372 -965.8567,-0.706 -1448.7851,-0.996 0,241.626 0,483.251 0,724.877 z m -1201.3672,-541.631 c -0.5088,30.102 -0.2154,60.866 -0.127,91.221 83.4623,0 166.9245,0 250.3867,0 0.1572,-30.503 0.124,-61.006 -0.014,-91.508 -83.4154,0 -166.8308,0 -250.2461,0 l 0,0.287 z m 3600.2402,0 c -0.5042,30.102 -0.2143,60.867 -0.1269,91.223 83.4615,0 166.9231,0 250.3847,0 0.1611,-30.503 0.1427,-61.006 0,-91.508 -83.418,0 -166.8359,0 -250.2539,0 l 0,0.285 z m 105.0566,491.322 c 7.2382,6.975 10.0422,-2.596 0.3537,-0.01 l -0.3537,0.01 z m -90.3515,3.745 c -4.5065,1.008 -13.022,-2.016 -14.8828,1.646 -0.1343,29.731 0.03,59.462 0.084,89.193 83.4602,0.02 166.9205,0.03 250.3808,0.03 0.1642,-30.106 0.095,-60.213 -0.051,-90.319 -78.5103,-0.209 -157.0203,-0.636 -235.5312,-0.546 z m -3615.1445,8.933 c 0,30.245 -0.064,60.49 0.07,90.734 83.4733,0 166.9466,0 250.4199,0 0.1588,-30.116 0.093,-60.233 -0.053,-90.349 -83.479,-0.24 -166.9582,-0.404 -250.4375,-0.385 z m 0.014,505.846 c -0.1222,26.718 -0.1282,53.438 0.043,80.156 83.4543,0.191 166.9088,0.27 250.3633,0.256 0.1632,-30.547 0.1505,-61.096 -0.027,-91.643 -83.4374,-0.09 -166.875,-0.07 -250.3125,-0.08 -0.022,3.77 -0.044,7.539 -0.066,11.309 z m 3600.2305,1.439 c -0.093,26.68 -0.099,53.36 0.033,80.039 83.4609,0.03 166.9219,0.02 250.3828,0.02 0.161,-30.361 0.1492,-60.723 -0.018,-91.084 -83.4485,-0.03 -166.8971,-0.02 -250.3457,-0.02 -0.017,3.682 -0.035,7.364 -0.053,11.045 z m -7603.2773,622.977 c 0,125.004 0,250.008 0,375.012 183.2656,0 366.5312,0 549.7968,0 0,-250.01 0,-500.019 0,-750.028 -183.2656,0 -366.5312,0 -549.7968,0 0,125.005 0,250.011 0,375.016 z m 1300.5878,0 c 0,125.004 0,250.008 0,375.012 183.2383,0 366.4766,0 549.7149,0 -0.3164,-249.685 -0.6328,-499.369 -0.9492,-749.053 -182.9219,-0.323 -365.8437,-0.614 -548.7657,-0.869 0,124.97 0,249.94 0,374.91 z m 2702.5196,-136.201 c -0.1781,29.532 -0.1818,59.066 -0.041,88.599 83.4765,0 166.9531,0 250.4296,0 0.021,-29.518 0.099,-59.036 -0.031,-88.554 -83.4525,-0.06 -166.9049,-0.05 -250.3574,-0.04 z m 3600.248,0 c -0.1867,30.354 -0.2051,60.71 -0.043,91.064 83.4635,0.103 166.927,0.02 250.3906,0.03 0.158,-30.348 0.1495,-60.698 -0.018,-91.046 -83.4433,-0.06 -166.8867,-0.05 -250.3301,-0.04 z M 7824,-26764.869 c -0.4033,79.004 -0.2117,158.009 0.025,237.014 33.0142,0.04 66.0291,0.277 99.043,0.02 0.1695,-82.413 0.1609,-164.992 -0.6914,-247.293 -32.7721,-0.07 -65.5443,-0.06 -98.3165,-0.06 -0.02,3.44 -0.04,6.879 -0.06,10.319 z m 998.9746,7.24 c -0.3032,74.012 -0.1602,148.024 0.057,222.035 33.1648,0.01 66.3295,0.02 99.4942,0.02 -0.01,-79.795 0.2901,-159.591 -0.2129,-239.385 -33.0853,-0.03 -66.1706,-0.02 -99.2559,-0.03 -0.027,5.785 -0.055,11.57 -0.082,17.355 z m -1500.6894,-5.289 c -0.1388,76.227 0.3348,152.454 0.7636,228.68 32.8548,0.07 65.7097,0.06 98.5645,0.06 -0.01,-79.987 0.2605,-159.976 -0.211,-239.963 -33.0299,-0.05 -66.0599,-0.04 -99.0898,-0.05 -0.01,3.757 -0.018,7.514 -0.027,11.271 z m -486.4981,-10.008 c -4.4211,1.295 -14.7298,-3.325 -13.1375,4.016 -0.4631,78.472 -0.1652,156.945 0,235.418 33.1699,0 66.3398,0.01 99.5097,0 -0.01,-79.791 0.2919,-159.583 -0.2128,-239.373 -28.7188,-0.02 -57.4375,-0.08 -86.1563,-0.07 z m 1487.6953,8.793 c -0.4504,78.029 -0.059,156.06 -0.1347,234.09 33.1627,0.05 66.3255,0.134 99.4882,0.08 0.4842,-80.498 0.2318,-160.999 0,-241.498 -33.1028,-0.01 -66.2057,-0.02 -99.3086,-0.02 -0.016,2.451 -0.032,4.902 -0.049,7.353 z m -7918.45701,1410.387 c 0,224.739 0,449.479 0,674.219 382.77865,0 765.55731,0 1148.33591,0 0,-449.513 0,-899.026 0,-1348.539 -382.7786,0 -765.55726,0 -1148.33591,0 0,224.773 0,449.546 0,674.32 z m 1899.12691,0 c 0,224.739 0,449.479 0,674.219 383.5287,0 767.0573,0 1150.586,0 0,-449.513 0,-899.026 0,-1348.539 -383.5287,0 -767.0573,0 -1150.586,0 0,224.773 0,449.546 0,674.32 z m -1905.87691,2052.055 c 0,141.537 0,283.075 0,424.613 116.51107,0 233.02214,0 349.5332,0 0,-283.042 0,-566.085 0,-849.127 -116.51106,0 -233.02213,0 -349.5332,0 0,141.504 0,283.009 0,424.514 z m 1899.12691,0 c 0,141.537 0,283.075 0,424.613 116.5111,0 233.0222,0 349.5332,0 0,-283.042 0,-566.085 0,-849.127 -116.511,0 -233.0221,0 -349.5332,0 0,141.504 0,283.009 0,424.514 z m 3572.0489,-53.53 c -3.966,2.105 -8.1064,5.259 -6.4474,10.371 -1.8476,228.933 -0.7731,457.992 0.1134,686.854 0.3182,17.482 0.07,35.271 1.4394,52.557 5.0884,4.734 11.5986,6.782 18.4707,5.681 90.4514,0.151 180.9034,0 271.3536,-0.498 5.3143,-1.645 7.4799,-5.285 6.3226,-10.597 -0.3756,-156.544 -0.042,-313.09 -0.1586,-469.635 0,-89.905 0,-179.809 0,-269.713 -4.7935,-4.484 -10.7044,-6.3 -17.1875,-5.293 -91.1445,0 -182.289,0 -273.4336,0 l -0.4726,0.273 z m 999.2519,0.02 c -65.7754,0 -131.5508,0 -197.3261,0 -3.0984,2.24 -9.3889,3.251 -7.5411,8.287 -0.067,246.368 -0.056,492.774 0,739.156 95.9268,0.655 191.8634,-0.197 287.7851,-0.279 3.4557,-2.613 10.3351,-3.016 8.5665,-8.811 3.0479,-47.628 1.7943,-94.993 2.3435,-143.064 -0.058,-188.959 0.9405,-377.927 -0.8625,-566.879 -0.2355,-9.453 -0.4008,-19.105 -1.358,-28.406 -30.5364,0.165 -61.073,-0.147 -91.6094,0 z m 1399.4785,1.84 c -4.1659,1.111 -5.5681,4.165 -4.5205,8.193 -0.077,246.593 -0.013,493.217 -0.034,739.822 96.6832,0.1 193.366,-0.242 290.0488,-0.474 3.1208,-2.577 9.4378,-4.279 7.582,-9.438 0.4089,-212.883 1.271,-425.798 0.6715,-638.693 -0.2864,-33.248 0.161,-66.516 -0.9352,-99.748 -97.3802,0 -194.7604,0 -292.1406,0 l -0.6719,0.338 z m -747.2636,-0.01 c -18.9961,0.668 -38.4988,-1.133 -57.1368,1.931 -2.9618,5.214 -0.2782,12.102 -1.1933,17.913 0.01,242.229 -0.016,484.47 0.012,726.693 5.1941,5.551 12.7366,7.449 20.127,6.394 92.6328,0.03 185.3732,1.492 277.664,-0.992 -0.067,-248.707 0.1345,-497.415 -0.1015,-746.123 -4.0016,-3.591 -8.4907,-6.148 -14.041,-4.961 -75.1101,-0.27 -150.2191,-0.9 -225.3301,-0.855 z m -609.3789,1696.605 c -80.6247,0.218 -161.3748,0.396 -241.92,0.991 -3.275,2.002 -7.2688,4.037 -5.7011,8.457 -0.3279,243.067 -0.047,486.161 -0.1407,729.238 99.2814,0.339 198.5649,0.614 297.8477,0.404 -0.053,-246.202 0.1079,-492.405 -0.082,-738.607 -5.506,-0.374 -13.7585,2.163 -17.5899,0.01 -8.0905,-1.185 -18.3879,-0.157 -27.3047,-0.502 -1.7031,0 -3.4062,0 -5.1093,0 z m -973.2246,3.91 c -22.4877,0.01 -44.9753,0.02 -67.4629,0.04 -3.3812,2.223 -9.1747,3.241 -7.3016,8.599 -0.2433,39.912 -1.2448,79.974 -1.3868,119.867 -1.1439,163.822 -0.8068,327.653 -0.1031,491.477 0.4477,43.762 0.5352,87.805 2.0903,131.258 9.0823,1.496 19.2302,0.172 28.709,0.618 88.6263,-0.121 177.3287,-0.296 265.9062,-0.753 5.7129,-2.808 1.7019,-9.834 2.6758,-14.682 0.2839,-127.431 -0.3177,-254.892 -0.3743,-382.335 -0.1766,-116.761 -0.3533,-233.521 -0.53,-350.282 -4.8883,-6.605 -13.7108,-2.831 -20.6484,-3.802 -67.1914,0 -134.3828,-0.01 -201.5742,0 z m 1748.8242,2.004 c -72.5306,0 -145.0612,0 -217.5918,0 -3.8153,2.459 -8.6419,5.188 -6.9114,10.553 0.1134,245.611 -0.1396,491.31 0.134,736.865 5.3177,4.671 11.3,9.363 18.8105,7.642 91.0522,-0.263 182.1052,-0.275 273.1563,-0.825 2.61,-1.866 7.3748,-2.783 5.7032,-6.912 0.043,-247.866 0.01,-495.783 0.019,-743.668 -5.2073,-6.628 -14.3897,-2.553 -21.5723,-3.659 -17.2493,0 -34.4987,0 -51.748,0 z m 576.4941,3.008 c 0.052,247.272 -0.1042,494.637 0.078,741.852 4.5821,4.746 10.6927,6.32 17.1153,5.329 91.2798,-0.101 182.5612,-0.08 273.8398,-0.345 4.1276,-1.746 8.4592,-5.159 6.761,-10.273 -0.054,-245.515 0.1146,-491.029 -0.087,-736.543 -99.2356,-0.01 -198.4713,-0.04 -297.707,-0.02 z m -7865.35741,749.016 c 0,141.819 0,283.639 0,425.459 116.16347,-0.231 232.32688,-0.487 348.49023,-0.768 0.32097,-283.469 0.64193,-566.937 0.9629,-850.406 -116.48438,0 -232.96875,0 -349.45313,0 0,141.905 0,283.81 0,425.715 z m 949.56251,0 c 0,141.87 0,283.741 0,425.611 116.5117,0 233.0234,0 349.5351,0 0,-283.775 0,-567.551 0,-851.326 -116.5117,0 -233.0234,0 -349.5351,0 0,141.905 0,283.81 0,425.715 z m 949.5644,0 c 0,141.87 0,283.741 0,425.611 116.5111,0 233.0222,0 349.5332,0 0,-283.775 0,-567.551 0,-851.326 -116.511,0 -233.0221,0 -349.5332,0 0,141.905 0,283.81 0,425.715 z M 85.503906,-18730.869 c 0,191.752 0,383.505 0,575.258 449.929654,-0.369 899.859344,-0.703 1349.789094,-0.993 0.3346,-383.161 0.6692,-766.322 1.0039,-1149.484 -450.26435,0 -900.52867,0 -1350.792994,0 0,191.74 0,383.479 0,575.219 z m 2409.910194,356.709 c 0,174.872 0,349.743 0,524.615 350.5267,0 701.0533,0 1051.58,0 0,-349.777 0,-699.555 0,-1049.332 -350.5267,0 -701.0533,0 -1051.58,0 0,174.906 0,349.811 0,524.717 z m 1651.6113,0 c 0,174.872 0,349.743 0,524.615 349.7767,0 699.5534,0 1049.3301,0 0,-349.777 0,-699.555 0,-1049.332 -349.7767,0 -699.5534,0 -1049.3301,0 0,174.906 0,349.811 0,524.717 z m 1651.6113,0 c 0,174.872 0,349.743 0,524.615 349.7767,0 699.5534,0 1049.3301,0 0,-349.777 0,-699.555 0,-1049.332 -349.7767,0 -699.5534,0 -1049.3301,0 0,174.906 0,349.811 0,524.717 z m 1651.6094,0 c 0,174.872 0,349.743 0,524.615 349.7767,0 699.5534,0 1049.3301,0 0,-349.777 0,-699.555 0,-1049.332 -349.7767,0 -699.5534,0 -1049.3301,0 0,174.906 0,349.811 0,524.717 z M 85.503906,-16830.619 c 0,191.406 0,382.812 0,574.219 450.283204,0 900.566404,0 1350.849594,0 0,-382.779 0,-765.558 0,-1148.336 -450.28319,0 -900.56639,0 -1350.849594,0 0,191.372 0,382.744 0,574.117 z m 4061.521494,556.916 c 0,175.272 0,350.544 0,525.816 349.7767,0 699.5534,0 1049.3301,0 0,-350.511 0,-701.022 0,-1051.533 -349.7767,0 -699.5534,0 -1049.3301,0 0,175.239 0,350.478 0,525.717 z m 1651.6113,0 c 0,175.272 0,350.544 0,525.816 349.7767,0 699.5534,0 1049.3301,0 0,-350.511 0,-701.022 0,-1051.533 -349.7767,0 -699.5534,0 -1049.3301,0 0,175.239 0,350.478 0,525.717 z m 1651.6094,0 c 0,175.272 0,350.544 0,525.816 349.7767,0 699.5534,0 1049.3301,0 0,-350.511 0,-701.022 0,-1051.533 -349.7767,0 -699.5534,0 -1049.3301,0 0,175.239 0,350.478 0,525.717 z m -4954.2832,-2.151 c -0.1011,175.826 -0.3198,351.652 0.096,527.477 349.937,0.313 699.8737,-0.359 1049.8105,-0.555 0,-349.796 0,-699.592 0,-1049.388 -349.7994,0 -699.5989,0 -1049.3984,0 -0.1693,174.155 -0.3385,348.311 -0.5078,522.466 z m -1618.40626,2432.317 c 0,125.004 0,250.008 0,375.012 183.26566,0 366.53126,0 549.79686,0 0,-250.009 0,-500.017 0,-750.026 -183.2656,0 -366.5312,0 -549.79686,0 0,125.005 0,250.009 0,375.014 z m 1300.58786,0 c 0,124.969 0,249.937 0,374.906 182.922,-0.255 365.8438,-0.543 548.7657,-0.867 0.3157,-249.684 0.6315,-499.369 0.9472,-749.053 -183.2376,0 -366.4752,0 -549.7129,0 0,125.005 0,250.009 0,375.014 z m 1390.5918,25 c 0,125.004 0,250.008 0,375.012 183.2657,0 366.5313,0 549.7969,0 0,-250.008 0,-500.016 0,-750.024 -183.2656,0 -366.5312,0 -549.7969,0 0,125.004 0,250.008 0,375.012 z m 1300.5879,0 c 0,125.004 0,250.008 0,375.012 183.2656,0 366.5313,0 549.7969,0 0,-250.008 0,-500.016 0,-750.024 -183.2656,0 -366.5313,0 -549.7969,0 0,125.004 0,250.008 0,375.012 z m 77.0801,2433.502 c -19.7031,-0.04 -39.0905,8.758 -51.686,23.962 -100.2533,96.34 -197.375,195.825 -295.6351,294.311 -23.6739,23.932 -46.7758,47.535 -69.0012,72.11 -18.3665,28.026 -12.3603,67.792 11.4668,90.757 9.1101,8.407 20.0608,15.178 31.6582,19.477 17.8321,0.551 37.2387,2.992 53.3086,-6.6 13.1015,-4.859 20.4125,-17.555 30.6114,-26.313 116.4988,-116.975 234.1387,-232.833 349.0195,-351.237 9.4104,-9.061 14.5456,-21.513 15.2363,-34.465 1.9121,-17.428 -1.9089,-35.515 -12.457,-49.721 -12.1706,-18.414 -32.7091,-31.091 -54.9769,-32.024 -2.5082,-0.219 -5.0275,-0.294 -7.5446,-0.257 z m -1413.8711,2.189 c -38.4607,-0.132 -74.0212,33.733 -73.7719,72.563 -0.6238,23.609 10.7408,46.559 28.7694,61.553 114.889,117.404 231.8489,232.683 349.6861,347.246 6.9639,6.184 13.5251,13.9 22.2695,17.217 12.4497,-0.125 25.3701,0.13 36.9219,5.361 12.2414,-4.806 25.64,-7.405 35.818,-16.382 19.7003,-15.083 31.5254,-40.32 28.4398,-65.192 -0.3087,-14.585 -5.0158,-29.687 -16.431,-39.393 -47.0232,-52.377 -98.2076,-100.783 -147.2938,-151.185 -70.562,-71.008 -142.6698,-140.463 -213.8458,-210.844 -12.193,-14.812 -31.8894,-21.054 -50.5622,-20.944 z m -352.4316,351.385 c -29.7344,2.273 -58.8573,20.69 -69.5606,49.215 -8.013,20.407 -7.1128,44.938 4.4016,63.798 54.7042,59.505 112.8204,115.8 169.2422,173.387 68.2317,68.606 138.1139,135.545 207.157,203.321 4.9642,4.245 9.5604,11.414 16.9648,9.861 17.2908,-0.141 34.1515,1.002 51.3692,-0.193 7.7415,-5.356 17.1302,-8.117 23.7363,-15.213 20.3134,-18.204 29.2274,-47.829 21.81,-74.15 -2.0826,-11.398 -9.0518,-20.825 -17.3254,-28.582 -43.1911,-46.142 -88.6616,-90.08 -132.9323,-135.175 -79.8015,-80.239 -159.7843,-160.455 -242.439,-237.874 -10.0334,-5.026 -21.1448,-8.332 -32.4238,-8.395 z m 2119.2617,2.404 c -22.0256,0.129 -42.5237,11.843 -56.5017,28.395 -110.5893,107.737 -219.3032,217.384 -327.6233,327.394 -11.1702,12.19 -23.6218,23.486 -33.5742,36.637 -9.771,19.009 -10.7774,42.289 -3.8985,62.371 9.5315,23.004 31.1474,38.753 54.3887,45.992 18.5684,-0.306 40.6841,2.091 55.9839,-11.113 99.9022,-94.885 196.3038,-193.358 294.3813,-290.109 25.2155,-25.555 51.1228,-50.51 75.125,-77.209 11.6284,-13.68 18.7594,-31.312 17.5549,-49.434 1.0593,-39.595 -36.7232,-74.606 -75.8361,-72.924 z m -2472.5723,353.137 c -33.8955,-0.692 -66.4743,24.705 -72.8203,58.254 -3.8372,18.189 -2.3966,38.942 8.642,54.394 32.6064,37.061 68.7682,70.766 103.1457,106.145 89.7317,89.772 178.4808,179.959 270.1635,267.773 7.9539,9.146 20.1556,11.103 31.5512,11.949 38.1706,7.326 78.5785,-21.089 85.5113,-59.187 4.1534,-20.01 -1.262,-41.437 -12.0508,-58.447 -28.6245,-27.629 -56.2493,-56.325 -84.4883,-84.37 -96.4742,-96.897 -192.2793,-194.04 -291.6348,-287.939 -11.2747,-6.474 -25.178,-8.386 -38.0195,-8.572 z m 2826.9395,0.527 c -16.9825,0.345 -35.1443,5.131 -46.2975,18.817 -74.2203,70.251 -145.2212,143.794 -218.0619,215.457 -49.8832,49.646 -100.0396,98.613 -148.5234,149.459 -15.981,20.427 -17.5931,49.85 -8.0489,73.387 3.9245,8.054 9.1632,16.7 16.2383,21.81 16.4219,-2.191 32.2098,5.041 45.0576,14.657 5.7982,2.689 10.9482,9.991 17.7022,7.337 7.6687,-1.81 16.3393,-0.45 22.8261,-5.556 5.8165,-2.956 12.026,-5.311 15.7476,-11.005 118.2704,-119.079 238.0866,-236.636 355.1204,-356.936 12.0116,-11.714 22.3854,-26.57 22.7921,-43.949 0.6247,-15.024 0.5504,-31.042 -8.1503,-44.038 -9.8578,-17.833 -26.3907,-32.187 -46.4648,-36.938 -6.4974,-1.701 -13.2203,-2.558 -19.9375,-2.502 z m 355.6679,353.446 c -19.5071,-1.024 -39.2294,7.058 -51.8019,22.11 -84.8182,81.453 -166.7367,165.85 -250.2931,248.585 -38.8516,39.156 -78.1422,77.9458 -115.6605,118.3751 -11.1915,14.393 -12.9947,34.2747 -9.9755,51.7682 5.2903,31.6948 32.8915,59.0339 65.5181,60.7005 20.7838,1.3963 43.3477,-4.6405 57.1504,-21.0957 97.2566,-93.7977 192.4591,-190.6971 287.7891,-285.9431 26.4095,-26.986 53.7808,-52.966 79.4961,-80.414 9.5831,-18.734 15.1706,-40.884 8.058,-61.438 -8.4674,-29.955 -38.8181,-53.736 -70.2807,-52.648 z m -3537.7109,0.715 c -21.7164,-1.095 -42.4121,10.133 -55.8613,26.757 -11.0095,11.462 -17.7245,26.909 -17.1361,42.915 -1.3503,19.738 4.6854,40.389 19.3861,54.167 24.4201,26.019 50.0995,50.894 74.9404,76.458 98.3075,99.245 196.971,197.9548 298.9131,293.5034 7.6929,4.9976 16.7395,7.5403 25.8711,6.1769 13.2868,-0.4416 27.5331,3.4011 39.6138,-4.107 24.8872,-11.9191 44.7679,-38.0551 42.4691,-66.5817 0.7899,-14.5845 -2.4365,-29.5627 -11.7021,-41.1582 -34.7068,-38.9402 -73.1791,-75.1914 -109.8119,-112.6974 -87.1422,-87.323 -174.4556,-174.476 -261.6705,-261.726 -10.716,-4.936 -20.1901,-15.213 -32.8747,-13.634 -4.0448,-0.107 -8.0913,-0.08 -12.137,-0.07 z m -352.1758,353.2008 c -13.3734,-0.3966 -27.3072,1.3602 -38.4433,9.4492 -16.8265,12.6904 -33.9334,29.9486 -35.4766,52.1484 -1.6816,20.2929 0.1384,43.89 16.5032,58.2149 47.5768,50.3671 96.9917,98.9577 145.551,148.3709 72.5624,72.942 145.2556,146.0077 219.465,217.1277 6.9805,5.1057 13.6447,12.4393 22.4398,13.8256 10.0052,-0.5876 20.052,0.3198 29.914,1.3652 27.3781,-2.3166 52.6291,-20.7634 62.5508,-46.4941 6.5309,-15.6929 6.2433,-33.785 1.7051,-49.9454 -7.4994,-23.5065 -28.6035,-38.1654 -44.4863,-55.7414 -113.168,-114.6617 -226.8112,-229.1446 -344.4473,-339.3699 -10.5332,-5.7316 -23.1981,-9.1228 -35.2754,-8.9511 z m 4263.8828,3.5742 c -4.2165,1.7423 -13.0716,-2.2189 -14,2.3242 -11.6481,-0.1034 -23.586,-3.384 -35.1875,-1.4649 -20.0522,7.5741 -32.0481,26.5292 -47.7839,40.0231 -113.1239,111.4574 -225.3629,223.8935 -335.927,338.0043 -8.177,7.3201 -13.0528,17.2735 -14.9981,27.9863 -5.3282,24.9644 1.9186,53.6702 21.4551,70.6387 20.8194,0.1183 36.9094,15.0846 55.2442,22.4844 7.862,1.1625 15.2678,-3.8522 22.6751,-5.8571 13.7436,-6.4025 23.4802,-18.8905 34.7128,-28.7542 84.0058,-80.7163 165.2038,-164.3425 248.065,-246.3985 36.668,-37.0147 73.6837,-73.1601 108.6525,-111.6895 12.5951,-19.3835 12.4577,-45.3171 3.6758,-66.2285 -8.0346,-19.1451 -24.7117,-34.6896 -44.5019,-40.9179 -0.6875,-0.1114 -1.3854,-0.1695 -2.0821,-0.1504 z m -2973.3203,1009.3828 c -276.903,276.9284 -553.806,553.8568 -830.709,830.7851 553.7782,553.5593 1107.1104,1107.5699 1661.4024,1660.6172 554.3577,-552.9945 1107.624,-1107.0861 1661.4433,-1660.6172 -553.7927,-553.84 -1107.6006,-1107.665 -1661.4238,-1661.4746 -276.9043,276.8965 -553.8086,553.793 -830.7129,830.6895 z m -1647.7031,-660.2813 c -28.3817,0.2039 -53.1148,20.7622 -65.7324,45.0547 -7.6154,18.0195 -6.769,39.0331 -0.6563,57.3496 8.2545,18.4432 25.6275,30.6136 38.4393,45.3362 89.7258,91.9422 181.177,182.8768 272.8355,273.1665 26.0656,25.2616 51.7529,51.0589 79.0885,74.9133 5.3925,3.5666 12.3073,3.6409 18.5117,5.3653 28.6303,4.9688 59.8323,-7.3903 75.6411,-32.1538 15.8095,-21.3346 16.4821,-51.2722 5.2066,-74.7505 -6.3663,-10.2823 -16.194,-18.0844 -24.0746,-27.2494 -55.5081,-57.8016 -113.0452,-113.6064 -169.4176,-170.5579 -62.6361,-62.4708 -124.6849,-125.6088 -189.5449,-185.7806 -5.0596,-3.8986 -11.9797,-3.9186 -17.7352,-6.4696 -7.3181,-2.2329 -14.8473,-4.3004 -22.5617,-4.2238 z m 4948.4062,0.5391 c -17.0696,0.2501 -34.2492,7.1745 -45.1473,20.6023 -102.5818,98.461 -202.8064,199.3393 -303.2687,299.9504 -20.9445,21.4897 -42.7756,42.6862 -62.5175,65.461 -19.6752,28.2485 -16.0276,70.3629 9.4765,93.9023 18.2707,18.237 46.293,28.7687 71.6055,20.1563 13.4415,-4.0904 27.0483,-9.8295 35.9682,-21.1548 108.9374,-109.6875 219.3398,-218.0896 327.3106,-328.4425 13.5954,-15.1205 29.3133,-28.7702 39.9849,-46.2367 6.1787,-15.5674 6.4812,-33.3595 3.0589,-49.6494 -6.456,-24.077 -26.4271,-43.7895 -49.8148,-51.7705 -8.6436,-2.5268 -17.6997,-3.0269 -26.6563,-2.8184 z m -5303.2187,351.8516 c -38.1182,1.3395 -71.8593,36.4598 -70.0411,74.912 -0.074,14.3914 2.7864,29.8913 13.6253,40.2276 39.3722,43.9552 81.9647,84.8903 123.389,126.8876 80.3527,80.3672 160.6937,160.7461 241.0737,241.086 19.4236,2.6945 34.4069,17.7343 53.5332,21.1094 14.8136,0.082 28.5173,-7.6168 40.4961,-15.6387 19.1391,-14.2694 31.4517,-37.912 29.7187,-62.0078 0.6535,-15.3236 -5.9264,-29.7048 -13.1777,-42.7519 -118.5718,-117.9254 -236.6818,-236.4571 -355.0512,-354.6404 -8.1095,-7.5904 -14.8565,-16.9135 -25.2509,-21.5147 -6.8917,-4.3521 -14.3485,-8.8731 -22.8639,-7.6164 -5.1492,-0.095 -10.3018,-0.1205 -15.4512,-0.053 z m 5661.0371,1.621 c -16.7196,0.2916 -34.4235,5.12 -45.5859,18.341 -40.9779,37.9865 -79.8229,78.1953 -119.6485,117.3732 -80.8293,80.7027 -162.5299,160.5797 -241.2667,243.3397 -10.4156,10.7748 -20.5048,23.7241 -20.3459,39.4984 -0.8223,15.5552 -0.2366,32.0028 8.4505,45.5317 8.416,15.0775 23.0092,25.5878 39.0547,31.3243 8.9459,4.0095 17.9254,9.6037 28.1523,7.6035 17.2836,-0.5449 35.2714,-5.9512 46.816,-19.5435 104.7475,-100.4367 205.9939,-204.4332 308.7948,-306.8425 19.4359,-19.7807 39.5222,-39.0971 58.4503,-59.2689 8.0367,-14.9738 13.2422,-31.8294 11.3285,-48.9651 -2.2299,-37.3589 -36.4119,-69.8645 -74.2001,-68.3918 z m 352.752,352.3653 c -18.8418,1.0781 -38.5215,7.7923 -50.7558,22.8106 -118.4273,118.6845 -238.4424,235.8504 -354.9657,356.3149 -9.7209,9.4015 -17.3285,21.0669 -19.7043,34.5581 -6.7909,30.2577 7.4009,64.7448 35.6856,78.7859 16.4955,9.9243 36.6886,13.1193 55.2909,7.9289 11.9343,-2.1104 22.526,-8.5462 30.3697,-17.7056 104.2292,-100.5534 205.3302,-204.1219 308.1919,-306.1383 20.79,-21.1425 42.0634,-41.945 61.2685,-64.5408 14.547,-23.8584 13.2579,-56.6827 -2.8496,-79.4844 -14.6733,-19.1932 -37.945,-32.9245 -62.5312,-32.5293 z m -6370.6348,0.625 c -26.5659,1.8979 -49.5653,21.5292 -60.61572,45.0277 -8.81849,19.3854 -8.83034,42.5873 1.46337,61.4098 11.26495,23.003 32.53835,38.3998 49.45065,56.9187 108.6167,109.4436 218.0596,217.5593 328.3931,325.2512 5.4828,3.9816 10.7349,11.3714 18.3887,9.4277 9.9531,-0.592 20.0581,1.0013 29.291,4.3809 22.3757,-1.0955 43.4727,-13.2525 55.8071,-31.9132 10.8431,-14.5281 14.6546,-33.1372 12.2712,-50.9234 -0.8538,-13.4642 -4.6272,-27.8774 -15.8089,-36.4771 -98.5637,-103.7416 -200.478,-204.3707 -302.2753,-305.0385 -23.9908,-23.2826 -47.6614,-47.0216 -72.9297,-69.0267 -13.4714,-7.0347 -28.3006,-9.8722 -43.4355,-9.0371 z m 356.3535,1061.1308 c -17.2116,0.021 -33.7659,7.8793 -45.0435,20.7957 -53.0677,49.6419 -103.6802,102.243 -155.6206,153.3157 -70.1722,70.0107 -141.0404,139.7175 -208.9941,211.748 -8.67095,11.2923 -13.97396,25.4421 -13.00056,39.787 -0.767,12.982 1.19886,26.2305 8.4039,37.3218 15.11936,26.5663 46.81666,44.6169 77.59326,38.2927 12.5517,-1.5659 24.6424,-6.8508 33.161,-16.4024 36.9464,-33.9272 71.5262,-70.3162 107.4086,-105.3481 87.7847,-87.5084 175.469,-175.2305 263.0744,-262.9635 7.5573,-14.4632 13.9007,-30.4181 11.7518,-47.0574 -0.6711,-32.8714 -26.6663,-62.6865 -58.9764,-68.1945 -6.5097,-1.3218 -13.1549,-1.1915 -19.7578,-1.295 z m 5656.9688,0.6094 c -34.4254,1.8922 -66.0537,30.3433 -69.2442,65.1094 -1.2292,18.6104 1.4562,39.806 16.1352,52.9546 46.2438,51.4925 96.5908,99.0683 145.0116,148.4703 77.2055,77.2208 154.3083,153.5901 233.8024,228.456 7.4177,4.3154 15.94,7.075 24.5215,5.4082 8.9017,-0.2375 18.2024,0.9996 26.8281,2.8789 32.8426,-8.4123 58.272,-41.0614 55.7305,-75.3203 -0.5974,-20.268 -10.2378,-39.6961 -25.6861,-52.7675 -115.5077,-117.6167 -232.0946,-234.028 -350.8881,-348.2169 -9.5727,-8.8364 -19.5256,-18.1028 -32.4368,-21.4882 -6.8073,-2.6847 -13.1233,-6.7809 -20.7506,-5.429 -1.008,8e-4 -2.0159,-0.052 -3.0235,-0.056 z m -362.4336,354.3789 c -35.9802,6.0457 -63.572,41.7917 -60.8282,78.0645 1.0819,14.5867 7.1544,28.4529 14.8887,40.6484 121.1332,120.0662 240.4399,241.8931 362.8674,360.4796 8.2517,7.383 17.2121,16.2075 28.5228,17.7334 13.9428,-0.989 27.8777,0.8459 41.6118,-0.5782 10.8656,-4.819 23.4767,-6.6604 31.8379,-15.9004 18.0366,-16.375 25.0845,-42.0538 21.5918,-65.75 -1.6137,-15.0711 -8.6911,-29.5388 -20.5987,-39.0929 -103.6776,-106.0163 -208.3269,-210.8108 -314.9513,-313.8882 -20.377,-19.5901 -40.8842,-39.0478 -61.7313,-58.138 -13.8786,-4.5067 -28.8373,-3.5908 -43.2109,-3.5782 z m -4937.3653,0.168 c -16.5377,0.4712 -34.3792,4.7102 -45.3914,18.0067 -65.0067,61.0101 -127.1921,124.7404 -190.6824,187.3245 -58.0503,57.9363 -116.5771,115.4442 -173.307,174.7235 -18.179,21.3344 -23.3237,53.1183 -10.9127,78.5602 4.3184,8.6584 9.8677,17.8555 17.6314,23.4222 21.1771,0.3323 37.4124,16.3995 57.2051,21.2617 8.3539,-0.7144 16.4194,-4.3747 24.1582,-7.5234 12.8257,-7.4104 22.6494,-18.9992 33.8047,-28.6192 69.1613,-66.4891 136.3511,-134.9944 204.2583,-202.7575 48.0027,-48.6735 96.9203,-96.3549 143.6011,-146.2737 13.0135,-12.9497 15.9759,-32.8197 14.7793,-50.4434 -1.8503,-27.5461 -20.7786,-52.449 -46.4919,-62.2624 -9.0338,-4.0138 -18.8138,-5.5811 -28.6527,-5.4192 z m 4590.6094,355.1328 c -32.8583,0.4491 -61.881,28.5193 -66.4805,60.4984 -0.9222,17.9943 -1.7214,39.1269 12.6236,52.4855 29.2255,33.4622 60.9371,63.9888 92.0793,95.8521 79.7621,79.7337 159.0632,159.9268 238.7248,239.7582 15.4386,14.654 29.7266,30.8297 47.0606,43.2808 6.0585,4.6545 13.1449,7.5247 20.8594,6.3716 11.5477,-0.2927 23.1365,0.627 34.6074,1.1675 30.0436,-8.2397 54.6679,-36.5772 55.0645,-68.1348 0.6135,-17.7578 -3.3397,-37.1682 -17.1328,-49.4922 -30.5854,-33.7948 -64.485,-65.8934 -96.8126,-99.1328 -90.3137,-90.7192 -180.9453,-181.121 -271.4062,-271.6934 -11.14,-6.2506 -23.2597,-12.4719 -36.4492,-10.8515 -4.2471,-0.028 -8.4924,-0.054 -12.7383,-0.1094 z m -4218.8398,1.5059 c -14.4515,0.8764 -29.1291,-0.824 -43.4356,0.5996 -19.6995,7.2225 -31.5994,25.5544 -46.7407,38.9322 -109.4837,108.2393 -218.5466,216.9278 -325.9341,327.2475 -10.6972,11.707 -24.2189,22.6542 -26.956,39.2324 -7.4829,30.9765 6.415,65.9829 34.041,82.3183 7.6086,5.041 15.8683,10.7335 25.4763,9.2265 13.209,-0.2438 26.9709,2.9001 39.383,-3.1933 17.6362,-6.4906 28.7288,-22.4883 42.5001,-34.358 78.2971,-75.561 154.3014,-153.4474 231.5144,-230.107 39.1722,-39.4358 78.5409,-78.5342 116.0695,-119.449 13.1002,-19.5136 15.1509,-46.0102 6.0996,-67.6192 -8.265,-19.5531 -24.748,-36.6869 -45.4062,-42.6425 -2.1955,-0.2374 -4.4067,-0.2184 -6.6113,-0.1875 z m 3869.0507,347.6718 c -9.458,-1.2762 -17.3383,5.0459 -25.7851,8.2552 -18.7447,7.8231 -34.2854,23.1209 -40.7461,42.5652 -9.3333,25.2073 -4.4383,55.1903 13.735,75.2815 15.4801,17.6995 33.1134,33.375 49.2063,50.5119 104.9483,105.5597 210.7823,210.0992 317.3087,314.0386 6.4492,7.0074 15.1427,11.1073 24.5664,12.0781 29.7645,5.4329 63.5351,-5.4172 80.2578,-31.6836 8.6514,-11.6574 12.2978,-26.1783 11.4999,-40.5565 0.5779,-14.4287 -1.4033,-30.0726 -11.9895,-40.8594 -35.6339,-40.744 -74.6966,-78.3333 -112.7143,-116.8266 -88.3485,-87.8562 -176.0514,-176.8473 -267.4445,-261.2438 -6.2868,3.2262 -11.1932,-3.9774 -16.668,-6.4219 -4.1757,-3.2513 -8.3373,-6.3772 -13.9667,-5.1112 -2.4199,-0.025 -4.8399,-0.045 -7.2599,-0.028 z m -3532.832,3.2715 c -17.3116,0.2226 -35.7883,5.0408 -47.3792,18.7448 -46.9579,43.9002 -91.5318,90.259 -137.3194,135.3624 -76.8964,76.8122 -153.8675,153.55 -230.5182,230.6077 -8.4306,16.039 -14.6222,34.0957 -11.6035,52.4257 3.3251,28.3501 24.6608,52.9532 51.7695,61.3907 10.0213,3.1166 20.4749,5.7272 30.8028,6.9804 15.4232,-3.3459 31.9506,-8.1714 41.9609,-21.2777 119.1355,-119.4486 239.8559,-237.2009 357.0703,-358.4566 13.233,-12.8681 21.6579,-31.3346 19.5078,-49.9961 1.8242,-29.819 -19.4601,-57.2875 -45.6465,-69.4824 -8.9505,-4.105 -18.7738,-6.4403 -28.6445,-6.2989 z m 6830.4434,165.8614 c -17.584,17.5904 -35.168,35.1809 -52.752,52.7714 341.5608,341.5395 683.1064,683.0942 1024.637,1024.6641 35.141,-35.1565 70.29,-70.3043 105.449,-105.4434 -341.528,-341.5706 -683.072,-683.1259 -1024.6309,-1024.666 -17.5677,17.558 -35.1354,35.1159 -52.7031,52.6739 z m -3647.6914,183.9316 c -5.4632,0.01 -11.0267,-0.8793 -15.6114,2.6523 -24.7254,7.9301 -47.018,26.0446 -55.7656,51.0274 -4.1304,12.5149 -1.5573,25.8783 -1.709,38.7793 0.4926,17.6247 15.0833,29.78 25.7685,42.1024 72.8708,76.1577 147.6899,150.3971 222.5997,224.6324 43.5616,43.2251 88.2497,85.5041 131.8037,128.7261 19.5375,5.302 37.063,20.3378 58.3477,16.8496 27.8079,-4.751 51.8448,-26.2326 59.1152,-53.5957 7.4816,-24.4132 1.2894,-52.4936 -16.8521,-70.7313 -17.9178,-18.5358 -36.2289,-36.7177 -54.2461,-55.3157 -98.7988,-100.0107 -198.1557,-199.4972 -299.3627,-297.0741 -10.4357,-9.5961 -21.3161,-19.4062 -35.1843,-23.5303 -5.5969,-2.3872 -10.9058,-5.7402 -17.2513,-4.5251 l -1,0 -0.6523,0 z m -2826.8321,0.3164 c -16.4981,0.7704 -34.757,3.6105 -46.1085,16.8935 -57.7724,54.0033 -112.8515,110.7911 -169.1348,166.3253 -65.4452,65.4751 -131.4679,130.4205 -195.1306,197.6386 -8.611,8.8937 -16.8809,19.0992 -17.8351,31.9824 -3.3661,21.47 -0.3592,45.3097 14.4905,62.1234 10.03,12.37 24.4717,21.4861 40.6033,22.5817 18.3291,2.9485 38.3374,1.0172 54.3789,-8.8066 42.9399,-38.7674 82.9259,-80.5873 124.5339,-121.3941 85.4727,-85.4244 171.7437,-170.1018 255.2317,-257.4712 11.1553,-15.5097 13.2983,-36.2864 9.8282,-54.6914 -5.7878,-27.2139 -28.1731,-52.7071 -57.1878,-54.486 -4.5317,-0.5606 -9.1046,-0.7886 -13.6697,-0.6956 z m 351.0782,354.6562 c -23.5747,-0.075 -45.4671,12.6655 -60.3434,30.3816 -110.8588,108.5053 -220.5396,218.3702 -329.0011,329.3533 -11.3937,12.4926 -24.3678,24.2214 -32.4485,39.228 -9.3808,23.8735 -7.1009,53.1318 9.1914,73.5586 4.6252,5.7767 9.3181,12.3486 17.0996,13.4844 17.2255,6.4384 33.5274,18.9849 52.9102,15.9863 15.1197,-1.6739 28.3898,-10.1757 38.6598,-21.0362 58.8146,-54.2424 114.2495,-111.8149 171.1875,-168.2365 64.7371,-64.7512 129.5513,-129.4215 194.2777,-194.1843 11.0248,-20.6521 18.8022,-45.7068 9.6972,-68.5605 -10.4659,-29.0788 -39.8248,-51.2486 -71.2304,-49.9747 z m 2117.2793,0.3262 c -35.8215,1.6057 -70.0912,32.7394 -69.0938,69.75 -0.4356,15.1042 0.5218,32.1379 11.89,43.4524 17.4832,21.4479 37.652,39.9996 56.8701,60.3353 95.4228,96.441 191.2937,192.5815 287.1369,288.697 11.6465,11.9701 24.1539,23.004 37.7202,32.7282 4.8682,4.7252 12.3775,1.6309 18.5019,2.6856 13.5215,0.3934 27.1027,1.631 40.5957,0.7929 28.879,-10.7785 50.9057,-40.451 48.4617,-71.873 -0.01,-13.492 -2.4686,-28.0622 -12.6297,-37.8169 -24.6668,-29.1758 -52.8138,-55.1435 -79.2335,-82.6873 -97.9779,-98.7053 -196.565,-196.803 -294.7703,-295.281 -10.9794,-6.4528 -23.103,-11.9205 -36.1539,-10.7389 -3.0978,-0.086 -6.1969,-0.082 -9.2953,-0.044 z m 3333.9394,132.9824 c -17.7767,17.7891 -35.5534,35.5782 -53.3301,53.3672 341.5521,341.53 683.1042,683.0599 1024.6563,1024.5899 35.526,-35.517 71.0521,-71.0339 106.5781,-106.5508 -341.5607,-341.5389 -683.1056,-683.0936 -1024.6348,-1024.6641 -17.7565,17.7526 -35.513,35.5052 -53.2695,53.2578 z m -3691.2617,219.254 c -20.9546,1.2858 -40.2263,14.2045 -52.3692,30.9179 -15.8671,21.6037 -17.4381,52.0366 -6.0937,75.9629 7.0873,12.4587 19.0242,21.1552 28.2646,31.9424 70.4588,72.7306 142.8974,143.5059 214.1675,215.436 45.2333,45.2512 90.4428,90.536 135.6909,135.7661 7.685,3.0575 15.439,8.7182 24.0776,9.9483 15.1076,0.7992 30.4005,2.1578 45.4576,0.7178 34.485,-13.7788 56.6785,-55.558 44.0957,-91.3946 -4.8519,-20.1408 -23.0746,-32.2471 -35.974,-47.0278 -111.5481,-114.7999 -225.2533,-227.6076 -340.4502,-338.7112 -5.7693,-4.5545 -10.5575,-11.6985 -17.8176,-12.6699 -7.8528,-2.3207 -15.0739,-6.1993 -21.8187,-10.7825 -5.7432,-0.084 -11.4871,-0.066 -17.2305,-0.1054 z m -1405.4024,0.1 c -15.2638,0.5509 -31.2929,4.0905 -42.3398,15.4179 -27.7929,23.7583 -52.4766,50.2329 -78.8074,75.6396 -94.6908,94.322 -189.4061,188.7403 -282.6555,284.4932 -9.8897,10.1595 -20.7766,20.8266 -22.8769,35.5743 -7.0868,30.2292 6.1416,64.4184 33.1132,80.4414 9.63,6.7026 21.0295,11.3892 32.9413,10.0294 11.5884,0.1151 21.8089,0.7226 33.5353,-0.131 7.3495,-5.5248 17.3026,-7.1751 22.5234,-15.4062 120.6375,-121.5107 242.8678,-241.3373 361.8832,-364.3151 8.9656,-8.2693 14.029,-19.6018 15.6696,-31.5697 5.13,-30.4351 -9.6735,-63.7485 -37.3573,-78.2687 -10.7931,-6.4098 -22.8275,-11.9526 -35.6291,-11.9051 z m 352.2149,354.248 c -19.2065,-0.031 -38.0508,8.4562 -50.4327,23.187 -84.0097,80.0292 -164.8778,163.2615 -247.2546,244.9522 -40.2292,40.4199 -80.9084,80.6407 -118.8342,122.9702 -12.3015,15.7997 -10.8562,37.2944 -8.4395,55.9922 8.424,32.2607 41.025,54.2065 73.3672,56.2597 18.0554,0.772 35.4009,-7.7602 47.3634,-21.0012 55.8945,-51.0671 108.1052,-105.9629 161.9337,-159.163 68.9325,-69.1634 138.5105,-137.3373 205.494,-208.2947 13.5102,-18.5661 14.404,-44.0144 7.7304,-65.3477 -10.4157,-29.0193 -39.8612,-50.2802 -70.9277,-49.5547 z m 713.8183,0.6211 c -16.0291,1.8069 -33.6172,1.1484 -47.0566,11.4902 -23.3127,15.6074 -37.3211,44.7572 -32.3695,72.7554 1.4925,17.8719 11.8097,33.1431 24.0941,45.5435 112.3845,113.5999 224.8668,227.3791 339.9766,338.0996 14.9926,13.1617 28.807,31.0117 49.9883,33.5117 9.655,-0.8032 19.4896,0.3052 29.0531,0.1315 34.9856,-7.3986 62.4276,-42.7254 58.0172,-78.7546 -0.7207,-13.2298 -4.592,-26.7243 -14.211,-36.2871 -26.5152,-30.0554 -55.3012,-58.0279 -83.2308,-86.7577 -89.3247,-90.0067 -179.5603,-179.6723 -269.0221,-269.527 -7.8034,-6.8953 -14.1417,-16.7028 -24.8304,-19.655 -9.7759,-3.7577 -19.493,-9.1465 -29.7946,-10.6016 l -0.6143,0.051 z m 3358.9415,97.5195 c -17.7585,17.7552 -35.517,35.5104 -53.2754,53.2657 341.5687,341.4498 682.7764,683.2602 1024.8672,1024.1875 35.5273,-35.3101 70.9054,-70.6931 106.3359,-106.1465 -341.5462,-341.5293 -683.0925,-683.0586 -1024.6387,-1024.5879 -17.763,17.7604 -35.526,35.5208 -53.289,53.2812 z m 2419.475,1655.5391 c -64.825,64.8216 -129.65,129.6432 -194.475,194.4648 176.886,176.7844 353.524,353.8378 530.762,530.2305 129.91,-129.2027 259.314,-258.913 388.912,-388.4297 -176.905,-176.9134 -353.809,-353.8268 -530.713,-530.7402 -64.829,64.8249 -129.658,129.6497 -194.486,194.4746 z m -9145.1469,368.8769 c 0,125.0046 0,250.0092 0,375.0137 183.2656,0 366.5312,0 549.7969,0 0,-250.0084 0,-500.0169 0,-750.0254 -183.2657,0 -366.5313,0 -549.7969,0 0,125.0039 0,250.0078 0,375.0117 z m 1300.5879,0 c 0,125.0046 0,250.0092 0,375.0137 183.2383,0 366.4765,0 549.7148,0 -0.317,-249.6849 -0.6341,-499.3698 -0.9512,-749.0547 -182.9211,-0.3309 -365.8424,-0.5962 -548.7636,-0.8632 0,124.968 0,249.9361 0,374.9042 z m 6925.3769,550.3477 c -64.8275,64.8242 -129.6549,129.6484 -194.4824,194.4727 176.9036,176.9134 353.8073,353.8268 530.7109,530.7402 129.6455,-129.6911 259.3036,-259.3695 388.9746,-389.0352 -176.891,-176.8991 -353.7948,-353.7845 -530.7128,-530.6562 -64.8301,64.8262 -129.6602,129.6523 -194.4903,194.4785 z m -6551.8515,1648.0137 c 0,141.53774 0,283.0755 0,424.61326 283.7721,0 567.5442,0 851.3164,0 0,-283.04232 0,-566.08466 0,-849.12696 -283.7722,0 -567.5443,0 -851.3164,0 0,141.5046 0,283.0091 0,424.5137 z m 4000.7675,0 c 0,141.53774 0,283.0755 0,424.61326 283.0222,0 566.0443,0 849.0664,0 0,-283.04232 0,-566.08466 0,-849.12696 -283.0221,0 -566.0442,0 -849.0664,0 0,141.5046 0,283.0091 0,424.5137 z m 2088.1387,174.40427 c 0,91.63607 0,183.27214 0,274.90821 250.0202,0 500.0404,-10e-6 750.0606,0 0,-183.27279 0,-366.54558 0,-549.81838 -250.0202,0 -500.0404,0 -750.0606,0 0,91.6367 0,183.27345 0,274.91017 z M 2907.1934,548.05078 c 0,141.50456 0,283.00912 0,424.51367 283.7721,0 567.5442,0 851.3164,0 0,-283.04231 0,-566.08463 0,-849.12695 -283.7722,0 -567.5443,0 -851.3164,0 0,141.53776 0,283.07552 0,424.61328 z m 4000.7675,0 c 0,141.50456 0,283.00912 0,424.51367 283.0222,0 566.0443,0 849.0664,0 0,-283.04231 0,-566.08463 0,-849.12695 -283.0221,0 -566.0442,0 -849.0664,0 0,141.53776 0,283.07552 0,424.61328 z M 8996.0996,423.14844 c 0,91.63672 0,183.27343 0,274.91015 250.0202,0 500.0404,0 750.0606,0 0,-183.27343 0,-366.54687 0,-549.82031 -250.0202,0 -500.0404,0 -750.0606,0 0,91.63672 0,183.27344 0,274.91016 z"
       style="fill:#000000"
       inkscape:connector-curvature="0" />
  </g>
</svg>
