<?xml version="1.0" encoding="UTF-8" standalone="no"?>
<svg
   xmlns:dc="http://purl.org/dc/elements/1.1/"
   xmlns:cc="http://creativecommons.org/ns#"
   xmlns:rdf="http://www.w3.org/1999/02/22-rdf-syntax-ns#"
   xmlns:svg="http://www.w3.org/2000/svg"
   xmlns="http://www.w3.org/2000/svg"
   xmlns:sodipodi="http://sodipodi.sourceforge.net/DTD/sodipodi-0.dtd"
   xmlns:inkscape="http://www.inkscape.org/namespaces/inkscape"
   version="1.1"
   id="svg4385"
   viewBox="0 0 744.09448819 1052.3622047"
   height="297mm"
   width="210mm"
   inkscape:version="0.91 r13725"
   sodipodi:docname="traced.svg">
  <sodipodi:namedview
     pagecolor="#ffffff"
     bordercolor="#666666"
     borderopacity="1"
     objecttolerance="10"
     gridtolerance="10"
     guidetolerance="10"
     inkscape:pageopacity="0"
     inkscape:pageshadow="2"
     inkscape:window-width="1432"
     inkscape:window-height="846"
     id="namedview7"
     showgrid="false"
     inkscape:zoom="0.015506443"
     inkscape:cx="5610.0032"
     inkscape:cy="20770.359"
     inkscape:window-x="0"
     inkscape:window-y="0"
     inkscape:window-maximized="0"
     inkscape:current-layer="svg4385" />
  <defs
     id="defs4387" />
  <metadata
     id="metadata4390">
    <rdf:RDF>
      <cc:Work
         rdf:about="">
        <dc:format>image/svg+xml</dc:format>
        <dc:type
           rdf:resource="http://purl.org/dc/dcmitype/StillImage" />
        <dc:title />
      </cc:Work>
    </rdf:RDF>
  </metadata>
  <g
     id="layer1"
     transform="matrix(0.001,0,0,9.9999703e-4,-0.01050339,1051.3146)">
    <path
       id="path4998"
       d="m 2832.1927,548.05169 0,-499.613522 500.6586,0 500.6585,0 0,499.613522 0,499.51351 -500.6585,0 -500.6586,0 0,-499.51351 z m 4000.7683,0 0,-499.613522 499.5335,0 499.5325,0 0,499.613522 0,499.51351 -499.5325,0 -499.5335,0 0,-499.51351 z m 2088.1395,-124.90338 0,-349.909471 450.0301,0 450.0302,0 0,349.909471 0,349.90946 -450.0302,0 -450.0301,0 0,-349.90946 z m 0,-1300.63519 0,-349.90952 450.0301,0 450.0302,0 0,349.90952 0,349.90946 -450.0302,0 -450.0301,0 0,-349.90946 z m -6088.9078,-174.40472 0,-499.5135 500.6586,0 500.6585,0 0,499.5135 0,499.61351 -500.6585,0 -500.6586,0 0,-499.61351 z m 4000.7683,0 0,-499.5135 499.5335,0 499.5325,0 0,499.5135 0,499.61351 -499.5325,0 -499.5335,0 0,-499.61351 z m 2643.9265,-1135.1307 -318.3916,-318.4086 247.5167,-247.5067 247.5167,-247.5067 318.3916,318.3086 318.3931,318.4086 -247.517,247.5067 -247.5169,247.6067 -318.3926,-318.4086 z m 918.6205,-919.8249 -317.831,-317.8086 247.517,-247.5067 247.518,-247.5067 318.396,318.4086 318.395,318.4086 -246.949,246.9067 c -135.823,135.8037 -247.46,247.0067 -248.082,247.0067 -0.623,0 -144.156,-143.1039 -318.964,-317.9086 z m -9237.4276,-143.4039 0,-450.0122 349.8985,0 349.8985,0 0,450.0122 0,450.0122 -349.8985,0 -349.8985,0 0,-450.0122 z m 1300.5872,0 0,-450.0122 349.3355,0.5001 349.3354,0.6 0.569,449.5121 0.5681,449.4122 -349.9035,0 -349.9045,0 0,-450.0122 z m 5905.5208,-1406.338 -564.7833,-564.8153 106.3189,-106.3029 106.3179,-106.3029 565.3443,565.3153 565.3443,565.3153 -105.7429,105.8029 c -58.1616,58.0016 -106.2549,105.8029 -106.8789,105.8029 -0.625,0 -255.2889,-254.2069 -565.9203,-564.8153 z m 672.2232,-671.1182 -565.3483,-565.3153 106.3279,-106.4029 106.3288,-106.3028 565.3483,565.4153 565.3493,565.3153 -106.3288,106.3028 -106.3279,106.3029 -565.3493,-565.3153 z m -5522.0614,531.5144 c -56.7215,-10.0003 -105.5469,-48.0013 -123.3123,-101.8028 -5.2002,-16.0004 -6.1002,-22.0006 -6.3002,-45.0012 -0.142,-22.0006 0.742,-30.0008 5.1001,-44.0012 11.6103,-37.001 4.8001,-30.0008 210.4847,-235.8064 130.4375,-130.7035 193.9413,-192.8052 204.2345,-199.7054 80.2822,-54.0014 188.8771,-18.0004 222.9611,74.002 5.5001,15.0005 7.1002,23.0007 8.0002,42.0012 1.4,30.0008 -2.9001,51.0014 -15.6804,77.0021 -9.0003,18.0005 -11.3703,21.0005 -199.5284,209.4056 -194.0453,194.6053 -203.1135,203.0055 -230.9123,214.6058 -20.8005,10.0003 -51.9114,13.0004 -75.022,10.0003 z m 1414.9823,0 c -19.6006,0 -40.5311,-10.0003 -59.6316,-21.0006 -13.2904,-10.0002 -43.6312,-37.001 -194.3253,-187.205 -98.2127,-98.0027 -185.093,-185.5051 -193.0612,-194.8053 -25.4407,-29.0008 -37.391,-61.0017 -37.581,-99.0027 -0.13,-27.0007 3.1,-41.0011 15.7104,-67.0018 18.0405,-38.001 53.9014,-67.0018 95.3526,-78.0021 17.8704,0 54.5714,-10.0003 72.0019,0 6.8002,0 21.9906,10.0003 33.7509,13.0003 l 21.3806,10.0003 192.4932,192.7052 c 208.6887,209.0057 202.9855,202.6055 215.1078,240.0065 7.3002,23.0006 8.3003,57.0016 2.3001,80.0022 -19.4005,74.002 -88.2924,121.2033 -163.5594,112.403 z m -1786.6194,-356.7097 c -40.5111,-11.0003 -78.2721,-41.0011 -96.3126,-78.0021 -21.9306,-44.0012 -21.5806,-94.0025 0.9931,-137.8037 7.7002,-15.0004 22.3006,-30.0008 201.7424,-210.0057 208.1716,-208.6056 203.9305,-204.8055 238.9785,-215.9058 37.061,-12.0003 75.092,-10.0003 110.257,10.0002 78.5521,38.0011 107.9039,135.2037 63.7917,211.1058 -5.5002,10.0002 -57.5316,63.0017 -200.9845,206.4055 l -193.5742,193.8053 -19.1305,10.0003 c -10.5203,10.0002 -25.1607,11.0003 -32.5409,13.0003 -16.9504,0 -56.6315,0 -73.222,-0.2 z m 2121.8924,0 c -6.8001,0 -20.9805,-10.0002 -31.5008,-13.0003 l -19.1305,-10.0003 -194.8583,-195.0053 c -189.9761,-190.0051 -195.0903,-195.4052 -204.1675,-213.2057 -11.7903,-23.0006 -16.3605,-43.0012 -16.2905,-70.0019 0.086,-34.0009 8.4003,-59.0016 28.2708,-87.0024 13.2004,-19.0005 29.8208,-33.0009 50.6514,-44.0012 26.5907,-14.0003 39.801,-17.0004 70.8819,-17.0004 23.4506,0 29.3708,0.9 44.9812,10.0002 9.9003,0 24.0607,10.0003 31.5009,14.0004 18.1904,11.0003 385.7994,377.0102 400.5068,398.9108 11.9703,18.0005 18.5605,34.0009 22.7506,56.0015 4.1001,21.0006 4.0001,35.001 -0.323,56.0015 -11.4403,57.0016 -55.8815,103.2028 -111.297,116.2032 -18.2405,0 -55.4815,0 -71.972,0 z m 4444.6043,-847.6229 -565.3513,-565.3153 105.7649,-105.8029 105.7648,-105.7028 565.3443,565.3153 565.3445,565.4153 -105.758,105.7028 -105.758,105.8029 -565.3512,-565.4153 z m -6921.2393,493.5134 c -53.2814,-14.0004 -95.3125,-58.0016 -107.8129,-111.5031 -5.5001,-24.0006 -3.5001,-60.0016 4.6001,-82.0022 12.7004,-35.0009 10.6003,-32.0008 205.7176,-228.0061 100.9877,-101.3028 189.6901,-188.7052 197.1163,-194.4053 77.6121,-59.0016 185.5661,-33.0009 227.6022,54.0015 19.8905,42.0011 18.9305,87.0023 -2.8001,131.6035 l -10.4303,21.0006 -191.5681,191.5052 c -205.9746,206.0055 -202.3795,202.7055 -237.6955,214.8058 -21.0005,10.0002 -62.3217,10.0002 -84.7223,0 z m 2828.4396,-0.1 c -18.2505,0 -30.2009,-10.0003 -48.0313,-23.0007 -6.8002,0 -97.5127,-94.0025 -201.5685,-198.2053 -208.9726,-209.6057 -199.1494,-198.4054 -210.3507,-239.3065 -6.3002,-23.0006 -5.3001,-62.0017 2.0001,-84.0023 18.5105,-58.0015 72.8319,-99.0027 134.1196,-102.8028 26.3507,0 49.2713,0 75.502,15.0004 l 19.1306,10.0003 195.9363,196.1053 c 212.7557,213.0058 203.3615,202.5055 215.0738,240.0065 6.8002,22.0006 7.3002,61.0017 1,82.0022 -16.0104,53.0015 -57.1515,93.0026 -109.555,105.6029 -19.9605,0 -52.8814,0 -73.3319,-0.8 z m -3172.3909,-351.1095 c -29.6408,-10.0003 -54.0914,-19.0006 -77.5921,-43.0012 -19.5005,-19.0005 -30.9208,-39.0011 -38.371,-66.0018 -6.3002,-23.0006 -5.4002,-62.0017 2,-85.0023 11.0203,-34.0009 8.0003,-30.0008 214.0748,-236.3064 142.7239,-142.7038 195.7843,-194.3052 205.2356,-199.8054 42.9912,-25.0007 96.7126,-27.0007 141.2548,-10.0003 43.3212,21.0006 72.672,59.0016 82.3922,106.7029 7.0002,34.0009 0.034,74.002 -18.3105,105.0029 -6.3001,11.0003 -52.8914,58.0015 -202.0084,207.2056 -179.8109,179.4048 -195.0053,194.0052 -210.0337,201.7054 -29.4508,15.0004 -68.1318,21.0006 -98.5827,15.0004 z m 3527.8585,0 c -21.0806,-10.0003 -38.1511,-14.0004 -54.1515,-26.0007 -7.1002,-10.0003 -96.1026,-93.0026 -197.7343,-195.0053 -199.5074,-200.0054 -196.3633,-196.5053 -208.2807,-232.5063 -4.4001,-13.0004 -5.2001,-20.0006 -5.2001,-46.0013 0.027,-27.0007 0.652,-32.0008 6.0001,-47.0012 8.6003,-24.0007 18.7706,-40.0011 36.771,-58.0016 18.1005,-18.0005 34.071,-28.0008 57.6716,-37.001 14.5804,-10.0003 20.0505,-10.0003 46.8813,-10.0003 27.3707,-0.1 32.0708,0.5 47.4713,10.0003 36.6209,13.0004 32.0908,10.0003 230.0112,206.3056 101.2547,101.0027 188.7351,189.7051 194.3992,197.1053 36.541,48.0013 42.0612,106.0029 15.2405,160.3044 -17.4505,35.0009 -46.7313,61.0016 -85.4924,74.002 -24.4306,10.0002 -59.9216,10.0002 -83.6322,0 z m -3879.83,-351.4096 c -46.1812,-10.0002 -86.2123,-39.001 -106.0559,-80.0021 -11.6203,-24.0007 -15.7504,-41.0011 -15.9504,-65.0018 -0.231,-27.0007 3.3001,-43.0011 15.3604,-69.0018 l 10.1703,-21.0006 194.9853,-194.9053 c 193.1532,-193.1052 195.1583,-195.0053 213.4657,-204.0055 48.8014,-24.0007 107.1299,-21.0006 150.2671,10.0003 29.0508,19.0005 50.0014,47.0012 61.1917,81.0022 5.1001,15.0004 5.9001,22.0006 6.0001,45.0012 0.032,24.0006 -0.716,29.0008 -6.4001,46.0012 -3.5001,10.0003 -11.1903,26.0007 -17.0105,35.001 -7.9002,12.0003 -59.6916,65.0017 -201.5405,206.3056 l -190.9591,190.4051 -19.1305,10.0003 c -30.6609,15.0004 -64.6118,20.0005 -94.3526,14.0004 z m 4237.1736,-1 c -16.2304,0 -37.841,-13.0003 -53.6914,-24.0006 -11.8303,-10.0003 -354.6876,-348.6095 -377.8302,-375.4102 -27.9108,-32.0008 -40.6011,-68.0018 -38.4811,-107.9029 3.3001,-63.0017 41.1011,-113.0031 101.0528,-134.8037 14.9304,-10.0002 19.5005,-10.0002 48.0013,-10.0002 28.5107,0 33.0709,0.5 48.0013,10.0002 9.1002,0 22.2406,10.0003 29.2508,13.0004 9.4002,10.0003 62.7216,57.0015 201.3574,195.4053 203.5275,202.8055 205.2846,204.7055 216.9529,239.6065 5.3001,16.0004 6.0001,22.0006 6.1001,47.0012 0.045,26.0007 -0.578,31.0009 -6.3001,47.0013 -8.5003,24.0007 -19.7506,42.0012 -37.9811,60.0016 -34.4009,34.001 -88.1823,49.0014 -136.4557,39.0011 z m -2972.7444,-1030.5279 -883.1819,-883.1239 883.7459,-883.8239 883.7459,-883.7239 883.746,883.7239 883.7459,883.8239 -883.1819,883.1239 c -485.7512,485.8132 -883.6899,883.2239 -884.31,883.2239 -0.62,0 -398.5597,-397.4107 -884.3099,-883.2239 z m -1617.1327,678.2184 c -17.7205,0 -40.0311,-12.0003 -57.1516,-24.0007 -65.6718,-44.0011 -85.9423,-133.3036 -45.3712,-200.7054 6.4002,-11.0003 53.1314,-59.0016 195.0233,-201.1054 102.6147,-102.9028 191.4551,-190.9052 197.4233,-195.6053 13.6904,-11.0003 36.281,-22.0006 54.3015,-26.0007 18.1205,0 52.8114,0 71.3219,0.2 41.2311,10.0002 78.8821,40.0011 97.9527,79.0021 21.9605,45.0012 20.9505,93.0025 -2.9001,139.5038 -7.4002,14.0004 -23.8007,32.0009 -197.2444,205.4055 -130.8345,131.2036 -193.6932,192.7053 -203.8085,199.4054 -33.0609,22.0006 -70.8519,30.0009 -109.5319,24.0007 z m 4945.9288,-0.9 c -18.7005,0 -37.731,-12.0004 -52.5914,-22.0006 -7.0002,0 -94.9126,-91.0025 -202.7785,-199.1054 -206.9556,-207.3056 -199.9984,-199.6054 -211.6098,-236.9064 -4.3001,-14.0004 -5.2001,-22.0006 -5.2001,-44.0012 0.083,-24.0007 0.804,-29.0008 6.9002,-46.0013 12.3903,-35.0009 34.2309,-62.0016 66.4218,-81.0022 21.7706,-13.0003 39.3311,-18.0004 69.6119,-19.0005 31.1808,0 45.9812,0 74.062,15.0004 l 19.1305,10.0003 194.8343,194.9053 c 181.0169,181.2049 195.4233,196.1053 203.1395,211.2057 22.1706,43.0012 23.1006,95.0026 2.4,136.8037 -30.0608,61.0016 -99.4527,95.0026 -164.4524,81.0022 z m -5302.1775,-353.1096 c -84.3123,-18.0005 -136.8577,-100.4027 -116.6381,-183.3049 3.9001,-16.0005 14.2004,-37.001 25.2807,-53.0015 5.5001,-10.0003 93.8525,-97.0026 196.3693,-199.5054 138.2577,-137.7037 189.7341,-187.6051 199.3454,-193.2052 38.911,-23.0006 85.8623,-27.0007 127.7334,-13.0004 21.8706,10.0003 38.211,18.0005 55.2615,35.001 48.9113,48.0013 58.3816,123.9033 23.0906,184.605 -5.5001,10.0003 -57.0215,62.0017 -198.7343,204.1055 -207.4787,207.5056 -201.4175,202.0055 -238.3975,213.8058 -22.1706,10.0003 -52.5614,10.0003 -73.302,0 z m 5667.0044,0 c -17.3105,0 -35.261,-10.0003 -51.7514,-17.0004 -17.4605,-10.0003 -23.7907,-15.0005 -211.8288,-202.9055 l -193.8272,-193.7053 -10.4203,-21.0005 c -22.4506,-46.0013 -22.4406,-89.0025 0.054,-134.9037 22.0806,-45.0012 65.8418,-75.002 115.7311,-81.0022 31.8509,0 64.5618,0 92.1525,18.0005 9.4003,10.0003 58.6716,53.0014 203.2495,197.2053 104.9809,104.7029 193.8923,194.7053 197.5824,200.0054 18.7405,27.0008 26.6107,53.0015 26.6607,87.0024 0.087,59.0016 -31.1609,108.7029 -84.3423,133.8036 -9.9003,0 -23.0006,10.0003 -29.1208,11.0003 -12.4303,0 -43.7912,0 -54.1414,0 z m -6013.5888,-354.0096 c -55.28145,-10.0002 -100.98369,-47.0012 -120.0592,-101.0027 -6.30017,-18.0005 -6.90019,-22.0006 -6.90019,-48.0013 0,-26.0007 0.61002,-30.0008 6.90019,-47.0013 3.8001,-11.0003 11.53031,-26.0007 17.23046,-35.0009 7.4002,-11.0003 64.97176,-70.0019 200.07144,-204.7056 183.5879,-183.1049 190.2911,-189.5051 207.7116,-198.4053 24.7107,-13.0004 42.5611,-17.0005 69.7519,-17.0005 46.2212,-0.2 85.8823,18.0005 115.2331,53.0015 23.1506,27.0007 34.3109,59.0015 34.3709,97.0026 0.04,26.0007 -3.8001,42.0011 -15.9904,67.0018 l -9.2002,19.0005 -196.0804,196.0053 c -190.2281,190.1051 -196.5853,196.2053 -212.9577,204.1055 -28.6908,14.0004 -62.6717,19.0005 -90.0625,15.0004 z m 6364.0172,-0.2 c -17.7404,0 -39.461,-10.0002 -56.2015,-20.0005 -9.7003,-10.0003 -60.9416,-56.0015 -204.3145,-198.8054 -207.4146,-207.4056 -201.7765,-201.1054 -214.0568,-238.6064 -7.5002,-23.0007 -8.4002,-59.0016 -2.1001,-82.0023 11.3803,-42.0011 40.5211,-77.002 78.0621,-95.0025 27.3108,-13.0004 40.6011,-16.0005 69.5519,-16.0005 18.8805,0.1 27.2408,0 41.6312,10.0003 37.121,12.0003 31.8608,10.0003 232.4832,207.3056 101.8768,101.5028 189.8642,190.6052 195.5273,198.0054 20.7006,27.0007 30.6109,57.0015 30.6109,91.0024 0,25.0007 -4.4002,44.0012 -15.2704,66.0018 -28.4208,58.0016 -92.6226,91.0025 -155.9323,82.0022 z m -6025.938,-1064.1288 c -17.8005,0 -32.9709,-12.0003 -49.5213,-23.0006 -11.7204,-10.0003 -354.56464,-348.6094 -377.81827,-375.5101 -24.24065,-28.0008 -38.94105,-66.0018 -38.94105,-100.1028 0,-20.0005 6.30017,-46.0012 16.21044,-66.0017 7.4002,-15.0004 12.79034,-23.0007 28.54077,-39.0011 15.76043,-16.0004 23.01062,-21.0006 38.81105,-29.0008 25.75066,-13.0003 46.60126,-17.0004 73.96196,-15.0004 24.9007,0 49.9114,10.0003 70.852,21.0006 19.1405,11.0003 392.7576,385.2104 403.5819,403.8109 13.4703,23.0006 18.9705,43.0012 20.1005,72.002 1.2001,31.0008 -2,46.0012 -15.6404,74.002 -12.1103,25.0006 -37.801,51.0013 -61.9417,64.0017 -32.7709,17.0005 -73.432,22.0006 -108.1889,13.0003 z m 5657.1981,0 c -27.6808,-10.0002 -49.8414,-20.0005 -70.572,-41.0011 -48.6213,-50.0013 -55.7815,-126.6034 -17.2204,-185.305 7.2002,-11.0003 62.8217,-68.0018 200.9154,-205.5055 l 190.9582,-190.4052 19.1205,-10.0003 c 45.3212,-22.0006 90.1124,-22.0006 135.0097,0.1 15.1004,10.0003 22.9306,13.0004 37.201,27.0008 30.5208,31.0008 44.4712,64.0017 44.3912,106.9029 -0.045,26.0007 -4.5002,44.0011 -16.8705,69.0018 -8.9002,18.0005 -14.7804,24.0007 -204.0065,212.8058 -181.0429,181.0049 -196.0113,195.4053 -211.0627,203.1055 -32.9809,17.0004 -73.602,22.0006 -107.8689,13.0003 z M 1732.248,-8687.3982 c -7.8002,0 -23.0207,-10.0003 -33.7509,-13.0003 l -19.5006,-10.0003 -194.9382,-194.9053 c -212.0438,-212.1057 -204.5056,-203.7055 -216.0539,-241.1065 -7.6002,-25.0007 -7.2002,-62.0017 1,-87.0024 20.6306,-63.0017 77.5821,-104.7028 143.1029,-104.6028 24.8207,0.1 43.8312,0 67.7118,16.0004 l 19.1306,10.0003 194.9462,194.9053 194.9463,194.8053 9.2003,19.0005 c 5.1001,11.0003 10.8102,25.0006 12.7403,33.0009 4.6001,18.0004 4.6001,54.0014 0,72.0019 -12.9603,50.0014 -50.9914,91.0025 -100.2177,106.9029 -19.0605,10.0003 -57.9816,10.0003 -78.3721,0 z m 4949.9519,0 c -24.1407,-10.0003 -49.9814,-20.0005 -69.4919,-38.001 -19.8605,-19.0005 -31.6808,-38.001 -40.0511,-63.0017 -5.1001,-15.0004 -5.9001,-22.0006 -5.9001,-45.0012 0,-23.0007 0.853,-30.0009 5.9001,-45.0013 11.6403,-35.0009 7.8002,-31.0008 216.1129,-239.0064 179.8108,-179.4049 195.0063,-194.0053 210.0337,-201.7055 44.6812,-23.0006 96.7226,-23.0006 140.8618,0.1 24.1506,13.0004 49.8413,39.0011 61.9316,64.0018 12.4304,25.0006 16.1505,41.0011 16.1505,69.0018 0,27.0008 -3.7001,43.0012 -16.1405,69.0019 l -9.4002,19.0005 -189.1931,189.7051 c -139.4408,139.8038 -193.5053,192.6052 -205.5876,200.8055 -22.9306,15.0004 -46.6812,23.0006 -76.9921,24.0006 -15.2904,0.5 -28.7907,-0.4 -38.251,0 z m -4593.6823,-353.3095 c -20.3005,0 -35.1609,-11.0003 -52.1614,-22.0006 -10.8403,-10.0003 -70.8619,-66.0018 -204.5515,-200.0055 -183.104,-183.6049 -189.5062,-190.3051 -198.3814,-207.7056 -12.6603,-25.0007 -16.9905,-43.0011 -17.0305,-70.0019 -0.062,-43.0011 12.7004,-74.002 43.3712,-104.9028 30.2608,-30.0008 63.7917,-45.0012 104.8428,-45.0012 25.2207,0 49.1414,10.0002 71.442,17.0004 15.0704,10.0003 29.9008,22.0006 212.1697,204.3056 190.1752,190.1051 196.2073,196.4053 204.0505,212.8057 4.4002,10.0003 9.8003,24.0007 11.9504,32.0009 5.2001,20.0005 5.1001,55.0015 -0.045,74.002 -10.8103,40.0011 -41.6012,78.0021 -77.7821,96.0026 -31.1309,15.0004 -66.5318,20.0005 -97.8827,13.0003 z m 4240.7877,-0.1001 c -42.5711,-10.0002 -81.7722,-40.001 -101.8147,-81.0021 -25.7307,-52.0014 -18.7605,-113.6031 18.0405,-159.5044 19.5305,-24.0006 373.6871,-376.0101 387.1695,-384.5104 27.4507,-17.0004 50.8313,-24.0006 82.3322,-24.0006 41.8311,-0.1 75.742,14.0004 105.7038,44.0012 21.1806,21.0005 34.291,44.0012 40.4611,72.0019 5.2002,23.0007 3.7001,59.0016 -3.3,80.0022 -11.9804,35.0009 -8.8003,32.0009 -214.7659,237.7064 l -191.5551,191.5052 -21.3806,11.0003 c -33.6009,16.0004 -67.2118,21.0006 -100.8778,14.0004 z m -3887.5141,-353.3095 c -19.6906,0 -40.4511,-14.0004 -58.2616,-27.0007 -17.1805,-12.0004 -378.3882,-374.3102 -388.2375,-388.9106 -17.4105,-26.0007 -25.0207,-51.0013 -25.1407,-84.0022 -0.161,-44.0012 12.3703,-74.002 44.0212,-105.6029 33.3109,-33.0013 63.6317,-45.0013 111.47,-43.0013 28.8808,0 48.5013,10 71.632,20.001 9.3002,10 62.1916,57.0012 197.9783,192.0049 101.8768,101.5027 189.8701,190.6051 195.5413,198.0053 11.8003,15.0004 23.4206,39.0011 27.8808,57.0016 1.7,10.0002 3.1,23.0006 3.1,36.001 0,20.0005 -1,27.0007 -6.5001,43.0011 -19.7906,61.0017 -72.792,101.2028 -136.0557,104.1028 -14.6104,0.6 -26.8207,-0.2 -37.441,0 z m 3537.2367,0.3 c -31.9409,-10.0003 -56.3516,-21.0006 -77.1921,-42.0011 -14.6304,-15.0004 -18.9205,-21.0006 -28.6608,-41.0011 -21.1906,-43.0012 -18.8205,-98.0027 6.1002,-140.5038 5.5001,-10.0003 57.0415,-62.0017 194.2342,-200.3055 102.7438,-103.1028 192.2012,-191.5052 198.7944,-196.5052 14.5304,-11 35.111,-21.001 53.1714,-25.001 17.3005,0 54.6815,0 72.182,0 41.3411,10.001 79.7422,41.0013 97.5726,78.0023 21.7006,45.0013 21.2706,94.0026 -1.2,137.5038 -7.7002,15.0004 -21.9706,30.0008 -204.2645,212.1057 -212.1168,212.1057 -202.4845,203.4055 -238.7225,214.7058 -20.1105,10.0003 -53.4114,10.0003 -72.0019,0 z m -3177.521,-352.5095 c -15.8204,0 -38.681,-11.0003 -54.2415,-20.0006 -9.6002,-10.0003 -60.3316,-55.0015 -194.8372,-188.7051 -100.0337,-100.0025 -187.8171,-188.5055 -195.0743,-197.5055 -23.7407,-29.001 -33.6309,-57.001 -33.6309,-95.002 0,-44.002 12.4003,-73.002 43.7312,-104.703 15.7504,-16.001 24.1306,-22.001 37.211,-28.001 23.5206,-12 42.1511,-16 67.5018,-16 26.2807,0 44.5112,0 69.7519,17 l 19.1305,10 193.7222,193.706 c 188.0461,188.0046 193.9913,194.2048 202.8715,211.7053 14.2504,28.0007 17.3005,41.0011 17.2005,72.0019 -0.074,23.0006 -0.956,30.0008 -6.1002,45.0012 -23.1506,70.0019 -95.0925,113.9031 -167.2105,101.9028 z m 2829.3266,0.1 c -72.402,-12.0004 -125.4624,-75.0021 -125.4624,-148.4041 0,-24.0006 5.9001,-49.0013 17.1804,-70.0018 7.7002,-15.0005 22.0706,-30.0009 203.1395,-211.1053 189.9742,-190.006 195.2903,-195.106 213.1148,-204.206 23.0806,-12 43.7112,-17 69.4719,-17 41.7411,0 75.642,14 105.8468,44.001 14.2904,14 20.0406,22 27.3808,37.001 21.8006,45.001 21.8406,90.002 0.121,135.003 l -9.2003,19.001 -190.3511,190.9051 c -108.599,108.9029 -196.0233,194.8053 -203.5595,200.0054 -30.5809,21.0006 -71.762,30.0008 -107.721,24.0006 z m -2470.1189,-353.1092 c -19.4405,0 -31.2408,-10.001 -50.6314,-16.001 -17.4904,-10 -23.5906,-15 -212.8347,-204.005 -181.0739,-181.105 -195.4213,-196.006 -203.1395,-211.006 -36.611,-71.002 -12.6503,-158.104 55.0515,-199.205 48.5813,-29.001 110.919,-28.001 159.0013,0 10.9603,10 67.8618,63.001 205.5085,200.905 l 190.3522,191.005 9.2002,19.001 c 21.7206,45.001 21.6706,90.002 -0.122,135.003 -26.5907,55.002 -92.0124,90.003 -152.3511,81.003 z m 2119.3484,-0.1 c -48.8214,-10.001 -90.1725,-38.001 -112.6891,-82.003 -10.7103,-21 -15.2804,-41.001 -15.2404,-67.001 0.049,-32.001 7.9002,-58.002 24.2007,-82.003 3.7001,-10 92.2324,-96.002 196.8043,-200.305 136.0517,-136.304 193.7382,-192.605 202.8255,-198.005 58.8916,-35.001 133.1296,-27.001 182.2629,20 15.7904,15.001 31.9309,41.001 38.9311,62.002 5.2001,16 6.1001,22 6.1001,45.001 0.099,31.001 -3.0001,44.001 -17.1904,72.002 -8.9003,17 -14.7904,24.001 -202.8715,211.806 l -193.7323,193.905 -19.1305,10 c -10.5203,10 -24.7607,11.001 -31.6509,12.001 -17.1604,0 -43.4111,10 -58.6515,0 z m -1784.0763,-356.91 c -16.7505,0 -33.0109,-12 -48.7613,-23.001 -7.4002,-10 -94.4826,-91.002 -201.0535,-197.705 -138.0927,-138.604 -189.9011,-192.005 -195.3593,-201.405 -25.4706,-44.002 -27.3107,-98.003 -4.8001,-143.104 21.1106,-42.001 59.3316,-71.002 105.6309,-81.003 34.4709,-10 74.122,0.1 104.9898,18.001 10.6003,10 58.3916,53.001 207.2036,202.005 179.4369,179.805 194.0323,195.006 201.7415,210.006 16.2204,32.001 21.1406,68.002 13.8004,102.903 -8.7003,41.001 -39.9811,82.002 -77.6521,100.003 -10.5003,10 -25.1307,11 -32.5109,13 -17.1205,0 -56.6916,0 -73.222,-0.3 z m 1414.7233,0.3 c -26.1607,-10 -46.1213,-18.001 -68.0919,-40.001 -31.6408,-32.001 -44.2812,-62.002 -44.0312,-107.003 0.175,-31.001 8.0002,-57.002 25.6107,-83.002 9.4003,-14.001 370.9571,-376.21 387.7725,-388.311 39.6611,-29.001 87.6924,-37.001 132.8236,-23 46.3613,14 83.5323,51.001 98.8927,98.002 5.5001,17.001 6.5002,24.001 6.5002,43.001 0,13.001 -1.4001,29.001 -3.1001,36.001 -4.5001,18.001 -16.0805,42.002 -27.8808,57.002 -5.7001,10 -93.6625,97.003 -195.5413,198.105 -135.7836,135.204 -188.6331,186.505 -197.9783,191.905 -24.3107,14.001 -42.5312,19.001 -73.882,20.001 -19.2205,0.4 -32.2409,-0.4 -41.1211,0 z m -1059.1997,-353.31 c -16.1804,0 -30.6308,-10 -46.6413,-20 -14.2803,-10 -371.275,-363.51 -389.0245,-386.311 -58.9716,-76.002 -33.7709,-185.105 52.2914,-227.006 51.7014,-25 112.2131,-19 157.8693,17.001 7.1002,10 95.5126,93.002 196.5243,194.205 197.3774,197.905 195.0953,195.305 206.8276,230.206 7.0002,21.001 8.5003,57.002 3.4001,80.002 -11.9403,54.002 -54.9215,98.003 -108.3609,111.603 -20.3606,10.001 -53.8415,10.001 -72.882,1 z m 714.4233,0 c -14.5604,0 -40.2411,-14 -52.8814,-22 -38.471,-25.001 -61.4817,-62.002 -67.6118,-107.903 -4.1001,-31.001 1.3,-58.002 17.6005,-90.003 7.4002,-14 23.4106,-31 197.2203,-205.505 134.7576,-135.104 193.6482,-192.705 204.6785,-200.106 44.3112,-30 100.7908,-33 149.9001,-10 36.181,18.001 66.9718,56.002 77.7821,96.003 5.2001,19 5.2001,55.001 0.135,74.002 -2.1001,10 -7.5002,22 -11.9803,31.001 -7.9002,16 -14.4804,23 -204.1106,213.005 l -195.9683,196.106 -19.1305,10 c -26.0007,13 -41.3611,16 -68.5418,16 -12.4204,-0.1 -24.6207,-0.7 -27.0908,0 z m -1072.197,-3009.181 0,-450.012 349.8985,0 349.8985,0 0,450.012 0,450.012 -349.8985,0 -349.8985,0 0,-450.012 z m 1300.5872,0 0,-450.012 349.8985,0 349.8985,0 0,450.012 0,450.012 -349.8985,0 -349.8985,0 0,-450.012 z m -3991.76698,-25.001 0,-450.012 349.89848,0 349.8985,0 0,450.012 0,450.012 -349.8985,0 -349.89848,0 0,-450.012 z m 1300.58718,0 0,-450.012 349.9035,0 349.9044,0 -0.568,449.512 -0.568,449.412 -349.3364,0.6 -349.3355,0.5 0,-450.012 z m 318.3136,-1832.149 c -0.589,0 -0.811,-271.708 -0.494,-600.217 l 0.577,-597.416 599.6642,0 599.6653,0 0,599.617 0,599.716 -599.1712,0.5 c -478.157,0.5 -599.3883,0 -600.2413,0 z m 1650.5677,-598.016 0,-600.717 599.6652,0 599.6652,0 0,600.717 0,600.816 -599.6652,0 -599.6652,0 0,-600.816 z m 1651.6107,0 0,-600.717 599.6652,0 599.6652,0 0,600.717 0,600.816 -599.6652,0 -599.6652,0 0,-600.816 z m 1651.6106,0 0,-600.717 599.6653,0 599.6652,0 0,600.717 0,600.816 -599.6652,0 -599.6653,0 0,-600.816 z m -7364.743213,-556.916 0,-649.117 750.425303,0 750.42531,0 0,649.117 0,649.218 -750.42531,0 -750.425303,0 0,-649.218 z m 2409.911213,-1543.541 0,-599.716 600.7902,0 600.7903,0 0,599.716 0,599.616 -600.7903,0 -600.7902,0 0,-599.616 z m 1651.6107,0 0,-599.716 599.6652,0 599.6652,0 0,599.716 0,599.616 -599.6652,0 -599.6652,0 0,-599.616 z m 1651.6107,0 0,-599.716 599.6652,0 599.6652,0 0,599.716 0,599.616 -599.6652,0 -599.6652,0 0,-599.616 z m 1651.6106,0 0,-599.716 599.6653,0 599.6652,0 0,599.716 0,599.616 -599.6652,0 -599.6653,0 0,-599.616 z m -7364.743213,-356.71 0,-650.218 750.429303,0 750.42931,0 -0.567,649.718 -0.566,649.718 -749.86232,0.5 -749.863293,0.6 0,-650.318 z m 312.771463,-2167.959 0,-500.713 249.77176,0 249.77075,0 -0.56701,500.113 -0.56702,500.114 -249.20474,0.6 -249.20374,0.5 0,-500.614 z m 949.56365,0 0,-500.713 249.7668,0 249.7668,0 0,500.713 0,500.614 -249.7668,0 -249.7668,0 0,-500.614 z m 949.5637,0 0,-500.713 249.7668,0 249.7667,0 0,500.713 0,500.614 -249.7667,0 -249.7668,0 0,-500.614 z m 3614.5438,68.002 c -22.8306,-10 -41.3411,-31.001 -47.2413,-56.001 -4.4001,-19.001 -4.4001,-758.221 0,-777.021 5.6002,-24.001 21.0206,-43.001 44.0212,-54.002 l 10.3003,-10 168.7616,0 168.7606,0 11.8903,10 c 15.4604,10.001 28.9708,22.001 36.271,38.001 l 5.8001,12.001 0.587,388.51 0.588,388.611 -4.7001,12 c -6.9002,18 -19.2205,33.001 -36.091,42.001 l -14.4004,10 -166.5105,0.5 c -161.4923,0.4 -166.8605,0.3 -178.0848,0 z m 807.0019,0 c -21.0106,-10 -39.8811,-23 -49.1714,-43.001 l -6.0001,-13 0,-391.511 0,-391.51 6.3001,-13.001 c 8.0003,-16 21.9506,-30.001 37.6211,-38.001 l 12.3803,-10 164.6254,-0.6 c 161.8014,-0.6 164.8395,-0.5 177.0908,0 17.3505,10 33.3909,22 42.4312,40.001 l 7.4002,15 0,389.411 0,389.41 -7.4002,15.001 c -9.0003,18 -25.0807,33.001 -42.3112,40.001 -12.0603,0 -16.2004,0 -174.8397,0 -89.3724,-0.1 -165.0205,-1 -168.1145,0 z m 792.0774,0 c -16.9805,-10 -35.761,-25 -42.9712,-43.001 l -5.4001,-13 0,-387.011 0,-387.01 5.4001,-13.001 c 6.5002,-16 23.2207,-34 39.5911,-42.001 l 11.2503,-10 168.7616,0 168.7605,0 11.8904,10 c 15.8604,10.001 28.9007,22.001 36.1509,37.001 l 6.0002,13.001 0,392.61 0,392.711 -7.7002,14 c -8.5002,16.001 -20.1606,27.001 -35.991,35.001 l -10.3003,10.001 -166.5105,0.4 c -164.7494,0.5 -166.6425,0.5 -178.8628,0 z m 807.7798,0 c -20.4605,-10 -39.031,-23 -48.8713,-43.001 l -6.3001,-13 0,-391.511 0,-391.51 6.2001,-13.001 c 8.3002,-17 26.4107,-34.001 42.8812,-40.001 12.8403,0 14.5704,0 174.8077,0 157.7443,0 162.1544,0.1 174.1927,0 17.2405,10 33.3009,22.001 42.3112,40.001 l 7.4002,15.001 0,389.41 0,389.311 -6.5002,14 c -7.2002,15 -21.8106,31.001 -37.641,39.001 l -9.9003,10 -166.5115,0.4 c -91.5825,0.2 -169.0426,-0.4 -172.1367,0 z m -2399.2839,-1699.946 c -22.0106,-10 -43.6711,-26 -52.8814,-49.001 -3.6001,-10 -3.9001,-36.001 -4.5001,-389.811 -0.375,-237.206 0.216,-384.51 1.6,-391.91 4.8002,-26.001 20.7206,-47.001 44.6212,-59.002 l 12.9104,-10 165.3865,0 165.3854,0 12.7704,10 c 17.0404,10 31.1008,21.001 39.131,37.001 l 6.6002,13.001 0,392.71 0,392.611 -4.9001,11 c -7.3002,16.001 -23.2907,32.001 -39.5711,39.001 l -14.0304,10 -160.8853,0.4 c -125.9604,0.3 -163.2194,-0.2 -171.6347,0 z m 800.0697,-0.1 c -22.2806,-10 -38.0511,-20 -49.5914,-42.001 l -6.2001,-12 0,-392.611 0,-392.71 7.6002,-14.001 c 9.2002,-17 21.0905,-28.001 38.211,-36.001 l 12.6504,-10 165.3864,0 165.3855,0 10.8703,0 c 15.2304,10 26.9007,17 34.9209,29.001 14.6304,23 13.8404,-0.9 13.8404,414.611 0,415.411 0.79,391.711 -13.8404,414.511 -8.0002,13 -19.6905,22.001 -34.9209,29.001 l -10.8703,10 -162.0104,0.4 c -129.7345,0.4 -163.9004,-0.1 -171.4936,0 z m 799.9676,0.1 c -21.4406,-10 -38.771,-21 -49.8713,-44.001 l -7.1002,-15 0,-388.111 0,-388.21 7.2002,-15.001 c 8.3002,-17 11.7203,-21 25.8407,-32.001 20.5705,-16 19.7105,-16 197.6253,-15 l 158.6353,0.7 14.0304,10 c 16.2804,10.001 32.2609,23.001 39.5711,39.001 l 4.9001,11.001 0,392.71 0,392.611 -4.8001,10 c -5.7002,12 -19.0205,28.001 -30.2709,35.001 -19.4405,12 -19.2205,12 -188.6531,12 -118.7062,-0.1 -159.0943,-0.8 -167.1085,0 z m 799.8897,-0.1 c -23.0007,-10 -39.5711,-22 -49.9214,-44.001 l -5.9001,-12 0,-390.411 0,-390.41 5.9001,-13.001 c 8.3002,-18 20.2406,-30.001 37.581,-38.001 l 14.9004,-10 165.4335,0 165.4335,0 10.8703,0 c 23.1406,11 38.271,28.001 45.2312,53.001 3.2001,11.001 3.5001,51.002 3.0001,397.111 l -0.594,384.711 -6.0002,13 c -7.7002,16 -23.3206,32.001 -39.6811,40.001 l -12.8203,10 -162.0104,0.4 c -129.7345,0.4 -163.9004,-0.1 -171.4936,0 z m -7921.17335,-770.821 0,-499.513 249.76676,0 249.76675,0 0,499.513 0,499.614 -249.76675,0 -249.76676,0 0,-499.614 z m 1899.12735,0 0,-499.513 249.7668,0 249.7667,0 0,499.513 0,499.614 -249.7667,0 -249.7668,0 0,-499.614 z m -1892.37717,-2052.055 0,-749.32 649.16857,0 649.1686,0 0,749.32 0,749.22 -649.1686,0 -649.16857,0 0,-749.22 z m 1899.12737,0 0,-749.32 650.2936,0 650.2926,0 0,749.32 0,749.22 -650.2926,0 -650.2936,0 0,-749.22 z m 4522.8024,-1102.63 c -4.4001,0 -4.5001,-10 -4.5001,-195.705 0,-188.305 0.07,-191.405 4.5001,-195.806 4.4001,0 7.5002,0 121.1593,0 110.1599,0 116.8671,0.2 120.3832,0 3.4001,0 3.7001,21.001 3.7001,196.806 l 0,192.605 -5.0001,0 c -4.4001,0 -19.5905,0 -120.3833,0 -112.381,0 -115.4991,-0.1 -119.8822,0 z m 500.5265,0 c -4.3001,0 -4.4001,-10 -5.0001,-195.705 -0.593,-190.405 -0.55,-192.605 3.9001,-197.106 4.4001,0 7.2002,0 121.3843,0 103.2248,0 117.2592,0.4 120.3832,0 3.2001,0 3.5001,24.001 3.5001,196.806 l 0,193.205 -5.0001,0 c -4.4001,0 -19.5505,0 -119.9532,0 -95.7226,0 -115.6822,-0.5 -119.3193,0 z m 500.0146,-0.9 c -3.4001,0 -3.7001,-21.001 -3.7001,-196.705 0,-172.105 0.377,-193.006 3.5,-196.206 3.1001,0 17.1205,0 119.9533,0 96.9826,0 117.1462,0.5 120.7843,0 4.3001,0 4.4001,10.001 5.0001,191.806 0.348,103.802 0.092,190.905 -0.566,193.605 -3.0001,12 1.4,12 -124.7614,12 -110.004,0 -116.7062,-0.2 -120.2222,0 z m 500.8105,0.6 -5.0001,0 0,-193.005 c 0,-184.205 0.189,-193.205 4.1001,-196.806 3.7001,0 15.3504,0 120.3832,0 113.2681,0 116.3842,0.101 120.7683,0 4.4001,0 4.5001,10.001 4.5001,195.806 0,188.205 -0.07,191.305 -4.5001,195.705 -4.4001,0 -7.5002,0 -119.8822,0 -100.7888,0 -116.0152,-0.4 -120.3833,0 z m 499.0325,-1 c -4.4001,0 -4.5001,-10 -4.5001,-196.505 0,-183.205 0.189,-192.205 4.1001,-195.806 3.7001,0 15.4104,0 121.1593,0 110.533,0 117.2521,0.2 120.7682,0 3.4001,0 3.7001,21.001 3.7001,196.806 l 0,192.605 -5.0001,0 c -4.4001,0 -19.5905,0 -120.3833,0 -112.381,0 -115.4991,-0.1 -119.8822,0 z m -6883.2112,-904.524 0,-450.013 349.8984,0 349.8985,0 0,450.013 0,450.012 -349.8985,0 -349.8984,0 0,-450.012 z m 1300.5872,0 0,-450.013 349.3354,0.5 349.3365,0.6 0.568,449.513 0.568,449.412 -349.9035,0 -349.9044,0 0,-450.012 z m 2706.9312,29 c -4.4001,0 -4.5001,-10 -4.5001,-119.803 0,-100.803 0.443,-116.103 3.5001,-120.403 l 3.5001,0 193.0362,0 c 184.153,0 193.2082,0.2 196.7603,0 3.4001,0 3.7001,15 3.7001,121.403 l 0,117.203 -5.0001,0 c -4.4001,0 -26.7507,0 -195.7633,0 -187.7621,0 -190.8322,0 -195.2623,0 z m 3600.2414,0 c -4.4001,0 -4.5001,-10 -4.5001,-119.803 0,-100.803 0.443,-116.103 3.5001,-120.403 l 3.5001,0 193.0362,0 c 184.153,0 193.2082,0.2 196.7603,0 3.4001,0 3.7001,15 3.7001,120.403 0,113.203 -0.117,116.403 -4.5001,120.703 -4.4001,0 -7.5002,0 -195.7633,0 -188.2621,0 -191.3332,0 -195.7633,0 z m -2403.161,-1121.63 0,-799.922 799.3666,0.5 799.3656,0.6 0.5661,799.322 0.565,799.422 -799.9317,0 -799.9316,0 0,-799.922 z m -1192.5803,625.117 c -8.9002,0 -9.0002,0 -9.0002,-123.303 0,-100.403 0.444,-115.604 3.5001,-119.904 l 3.5001,0 193.2242,0 c 172.6587,0 193.6012,0.3 196.7603,0 3.1001,0 3.5001,17.001 3.5001,120.404 0,113.803 -0.115,116.903 -4.5001,121.303 -4.4001,0 -7.4002,0 -194.0753,0 -104.2668,-0.1 -191.0941,-0.7 -192.9512,0 z m 3595.7413,0 c -4.4001,0 -4.5001,-10 -4.5001,-121.103 0,-110.203 0.229,-116.904 4.1001,-120.404 3.8001,0 20.6406,0 196.5393,0 183.56,0 192.5962,0.1 196.1483,0 3.4001,0 3.7001,15.001 3.7001,120.404 0,113.203 -0.117,116.303 -4.5001,120.703 -4.4001,0 -7.5002,0 -195.7633,0 -188.2621,0 -191.3332,-0.1 -195.7633,0 z m -3601.2384,-502.314 c -3.1001,0 -3.5001,-19 -3.5001,-120.203 l 0,-115.203 6.0001,0 c 6.0002,0 6.2002,0 197.0704,0 186.202,0.6 191.1751,0.7 194.2872,0 2.7001,0 3.2001,24.001 3.2001,120.803 0,102.803 -0.413,116.803 -3.5001,119.903 -3.2001,0 -24.1006,0 -196.7603,0 l -193.2242,0 -3.5001,0 z m 3600.4624,0.9 c -3.4001,0 -3.7001,-15 -3.7001,-120.203 0,-125.803 -0.426,-121.303 11.9703,-124.403 2.7001,-0.6 89.7924,-0.9 193.5382,-0.5 183.745,0.6 188.7142,0.7 191.8252,0 2.7001,0 3.2001,24 3.2001,120.803 0,102.803 -0.413,116.803 -3.5001,119.903 -3.2001,0 -24.0806,0 -196.5393,0 -184.121,0 -193.1752,-0.1 -196.7273,0 z m -5914.315,-612.916 0.57,-349.41 449.4671,-0.5 449.4682,-0.6 0,349.91 0,349.909 -450.0372,0 -450.0381,0 0.57,-349.309 z m 2313.8526,112.503 c -3.1001,0 -3.5001,-20.001 -3.5001,-120.403 0,-112.304 0.117,-115.504 4.5001,-119.804 4.4001,0 7.5002,0 195.7633,0 188.2631,0 191.3332,0 195.7633,0 4.4001,0 4.5001,10.001 4.5001,121.104 0,110.203 -0.229,116.903 -4.1001,120.403 -3.8001,0 -20.6606,0 -196.7603,0 l -192.6452,0 -3.5001,0 z m 3600.2414,0 c -3.1001,0 -3.5001,-20.001 -3.5001,-120.403 0,-112.304 0.117,-115.504 4.5001,-119.804 4.4001,0 7.5002,0 195.7633,0 188.2631,0 191.3332,0 195.7633,0 4.4001,0 4.5001,10.001 4.5001,121.104 0,110.203 -0.229,116.903 -4.1001,120.403 -3.8001,0 -20.6605,0 -196.7603,0 l -192.6452,0 -3.5001,0 z m -3600.2414,-499.514 c -3.1001,0 -3.5001,-20 -3.5001,-120.403 0,-112.403 0.117,-115.503 4.5001,-119.903 4.4001,0 7.5002,0 196.5393,0 183.187,0 192.2112,0.2 195.7633,0 3.4001,0 3.7001,15 3.7001,121.103 0,110.503 -0.229,117.303 -4.1001,120.803 -3.8001,0 -20.6606,0 -196.7603,0 l -192.6452,0 -3.5001,0 z m 3600.2414,0 c -3.1001,0 -3.5001,-19 -3.5001,-119.903 0,-100.303 0.444,-115.503 3.5001,-119.903 l 3.5001,0 193.2572,0 193.2582,0 3.5001,0 c 3.1001,0 3.5001,20 3.5001,119.903 0,100.403 -0.443,115.503 -3.5001,119.903 l -3.5001,0 -193.2582,0 -193.2572,0 -3.5001,0 z m -5913.149,-563.515 c -0.825,-0.8 -1.5,-158.304 -1.5,-349.909 l 0,-348.41 450.0301,0 450.0302,0 0,349.91 0,349.909 -448.5301,0 c -246.6917,0 -449.2052,-0.7 -450.0302,0 z m 3189.2133,-160.504 c -4.4001,0 -4.5001,-10.001 -4.5001,-195.806 0,-188.205 0.07,-191.305 4.5001,-195.705 4.4001,0 7.5002,0 121.1593,0 110.1599,0 116.8671,0.2 120.3832,0 3.4001,0 3.7001,21.001 3.7001,196.705 l 0,192.706 -5.0001,0 c -4.4001,0 -19.5905,0 -120.3833,0 -112.381,0 -115.4991,-0.1 -119.8822,0 z m 500.5265,0 c -4.3001,0 -4.4001,-10.001 -4.4001,-197.106 0,-189.305 0.104,-193.905 4.4001,-197.005 3.6001,0 23.7707,0 120.5963,0 109.744,0 116.4371,0.2 119.9532,0 3.4001,0 3.7001,21.001 3.7001,196.505 0,183.605 -0.189,192.606 -4.1001,196.206 -3.7001,0 -15.3204,0 -119.9522,0 -96.4926,0 -116.5682,-0.6 -120.2063,0 z m 500.0146,-0.9 c -3.4001,0 -3.7001,-21.001 -3.7001,-196.806 0,-172.104 0.377,-192.905 3.5,-196.105 3.1001,0 17.1205,0 119.9533,0 96.9926,0 117.1452,0.5 120.7843,0 4.3001,0 4.4001,10 4.4001,197.005 0,189.305 -0.103,194.006 -4.4001,197.106 -3.6001,0 -23.7707,0 -120.5963,0 -109.743,0 -116.4372,-0.3 -119.9532,0 z m 500.8105,0.6 -5.0001,0 0,-193.106 c 0,-184.105 0.189,-193.205 4.1001,-196.705 3.7001,0 15.3504,0 120.3832,0 113.2681,0 116.3842,0.1 120.7683,0 4.4001,0 4.5001,10 4.5001,195.705 0,188.306 -0.07,191.306 -4.5001,195.806 -4.4001,0 -7.5002,0 -119.8822,0 -100.7888,0 -116.0152,-0.5 -120.3833,0 z m 499.5335,0 -5.0001,0 0,-193.306 0,-193.205 5.0001,0 c 4.4001,0 19.5505,0 119.8823,0 100.3347,0 115.5151,0.4 119.8822,0 l 5.0001,0 0,193.205 0,193.306 -5.0001,0 c -4.4001,0 -19.5505,0 -119.8822,0 -100.3348,0 -115.5142,-0.5 -119.8823,0 z m -8020.03797,-841.423 0,-624.417 609.79047,0 609.7915,0 0,624.417 0,624.417 -609.7915,0 -609.79047,0 0,-624.417 z m 2833.49867,-1177.432 0.566,-649.718 749.8623,-0.6 749.8633,-0.5 0,650.218 0,650.318 -750.4293,0 -750.4293,0 0.567,-649.718 z m 2256.342,106.303 0,-349.91 450.0302,0 450.0302,0 0,349.91 0,349.909 -450.0302,0 -450.0302,0 0,-349.909 z m 2234.3995,-355.51 0,-349.909 450.0302,0 450.0301,0 0,349.909 0,349.91 -450.0301,0 -450.0302,0 0,-349.91 z m 1500.1016,-463.912 c -0.826,-0.8 -1.5001,-158.305 -1.5001,-349.91 l 0,-348.409 450.0304,0 450.03,0 0,349.909 0,349.91 -448.529,0 c -246.6918,0 -449.2063,-0.7 -450.0303,0 z m -3734.5011,-481.113 0,-349.91 450.0302,0 450.0302,0 0,349.91 0,349.909 -450.0302,0 -450.0302,0 0,-349.909 z m -5089.84067,-578.316 0,-624.417 609.79047,0 609.7915,0 0,624.417 0,624.417 -609.7915,0 -609.79047,0 0,-624.417 z m 7324.24017,222.806 0,-349.909 450.0302,0 450.0301,0 0,349.909 0,349.81 -450.0301,0 -450.0302,0 0,-349.81 z m -4489.8005,298.808 c -0.825,-0.8 -1.5,-293.408 -1.5,-650.217 l 0,-648.818 750.4253,0 750.4253,0 0,650.318 0,650.217 -748.9253,0 c -411.9091,0 -749.6003,-0.6 -750.4253,0 z m 5988.401,-1111.13 0,-349.909 450.0304,0 450.03,0 0,349.909 0,349.91 -450.03,0 -450.0304,0 0,-349.91 z m -5722.1328,-2573.069 0,-675.019 199.1384,0 199.1374,0 0,675.019 0,675.018 -199.1374,0 -199.1384,0 0,-675.018 z m 650.2936,0 0,-675.019 199.1384,0 199.1374,0 0,675.019 0,675.018 -199.1374,0 -199.1384,0 0,-675.018 z m 648.6016,0.6 0.567,-674.519 199.7004,-0.6 199.7004,-0.6 0,675.119 0,675.018 -200.2664,0 -200.2675,0 0.5661,-674.418 z m 650.2936,0 0.567,-674.519 199.7004,-0.6 199.7014,-0.6 0,675.119 0,675.018 -200.2674,0 -200.2675,0 0.5661,-674.418 z m 650.2936,0 0.567,-674.519 199.1384,0 199.1373,0 0.5671,674.519 0.566,674.418 -200.2704,0 -200.2715,0 0.5661,-674.418 z m -2849.2491,-2699.573 0,-775.221 749.3002,0 749.2993,0 0,775.221 0,775.12 -749.2993,0 -749.3002,0 0,-775.12 z m 1998.133,0 0,-775.221 750.4253,0 750.4263,0 0,775.221 0,775.12 -750.4263,0 -750.4253,0 0,-775.12 z"
       style="fill:#000000"
       inkscape:connector-curvature="0" />
  </g>
</svg>
