<?xml version="1.0" encoding="UTF-8" standalone="no"?>
<svg
   xmlns:dc="http://purl.org/dc/elements/1.1/"
   xmlns:cc="http://creativecommons.org/ns#"
   xmlns:rdf="http://www.w3.org/1999/02/22-rdf-syntax-ns#"
   xmlns:svg="http://www.w3.org/2000/svg"
   xmlns="http://www.w3.org/2000/svg"
   xmlns:sodipodi="http://sodipodi.sourceforge.net/DTD/sodipodi-0.dtd"
   xmlns:inkscape="http://www.inkscape.org/namespaces/inkscape"
   version="1.1"
   id="svg4385"
   viewBox="0 0 744.09448819 1052.3622047"
   height="297mm"
   width="210mm"
   inkscape:version="0.91 r13725"
   sodipodi:docname="traced_50um_inset.svg">
  <sodipodi:namedview
     pagecolor="#ffffff"
     bordercolor="#666666"
     borderopacity="1"
     objecttolerance="10"
     gridtolerance="10"
     guidetolerance="10"
     inkscape:pageopacity="0"
     inkscape:pageshadow="2"
     inkscape:window-width="1141"
     inkscape:window-height="688"
     id="namedview7"
     showgrid="false"
     inkscape:zoom="0.01"
     inkscape:cx="26549.644"
     inkscape:cy="10370.359"
     inkscape:window-x="0"
     inkscape:window-y="0"
     inkscape:window-maximized="0"
     inkscape:current-layer="svg4385" />
  <defs
     id="defs4387" />
  <metadata
     id="metadata4390">
    <rdf:RDF>
      <cc:Work
         rdf:about="">
        <dc:format>image/svg+xml</dc:format>
        <dc:type
           rdf:resource="http://purl.org/dc/dcmitype/StillImage" />
        <dc:title />
      </cc:Work>
    </rdf:RDF>
  </metadata>
  <g
     id="layer1"
     transform="matrix(9.9999999e-4,0,0,9.9999702e-4,-0.06050391,1051.3646)">
    <path
       id="path4998"
       d="m 3633.7422,-39708.338 c 0,241.707 0,483.414 0,725.121 466.1999,0 932.3997,0 1398.5996,0 0,-483.447 0,-966.894 0,-1450.342 -466.1999,0 -932.3997,0 -1398.5996,0 0,241.741 0,483.481 0,725.221 z m 1998.1348,0 c 0,241.707 0,483.414 0,725.121 466.9505,0 933.901,0 1400.8515,0 0,-483.447 0,-966.894 0,-1450.342 -466.9505,0 -933.901,0 -1400.8515,0 0,241.741 0,483.481 0,725.221 z m -1748.3672,2698.975 c 0,208.339 0,416.678 0,625.017 99.4251,0 198.8502,0 298.2754,0 0,-416.679 0,-833.358 0,-1250.037 -99.4252,0 -198.8503,0 -298.2754,0 0,208.34 0,416.68 0,625.02 z m 650.2929,0 c 0,208.339 0,416.678 0,625.017 99.4258,0 198.8516,0 298.2774,0 0,-416.679 0,-833.358 0,-1250.037 -99.4258,0 -198.8516,0 -298.2774,0 0,208.34 0,416.68 0,625.02 z m 799.0176,-624.52 c -49.9635,0.151 -99.9271,0.301 -149.8906,0.451 -0.349,416.362 -0.6979,832.724 -1.0469,1249.086 100.1634,0 200.3268,0 300.4902,0 0,-416.662 0,-833.324 0,-1249.986 -49.8509,0.15 -99.7018,0.299 -149.5527,0.449 z m 650.2949,0 c -49.9642,0.151 -99.9284,0.301 -149.8925,0.451 -0.349,416.362 -0.698,832.724 -1.0469,1249.086 100.164,0 200.3281,0 300.4922,0 0,-416.662 0,-833.324 0,-1249.986 -49.8509,0.15 -99.7019,0.299 -149.5528,0.449 z m 499.877,625.162 c -0.1745,208.125 -0.349,416.25 -0.5234,624.375 100.1523,0 200.3046,0 300.457,0 -0.3496,-416.312 -0.6992,-832.625 -1.0488,-1248.937 -99.4538,0 -198.9076,0 -298.3614,0 -0.1745,208.187 -0.3489,416.375 -0.5234,624.562 z m 3122.6504,2572.426 c 0,99.97 0,199.94 0,299.91 266.6868,0 533.3734,0 800.0604,0 0,-199.939 0,-399.879 0,-599.818 -266.687,0 -533.3736,0 -800.0604,0 0,99.969 0,199.939 0,299.908 z m -5989.9004,460.899 c 0.1045,200.511 -0.016,401.023 0.9824,601.533 466.6224,0.08 933.2448,0.314 1399.8672,0.199 0,-400.178 0,-800.357 0,-1200.535 -466.9499,0 -933.8997,0 -1400.8496,0 0,199.601 0,399.202 0,598.803 z m -2832.93947,128.617 c 0,191.472 0,382.945 0,574.418 373.19397,0 746.38807,0 1119.58207,0 0,-382.945 0,-765.89 0,-1148.834 -373.194,0 -746.3881,0 -1119.58207,0 0,191.472 0,382.944 0,574.416 z m 7324.24027,222.806 c 0,99.937 0,199.874 0,299.811 266.6862,0 533.3724,0 800.0586,0 0,-199.907 0,-399.814 0,-599.721 -266.6862,0 -533.3724,0 -800.0586,0 0,99.97 0,199.94 0,299.91 z m -2234.4004,355.51 c 0,99.97 0,199.939 0,299.908 266.6868,0 533.3737,0 800.0605,0 0,-199.939 0,-399.879 0,-599.818 -266.6868,0 -533.3737,0 -800.0605,0 0,99.97 0,199.94 0,299.91 z m 3733.0019,131.182 c 0.069,100.393 0.049,200.787 0.7735,301.177 266.4283,0.165 532.857,0.336 799.285,0.26 0,-199.942 0,-399.884 0,-599.826 -266.686,0 -533.3723,0 -800.0585,0 0,99.463 0,198.926 0,298.389 z m -5288.8769,462.732 c -233.3145,0.187 -466.6289,0.374 -699.9434,0.561 -0.3489,399.825 -0.6979,799.649 -1.0469,1199.474 466.9382,0 933.8763,0 1400.8145,0 0,-400.166 0,-800.333 0,-1200.5 -233.2747,0.155 -466.5495,0.31 -699.8242,0.465 z m 3790.2754,351.111 c 0,99.971 0,199.941 0,299.911 266.6862,0 533.3724,0 800.0586,0 0,-199.94 0,-399.881 0,-599.821 -266.6862,0 -533.3724,0 -800.0586,0 0,99.97 0,199.94 0,299.91 z m -2234.4004,355.51 c 0,99.97 0,199.939 0,299.908 266.6868,0 533.3737,0 800.0605,0 0,-199.939 0,-399.878 0,-599.818 -266.6868,0 -533.3737,0 -800.0605,0 0,99.97 0,199.94 0,299.91 z m -5089.83987,1071.129 c 0,191.472 0,382.944 0,574.416 373.19397,0 746.38807,0 1119.58207,0 0,-382.944 0,-765.889 0,-1148.834 -373.194,0 -746.3881,0 -1119.58207,0 0,191.473 0,382.946 0,574.418 z m 2828.43947,652.297 c 0.068,100.392 0.05,200.786 0.7734,301.176 266.429,0.169 532.8581,0.331 799.2871,0.26 0,-199.942 0,-399.883 0,-599.825 -266.6868,0 -533.3737,0 -800.0605,0 0,99.463 0,198.926 0,298.389 z m 3687.2226,-154.682 c -0.6813,97.492 -0.4982,195.239 -0.017,292.575 49.2856,0.169 98.5716,0.127 147.8574,0.132 0.8305,-96.694 0.3998,-193.855 0.1055,-290.732 -0.9202,-4.445 -10.6587,-0.712 -15.0215,-1.948 -44.308,-0.04 -88.6159,-0.03 -132.9239,-0.03 z m 500.6934,11.797 c -0.6954,93.914 -0.3813,188.625 -0.01,282.539 49.3027,0.08 98.6055,0.107 147.9082,0.04 0.7149,-97.059 0.3743,-194.679 0.1073,-291.954 -0.3828,-5.041 -10.2952,-0.493 -14.1365,-2.054 -44.5833,-0.107 -89.1667,-0.07 -133.7501,-0.08 -0.04,3.836 -0.079,7.671 -0.1191,11.506 z m -979.248,-9.215 c -7.3536,0.02 -14.7071,0.04 -22.0606,0.06 -0.7957,95.405 -0.333,191.326 -0.1504,286.934 0.3758,5.188 10.5542,1.117 15.0235,2.414 44.8131,0.02 89.6263,0.01 134.4394,0.01 -0.082,-96.42 0.4173,-193.102 -0.3965,-289.357 -42.2851,-0.01 -84.5703,-0.132 -126.8554,-0.06 z m 1478.6875,16.344 c -0.6983,91.944 -0.058,184.342 -0.2911,276.463 49.7857,0.163 99.5716,0.111 149.3575,0.117 0.7996,-95.29 0.3238,-191.532 0.1543,-286.738 2.0472,-8.381 -9.1043,-3.435 -14.0489,-4.756 -45.0123,-0.02 -90.0247,-0.02 -135.0371,-0.02 -0.045,4.977 -0.09,9.955 -0.1347,14.933 z m 499.2421,131.576 c 0.04,47.712 -0.081,95.585 0.061,143.196 49.9016,0.144 99.8034,0.104 149.7051,0.109 -0.029,-95.46 0.057,-191.034 -0.043,-286.422 -49.9075,-0.114 -99.8151,-0.08 -149.7227,-0.09 0,47.735 0,95.47 0,143.205 z m -2875.4824,727.7 c -0.3481,47.156 -0.3932,94.519 0.07,141.525 99.9987,0 199.9974,0 299.9961,0 0.3945,-47.28 0.3762,-94.562 -0.01,-141.842 -100.0176,-0.08 -200.0352,-0.06 -300.0528,-0.06 l 0,0.379 z m 3600.293,1.595 c -0.4139,45.961 -0.4271,92.246 -0.01,138.33 99.9987,0 199.9974,0 299.9961,0 0.4805,-46.421 0.349,-93.227 0.02,-139.806 -99.9987,0 -199.9974,0 -299.9961,0 l -0.01,1 0,0.476 z m -5510.75,275.432 c -133.2051,0.148 -266.4102,0.297 -399.6152,0.445 -0.3256,199.591 -0.6511,399.183 -0.9766,598.774 266.6647,0 533.3294,0 799.9941,0 0,-199.918 0,-399.836 0,-599.754 -133.1341,0.178 -266.2682,0.357 -399.4023,0.535 z m 3111.8262,789.123 c 0,249.974 0,499.948 0,749.922 499.9427,0 999.8854,0 1499.8281,0 -0.3535,-499.595 -0.707,-999.189 -1.0606,-1498.783 -499.5891,-0.39 -999.1783,-0.734 -1498.7675,-1.032 0,249.965 0,499.929 0,749.893 z m -1201.3692,-566.631 c -0.3479,47.057 -0.391,94.296 0.066,141.221 100.0117,0 200.0235,0 300.0352,0 0.4006,-47.168 0.3032,-94.339 0.02,-141.508 -100.0397,0 -200.0794,0 -300.1191,0 l 0,0.287 z m 3600.2403,0 c -0.3431,47.055 -0.3922,94.326 0.068,141.223 100.0098,0 200.0195,0 300.0293,0 0.3941,-47.169 0.3423,-94.34 0.016,-141.508 -100.0371,0 -200.0742,0 -300.1113,0 l 0,0.285 z m 39.6054,495.068 c -13.1895,0.02 -26.379,0.05 -39.5683,0.118 -0.5553,46.903 -0.066,93.811 -0.1075,140.716 100.0612,0.04 200.1224,0.03 300.1836,0.03 0.4477,-46.555 0.2719,-93.533 -0.01,-140.26 -86.8341,-0.168 -173.6675,-0.712 -260.502,-0.606 z m -3640.0547,8.942 c 0.063,46.851 -0.1509,94.138 0.2266,140.724 100.0326,0 200.0651,0 300.0977,0 0.4477,-46.562 0.2716,-93.547 -0.01,-140.281 -100.1058,-0.296 -200.2121,-0.514 -300.3184,-0.443 z m 0.2657,495.769 c -0.4129,46.498 -0.4734,93.634 0,140.164 100.0017,0.26 200.0038,0.351 300.0058,0.313 0.3861,-47.205 0.3645,-94.414 -0.039,-141.619 -99.9831,-0.126 -199.9662,-0.09 -299.9493,-0.1 l -0.011,1 0,0.24 z m 3600.1855,1.399 c -0.3376,46.712 -0.3692,93.426 -0.012,140.138 100.0247,0.04 200.0495,0.03 300.0742,0.03 0.3796,-47.025 0.3607,-94.052 -0.023,-141.076 -100.0104,-0.04 -200.0209,-0.03 -300.0313,-0.03 l -0.01,0.94 z m -7603.4726,658.084 c 0,133.337 0,266.674 0,400.011 199.9322,0 399.8645,0 599.7968,0 0,-266.675 0,-533.351 0,-800.027 -199.9323,0 -399.8646,0 -599.7968,0 0,133.339 0,266.677 0,400.016 z m 1300.5878,0 c 0,133.337 0,266.674 0,400.011 199.9154,0 399.8308,0 599.7461,0 -0.3372,-266.336 -0.6744,-532.673 -1.0117,-799.009 -199.578,-0.356 -399.1562,-0.673 -598.7344,-0.948 0,133.316 0,266.631 0,399.946 z m 2702.7032,-161.203 c -0.4296,46.035 -0.411,92.429 -0.084,138.601 100.0918,0 200.1836,0 300.2754,0 -0.01,-46.179 0.2187,-92.36 -0.166,-138.539 -100.0085,-0.09 -200.017,-0.06 -300.0254,-0.06 z m 3600.248,0 c -0.4271,46.862 -0.4543,94.047 -0.066,141.033 100.024,0.175 200.0482,0.03 300.0723,0.06 0.3758,-47.009 0.359,-94.021 -0.023,-141.031 -99.9941,-0.09 -199.9882,-0.06 -299.9824,-0.06 z m -1723.4433,723.216 c -0.7097,93.808 -0.4587,188.139 -0.168,282.153 0.708,4.499 -1.1484,12.101 1.1699,15.178 49.2528,-0.104 99.1016,0.535 147.7891,-0.268 0.2437,-98.918 0.3138,-198.371 -0.918,-296.951 -49.2909,-0.142 -98.582,-0.111 -147.873,-0.112 z m 998.9375,7.237 c -0.5949,93.888 -0.3428,188.272 -0.055,282.349 49.8086,0.03 99.6172,0.02 149.4257,0.03 -0.082,-96.423 0.4172,-193.107 -0.3964,-289.365 -49.6335,-0.06 -99.267,-0.04 -148.9004,-0.05 -0.025,2.345 -0.049,4.69 -0.074,7.035 z m -1500.7598,-6.237 c -0.4465,96.607 0.2585,193.45 0.7891,289.899 49.4757,0.142 98.9518,0.106 148.4277,0.111 -0.074,-96.641 0.3772,-193.284 -0.3809,-289.924 -49.6119,-0.114 -99.2239,-0.08 -148.8359,-0.09 z m -477.4961,1.286 c -7.3516,0.02 -14.7031,0.04 -22.0547,0.06 -0.7976,95.333 -0.3294,191.596 -0.1523,286.877 0.7876,5.422 11.2625,1.062 16.0254,2.47 44.4798,0.02 88.9596,0.01 133.4394,0.01 -0.082,-96.419 0.4173,-193.1 -0.3965,-289.355 -42.2871,0 -84.5742,-0.138 -126.8613,-0.07 z m 1478.6934,16.4 c -0.6983,91.928 -0.058,184.313 -0.2911,276.418 49.7858,0.07 99.5718,0.234 149.3575,0.06 0.7766,-96.912 0.3724,-194.326 0.1054,-291.434 -49.679,-0.03 -99.358,-0.02 -149.0371,-0.03 -0.045,4.994 -0.09,9.989 -0.1347,14.984 z m -7918.57231,1427.756 c 0,233.073 0,466.146 0,699.219 399.44531,0 798.89061,0 1198.33591,0 0,-466.18 0,-932.36 0,-1398.539 -399.4453,0 -798.8906,0 -1198.33591,0 0,233.106 0,466.213 0,699.32 z m 1899.12691,0 c 0,233.073 0,466.146 0,699.219 400.1954,0 800.3907,0 1200.586,0 0,-466.18 0,-932.36 0,-1398.539 -400.1953,0 -800.3906,0 -1200.586,0 0,233.106 0,466.213 0,699.32 z m -1905.87691,2052.055 c 0,149.871 0,299.742 0,449.613 133.17774,0 266.35547,0 399.5332,0 0,-299.709 0,-599.418 0,-899.127 -133.17773,0 -266.35547,0 -399.5332,0 0,149.838 0,299.676 0,449.514 z m 1899.12691,0 c 0,149.871 0,299.742 0,449.613 133.1778,0 266.3555,0 399.5332,0 0,-299.709 0,-599.418 0,-899.127 -133.1777,0 -266.3554,0 -399.5332,0 0,149.838 0,299.676 0,449.514 z m 3589.9747,-78.036 c -12.1536,5.751 -25.0496,15.793 -24.3399,30.67 -1.9439,222.997 -0.6865,446.028 -0.1317,669.037 0.342,28.225 0.1986,57.076 1.9872,85.332 7.7606,9.145 18.4237,16.423 29.8242,19.91 97.1488,0.188 194.4202,0.05 291.4922,-0.513 9.2369,-5.705 20.6952,-10.259 24.6328,-21.332 -0.6931,-60.914 -0.099,-121.917 -0.2969,-182.865 0,-193.207 0,-386.414 0,-579.621 -5.7572,-10.257 -16.9996,-15.893 -26.5683,-21.385 -98.5358,0 -197.0717,0 -295.6075,0 l -0.7909,0.612 -0.2012,0.155 z m 1110.9199,-0.578 c -34.8587,0.395 -69.7831,-0.07 -104.668,0.108 -67.9212,0 -135.8424,0 -203.7637,0 -9.1052,5.36 -20.0837,9.607 -24.6093,19.953 -3.2964,6.349 -0.5638,14.381 -1.4571,21.398 0.027,247.453 -0.055,494.932 0.041,742.367 4.3594,7.027 10.8629,15.609 20.1931,13.695 99.7592,0.745 200.0081,-0.227 299.9573,-0.243 7.9049,-6.24 19.2395,-8.183 24.1192,-17.834 3.0456,-5.99 1.3872,-13.528 2.4883,-20.121 2.3275,-44.411 1.4849,-88.079 1.9321,-132.721 0.053,-184.084 0.6679,-368.174 -0.5259,-552.254 -0.3918,-21.184 -0.2139,-44.037 -3.2812,-65.574 -2.6494,-3.626 -6.5455,-6.817 -10.4258,-8.774 z m 1286.6738,3.127 c -8.6556,4.12 -17.888,9.409 -20.9363,19.21 -1.3471,7.591 0.3138,15.74 -0.4074,23.55 0,245.475 0,490.951 0,736.426 4.051,7.934 11.1332,16.38 20.2324,17.646 100.6787,0.119 201.3681,-0.249 302.0508,-0.488 9.3839,-5.959 19.6737,-11.516 24.7089,-22.033 2.3381,-5.39 -0.089,-11.788 0.7961,-17.539 0.067,-236.799 1.5117,-473.602 0.179,-710.399 -0.5436,-11.996 0.3227,-24.454 -2.1762,-35.771 -2.7192,-5.991 -7.0545,-14.297 -14.9746,-12.119 -102.4037,0 -204.8073,0 -307.211,0 -0.7539,0.505 -1.5078,1.011 -2.2617,1.517 z m -739.2656,-1.191 c -22.7356,0.519 -44.8896,-1.058 -67.1641,2.908 -7.8436,4.991 -13.7226,12.921 -15.9531,21.877 0,251.046 0,502.092 0,753.139 3.9493,9.919 12.2266,17.072 21.858,21.205 4.4839,3.396 9.6722,4.659 15.2689,3.798 91.4618,-0.04 183.119,1.428 274.3568,-0.683 9.8262,-0.896 22.0109,1.812 28.9011,-7.229 5.0427,-4.879 8.9913,-11.126 7.4179,-18.414 -0.073,-251.8 0.1459,-503.676 -0.1094,-755.429 -5.8485,-9.025 -15.7606,-14.17 -24.291,-20.264 -80.0948,-0.239 -160.191,-0.965 -240.2851,-0.908 z m -551.752,1696.613 c -102.1379,-0.172 -204.3086,0.59 -306.459,0.842 -8.7196,5.712 -18.4132,10.867 -23.0371,20.793 -2.0765,5.542 0.1188,12.11 -0.6797,18.01 0,248.233 0,496.467 0,744.701 1.2367,3.278 3.0586,6.158 6.9278,4.572 32.5603,-0.675 65.1525,0.122 97.7284,0.01 76.9495,0.264 153.8998,0.263 230.8497,0.138 7.7039,-6.182 14.2529,-15.419 12.3418,-25.763 -0.059,-249.036 0.1172,-498.128 -0.088,-747.129 -3.6039,-6.517 -8.7518,-13.601 -15.7074,-16.28 l -0.9985,0.06 -0.8781,0.05 z m -1105.4004,3.94 c -7.8034,5.87 -18.6147,8.476 -22.6757,18.392 -4.0987,9.084 -1.3472,19.47 -2.42,28.999 -2.6648,161.441 -1.921,323.419 -1.8764,485.148 0.2714,82.751 0.414,165.401 2.4448,247.978 1.7841,9.906 10.5628,17.618 19.5195,21.307 102.4946,0.04 204.9884,-0.415 307.4824,-0.688 8.0465,-4.89 16.2559,-10.303 19.1446,-19.439 3.7039,-6.885 0.4162,-14.888 1.4705,-22.276 -0.3723,-246.192 -0.7447,-492.385 -1.117,-738.578 -4.9145,-9.287 -13.9391,-16.331 -22.9434,-20.879 -99.6725,0.02 -199.3763,-0.05 -299.0293,0.04 z m 1898.4981,1.953 c -99.889,0.03 -199.7787,0 -299.668,0.01 -10.1171,6.134 -21.2497,13.059 -24.748,25.18 0.071,251.523 -0.045,503.195 0.059,754.754 5.6567,12.071 18.0454,18.254 28.6914,25.168 98.576,-0.313 197.3058,-0.284 295.7851,-0.91 7.4556,-5.499 17.2266,-8.563 21.1817,-17.76 4.4589,-6.666 1.0437,-15.357 2.1074,-22.889 0,-247.719 0,-495.438 0,-743.158 -5.1686,-9.008 -14.0905,-16.191 -23.2613,-20.401 l -0.1469,0 z m 809.1269,3.043 c -106.9599,-0.01 -213.97,-0.05 -320.9492,-0.02 -6.9692,5.272 -13.5953,13.075 -11.5957,22.43 0,250.906 0,501.812 0,752.719 5.8364,10.602 16.9219,17.358 27.5762,22.05 95.3451,-0.17 190.7368,-0.01 286.0994,-0.407 5.3289,0.03 10.8984,1.041 14.8889,-3.282 8.6864,-4.282 15.5568,-11.848 19.2304,-20.775 -0.062,-252.289 0.125,-504.635 -0.094,-756.887 -3.4928,-6.175 -8.4287,-13.493 -15.1563,-15.826 z m -8197.90231,773.994 c 0,150.17 0,300.341 0,450.512 132.82104,-0.257 265.64201,-0.549 398.46289,-0.879 0.33984,-300.116 0.67969,-600.232 1.01953,-900.348 -133.1608,0 -266.32161,0 -399.48242,0 0,150.238 0,300.476 0,450.715 z m 949.56251,0 c 0,150.204 0,300.407 0,450.611 133.1784,0 266.3568,0 399.5351,0 0,-300.442 0,-600.884 0,-901.326 -133.1783,0 -266.3567,0 -399.5351,0 0,150.238 0,300.476 0,450.715 z m 949.5644,0 c 0,150.204 0,300.407 0,450.611 133.1778,0 266.3555,0 399.5332,0 0,-300.442 0,-600.884 0,-901.326 -133.1777,0 -266.3554,0 -399.5332,0 0,150.238 0,300.476 0,450.715 z M 60.503906,-18730.869 c 0,200.092 0,400.185 0,600.277 466.589164,-0.386 933.178354,-0.731 1399.767594,-1.027 0.3489,-399.823 0.6979,-799.646 1.0469,-1199.469 -466.93819,0 -933.87634,0 -1400.814494,0 0,200.073 0,400.146 0,600.219 z m 2409.910194,356.709 c 0,183.205 0,366.41 0,549.615 367.1933,0 734.3867,0 1101.58,0 0,-366.444 0,-732.888 0,-1099.332 -367.1933,0 -734.3867,0 -1101.58,0 0,183.239 0,366.478 0,549.717 z m 1651.6113,0 c 0,183.205 0,366.41 0,549.615 366.4433,0 732.8867,0 1099.3301,0 0,-366.444 0,-732.888 0,-1099.332 -366.4434,0 -732.8867,0 -1099.3301,0 0,183.239 0,366.478 0,549.717 z m 1651.6113,0 c 0,183.205 0,366.41 0,549.615 366.4434,0 732.8867,0 1099.3301,0 0,-366.444 0,-732.888 0,-1099.332 -366.4434,0 -732.8867,0 -1099.3301,0 0,183.239 0,366.478 0,549.717 z m 1651.6094,0 c 0,183.205 0,366.41 0,549.615 366.4434,0 732.8867,0 1099.3301,0 0,-366.444 0,-732.888 0,-1099.332 -366.4434,0 -732.8867,0 -1099.3301,0 0,183.239 0,366.478 0,549.717 z M 60.503906,-16830.619 c 0,199.739 0,399.479 0,599.219 466.949874,0 933.899744,0 1400.849594,0 0,-399.446 0,-798.891 0,-1198.336 -466.94985,0 -933.89972,0 -1400.849594,0 0,199.705 0,399.411 0,599.117 z m 4061.521494,556.916 c 0,183.605 0,367.211 0,550.816 366.4433,0 732.8867,0 1099.3301,0 0,-367.177 0,-734.355 0,-1101.533 -366.4434,0 -732.8867,0 -1099.3301,0 0,183.572 0,367.145 0,550.717 z m 1651.6113,0 c 0,183.605 0,367.211 0,550.816 366.4434,0 732.8867,0 1099.3301,0 0,-367.177 0,-734.355 0,-1101.533 -366.4434,0 -732.8867,0 -1099.3301,0 0,183.572 0,367.145 0,550.717 z m 1651.6094,0 c 0,183.605 0,367.211 0,550.816 366.4434,0 732.8867,0 1099.3301,0 0,-367.177 0,-734.355 0,-1101.533 -366.4434,0 -732.8867,0 -1099.3301,0 0,183.572 0,367.145 0,550.717 z m -4954.2832,-2.166 c -0.1,184.157 -0.3512,368.314 0.1582,552.471 366.5828,0.378 733.1654,-0.362 1099.748,-0.551 0,-366.457 0,-732.914 0,-1099.371 -366.4583,0 -732.9166,0 -1099.375,0 -0.177,182.483 -0.3541,364.967 -0.5312,547.451 z m -1618.40626,2432.332 c 0,133.337 0,266.674 0,400.012 199.93226,0 399.86456,0 599.79686,0 0,-266.676 0,-533.351 0,-800.026 -199.9323,0 -399.8646,0 -599.79686,0 0,133.338 0,266.676 0,400.014 z m 1300.58786,0 c 0,133.314 0,266.627 0,399.941 199.5782,-0.274 399.1564,-0.588 598.7344,-0.945 0.3366,-266.337 0.6732,-532.673 1.0098,-799.01 -199.9147,0 -399.8295,0 -599.7442,0 0,133.338 0,266.676 0,400.014 z m 1390.5918,25 c 0,133.337 0,266.674 0,400.012 199.9323,0 399.8646,0 599.7969,0 0,-266.675 0,-533.349 0,-800.024 -199.9323,0 -399.8646,0 -599.7969,0 0,133.337 0,266.675 0,400.012 z m 1300.5879,0 c 0,133.337 0,266.674 0,400.012 199.9323,0 399.8646,0 599.7969,0 0,-266.675 0,-533.349 0,-800.024 -199.9323,0 -399.8646,0 -599.7969,0 0,133.337 0,266.675 0,400.012 z m 101.7891,2408.502 c -24.8349,0.282 -49.887,10.048 -66.5388,28.845 -91.8684,87.978 -181.2117,179.531 -271.371,269.666 -32.9428,33.38 -66.4789,66.61 -97.9351,101.509 -9.0302,13.254 -14.0678,28.764 -15.6825,44.185 -3.2971,36.712 15.2321,74.72 47.2579,93.424 9.4448,5.551 19.3194,12.169 30.4291,13.067 20.7219,0.496 43.2187,2.817 62.2232,-7.929 10.0791,-4.013 19.3365,-9.729 26.2196,-18.249 115.4994,-115.987 232.0855,-231.108 346.4325,-348.077 13.9764,-14.853 30.9979,-28.875 35.9885,-49.631 4.9327,-18.355 4.7692,-38.21 -0.014,-56.58 -9.8139,-29.018 -32.4047,-54.838 -61.8142,-64.874 -11.3771,-3.496 -23.2679,-5.559 -35.1955,-5.356 z m -1413.9492,2.191 c -45.2811,0.12 -88.0467,34.667 -96.4258,79.405 -7.1695,34.383 5.3734,71.903 31.8185,95.041 108.8807,111.52 220.0454,220.784 331.4225,329.801 12.572,11.714 24.4537,24.351 37.7523,35.182 7.2358,4.159 14.6424,11.054 23.603,9.15 10.7483,0.07 22.4457,-0.516 31.5112,6.517 9.0695,0.558 17.6655,-5.5 26.6405,-7.209 40.4324,-13.186 70.6971,-54.777 67.2559,-97.742 -0.2022,-20.447 -5.488,-42.086 -20.8438,-56.561 -41.631,-46.995 -87.2413,-90.174 -131.2329,-135.319 -74.8121,-75.493 -150.9991,-149.604 -226.9899,-223.9 -9.3123,-9.513 -18.1905,-19.969 -30.9451,-24.934 -13.5482,-6.406 -28.5714,-9.739 -43.5664,-9.431 z m -352.5879,351.348 c -35.1771,2.485 -69.9586,21.702 -86.711,53.457 -17.0883,29.991 -16.7934,69.273 1.17,98.775 49.5942,54.443 102.5529,105.677 154.0115,158.33 71.9333,72.547 145.1825,143.529 218.5555,214.672 9.2127,9.355 18.4508,19.716 30.9447,24.53 23.4188,-0.67 46.807,1.209 70.1953,-0.682 4.4791,-0.896 6.4288,-5.947 11.1816,-6.734 35.752,-17.735 58.3007,-58.88 53.1758,-98.596 -2.1094,-17.735 -7.5819,-36.145 -20.8574,-48.799 -31.0474,-34.154 -64.3396,-66.182 -96.6379,-99.139 -94.8956,-95.333 -189.2214,-191.049 -287.4305,-282.92 -14.3639,-7.904 -31.1012,-12.896 -47.5976,-12.894 z m 2119.2109,2.445 c -27.0922,0.461 -53.3772,13.064 -71.2098,33.38 -85.1605,82.66 -169.5967,167.711 -253.1711,251.757 -37.2241,38.128 -75.5687,75.278 -111.3925,114.699 -15.5834,24.318 -17.8623,55.514 -10.7871,83.026 8.1145,24.409 26.7233,45.045 49.3418,57.005 9.0151,4.191 18.5176,9.44 28.1463,10.891 25.4026,0.27 54.291,1.158 74.5294,-16.908 72.8751,-68.871 143.2079,-139.956 214.3914,-210.535 47.9983,-48.076 97.262,-95.853 143.9915,-144.412 12.4784,-12.397 23.97,-26.082 30.7382,-42.512 6.9114,-14.784 7.1133,-30.586 6.7201,-46.295 -3.2773,-45.391 -43.0214,-84.984 -87.7708,-89.434 -4.4872,-0.532 -9.0094,-0.763 -13.5274,-0.662 z m -2472.041,353.131 c -39.3618,-0.453 -77.7965,24.558 -92.1069,61.455 -11.4321,28.347 -10.3618,62.534 5.8491,88.805 27.5931,32.432 58.848,61.483 88.4574,92.025 94.1275,94.268 187.7352,189.082 283.5305,281.66 8.7305,8.016 17.3489,16.911 29.1345,20.107 8.3753,3.492 17.6432,3.166 26.4679,4.885 46.8276,6.158 95.2607,-26.098 107.3237,-71.831 8.4775,-26.419 2.8279,-55.405 -10.0774,-79.385 -4.3251,-9.773 -14.185,-15.3 -20.8519,-23.329 -120.2088,-120.094 -238.6984,-241.696 -361.9586,-358.635 -10.4515,-9.262 -25.0655,-12.075 -38.4343,-14.616 -5.7369,-0.829 -11.5381,-1.208 -17.334,-1.141 z m 2826.4922,0.529 c -21.995,0.648 -45.5381,6.69 -60.7584,23.555 -58.7279,55.121 -114.8464,112.935 -172.0967,169.571 -64.6322,64.702 -130.2593,128.434 -193.8383,194.175 -22.8193,22.94 -28.6398,57.972 -21.9687,88.727 4.9237,22.626 19.6291,42.357 38.1601,55.867 10.6916,-6.473 23.9065,-2.641 33.0469,4.711 8.5204,5.232 16.7878,11.007 25.4629,15.906 12.5658,-1.347 25.1459,-3.813 37.6758,-4.789 7.8186,-7.71 20.5636,-9.097 27.0497,-18.597 116.6095,-117.277 234.3808,-233.319 350.0518,-351.465 11.9454,-12.811 26.223,-26.056 32.0157,-43.6 6.912,-16.588 5.7089,-34.996 4.5528,-52.52 -2.6519,-18.732 -13.222,-35.557 -25.2814,-49.742 -18.4142,-20.828 -46.4687,-32.108 -74.0722,-31.799 z m 353.2031,353.459 c -24.1715,-0.187 -48.4687,9.49 -64.689,27.655 -71.1549,67.973 -140.0352,138.823 -209.9946,208.253 -50.5117,50.452 -101.1412,100.801 -150.498,152.3912 -9.1406,9.1465 -18.373,20.539 -21.4258,33.9219 -13.0703,40.4994 2.9094,88.2402 38.1094,112.3066 29.6164,21.6511 71.5571,22.2436 103.4902,5.3457 12.6951,-6.798 21.4159,-18.6315 32.1055,-27.8705 93.3149,-90.4357 184.4436,-183.0909 276.3616,-274.9389 27.2262,-27.593 55.1133,-54.703 81.9275,-82.597 12.143,-23.078 20.4913,-49.922 13.7265,-75.98 -4.3848,-22.861 -17.4263,-43.533 -36.0371,-57.479 -16.8805,-14.088 -38.7129,-21.605 -60.6914,-21.017 -0.795,0 -1.5899,0 -2.3848,0 z m -3540.3476,0.707 c -24.5299,0.884 -48.4324,12.146 -64.6264,30.618 -15.2254,15.072 -26.9044,34.88 -27.3169,56.807 -2.4905,25.594 2.8559,53.095 20.5194,72.647 16.6795,19.393 35.6958,36.62 53.2539,55.201 108.2259,109.397 216.5414,218.4046 328.9258,323.6532 11.3681,6.8728 24.1834,12.642 37.7852,11.1205 12.4263,-0.5341 25.1263,1.6581 37.341,-0.4303 36.9419,-10.5111 68.5937,-43.2904 72.6726,-82.1902 0.3465,-13.2181 0.6499,-25.1744 -1.6679,-38.2364 -3.9109,-15.6452 -12.2063,-30.0037 -23.7326,-41.2638 -31.458,-34.1204 -64.8176,-66.174 -97.4156,-99.38 -90.0106,-90.232 -180.2366,-180.25 -270.3303,-270.399 -14.1134,-6.558 -26.6295,-18.706 -43.1719,-17.949 -7.4069,-0.318 -14.8251,-0.185 -22.2363,-0.198 z m -357.0137,353.4262 c -21.8423,0.189 -42.2772,10.7343 -57.2581,26.2357 -16.9298,15.5903 -30.6532,36.5406 -31.2478,60.2174 -1.8049,23.2325 1.2843,48.787 16.1944,67.5528 33.4914,36.5513 68.9999,71.0973 103.6052,106.5878 88.8189,89.7018 177.7021,179.1805 268.543,266.8968 10.4398,8.5653 21.451,17.8766 34.7766,21.3161 10.4035,0.4964 21.1456,-1.1368 31.3359,1.7363 36.0037,-0.7424 71.13,-22.0622 86.5723,-54.9199 8.0222,-14.7344 11.3423,-31.5487 10.0664,-48.2344 0.2848,-24.0195 -10.9086,-47.1252 -27.3848,-64.1718 -104.0164,-105.7703 -208.4651,-211.0724 -315.4933,-313.9002 -20.3456,-19.1475 -40.2915,-38.9329 -61.0081,-57.5516 -16.3985,-7.6879 -34.2186,-13.2799 -52.5396,-11.7867 -2.0541,0.01 -4.1085,-0.039 -6.1621,0.022 z m 4235.3144,3.6621 c -8.8068,-0.8302 -17.4034,0.5783 -25.1855,4.9043 -19.6215,8.4984 -32.2628,26.5027 -47.8013,40.3571 -111.8365,109.9836 -222.4458,221.2213 -331.9374,333.5368 -9.3713,10.3116 -20.537,19.9177 -24.3941,33.8737 -15.2866,40.315 -2.2783,91.0069 34.2754,115.3652 14.2045,-3.9056 26.2053,6.403 38.1316,12.2398 10.0713,6.2185 21.5535,11.8279 33.7258,9.102 9.3213,-1.9372 18.1215,-5.7112 27.0664,-8.8027 16.3357,-9.3352 28.876,-23.8481 42.7793,-36.2833 79.6416,-77.0542 157.0407,-156.3813 235.7418,-234.3885 39.1797,-39.3748 78.8834,-78.6084 116.6644,-119.34 13.8769,-16.2204 18.316,-38.7226 17.5723,-59.5937 -1.4242,-32.3076 -19.0506,-63.6147 -47.0723,-80.1836 -10.4062,-6.6462 -22.2362,-12.6063 -34.9726,-10.782 -11.5313,0 -23.0625,-0.011 -34.5938,-0.01 z m -2951.998,1016.3847 c -282.7962,282.8217 -565.5925,565.6433 -848.3887,848.4649 565.5569,565.3145 1130.7164,1131.209 1696.7578,1695.9297 562.8844,-561.4424 1124.6091,-1124.0434 1686.9253,-1686.0529 2.718,-4.4708 14.0157,-8.9413 6.3421,-13.4125 -564.396,-564.4515 -1128.8114,-1128.8834 -1693.2459,-1693.2963 -282.7969,282.789 -565.5937,565.5781 -848.3906,848.3671 z m -1631.8164,-667.5625 c -34.6451,0.5268 -65.3717,23.7029 -82.8929,52.3882 -12.9783,21.7179 -13.5544,48.7923 -8.4417,72.944 3.9274,18.5713 16.0439,33.6945 29.4752,46.4647 79.887,82.6691 161.601,163.5652 243.0338,244.711 42.0764,41.2203 83.6553,83.0448 127.2144,122.6805 5.9585,4.0703 12.0905,8.5739 19.5643,8.8038 36.7851,10.9916 79.8596,0 104.7422,-29.8359 15.7518,-17.9023 26.0725,-41.1924 24.9023,-65.3555 0.163,-18.3089 -4.5613,-36.7107 -14.3281,-52.2304 -49.3061,-53.8668 -102.5684,-104.7767 -154.0248,-156.9199 -74.542,-74.2068 -147.9912,-149.2008 -224.5031,-221.3248 -6.2534,-5.8236 -12.7294,-11.7451 -21.447,-13.269 -13.9923,-4.6422 -28.3344,-9.6352 -43.2946,-9.0567 z m 4953.9472,0.4786 c -23.8692,-0.3848 -48.7655,7.824 -64.7478,26.185 -90.5098,86.5707 -178.648,175.4315 -267.4437,263.8043 -33.4293,33.777 -67.4136,67.2874 -99.5174,102.0517 -26.1883,32.9603 -27.6482,83.0083 -2.6946,117.0799 18.5026,25.7871 49.2523,43.5927 81.2434,44.1623 22.0539,-0.5505 43.6184,-8.6858 62.039,-20.4336 87.174,-87.8293 175.2125,-174.8585 262.4657,-262.6333 34.9573,-35.5287 70.6296,-70.1241 103.9839,-106.9818 9.2992,-10.5948 18.6591,-21.9171 21.4059,-36.1545 4.5199,-20.8137 4.635,-43.3542 -2.7832,-63.5175 -10.8061,-26.5382 -33.2753,-48.3365 -60.0501,-58.4668 -10.8748,-3.7252 -22.4352,-5.1985 -33.9011,-5.0957 z M 1408.9004,-9288 c -46.1602,0.4188 -88.729,37.4947 -95.2344,83.2168 -2.6716,20.2503 -1.038,41.974 8.4629,60.3105 11.5513,16.4449 26.2863,30.4394 39.8027,45.2735 55.1126,56.6344 111.8593,112.6857 167.8186,168.8719 58.3914,58.4006 116.8071,116.7768 175.201,175.175 12.8257,-1.8468 23.0277,7.4706 34.2591,11.7663 11.0978,6.0829 23.287,10.8955 36.1901,9.4602 14.3433,-0.9622 27.5945,-7.6654 40.0918,-14.293 29.2195,-17.4375 50.0026,-50.2281 48.7544,-84.7986 0.802,-15.6159 -2.427,-31.2226 -9.7322,-45.0554 -3.3457,-8.7984 -7.6249,-17.3006 -15.2971,-23.1364 -123.2961,-123.1987 -246.5711,-246.4187 -369.8286,-369.656 -13.3689,-6.2934 -25.3562,-17.5543 -41.0352,-16.8692 -6.4783,-0.3181 -12.9691,-0.2514 -19.4531,-0.2656 z m 5659.1504,1.6582 c -21.5696,0.644 -44.4251,6.5057 -59.586,22.7852 -28.6329,25.788 -54.7759,53.1167 -82.602,80.1919 -89.9026,89.8672 -180.7461,178.8322 -269.1199,270.2245 -12.1065,13.2574 -25.8996,25.8787 -33.8015,42.23 -7.8135,17.1398 -6.7567,36.3649 -5.6387,54.67 4.7505,30.9515 26.6229,58.8429 55.7859,70.5266 10.2808,4.2192 20.2923,10.0498 31.1201,12.4368 25.3805,0.918 52.9945,-3.3036 72.0608,-21.5474 69.7808,-66.3336 137.3653,-134.8704 205.5211,-202.9603 56.4237,-56.9239 113.3288,-113.3796 169.641,-170.4069 9.6898,-18.2164 17.8982,-38.1698 16.4219,-59.2246 1.0706,-39.1957 -25.2376,-76.5962 -60.9043,-91.6895 -12.326,-4.9216 -25.624,-7.4244 -38.8984,-7.2363 z m 351.3984,352.4063 c -19.8214,1.0348 -39.651,7.8136 -55.7621,19.3104 -119.7107,119.9533 -240.746,238.4687 -358.9703,359.8927 -11.5525,12.4 -24.456,24.5467 -29.4551,41.3144 -14.3941,38.2792 -2.195,85.3816 30.836,110.0899 20.5954,15.2702 46.6042,25.1501 72.5234,21.5722 18.421,-2.4691 37.7626,-7.6763 50.9233,-21.6542 86.8176,-83.2771 170.8757,-169.1793 256.2009,-253.9765 39.0877,-39.6564 79.5228,-78.038 116.8797,-119.3634 11.1524,-12.5579 17.0437,-30.4998 18.6387,-47.4453 2.4724,-26.3179 -4.6588,-54.0394 -22.7793,-73.7969 -19.6713,-22.2821 -48.9447,-37.0439 -79.0352,-35.9433 z m -6369.5156,0.5898 c -27.0864,1.1757 -51.63217,16.67 -68.53015,37.2276 -16.12536,18.805 -23.85725,44.3689 -22.77064,68.9599 2.56191,30.2744 20.18546,57.2327 42.30229,77.2081 115.1175,116.5256 231.7518,231.4178 348.7215,346.0361 8.2775,7.6602 17.4603,15.2919 28.2243,18.9452 7.9594,-0.032 16.1848,-1.2148 24.1523,0.5762 4.9732,1.0187 8.9269,5.0153 14.2559,3.5371 26.0348,-1.1331 51.8605,-12.2116 68.7968,-32.366 16.8794,-18.3894 27.3149,-43.2426 25.4786,-68.4191 -0.5523,-21.2673 -4.7099,-44.7839 -21.7038,-59.3731 -88.5885,-93.5228 -180.5618,-184.4055 -271.9991,-275.374 -35.3944,-34.7911 -70.589,-69.8885 -107.3831,-103.1768 -15.3504,-8.1012 -32.3479,-13.9604 -49.9226,-13.6781 -3.2062,-0.077 -6.4153,-0.1763 -9.6223,-0.1031 z m 363.3262,1061.2383 c -23.552,-1.2846 -48.3782,6.8319 -64.5446,23.9333 -44.6463,41.143 -86.7376,84.9464 -130.0199,127.5003 -79.7319,79.647 -160.2222,158.5814 -237.87499,240.2715 -10.67949,11.6599 -17.11152,26.8173 -20.74804,42.0566 -0.78173,13.6053 -1.29919,27.5083 0.69726,41.0625 10.48889,42.1769 50.07497,76.1037 93.86717,77.5723 19.265,-0.2627 39.7295,-3.7839 55.6372,-15.2071 33.0313,-28.6229 62.8989,-60.6383 94.2391,-91.0542 96.8215,-96.4681 193.4862,-193.1467 290.0358,-289.854 9.0463,-17.6717 17.8468,-36.6221 16.3477,-56.9902 0.2819,-25.7991 -9.278,-51.7904 -27.8672,-69.9707 -17.8834,-18.8356 -43.8427,-29.5643 -69.7695,-29.3203 z m 5650.7011,0.4804 c -24.6055,0.7317 -48.3167,12.4058 -65.8828,29.2911 -21.0113,20.5716 -31.8455,50.8804 -27.8574,80.0976 1.3137,18.3491 7.9415,36.6664 21.3993,49.6026 39.4891,44.4253 82.6407,85.396 124.2372,127.8094 85.472,85.6282 170.939,170.6777 259.0666,253.5939 11.6698,6.5658 24.8875,12.2759 38.586,10.0058 7.9107,0.2877 16.5953,-0.3678 23.6836,4.127 43.8328,-6.1897 81.1719,-44.5893 84.2793,-89.0469 2.6587,-28.9696 -7.3633,-59.3067 -28.9942,-79.2207 -109.989,-112.2307 -221.2073,-222.9548 -334.0316,-332.3757 -16.2125,-14.878 -31.1428,-31.9001 -50.5211,-42.7376 -8.9791,-2.9232 -17.9593,-6.4118 -26.0879,-11.0175 -5.9601,-0.034 -11.9167,0.038 -17.877,-0.129 z m -363.2968,354.2383 c -36.2963,4.9681 -68.1828,31.9207 -79.4512,66.7442 -9.3022,24.5307 -6.7891,52.6194 5.344,75.731 3.7317,9.425 9.0046,18.0395 16.9873,24.4572 116.806,116.2617 232.4274,233.6545 350.4387,348.5535 11.6719,11.1747 23.4657,22.9712 38.9017,28.6973 8.4432,5.1484 18.6469,1.7257 27.9337,2.7585 11.1788,-0.1325 22.5338,0.464 33.6153,-0.385 8.956,-5.1298 19.4329,-6.7346 28.4043,-11.5821 28.0661,-16.8279 45.4211,-49.0522 44.8916,-81.6717 0.6495,-25.1696 -7.2398,-51.8066 -26.9513,-68.583 -90.8147,-93.1288 -183.0006,-185.08 -275.7802,-276.1066 -35.2621,-34.1783 -70.3174,-68.2278 -106.5781,-101.3184 -17.9676,-8.2536 -38.481,-7.0358 -57.7558,-7.2949 z m -4937.125,0.3282 c -21.4403,0.7838 -44.5,6.3172 -59.5293,22.6562 -48.6559,45.1322 -95.6282,93.0772 -143.1123,139.8322 -73.7295,73.4986 -147.9943,146.5933 -220.4674,221.1815 -21.6783,22.6825 -32.8971,55.6202 -26.6527,86.7188 4.3466,24.9357 18.9534,47.6689 39.2519,62.6601 11.4215,-3.6508 21.9107,2.9875 31.6678,7.9316 13.3184,6.5286 27.507,15.3203 42.9806,11.4063 14.1124,-4.0497 28.847,-8.1903 40.0176,-18.2422 35.602,-31.1523 68.3007,-65.0637 102.1631,-98.1409 78.8388,-78.7523 157.8552,-157.8015 235.9698,-236.9398 15.3172,-16.2291 31.557,-31.7329 45.7167,-48.9701 19.5837,-33.7983 17.1978,-78.9586 -6.3584,-110.257 -14.1157,-18.9206 -35.5496,-31.9774 -58.2881,-37.661 -7.6765,-1.5745 -15.5245,-2.2988 -23.3593,-2.1757 z m 4596.5722,355.205 c -20.7522,-0.9442 -41.5175,5.4617 -57.8874,18.2984 -20.2969,15.1205 -35.1196,38.4015 -38.6943,63.5321 -1.3565,22.0537 -1.4055,46.4635 12.2907,65.0289 25.3825,30.5762 54.1866,58.1148 81.7537,86.6924 76.1998,76.5437 152.6571,152.8312 228.4957,229.734 23.162,22.8113 45.7562,46.283 69.9772,67.9701 9.258,6.8301 19.1604,13.7632 30.3593,16.7187 14.8527,0.5226 29.7653,-0.3994 44.5789,1.527 12.0248,0.5183 23.3465,-5.8286 33.7708,-11.2633 28.918,-16.4661 49.0396,-47.8935 49.6211,-81.4316 0.615,-19.7418 -3.399,-40.5251 -14.7947,-56.9217 -30.5825,-35.2766 -64.77,-67.2696 -97.233,-100.7175 -94.2118,-94.6775 -188.7884,-188.9911 -283.1716,-283.4975 -14.934,-8.1723 -30.8165,-17.049 -48.4648,-15.584 -3.5333,-0.081 -7.0675,-0.1041 -10.6016,-0.086 z m -4270.0195,1.5157 c -17.2747,4.9794 -32.2783,15.6437 -44.0169,29.0892 -113.3346,111.6792 -226.0282,224.3918 -337.4599,338.1155 -10.6869,11.6413 -22.4659,22.6059 -31.4689,35.6067 -22.4067,41.1048 -10.0306,97.0341 27.4107,125.0978 10.8772,8.1033 22.7173,16.1255 35.9764,19.4814 12.7063,-0.043 25.4449,0.3279 38.1146,0.956 20.4387,-2.7645 40.0586,-12.0197 54.0609,-27.3302 70.0871,-66.339 137.3654,-135.5601 205.8585,-203.5263 53.3017,-53.4288 107.0962,-106.577 158.4719,-161.3651 13.936,-14.5401 19.7854,-35.0265 21.3066,-54.6817 3.0569,-41.2797 -23.0156,-82.1517 -61.0918,-97.8555 -12.0489,-6.0639 -25.8591,-2.6002 -38.7969,-3.5839 -9.4551,-0.012 -18.9101,-0.021 -28.3652,0 z m 3911.8008,347.625 c -5.5158,0.3534 -11.7976,-1.5033 -16.0543,2.9231 -19.2589,8.2518 -39.3328,16.8955 -52.9707,33.5349 -27.9581,32.285 -32.3637,83.2654 -8.3364,118.9912 12.6113,19.6547 31.2503,34.2985 46.9122,51.3591 105.6536,106.6483 212.7322,211.9797 319.8199,317.1 11.1801,10.4534 22.3026,23.2734 38.0355,26.2674 34.4062,9.1993 73.839,1.8448 100.2863,-22.7636 15.4969,-15.1036 27.8613,-35.1389 30.0125,-56.966 0.9117,-20.5491 1.9514,-42.6375 -9.2538,-60.8993 -9.8427,-15.1347 -23.2754,-27.5746 -35.1853,-41.0611 -54.0737,-56.2943 -109.9209,-110.8554 -165.0105,-166.1508 -64.3524,-63.9349 -128.8604,-127.8298 -195.6617,-189.1787 -3.6286,-2.8694 -7.6171,-3.9518 -12.1777,-2.4824 -5.708,-3.4338 -10.7772,-8.3644 -17.0762,-10.6465 -7.7661,0.1238 -15.5635,-0.1945 -23.3398,-0.027 z m -3531.752,3.2734 c -21.7638,0.7718 -44.7421,6.8907 -60.0366,23.2896 -36.9914,33.9718 -71.7487,70.2788 -107.5842,105.4503 -88.6966,88.6645 -177.6196,177.2059 -266.0218,266.098 -9.5201,18.514 -18.109,38.5554 -16.582,59.8379 0.2132,37.0119 23.5638,72.6516 57.4509,87.6094 13.2874,6.6356 27.9436,9.4707 42.346,12.3769 8.7514,2.8581 18.3254,-1.1562 27.0508,-3.0391 14.3237,-4.6247 29.0321,-10.6069 38.7328,-22.6343 117.4804,-117.663 236.2832,-234.0251 352.2497,-353.1895 10.1065,-10.8394 21.1789,-21.3844 26.5229,-35.5642 6.2371,-12.2612 8.1977,-26.0371 7.2831,-39.6314 0.9065,-15.3364 -2.9374,-30.447 -10.0405,-43.9727 -17.0451,-33.3879 -53.2497,-57.9431 -91.3711,-56.6309 z m 6814.8457,173.1445 c -23.4739,23.4831 -46.9479,46.9662 -70.4218,70.4492 353.3499,353.32 706.6799,706.6599 1059.9905,1060.0196 46.92,-46.9478 93.855,-93.8808 140.804,-140.7989 -353.307,-353.3596 -706.6347,-706.6995 -1059.982,-1060.0195 -23.4636,23.4499 -46.9271,46.8998 -70.3907,70.3496 z m -3644.9726,176.5489 c -5.134,-0.4398 -8.1138,4.7902 -13.1582,5.5742 -15.6552,6.1915 -31.5944,14.9109 -43.3438,27.7539 -16.5234,16.9572 -28.9773,39.9696 -27.0804,64.2577 0.3498,15.3802 -0.8409,31.5226 6.68,45.5802 8.3214,15.5391 21.385,27.9788 33.1423,40.9409 73.2806,75.6907 147.7498,150.0956 222.6295,224.0485 43.3265,42.9345 87.7596,84.6814 130.7868,127.911 11.3205,0.9965 20.5955,7.9355 31.1618,11.4501 15.8978,7.6957 34.2603,10.1428 51.389,5.2862 28.7605,-7.4749 54.0655,-27.8053 65.91,-55.2775 13.7255,-29.2658 12.8213,-65.3353 -4.6873,-92.8495 -11.8459,-18.6944 -29.5817,-32.5077 -44.3096,-48.775 -99.5176,-101.2761 -200.1898,-201.71 -301.9158,-300.8899 -16.186,-15.2559 -31.6552,-31.9208 -50.8723,-43.3956 -8.9709,-3.4413 -18.0521,-7.0321 -26.4902,-11.4649 -9.9383,-0.226 -19.8968,0.026 -29.8418,-0.1503 z m -2812.6992,0.3808 c -19.1289,0.9169 -39.7584,4.424 -54.9584,16.8214 -45.7531,41.8143 -88.8767,86.2492 -133.1444,129.8397 -77.4918,77.4257 -155.5819,154.4159 -231.5873,233.277 -9.8343,10.9699 -20.9958,21.4995 -27.3529,34.9486 -8.0693,21.6166 -8.2174,45.8706 -2.9024,68.1328 8.3523,27.3134 29.759,51.0214 56.7168,60.8477 19.9768,4.7213 40.99,7.4176 61.1312,1.954 13.6861,-2.7527 27.0919,-8.3378 36.7026,-18.7801 37.5762,-34.1857 72.5932,-70.6854 108.9302,-106.2811 88.5745,-88.4527 177.8004,-176.2989 264.5855,-266.5145 14.9124,-15.8131 19.8697,-38.6232 20.1681,-59.7748 -0.1312,-38.1355 -24.5834,-76.4794 -60.9785,-89.4941 -12.0783,-3.575 -24.7169,-5.2716 -37.3105,-4.9766 z m 351.7656,354.6484 c -28.8242,0.129 -56.7081,13.7819 -75.5402,35.4151 -109.0436,106.5178 -216.541,214.6127 -323.4062,323.3105 -14.708,15.5885 -30.2825,30.721 -42.3271,48.5205 -11.4241,20.7308 -12.7649,45.8557 -8.6015,68.7461 5.3325,22.3957 18.992,42.5121 37.2168,56.4551 11.1711,1.1181 20.4208,8.2215 30.8103,11.9127 17.301,8.8925 38.0339,10.3554 56.4944,4.3744 11.4408,-3.6665 22.2755,-9.1723 31.0156,-17.5781 46.9322,-42.4114 91.0378,-87.6367 135.956,-132.2609 80.0476,-80.1928 160.297,-160.1845 240.3877,-240.3348 13.1518,-24.2489 23.003,-52.484 16.2813,-80.2246 -9.2054,-42.6573 -48.7353,-77.2355 -92.7695,-78.25 -1.8382,-0.075 -3.678,-0.1098 -5.5176,-0.086 z m 2116.7226,0.3301 c -46.6103,1.788 -91.2472,40.7492 -93.1152,88.5371 -1.1612,18.3822 0.018,38.0338 8.9043,54.5039 17.8138,24.986 40.7729,45.6732 61.7223,67.9321 92.2177,93.4758 185.241,186.1532 277.6386,279.4502 14.1142,13.6943 27.4813,27.8943 42.8836,40.5428 8.2883,5.0071 14.9866,12.5893 23.9957,16.3288 12.3932,0.3336 25.0048,0.013 37.1617,1.2687 10.9382,-0.7973 22.3822,1.9469 32.9692,-1.3683 34.2921,-12.4754 61.8313,-44.9032 65.2346,-81.6417 1.1853,-19.6576 0.282,-41.0737 -10.4133,-58.2041 -21.1679,-27.8271 -47.1876,-51.4392 -71.2411,-76.6825 -104.431,-105.3811 -209.6407,-209.9868 -314.3927,-315.0478 -14.0535,-7.8086 -28.9002,-16.0157 -45.5078,-15.375 -5.2753,-0.2657 -10.559,-0.321 -15.8399,-0.2442 z m 3316.9551,140.3067 c -23.6654,23.6823 -47.3307,47.3646 -70.9961,71.0468 353.3347,353.3119 706.6693,706.6237 1060.0039,1059.9356 47.3125,-47.3008 94.625,-94.6016 141.9375,-141.9024 -353.3499,-353.32 -706.68,-706.6598 -1059.9902,-1060.0195 -23.6517,23.6465 -47.3034,47.293 -70.9551,70.9395 z m -3671.8594,211.9258 c -22.1047,-0.3197 -42.7316,10.5738 -59.289,24.4101 -20.1951,18.1195 -33.3469,44.5298 -33.0547,71.9238 -0.5463,23.9799 6.177,49.4396 24.4596,66.0375 61.0564,64.3878 124.6762,126.1129 187.1498,189.2263 61.3072,61.3431 122.6082,122.6925 183.9101,184.0409 10.111,4.9515 20.4684,9.9067 30.833,14.025 12.7294,0.3413 25.0229,1.8842 37.7315,1.4418 10.0328,0.3005 20.5772,1.1018 29.5234,-4.414 43.5678,-19.3539 69.8278,-72.8463 54.4871,-118.7511 -3.8755,-15.3646 -12.8101,-28.746 -24.2472,-39.526 -109.5407,-113.4348 -221.3679,-224.3114 -334.4345,-334.2764 -14.259,-13.4067 -28.0646,-28.0327 -43.6974,-39.9894 -4.0054,-2.6287 -7.9718,-5.6814 -13.058,-3.7609 -8.326,-2.808 -15.6027,-12.0488 -25.5069,-10.2922 -4.9353,-0.085 -9.8716,-0.034 -14.8068,-0.095 z m -1408.3613,0.1171 c -16.3723,0.8674 -33.6322,4.0069 -47.3519,13.4083 -26.1688,19.9976 -48.4341,44.3784 -72.2068,67.0417 -99.4156,98.7273 -198.5909,198.0614 -296.7811,298.1414 -11.7192,13.1247 -26.1612,25.1577 -30.8985,42.8188 -13.0402,38.6431 -0.2949,84.9666 32.543,109.791 12.7213,9.8997 27.6257,18.4674 43.8105,20.4125 18.0127,-0.4571 36.2692,1.4527 54.1192,-1.0043 3.8644,-2.6878 7.7293,-5.7293 12.3066,-7.5759 7.5703,-3.012 13.7435,-8.12 18.8532,-14.3568 118.7141,-119.4498 238.7791,-237.5715 356.2177,-358.2808 9.9404,-10.5615 20.7653,-21.1763 24.4166,-35.7562 13.8376,-40.2986 -0.7926,-88.864 -36.0851,-113.2744 -17.3003,-11.8103 -37.4814,-21.9112 -58.9434,-21.3653 z m 353.0781,354.2305 c -23.9068,0.36 -48.0972,9.3681 -64.3632,27.2988 -71.5679,67.7368 -140.2429,138.3103 -210.2519,207.7595 -51.7946,52.0534 -104.4951,103.5468 -154.1496,157.5012 -10.5298,10.7002 -18.335,24.0284 -20.7489,38.9718 -2.4281,14.0866 -1.887,28.6362 -0.1739,42.7851 7.7485,39.6227 43.6822,69.1297 82.1602,77.0781 27.4329,6.2409 57.9122,-2.4288 77.4751,-22.8081 46.8881,-42.2092 90.2941,-87.6085 135.3041,-132.1071 77.461,-77.9527 156.0139,-154.8518 231.9098,-234.3386 20.338,-19.8789 25.7056,-50.345 22.0649,-77.6251 -4.5497,-36.5087 -32.8503,-68.24 -67.4492,-79.6621 -10.255,-3.2446 -21.0106,-4.995 -31.7774,-4.8535 z m 717.5977,0.252 c -14.7886,1.2359 -29.0869,2.2707 -43.4561,5.4591 -34.0177,12.1752 -59.6757,44.3009 -64.5654,79.9862 -2.3764,25.0397 2.3402,51.6932 18.2542,71.8346 14.276,18.567 32.3116,33.7941 48.2497,50.8823 100.3056,101.2834 200.9813,202.504 303.6543,301.5155 11.5643,10.3997 22.4602,21.8659 35.2531,30.7045 12.1873,6.8985 25.9021,12.863 40.1946,11.1315 6.7113,0.1146 13.6108,-0.3358 20.191,1.1406 45.6677,-5.6071 84.3082,-46.6292 85.7637,-92.834 0.3991,-17.6762 -2.0752,-36.2529 -10.92,-51.793 -13.4673,-19.2016 -30.836,-35.2648 -46.7636,-52.3789 -81.0781,-83.286 -164.0125,-164.7364 -245.8881,-247.234 -30.2095,-29.921 -59.8889,-60.5963 -90.4292,-90.0465 -12.0102,-5.0984 -24.0481,-10.4718 -36.2355,-14.9402 -4.6758,-0.5058 -8.4928,-4.4635 -13.3027,-3.4277 z m 3337.8633,105.2089 c -23.6524,23.6485 -47.3047,47.2969 -70.9571,70.9454 353.3473,353.2035 706.2914,706.8216 1060.1875,1059.4472 47.3926,-46.985 94.5511,-94.2054 141.7227,-141.4121 -353.3294,-353.3118 -706.6589,-706.6237 -1059.9883,-1059.9355 -23.6549,23.6517 -47.3099,47.3034 -70.9648,70.955 z m 2419.4728,1655.5411 c -70.719,70.7155 -141.438,141.4309 -212.156,212.1464 188.673,188.5341 377.033,377.4025 566.113,565.4903 141.75,-140.8716 282.888,-282.4187 424.279,-423.6895 -188.691,-188.6998 -377.381,-377.3997 -566.072,-566.0996 -70.721,70.7175 -141.443,141.4349 -212.164,212.1524 z m -9152.4689,386.5546 c 0,133.3379 0,266.6758 0,400.0137 199.9323,0 399.8646,0 599.7969,0 0,-266.6751 0,-533.3502 0,-800.0254 -199.9323,0 -399.8646,0 -599.7969,0 0,133.3373 0,266.6745 0,400.0117 z m 1300.5879,0 c 0,133.3379 0,266.6758 0,400.0137 199.9153,0 399.8307,0 599.7461,0 -0.3379,-266.3372 -0.6758,-532.6745 -1.0137,-799.0117 -199.5774,-0.3572 -399.1549,-0.6682 -598.7324,-0.9434 0,133.3138 0,266.6276 0,399.9414 z m 6932.6992,532.67 c -70.7201,70.7168 -141.4401,141.4336 -212.1602,212.1504 188.6895,188.6998 377.3789,377.3997 566.0684,566.0996 141.4244,-141.4832 282.8666,-282.9481 424.3286,-424.3946 -188.672,-188.6887 -377.3619,-377.3586 -566.0708,-566.0097 -70.722,70.7181 -141.444,141.4362 -212.166,212.1543 z m -6559.1738,1665.6914 c 0,149.87107 0,299.74216 0,449.61326 300.4388,0 600.8776,0 901.3164,0 0,-299.70899 0,-599.41796 0,-899.12696 -300.4388,0 -600.8776,0 -901.3164,0 0,149.8379 0,299.6758 0,449.5137 z m 4000.7675,0 c 0,149.87107 0,299.74216 0,449.61326 299.6888,0 599.3776,0 899.0664,0 0,-299.70899 0,-599.41796 0,-899.12696 -299.6888,0 -599.3776,0 -899.0664,0 0,149.8379 0,299.6758 0,449.5137 z m 2088.1387,174.40427 c 0,99.9694 0,199.9388 0,299.90821 266.6869,-10e-6 533.3737,0 800.0606,0 0,-199.93946 0,-399.87891 0,-599.81838 -266.6869,0 -533.3737,0 -800.0606,0 0,99.9701 0,199.94012 0,299.91017 z M 2882.1934,548.05078 c 0,149.83789 0,299.67578 0,449.51367 300.4388,0 600.8776,0 901.3164,0 0,-299.70898 0,-599.41797 0,-899.12695 -300.4388,0 -600.8776,0 -901.3164,0 0,149.87109 0,299.74219 0,449.61328 z m 4000.7675,0 c 0,149.83789 0,299.67578 0,449.51367 299.6888,0 599.3776,0 899.0664,0 0,-299.70898 0,-599.41797 0,-899.12695 -299.6888,0 -599.3776,0 -899.0664,0 0,149.87109 0,299.74219 0,449.61328 z M 8971.0996,423.14844 c 0,99.97005 0,199.9401 0,299.91015 266.6869,0 533.3737,0 800.0606,0 0,-199.9401 0,-399.8802 0,-599.82031 -266.6869,0 -533.3737,0 -800.0606,0 0,99.97005 0,199.94011 0,299.91016 z"
       style="fill:#000000"
       inkscape:connector-curvature="0" />
  </g>
</svg>
