<?xml version="1.0" encoding="UTF-8" standalone="no"?>
<svg
   xmlns:dc="http://purl.org/dc/elements/1.1/"
   xmlns:cc="http://creativecommons.org/ns#"
   xmlns:rdf="http://www.w3.org/1999/02/22-rdf-syntax-ns#"
   xmlns:svg="http://www.w3.org/2000/svg"
   xmlns="http://www.w3.org/2000/svg"
   xmlns:sodipodi="http://sodipodi.sourceforge.net/DTD/sodipodi-0.dtd"
   xmlns:inkscape="http://www.inkscape.org/namespaces/inkscape"
   version="1.1"
   id="svg4385"
   viewBox="0 0 744.09448819 1052.3622047"
   height="297mm"
   width="210mm"
   inkscape:version="0.91 r13725"
   sodipodi:docname="traced_25um_inset.svg">
  <sodipodi:namedview
     pagecolor="#ffffff"
     bordercolor="#666666"
     borderopacity="1"
     objecttolerance="10"
     gridtolerance="10"
     guidetolerance="10"
     inkscape:pageopacity="0"
     inkscape:pageshadow="2"
     inkscape:window-width="1286"
     inkscape:window-height="749"
     id="namedview7"
     showgrid="false"
     inkscape:zoom="0.013186721"
     inkscape:cx="5604.825"
     inkscape:cy="20770.359"
     inkscape:window-x="0"
     inkscape:window-y="0"
     inkscape:window-maximized="0"
     inkscape:current-layer="svg4385" />
  <defs
     id="defs4387" />
  <metadata
     id="metadata4390">
    <rdf:RDF>
      <cc:Work
         rdf:about="">
        <dc:format>image/svg+xml</dc:format>
        <dc:type
           rdf:resource="http://purl.org/dc/dcmitype/StillImage" />
        <dc:title />
      </cc:Work>
    </rdf:RDF>
  </metadata>
  <g
     id="layer1"
     transform="matrix(9.9999999e-4,0,0,9.9999999e-4,-0.03550391,1051.3396)">
    <path
       id="path4998"
       d="m 3608.7422,-39708.338 c 0,250.04 0,500.081 0,750.121 482.8665,0 965.7331,0 1448.5996,0 0,-500.114 0,-1000.228 0,-1500.342 -482.8665,0 -965.7331,0 -1448.5996,0 0,250.074 0,500.148 0,750.221 z m 1998.1348,0 c 0,250.04 0,500.081 0,750.121 483.6171,0 967.2343,0 1450.8515,0 0,-500.114 0,-1000.228 0,-1500.342 -483.6172,0 -967.2344,0 -1450.8515,0 0,250.074 0,500.148 0,750.221 z m -274.1309,2049.455 c -58.265,0.175 -116.53,0.35 -174.7949,0.526 -0.3652,433.003 -0.7285,866.007 -1.0899,1299.011 116.8373,0 233.6745,0 350.5117,0 0,-433.353 0,-866.707 0,-1300.06 -58.2089,0.174 -116.4179,0.349 -174.6269,0.523 z m 650.2949,0 c -58.2656,0.175 -116.5312,0.35 -174.7969,0.526 -0.3631,433.003 -0.7264,866.007 -1.0898,1299.011 116.8379,0 233.6758,0 350.5137,0 0,-433.353 0,-866.707 0,-1300.06 -58.209,0.174 -116.418,0.349 -174.627,0.523 z m -2124.5312,649.52 c 0,216.672 0,433.345 0,650.017 116.0918,0 232.1836,0 348.2754,0 0,-433.345 0,-866.691 0,-1300.037 -116.0918,0 -232.1836,0 -348.2754,0 0,216.673 0,433.347 0,650.02 z m 650.2929,0 c 0,216.672 0,433.345 0,650.017 116.0925,0 232.1849,0 348.2774,0 0,-433.345 0,-866.691 0,-1300.037 -116.0925,0 -232.1849,0 -348.2774,0 0,216.673 0,433.347 0,650.02 z m 1949.1895,0.621 c -0.1817,216.465 -0.3633,432.931 -0.5449,649.396 116.8333,0 233.6666,0 350.5,0 -0.363,-432.979 -0.7269,-865.958 -1.0918,-1298.937 -116.1062,0 -232.2123,0 -348.3184,0 -0.1816,216.513 -0.3633,433.027 -0.5449,649.541 z m 3122.6504,2572.447 c 0,108.303 0,216.607 0,324.91 283.3535,0 566.7074,0 850.0604,0 0,-216.606 0,-433.212 0,-649.818 -283.353,0 -566.7069,0 -850.0604,0 0,108.303 0,216.605 0,324.908 z m -5989.9004,460.908 c 0.1084,208.842 -0.028,417.685 1.1094,626.524 371.606,-0.05 743.2122,0.345 1114.8183,0.199 111.6406,0 223.2813,0 334.9219,0 0,-416.845 0,-833.69 0,-1250.535 -483.6165,0 -967.2331,0 -1450.8496,0 0,207.937 0,415.875 0,623.812 z m -2832.93947,128.608 c 0,199.806 0,399.612 0,599.418 389.86067,0 779.72137,0 1169.58207,0 0,-399.612 0,-799.223 0,-1198.834 -389.8607,0 -779.7214,0 -1169.58207,0 0,199.805 0,399.61 0,599.416 z m 7324.24027,222.806 c 0,108.271 0,216.541 0,324.811 283.3528,0 566.7057,0 850.0586,0 0,-216.574 0,-433.147 0,-649.721 -283.3529,0 -566.7058,0 -850.0586,0 0,108.304 0,216.607 0,324.91 z m -2234.4004,355.51 c 0,108.303 0,216.606 0,324.908 283.3535,0 566.707,0 850.0605,0 0,-216.606 0,-433.212 0,-649.818 -283.3535,0 -566.707,0 -850.0605,0 0,108.303 0,216.607 0,324.91 z m 3733.0019,131.197 c 0.069,108.669 0.045,217.716 0.9668,326.147 283.0305,0.18 566.0607,0.363 849.0917,0.269 0,-216.606 0,-433.213 0,-649.82 -283.353,0 -566.7056,0 -850.0585,0 0,107.802 0,215.603 0,323.404 z m -5263.8965,437.717 c -241.6341,0.194 -483.2682,0.387 -724.9023,0.58 -0.3632,416.485 -0.7265,832.97 -1.0898,1249.455 483.6119,0 967.2239,0 1450.8359,0 0,-416.839 0,-833.678 0,-1250.517 -241.6146,0.161 -483.2292,0.321 -724.8438,0.482 z m 3765.295,376.111 c 0,108.304 0,216.607 0,324.911 283.3528,0 566.7057,0 850.0586,0 0,-216.607 0,-433.214 0,-649.821 -283.3529,0 -566.7058,0 -850.0586,0 0,108.304 0,216.607 0,324.91 z m -2234.4004,355.51 c 0,108.303 0,216.606 0,324.908 283.3535,0 566.707,0 850.0605,0 0,-216.606 0,-433.212 0,-649.818 -283.3535,0 -566.707,0 -850.0605,0 0,108.303 0,216.607 0,324.91 z m -5089.83987,1071.129 c 0,199.806 0,399.611 0,599.416 389.86067,0 779.72137,0 1169.58207,0 0,-399.611 0,-799.222 0,-1198.834 -389.8607,0 -779.7214,0 -1169.58207,0 0,199.806 0,399.612 0,599.418 z m 2828.43947,652.313 c 0.069,108.667 0.046,217.714 0.9668,326.144 283.0311,0.184 566.0624,0.361 849.0937,0.27 0,-216.606 0,-433.213 0,-649.819 -283.3535,0 -566.707,0 -850.0605,0 0,107.802 0,215.603 0,323.405 z m 3687.4199,-175.401 c -1.0445,96.513 -0.4807,193.618 -0.448,290.387 0.081,16.08 0.1365,31.936 0.5047,47.785 65.7599,0.333 131.5207,0.218 197.2812,0.238 1.3082,-90.266 0.5478,-180.996 0.6412,-271.482 -0.1022,-23.913 -0.1001,-47.289 -0.6549,-71.154 -65.7388,-0.11 -131.4778,-0.06 -197.2168,-0.07 -0.036,1.434 -0.072,2.868 -0.1074,4.301 z m 500.9043,-2.777 c -1.3184,93.318 -0.635,187.164 -0.6465,280.742 0.1003,20.83 0.1335,41.179 0.6504,62.037 65.7074,0.123 131.5543,0.169 197.1738,0.05 1.2234,-81.114 0.4806,-163.533 0.6657,-245.201 -0.088,-32.976 0.049,-66.16 -0.6481,-98.657 -65.7197,-0.277 -131.4401,-0.182 -197.1601,-0.199 l -0.029,1 -0.01,0.223 z m -1001.418,1.252 c -1.2716,88.597 -0.4876,177.727 -0.6369,266.57 0.083,24.355 0.054,48.381 0.5783,72.631 66.3692,0.05 132.7383,0.03 199.1075,0.03 -0.2338,-111.145 0.5468,-222.686 -0.6117,-333.536 2.3694,-8.144 -5.8249,-5.518 -11.1344,-5.816 -62.3793,0.02 -125.2072,-0.283 -187.3028,0.116 z m 1500.8418,2.865 c -1.2996,101.442 -0.4161,203.399 -0.6836,305.07 0,11.034 0,22.067 0,33.1 5.7842,0.111 9.2387,2.573 16.1894,1.557 60.9529,0.219 121.9063,0.122 182.8595,0.144 1.2879,-87.33 0.488,-175.212 0.6533,-262.801 -0.094,-26.394 -0.026,-52.404 -0.6377,-78.675 -66.1107,-0.05 -132.2214,-0.03 -198.332,-0.04 l -0.03,1 -0.019,0.641 z m 498.8496,169.865 c 0,56.036 0,112.071 0,168.106 66.5882,0.284 133.1771,0.179 199.7657,0.199 0,-112.116 0,-224.233 0,-336.35 -66.5883,-0.226 -133.1771,-0.145 -199.7657,-0.16 0,56.069 0,112.137 0,168.205 z m -2875.2812,703.731 c -0.5987,63.493 -0.7155,127.003 0.1641,190.494 116.4856,0 232.9713,0 349.457,0 0.7296,-63.935 0.6926,-127.888 0,-191.824 -116.5286,-0.118 -233.0572,-0.07 -349.5859,-0.08 l -0.026,0.999 -0.011,0.413 z m 3600.3418,1.939 c -0.7542,62.312 -0.765,124.919 0.012,186.955 116.4701,0 232.9401,0 349.4102,0 0.9256,-60.055 0.6955,-121.06 0.2171,-181.478 1.1213,-6.664 -0.896,-10.206 -8.1644,-8.328 -113.8001,0 -227.6003,0 -341.4004,0 -0.025,0.95 -0.049,1.901 -0.074,2.851 z m -5486.0332,274.057 c -141.5137,0.157 -283.0274,0.315 -424.541,0.473 -0.3527,216.248 -0.7056,432.497 -1.0586,648.746 283.345,0 566.6901,0 850.0351,0 0,-216.596 0,-433.192 0,-649.787 -141.4785,0.189 -282.957,0.378 -424.4355,0.568 z m 3086.8594,814.123 c 0,258.307 0,516.615 0,774.922 516.6152,0 1033.2304,0 1549.8457,0 -0.3642,-516.255 -0.7295,-1032.509 -1.0957,-1548.764 -516.25,-0.406 -1032.5,-0.762 -1548.75,-1.066 0,258.302 0,516.605 0,774.908 z m -1201.168,-590.557 c -0.6014,63.377 -0.7086,126.772 0.1562,190.147 116.4974,0 232.9948,0 349.4922,0 0.7541,-62.149 0.5908,-124.313 0.1407,-186.465 2.4594,-7.966 -7.2587,-4.247 -12.1055,-5.043 -112.5495,0 -225.099,0 -337.6484,0 l -0.026,1 -0.01,0.361 z m 3600.2402,-0.01 c -0.5989,63.388 -0.7084,127.046 0.1582,190.16 116.4968,0 232.9935,0 349.4903,0 0.7354,-62.793 0.6486,-126.37 0.083,-189.464 -1.4668,-4.655 -11.2787,-0.769 -16.0474,-2.044 -111.2161,0 -222.4323,0 -333.6484,0 l -0.026,1 -0.01,0.348 z m 45.545,494.041 c -15.1301,0.05 -30.1544,0.1 -45.1426,0.277 -1.4567,46.252 -0.5281,93.306 -0.7596,140.107 0.041,16.803 0.065,33.606 0.3494,50.407 116.5391,0.05 233.0781,0.04 349.6172,0.04 0.8655,-58.303 0.5966,-117.651 0.2383,-175.291 -1.5761,-4.444 3.0594,-15.278 -3.2656,-14.929 -100.3458,-0.121 -200.691,-0.855 -301.0371,-0.612 z m -3646.1954,99.121 c 0.072,32.494 -0.136,64.994 0.5821,97.482 3.1524,3.592 9.0912,3.321 15.6445,3.028 111.265,0 222.5299,0 333.7949,0 0.8655,-58.303 0.5966,-117.652 0.2383,-175.291 -1.5759,-4.445 3.0588,-15.277 -3.2656,-14.929 -115.6645,-0.352 -231.329,-0.619 -346.9942,-0.486 0,30.066 0,60.131 0,90.196 z m 0.5078,407.095 c -0.7158,61.843 -0.8265,123.927 0.01,185.553 -0.768,6.287 9.0156,1.656 13.0025,3.043 112.1696,0.303 224.3396,0.395 336.5097,0.332 0.7116,-63.853 0.6792,-127.724 -0.047,-191.578 -116.4674,-0.181 -232.9349,-0.117 -349.4024,-0.129 -0.024,0.927 -0.048,1.853 -0.072,2.779 z m 3600.1446,1.204 c -0.6112,62.563 -0.6477,125.92 0.01,188.785 116.5378,0.05 233.0756,0.04 349.6133,0.04 0.7099,-63.675 0.6669,-127.674 -0.02,-191.069 -116.5156,-0.05 -233.0313,-0.04 -349.5469,-0.04 -0.019,0.761 -0.038,1.521 -0.057,2.282 z M 1894.127,-27362.2 c 0,141.67 0,283.341 0,425.012 216.5989,0 433.1979,0 649.7968,0 0,-283.342 0,-566.684 0,-850.026 -216.5989,0 -433.1979,0 -649.7968,0 0,141.671 0,283.343 0,425.014 z m 1300.5878,0 c 0,141.67 0,283.341 0,425.012 216.5925,0 433.1849,0 649.7774,0 -0.3582,-282.989 -0.7163,-565.978 -1.0742,-848.967 -216.2343,-0.39 -432.4687,-0.731 -648.7032,-1.024 0,141.66 0,283.319 0,424.979 z m 2702.9414,-183.317 c -0.7687,61.9 -0.7018,123.816 -0.1191,185.717 116.7018,0 233.4037,0 350.1055,0 -0.1664,-62.831 0.3965,-125.975 -0.4727,-188.523 -116.4785,-0.121 -232.957,-0.07 -349.4355,-0.08 -0.026,0.963 -0.052,1.926 -0.078,2.888 z m 3600.2383,0.108 c -0.7419,62.659 -0.7573,125.336 -0.057,187.996 116.5276,0.264 233.0645,0.04 349.5957,0.113 0.707,-63.668 0.6663,-127.354 -0.018,-191.023 -116.4804,-0.121 -232.9609,-0.07 -349.4414,-0.08 -0.027,0.998 -0.053,1.997 -0.08,2.996 z m -1723.3281,721.486 c -1.1167,63.345 -0.6314,128.712 -0.7638,192.951 0.1279,50.349 -0.2429,100.632 0.797,150.758 3.5224,3.054 9.7061,2.476 15.9492,2.387 60.1589,-0.255 120.4085,0.815 180.3522,-0.779 4.1519,-1.573 1.1198,-10.11 2.0802,-14.53 0.4028,-106.102 0.1639,-212.497 -0.8386,-318.371 -0.079,-4.22 -0.1644,-9.017 -0.3028,-13.48 -65.745,-0.278 -131.4908,-0.183 -197.2363,-0.199 l -0.029,0.999 -0.01,0.264 z m 998.9531,0.67 c -1.1726,79.919 -0.4948,161.47 -0.6569,242.057 0.082,31.975 -0.029,63.789 0.5944,95.584 66.3698,0.05 132.7396,0.03 199.1094,0.04 -0.2337,-111.141 0.5465,-222.678 -0.6116,-333.525 2.3691,-8.147 -5.8153,-5.535 -11.1345,-5.828 -62.4166,-0.09 -124.8333,-0.05 -187.25,-0.06 l -0.029,0.999 -0.021,0.735 z m -1500.9843,3.469 c -0.7529,95.556 0.1322,191.703 0.4519,287.498 0.122,15.811 0.2296,31.915 0.6223,47.91 66.0126,0.283 132.026,0.18 198.039,0.199 -0.203,-110.216 0.4785,-221.272 -0.5449,-330.933 0.2524,-5.486 0.9668,-11.494 -6.6836,-8.944 -63.9282,-0.199 -127.8567,-0.113 -191.7851,-0.132 -0.033,1.467 -0.066,2.934 -0.1,4.402 z m -499.3868,-2.918 c -1.2713,88.612 -0.4878,177.757 -0.6369,266.615 0.084,24.337 0.054,48.345 0.5783,72.576 66.3692,0.05 132.7383,0.03 199.1075,0.03 -0.2337,-111.14 0.5465,-222.677 -0.6116,-333.524 2.369,-8.148 -5.8153,-5.535 -11.1345,-5.828 -62.3762,0.03 -125.2267,-0.295 -187.3028,0.126 z m 1500.8418,2.906 c -1.2997,101.459 -0.416,203.433 -0.6836,305.121 0,11 0,21.999 0,32.998 5.8027,0.107 9.2002,2.63 16.1895,1.582 60.9012,0.07 122.2462,0.33 182.8672,-0.05 1.2733,-87.92 0.4864,-176.395 0.6412,-264.573 -0.092,-25.748 -0.035,-51.096 -0.6334,-76.728 -66.11,-0.05 -132.2201,-0.03 -198.3301,-0.04 l -0.03,0.999 -0.021,0.692 z m -7918.96481,1466.051 c 0,241.406 0,482.812 0,724.219 416.11198,0 832.22391,0 1248.33591,0 0,-482.847 0,-965.693 0,-1448.539 -416.112,0 -832.22393,0 -1248.33591,0 0,241.44 0,482.88 0,724.32 z m 1899.12691,0 c 0,241.406 0,482.812 0,724.219 416.862,0 833.724,0 1250.586,0 0,-482.847 0,-965.693 0,-1448.539 -416.862,0 -833.724,0 -1250.586,0 0,241.44 0,482.88 0,724.32 z M 348.27539,-23301.69 c 0,158.204 0,316.408 0,474.613 149.8444,0 299.6888,0 449.5332,0 0,-316.376 0,-632.751 0,-949.127 -149.8444,0 -299.6888,0 -449.5332,0 0,158.171 0,316.342 0,474.514 z m 1899.12691,0 c 0,158.204 0,316.408 0,474.613 149.8444,0 299.6888,0 449.5332,0 0,-316.376 0,-632.751 0,-949.127 -149.8444,0 -299.6888,0 -449.5332,0 0,158.171 0,316.342 0,474.514 z m 3601.2676,-99.039 c -12.6576,6.697 -24.914,15.842 -30.7871,29.423 -7.3122,14.31 -3.9905,30.77 -5.088,46.17 -1.4415,184.698 -0.54,370.048 -0.2314,554.996 0.5215,58.885 -0.3358,117.598 2.0811,176.381 0.2822,11.997 10.7276,20.73 19.1914,27.881 9.4502,6.745 19.9925,13.099 31.0957,16.088 101.3621,0.333 202.7242,-0.161 304.086,-0.361 9.2954,-7.754 21.5979,-11.145 29.4433,-20.791 7.3277,-8.034 13.9106,-18.216 12.084,-29.545 0,-254.675 0,-509.349 0,-764.024 -5.4491,-14.374 -17.1027,-24.998 -30.1681,-32.492 -6.3009,-2.668 -10.3821,-10.334 -17.9569,-8.49 -102.5332,0 -205.0664,0 -307.5996,0 -2.0501,1.588 -4.1002,3.176 -6.1504,4.764 z m 801.4453,0.148 c -10.0842,5.742 -21.1712,11.219 -27.5724,21.511 -4.2344,7.207 -10.4135,14.332 -8.744,23.227 0,254.966 0,509.931 0,764.897 6.0347,14.706 17.5824,26.615 32.1231,33.047 91.2395,0.926 182.7118,0 274.0387,-0.03 16.0978,-0.04 32.1955,-0.08 48.2933,-0.119 7.9849,-9.025 21.063,-10.925 28.9609,-20.265 5.8101,-7.121 12.3707,-14.798 12.1946,-24.59 3.6012,-44.227 2.5217,-88.479 3.1025,-132.701 0.1911,-176.502 0.3825,-353.005 -0.1321,-529.506 -0.6999,-36.295 0.4493,-73.134 -3.5478,-109.457 -2.049,-12.887 -13.5364,-21.606 -23.8368,-28.292 -6.1277,-4.749 -14.7267,-1.276 -21.962,-2.337 -102.3607,0 -204.7214,0 -307.082,0 -1.9453,1.537 -3.8907,3.075 -5.836,4.613 z m 1595.9239,2.645 c -12.4994,5.459 -23.5739,14.797 -28.7989,27.691 -6.1626,9.581 -2.7441,21.235 -3.6132,31.961 0,248.532 0,497.065 0,745.598 5.5492,13.915 15.1669,26.328 28.8183,33.044 5.5202,4.313 12.11,4.616 18.789,4.206 102.6746,0.353 205.3491,-0.255 308.0235,-0.413 9.3456,-8.011 21.5339,-12.295 29.2874,-22.302 7.0488,-8.47 14.4051,-18.666 12.8593,-30.229 0.1515,-229.848 1.1982,-459.698 0.4915,-689.547 -0.4548,-23.604 0.243,-47.456 -2.0171,-71.105 -3.8321,-14.775 -14.0214,-28.753 -28.1758,-34.662 -109.028,0 -218.056,0 -327.084,0 -2.86,1.919 -5.72,3.838 -8.58,5.758 z m -720.9043,-5.514 c -25.9649,0.584 -52.2507,-0.971 -77.9414,3.474 -8.6565,2.857 -15.3147,9.952 -21.9082,15.971 -5.4066,7.446 -9.4537,16.152 -12.6973,24.602 0,254.671 0,509.342 0,764.013 5.5201,14.313 14.7275,27.582 28.6435,34.782 9.0844,4.314 17.8428,11.715 28.4463,10.16 91.4906,0.08 183.2075,1.133 274.475,-0.36 12.8409,-1.07 26.6563,0.501 38.6676,-4.906 12.5638,-7.269 22.6805,-19.524 27.5703,-33.047 0,-257.771 0,-515.541 0,-773.312 -6.5716,-19.492 -25.9509,-29.147 -41.5488,-40.356 -81.2358,-0.283 -162.4711,-0.856 -243.707,-1.021 z m -591.4668,1696.607 c -93.2379,0.231 -186.4753,0.645 -279.7129,0.963 -9.054,8.044 -21.1143,12.278 -28.5508,22.291 -6.3266,8.166 -13.2512,17.622 -11.627,28.479 0,254.264 0,508.528 0,762.793 3.9436,10.447 10.3489,20.022 19.6289,26.445 16.2013,-3.902 33.0913,-1.524 49.5899,-2.203 99.5245,0.514 199.0981,0.557 298.5937,0.377 14.5243,-7.815 25.59,-22.181 30.0352,-37.758 0,-255.053 0,-510.107 0,-765.16 -5.3022,-13.795 -15.0502,-25.448 -27.6289,-33.186 -6.0572,-5.435 -14.7944,-2.047 -22.1543,-3.047 -9.3913,-0.02 -18.7826,0 -28.1738,0 z m -1082.5254,6.93 c -6.3271,5.824 -15.4472,7.961 -21.4238,14.516 -10.5959,9.633 -17.0709,23.793 -15.9423,38.214 -2.4746,120.558 -2.0972,241.489 -2.3686,362.307 0.2101,126.141 -0.1372,252.441 2.2786,378.315 -0.2972,10.418 0.7868,21.115 7.001,29.871 7.7123,12.318 20.2511,22.348 34.3496,25.699 106.1982,0.06 212.396,-0.434 318.5938,-0.709 10.7687,-7.561 23.4533,-13.583 29.9746,-25.721 4.7855,-8.587 9.5349,-17.889 8.0571,-28.008 -0.3808,-252.224 -0.7625,-504.449 -1.145,-756.673 -5.4856,-15.078 -17.3055,-26.595 -30.7559,-34.821 -4.4536,-4.079 -8.9125,-7.479 -15.3281,-5.926 -103.4225,0 -206.8451,0 -310.2676,0 -1.0078,0.979 -2.0156,1.957 -3.0234,2.936 z m 1598.1113,2.75 c -7.4014,5.225 -15.9851,9.218 -21.9121,16.467 -8.9112,9.659 -16.4167,22.275 -14.6875,35.836 0,251.016 0,502.032 0,753.049 4.6185,16.181 17.5747,27.929 31.3997,36.58 7.6106,4.074 14.4458,11.301 23.7233,9.481 101.1746,-0.189 202.3489,-0.552 303.5235,-0.749 7.2942,-8.343 19.0975,-10.897 26.0722,-19.799 5.597,-6.315 9.9416,-14.021 13.086,-21.648 0,-257.47 0,-514.939 0,-772.408 -5.4164,-16.084 -18.8353,-27.275 -32.748,-35.946 -3.9504,-5.683 -10.3463,-4.658 -16.4083,-4.549 -102.6341,0 -205.2682,0 -307.9023,0 -1.3822,1.229 -2.7643,2.457 -4.1465,3.686 z m 793.6055,-0.676 c -13.5762,7.635 -25.3727,20.511 -29.2266,35.651 0,256.541 0,513.083 0,769.625 6.3161,17.521 21.5092,29.671 37.7813,37.589 5.5271,3.715 11.6689,4.892 18.2558,4.121 100.754,0.37 201.508,0 302.2617,-0.246 6.4658,-7.69 16.9612,-10.277 23.3985,-18.205 7.3527,-7.619 13.7646,-17.074 16.0976,-27.345 0,-255.123 0,-510.245 0,-765.368 -5.2963,-13.759 -14.9856,-25.413 -27.5254,-33.156 -5.8593,-5.052 -14.2492,-1.612 -21.3066,-2.636 -106.5779,-0.05 -213.1626,-0.05 -319.7363,-0.03 z m -7894.58401,799.014 c 0,158.521 0,317.042 0,475.562 149.47862,-0.282 298.95713,-0.612 448.43555,-0.988 0.35967,-316.763 0.71839,-633.526 1.07617,-950.289 -149.83724,0 -299.67448,0 -449.51172,0 0,158.572 0,317.143 0,475.715 z m 949.56251,0 c 0,158.538 0,317.075 0,475.613 149.845,0 299.6901,0 449.5351,0 0,-317.109 0,-634.219 0,-951.328 -149.845,0 -299.6901,0 -449.5351,0 0,158.572 0,317.143 0,475.715 z m 949.5644,0 c 0,158.538 0,317.075 0,475.613 149.8444,0 299.6888,0 449.5332,0 0,-317.109 0,-634.219 0,-951.328 -149.8444,0 -299.6888,0 -449.5332,0 0,158.572 0,317.143 0,475.715 z M 35.503906,-18730.869 c 0,208.432 0,416.864 0,625.297 483.248664,-0.405 966.497394,-0.759 1449.746094,-1.063 0.3633,-416.484 0.7265,-832.969 1.0898,-1249.453 -483.6119,0 -967.22391,0 -1450.835894,0 0,208.406 0,416.813 0,625.219 z m 2409.910194,356.709 c 0,191.538 0,383.077 0,574.615 383.86,0 767.72,0 1151.58,0 0,-383.111 0,-766.221 0,-1149.332 -383.86,0 -767.72,0 -1151.58,0 0,191.572 0,383.145 0,574.717 z m 1651.6113,0 c 0,191.538 0,383.077 0,574.615 383.11,0 766.22,0 1149.3301,0 0,-383.111 0,-766.221 0,-1149.332 -383.1101,0 -766.2201,0 -1149.3301,0 0,191.572 0,383.145 0,574.717 z m 1651.6113,0 c 0,191.538 0,383.077 0,574.615 383.11,0 766.2201,0 1149.3301,0 0,-383.111 0,-766.221 0,-1149.332 -383.11,0 -766.2201,0 -1149.3301,0 0,191.572 0,383.145 0,574.717 z m 1651.6094,0 c 0,191.538 0,383.077 0,574.615 383.11,0 766.22,0 1149.3301,0 0,-383.111 0,-766.221 0,-1149.332 -383.1101,0 -766.2201,0 -1149.3301,0 0,191.572 0,383.145 0,574.717 z M 35.503906,-16830.619 c 0,208.073 0,416.146 0,624.219 483.616534,0 967.233094,0 1450.849594,0 0,-416.112 0,-832.224 0,-1248.336 -483.6165,0 -967.23306,0 -1450.849594,0 0,208.039 0,416.078 0,624.117 z m 4061.521494,556.916 c 0,191.939 0,383.877 0,575.816 383.11,0 766.22,0 1149.3301,0 0,-383.844 0,-767.689 0,-1151.533 -383.1101,0 -766.2201,0 -1149.3301,0 0,191.906 0,383.811 0,575.717 z m 1651.6113,0 c 0,191.939 0,383.877 0,575.816 383.11,0 766.2201,0 1149.3301,0 0,-383.844 0,-767.689 0,-1151.533 -383.11,0 -766.2201,0 -1149.3301,0 0,191.906 0,383.811 0,575.717 z m 1651.6094,0 c 0,191.939 0,383.877 0,575.816 383.11,0 766.22,0 1149.3301,0 0,-383.844 0,-767.689 0,-1151.533 -383.1101,0 -766.2201,0 -1149.3301,0 0,191.906 0,383.811 0,575.717 z m -4954.2832,-2.182 c -0.101,192.488 -0.3836,384.976 0.2305,577.463 383.2252,0.446 766.4505,-0.363 1149.6757,-0.543 0,-383.118 0,-766.237 0,-1149.355 -383.1171,0 -766.2343,0 -1149.3515,0 -0.1849,190.812 -0.3698,381.623 -0.5547,572.435 z m -1618.40626,2432.348 c 0,141.67 0,283.341 0,425.012 216.59896,0 433.19796,0 649.79686,0 0,-283.342 0,-566.684 0,-850.026 -216.5989,0 -433.1979,0 -649.79686,0 0,141.671 0,283.343 0,425.014 z m 1300.58786,0 c 0,141.659 0,283.318 0,424.976 216.2345,-0.292 432.4689,-0.633 648.7032,-1.023 0.3584,-282.989 0.7158,-565.978 1.0722,-848.967 -216.5918,0 -433.1836,0 -649.7754,0 0,141.671 0,283.343 0,425.014 z m 1390.5918,25 c 0,141.67 0,283.341 0,425.012 216.599,0 433.1979,0 649.7969,0 0,-283.342 0,-566.683 0,-850.024 -216.599,0 -433.1979,0 -649.7969,0 0,141.671 0,283.341 0,425.012 z m 1300.5879,0 c 0,141.67 0,283.341 0,425.012 216.599,0 433.1979,0 649.7969,0 0,-283.342 0,-566.683 0,-850.024 -216.599,0 -433.1979,0 -649.7969,0 0,141.671 0,283.341 0,425.012 z m 126.4336,2383.504 c -29.6007,0.516 -59.8578,11.287 -80.5441,32.992 -71.9946,68.536 -141.6251,139.505 -211.9532,209.738 -51.8235,52.529 -104.6217,104.135 -154.9793,158.084 -14.2566,13.782 -21.608,32.792 -26.4023,51.645 -9.6199,44.312 7.4809,93.731 43.2441,121.886 14.9736,11.454 31.7802,21.369 50.0958,26.247 23.8451,0.08 48.6186,3.473 71.3671,-6.389 10.6959,-4.794 21.9449,-9.404 31.2573,-16.431 116.7181,-117.114 234.2998,-233.673 350.1412,-351.427 13.3185,-14.481 28.3609,-27.735 39.3144,-44.179 9.4358,-16.906 14.5872,-36.008 14.2081,-55.416 0.8495,-20.75 -2.9563,-41.828 -13.5069,-59.922 -16.4477,-30.226 -44.4566,-55.4 -78.6614,-62.896 -10.961,-2.75 -22.2796,-4.092 -33.5808,-3.932 z m -1414.0469,2.193 c -50.4704,0.414 -98.9422,34.242 -115.5136,82.137 -16.8126,44.95 -4.4054,99.029 30.6602,131.883 88.8879,91.401 179.8137,180.832 270.6,270.453 33.8593,33.019 67.2824,66.512 101.9878,98.646 12.1056,7.294 24.4702,17.307 39.5475,15.505 5.4165,0.819 13.6457,-1.136 17.3859,1.337 -2.5554,7.705 6.1629,5.351 10.8615,5.85 11.0564,0.339 21.6774,-2.939 31.7305,-7.053 52.5022,-13.323 93.6935,-64.532 91.8062,-119.268 0.1521,-26.093 -5.3024,-53.891 -23.7036,-73.521 -35.5516,-40.957 -74.8229,-78.482 -112.742,-117.208 -76.9844,-77.835 -154.9736,-154.664 -233.5758,-230.863 -11.5268,-11.031 -22.6089,-22.613 -33.859,-33.857 -21.5778,-15.922 -48.352,-24.59 -75.1856,-24.041 z m -352.9648,351.348 c -19.8436,1.075 -39.397,7.17 -57.0181,16.238 -42.994,22.367 -70.2412,71.291 -66.0631,119.656 1.7008,19.918 7.1861,40.23 18.6339,56.784 38.9682,43.286 80.8274,84.068 121.4836,125.614 78.7018,79.915 158.6119,158.348 239.4179,236.156 10.4549,9.821 20.2975,20.398 30.6655,30.227 10.5131,6.687 21.0621,16.634 34.4678,14.928 22.6233,-0.01 45.3635,0.773 67.9155,-0.17 7.3991,-1.17 14.9354,-3.275 20.1634,-8.909 33.7854,-16.01 58.8568,-48.951 66.8043,-85.315 5.95,-30.192 1.136,-62.856 -14.6738,-89.367 -22.0745,-27.056 -47.6812,-50.992 -71.8665,-76.125 -103.6254,-104.031 -206.5104,-208.865 -313.239,-309.739 -7.1818,-6.493 -13.5575,-14.244 -22.9941,-17.502 -16.7641,-7.769 -35.1191,-12.773 -53.6973,-12.476 z m 2119.4922,2.445 c -31.8638,0.728 -63.4698,14.233 -85.2209,37.663 -86.2715,83.675 -171.4914,169.512 -256.4298,254.932 -37.5785,38.248 -75.6285,75.832 -112.1247,115.073 -17.6749,24.806 -23.3862,56.232 -20.127,86.133 1.7379,26.37 15.0628,50.589 33.5293,69.021 17.1287,19.11 41.2266,29.808 65.0274,37.811 28.7952,0.544 59.4924,1.449 85.1931,-13.749 13.0656,-7.623 22.9528,-19.612 34.2464,-29.535 88.407,-85.42 174.8583,-172.685 262.2548,-259.188 31.4081,-31.751 63.472,-62.495 93.1729,-95.444 12.127,-16.301 22.2177,-34.964 25.8794,-55.109 2.3356,-21.593 3.354,-44.238 -5.2923,-64.683 -15.5839,-43.815 -56.8843,-77.284 -103.3184,-82.119 -5.5689,-0.658 -11.1838,-0.93 -16.7902,-0.806 z m -2471.6465,353.127 c -40.5427,-0.08 -80.7018,20.451 -103.041,54.512 -26.6956,39.02 -28.9542,93.591 -4.4121,134.15 21.7743,26.653 47.0181,50.207 70.7999,74.886 94.7659,95.144 189.6489,190.657 285.6795,284.726 14.5608,13.454 28.0679,28.407 44.712,39.351 9.9077,3.233 19.0027,8.82 29.7276,8.865 21.5967,4.219 44.2656,4.739 65.3446,-2.369 37.9987,-11.665 70.4274,-41.67 82.2992,-79.95 11.7806,-32.271 7.4733,-68.758 -8.3682,-98.867 -3.2477,-8.068 -7.5854,-15.361 -14.4545,-20.858 -116.7556,-116.629 -232.3842,-234.908 -351.2059,-349.134 -10.6926,-9.767 -20.6606,-20.547 -31.9717,-29.511 -19.8998,-10.676 -42.5465,-16.057 -65.1094,-15.801 z m 2826.2324,0.531 c -23.0042,0.433 -46.4125,6.614 -65.5994,19.47 -42.5822,38.536 -82.6145,79.79 -123.5516,120.048 -76.3271,76.654 -153.5131,152.448 -229.755,229.186 -12.8523,13.866 -27.4641,26.451 -38.1291,42.126 -19.7611,29.536 -22.8623,67.885 -14.1953,101.713 10.4945,35.919 38.7132,65.285 73.0585,79.491 1.2301,-3.748 -3.3301,-17.814 3.219,-12.083 12.2858,7.373 24.1521,15.761 36.6599,22.596 15.0277,0.78 29.6988,-4.135 44.7055,-4.498 6.6111,-0.477 12.9271,-3.012 17.5186,-7.809 9.4498,-4.953 19.5454,-9.026 26.2164,-17.76 109.3398,-109.772 219.3609,-218.866 328.2861,-329.05 16.9661,-18.007 35.423,-34.872 50.1113,-54.859 10.0897,-17.394 17.5355,-36.872 16.834,-57.286 0.5402,-17.63 0.2483,-35.813 -7.5594,-52.058 -11.7718,-27.639 -32.0684,-52.241 -59.339,-65.596 -18.0075,-9.202 -38.2647,-13.888 -58.4805,-13.631 z m 353.3731,353.457 c -28.6011,0.08 -57.834,10.369 -78.0184,31.072 -56.6671,53.591 -111.2926,109.745 -166.8676,164.856 -65.4978,65.906 -131.8082,130.875 -196.0267,197.9016 -11.168,11.6391 -22.4488,23.8755 -27.1592,39.7284 -16.283,42.9429 -6.4438,94.2545 24.6949,128.0107 19.7864,21.8335 47.4512,37.1694 77.0965,39.3862 29.6741,3.1258 60.9446,-4.0882 85.3093,-21.5172 58.9011,-55.503 115.5996,-112.9961 173.0117,-170.0227 71.212,-71.328 142.3414,-142.739 213.52,-214.1 12.8558,-24.151 23.1195,-50.95 20.9063,-78.797 -1.9459,-24.454 -10.2862,-49 -25.4353,-68.458 -20.1182,-23.745 -47.4629,-42.955 -79,-46.717 -7.2917,-1.044 -14.669,-1.429 -22.0315,-1.343 z m -3536.2168,0.7 c -24.5267,-0.476 -48.5886,8.139 -68.6914,21.822 -23.2988,19.515 -45.4894,44.159 -50.4291,75.261 -5.1412,31.974 -2.114,67.123 17.1712,94.186 13.4665,19.468 31.8085,34.855 47.8138,52.138 113.6733,114.926 227.5945,229.9342 345.73,340.4746 11.3457,7.1673 24.0396,13.0272 37.2766,15.7899 9.045,0.5946 18.1455,0.2446 27.2109,0.4902 -1.5715,5.5105 5.3927,2.2359 8.3686,2.7745 50.4487,-3.3819 96.6256,-40.0035 111.2631,-88.4286 5.9416,-17.4741 4.1098,-36.3594 3.4996,-54.4806 -1.5415,-17.7858 -9.38,-34.5018 -18.811,-49.4005 -24.7007,-29.4578 -52.8424,-55.8165 -79.5937,-83.3775 -101.2842,-101.669 -203.1734,-203.259 -304.711,-304.876 -15.8871,-6.911 -29.4754,-19.732 -47.3873,-21.358 -9.5153,-1.221 -19.1392,-0.991 -28.7103,-1.015 z m -356.9512,353.406 c -25.0467,-0.346 -50.1179,8.085 -68.9844,24.7557 -23.1629,19.286 -43.7041,44.796 -47.3789,75.6699 -4.3439,31.266 -0.3195,64.889 18.0078,91.3496 21.0662,24.12 44.2878,46.3754 66.4893,69.4783 99.2078,100.5231 198.6733,200.8156 299.9394,299.2705 10.69,10.9215 22.8097,21.2623 36.3565,29.0012 9.9798,6.4337 21.5708,10.642 33.5952,9.2807 5.4901,0.7239 13.9249,-1.4078 16.936,1.7278 41.0011,1.4367 82.4668,-17.8781 105.9397,-51.8604 11.4829,-16.783 20.1388,-36.1841 22.4978,-56.4918 0.788,-21.4517 0.8056,-44.0315 -9.0839,-63.668 -6.659,-15.5939 -16.313,-29.7624 -28.826,-41.246 -88.6531,-90.7248 -178.3057,-180.484 -269.0596,-269.1087 -35.0703,-34.2779 -70.9554,-68.1066 -106.5832,-101.9698 -18.8631,-8.706 -39.6045,-17.096 -61.273,-16.122 -2.8566,-0.09 -5.7151,-0.107 -8.5727,-0.07 z m 4215.2676,3.721 c -19.5401,5.375 -38.5924,15.6492 -52.0455,30.493 -111.6062,109.067 -221.5364,220.0097 -330.9843,331.3351 -15.2836,16.1705 -31.3745,31.3256 -44.9312,48.478 -22.0172,38.24 -22.1813,88.1055 0.4469,126.1392 11.8237,21.2688 31.3761,37.887 53.4086,47.9253 -2.077,-9.6042 2.4949,-8.1592 8.8935,-3.6784 15.2637,6.9151 29.2092,18.7958 46.7239,18.9493 12.7377,1.2107 25.1963,-2.209 36.7642,-7.1338 20.9195,-4.6147 35.5982,-21.3754 51.0288,-34.9226 57.4022,-54.6074 113.2893,-111.8523 169.7778,-167.9708 62.0361,-62.4107 124.9535,-123.8747 185.6336,-187.4893 10.4117,-10.8098 20.5707,-22.3758 25.0298,-37.0532 19.2541,-48.9078 3.4718,-109.52 -38.4004,-141.7031 -13.874,-10.7397 -29.7744,-20.2187 -47.1387,-23.3987 -21.4011,0.02 -42.8119,-0.04 -64.207,0.03 z m -2953.5781,1023.6753 c -288.6895,288.7149 -577.379,577.4297 -866.0684,866.1445 563.4235,563.1898 1126.3951,1126.8321 1690.2894,1689.5508 13.9403,13.8969 27.8888,27.7855 41.8473,41.6641 465.7216,-464.3543 930.4178,-929.7358 1395.5654,-1394.6648 112.1904,-112.1834 224.3809,-224.3667 336.5713,-336.5501 -577.3529,-577.4224 -1154.7318,-1154.8189 -1732.1367,-1732.1894 -288.6894,288.6816 -577.3789,577.3633 -866.0683,866.0449 z m -1611.7891,-674.8848 c -31.1906,-0.3832 -61.2366,13.5892 -83.1445,35.3907 -20.3952,18.9748 -35.5225,44.5595 -37.5957,72.7558 -2.601,24.9818 0.2559,51.0089 12.4687,73.3164 8.4134,16.8293 23.3826,29.0692 35.7168,42.9219 75.7253,77.4518 152.5796,154.1338 229.4663,230.6319 43.8905,43.1549 87.5489,86.6404 132.7874,128.3557 9.1576,5.8815 18.0559,12.9948 29.3651,13.7488 23.0158,6.4419 47.6852,6.9188 70.6742,0.1191 41.3254,-10.665 73.7968,-45.5188 86.498,-85.6074 5.3626,-20.8481 5.0476,-43.1313 0.8731,-64.17 -5.0831,-15.0044 -9.5314,-31.1237 -21.1333,-42.5893 -42.3674,-45.9454 -87.0753,-89.0672 -130.9893,-133.5218 -74.9601,-74.7258 -149.961,-150.7125 -225.6938,-223.6935 -12.2379,-11.1241 -24.1357,-23.9498 -38.1915,-33.2676 -19.9029,-6.3325 -39.8557,-14.6479 -61.1015,-14.3907 z m 4949.4883,0.5098 c -24.1208,-0.037 -48.4946,7.34 -67.8984,21.7074 -65.5873,61.8549 -129.2343,125.8815 -193.3075,189.1977 -61.5984,61.6073 -123.6222,122.5696 -183.7598,185.5274 -31.9287,35.9487 -39.6459,91.2032 -18.1135,134.3178 17.7189,37.5799 54.9297,64.1331 95.5697,71.3028 29.7093,4.7076 59.9963,-4.926 85.8245,-19.2498 10.8308,-5.0876 17.5134,-15.8613 26.4419,-23.5566 102.4234,-102.7272 205.6457,-204.8686 307.4722,-308.0117 20.9981,-22.2706 43.7309,-43.3119 61.2234,-68.5728 14.0089,-24.92 15.4394,-55.0465 11.6119,-82.8204 -6.4697,-37.2518 -33.0987,-68.6338 -65.5449,-86.7168 -18.1705,-9.8001 -39.0133,-13.5881 -59.5195,-13.125 z m -5301.6504,351.7949 c -46.0758,-0.2279 -90.5184,27.8216 -110.5479,69.2543 -14.1202,27.2494 -15.8012,59.8781 -8.5146,89.3375 3.0346,13.3953 9.3448,25.7808 18.6854,35.8868 34.666,39.9005 72.9917,76.4215 109.9835,114.1265 91.115,91.2429 182.351,182.3648 273.5225,273.5512 4.1106,0.6162 14.2622,10.9688 12.7908,2.5883 0.024,-6.1514 10.0308,3.2643 14.4069,3.8997 14.1008,6.5177 27.9367,15.2106 44.0074,15.2444 13.8653,1.0985 27.9606,-0.98 40.5238,-6.9967 42.2692,-14.6681 75.9766,-53.4789 82.5527,-97.9617 1.9945,-22.6572 2.27,-46.6173 -7.9102,-67.5526 -4.3918,-9.4875 -7.8784,-19.843 -14.2064,-28.0939 -127.386,-127.2753 -254.7458,-254.5769 -382.081,-381.9029 -15.1457,-6.6321 -28.1994,-18.6688 -45.2774,-20.2559 -9.5365,-1.2513 -18.5507,-1.0614 -27.9355,-1.125 z m 5656.7656,1.67 c -22.3227,0.6387 -45.3251,6.1228 -63.9297,18.8222 -31.7408,27.0666 -60.4781,57.439 -90.3929,86.4679 -86.4789,86.2302 -173.4844,172.1482 -258.8874,259.2399 -17.717,19.0659 -37.2099,36.9853 -51.2236,59.091 -7.5697,15.5881 -12.265,32.8036 -11.332,50.2559 -0.3853,15.9271 -0.027,32.2588 6.6992,47.0371 10.6838,29.4866 33.557,54.1946 62.4093,66.62 12.0304,5.5179 24.2764,11.0095 36.696,15.3137 26.7317,1.2194 55.2327,-1.0856 78.7853,-15.4063 15.6932,-9.1607 27.5567,-23.4122 40.9936,-35.416 106.3627,-103.6879 210.4431,-209.6839 315.5529,-314.6352 12.9628,-13.3 26.6281,-26.0965 39.1528,-39.7104 11.0011,-21.0055 21.3963,-43.4795 20.6484,-67.7697 0.9468,-20.8228 -2.4776,-41.9732 -12.5059,-60.4433 -11.8689,-24.0814 -31.8403,-44.3278 -55.6113,-56.75 -17.6861,-8.6062 -37.3843,-13.0226 -57.0547,-12.7168 z m 353.3613,352.3593 c -25.4554,0.3774 -50.3327,9.6723 -71.4826,23.2755 -110.8076,110.8636 -222.6278,221.0813 -332.5417,332.5763 -17.7769,18.6424 -36.5716,36.4735 -52.7862,56.5057 -25.0906,38.1102 -26.4919,90.2679 -2.8889,129.4146 14.1266,24.8274 37.8893,43.0148 64.4826,52.8533 29.5048,12.7784 63.9547,9.6496 93.2578,-2.1566 18.4389,-6.7873 31.0452,-22.7089 45.3408,-35.383 86.4417,-84.3075 171.3638,-170.4358 257.0753,-255.6658 34.4868,-35.1155 70.2638,-69.0569 102.9247,-105.9074 10.5588,-13.2031 16.5438,-29.689 20.2901,-46.0165 5.7967,-33.7305 0.04,-70.7365 -21.75,-97.9824 -10.7379,-14.8001 -24.9706,-26.5978 -40.9199,-35.4102 -18.1308,-10.9573 -39.8831,-16.1869 -61.002,-16.1035 z m -6369.4902,0.5996 c -24.375,0.1845 -47.949,10.2533 -67.30664,24.5899 -16.73001,14.5916 -32.74082,31.1718 -40.52528,52.4286 -10.38248,25.0133 -13.82444,53.502 -5.37316,79.5929 7.20978,25.3612 22.2865,47.8914 41.43359,65.8281 104.69899,106.2212 211.03399,210.8035 317.25229,315.4352 15.4432,14.6233 29.9333,30.4208 46.1282,44.1552 11.4284,7.3875 23.7546,18.2028 38.8106,16.1293 5.1266,1.2407 14.9302,-2.3361 16.9005,2.1557 0.2514,3.7843 6.6743,1.5915 9.7598,2.37 32.5284,0.3719 66.0618,-10.6157 88.9604,-34.4337 19.1826,-18.2465 32.6368,-42.7098 37.2069,-68.8005 1.9212,-20.6549 1.1686,-41.1051 -4.5682,-61.3499 -4.0913,-13.3791 -10.5722,-26.1522 -20.9809,-35.712 -67.53,-71.6847 -137.3523,-141.1079 -206.93,-210.9115 -57.1049,-56.5919 -113.6176,-113.656 -172.4316,-168.2999 -9.1105,-9.0375 -21.9957,-12.5889 -33.6492,-17.1945 -14.3534,-5.2887 -29.575,-5.8795 -44.6873,-5.9829 z m 357.666,1061.3125 c -24.2398,-0.4556 -48.8184,7.1794 -67.9609,22.1289 -37.3341,33.0392 -71.806,69.1534 -107.4346,103.9939 -86.9152,86.9307 -174.784,173.1223 -260.09553,261.7178 -10.13401,10.7741 -21.07522,21.2502 -26.85075,35.1731 -7.16587,14.4426 -13.27281,30.0552 -12.14593,46.4785 -0.0576,16.2267 -1.12299,33.0558 5.78559,48.2331 15.86825,45.8569 59.95842,80.2399 108.24902,84.5072 25.3743,1.0508 51.7142,-4.2237 73.5703,-17.4473 27.3769,-22.6213 51.7096,-48.6601 77.2128,-73.3239 105.414,-104.827 210.3727,-210.1107 315.5685,-315.1566 10.3203,-20.6478 21.4307,-42.2137 20.7945,-66.027 1.3768,-31.2034 -7.8038,-63.4505 -29.0303,-86.8812 -22.9787,-28.1784 -59.1404,-44.2838 -95.401,-43.4062 -0.7539,10e-5 -1.5078,0.01 -2.2617,0.01 z m 5659.8223,0.5 c -18.7705,-0.6925 -37.3055,3.9093 -53.9551,12.4883 -43.426,19.6921 -73.4019,66.9812 -70.1802,114.9253 0.801,24.3281 7.0021,49.8359 23.8833,68.1821 29.1897,33.9708 62.3795,65.9319 94.0886,98.271 98.0533,98.3934 196.2022,196.7091 297.1868,291.7037 15.5003,8.9105 32.7259,16.612 51.0473,15.0171 4.7068,1.5771 16.0785,-3.3817 14.6048,4.2563 3.2511,1.8969 10.1599,-0.3142 14.7695,-0.5368 43.9613,-6.3527 83.2629,-37.6121 98.7137,-79.3373 10.9761,-28.893 10.1811,-62.0914 -1.149,-90.7783 -6.5461,-16.6403 -17.4584,-31.1091 -30.4516,-43.2646 -107.385,-110.063 -216.7715,-218.251 -326.8659,-325.6361 -18.8045,-17.2728 -36.2864,-36.5933 -58.1889,-50.042 -9.2139,-4.9363 -20.0535,-5.9925 -28.3354,-12.6705 -7.815,-3.7757 -16.9543,-2.1305 -25.1679,-2.5782 z m -369.7422,354.1622 c -43.428,5.3499 -82.8599,35.3148 -98.6211,76.2929 -12.7936,28.7635 -13.4044,62.4689 -1.1175,91.5143 4.5049,10.4524 9.091,21.2152 15.2685,30.6671 114.0859,113.6583 227.3496,228.0714 342.1506,340.9272 17.1389,15.8498 32.8729,33.6613 52.4914,46.5242 9.1548,3.5205 17.8185,9.3119 27.4472,11.0293 21.2043,-0.2099 42.6057,0.4241 63.6856,-0.3183 8.5823,-4.7809 17.8003,-8.4532 27.2681,-10.799 35.064,-17.5532 60.0653,-53.2828 64.0342,-92.3534 3.679,-32.0693 -2.5584,-66.9894 -24.1012,-91.9551 -77.7338,-80.2224 -157.0877,-159.068 -236.3884,-237.8939 -51.9085,-51.2694 -104.2586,-102.0593 -157.6213,-151.5475 -22.4441,-12.7914 -49.5062,-11.9941 -74.4961,-12.0878 z m -4936.1699,0.3515 c -22.8261,0.6192 -46.2355,6.4879 -65.1602,19.543 -38.0625,33.9887 -73.8573,70.669 -110.428,106.3817 -82.7658,82.241 -165.6666,164.3526 -247.6272,247.3972 -13.6169,14.3319 -28.7869,27.8229 -37.3734,46.0131 -22.7759,39.0821 -19.4029,90.571 5.9618,127.6064 12.3953,18.5095 29.7855,33.6143 49.8184,43.3496 -1.5847,-8.572 1.0156,-10.5191 8.1553,-5.2806 17.3591,7.4886 34.0838,19.419 53.8915,18.0812 15.1858,0.3603 28.9081,-6.6298 42.9805,-11.2244 19.3729,-9.6251 34.1481,-26.1135 50.0801,-40.3516 72.6826,-70.2038 143.9282,-142.7576 215.6405,-214.3601 46.2487,-46.9369 93.5411,-92.8976 138.2408,-141.3278 10.5566,-12.1039 15.6521,-28.0094 19.5171,-43.3531 9.9654,-42.8296 -4.2887,-90.5283 -37.2524,-119.9087 -13.7748,-12.4795 -30.7035,-21.2599 -48.0456,-27.5787 -12.4611,-3.5389 -25.4482,-5.2165 -38.3992,-4.9872 z m 4591.4238,355.2754 c -20.9708,0.1656 -41.8157,5.9327 -59.1895,17.8418 -29.4099,18.0261 -49.8709,49.1344 -56.4179,82.8008 -1.0457,21.1924 -2.4091,43.2314 5.4004,63.4355 5.1367,19.2098 20.6423,33.0673 32.916,47.2774 61.6235,65.1076 125.8058,127.5117 188.8506,191.2508 55.5973,55.4385 109.8097,112.0316 166.4571,166.1421 11.7992,11.216 26.0009,19.8996 40.8446,26.5133 13.0178,5.0435 27.3387,1.8745 40.9278,2.9981 -2.6522,5.3384 3.1828,3.4193 6.3281,3.5664 53.4876,-2.263 103.4655,-42.133 115.5197,-94.6577 7.4355,-31.8303 2.8447,-67.0084 -14.385,-94.9595 -24.1762,-29.0344 -51.8073,-54.9748 -78.0629,-82.095 -102.8613,-103.5259 -206.2293,-206.547 -309.3511,-309.8132 -17.878,-9.4799 -36.244,-20.5054 -57.2198,-20.1127 -7.5331,-0.2828 -15.0828,-0.3427 -22.6181,-0.1881 z m -4267.957,1.4434 c -20.2888,5.7104 -39.5004,16.2055 -53.6304,32.0571 -103.1304,101.3411 -205.2214,203.8881 -306.9418,306.6834 -22.7729,23.7299 -46.6878,46.5104 -67.6563,71.8786 -26.6239,43.1372 -21.7142,102.1098 10.0028,141.2826 15.5753,19.3804 36.898,33.9295 59.8663,43.1256 10.4534,4.038 21.8344,1.8689 32.7344,2.5664 0.9843,3.861 7.755,0.9824 11.248,1.582 23.8577,-1.6375 47.8232,-9.6613 66.6465,-24.6015 51.2647,-47.3609 100.0314,-97.3455 149.6294,-146.4315 72.4138,-72.9136 145.8108,-144.7792 216.8143,-218.9913 11.2654,-12.0852 23.4465,-24.1537 28.6637,-40.2764 14.8234,-34.8352 12.5242,-76.1169 -6.2178,-109.0247 -16.3448,-28.9468 -44.5975,-51.7166 -76.9716,-59.7086 -21.3945,-0.1457 -42.797,-0.1846 -64.1875,-0.1417 z m 3916.8496,347.5898 c -9.9153,0.3008 -21.1642,-1.4137 -29.2188,5.8399 -13.4982,6.2133 -27.7922,11.5357 -39.7324,20.7871 -33.0555,23.2106 -51.5062,63.7795 -50.3359,103.8086 -0.07,34.6156 17.2292,67.119 41.7983,90.709 95.7607,97.5542 193.2391,193.2424 290.469,289.285 25.4136,24.648 50.1847,50.0591 76.219,74.0079 10.6424,6.9671 21.4636,14.7274 34.5756,15.6693 46.8421,11.9532 100.6631,-3.4652 131.0759,-41.8106 13.1101,-16.0711 22.4936,-35.5606 26.2098,-55.9739 0.6169,-17.2176 1.6942,-34.7638 -1.3847,-51.7989 -3.7794,-15.8726 -10.5774,-31.069 -21.69,-43.1927 -33.5573,-39.0002 -70.7355,-74.4608 -106.7019,-111.056 -94.0451,-93.7716 -187.3872,-188.1363 -284.8731,-278.2721 -6.7815,-3.2896 -12.9381,-9.4116 -21.0319,-8.2331 -7.6148,-5.2345 -15.8184,-10.6296 -25.5371,-9.623 -6.6122,-0.1857 -13.2278,-0.1404 -19.8418,-0.1465 z m -3533.7774,3.3106 c -22.4383,0.7202 -45.4172,6.4677 -64.1191,19.1816 -30.4188,25.8762 -57.8312,55.0092 -86.3743,82.7823 -100.9859,100.6526 -201.8597,201.7067 -302.7937,302.5321 -10.9929,21.6972 -22.0515,44.6568 -21.176,69.6327 -1.5428,29.753 9.5076,59.3558 28.0327,82.3874 21.0997,25.7855 52.7401,40.7631 85.1425,46.2877 5.9752,0.091 8.093,4.0935 13.4872,3.2001 25.0046,-0.9188 49.5245,-9.6773 70.3166,-23.2071 113.0262,-113.099 226.8809,-225.2441 339.0408,-339.1739 15.7829,-16.6681 32.6014,-32.5291 46.8047,-50.5839 10.9523,-18.7882 20.254,-39.7935 18.5976,-62.0527 0.3316,-15.7621 -0.1186,-31.8908 -6.5937,-46.5586 -9.9397,-27.7924 -29.9184,-51.4537 -55.166,-66.6133 -19.289,-12.3544 -42.3635,-18.3045 -65.1993,-17.8144 z m 6797.7852,180.4648 c -29.3639,29.3756 -58.7279,58.7513 -88.0918,88.1269 365.14,365.0996 730.2546,730.2246 1095.3441,1095.375 58.697,-58.7399 117.417,-117.4574 176.16,-176.1523 -365.086,-365.1509 -730.1969,-730.2759 -1095.3342,-1095.375 -29.3594,29.3418 -58.7187,58.6836 -88.0781,88.0254 z m -3613.4277,169.2305 c -11.3753,0.5324 -24.4732,-2.2144 -33.718,6.2532 -16.2735,6.8629 -32.8973,14.2125 -45.9363,26.5847 -18.8322,16.0805 -33.1547,37.2607 -40.0452,61.1241 -4.3484,16.1519 -2.2178,33.1833 -2.4417,49.7228 0.3139,14.8821 5.3309,29.5154 12.481,42.4499 16.9862,24.4128 38.38,44.3645 58.7008,65.9437 83.2927,84.503 166.79,168.6558 252.0655,251.2608 27.0751,26.3984 54.5811,52.4912 81.0149,79.4674 2.9861,1.4009 8.6645,6.2436 10.4158,4.6934 0.8326,-4.757 10.429,3.3979 14.7708,3.8111 15.827,6.7589 31.9984,14.2596 49.621,13.8723 24.9773,0.889 49.2321,-8.9611 69.6436,-22.7303 46.2608,-32.6181 65.8702,-99.1218 41.9888,-150.9702 -6.9471,-16.5708 -18.1039,-30.8288 -31.0355,-43.1425 -103.85,-106.4012 -209.4291,-211.2727 -315.536,-315.5526 -20.6416,-19.2939 -40.0527,-40.3773 -63.6731,-56.1179 -10.0431,-5.9021 -21.2018,-7.5688 -30.7989,-14.2539 -8.5753,-3.6402 -18.4472,-1.946 -27.5175,-2.416 z m -2825.0665,0.334 c -23.8139,0.3648 -48.2949,5.8783 -68.3903,18.9842 -34.7306,30.9298 -67.0379,64.0913 -100.4443,96.771 -83.185,82.7969 -166.6346,165.7175 -248.9026,249.4684 -17.5595,18.847 -36.8408,36.5551 -50.8858,58.3096 -12.3094,25.2579 -13.3068,54.7156 -9.1602,82.0781 5.1852,25.8102 19.65,49.1211 39.627,66.1269 10.9049,9.2779 23.4342,17.4283 37.2281,21.4059 18.9955,4.1064 38.5113,7.7778 57.9692,4.7738 18.1868,-2.634 36.8928,-7.2378 52.1191,-17.916 32.2766,-27.6055 61.5477,-58.5126 91.9952,-88.0812 92.2324,-91.904 184.7047,-183.4742 275.6509,-276.5714 9.9512,-11.1838 21.8165,-21.0599 29.6254,-33.9353 18.75,-34.648 20.892,-78.1786 3.3711,-113.7832 -12.8024,-27.1009 -35.7554,-50.2159 -64.0371,-60.707 -14.7581,-4.7219 -30.274,-7.0397 -45.7657,-6.9238 z m 350.0274,354.6874 c -33.6911,0.354 -67.1004,14.8283 -89.8956,39.7309 -100.376,97.7449 -199.4397,197.746 -298.2619,297.4151 -23.8674,24.8526 -48.641,48.3166 -70.0127,75.557 -17.4408,24.5376 -20.7106,56.4528 -17.445,85.6701 5.7033,35.9481 28.7124,68.3544 59.8203,86.9551 -0.9234,-7.649 9.463,1.9643 13.7726,2.3026 14.844,6.5419 29.7949,14.1859 46.4068,14.3376 15.5125,1.1006 31.3136,-0.886 45.5388,-7.3408 19.8647,-5.9001 34.2823,-21.6379 49.092,-34.632 65.039,-61.6817 127.4721,-125.8686 191.1337,-189.0356 57.4679,-57.4489 114.9358,-114.8978 172.4037,-172.3467 13.3128,-24.6206 24.473,-51.7181 22.9629,-80.2656 -1.8322,-54.9293 -44.6946,-105.157 -98.6269,-115.7109 -8.8319,-1.8546 -17.8646,-2.7446 -26.8887,-2.6368 z m 2112.9043,0.4122 c -52.5766,3.7225 -101.7844,43.6209 -112.0996,95.9863 -4.4739,27.2871 -3.196,56.411 8.4863,81.7988 14.3488,22.5601 34.6515,41.3125 52.4275,60.4259 86.1814,87.9492 173.7423,174.4866 260.1777,262.1933 25.2212,25.0688 49.8775,50.7654 76.3479,74.5332 12.6937,7.1606 23.2364,20.4176 38.5137,22.2402 9.6797,0.1672 19.3594,0.3346 29.0391,0.5019 4.1189,1.7488 11.2676,0.3381 16.699,0.8622 12.5532,-0.3903 25.6525,1.9669 37.3414,-3.84 39.8999,-14.9584 70.8703,-51.8395 78.6256,-93.7097 3.1199,-26.7424 1.4634,-55.3701 -11.4473,-79.4863 -17.7323,-25.1439 -40.5386,-46.1563 -61.6087,-68.4287 -110.1992,-111.374 -221.3717,-221.8326 -332.0143,-332.8213 -16.4649,-8.7588 -33.0923,-18.9135 -52.3278,-19.5944 -9.3571,-0.7865 -18.7817,-0.9143 -28.1605,-0.6614 z m 3303.332,147.5527 c -29.554,29.5749 -59.1081,59.1497 -88.6621,88.7246 365.1167,365.0949 730.2339,730.1893 1095.3516,1095.2832 59.0979,-59.0856 118.1969,-118.1703 177.2968,-177.2539 -365.141,-365.0985 -730.2556,-730.2236 -1095.3437,-1095.375 -29.5475,29.5404 -59.0951,59.0807 -88.6426,88.6211 z m -3649.3887,204.6426 c -18.0605,-0.5277 -36.2912,2.812 -52.1035,11.8633 -22.1517,10.3466 -40.8954,27.6588 -52.8389,48.5354 -18.2529,28.1791 -20.6617,64.0296 -13.3756,96.1105 4.5352,17.4375 13.0874,33.8784 26.0817,46.5076 46.4012,49.3886 95.1443,96.8416 143.0251,145.1719 77.5001,77.5352 154.983,155.0915 232.4749,232.6374 12.4174,7.0022 25.8462,11.8164 38.4473,18.4825 7.3867,0.3287 14.7734,0.6575 22.1601,0.9863 4.3785,1.8975 12.27,0.2736 18.002,0.8144 13.0627,-0.4215 26.699,1.9509 38.8321,-4.1621 43.3049,-16.5246 74.5768,-58.8727 79.1327,-104.8144 2.2565,-22.0372 -2.698,-44.6007 -11.7748,-64.6582 -8.3611,-18.972 -24.964,-32.1393 -38.5006,-47.2515 -97.2739,-100.1469 -196.6708,-198.8236 -296.6039,-296.5493 -22.5063,-21.5246 -44.4183,-43.8032 -67.7046,-63.8672 -7.8542,-3.9544 -15.1314,-11.0719 -24.5391,-10.0098 -8.776,-5.6685 -18.4501,-10.7019 -29.2513,-9.7253 -3.8204,-0.088 -7.6424,-0.084 -11.4636,-0.072 z m -1413.6015,0.074 c -19.115,0.4823 -38.3032,5.2479 -55.3848,13.7773 -24.2301,16.4844 -44.2505,38.2502 -65.4952,58.2572 -93.536,92.434 -186.151,185.7803 -278.7041,279.1102 -20.633,21.6626 -42.8073,42.0774 -61.203,65.7303 -25.6186,44.1167 -20.0103,103.7826 13.5586,142.2207 18.7088,21.2538 44.2844,37.3589 72.2206,42.5446 19.2827,-0.2038 38.6828,0.6537 57.8936,-0.3184 7.2697,-1.1885 14.7597,-3.1441 19.9262,-8.6994 9.4503,-4.953 19.5475,-9.0251 26.217,-17.7614 111.4189,-111.9271 223.6383,-223.0603 334.4066,-335.6326 15.4177,-16.4036 32.105,-31.8486 45.8438,-49.6934 24.726,-42.3639 20.9818,-98.9692 -8.9278,-137.7968 -16.8189,-22.6998 -41.9824,-37.8695 -68.2929,-47.1211 -10.3555,-3.2179 -21.2183,-4.7547 -32.0586,-4.6172 z m 353.1211,354.2305 c -25.4645,0.5441 -51.5666,8.5503 -71.304,24.9672 -52.0323,48.2397 -101.7216,99.0149 -152.2416,149.0306 -69.1886,69.6762 -139.4362,138.3234 -207.3314,209.2697 -13.0903,14.9677 -28.734,28.7952 -36.5781,47.4571 -5.4911,14.4403 -8.9466,29.6771 -8.0254,45.2129 -0.45,16.3747 0.814,33.0297 7.6682,48.1437 18.2915,45.4735 65.2692,75.734 113.3552,79.3289 27.7165,0.7185 56.1913,-7.7973 76.711,-26.9512 42.2659,-37.3085 81.1327,-77.8647 121.2458,-117.382 79.5258,-79.9894 159.8194,-159.1595 238.3159,-239.9811 13.2832,-14.4068 28.6562,-28.051 35.0789,-47.1876 10.3516,-24.3588 10.5829,-51.9992 5.6236,-77.6398 -11.4526,-44.2538 -48.1792,-81.0466 -92.9915,-91.0287 -9.6614,-2.276 -19.6019,-3.3609 -29.5266,-3.2397 z m 719.623,0.1543 c -15.8963,0.5922 -31.7539,3.1556 -47.4687,5.0019 -35.4347,10.7783 -65.2751,38.1123 -78.7375,72.6725 -11.0447,23.4053 -10.6449,50.4981 -5.784,75.4115 5.4249,26.4259 22.1827,49.41 41.1325,67.3773 95.7791,97.314 192.6782,194.2518 290.2025,289.9753 26.124,25.041 51.5017,50.9825 79.3583,74.1259 16.7996,9.6321 35.2588,18.7358 55.1981,17.0411 5.191,0.9918 14.2639,-1.633 16.9133,1.7265 45.6886,-2.4694 88.1665,-32.6212 106.0777,-74.6425 12.6302,-27.6569 12.8502,-60.057 4.0531,-88.8432 -5.7592,-23.1478 -24.7405,-39.7123 -39.7122,-56.7189 -67.4129,-70.4517 -137.0877,-138.5689 -205.785,-207.8121 -50.6415,-50.6969 -101.2831,-101.3938 -151.9246,-152.0907 -14.0301,-7.0426 -28.9939,-11.8326 -43.0547,-18.8438 -6.1808,0.6681 -10.5406,-5.4944 -17.002,-4.3203 -1.1548,-0.051 -2.3109,-0.072 -3.4668,-0.06 z m 3318.5723,112.625 c -29.5469,29.5416 -59.0938,59.0833 -88.6406,88.625 365.1129,364.9391 729.8028,730.3809 1095.4922,1094.6855 59.2548,-58.5848 118.1672,-117.6703 177.1269,-176.6562 -365.1116,-365.0955 -730.2242,-730.1899 -1095.3379,-1095.2832 -29.5469,29.5429 -59.0937,59.0859 -88.6406,88.6289 z m 2419.4706,1655.5429 c -76.613,76.6094 -153.225,153.2188 -229.838,229.8282 200.445,200.2618 400.603,401.0319 601.463,600.7402 153.63,-152.5648 306.468,-305.9234 459.65,-458.9375 -200.478,-200.486 -400.956,-400.973 -601.433,-601.461 -76.614,76.6101 -153.228,153.2201 -229.842,229.8301 z m -9159.7909,404.2324 c 0,141.6713 0,283.3425 0,425.0137 216.5989,0 433.1979,0 649.7969,0 0,-283.3418 0,-566.6836 0,-850.0254 -216.599,0 -433.198,0 -649.7969,0 0,141.6706 0,283.3412 0,425.0117 z m 1300.5879,0 c 0,141.6713 0,283.3425 0,425.0137 216.5924,0 433.1849,0 649.7773,0 -0.3578,-282.9896 -0.7166,-565.9791 -1.0762,-848.9687 -216.2336,-0.3883 -432.4673,-0.7288 -648.7011,-1.0215 0,141.6588 0,283.3177 0,424.9765 z m 6940.0215,514.9922 c -76.6127,76.6094 -153.2253,153.2188 -229.8379,229.8282 200.4737,200.4878 400.949,400.9741 601.4257,601.4589 153.2023,-153.2762 306.4297,-306.5275 459.6817,-459.7539 -200.451,-200.4793 -400.9269,-400.9338 -601.4278,-601.3632 -76.6139,76.61 -153.2278,153.22 -229.8417,229.83 z m -6566.4961,1683.3692 c 0,158.2044 0,316.40883 0,474.61326 317.1054,0 634.2109,0 951.3164,0 0,-316.37565 0,-632.75126 0,-949.12696 -317.1055,0 -634.211,0 -951.3164,0 0,158.1712 0,316.3425 0,474.5137 z m 4000.7675,0 c 0,158.2044 0,316.40883 0,474.61326 316.3555,0 632.711,0 949.0664,0 0,-316.37565 0,-632.75126 0,-949.12696 -316.3554,0 -632.7109,0 -949.0664,0 0,158.1712 0,316.3425 0,474.5137 z m 2088.1387,174.40427 c 0,108.30274 0,216.60547 0,324.90821 283.3535,0 566.707,-1e-5 850.0606,0 0,-216.60612 0,-433.21224 0,-649.81838 -283.3536,0 -566.7071,0 -850.0606,0 0,108.3034 0,216.60679 0,324.91017 z M 2857.1934,548.05078 c 0,158.17123 0,316.34245 0,474.51372 317.1054,0 634.2109,0 951.3164,0 0,-316.3757 0,-632.75135 0,-949.127 -317.1055,0 -634.211,0 -951.3164,0 0,158.20443 0,316.40885 0,474.61328 z m 4000.7675,0 c 0,158.17123 0,316.34245 0,474.51372 316.3555,0 632.711,0 949.0664,0 0,-316.3757 0,-632.75135 0,-949.127 -316.3554,0 -632.7109,0 -949.0664,0 0,158.20443 0,316.40885 0,474.61328 z M 8946.0996,423.14844 c 0,108.30338 0,216.60677 0,324.91015 283.3535,0 566.707,0 850.0606,0 0,-216.60677 0,-433.21354 0,-649.820309 -283.3536,0 -566.7071,0 -850.0606,0 0,108.303389 0,216.606769 0,324.910159 z"
       style="fill:#000000"
       inkscape:connector-curvature="0" />
  </g>
</svg>
