G75*
%MOIN*%
%OFA0B0*%
%FSLAX25Y25*%
%IPPOS*%
%LPD*%
%AMOC8*
5,1,8,0,0,1.08239X$1,22.5*
%
%ADD10C,0.00100*%
%ADD11C,0.00000*%
D10*
X0037826Y0010142D02*
X0037826Y0164142D01*
X0037828Y0164335D01*
X0037835Y0164529D01*
X0037847Y0164721D01*
X0037863Y0164914D01*
X0037884Y0165106D01*
X0037910Y0165298D01*
X0037940Y0165489D01*
X0037975Y0165679D01*
X0038014Y0165868D01*
X0038058Y0166057D01*
X0038107Y0166244D01*
X0038160Y0166430D01*
X0038218Y0166614D01*
X0038280Y0166797D01*
X0038346Y0166979D01*
X0038417Y0167159D01*
X0038492Y0167337D01*
X0038571Y0167513D01*
X0038655Y0167688D01*
X0038742Y0167860D01*
X0038834Y0168030D01*
X0038930Y0168198D01*
X0039030Y0168363D01*
X0039134Y0168526D01*
X0039242Y0168687D01*
X0039354Y0168844D01*
X0039469Y0168999D01*
X0039589Y0169151D01*
X0039711Y0169301D01*
X0039838Y0169447D01*
X0039968Y0169590D01*
X0040101Y0169730D01*
X0040238Y0169867D01*
X0040378Y0170000D01*
X0040521Y0170130D01*
X0040667Y0170257D01*
X0040817Y0170379D01*
X0040969Y0170499D01*
X0041124Y0170614D01*
X0041281Y0170726D01*
X0041442Y0170834D01*
X0041605Y0170938D01*
X0041770Y0171038D01*
X0041938Y0171134D01*
X0042108Y0171226D01*
X0042280Y0171313D01*
X0042455Y0171397D01*
X0042631Y0171476D01*
X0042809Y0171551D01*
X0042989Y0171622D01*
X0043171Y0171688D01*
X0043354Y0171750D01*
X0043538Y0171808D01*
X0043724Y0171861D01*
X0043911Y0171910D01*
X0044100Y0171954D01*
X0044289Y0171993D01*
X0044479Y0172028D01*
X0044670Y0172058D01*
X0044862Y0172084D01*
X0045054Y0172105D01*
X0045247Y0172121D01*
X0045439Y0172133D01*
X0045633Y0172140D01*
X0045826Y0172142D01*
X0099826Y0172142D01*
X0100019Y0172140D01*
X0100213Y0172133D01*
X0100405Y0172121D01*
X0100598Y0172105D01*
X0100790Y0172084D01*
X0100982Y0172058D01*
X0101173Y0172028D01*
X0101363Y0171993D01*
X0101552Y0171954D01*
X0101741Y0171910D01*
X0101928Y0171861D01*
X0102114Y0171808D01*
X0102298Y0171750D01*
X0102481Y0171688D01*
X0102663Y0171622D01*
X0102843Y0171551D01*
X0103021Y0171476D01*
X0103197Y0171397D01*
X0103372Y0171313D01*
X0103544Y0171226D01*
X0103714Y0171134D01*
X0103882Y0171038D01*
X0104047Y0170938D01*
X0104210Y0170834D01*
X0104371Y0170726D01*
X0104528Y0170614D01*
X0104683Y0170499D01*
X0104835Y0170379D01*
X0104985Y0170257D01*
X0105131Y0170130D01*
X0105274Y0170000D01*
X0105414Y0169867D01*
X0105551Y0169730D01*
X0105684Y0169590D01*
X0105814Y0169447D01*
X0105941Y0169301D01*
X0106063Y0169151D01*
X0106183Y0168999D01*
X0106298Y0168844D01*
X0106410Y0168687D01*
X0106518Y0168526D01*
X0106622Y0168363D01*
X0106722Y0168198D01*
X0106818Y0168030D01*
X0106910Y0167860D01*
X0106997Y0167688D01*
X0107081Y0167513D01*
X0107160Y0167337D01*
X0107235Y0167159D01*
X0107306Y0166979D01*
X0107372Y0166797D01*
X0107434Y0166614D01*
X0107492Y0166430D01*
X0107545Y0166244D01*
X0107594Y0166057D01*
X0107638Y0165868D01*
X0107677Y0165679D01*
X0107712Y0165489D01*
X0107742Y0165298D01*
X0107768Y0165106D01*
X0107789Y0164914D01*
X0107805Y0164721D01*
X0107817Y0164529D01*
X0107824Y0164335D01*
X0107826Y0164142D01*
X0107826Y0010142D01*
X0107824Y0009949D01*
X0107817Y0009755D01*
X0107805Y0009563D01*
X0107789Y0009370D01*
X0107768Y0009178D01*
X0107742Y0008986D01*
X0107712Y0008795D01*
X0107677Y0008605D01*
X0107638Y0008416D01*
X0107594Y0008227D01*
X0107545Y0008040D01*
X0107492Y0007854D01*
X0107434Y0007670D01*
X0107372Y0007487D01*
X0107306Y0007305D01*
X0107235Y0007125D01*
X0107160Y0006947D01*
X0107081Y0006771D01*
X0106997Y0006596D01*
X0106910Y0006424D01*
X0106818Y0006254D01*
X0106722Y0006086D01*
X0106622Y0005921D01*
X0106518Y0005758D01*
X0106410Y0005597D01*
X0106298Y0005440D01*
X0106183Y0005285D01*
X0106063Y0005133D01*
X0105941Y0004983D01*
X0105814Y0004837D01*
X0105684Y0004694D01*
X0105551Y0004554D01*
X0105414Y0004417D01*
X0105274Y0004284D01*
X0105131Y0004154D01*
X0104985Y0004027D01*
X0104835Y0003905D01*
X0104683Y0003785D01*
X0104528Y0003670D01*
X0104371Y0003558D01*
X0104210Y0003450D01*
X0104047Y0003346D01*
X0103882Y0003246D01*
X0103714Y0003150D01*
X0103544Y0003058D01*
X0103372Y0002971D01*
X0103197Y0002887D01*
X0103021Y0002808D01*
X0102843Y0002733D01*
X0102663Y0002662D01*
X0102481Y0002596D01*
X0102298Y0002534D01*
X0102114Y0002476D01*
X0101928Y0002423D01*
X0101741Y0002374D01*
X0101552Y0002330D01*
X0101363Y0002291D01*
X0101173Y0002256D01*
X0100982Y0002226D01*
X0100790Y0002200D01*
X0100598Y0002179D01*
X0100405Y0002163D01*
X0100213Y0002151D01*
X0100019Y0002144D01*
X0099826Y0002142D01*
X0045826Y0002142D01*
X0045633Y0002144D01*
X0045439Y0002151D01*
X0045247Y0002163D01*
X0045054Y0002179D01*
X0044862Y0002200D01*
X0044670Y0002226D01*
X0044479Y0002256D01*
X0044289Y0002291D01*
X0044100Y0002330D01*
X0043911Y0002374D01*
X0043724Y0002423D01*
X0043538Y0002476D01*
X0043354Y0002534D01*
X0043171Y0002596D01*
X0042989Y0002662D01*
X0042809Y0002733D01*
X0042631Y0002808D01*
X0042455Y0002887D01*
X0042280Y0002971D01*
X0042108Y0003058D01*
X0041938Y0003150D01*
X0041770Y0003246D01*
X0041605Y0003346D01*
X0041442Y0003450D01*
X0041281Y0003558D01*
X0041124Y0003670D01*
X0040969Y0003785D01*
X0040817Y0003905D01*
X0040667Y0004027D01*
X0040521Y0004154D01*
X0040378Y0004284D01*
X0040238Y0004417D01*
X0040101Y0004554D01*
X0039968Y0004694D01*
X0039838Y0004837D01*
X0039711Y0004983D01*
X0039589Y0005133D01*
X0039469Y0005285D01*
X0039354Y0005440D01*
X0039242Y0005597D01*
X0039134Y0005758D01*
X0039030Y0005921D01*
X0038930Y0006086D01*
X0038834Y0006254D01*
X0038742Y0006424D01*
X0038655Y0006596D01*
X0038571Y0006771D01*
X0038492Y0006947D01*
X0038417Y0007125D01*
X0038346Y0007305D01*
X0038280Y0007487D01*
X0038218Y0007670D01*
X0038160Y0007854D01*
X0038107Y0008040D01*
X0038058Y0008227D01*
X0038014Y0008416D01*
X0037975Y0008605D01*
X0037940Y0008795D01*
X0037910Y0008986D01*
X0037884Y0009178D01*
X0037863Y0009370D01*
X0037847Y0009563D01*
X0037835Y0009755D01*
X0037828Y0009949D01*
X0037826Y0010142D01*
D11*
X0040996Y0009642D02*
X0040998Y0009773D01*
X0041004Y0009905D01*
X0041014Y0010036D01*
X0041028Y0010166D01*
X0041046Y0010297D01*
X0041068Y0010426D01*
X0041093Y0010555D01*
X0041123Y0010683D01*
X0041157Y0010810D01*
X0041194Y0010936D01*
X0041235Y0011061D01*
X0041280Y0011185D01*
X0041329Y0011307D01*
X0041381Y0011427D01*
X0041437Y0011546D01*
X0041497Y0011663D01*
X0041560Y0011778D01*
X0041626Y0011892D01*
X0041696Y0012003D01*
X0041770Y0012112D01*
X0041846Y0012219D01*
X0041926Y0012323D01*
X0042009Y0012425D01*
X0042095Y0012525D01*
X0042184Y0012621D01*
X0042276Y0012715D01*
X0042371Y0012807D01*
X0042468Y0012895D01*
X0042568Y0012980D01*
X0042671Y0013062D01*
X0042776Y0013141D01*
X0042883Y0013217D01*
X0042993Y0013289D01*
X0043104Y0013359D01*
X0043218Y0013424D01*
X0043334Y0013487D01*
X0043452Y0013545D01*
X0043571Y0013600D01*
X0043692Y0013652D01*
X0043814Y0013700D01*
X0043938Y0013744D01*
X0044063Y0013784D01*
X0044189Y0013820D01*
X0044317Y0013853D01*
X0044445Y0013881D01*
X0044574Y0013906D01*
X0044704Y0013927D01*
X0044834Y0013944D01*
X0044965Y0013957D01*
X0045096Y0013966D01*
X0045227Y0013971D01*
X0045359Y0013972D01*
X0045490Y0013969D01*
X0045621Y0013962D01*
X0045752Y0013951D01*
X0045883Y0013936D01*
X0046013Y0013917D01*
X0046143Y0013894D01*
X0046271Y0013868D01*
X0046399Y0013837D01*
X0046526Y0013802D01*
X0046652Y0013764D01*
X0046776Y0013722D01*
X0046899Y0013676D01*
X0047021Y0013627D01*
X0047141Y0013573D01*
X0047260Y0013516D01*
X0047376Y0013456D01*
X0047491Y0013392D01*
X0047604Y0013324D01*
X0047715Y0013254D01*
X0047823Y0013179D01*
X0047929Y0013102D01*
X0048033Y0013021D01*
X0048134Y0012938D01*
X0048233Y0012851D01*
X0048329Y0012761D01*
X0048422Y0012669D01*
X0048513Y0012573D01*
X0048600Y0012475D01*
X0048685Y0012375D01*
X0048766Y0012271D01*
X0048844Y0012166D01*
X0048919Y0012058D01*
X0048991Y0011948D01*
X0049059Y0011835D01*
X0049124Y0011721D01*
X0049186Y0011605D01*
X0049243Y0011487D01*
X0049298Y0011367D01*
X0049348Y0011246D01*
X0049395Y0011123D01*
X0049438Y0010999D01*
X0049477Y0010873D01*
X0049513Y0010747D01*
X0049544Y0010619D01*
X0049572Y0010491D01*
X0049596Y0010362D01*
X0049616Y0010232D01*
X0049632Y0010101D01*
X0049644Y0009970D01*
X0049652Y0009839D01*
X0049656Y0009708D01*
X0049656Y0009576D01*
X0049652Y0009445D01*
X0049644Y0009314D01*
X0049632Y0009183D01*
X0049616Y0009052D01*
X0049596Y0008922D01*
X0049572Y0008793D01*
X0049544Y0008665D01*
X0049513Y0008537D01*
X0049477Y0008411D01*
X0049438Y0008285D01*
X0049395Y0008161D01*
X0049348Y0008038D01*
X0049298Y0007917D01*
X0049243Y0007797D01*
X0049186Y0007679D01*
X0049124Y0007563D01*
X0049059Y0007449D01*
X0048991Y0007336D01*
X0048919Y0007226D01*
X0048844Y0007118D01*
X0048766Y0007013D01*
X0048685Y0006909D01*
X0048600Y0006809D01*
X0048513Y0006711D01*
X0048422Y0006615D01*
X0048329Y0006523D01*
X0048233Y0006433D01*
X0048134Y0006346D01*
X0048033Y0006263D01*
X0047929Y0006182D01*
X0047823Y0006105D01*
X0047715Y0006030D01*
X0047604Y0005960D01*
X0047491Y0005892D01*
X0047376Y0005828D01*
X0047260Y0005768D01*
X0047141Y0005711D01*
X0047021Y0005657D01*
X0046899Y0005608D01*
X0046776Y0005562D01*
X0046652Y0005520D01*
X0046526Y0005482D01*
X0046399Y0005447D01*
X0046271Y0005416D01*
X0046143Y0005390D01*
X0046013Y0005367D01*
X0045883Y0005348D01*
X0045752Y0005333D01*
X0045621Y0005322D01*
X0045490Y0005315D01*
X0045359Y0005312D01*
X0045227Y0005313D01*
X0045096Y0005318D01*
X0044965Y0005327D01*
X0044834Y0005340D01*
X0044704Y0005357D01*
X0044574Y0005378D01*
X0044445Y0005403D01*
X0044317Y0005431D01*
X0044189Y0005464D01*
X0044063Y0005500D01*
X0043938Y0005540D01*
X0043814Y0005584D01*
X0043692Y0005632D01*
X0043571Y0005684D01*
X0043452Y0005739D01*
X0043334Y0005797D01*
X0043218Y0005860D01*
X0043104Y0005925D01*
X0042993Y0005995D01*
X0042883Y0006067D01*
X0042776Y0006143D01*
X0042671Y0006222D01*
X0042568Y0006304D01*
X0042468Y0006389D01*
X0042371Y0006477D01*
X0042276Y0006569D01*
X0042184Y0006663D01*
X0042095Y0006759D01*
X0042009Y0006859D01*
X0041926Y0006961D01*
X0041846Y0007065D01*
X0041770Y0007172D01*
X0041696Y0007281D01*
X0041626Y0007392D01*
X0041560Y0007506D01*
X0041497Y0007621D01*
X0041437Y0007738D01*
X0041381Y0007857D01*
X0041329Y0007977D01*
X0041280Y0008099D01*
X0041235Y0008223D01*
X0041194Y0008348D01*
X0041157Y0008474D01*
X0041123Y0008601D01*
X0041093Y0008729D01*
X0041068Y0008858D01*
X0041046Y0008987D01*
X0041028Y0009118D01*
X0041014Y0009248D01*
X0041004Y0009379D01*
X0040998Y0009511D01*
X0040996Y0009642D01*
X0095996Y0009642D02*
X0095998Y0009773D01*
X0096004Y0009905D01*
X0096014Y0010036D01*
X0096028Y0010166D01*
X0096046Y0010297D01*
X0096068Y0010426D01*
X0096093Y0010555D01*
X0096123Y0010683D01*
X0096157Y0010810D01*
X0096194Y0010936D01*
X0096235Y0011061D01*
X0096280Y0011185D01*
X0096329Y0011307D01*
X0096381Y0011427D01*
X0096437Y0011546D01*
X0096497Y0011663D01*
X0096560Y0011778D01*
X0096626Y0011892D01*
X0096696Y0012003D01*
X0096770Y0012112D01*
X0096846Y0012219D01*
X0096926Y0012323D01*
X0097009Y0012425D01*
X0097095Y0012525D01*
X0097184Y0012621D01*
X0097276Y0012715D01*
X0097371Y0012807D01*
X0097468Y0012895D01*
X0097568Y0012980D01*
X0097671Y0013062D01*
X0097776Y0013141D01*
X0097883Y0013217D01*
X0097993Y0013289D01*
X0098104Y0013359D01*
X0098218Y0013424D01*
X0098334Y0013487D01*
X0098452Y0013545D01*
X0098571Y0013600D01*
X0098692Y0013652D01*
X0098814Y0013700D01*
X0098938Y0013744D01*
X0099063Y0013784D01*
X0099189Y0013820D01*
X0099317Y0013853D01*
X0099445Y0013881D01*
X0099574Y0013906D01*
X0099704Y0013927D01*
X0099834Y0013944D01*
X0099965Y0013957D01*
X0100096Y0013966D01*
X0100227Y0013971D01*
X0100359Y0013972D01*
X0100490Y0013969D01*
X0100621Y0013962D01*
X0100752Y0013951D01*
X0100883Y0013936D01*
X0101013Y0013917D01*
X0101143Y0013894D01*
X0101271Y0013868D01*
X0101399Y0013837D01*
X0101526Y0013802D01*
X0101652Y0013764D01*
X0101776Y0013722D01*
X0101899Y0013676D01*
X0102021Y0013627D01*
X0102141Y0013573D01*
X0102260Y0013516D01*
X0102376Y0013456D01*
X0102491Y0013392D01*
X0102604Y0013324D01*
X0102715Y0013254D01*
X0102823Y0013179D01*
X0102929Y0013102D01*
X0103033Y0013021D01*
X0103134Y0012938D01*
X0103233Y0012851D01*
X0103329Y0012761D01*
X0103422Y0012669D01*
X0103513Y0012573D01*
X0103600Y0012475D01*
X0103685Y0012375D01*
X0103766Y0012271D01*
X0103844Y0012166D01*
X0103919Y0012058D01*
X0103991Y0011948D01*
X0104059Y0011835D01*
X0104124Y0011721D01*
X0104186Y0011605D01*
X0104243Y0011487D01*
X0104298Y0011367D01*
X0104348Y0011246D01*
X0104395Y0011123D01*
X0104438Y0010999D01*
X0104477Y0010873D01*
X0104513Y0010747D01*
X0104544Y0010619D01*
X0104572Y0010491D01*
X0104596Y0010362D01*
X0104616Y0010232D01*
X0104632Y0010101D01*
X0104644Y0009970D01*
X0104652Y0009839D01*
X0104656Y0009708D01*
X0104656Y0009576D01*
X0104652Y0009445D01*
X0104644Y0009314D01*
X0104632Y0009183D01*
X0104616Y0009052D01*
X0104596Y0008922D01*
X0104572Y0008793D01*
X0104544Y0008665D01*
X0104513Y0008537D01*
X0104477Y0008411D01*
X0104438Y0008285D01*
X0104395Y0008161D01*
X0104348Y0008038D01*
X0104298Y0007917D01*
X0104243Y0007797D01*
X0104186Y0007679D01*
X0104124Y0007563D01*
X0104059Y0007449D01*
X0103991Y0007336D01*
X0103919Y0007226D01*
X0103844Y0007118D01*
X0103766Y0007013D01*
X0103685Y0006909D01*
X0103600Y0006809D01*
X0103513Y0006711D01*
X0103422Y0006615D01*
X0103329Y0006523D01*
X0103233Y0006433D01*
X0103134Y0006346D01*
X0103033Y0006263D01*
X0102929Y0006182D01*
X0102823Y0006105D01*
X0102715Y0006030D01*
X0102604Y0005960D01*
X0102491Y0005892D01*
X0102376Y0005828D01*
X0102260Y0005768D01*
X0102141Y0005711D01*
X0102021Y0005657D01*
X0101899Y0005608D01*
X0101776Y0005562D01*
X0101652Y0005520D01*
X0101526Y0005482D01*
X0101399Y0005447D01*
X0101271Y0005416D01*
X0101143Y0005390D01*
X0101013Y0005367D01*
X0100883Y0005348D01*
X0100752Y0005333D01*
X0100621Y0005322D01*
X0100490Y0005315D01*
X0100359Y0005312D01*
X0100227Y0005313D01*
X0100096Y0005318D01*
X0099965Y0005327D01*
X0099834Y0005340D01*
X0099704Y0005357D01*
X0099574Y0005378D01*
X0099445Y0005403D01*
X0099317Y0005431D01*
X0099189Y0005464D01*
X0099063Y0005500D01*
X0098938Y0005540D01*
X0098814Y0005584D01*
X0098692Y0005632D01*
X0098571Y0005684D01*
X0098452Y0005739D01*
X0098334Y0005797D01*
X0098218Y0005860D01*
X0098104Y0005925D01*
X0097993Y0005995D01*
X0097883Y0006067D01*
X0097776Y0006143D01*
X0097671Y0006222D01*
X0097568Y0006304D01*
X0097468Y0006389D01*
X0097371Y0006477D01*
X0097276Y0006569D01*
X0097184Y0006663D01*
X0097095Y0006759D01*
X0097009Y0006859D01*
X0096926Y0006961D01*
X0096846Y0007065D01*
X0096770Y0007172D01*
X0096696Y0007281D01*
X0096626Y0007392D01*
X0096560Y0007506D01*
X0096497Y0007621D01*
X0096437Y0007738D01*
X0096381Y0007857D01*
X0096329Y0007977D01*
X0096280Y0008099D01*
X0096235Y0008223D01*
X0096194Y0008348D01*
X0096157Y0008474D01*
X0096123Y0008601D01*
X0096093Y0008729D01*
X0096068Y0008858D01*
X0096046Y0008987D01*
X0096028Y0009118D01*
X0096014Y0009248D01*
X0096004Y0009379D01*
X0095998Y0009511D01*
X0095996Y0009642D01*
X0083260Y0154745D02*
X0082078Y0154745D01*
X0080995Y0155827D02*
X0080997Y0155890D01*
X0081002Y0155953D01*
X0081011Y0156015D01*
X0081024Y0156077D01*
X0081040Y0156138D01*
X0081060Y0156197D01*
X0081084Y0156256D01*
X0081110Y0156313D01*
X0081140Y0156369D01*
X0081173Y0156422D01*
X0081209Y0156474D01*
X0081248Y0156523D01*
X0081290Y0156570D01*
X0081335Y0156615D01*
X0081382Y0156657D01*
X0081431Y0156696D01*
X0081483Y0156732D01*
X0081537Y0156765D01*
X0081592Y0156795D01*
X0081649Y0156821D01*
X0081708Y0156845D01*
X0081767Y0156865D01*
X0081828Y0156881D01*
X0081890Y0156894D01*
X0081952Y0156903D01*
X0082015Y0156908D01*
X0082078Y0156910D01*
X0083260Y0156910D01*
X0084343Y0155827D02*
X0084341Y0155764D01*
X0084336Y0155701D01*
X0084327Y0155639D01*
X0084314Y0155577D01*
X0084298Y0155516D01*
X0084278Y0155457D01*
X0084254Y0155398D01*
X0084228Y0155341D01*
X0084198Y0155286D01*
X0084165Y0155232D01*
X0084129Y0155180D01*
X0084090Y0155131D01*
X0084048Y0155084D01*
X0084003Y0155039D01*
X0083956Y0154997D01*
X0083907Y0154958D01*
X0083855Y0154922D01*
X0083802Y0154889D01*
X0083746Y0154859D01*
X0083689Y0154833D01*
X0083630Y0154809D01*
X0083571Y0154789D01*
X0083510Y0154773D01*
X0083448Y0154760D01*
X0083386Y0154751D01*
X0083323Y0154746D01*
X0083260Y0154744D01*
X0084343Y0155827D02*
X0084341Y0155890D01*
X0084336Y0155953D01*
X0084327Y0156015D01*
X0084314Y0156077D01*
X0084298Y0156138D01*
X0084278Y0156197D01*
X0084254Y0156256D01*
X0084228Y0156313D01*
X0084198Y0156369D01*
X0084165Y0156422D01*
X0084129Y0156474D01*
X0084090Y0156523D01*
X0084048Y0156570D01*
X0084003Y0156615D01*
X0083956Y0156657D01*
X0083907Y0156696D01*
X0083855Y0156732D01*
X0083802Y0156765D01*
X0083746Y0156795D01*
X0083689Y0156821D01*
X0083630Y0156845D01*
X0083571Y0156865D01*
X0083510Y0156881D01*
X0083448Y0156894D01*
X0083386Y0156903D01*
X0083323Y0156908D01*
X0083260Y0156910D01*
X0082078Y0154744D02*
X0082015Y0154746D01*
X0081952Y0154751D01*
X0081890Y0154760D01*
X0081828Y0154773D01*
X0081767Y0154789D01*
X0081708Y0154809D01*
X0081649Y0154833D01*
X0081592Y0154859D01*
X0081537Y0154889D01*
X0081483Y0154922D01*
X0081431Y0154958D01*
X0081382Y0154997D01*
X0081335Y0155039D01*
X0081290Y0155084D01*
X0081248Y0155131D01*
X0081209Y0155180D01*
X0081173Y0155232D01*
X0081140Y0155286D01*
X0081110Y0155341D01*
X0081084Y0155398D01*
X0081060Y0155457D01*
X0081040Y0155516D01*
X0081024Y0155577D01*
X0081011Y0155639D01*
X0081002Y0155701D01*
X0080997Y0155764D01*
X0080995Y0155827D01*
X0085622Y0165178D02*
X0085622Y0167737D01*
X0086606Y0168721D02*
X0086668Y0168719D01*
X0086729Y0168713D01*
X0086790Y0168704D01*
X0086851Y0168690D01*
X0086910Y0168673D01*
X0086968Y0168652D01*
X0087025Y0168627D01*
X0087080Y0168599D01*
X0087133Y0168568D01*
X0087184Y0168533D01*
X0087233Y0168495D01*
X0087280Y0168454D01*
X0087323Y0168411D01*
X0087364Y0168364D01*
X0087402Y0168315D01*
X0087437Y0168264D01*
X0087468Y0168211D01*
X0087496Y0168156D01*
X0087521Y0168099D01*
X0087542Y0168041D01*
X0087559Y0167982D01*
X0087573Y0167921D01*
X0087582Y0167860D01*
X0087588Y0167799D01*
X0087590Y0167737D01*
X0087590Y0165178D01*
X0086606Y0164194D02*
X0086544Y0164196D01*
X0086483Y0164202D01*
X0086422Y0164211D01*
X0086361Y0164225D01*
X0086302Y0164242D01*
X0086244Y0164263D01*
X0086187Y0164288D01*
X0086132Y0164316D01*
X0086079Y0164347D01*
X0086028Y0164382D01*
X0085979Y0164420D01*
X0085932Y0164461D01*
X0085889Y0164504D01*
X0085848Y0164551D01*
X0085810Y0164600D01*
X0085775Y0164651D01*
X0085744Y0164704D01*
X0085716Y0164759D01*
X0085691Y0164816D01*
X0085670Y0164874D01*
X0085653Y0164933D01*
X0085639Y0164994D01*
X0085630Y0165055D01*
X0085624Y0165116D01*
X0085622Y0165178D01*
X0086606Y0164194D02*
X0086668Y0164196D01*
X0086729Y0164202D01*
X0086790Y0164211D01*
X0086851Y0164225D01*
X0086910Y0164242D01*
X0086968Y0164263D01*
X0087025Y0164288D01*
X0087080Y0164316D01*
X0087133Y0164347D01*
X0087184Y0164382D01*
X0087233Y0164420D01*
X0087280Y0164461D01*
X0087323Y0164504D01*
X0087364Y0164551D01*
X0087402Y0164600D01*
X0087437Y0164651D01*
X0087468Y0164704D01*
X0087496Y0164759D01*
X0087521Y0164816D01*
X0087542Y0164874D01*
X0087559Y0164933D01*
X0087573Y0164994D01*
X0087582Y0165055D01*
X0087588Y0165116D01*
X0087590Y0165178D01*
X0085622Y0167737D02*
X0085624Y0167799D01*
X0085630Y0167860D01*
X0085639Y0167921D01*
X0085653Y0167982D01*
X0085670Y0168041D01*
X0085691Y0168099D01*
X0085716Y0168156D01*
X0085744Y0168211D01*
X0085775Y0168264D01*
X0085810Y0168315D01*
X0085848Y0168364D01*
X0085889Y0168411D01*
X0085932Y0168454D01*
X0085979Y0168495D01*
X0086028Y0168533D01*
X0086079Y0168568D01*
X0086132Y0168599D01*
X0086187Y0168627D01*
X0086244Y0168652D01*
X0086302Y0168673D01*
X0086361Y0168690D01*
X0086422Y0168704D01*
X0086483Y0168713D01*
X0086544Y0168719D01*
X0086606Y0168721D01*
X0095996Y0164642D02*
X0095998Y0164773D01*
X0096004Y0164905D01*
X0096014Y0165036D01*
X0096028Y0165166D01*
X0096046Y0165297D01*
X0096068Y0165426D01*
X0096093Y0165555D01*
X0096123Y0165683D01*
X0096157Y0165810D01*
X0096194Y0165936D01*
X0096235Y0166061D01*
X0096280Y0166185D01*
X0096329Y0166307D01*
X0096381Y0166427D01*
X0096437Y0166546D01*
X0096497Y0166663D01*
X0096560Y0166778D01*
X0096626Y0166892D01*
X0096696Y0167003D01*
X0096770Y0167112D01*
X0096846Y0167219D01*
X0096926Y0167323D01*
X0097009Y0167425D01*
X0097095Y0167525D01*
X0097184Y0167621D01*
X0097276Y0167715D01*
X0097371Y0167807D01*
X0097468Y0167895D01*
X0097568Y0167980D01*
X0097671Y0168062D01*
X0097776Y0168141D01*
X0097883Y0168217D01*
X0097993Y0168289D01*
X0098104Y0168359D01*
X0098218Y0168424D01*
X0098334Y0168487D01*
X0098452Y0168545D01*
X0098571Y0168600D01*
X0098692Y0168652D01*
X0098814Y0168700D01*
X0098938Y0168744D01*
X0099063Y0168784D01*
X0099189Y0168820D01*
X0099317Y0168853D01*
X0099445Y0168881D01*
X0099574Y0168906D01*
X0099704Y0168927D01*
X0099834Y0168944D01*
X0099965Y0168957D01*
X0100096Y0168966D01*
X0100227Y0168971D01*
X0100359Y0168972D01*
X0100490Y0168969D01*
X0100621Y0168962D01*
X0100752Y0168951D01*
X0100883Y0168936D01*
X0101013Y0168917D01*
X0101143Y0168894D01*
X0101271Y0168868D01*
X0101399Y0168837D01*
X0101526Y0168802D01*
X0101652Y0168764D01*
X0101776Y0168722D01*
X0101899Y0168676D01*
X0102021Y0168627D01*
X0102141Y0168573D01*
X0102260Y0168516D01*
X0102376Y0168456D01*
X0102491Y0168392D01*
X0102604Y0168324D01*
X0102715Y0168254D01*
X0102823Y0168179D01*
X0102929Y0168102D01*
X0103033Y0168021D01*
X0103134Y0167938D01*
X0103233Y0167851D01*
X0103329Y0167761D01*
X0103422Y0167669D01*
X0103513Y0167573D01*
X0103600Y0167475D01*
X0103685Y0167375D01*
X0103766Y0167271D01*
X0103844Y0167166D01*
X0103919Y0167058D01*
X0103991Y0166948D01*
X0104059Y0166835D01*
X0104124Y0166721D01*
X0104186Y0166605D01*
X0104243Y0166487D01*
X0104298Y0166367D01*
X0104348Y0166246D01*
X0104395Y0166123D01*
X0104438Y0165999D01*
X0104477Y0165873D01*
X0104513Y0165747D01*
X0104544Y0165619D01*
X0104572Y0165491D01*
X0104596Y0165362D01*
X0104616Y0165232D01*
X0104632Y0165101D01*
X0104644Y0164970D01*
X0104652Y0164839D01*
X0104656Y0164708D01*
X0104656Y0164576D01*
X0104652Y0164445D01*
X0104644Y0164314D01*
X0104632Y0164183D01*
X0104616Y0164052D01*
X0104596Y0163922D01*
X0104572Y0163793D01*
X0104544Y0163665D01*
X0104513Y0163537D01*
X0104477Y0163411D01*
X0104438Y0163285D01*
X0104395Y0163161D01*
X0104348Y0163038D01*
X0104298Y0162917D01*
X0104243Y0162797D01*
X0104186Y0162679D01*
X0104124Y0162563D01*
X0104059Y0162449D01*
X0103991Y0162336D01*
X0103919Y0162226D01*
X0103844Y0162118D01*
X0103766Y0162013D01*
X0103685Y0161909D01*
X0103600Y0161809D01*
X0103513Y0161711D01*
X0103422Y0161615D01*
X0103329Y0161523D01*
X0103233Y0161433D01*
X0103134Y0161346D01*
X0103033Y0161263D01*
X0102929Y0161182D01*
X0102823Y0161105D01*
X0102715Y0161030D01*
X0102604Y0160960D01*
X0102491Y0160892D01*
X0102376Y0160828D01*
X0102260Y0160768D01*
X0102141Y0160711D01*
X0102021Y0160657D01*
X0101899Y0160608D01*
X0101776Y0160562D01*
X0101652Y0160520D01*
X0101526Y0160482D01*
X0101399Y0160447D01*
X0101271Y0160416D01*
X0101143Y0160390D01*
X0101013Y0160367D01*
X0100883Y0160348D01*
X0100752Y0160333D01*
X0100621Y0160322D01*
X0100490Y0160315D01*
X0100359Y0160312D01*
X0100227Y0160313D01*
X0100096Y0160318D01*
X0099965Y0160327D01*
X0099834Y0160340D01*
X0099704Y0160357D01*
X0099574Y0160378D01*
X0099445Y0160403D01*
X0099317Y0160431D01*
X0099189Y0160464D01*
X0099063Y0160500D01*
X0098938Y0160540D01*
X0098814Y0160584D01*
X0098692Y0160632D01*
X0098571Y0160684D01*
X0098452Y0160739D01*
X0098334Y0160797D01*
X0098218Y0160860D01*
X0098104Y0160925D01*
X0097993Y0160995D01*
X0097883Y0161067D01*
X0097776Y0161143D01*
X0097671Y0161222D01*
X0097568Y0161304D01*
X0097468Y0161389D01*
X0097371Y0161477D01*
X0097276Y0161569D01*
X0097184Y0161663D01*
X0097095Y0161759D01*
X0097009Y0161859D01*
X0096926Y0161961D01*
X0096846Y0162065D01*
X0096770Y0162172D01*
X0096696Y0162281D01*
X0096626Y0162392D01*
X0096560Y0162506D01*
X0096497Y0162621D01*
X0096437Y0162738D01*
X0096381Y0162857D01*
X0096329Y0162977D01*
X0096280Y0163099D01*
X0096235Y0163223D01*
X0096194Y0163348D01*
X0096157Y0163474D01*
X0096123Y0163601D01*
X0096093Y0163729D01*
X0096068Y0163858D01*
X0096046Y0163987D01*
X0096028Y0164118D01*
X0096014Y0164248D01*
X0096004Y0164379D01*
X0095998Y0164511D01*
X0095996Y0164642D01*
X0063574Y0156910D02*
X0062393Y0156910D01*
X0062330Y0156908D01*
X0062267Y0156903D01*
X0062205Y0156894D01*
X0062143Y0156881D01*
X0062082Y0156865D01*
X0062023Y0156845D01*
X0061964Y0156821D01*
X0061907Y0156795D01*
X0061852Y0156765D01*
X0061798Y0156732D01*
X0061746Y0156696D01*
X0061697Y0156657D01*
X0061650Y0156615D01*
X0061605Y0156570D01*
X0061563Y0156523D01*
X0061524Y0156474D01*
X0061488Y0156422D01*
X0061455Y0156369D01*
X0061425Y0156313D01*
X0061399Y0156256D01*
X0061375Y0156197D01*
X0061355Y0156138D01*
X0061339Y0156077D01*
X0061326Y0156015D01*
X0061317Y0155953D01*
X0061312Y0155890D01*
X0061310Y0155827D01*
X0061312Y0155764D01*
X0061317Y0155701D01*
X0061326Y0155639D01*
X0061339Y0155577D01*
X0061355Y0155516D01*
X0061375Y0155457D01*
X0061399Y0155398D01*
X0061425Y0155341D01*
X0061455Y0155286D01*
X0061488Y0155232D01*
X0061524Y0155180D01*
X0061563Y0155131D01*
X0061605Y0155084D01*
X0061650Y0155039D01*
X0061697Y0154997D01*
X0061746Y0154958D01*
X0061798Y0154922D01*
X0061852Y0154889D01*
X0061907Y0154859D01*
X0061964Y0154833D01*
X0062023Y0154809D01*
X0062082Y0154789D01*
X0062143Y0154773D01*
X0062205Y0154760D01*
X0062267Y0154751D01*
X0062330Y0154746D01*
X0062393Y0154744D01*
X0062393Y0154745D02*
X0063574Y0154745D01*
X0063574Y0154744D02*
X0063637Y0154746D01*
X0063700Y0154751D01*
X0063762Y0154760D01*
X0063824Y0154773D01*
X0063885Y0154789D01*
X0063944Y0154809D01*
X0064003Y0154833D01*
X0064060Y0154859D01*
X0064116Y0154889D01*
X0064169Y0154922D01*
X0064221Y0154958D01*
X0064270Y0154997D01*
X0064317Y0155039D01*
X0064362Y0155084D01*
X0064404Y0155131D01*
X0064443Y0155180D01*
X0064479Y0155232D01*
X0064512Y0155286D01*
X0064542Y0155341D01*
X0064568Y0155398D01*
X0064592Y0155457D01*
X0064612Y0155516D01*
X0064628Y0155577D01*
X0064641Y0155639D01*
X0064650Y0155701D01*
X0064655Y0155764D01*
X0064657Y0155827D01*
X0064655Y0155890D01*
X0064650Y0155953D01*
X0064641Y0156015D01*
X0064628Y0156077D01*
X0064612Y0156138D01*
X0064592Y0156197D01*
X0064568Y0156256D01*
X0064542Y0156313D01*
X0064512Y0156369D01*
X0064479Y0156422D01*
X0064443Y0156474D01*
X0064404Y0156523D01*
X0064362Y0156570D01*
X0064317Y0156615D01*
X0064270Y0156657D01*
X0064221Y0156696D01*
X0064169Y0156732D01*
X0064116Y0156765D01*
X0064060Y0156795D01*
X0064003Y0156821D01*
X0063944Y0156845D01*
X0063885Y0156865D01*
X0063824Y0156881D01*
X0063762Y0156894D01*
X0063700Y0156903D01*
X0063637Y0156908D01*
X0063574Y0156910D01*
X0060031Y0165178D02*
X0060031Y0167737D01*
X0060029Y0167799D01*
X0060023Y0167860D01*
X0060014Y0167921D01*
X0060000Y0167982D01*
X0059983Y0168041D01*
X0059962Y0168099D01*
X0059937Y0168156D01*
X0059909Y0168211D01*
X0059878Y0168264D01*
X0059843Y0168315D01*
X0059805Y0168364D01*
X0059764Y0168411D01*
X0059721Y0168454D01*
X0059674Y0168495D01*
X0059625Y0168533D01*
X0059574Y0168568D01*
X0059521Y0168599D01*
X0059466Y0168627D01*
X0059409Y0168652D01*
X0059351Y0168673D01*
X0059292Y0168690D01*
X0059231Y0168704D01*
X0059170Y0168713D01*
X0059109Y0168719D01*
X0059047Y0168721D01*
X0058985Y0168719D01*
X0058924Y0168713D01*
X0058863Y0168704D01*
X0058802Y0168690D01*
X0058743Y0168673D01*
X0058685Y0168652D01*
X0058628Y0168627D01*
X0058573Y0168599D01*
X0058520Y0168568D01*
X0058469Y0168533D01*
X0058420Y0168495D01*
X0058373Y0168454D01*
X0058330Y0168411D01*
X0058289Y0168364D01*
X0058251Y0168315D01*
X0058216Y0168264D01*
X0058185Y0168211D01*
X0058157Y0168156D01*
X0058132Y0168099D01*
X0058111Y0168041D01*
X0058094Y0167982D01*
X0058080Y0167921D01*
X0058071Y0167860D01*
X0058065Y0167799D01*
X0058063Y0167737D01*
X0058063Y0165178D01*
X0058065Y0165116D01*
X0058071Y0165055D01*
X0058080Y0164994D01*
X0058094Y0164933D01*
X0058111Y0164874D01*
X0058132Y0164816D01*
X0058157Y0164759D01*
X0058185Y0164704D01*
X0058216Y0164651D01*
X0058251Y0164600D01*
X0058289Y0164551D01*
X0058330Y0164504D01*
X0058373Y0164461D01*
X0058420Y0164420D01*
X0058469Y0164382D01*
X0058520Y0164347D01*
X0058573Y0164316D01*
X0058628Y0164288D01*
X0058685Y0164263D01*
X0058743Y0164242D01*
X0058802Y0164225D01*
X0058863Y0164211D01*
X0058924Y0164202D01*
X0058985Y0164196D01*
X0059047Y0164194D01*
X0059109Y0164196D01*
X0059170Y0164202D01*
X0059231Y0164211D01*
X0059292Y0164225D01*
X0059351Y0164242D01*
X0059409Y0164263D01*
X0059466Y0164288D01*
X0059521Y0164316D01*
X0059574Y0164347D01*
X0059625Y0164382D01*
X0059674Y0164420D01*
X0059721Y0164461D01*
X0059764Y0164504D01*
X0059805Y0164551D01*
X0059843Y0164600D01*
X0059878Y0164651D01*
X0059909Y0164704D01*
X0059937Y0164759D01*
X0059962Y0164816D01*
X0059983Y0164874D01*
X0060000Y0164933D01*
X0060014Y0164994D01*
X0060023Y0165055D01*
X0060029Y0165116D01*
X0060031Y0165178D01*
X0040996Y0164642D02*
X0040998Y0164773D01*
X0041004Y0164905D01*
X0041014Y0165036D01*
X0041028Y0165166D01*
X0041046Y0165297D01*
X0041068Y0165426D01*
X0041093Y0165555D01*
X0041123Y0165683D01*
X0041157Y0165810D01*
X0041194Y0165936D01*
X0041235Y0166061D01*
X0041280Y0166185D01*
X0041329Y0166307D01*
X0041381Y0166427D01*
X0041437Y0166546D01*
X0041497Y0166663D01*
X0041560Y0166778D01*
X0041626Y0166892D01*
X0041696Y0167003D01*
X0041770Y0167112D01*
X0041846Y0167219D01*
X0041926Y0167323D01*
X0042009Y0167425D01*
X0042095Y0167525D01*
X0042184Y0167621D01*
X0042276Y0167715D01*
X0042371Y0167807D01*
X0042468Y0167895D01*
X0042568Y0167980D01*
X0042671Y0168062D01*
X0042776Y0168141D01*
X0042883Y0168217D01*
X0042993Y0168289D01*
X0043104Y0168359D01*
X0043218Y0168424D01*
X0043334Y0168487D01*
X0043452Y0168545D01*
X0043571Y0168600D01*
X0043692Y0168652D01*
X0043814Y0168700D01*
X0043938Y0168744D01*
X0044063Y0168784D01*
X0044189Y0168820D01*
X0044317Y0168853D01*
X0044445Y0168881D01*
X0044574Y0168906D01*
X0044704Y0168927D01*
X0044834Y0168944D01*
X0044965Y0168957D01*
X0045096Y0168966D01*
X0045227Y0168971D01*
X0045359Y0168972D01*
X0045490Y0168969D01*
X0045621Y0168962D01*
X0045752Y0168951D01*
X0045883Y0168936D01*
X0046013Y0168917D01*
X0046143Y0168894D01*
X0046271Y0168868D01*
X0046399Y0168837D01*
X0046526Y0168802D01*
X0046652Y0168764D01*
X0046776Y0168722D01*
X0046899Y0168676D01*
X0047021Y0168627D01*
X0047141Y0168573D01*
X0047260Y0168516D01*
X0047376Y0168456D01*
X0047491Y0168392D01*
X0047604Y0168324D01*
X0047715Y0168254D01*
X0047823Y0168179D01*
X0047929Y0168102D01*
X0048033Y0168021D01*
X0048134Y0167938D01*
X0048233Y0167851D01*
X0048329Y0167761D01*
X0048422Y0167669D01*
X0048513Y0167573D01*
X0048600Y0167475D01*
X0048685Y0167375D01*
X0048766Y0167271D01*
X0048844Y0167166D01*
X0048919Y0167058D01*
X0048991Y0166948D01*
X0049059Y0166835D01*
X0049124Y0166721D01*
X0049186Y0166605D01*
X0049243Y0166487D01*
X0049298Y0166367D01*
X0049348Y0166246D01*
X0049395Y0166123D01*
X0049438Y0165999D01*
X0049477Y0165873D01*
X0049513Y0165747D01*
X0049544Y0165619D01*
X0049572Y0165491D01*
X0049596Y0165362D01*
X0049616Y0165232D01*
X0049632Y0165101D01*
X0049644Y0164970D01*
X0049652Y0164839D01*
X0049656Y0164708D01*
X0049656Y0164576D01*
X0049652Y0164445D01*
X0049644Y0164314D01*
X0049632Y0164183D01*
X0049616Y0164052D01*
X0049596Y0163922D01*
X0049572Y0163793D01*
X0049544Y0163665D01*
X0049513Y0163537D01*
X0049477Y0163411D01*
X0049438Y0163285D01*
X0049395Y0163161D01*
X0049348Y0163038D01*
X0049298Y0162917D01*
X0049243Y0162797D01*
X0049186Y0162679D01*
X0049124Y0162563D01*
X0049059Y0162449D01*
X0048991Y0162336D01*
X0048919Y0162226D01*
X0048844Y0162118D01*
X0048766Y0162013D01*
X0048685Y0161909D01*
X0048600Y0161809D01*
X0048513Y0161711D01*
X0048422Y0161615D01*
X0048329Y0161523D01*
X0048233Y0161433D01*
X0048134Y0161346D01*
X0048033Y0161263D01*
X0047929Y0161182D01*
X0047823Y0161105D01*
X0047715Y0161030D01*
X0047604Y0160960D01*
X0047491Y0160892D01*
X0047376Y0160828D01*
X0047260Y0160768D01*
X0047141Y0160711D01*
X0047021Y0160657D01*
X0046899Y0160608D01*
X0046776Y0160562D01*
X0046652Y0160520D01*
X0046526Y0160482D01*
X0046399Y0160447D01*
X0046271Y0160416D01*
X0046143Y0160390D01*
X0046013Y0160367D01*
X0045883Y0160348D01*
X0045752Y0160333D01*
X0045621Y0160322D01*
X0045490Y0160315D01*
X0045359Y0160312D01*
X0045227Y0160313D01*
X0045096Y0160318D01*
X0044965Y0160327D01*
X0044834Y0160340D01*
X0044704Y0160357D01*
X0044574Y0160378D01*
X0044445Y0160403D01*
X0044317Y0160431D01*
X0044189Y0160464D01*
X0044063Y0160500D01*
X0043938Y0160540D01*
X0043814Y0160584D01*
X0043692Y0160632D01*
X0043571Y0160684D01*
X0043452Y0160739D01*
X0043334Y0160797D01*
X0043218Y0160860D01*
X0043104Y0160925D01*
X0042993Y0160995D01*
X0042883Y0161067D01*
X0042776Y0161143D01*
X0042671Y0161222D01*
X0042568Y0161304D01*
X0042468Y0161389D01*
X0042371Y0161477D01*
X0042276Y0161569D01*
X0042184Y0161663D01*
X0042095Y0161759D01*
X0042009Y0161859D01*
X0041926Y0161961D01*
X0041846Y0162065D01*
X0041770Y0162172D01*
X0041696Y0162281D01*
X0041626Y0162392D01*
X0041560Y0162506D01*
X0041497Y0162621D01*
X0041437Y0162738D01*
X0041381Y0162857D01*
X0041329Y0162977D01*
X0041280Y0163099D01*
X0041235Y0163223D01*
X0041194Y0163348D01*
X0041157Y0163474D01*
X0041123Y0163601D01*
X0041093Y0163729D01*
X0041068Y0163858D01*
X0041046Y0163987D01*
X0041028Y0164118D01*
X0041014Y0164248D01*
X0041004Y0164379D01*
X0040998Y0164511D01*
X0040996Y0164642D01*
M02*
