G75*
%MOIN*%
%OFA0B0*%
%FSLAX25Y25*%
%IPPOS*%
%LPD*%
%AMOC8*
5,1,8,0,0,1.08239X$1,22.5*
%
%ADD10C,0.09460*%
%ADD11C,0.08200*%
%ADD12C,0.01184*%
%ADD13C,0.00787*%
D10*
X0045326Y0008800D03*
X0100326Y0008800D03*
X0100326Y0163800D03*
X0045326Y0163800D03*
D11*
X0042826Y0021300D03*
X0042826Y0031300D03*
X0042826Y0041300D03*
X0042826Y0051300D03*
X0042826Y0061300D03*
X0042826Y0071300D03*
X0042826Y0081300D03*
X0042826Y0091300D03*
X0042826Y0101300D03*
X0042826Y0111300D03*
X0042826Y0121300D03*
X0042826Y0131300D03*
X0042826Y0141300D03*
X0042826Y0151300D03*
X0102826Y0151300D03*
X0102826Y0141300D03*
X0102826Y0131300D03*
X0102826Y0121300D03*
X0102826Y0111300D03*
X0102826Y0101300D03*
X0102826Y0091300D03*
X0102826Y0081300D03*
X0102826Y0071300D03*
X0102826Y0061300D03*
X0102826Y0051300D03*
X0102826Y0041300D03*
X0102826Y0031300D03*
X0102826Y0021300D03*
D12*
X0076956Y0112555D02*
X0076956Y0120045D01*
X0080508Y0120045D01*
X0080508Y0112555D01*
X0076956Y0112555D01*
X0076956Y0113738D02*
X0080508Y0113738D01*
X0080508Y0114921D02*
X0076956Y0114921D01*
X0076956Y0116104D02*
X0080508Y0116104D01*
X0080508Y0117287D02*
X0076956Y0117287D01*
X0076956Y0118470D02*
X0080508Y0118470D01*
X0080508Y0119653D02*
X0076956Y0119653D01*
X0074602Y0120045D02*
X0074602Y0112555D01*
X0071050Y0112555D01*
X0071050Y0120045D01*
X0074602Y0120045D01*
X0074602Y0113738D02*
X0071050Y0113738D01*
X0071050Y0114921D02*
X0074602Y0114921D01*
X0074602Y0116104D02*
X0071050Y0116104D01*
X0071050Y0117287D02*
X0074602Y0117287D01*
X0074602Y0118470D02*
X0071050Y0118470D01*
X0071050Y0119653D02*
X0074602Y0119653D01*
X0068697Y0120045D02*
X0068697Y0112555D01*
X0065145Y0112555D01*
X0065145Y0120045D01*
X0068697Y0120045D01*
X0068697Y0113738D02*
X0065145Y0113738D01*
X0065145Y0114921D02*
X0068697Y0114921D01*
X0068697Y0116104D02*
X0065145Y0116104D01*
X0065145Y0117287D02*
X0068697Y0117287D01*
X0068697Y0118470D02*
X0065145Y0118470D01*
X0065145Y0119653D02*
X0068697Y0119653D01*
D13*
X0063991Y0153162D02*
X0063574Y0153115D01*
X0062393Y0153115D01*
X0061977Y0153162D01*
X0061582Y0153300D01*
X0061227Y0153523D01*
X0060931Y0153819D01*
X0060709Y0154174D01*
X0060570Y0154569D01*
X0060523Y0154985D01*
X0060570Y0155401D01*
X0060709Y0155796D01*
X0060931Y0156151D01*
X0061227Y0156447D01*
X0061582Y0156670D01*
X0061977Y0156808D01*
X0062393Y0156855D01*
X0063574Y0156855D01*
X0063991Y0156808D01*
X0064386Y0156670D01*
X0064740Y0156447D01*
X0065037Y0156151D01*
X0065259Y0155796D01*
X0065398Y0155401D01*
X0065445Y0154985D01*
X0065398Y0154569D01*
X0065259Y0154174D01*
X0065037Y0153819D01*
X0064740Y0153523D01*
X0064386Y0153300D01*
X0063991Y0153162D01*
X0064985Y0153767D02*
X0060983Y0153767D01*
X0060576Y0154553D02*
X0065392Y0154553D01*
X0065405Y0155339D02*
X0060563Y0155339D01*
X0060915Y0156125D02*
X0065053Y0156125D01*
X0063771Y0162564D02*
X0063771Y0168666D01*
X0059047Y0168666D01*
X0058609Y0168617D01*
X0058193Y0168471D01*
X0057820Y0168237D01*
X0057508Y0167925D01*
X0057273Y0167552D01*
X0057128Y0167136D01*
X0057078Y0166698D01*
X0057078Y0164532D01*
X0057128Y0164094D01*
X0057273Y0163678D01*
X0057508Y0163305D01*
X0057820Y0162993D01*
X0058193Y0162759D01*
X0058609Y0162613D01*
X0059047Y0162564D01*
X0063771Y0162564D01*
X0063771Y0163198D02*
X0057615Y0163198D01*
X0057166Y0163984D02*
X0063771Y0163984D01*
X0063771Y0164770D02*
X0057078Y0164770D01*
X0057078Y0165556D02*
X0063771Y0165556D01*
X0063771Y0166342D02*
X0057078Y0166342D01*
X0057127Y0167128D02*
X0063771Y0167128D01*
X0063771Y0167914D02*
X0057501Y0167914D01*
X0080394Y0155796D02*
X0080255Y0155401D01*
X0080208Y0154985D01*
X0080255Y0154569D01*
X0080394Y0154174D01*
X0080616Y0153819D01*
X0080912Y0153523D01*
X0081267Y0153300D01*
X0081662Y0153162D01*
X0082078Y0153115D01*
X0083260Y0153115D01*
X0083676Y0153162D01*
X0084071Y0153300D01*
X0084426Y0153523D01*
X0084722Y0153819D01*
X0084944Y0154174D01*
X0085083Y0154569D01*
X0085130Y0154985D01*
X0085083Y0155401D01*
X0084944Y0155796D01*
X0084722Y0156151D01*
X0084426Y0156447D01*
X0084071Y0156670D01*
X0083676Y0156808D01*
X0083260Y0156855D01*
X0082078Y0156855D01*
X0081662Y0156808D01*
X0081267Y0156670D01*
X0080912Y0156447D01*
X0080616Y0156151D01*
X0080394Y0155796D01*
X0080600Y0156125D02*
X0084738Y0156125D01*
X0085090Y0155339D02*
X0080248Y0155339D01*
X0080261Y0154553D02*
X0085077Y0154553D01*
X0084670Y0153767D02*
X0080668Y0153767D01*
X0081882Y0162564D02*
X0081882Y0168666D01*
X0086606Y0168666D01*
X0087044Y0168617D01*
X0087460Y0168471D01*
X0087833Y0168237D01*
X0088145Y0167925D01*
X0088380Y0167552D01*
X0088525Y0167136D01*
X0088574Y0166698D01*
X0088574Y0164532D01*
X0088525Y0164094D01*
X0088380Y0163678D01*
X0088145Y0163305D01*
X0087833Y0162993D01*
X0087460Y0162759D01*
X0087044Y0162613D01*
X0086606Y0162564D01*
X0081882Y0162564D01*
X0081882Y0163198D02*
X0088038Y0163198D01*
X0088487Y0163984D02*
X0081882Y0163984D01*
X0081882Y0164770D02*
X0088574Y0164770D01*
X0088574Y0165556D02*
X0081882Y0165556D01*
X0081882Y0166342D02*
X0088574Y0166342D01*
X0088526Y0167128D02*
X0081882Y0167128D01*
X0081882Y0167914D02*
X0088152Y0167914D01*
M02*
