G75*
%MOIN*%
%OFA0B0*%
%FSLAX25Y25*%
%IPPOS*%
%LPD*%
%AMOC8*
5,1,8,0,0,1.08239X$1,22.5*
%
%ADD10C,0.00100*%
%ADD11C,0.00000*%
D10*
X0037826Y0009300D02*
X0037826Y0163300D01*
X0037828Y0163493D01*
X0037835Y0163687D01*
X0037847Y0163879D01*
X0037863Y0164072D01*
X0037884Y0164264D01*
X0037910Y0164456D01*
X0037940Y0164647D01*
X0037975Y0164837D01*
X0038014Y0165026D01*
X0038058Y0165215D01*
X0038107Y0165402D01*
X0038160Y0165588D01*
X0038218Y0165772D01*
X0038280Y0165955D01*
X0038346Y0166137D01*
X0038417Y0166317D01*
X0038492Y0166495D01*
X0038571Y0166671D01*
X0038655Y0166846D01*
X0038742Y0167018D01*
X0038834Y0167188D01*
X0038930Y0167356D01*
X0039030Y0167521D01*
X0039134Y0167684D01*
X0039242Y0167845D01*
X0039354Y0168002D01*
X0039469Y0168157D01*
X0039589Y0168309D01*
X0039711Y0168459D01*
X0039838Y0168605D01*
X0039968Y0168748D01*
X0040101Y0168888D01*
X0040238Y0169025D01*
X0040378Y0169158D01*
X0040521Y0169288D01*
X0040667Y0169415D01*
X0040817Y0169537D01*
X0040969Y0169657D01*
X0041124Y0169772D01*
X0041281Y0169884D01*
X0041442Y0169992D01*
X0041605Y0170096D01*
X0041770Y0170196D01*
X0041938Y0170292D01*
X0042108Y0170384D01*
X0042280Y0170471D01*
X0042455Y0170555D01*
X0042631Y0170634D01*
X0042809Y0170709D01*
X0042989Y0170780D01*
X0043171Y0170846D01*
X0043354Y0170908D01*
X0043538Y0170966D01*
X0043724Y0171019D01*
X0043911Y0171068D01*
X0044100Y0171112D01*
X0044289Y0171151D01*
X0044479Y0171186D01*
X0044670Y0171216D01*
X0044862Y0171242D01*
X0045054Y0171263D01*
X0045247Y0171279D01*
X0045439Y0171291D01*
X0045633Y0171298D01*
X0045826Y0171300D01*
X0099826Y0171300D01*
X0100019Y0171298D01*
X0100213Y0171291D01*
X0100405Y0171279D01*
X0100598Y0171263D01*
X0100790Y0171242D01*
X0100982Y0171216D01*
X0101173Y0171186D01*
X0101363Y0171151D01*
X0101552Y0171112D01*
X0101741Y0171068D01*
X0101928Y0171019D01*
X0102114Y0170966D01*
X0102298Y0170908D01*
X0102481Y0170846D01*
X0102663Y0170780D01*
X0102843Y0170709D01*
X0103021Y0170634D01*
X0103197Y0170555D01*
X0103372Y0170471D01*
X0103544Y0170384D01*
X0103714Y0170292D01*
X0103882Y0170196D01*
X0104047Y0170096D01*
X0104210Y0169992D01*
X0104371Y0169884D01*
X0104528Y0169772D01*
X0104683Y0169657D01*
X0104835Y0169537D01*
X0104985Y0169415D01*
X0105131Y0169288D01*
X0105274Y0169158D01*
X0105414Y0169025D01*
X0105551Y0168888D01*
X0105684Y0168748D01*
X0105814Y0168605D01*
X0105941Y0168459D01*
X0106063Y0168309D01*
X0106183Y0168157D01*
X0106298Y0168002D01*
X0106410Y0167845D01*
X0106518Y0167684D01*
X0106622Y0167521D01*
X0106722Y0167356D01*
X0106818Y0167188D01*
X0106910Y0167018D01*
X0106997Y0166846D01*
X0107081Y0166671D01*
X0107160Y0166495D01*
X0107235Y0166317D01*
X0107306Y0166137D01*
X0107372Y0165955D01*
X0107434Y0165772D01*
X0107492Y0165588D01*
X0107545Y0165402D01*
X0107594Y0165215D01*
X0107638Y0165026D01*
X0107677Y0164837D01*
X0107712Y0164647D01*
X0107742Y0164456D01*
X0107768Y0164264D01*
X0107789Y0164072D01*
X0107805Y0163879D01*
X0107817Y0163687D01*
X0107824Y0163493D01*
X0107826Y0163300D01*
X0107826Y0009300D01*
X0107824Y0009107D01*
X0107817Y0008913D01*
X0107805Y0008721D01*
X0107789Y0008528D01*
X0107768Y0008336D01*
X0107742Y0008144D01*
X0107712Y0007953D01*
X0107677Y0007763D01*
X0107638Y0007574D01*
X0107594Y0007385D01*
X0107545Y0007198D01*
X0107492Y0007012D01*
X0107434Y0006828D01*
X0107372Y0006645D01*
X0107306Y0006463D01*
X0107235Y0006283D01*
X0107160Y0006105D01*
X0107081Y0005929D01*
X0106997Y0005754D01*
X0106910Y0005582D01*
X0106818Y0005412D01*
X0106722Y0005244D01*
X0106622Y0005079D01*
X0106518Y0004916D01*
X0106410Y0004755D01*
X0106298Y0004598D01*
X0106183Y0004443D01*
X0106063Y0004291D01*
X0105941Y0004141D01*
X0105814Y0003995D01*
X0105684Y0003852D01*
X0105551Y0003712D01*
X0105414Y0003575D01*
X0105274Y0003442D01*
X0105131Y0003312D01*
X0104985Y0003185D01*
X0104835Y0003063D01*
X0104683Y0002943D01*
X0104528Y0002828D01*
X0104371Y0002716D01*
X0104210Y0002608D01*
X0104047Y0002504D01*
X0103882Y0002404D01*
X0103714Y0002308D01*
X0103544Y0002216D01*
X0103372Y0002129D01*
X0103197Y0002045D01*
X0103021Y0001966D01*
X0102843Y0001891D01*
X0102663Y0001820D01*
X0102481Y0001754D01*
X0102298Y0001692D01*
X0102114Y0001634D01*
X0101928Y0001581D01*
X0101741Y0001532D01*
X0101552Y0001488D01*
X0101363Y0001449D01*
X0101173Y0001414D01*
X0100982Y0001384D01*
X0100790Y0001358D01*
X0100598Y0001337D01*
X0100405Y0001321D01*
X0100213Y0001309D01*
X0100019Y0001302D01*
X0099826Y0001300D01*
X0045826Y0001300D01*
X0045633Y0001302D01*
X0045439Y0001309D01*
X0045247Y0001321D01*
X0045054Y0001337D01*
X0044862Y0001358D01*
X0044670Y0001384D01*
X0044479Y0001414D01*
X0044289Y0001449D01*
X0044100Y0001488D01*
X0043911Y0001532D01*
X0043724Y0001581D01*
X0043538Y0001634D01*
X0043354Y0001692D01*
X0043171Y0001754D01*
X0042989Y0001820D01*
X0042809Y0001891D01*
X0042631Y0001966D01*
X0042455Y0002045D01*
X0042280Y0002129D01*
X0042108Y0002216D01*
X0041938Y0002308D01*
X0041770Y0002404D01*
X0041605Y0002504D01*
X0041442Y0002608D01*
X0041281Y0002716D01*
X0041124Y0002828D01*
X0040969Y0002943D01*
X0040817Y0003063D01*
X0040667Y0003185D01*
X0040521Y0003312D01*
X0040378Y0003442D01*
X0040238Y0003575D01*
X0040101Y0003712D01*
X0039968Y0003852D01*
X0039838Y0003995D01*
X0039711Y0004141D01*
X0039589Y0004291D01*
X0039469Y0004443D01*
X0039354Y0004598D01*
X0039242Y0004755D01*
X0039134Y0004916D01*
X0039030Y0005079D01*
X0038930Y0005244D01*
X0038834Y0005412D01*
X0038742Y0005582D01*
X0038655Y0005754D01*
X0038571Y0005929D01*
X0038492Y0006105D01*
X0038417Y0006283D01*
X0038346Y0006463D01*
X0038280Y0006645D01*
X0038218Y0006828D01*
X0038160Y0007012D01*
X0038107Y0007198D01*
X0038058Y0007385D01*
X0038014Y0007574D01*
X0037975Y0007763D01*
X0037940Y0007953D01*
X0037910Y0008144D01*
X0037884Y0008336D01*
X0037863Y0008528D01*
X0037847Y0008721D01*
X0037835Y0008913D01*
X0037828Y0009107D01*
X0037826Y0009300D01*
D11*
X0040996Y0008800D02*
X0040998Y0008931D01*
X0041004Y0009063D01*
X0041014Y0009194D01*
X0041028Y0009324D01*
X0041046Y0009455D01*
X0041068Y0009584D01*
X0041093Y0009713D01*
X0041123Y0009841D01*
X0041157Y0009968D01*
X0041194Y0010094D01*
X0041235Y0010219D01*
X0041280Y0010343D01*
X0041329Y0010465D01*
X0041381Y0010585D01*
X0041437Y0010704D01*
X0041497Y0010821D01*
X0041560Y0010936D01*
X0041626Y0011050D01*
X0041696Y0011161D01*
X0041770Y0011270D01*
X0041846Y0011377D01*
X0041926Y0011481D01*
X0042009Y0011583D01*
X0042095Y0011683D01*
X0042184Y0011779D01*
X0042276Y0011873D01*
X0042371Y0011965D01*
X0042468Y0012053D01*
X0042568Y0012138D01*
X0042671Y0012220D01*
X0042776Y0012299D01*
X0042883Y0012375D01*
X0042993Y0012447D01*
X0043104Y0012517D01*
X0043218Y0012582D01*
X0043334Y0012645D01*
X0043452Y0012703D01*
X0043571Y0012758D01*
X0043692Y0012810D01*
X0043814Y0012858D01*
X0043938Y0012902D01*
X0044063Y0012942D01*
X0044189Y0012978D01*
X0044317Y0013011D01*
X0044445Y0013039D01*
X0044574Y0013064D01*
X0044704Y0013085D01*
X0044834Y0013102D01*
X0044965Y0013115D01*
X0045096Y0013124D01*
X0045227Y0013129D01*
X0045359Y0013130D01*
X0045490Y0013127D01*
X0045621Y0013120D01*
X0045752Y0013109D01*
X0045883Y0013094D01*
X0046013Y0013075D01*
X0046143Y0013052D01*
X0046271Y0013026D01*
X0046399Y0012995D01*
X0046526Y0012960D01*
X0046652Y0012922D01*
X0046776Y0012880D01*
X0046899Y0012834D01*
X0047021Y0012785D01*
X0047141Y0012731D01*
X0047260Y0012674D01*
X0047376Y0012614D01*
X0047491Y0012550D01*
X0047604Y0012482D01*
X0047715Y0012412D01*
X0047823Y0012337D01*
X0047929Y0012260D01*
X0048033Y0012179D01*
X0048134Y0012096D01*
X0048233Y0012009D01*
X0048329Y0011919D01*
X0048422Y0011827D01*
X0048513Y0011731D01*
X0048600Y0011633D01*
X0048685Y0011533D01*
X0048766Y0011429D01*
X0048844Y0011324D01*
X0048919Y0011216D01*
X0048991Y0011106D01*
X0049059Y0010993D01*
X0049124Y0010879D01*
X0049186Y0010763D01*
X0049243Y0010645D01*
X0049298Y0010525D01*
X0049348Y0010404D01*
X0049395Y0010281D01*
X0049438Y0010157D01*
X0049477Y0010031D01*
X0049513Y0009905D01*
X0049544Y0009777D01*
X0049572Y0009649D01*
X0049596Y0009520D01*
X0049616Y0009390D01*
X0049632Y0009259D01*
X0049644Y0009128D01*
X0049652Y0008997D01*
X0049656Y0008866D01*
X0049656Y0008734D01*
X0049652Y0008603D01*
X0049644Y0008472D01*
X0049632Y0008341D01*
X0049616Y0008210D01*
X0049596Y0008080D01*
X0049572Y0007951D01*
X0049544Y0007823D01*
X0049513Y0007695D01*
X0049477Y0007569D01*
X0049438Y0007443D01*
X0049395Y0007319D01*
X0049348Y0007196D01*
X0049298Y0007075D01*
X0049243Y0006955D01*
X0049186Y0006837D01*
X0049124Y0006721D01*
X0049059Y0006607D01*
X0048991Y0006494D01*
X0048919Y0006384D01*
X0048844Y0006276D01*
X0048766Y0006171D01*
X0048685Y0006067D01*
X0048600Y0005967D01*
X0048513Y0005869D01*
X0048422Y0005773D01*
X0048329Y0005681D01*
X0048233Y0005591D01*
X0048134Y0005504D01*
X0048033Y0005421D01*
X0047929Y0005340D01*
X0047823Y0005263D01*
X0047715Y0005188D01*
X0047604Y0005118D01*
X0047491Y0005050D01*
X0047376Y0004986D01*
X0047260Y0004926D01*
X0047141Y0004869D01*
X0047021Y0004815D01*
X0046899Y0004766D01*
X0046776Y0004720D01*
X0046652Y0004678D01*
X0046526Y0004640D01*
X0046399Y0004605D01*
X0046271Y0004574D01*
X0046143Y0004548D01*
X0046013Y0004525D01*
X0045883Y0004506D01*
X0045752Y0004491D01*
X0045621Y0004480D01*
X0045490Y0004473D01*
X0045359Y0004470D01*
X0045227Y0004471D01*
X0045096Y0004476D01*
X0044965Y0004485D01*
X0044834Y0004498D01*
X0044704Y0004515D01*
X0044574Y0004536D01*
X0044445Y0004561D01*
X0044317Y0004589D01*
X0044189Y0004622D01*
X0044063Y0004658D01*
X0043938Y0004698D01*
X0043814Y0004742D01*
X0043692Y0004790D01*
X0043571Y0004842D01*
X0043452Y0004897D01*
X0043334Y0004955D01*
X0043218Y0005018D01*
X0043104Y0005083D01*
X0042993Y0005153D01*
X0042883Y0005225D01*
X0042776Y0005301D01*
X0042671Y0005380D01*
X0042568Y0005462D01*
X0042468Y0005547D01*
X0042371Y0005635D01*
X0042276Y0005727D01*
X0042184Y0005821D01*
X0042095Y0005917D01*
X0042009Y0006017D01*
X0041926Y0006119D01*
X0041846Y0006223D01*
X0041770Y0006330D01*
X0041696Y0006439D01*
X0041626Y0006550D01*
X0041560Y0006664D01*
X0041497Y0006779D01*
X0041437Y0006896D01*
X0041381Y0007015D01*
X0041329Y0007135D01*
X0041280Y0007257D01*
X0041235Y0007381D01*
X0041194Y0007506D01*
X0041157Y0007632D01*
X0041123Y0007759D01*
X0041093Y0007887D01*
X0041068Y0008016D01*
X0041046Y0008145D01*
X0041028Y0008276D01*
X0041014Y0008406D01*
X0041004Y0008537D01*
X0040998Y0008669D01*
X0040996Y0008800D01*
X0095996Y0008800D02*
X0095998Y0008931D01*
X0096004Y0009063D01*
X0096014Y0009194D01*
X0096028Y0009324D01*
X0096046Y0009455D01*
X0096068Y0009584D01*
X0096093Y0009713D01*
X0096123Y0009841D01*
X0096157Y0009968D01*
X0096194Y0010094D01*
X0096235Y0010219D01*
X0096280Y0010343D01*
X0096329Y0010465D01*
X0096381Y0010585D01*
X0096437Y0010704D01*
X0096497Y0010821D01*
X0096560Y0010936D01*
X0096626Y0011050D01*
X0096696Y0011161D01*
X0096770Y0011270D01*
X0096846Y0011377D01*
X0096926Y0011481D01*
X0097009Y0011583D01*
X0097095Y0011683D01*
X0097184Y0011779D01*
X0097276Y0011873D01*
X0097371Y0011965D01*
X0097468Y0012053D01*
X0097568Y0012138D01*
X0097671Y0012220D01*
X0097776Y0012299D01*
X0097883Y0012375D01*
X0097993Y0012447D01*
X0098104Y0012517D01*
X0098218Y0012582D01*
X0098334Y0012645D01*
X0098452Y0012703D01*
X0098571Y0012758D01*
X0098692Y0012810D01*
X0098814Y0012858D01*
X0098938Y0012902D01*
X0099063Y0012942D01*
X0099189Y0012978D01*
X0099317Y0013011D01*
X0099445Y0013039D01*
X0099574Y0013064D01*
X0099704Y0013085D01*
X0099834Y0013102D01*
X0099965Y0013115D01*
X0100096Y0013124D01*
X0100227Y0013129D01*
X0100359Y0013130D01*
X0100490Y0013127D01*
X0100621Y0013120D01*
X0100752Y0013109D01*
X0100883Y0013094D01*
X0101013Y0013075D01*
X0101143Y0013052D01*
X0101271Y0013026D01*
X0101399Y0012995D01*
X0101526Y0012960D01*
X0101652Y0012922D01*
X0101776Y0012880D01*
X0101899Y0012834D01*
X0102021Y0012785D01*
X0102141Y0012731D01*
X0102260Y0012674D01*
X0102376Y0012614D01*
X0102491Y0012550D01*
X0102604Y0012482D01*
X0102715Y0012412D01*
X0102823Y0012337D01*
X0102929Y0012260D01*
X0103033Y0012179D01*
X0103134Y0012096D01*
X0103233Y0012009D01*
X0103329Y0011919D01*
X0103422Y0011827D01*
X0103513Y0011731D01*
X0103600Y0011633D01*
X0103685Y0011533D01*
X0103766Y0011429D01*
X0103844Y0011324D01*
X0103919Y0011216D01*
X0103991Y0011106D01*
X0104059Y0010993D01*
X0104124Y0010879D01*
X0104186Y0010763D01*
X0104243Y0010645D01*
X0104298Y0010525D01*
X0104348Y0010404D01*
X0104395Y0010281D01*
X0104438Y0010157D01*
X0104477Y0010031D01*
X0104513Y0009905D01*
X0104544Y0009777D01*
X0104572Y0009649D01*
X0104596Y0009520D01*
X0104616Y0009390D01*
X0104632Y0009259D01*
X0104644Y0009128D01*
X0104652Y0008997D01*
X0104656Y0008866D01*
X0104656Y0008734D01*
X0104652Y0008603D01*
X0104644Y0008472D01*
X0104632Y0008341D01*
X0104616Y0008210D01*
X0104596Y0008080D01*
X0104572Y0007951D01*
X0104544Y0007823D01*
X0104513Y0007695D01*
X0104477Y0007569D01*
X0104438Y0007443D01*
X0104395Y0007319D01*
X0104348Y0007196D01*
X0104298Y0007075D01*
X0104243Y0006955D01*
X0104186Y0006837D01*
X0104124Y0006721D01*
X0104059Y0006607D01*
X0103991Y0006494D01*
X0103919Y0006384D01*
X0103844Y0006276D01*
X0103766Y0006171D01*
X0103685Y0006067D01*
X0103600Y0005967D01*
X0103513Y0005869D01*
X0103422Y0005773D01*
X0103329Y0005681D01*
X0103233Y0005591D01*
X0103134Y0005504D01*
X0103033Y0005421D01*
X0102929Y0005340D01*
X0102823Y0005263D01*
X0102715Y0005188D01*
X0102604Y0005118D01*
X0102491Y0005050D01*
X0102376Y0004986D01*
X0102260Y0004926D01*
X0102141Y0004869D01*
X0102021Y0004815D01*
X0101899Y0004766D01*
X0101776Y0004720D01*
X0101652Y0004678D01*
X0101526Y0004640D01*
X0101399Y0004605D01*
X0101271Y0004574D01*
X0101143Y0004548D01*
X0101013Y0004525D01*
X0100883Y0004506D01*
X0100752Y0004491D01*
X0100621Y0004480D01*
X0100490Y0004473D01*
X0100359Y0004470D01*
X0100227Y0004471D01*
X0100096Y0004476D01*
X0099965Y0004485D01*
X0099834Y0004498D01*
X0099704Y0004515D01*
X0099574Y0004536D01*
X0099445Y0004561D01*
X0099317Y0004589D01*
X0099189Y0004622D01*
X0099063Y0004658D01*
X0098938Y0004698D01*
X0098814Y0004742D01*
X0098692Y0004790D01*
X0098571Y0004842D01*
X0098452Y0004897D01*
X0098334Y0004955D01*
X0098218Y0005018D01*
X0098104Y0005083D01*
X0097993Y0005153D01*
X0097883Y0005225D01*
X0097776Y0005301D01*
X0097671Y0005380D01*
X0097568Y0005462D01*
X0097468Y0005547D01*
X0097371Y0005635D01*
X0097276Y0005727D01*
X0097184Y0005821D01*
X0097095Y0005917D01*
X0097009Y0006017D01*
X0096926Y0006119D01*
X0096846Y0006223D01*
X0096770Y0006330D01*
X0096696Y0006439D01*
X0096626Y0006550D01*
X0096560Y0006664D01*
X0096497Y0006779D01*
X0096437Y0006896D01*
X0096381Y0007015D01*
X0096329Y0007135D01*
X0096280Y0007257D01*
X0096235Y0007381D01*
X0096194Y0007506D01*
X0096157Y0007632D01*
X0096123Y0007759D01*
X0096093Y0007887D01*
X0096068Y0008016D01*
X0096046Y0008145D01*
X0096028Y0008276D01*
X0096014Y0008406D01*
X0096004Y0008537D01*
X0095998Y0008669D01*
X0095996Y0008800D01*
X0083260Y0153902D02*
X0082078Y0153902D01*
X0080995Y0154985D02*
X0080997Y0155048D01*
X0081002Y0155111D01*
X0081011Y0155173D01*
X0081024Y0155235D01*
X0081040Y0155296D01*
X0081060Y0155355D01*
X0081084Y0155414D01*
X0081110Y0155471D01*
X0081140Y0155527D01*
X0081173Y0155580D01*
X0081209Y0155632D01*
X0081248Y0155681D01*
X0081290Y0155728D01*
X0081335Y0155773D01*
X0081382Y0155815D01*
X0081431Y0155854D01*
X0081483Y0155890D01*
X0081537Y0155923D01*
X0081592Y0155953D01*
X0081649Y0155979D01*
X0081708Y0156003D01*
X0081767Y0156023D01*
X0081828Y0156039D01*
X0081890Y0156052D01*
X0081952Y0156061D01*
X0082015Y0156066D01*
X0082078Y0156068D01*
X0083260Y0156068D01*
X0084343Y0154985D02*
X0084341Y0154922D01*
X0084336Y0154859D01*
X0084327Y0154797D01*
X0084314Y0154735D01*
X0084298Y0154674D01*
X0084278Y0154615D01*
X0084254Y0154556D01*
X0084228Y0154499D01*
X0084198Y0154444D01*
X0084165Y0154390D01*
X0084129Y0154338D01*
X0084090Y0154289D01*
X0084048Y0154242D01*
X0084003Y0154197D01*
X0083956Y0154155D01*
X0083907Y0154116D01*
X0083855Y0154080D01*
X0083802Y0154047D01*
X0083746Y0154017D01*
X0083689Y0153991D01*
X0083630Y0153967D01*
X0083571Y0153947D01*
X0083510Y0153931D01*
X0083448Y0153918D01*
X0083386Y0153909D01*
X0083323Y0153904D01*
X0083260Y0153902D01*
X0084343Y0154985D02*
X0084341Y0155048D01*
X0084336Y0155111D01*
X0084327Y0155173D01*
X0084314Y0155235D01*
X0084298Y0155296D01*
X0084278Y0155355D01*
X0084254Y0155414D01*
X0084228Y0155471D01*
X0084198Y0155527D01*
X0084165Y0155580D01*
X0084129Y0155632D01*
X0084090Y0155681D01*
X0084048Y0155728D01*
X0084003Y0155773D01*
X0083956Y0155815D01*
X0083907Y0155854D01*
X0083855Y0155890D01*
X0083802Y0155923D01*
X0083746Y0155953D01*
X0083689Y0155979D01*
X0083630Y0156003D01*
X0083571Y0156023D01*
X0083510Y0156039D01*
X0083448Y0156052D01*
X0083386Y0156061D01*
X0083323Y0156066D01*
X0083260Y0156068D01*
X0082078Y0153902D02*
X0082015Y0153904D01*
X0081952Y0153909D01*
X0081890Y0153918D01*
X0081828Y0153931D01*
X0081767Y0153947D01*
X0081708Y0153967D01*
X0081649Y0153991D01*
X0081592Y0154017D01*
X0081537Y0154047D01*
X0081483Y0154080D01*
X0081431Y0154116D01*
X0081382Y0154155D01*
X0081335Y0154197D01*
X0081290Y0154242D01*
X0081248Y0154289D01*
X0081209Y0154338D01*
X0081173Y0154390D01*
X0081140Y0154444D01*
X0081110Y0154499D01*
X0081084Y0154556D01*
X0081060Y0154615D01*
X0081040Y0154674D01*
X0081024Y0154735D01*
X0081011Y0154797D01*
X0081002Y0154859D01*
X0080997Y0154922D01*
X0080995Y0154985D01*
X0085622Y0164335D02*
X0085622Y0166894D01*
X0086606Y0167878D02*
X0086668Y0167876D01*
X0086729Y0167870D01*
X0086790Y0167861D01*
X0086851Y0167847D01*
X0086910Y0167830D01*
X0086968Y0167809D01*
X0087025Y0167784D01*
X0087080Y0167756D01*
X0087133Y0167725D01*
X0087184Y0167690D01*
X0087233Y0167652D01*
X0087280Y0167611D01*
X0087323Y0167568D01*
X0087364Y0167521D01*
X0087402Y0167472D01*
X0087437Y0167421D01*
X0087468Y0167368D01*
X0087496Y0167313D01*
X0087521Y0167256D01*
X0087542Y0167198D01*
X0087559Y0167139D01*
X0087573Y0167078D01*
X0087582Y0167017D01*
X0087588Y0166956D01*
X0087590Y0166894D01*
X0087590Y0164335D01*
X0086606Y0163351D02*
X0086544Y0163353D01*
X0086483Y0163359D01*
X0086422Y0163368D01*
X0086361Y0163382D01*
X0086302Y0163399D01*
X0086244Y0163420D01*
X0086187Y0163445D01*
X0086132Y0163473D01*
X0086079Y0163504D01*
X0086028Y0163539D01*
X0085979Y0163577D01*
X0085932Y0163618D01*
X0085889Y0163661D01*
X0085848Y0163708D01*
X0085810Y0163757D01*
X0085775Y0163808D01*
X0085744Y0163861D01*
X0085716Y0163916D01*
X0085691Y0163973D01*
X0085670Y0164031D01*
X0085653Y0164090D01*
X0085639Y0164151D01*
X0085630Y0164212D01*
X0085624Y0164273D01*
X0085622Y0164335D01*
X0086606Y0163351D02*
X0086668Y0163353D01*
X0086729Y0163359D01*
X0086790Y0163368D01*
X0086851Y0163382D01*
X0086910Y0163399D01*
X0086968Y0163420D01*
X0087025Y0163445D01*
X0087080Y0163473D01*
X0087133Y0163504D01*
X0087184Y0163539D01*
X0087233Y0163577D01*
X0087280Y0163618D01*
X0087323Y0163661D01*
X0087364Y0163708D01*
X0087402Y0163757D01*
X0087437Y0163808D01*
X0087468Y0163861D01*
X0087496Y0163916D01*
X0087521Y0163973D01*
X0087542Y0164031D01*
X0087559Y0164090D01*
X0087573Y0164151D01*
X0087582Y0164212D01*
X0087588Y0164273D01*
X0087590Y0164335D01*
X0085622Y0166894D02*
X0085624Y0166956D01*
X0085630Y0167017D01*
X0085639Y0167078D01*
X0085653Y0167139D01*
X0085670Y0167198D01*
X0085691Y0167256D01*
X0085716Y0167313D01*
X0085744Y0167368D01*
X0085775Y0167421D01*
X0085810Y0167472D01*
X0085848Y0167521D01*
X0085889Y0167568D01*
X0085932Y0167611D01*
X0085979Y0167652D01*
X0086028Y0167690D01*
X0086079Y0167725D01*
X0086132Y0167756D01*
X0086187Y0167784D01*
X0086244Y0167809D01*
X0086302Y0167830D01*
X0086361Y0167847D01*
X0086422Y0167861D01*
X0086483Y0167870D01*
X0086544Y0167876D01*
X0086606Y0167878D01*
X0095996Y0163800D02*
X0095998Y0163931D01*
X0096004Y0164063D01*
X0096014Y0164194D01*
X0096028Y0164324D01*
X0096046Y0164455D01*
X0096068Y0164584D01*
X0096093Y0164713D01*
X0096123Y0164841D01*
X0096157Y0164968D01*
X0096194Y0165094D01*
X0096235Y0165219D01*
X0096280Y0165343D01*
X0096329Y0165465D01*
X0096381Y0165585D01*
X0096437Y0165704D01*
X0096497Y0165821D01*
X0096560Y0165936D01*
X0096626Y0166050D01*
X0096696Y0166161D01*
X0096770Y0166270D01*
X0096846Y0166377D01*
X0096926Y0166481D01*
X0097009Y0166583D01*
X0097095Y0166683D01*
X0097184Y0166779D01*
X0097276Y0166873D01*
X0097371Y0166965D01*
X0097468Y0167053D01*
X0097568Y0167138D01*
X0097671Y0167220D01*
X0097776Y0167299D01*
X0097883Y0167375D01*
X0097993Y0167447D01*
X0098104Y0167517D01*
X0098218Y0167582D01*
X0098334Y0167645D01*
X0098452Y0167703D01*
X0098571Y0167758D01*
X0098692Y0167810D01*
X0098814Y0167858D01*
X0098938Y0167902D01*
X0099063Y0167942D01*
X0099189Y0167978D01*
X0099317Y0168011D01*
X0099445Y0168039D01*
X0099574Y0168064D01*
X0099704Y0168085D01*
X0099834Y0168102D01*
X0099965Y0168115D01*
X0100096Y0168124D01*
X0100227Y0168129D01*
X0100359Y0168130D01*
X0100490Y0168127D01*
X0100621Y0168120D01*
X0100752Y0168109D01*
X0100883Y0168094D01*
X0101013Y0168075D01*
X0101143Y0168052D01*
X0101271Y0168026D01*
X0101399Y0167995D01*
X0101526Y0167960D01*
X0101652Y0167922D01*
X0101776Y0167880D01*
X0101899Y0167834D01*
X0102021Y0167785D01*
X0102141Y0167731D01*
X0102260Y0167674D01*
X0102376Y0167614D01*
X0102491Y0167550D01*
X0102604Y0167482D01*
X0102715Y0167412D01*
X0102823Y0167337D01*
X0102929Y0167260D01*
X0103033Y0167179D01*
X0103134Y0167096D01*
X0103233Y0167009D01*
X0103329Y0166919D01*
X0103422Y0166827D01*
X0103513Y0166731D01*
X0103600Y0166633D01*
X0103685Y0166533D01*
X0103766Y0166429D01*
X0103844Y0166324D01*
X0103919Y0166216D01*
X0103991Y0166106D01*
X0104059Y0165993D01*
X0104124Y0165879D01*
X0104186Y0165763D01*
X0104243Y0165645D01*
X0104298Y0165525D01*
X0104348Y0165404D01*
X0104395Y0165281D01*
X0104438Y0165157D01*
X0104477Y0165031D01*
X0104513Y0164905D01*
X0104544Y0164777D01*
X0104572Y0164649D01*
X0104596Y0164520D01*
X0104616Y0164390D01*
X0104632Y0164259D01*
X0104644Y0164128D01*
X0104652Y0163997D01*
X0104656Y0163866D01*
X0104656Y0163734D01*
X0104652Y0163603D01*
X0104644Y0163472D01*
X0104632Y0163341D01*
X0104616Y0163210D01*
X0104596Y0163080D01*
X0104572Y0162951D01*
X0104544Y0162823D01*
X0104513Y0162695D01*
X0104477Y0162569D01*
X0104438Y0162443D01*
X0104395Y0162319D01*
X0104348Y0162196D01*
X0104298Y0162075D01*
X0104243Y0161955D01*
X0104186Y0161837D01*
X0104124Y0161721D01*
X0104059Y0161607D01*
X0103991Y0161494D01*
X0103919Y0161384D01*
X0103844Y0161276D01*
X0103766Y0161171D01*
X0103685Y0161067D01*
X0103600Y0160967D01*
X0103513Y0160869D01*
X0103422Y0160773D01*
X0103329Y0160681D01*
X0103233Y0160591D01*
X0103134Y0160504D01*
X0103033Y0160421D01*
X0102929Y0160340D01*
X0102823Y0160263D01*
X0102715Y0160188D01*
X0102604Y0160118D01*
X0102491Y0160050D01*
X0102376Y0159986D01*
X0102260Y0159926D01*
X0102141Y0159869D01*
X0102021Y0159815D01*
X0101899Y0159766D01*
X0101776Y0159720D01*
X0101652Y0159678D01*
X0101526Y0159640D01*
X0101399Y0159605D01*
X0101271Y0159574D01*
X0101143Y0159548D01*
X0101013Y0159525D01*
X0100883Y0159506D01*
X0100752Y0159491D01*
X0100621Y0159480D01*
X0100490Y0159473D01*
X0100359Y0159470D01*
X0100227Y0159471D01*
X0100096Y0159476D01*
X0099965Y0159485D01*
X0099834Y0159498D01*
X0099704Y0159515D01*
X0099574Y0159536D01*
X0099445Y0159561D01*
X0099317Y0159589D01*
X0099189Y0159622D01*
X0099063Y0159658D01*
X0098938Y0159698D01*
X0098814Y0159742D01*
X0098692Y0159790D01*
X0098571Y0159842D01*
X0098452Y0159897D01*
X0098334Y0159955D01*
X0098218Y0160018D01*
X0098104Y0160083D01*
X0097993Y0160153D01*
X0097883Y0160225D01*
X0097776Y0160301D01*
X0097671Y0160380D01*
X0097568Y0160462D01*
X0097468Y0160547D01*
X0097371Y0160635D01*
X0097276Y0160727D01*
X0097184Y0160821D01*
X0097095Y0160917D01*
X0097009Y0161017D01*
X0096926Y0161119D01*
X0096846Y0161223D01*
X0096770Y0161330D01*
X0096696Y0161439D01*
X0096626Y0161550D01*
X0096560Y0161664D01*
X0096497Y0161779D01*
X0096437Y0161896D01*
X0096381Y0162015D01*
X0096329Y0162135D01*
X0096280Y0162257D01*
X0096235Y0162381D01*
X0096194Y0162506D01*
X0096157Y0162632D01*
X0096123Y0162759D01*
X0096093Y0162887D01*
X0096068Y0163016D01*
X0096046Y0163145D01*
X0096028Y0163276D01*
X0096014Y0163406D01*
X0096004Y0163537D01*
X0095998Y0163669D01*
X0095996Y0163800D01*
X0063574Y0156068D02*
X0062393Y0156068D01*
X0062330Y0156066D01*
X0062267Y0156061D01*
X0062205Y0156052D01*
X0062143Y0156039D01*
X0062082Y0156023D01*
X0062023Y0156003D01*
X0061964Y0155979D01*
X0061907Y0155953D01*
X0061852Y0155923D01*
X0061798Y0155890D01*
X0061746Y0155854D01*
X0061697Y0155815D01*
X0061650Y0155773D01*
X0061605Y0155728D01*
X0061563Y0155681D01*
X0061524Y0155632D01*
X0061488Y0155580D01*
X0061455Y0155527D01*
X0061425Y0155471D01*
X0061399Y0155414D01*
X0061375Y0155355D01*
X0061355Y0155296D01*
X0061339Y0155235D01*
X0061326Y0155173D01*
X0061317Y0155111D01*
X0061312Y0155048D01*
X0061310Y0154985D01*
X0061312Y0154922D01*
X0061317Y0154859D01*
X0061326Y0154797D01*
X0061339Y0154735D01*
X0061355Y0154674D01*
X0061375Y0154615D01*
X0061399Y0154556D01*
X0061425Y0154499D01*
X0061455Y0154444D01*
X0061488Y0154390D01*
X0061524Y0154338D01*
X0061563Y0154289D01*
X0061605Y0154242D01*
X0061650Y0154197D01*
X0061697Y0154155D01*
X0061746Y0154116D01*
X0061798Y0154080D01*
X0061852Y0154047D01*
X0061907Y0154017D01*
X0061964Y0153991D01*
X0062023Y0153967D01*
X0062082Y0153947D01*
X0062143Y0153931D01*
X0062205Y0153918D01*
X0062267Y0153909D01*
X0062330Y0153904D01*
X0062393Y0153902D01*
X0063574Y0153902D01*
X0063637Y0153904D01*
X0063700Y0153909D01*
X0063762Y0153918D01*
X0063824Y0153931D01*
X0063885Y0153947D01*
X0063944Y0153967D01*
X0064003Y0153991D01*
X0064060Y0154017D01*
X0064116Y0154047D01*
X0064169Y0154080D01*
X0064221Y0154116D01*
X0064270Y0154155D01*
X0064317Y0154197D01*
X0064362Y0154242D01*
X0064404Y0154289D01*
X0064443Y0154338D01*
X0064479Y0154390D01*
X0064512Y0154444D01*
X0064542Y0154499D01*
X0064568Y0154556D01*
X0064592Y0154615D01*
X0064612Y0154674D01*
X0064628Y0154735D01*
X0064641Y0154797D01*
X0064650Y0154859D01*
X0064655Y0154922D01*
X0064657Y0154985D01*
X0064655Y0155048D01*
X0064650Y0155111D01*
X0064641Y0155173D01*
X0064628Y0155235D01*
X0064612Y0155296D01*
X0064592Y0155355D01*
X0064568Y0155414D01*
X0064542Y0155471D01*
X0064512Y0155527D01*
X0064479Y0155580D01*
X0064443Y0155632D01*
X0064404Y0155681D01*
X0064362Y0155728D01*
X0064317Y0155773D01*
X0064270Y0155815D01*
X0064221Y0155854D01*
X0064169Y0155890D01*
X0064116Y0155923D01*
X0064060Y0155953D01*
X0064003Y0155979D01*
X0063944Y0156003D01*
X0063885Y0156023D01*
X0063824Y0156039D01*
X0063762Y0156052D01*
X0063700Y0156061D01*
X0063637Y0156066D01*
X0063574Y0156068D01*
X0060031Y0164335D02*
X0060031Y0166894D01*
X0060029Y0166956D01*
X0060023Y0167017D01*
X0060014Y0167078D01*
X0060000Y0167139D01*
X0059983Y0167198D01*
X0059962Y0167256D01*
X0059937Y0167313D01*
X0059909Y0167368D01*
X0059878Y0167421D01*
X0059843Y0167472D01*
X0059805Y0167521D01*
X0059764Y0167568D01*
X0059721Y0167611D01*
X0059674Y0167652D01*
X0059625Y0167690D01*
X0059574Y0167725D01*
X0059521Y0167756D01*
X0059466Y0167784D01*
X0059409Y0167809D01*
X0059351Y0167830D01*
X0059292Y0167847D01*
X0059231Y0167861D01*
X0059170Y0167870D01*
X0059109Y0167876D01*
X0059047Y0167878D01*
X0058985Y0167876D01*
X0058924Y0167870D01*
X0058863Y0167861D01*
X0058802Y0167847D01*
X0058743Y0167830D01*
X0058685Y0167809D01*
X0058628Y0167784D01*
X0058573Y0167756D01*
X0058520Y0167725D01*
X0058469Y0167690D01*
X0058420Y0167652D01*
X0058373Y0167611D01*
X0058330Y0167568D01*
X0058289Y0167521D01*
X0058251Y0167472D01*
X0058216Y0167421D01*
X0058185Y0167368D01*
X0058157Y0167313D01*
X0058132Y0167256D01*
X0058111Y0167198D01*
X0058094Y0167139D01*
X0058080Y0167078D01*
X0058071Y0167017D01*
X0058065Y0166956D01*
X0058063Y0166894D01*
X0058063Y0164335D01*
X0058065Y0164273D01*
X0058071Y0164212D01*
X0058080Y0164151D01*
X0058094Y0164090D01*
X0058111Y0164031D01*
X0058132Y0163973D01*
X0058157Y0163916D01*
X0058185Y0163861D01*
X0058216Y0163808D01*
X0058251Y0163757D01*
X0058289Y0163708D01*
X0058330Y0163661D01*
X0058373Y0163618D01*
X0058420Y0163577D01*
X0058469Y0163539D01*
X0058520Y0163504D01*
X0058573Y0163473D01*
X0058628Y0163445D01*
X0058685Y0163420D01*
X0058743Y0163399D01*
X0058802Y0163382D01*
X0058863Y0163368D01*
X0058924Y0163359D01*
X0058985Y0163353D01*
X0059047Y0163351D01*
X0059109Y0163353D01*
X0059170Y0163359D01*
X0059231Y0163368D01*
X0059292Y0163382D01*
X0059351Y0163399D01*
X0059409Y0163420D01*
X0059466Y0163445D01*
X0059521Y0163473D01*
X0059574Y0163504D01*
X0059625Y0163539D01*
X0059674Y0163577D01*
X0059721Y0163618D01*
X0059764Y0163661D01*
X0059805Y0163708D01*
X0059843Y0163757D01*
X0059878Y0163808D01*
X0059909Y0163861D01*
X0059937Y0163916D01*
X0059962Y0163973D01*
X0059983Y0164031D01*
X0060000Y0164090D01*
X0060014Y0164151D01*
X0060023Y0164212D01*
X0060029Y0164273D01*
X0060031Y0164335D01*
X0040996Y0163800D02*
X0040998Y0163931D01*
X0041004Y0164063D01*
X0041014Y0164194D01*
X0041028Y0164324D01*
X0041046Y0164455D01*
X0041068Y0164584D01*
X0041093Y0164713D01*
X0041123Y0164841D01*
X0041157Y0164968D01*
X0041194Y0165094D01*
X0041235Y0165219D01*
X0041280Y0165343D01*
X0041329Y0165465D01*
X0041381Y0165585D01*
X0041437Y0165704D01*
X0041497Y0165821D01*
X0041560Y0165936D01*
X0041626Y0166050D01*
X0041696Y0166161D01*
X0041770Y0166270D01*
X0041846Y0166377D01*
X0041926Y0166481D01*
X0042009Y0166583D01*
X0042095Y0166683D01*
X0042184Y0166779D01*
X0042276Y0166873D01*
X0042371Y0166965D01*
X0042468Y0167053D01*
X0042568Y0167138D01*
X0042671Y0167220D01*
X0042776Y0167299D01*
X0042883Y0167375D01*
X0042993Y0167447D01*
X0043104Y0167517D01*
X0043218Y0167582D01*
X0043334Y0167645D01*
X0043452Y0167703D01*
X0043571Y0167758D01*
X0043692Y0167810D01*
X0043814Y0167858D01*
X0043938Y0167902D01*
X0044063Y0167942D01*
X0044189Y0167978D01*
X0044317Y0168011D01*
X0044445Y0168039D01*
X0044574Y0168064D01*
X0044704Y0168085D01*
X0044834Y0168102D01*
X0044965Y0168115D01*
X0045096Y0168124D01*
X0045227Y0168129D01*
X0045359Y0168130D01*
X0045490Y0168127D01*
X0045621Y0168120D01*
X0045752Y0168109D01*
X0045883Y0168094D01*
X0046013Y0168075D01*
X0046143Y0168052D01*
X0046271Y0168026D01*
X0046399Y0167995D01*
X0046526Y0167960D01*
X0046652Y0167922D01*
X0046776Y0167880D01*
X0046899Y0167834D01*
X0047021Y0167785D01*
X0047141Y0167731D01*
X0047260Y0167674D01*
X0047376Y0167614D01*
X0047491Y0167550D01*
X0047604Y0167482D01*
X0047715Y0167412D01*
X0047823Y0167337D01*
X0047929Y0167260D01*
X0048033Y0167179D01*
X0048134Y0167096D01*
X0048233Y0167009D01*
X0048329Y0166919D01*
X0048422Y0166827D01*
X0048513Y0166731D01*
X0048600Y0166633D01*
X0048685Y0166533D01*
X0048766Y0166429D01*
X0048844Y0166324D01*
X0048919Y0166216D01*
X0048991Y0166106D01*
X0049059Y0165993D01*
X0049124Y0165879D01*
X0049186Y0165763D01*
X0049243Y0165645D01*
X0049298Y0165525D01*
X0049348Y0165404D01*
X0049395Y0165281D01*
X0049438Y0165157D01*
X0049477Y0165031D01*
X0049513Y0164905D01*
X0049544Y0164777D01*
X0049572Y0164649D01*
X0049596Y0164520D01*
X0049616Y0164390D01*
X0049632Y0164259D01*
X0049644Y0164128D01*
X0049652Y0163997D01*
X0049656Y0163866D01*
X0049656Y0163734D01*
X0049652Y0163603D01*
X0049644Y0163472D01*
X0049632Y0163341D01*
X0049616Y0163210D01*
X0049596Y0163080D01*
X0049572Y0162951D01*
X0049544Y0162823D01*
X0049513Y0162695D01*
X0049477Y0162569D01*
X0049438Y0162443D01*
X0049395Y0162319D01*
X0049348Y0162196D01*
X0049298Y0162075D01*
X0049243Y0161955D01*
X0049186Y0161837D01*
X0049124Y0161721D01*
X0049059Y0161607D01*
X0048991Y0161494D01*
X0048919Y0161384D01*
X0048844Y0161276D01*
X0048766Y0161171D01*
X0048685Y0161067D01*
X0048600Y0160967D01*
X0048513Y0160869D01*
X0048422Y0160773D01*
X0048329Y0160681D01*
X0048233Y0160591D01*
X0048134Y0160504D01*
X0048033Y0160421D01*
X0047929Y0160340D01*
X0047823Y0160263D01*
X0047715Y0160188D01*
X0047604Y0160118D01*
X0047491Y0160050D01*
X0047376Y0159986D01*
X0047260Y0159926D01*
X0047141Y0159869D01*
X0047021Y0159815D01*
X0046899Y0159766D01*
X0046776Y0159720D01*
X0046652Y0159678D01*
X0046526Y0159640D01*
X0046399Y0159605D01*
X0046271Y0159574D01*
X0046143Y0159548D01*
X0046013Y0159525D01*
X0045883Y0159506D01*
X0045752Y0159491D01*
X0045621Y0159480D01*
X0045490Y0159473D01*
X0045359Y0159470D01*
X0045227Y0159471D01*
X0045096Y0159476D01*
X0044965Y0159485D01*
X0044834Y0159498D01*
X0044704Y0159515D01*
X0044574Y0159536D01*
X0044445Y0159561D01*
X0044317Y0159589D01*
X0044189Y0159622D01*
X0044063Y0159658D01*
X0043938Y0159698D01*
X0043814Y0159742D01*
X0043692Y0159790D01*
X0043571Y0159842D01*
X0043452Y0159897D01*
X0043334Y0159955D01*
X0043218Y0160018D01*
X0043104Y0160083D01*
X0042993Y0160153D01*
X0042883Y0160225D01*
X0042776Y0160301D01*
X0042671Y0160380D01*
X0042568Y0160462D01*
X0042468Y0160547D01*
X0042371Y0160635D01*
X0042276Y0160727D01*
X0042184Y0160821D01*
X0042095Y0160917D01*
X0042009Y0161017D01*
X0041926Y0161119D01*
X0041846Y0161223D01*
X0041770Y0161330D01*
X0041696Y0161439D01*
X0041626Y0161550D01*
X0041560Y0161664D01*
X0041497Y0161779D01*
X0041437Y0161896D01*
X0041381Y0162015D01*
X0041329Y0162135D01*
X0041280Y0162257D01*
X0041235Y0162381D01*
X0041194Y0162506D01*
X0041157Y0162632D01*
X0041123Y0162759D01*
X0041093Y0162887D01*
X0041068Y0163016D01*
X0041046Y0163145D01*
X0041028Y0163276D01*
X0041014Y0163406D01*
X0041004Y0163537D01*
X0040998Y0163669D01*
X0040996Y0163800D01*
M02*
