G75*
%MOIN*%
%OFA0B0*%
%FSLAX25Y25*%
%IPPOS*%
%LPD*%
%AMOC8*
5,1,8,0,0,1.08239X$1,22.5*
%
%ADD10R,0.03543X0.02756*%
%ADD11R,0.05906X0.05118*%
%ADD12R,0.05118X0.05906*%
%ADD13R,0.02756X0.03543*%
%ADD14R,0.04724X0.04724*%
%ADD15R,0.03937X0.03937*%
%ADD16C,0.00098*%
%ADD17R,0.06299X0.06299*%
%ADD18R,0.01969X0.03937*%
%ADD19C,0.01181*%
%ADD20R,0.09843X0.09843*%
%ADD21R,0.01181X0.06299*%
%ADD22C,0.00620*%
%ADD23R,0.01575X0.05315*%
%ADD24R,0.05906X0.06102*%
%ADD25R,0.04803X0.04921*%
D10*
X0067626Y0123241D03*
X0067626Y0128359D03*
X0076526Y0135141D03*
X0076526Y0140259D03*
X0085326Y0141659D03*
X0085326Y0136541D03*
X0091226Y0139741D03*
X0091226Y0144859D03*
X0088726Y0012759D03*
X0088726Y0007641D03*
D11*
X0054826Y0075560D03*
X0054826Y0083040D03*
X0068826Y0135560D03*
X0068826Y0143040D03*
D12*
X0063167Y0109100D03*
X0055686Y0109100D03*
D13*
X0060567Y0117000D03*
X0065686Y0117000D03*
X0066967Y0063700D03*
X0072086Y0063700D03*
X0061486Y0063800D03*
X0056367Y0063800D03*
X0057767Y0022100D03*
X0062886Y0022100D03*
G36*
X0087891Y0019167D02*
X0089840Y0021116D01*
X0092343Y0018613D01*
X0090394Y0016664D01*
X0087891Y0019167D01*
G37*
G36*
X0091510Y0022787D02*
X0093459Y0024736D01*
X0095962Y0022233D01*
X0094013Y0020284D01*
X0091510Y0022787D01*
G37*
D14*
X0083226Y0073366D03*
X0083226Y0081634D03*
X0076726Y0081634D03*
X0070226Y0081634D03*
X0070226Y0073366D03*
X0076726Y0073366D03*
X0063726Y0073366D03*
X0063726Y0081634D03*
D15*
X0064952Y0013450D03*
X0064952Y0007150D03*
X0080700Y0007150D03*
X0080700Y0013450D03*
D16*
X0080415Y0113475D02*
X0080415Y0114951D01*
X0081301Y0114951D01*
X0081301Y0113475D01*
X0080415Y0113475D01*
X0080415Y0113572D02*
X0081301Y0113572D01*
X0081301Y0113669D02*
X0080415Y0113669D01*
X0080415Y0113766D02*
X0081301Y0113766D01*
X0081301Y0113863D02*
X0080415Y0113863D01*
X0080415Y0113960D02*
X0081301Y0113960D01*
X0081301Y0114057D02*
X0080415Y0114057D01*
X0080415Y0114154D02*
X0081301Y0114154D01*
X0081301Y0114251D02*
X0080415Y0114251D01*
X0080415Y0114348D02*
X0081301Y0114348D01*
X0081301Y0114445D02*
X0080415Y0114445D01*
X0080415Y0114542D02*
X0081301Y0114542D01*
X0081301Y0114639D02*
X0080415Y0114639D01*
X0080415Y0114736D02*
X0081301Y0114736D01*
X0081301Y0114833D02*
X0080415Y0114833D01*
X0080415Y0114930D02*
X0081301Y0114930D01*
X0082383Y0114951D02*
X0082383Y0113475D01*
X0082383Y0114951D02*
X0083269Y0114951D01*
X0083269Y0113475D01*
X0082383Y0113475D01*
X0082383Y0113572D02*
X0083269Y0113572D01*
X0083269Y0113669D02*
X0082383Y0113669D01*
X0082383Y0113766D02*
X0083269Y0113766D01*
X0083269Y0113863D02*
X0082383Y0113863D01*
X0082383Y0113960D02*
X0083269Y0113960D01*
X0083269Y0114057D02*
X0082383Y0114057D01*
X0082383Y0114154D02*
X0083269Y0114154D01*
X0083269Y0114251D02*
X0082383Y0114251D01*
X0082383Y0114348D02*
X0083269Y0114348D01*
X0083269Y0114445D02*
X0082383Y0114445D01*
X0082383Y0114542D02*
X0083269Y0114542D01*
X0083269Y0114639D02*
X0082383Y0114639D01*
X0082383Y0114736D02*
X0083269Y0114736D01*
X0083269Y0114833D02*
X0082383Y0114833D01*
X0082383Y0114930D02*
X0083269Y0114930D01*
X0084352Y0114951D02*
X0084352Y0113475D01*
X0084352Y0114951D02*
X0085238Y0114951D01*
X0085238Y0113475D01*
X0084352Y0113475D01*
X0084352Y0113572D02*
X0085238Y0113572D01*
X0085238Y0113669D02*
X0084352Y0113669D01*
X0084352Y0113766D02*
X0085238Y0113766D01*
X0085238Y0113863D02*
X0084352Y0113863D01*
X0084352Y0113960D02*
X0085238Y0113960D01*
X0085238Y0114057D02*
X0084352Y0114057D01*
X0084352Y0114154D02*
X0085238Y0114154D01*
X0085238Y0114251D02*
X0084352Y0114251D01*
X0084352Y0114348D02*
X0085238Y0114348D01*
X0085238Y0114445D02*
X0084352Y0114445D01*
X0084352Y0114542D02*
X0085238Y0114542D01*
X0085238Y0114639D02*
X0084352Y0114639D01*
X0084352Y0114736D02*
X0085238Y0114736D01*
X0085238Y0114833D02*
X0084352Y0114833D01*
X0084352Y0114930D02*
X0085238Y0114930D01*
X0086320Y0114951D02*
X0086320Y0113475D01*
X0086320Y0114951D02*
X0087206Y0114951D01*
X0087206Y0113475D01*
X0086320Y0113475D01*
X0086320Y0113572D02*
X0087206Y0113572D01*
X0087206Y0113669D02*
X0086320Y0113669D01*
X0086320Y0113766D02*
X0087206Y0113766D01*
X0087206Y0113863D02*
X0086320Y0113863D01*
X0086320Y0113960D02*
X0087206Y0113960D01*
X0087206Y0114057D02*
X0086320Y0114057D01*
X0086320Y0114154D02*
X0087206Y0114154D01*
X0087206Y0114251D02*
X0086320Y0114251D01*
X0086320Y0114348D02*
X0087206Y0114348D01*
X0087206Y0114445D02*
X0086320Y0114445D01*
X0086320Y0114542D02*
X0087206Y0114542D01*
X0087206Y0114639D02*
X0086320Y0114639D01*
X0086320Y0114736D02*
X0087206Y0114736D01*
X0087206Y0114833D02*
X0086320Y0114833D01*
X0086320Y0114930D02*
X0087206Y0114930D01*
X0089175Y0116920D02*
X0090651Y0116920D01*
X0089175Y0116920D02*
X0089175Y0117806D01*
X0090651Y0117806D01*
X0090651Y0116920D01*
X0090651Y0117017D02*
X0089175Y0117017D01*
X0089175Y0117114D02*
X0090651Y0117114D01*
X0090651Y0117211D02*
X0089175Y0117211D01*
X0089175Y0117308D02*
X0090651Y0117308D01*
X0090651Y0117405D02*
X0089175Y0117405D01*
X0089175Y0117502D02*
X0090651Y0117502D01*
X0090651Y0117599D02*
X0089175Y0117599D01*
X0089175Y0117696D02*
X0090651Y0117696D01*
X0090651Y0117793D02*
X0089175Y0117793D01*
X0089175Y0118888D02*
X0090651Y0118888D01*
X0089175Y0118888D02*
X0089175Y0119774D01*
X0090651Y0119774D01*
X0090651Y0118888D01*
X0090651Y0118985D02*
X0089175Y0118985D01*
X0089175Y0119082D02*
X0090651Y0119082D01*
X0090651Y0119179D02*
X0089175Y0119179D01*
X0089175Y0119276D02*
X0090651Y0119276D01*
X0090651Y0119373D02*
X0089175Y0119373D01*
X0089175Y0119470D02*
X0090651Y0119470D01*
X0090651Y0119567D02*
X0089175Y0119567D01*
X0089175Y0119664D02*
X0090651Y0119664D01*
X0090651Y0119761D02*
X0089175Y0119761D01*
X0089175Y0120857D02*
X0090651Y0120857D01*
X0089175Y0120857D02*
X0089175Y0121743D01*
X0090651Y0121743D01*
X0090651Y0120857D01*
X0090651Y0120954D02*
X0089175Y0120954D01*
X0089175Y0121051D02*
X0090651Y0121051D01*
X0090651Y0121148D02*
X0089175Y0121148D01*
X0089175Y0121245D02*
X0090651Y0121245D01*
X0090651Y0121342D02*
X0089175Y0121342D01*
X0089175Y0121439D02*
X0090651Y0121439D01*
X0090651Y0121536D02*
X0089175Y0121536D01*
X0089175Y0121633D02*
X0090651Y0121633D01*
X0090651Y0121730D02*
X0089175Y0121730D01*
X0089175Y0122826D02*
X0090651Y0122826D01*
X0089175Y0122826D02*
X0089175Y0123712D01*
X0090651Y0123712D01*
X0090651Y0122826D01*
X0090651Y0122923D02*
X0089175Y0122923D01*
X0089175Y0123020D02*
X0090651Y0123020D01*
X0090651Y0123117D02*
X0089175Y0123117D01*
X0089175Y0123214D02*
X0090651Y0123214D01*
X0090651Y0123311D02*
X0089175Y0123311D01*
X0089175Y0123408D02*
X0090651Y0123408D01*
X0090651Y0123505D02*
X0089175Y0123505D01*
X0089175Y0123602D02*
X0090651Y0123602D01*
X0090651Y0123699D02*
X0089175Y0123699D01*
X0089175Y0124794D02*
X0090651Y0124794D01*
X0089175Y0124794D02*
X0089175Y0125680D01*
X0090651Y0125680D01*
X0090651Y0124794D01*
X0090651Y0124891D02*
X0089175Y0124891D01*
X0089175Y0124988D02*
X0090651Y0124988D01*
X0090651Y0125085D02*
X0089175Y0125085D01*
X0089175Y0125182D02*
X0090651Y0125182D01*
X0090651Y0125279D02*
X0089175Y0125279D01*
X0089175Y0125376D02*
X0090651Y0125376D01*
X0090651Y0125473D02*
X0089175Y0125473D01*
X0089175Y0125570D02*
X0090651Y0125570D01*
X0090651Y0125667D02*
X0089175Y0125667D01*
X0087206Y0127649D02*
X0087206Y0129125D01*
X0087206Y0127649D02*
X0086320Y0127649D01*
X0086320Y0129125D01*
X0087206Y0129125D01*
X0087206Y0127746D02*
X0086320Y0127746D01*
X0086320Y0127843D02*
X0087206Y0127843D01*
X0087206Y0127940D02*
X0086320Y0127940D01*
X0086320Y0128037D02*
X0087206Y0128037D01*
X0087206Y0128134D02*
X0086320Y0128134D01*
X0086320Y0128231D02*
X0087206Y0128231D01*
X0087206Y0128328D02*
X0086320Y0128328D01*
X0086320Y0128425D02*
X0087206Y0128425D01*
X0087206Y0128522D02*
X0086320Y0128522D01*
X0086320Y0128619D02*
X0087206Y0128619D01*
X0087206Y0128716D02*
X0086320Y0128716D01*
X0086320Y0128813D02*
X0087206Y0128813D01*
X0087206Y0128910D02*
X0086320Y0128910D01*
X0086320Y0129007D02*
X0087206Y0129007D01*
X0087206Y0129104D02*
X0086320Y0129104D01*
X0085238Y0129125D02*
X0085238Y0127649D01*
X0084352Y0127649D01*
X0084352Y0129125D01*
X0085238Y0129125D01*
X0085238Y0127746D02*
X0084352Y0127746D01*
X0084352Y0127843D02*
X0085238Y0127843D01*
X0085238Y0127940D02*
X0084352Y0127940D01*
X0084352Y0128037D02*
X0085238Y0128037D01*
X0085238Y0128134D02*
X0084352Y0128134D01*
X0084352Y0128231D02*
X0085238Y0128231D01*
X0085238Y0128328D02*
X0084352Y0128328D01*
X0084352Y0128425D02*
X0085238Y0128425D01*
X0085238Y0128522D02*
X0084352Y0128522D01*
X0084352Y0128619D02*
X0085238Y0128619D01*
X0085238Y0128716D02*
X0084352Y0128716D01*
X0084352Y0128813D02*
X0085238Y0128813D01*
X0085238Y0128910D02*
X0084352Y0128910D01*
X0084352Y0129007D02*
X0085238Y0129007D01*
X0085238Y0129104D02*
X0084352Y0129104D01*
X0083269Y0129125D02*
X0083269Y0127649D01*
X0082383Y0127649D01*
X0082383Y0129125D01*
X0083269Y0129125D01*
X0083269Y0127746D02*
X0082383Y0127746D01*
X0082383Y0127843D02*
X0083269Y0127843D01*
X0083269Y0127940D02*
X0082383Y0127940D01*
X0082383Y0128037D02*
X0083269Y0128037D01*
X0083269Y0128134D02*
X0082383Y0128134D01*
X0082383Y0128231D02*
X0083269Y0128231D01*
X0083269Y0128328D02*
X0082383Y0128328D01*
X0082383Y0128425D02*
X0083269Y0128425D01*
X0083269Y0128522D02*
X0082383Y0128522D01*
X0082383Y0128619D02*
X0083269Y0128619D01*
X0083269Y0128716D02*
X0082383Y0128716D01*
X0082383Y0128813D02*
X0083269Y0128813D01*
X0083269Y0128910D02*
X0082383Y0128910D01*
X0082383Y0129007D02*
X0083269Y0129007D01*
X0083269Y0129104D02*
X0082383Y0129104D01*
X0081301Y0129125D02*
X0081301Y0127649D01*
X0080415Y0127649D01*
X0080415Y0129125D01*
X0081301Y0129125D01*
X0081301Y0127746D02*
X0080415Y0127746D01*
X0080415Y0127843D02*
X0081301Y0127843D01*
X0081301Y0127940D02*
X0080415Y0127940D01*
X0080415Y0128037D02*
X0081301Y0128037D01*
X0081301Y0128134D02*
X0080415Y0128134D01*
X0080415Y0128231D02*
X0081301Y0128231D01*
X0081301Y0128328D02*
X0080415Y0128328D01*
X0080415Y0128425D02*
X0081301Y0128425D01*
X0081301Y0128522D02*
X0080415Y0128522D01*
X0080415Y0128619D02*
X0081301Y0128619D01*
X0081301Y0128716D02*
X0080415Y0128716D01*
X0080415Y0128813D02*
X0081301Y0128813D01*
X0081301Y0128910D02*
X0080415Y0128910D01*
X0080415Y0129007D02*
X0081301Y0129007D01*
X0081301Y0129104D02*
X0080415Y0129104D01*
X0079332Y0129125D02*
X0079332Y0127649D01*
X0078446Y0127649D01*
X0078446Y0129125D01*
X0079332Y0129125D01*
X0079332Y0127746D02*
X0078446Y0127746D01*
X0078446Y0127843D02*
X0079332Y0127843D01*
X0079332Y0127940D02*
X0078446Y0127940D01*
X0078446Y0128037D02*
X0079332Y0128037D01*
X0079332Y0128134D02*
X0078446Y0128134D01*
X0078446Y0128231D02*
X0079332Y0128231D01*
X0079332Y0128328D02*
X0078446Y0128328D01*
X0078446Y0128425D02*
X0079332Y0128425D01*
X0079332Y0128522D02*
X0078446Y0128522D01*
X0078446Y0128619D02*
X0079332Y0128619D01*
X0079332Y0128716D02*
X0078446Y0128716D01*
X0078446Y0128813D02*
X0079332Y0128813D01*
X0079332Y0128910D02*
X0078446Y0128910D01*
X0078446Y0129007D02*
X0079332Y0129007D01*
X0079332Y0129104D02*
X0078446Y0129104D01*
X0076478Y0125680D02*
X0075002Y0125680D01*
X0076478Y0125680D02*
X0076478Y0124794D01*
X0075002Y0124794D01*
X0075002Y0125680D01*
X0075002Y0124891D02*
X0076478Y0124891D01*
X0076478Y0124988D02*
X0075002Y0124988D01*
X0075002Y0125085D02*
X0076478Y0125085D01*
X0076478Y0125182D02*
X0075002Y0125182D01*
X0075002Y0125279D02*
X0076478Y0125279D01*
X0076478Y0125376D02*
X0075002Y0125376D01*
X0075002Y0125473D02*
X0076478Y0125473D01*
X0076478Y0125570D02*
X0075002Y0125570D01*
X0075002Y0125667D02*
X0076478Y0125667D01*
X0076478Y0123712D02*
X0075002Y0123712D01*
X0076478Y0123712D02*
X0076478Y0122826D01*
X0075002Y0122826D01*
X0075002Y0123712D01*
X0075002Y0122923D02*
X0076478Y0122923D01*
X0076478Y0123020D02*
X0075002Y0123020D01*
X0075002Y0123117D02*
X0076478Y0123117D01*
X0076478Y0123214D02*
X0075002Y0123214D01*
X0075002Y0123311D02*
X0076478Y0123311D01*
X0076478Y0123408D02*
X0075002Y0123408D01*
X0075002Y0123505D02*
X0076478Y0123505D01*
X0076478Y0123602D02*
X0075002Y0123602D01*
X0075002Y0123699D02*
X0076478Y0123699D01*
X0076478Y0121743D02*
X0075002Y0121743D01*
X0076478Y0121743D02*
X0076478Y0120857D01*
X0075002Y0120857D01*
X0075002Y0121743D01*
X0075002Y0120954D02*
X0076478Y0120954D01*
X0076478Y0121051D02*
X0075002Y0121051D01*
X0075002Y0121148D02*
X0076478Y0121148D01*
X0076478Y0121245D02*
X0075002Y0121245D01*
X0075002Y0121342D02*
X0076478Y0121342D01*
X0076478Y0121439D02*
X0075002Y0121439D01*
X0075002Y0121536D02*
X0076478Y0121536D01*
X0076478Y0121633D02*
X0075002Y0121633D01*
X0075002Y0121730D02*
X0076478Y0121730D01*
X0076478Y0119774D02*
X0075002Y0119774D01*
X0076478Y0119774D02*
X0076478Y0118888D01*
X0075002Y0118888D01*
X0075002Y0119774D01*
X0075002Y0118985D02*
X0076478Y0118985D01*
X0076478Y0119082D02*
X0075002Y0119082D01*
X0075002Y0119179D02*
X0076478Y0119179D01*
X0076478Y0119276D02*
X0075002Y0119276D01*
X0075002Y0119373D02*
X0076478Y0119373D01*
X0076478Y0119470D02*
X0075002Y0119470D01*
X0075002Y0119567D02*
X0076478Y0119567D01*
X0076478Y0119664D02*
X0075002Y0119664D01*
X0075002Y0119761D02*
X0076478Y0119761D01*
X0076478Y0117806D02*
X0075002Y0117806D01*
X0076478Y0117806D02*
X0076478Y0116920D01*
X0075002Y0116920D01*
X0075002Y0117806D01*
X0075002Y0117017D02*
X0076478Y0117017D01*
X0076478Y0117114D02*
X0075002Y0117114D01*
X0075002Y0117211D02*
X0076478Y0117211D01*
X0076478Y0117308D02*
X0075002Y0117308D01*
X0075002Y0117405D02*
X0076478Y0117405D01*
X0076478Y0117502D02*
X0075002Y0117502D01*
X0075002Y0117599D02*
X0076478Y0117599D01*
X0076478Y0117696D02*
X0075002Y0117696D01*
X0075002Y0117793D02*
X0076478Y0117793D01*
X0078446Y0114951D02*
X0078446Y0113475D01*
X0078446Y0114951D02*
X0079332Y0114951D01*
X0079332Y0113475D01*
X0078446Y0113475D01*
X0078446Y0113572D02*
X0079332Y0113572D01*
X0079332Y0113669D02*
X0078446Y0113669D01*
X0078446Y0113766D02*
X0079332Y0113766D01*
X0079332Y0113863D02*
X0078446Y0113863D01*
X0078446Y0113960D02*
X0079332Y0113960D01*
X0079332Y0114057D02*
X0078446Y0114057D01*
X0078446Y0114154D02*
X0079332Y0114154D01*
X0079332Y0114251D02*
X0078446Y0114251D01*
X0078446Y0114348D02*
X0079332Y0114348D01*
X0079332Y0114445D02*
X0078446Y0114445D01*
X0078446Y0114542D02*
X0079332Y0114542D01*
X0079332Y0114639D02*
X0078446Y0114639D01*
X0078446Y0114736D02*
X0079332Y0114736D01*
X0079332Y0114833D02*
X0078446Y0114833D01*
X0078446Y0114930D02*
X0079332Y0114930D01*
D17*
X0082826Y0121300D03*
D18*
X0061567Y0101024D03*
X0061567Y0091576D03*
X0057826Y0091576D03*
X0054086Y0091576D03*
X0054086Y0101024D03*
D19*
X0065743Y0053828D02*
X0067135Y0052436D01*
X0067135Y0052436D01*
X0065743Y0053828D01*
X0065743Y0053828D01*
X0065955Y0053616D02*
X0065955Y0053616D01*
X0064351Y0052436D02*
X0065743Y0051044D01*
X0065743Y0051044D01*
X0064351Y0052436D01*
X0064351Y0052436D01*
X0064563Y0052224D02*
X0064563Y0052224D01*
X0062959Y0051044D02*
X0064351Y0049652D01*
X0064351Y0049652D01*
X0062959Y0051044D01*
X0062959Y0051044D01*
X0063171Y0050832D02*
X0063171Y0050832D01*
X0061567Y0049652D02*
X0062959Y0048260D01*
X0062959Y0048260D01*
X0061567Y0049652D01*
X0061567Y0049652D01*
X0061779Y0049440D02*
X0061779Y0049440D01*
X0060175Y0048260D02*
X0061567Y0046868D01*
X0061567Y0046868D01*
X0060175Y0048260D01*
X0060175Y0048260D01*
X0060387Y0048048D02*
X0060387Y0048048D01*
X0058783Y0046868D02*
X0060175Y0045476D01*
X0060175Y0045476D01*
X0058783Y0046868D01*
X0058783Y0046868D01*
X0058995Y0046656D02*
X0058995Y0046656D01*
X0057391Y0045476D02*
X0058783Y0044084D01*
X0058783Y0044084D01*
X0057391Y0045476D01*
X0057391Y0045476D01*
X0057603Y0045264D02*
X0057603Y0045264D01*
X0055999Y0044084D02*
X0057391Y0042692D01*
X0057391Y0042692D01*
X0055999Y0044084D01*
X0055999Y0044084D01*
X0056211Y0043872D02*
X0056211Y0043872D01*
X0057391Y0039908D02*
X0055999Y0038516D01*
X0055999Y0038516D01*
X0057391Y0039908D01*
X0057391Y0039908D01*
X0057179Y0039696D02*
X0057179Y0039696D01*
X0058783Y0038516D02*
X0057391Y0037124D01*
X0057391Y0037124D01*
X0058783Y0038516D01*
X0058783Y0038516D01*
X0058571Y0038304D02*
X0058571Y0038304D01*
X0060175Y0037124D02*
X0058783Y0035732D01*
X0058783Y0035732D01*
X0060175Y0037124D01*
X0060175Y0037124D01*
X0059963Y0036912D02*
X0059963Y0036912D01*
X0061567Y0035732D02*
X0060175Y0034340D01*
X0060175Y0034340D01*
X0061567Y0035732D01*
X0061567Y0035732D01*
X0061355Y0035520D02*
X0061355Y0035520D01*
X0062959Y0034340D02*
X0061567Y0032948D01*
X0061567Y0032948D01*
X0062959Y0034340D01*
X0062959Y0034340D01*
X0062747Y0034128D02*
X0062747Y0034128D01*
X0064351Y0032948D02*
X0062959Y0031556D01*
X0062959Y0031556D01*
X0064351Y0032948D01*
X0064351Y0032948D01*
X0064139Y0032736D02*
X0064139Y0032736D01*
X0065743Y0031556D02*
X0064351Y0030164D01*
X0064351Y0030164D01*
X0065743Y0031556D01*
X0065743Y0031556D01*
X0065531Y0031344D02*
X0065531Y0031344D01*
X0067135Y0030164D02*
X0065743Y0028772D01*
X0065743Y0028772D01*
X0067135Y0030164D01*
X0067135Y0030164D01*
X0066923Y0029952D02*
X0066923Y0029952D01*
X0069918Y0030164D02*
X0071310Y0028772D01*
X0071310Y0028772D01*
X0069918Y0030164D01*
X0069918Y0030164D01*
X0070130Y0029952D02*
X0070130Y0029952D01*
X0071310Y0031556D02*
X0072702Y0030164D01*
X0072702Y0030164D01*
X0071310Y0031556D01*
X0071310Y0031556D01*
X0071522Y0031344D02*
X0071522Y0031344D01*
X0072702Y0032948D02*
X0074094Y0031556D01*
X0074094Y0031556D01*
X0072702Y0032948D01*
X0072702Y0032948D01*
X0072914Y0032736D02*
X0072914Y0032736D01*
X0074094Y0034340D02*
X0075486Y0032948D01*
X0075486Y0032948D01*
X0074094Y0034340D01*
X0074094Y0034340D01*
X0074306Y0034128D02*
X0074306Y0034128D01*
X0075486Y0035732D02*
X0076878Y0034340D01*
X0076878Y0034340D01*
X0075486Y0035732D01*
X0075486Y0035732D01*
X0075698Y0035520D02*
X0075698Y0035520D01*
X0076878Y0037124D02*
X0078270Y0035732D01*
X0078270Y0035732D01*
X0076878Y0037124D01*
X0076878Y0037124D01*
X0077090Y0036912D02*
X0077090Y0036912D01*
X0078270Y0038516D02*
X0079662Y0037124D01*
X0079662Y0037124D01*
X0078270Y0038516D01*
X0078270Y0038516D01*
X0078482Y0038304D02*
X0078482Y0038304D01*
X0079662Y0039908D02*
X0081054Y0038516D01*
X0081054Y0038516D01*
X0079662Y0039908D01*
X0079662Y0039908D01*
X0079874Y0039696D02*
X0079874Y0039696D01*
X0079662Y0042692D02*
X0081054Y0044084D01*
X0079662Y0042692D02*
X0079662Y0042692D01*
X0081054Y0044084D01*
X0081054Y0044084D01*
X0080842Y0043872D02*
X0080842Y0043872D01*
X0079662Y0045476D02*
X0078270Y0044084D01*
X0078270Y0044084D01*
X0079662Y0045476D01*
X0079662Y0045476D01*
X0079450Y0045264D02*
X0079450Y0045264D01*
X0078270Y0046868D02*
X0076878Y0045476D01*
X0076878Y0045476D01*
X0078270Y0046868D01*
X0078270Y0046868D01*
X0078058Y0046656D02*
X0078058Y0046656D01*
X0076878Y0048260D02*
X0075486Y0046868D01*
X0076878Y0048260D02*
X0076878Y0048260D01*
X0075486Y0046868D01*
X0075486Y0046868D01*
X0076666Y0048048D02*
X0076666Y0048048D01*
X0075486Y0049652D02*
X0074094Y0048260D01*
X0075486Y0049652D02*
X0075486Y0049652D01*
X0074094Y0048260D01*
X0074094Y0048260D01*
X0075274Y0049440D02*
X0075274Y0049440D01*
X0074094Y0051044D02*
X0072702Y0049652D01*
X0072702Y0049652D01*
X0074094Y0051044D01*
X0074094Y0051044D01*
X0073882Y0050832D02*
X0073882Y0050832D01*
X0072702Y0052436D02*
X0071310Y0051044D01*
X0071310Y0051044D01*
X0072702Y0052436D01*
X0072702Y0052436D01*
X0072490Y0052224D02*
X0072490Y0052224D01*
X0071310Y0053828D02*
X0069918Y0052436D01*
X0069918Y0052436D01*
X0071310Y0053828D01*
X0071310Y0053828D01*
X0071098Y0053616D02*
X0071098Y0053616D01*
D20*
G36*
X0068526Y0048259D02*
X0075485Y0041300D01*
X0068526Y0034341D01*
X0061567Y0041300D01*
X0068526Y0048259D01*
G37*
D21*
G36*
X0087825Y0026246D02*
X0086991Y0025412D01*
X0082539Y0029864D01*
X0083373Y0030698D01*
X0087825Y0026246D01*
G37*
G36*
X0090469Y0028891D02*
X0089635Y0028057D01*
X0085183Y0032509D01*
X0086017Y0033343D01*
X0090469Y0028891D01*
G37*
G36*
X0093114Y0031536D02*
X0092280Y0030702D01*
X0087828Y0035154D01*
X0088662Y0035988D01*
X0093114Y0031536D01*
G37*
D22*
X0085527Y0091593D02*
X0084375Y0091593D01*
X0084375Y0094515D01*
X0085527Y0094515D01*
X0085527Y0091593D01*
X0085527Y0092212D02*
X0084375Y0092212D01*
X0084375Y0092831D02*
X0085527Y0092831D01*
X0085527Y0093450D02*
X0084375Y0093450D01*
X0084375Y0094069D02*
X0085527Y0094069D01*
X0082377Y0091593D02*
X0081225Y0091593D01*
X0081225Y0094515D01*
X0082377Y0094515D01*
X0082377Y0091593D01*
X0082377Y0092212D02*
X0081225Y0092212D01*
X0081225Y0092831D02*
X0082377Y0092831D01*
X0082377Y0093450D02*
X0081225Y0093450D01*
X0081225Y0094069D02*
X0082377Y0094069D01*
X0079228Y0091593D02*
X0078076Y0091593D01*
X0078076Y0094515D01*
X0079228Y0094515D01*
X0079228Y0091593D01*
X0079228Y0092212D02*
X0078076Y0092212D01*
X0078076Y0092831D02*
X0079228Y0092831D01*
X0079228Y0093450D02*
X0078076Y0093450D01*
X0078076Y0094069D02*
X0079228Y0094069D01*
X0076078Y0091593D02*
X0074926Y0091593D01*
X0074926Y0094515D01*
X0076078Y0094515D01*
X0076078Y0091593D01*
X0076078Y0092212D02*
X0074926Y0092212D01*
X0074926Y0092831D02*
X0076078Y0092831D01*
X0076078Y0093450D02*
X0074926Y0093450D01*
X0074926Y0094069D02*
X0076078Y0094069D01*
X0076078Y0098285D02*
X0074926Y0098285D01*
X0074926Y0101207D01*
X0076078Y0101207D01*
X0076078Y0098285D01*
X0076078Y0098904D02*
X0074926Y0098904D01*
X0074926Y0099523D02*
X0076078Y0099523D01*
X0076078Y0100142D02*
X0074926Y0100142D01*
X0074926Y0100761D02*
X0076078Y0100761D01*
X0078076Y0098285D02*
X0079228Y0098285D01*
X0078076Y0098285D02*
X0078076Y0101207D01*
X0079228Y0101207D01*
X0079228Y0098285D01*
X0079228Y0098904D02*
X0078076Y0098904D01*
X0078076Y0099523D02*
X0079228Y0099523D01*
X0079228Y0100142D02*
X0078076Y0100142D01*
X0078076Y0100761D02*
X0079228Y0100761D01*
X0081225Y0098285D02*
X0082377Y0098285D01*
X0081225Y0098285D02*
X0081225Y0101207D01*
X0082377Y0101207D01*
X0082377Y0098285D01*
X0082377Y0098904D02*
X0081225Y0098904D01*
X0081225Y0099523D02*
X0082377Y0099523D01*
X0082377Y0100142D02*
X0081225Y0100142D01*
X0081225Y0100761D02*
X0082377Y0100761D01*
X0084375Y0098285D02*
X0085527Y0098285D01*
X0084375Y0098285D02*
X0084375Y0101207D01*
X0085527Y0101207D01*
X0085527Y0098285D01*
X0085527Y0098904D02*
X0084375Y0098904D01*
X0084375Y0099523D02*
X0085527Y0099523D01*
X0085527Y0100142D02*
X0084375Y0100142D01*
X0084375Y0100761D02*
X0085527Y0100761D01*
D23*
X0077945Y0154985D03*
X0075386Y0154985D03*
X0072826Y0154985D03*
X0070267Y0154985D03*
X0067708Y0154985D03*
D24*
X0068889Y0165615D03*
X0076763Y0165615D03*
D25*
X0057118Y0142540D03*
X0057118Y0130926D03*
M02*
