G75*
%MOIN*%
%OFA0B0*%
%FSLAX25Y25*%
%IPPOS*%
%LPD*%
%AMOC8*
5,1,8,0,0,1.08239X$1,22.5*
%
%ADD10R,0.00250X0.00250*%
%ADD11R,0.00250X0.01000*%
%ADD12R,0.00250X0.01500*%
%ADD13R,0.00250X0.01750*%
%ADD14R,0.00250X0.02000*%
%ADD15R,0.00250X0.00750*%
%ADD16R,0.00250X0.01250*%
%ADD17R,0.00250X0.03250*%
%ADD18R,0.00250X0.00500*%
%ADD19R,0.00250X0.06250*%
%ADD20R,0.00250X0.08000*%
%ADD21R,0.00250X0.02750*%
%ADD22R,0.00250X0.03500*%
%ADD23R,0.00250X0.08250*%
%ADD24R,0.00250X0.02500*%
%ADD25R,0.00250X0.02250*%
%ADD26R,0.00250X0.03000*%
%ADD27R,0.00250X0.04250*%
%ADD28R,0.00250X0.04000*%
%ADD29R,0.00250X0.04500*%
%ADD30C,0.00500*%
%ADD31C,0.00400*%
D10*
X0062326Y0031800D03*
X0067576Y0047800D03*
X0067576Y0052300D03*
X0074326Y0058550D03*
X0078076Y0056550D03*
X0079576Y0057300D03*
X0075076Y0053300D03*
X0063076Y0078550D03*
X0062326Y0091800D03*
X0072826Y0091050D03*
X0073826Y0091800D03*
X0074826Y0091050D03*
X0079076Y0027050D03*
X0085826Y0025550D03*
D11*
X0085576Y0025675D03*
X0084576Y0024925D03*
X0084326Y0024925D03*
X0083826Y0024675D03*
X0083576Y0024675D03*
X0083076Y0024425D03*
X0082826Y0024425D03*
X0082576Y0024425D03*
X0081826Y0024175D03*
X0081576Y0024175D03*
X0081326Y0024175D03*
X0080826Y0023925D03*
X0080576Y0023925D03*
X0079576Y0023675D03*
X0078576Y0023425D03*
X0077326Y0023175D03*
X0077076Y0023175D03*
X0076326Y0022925D03*
X0076076Y0022925D03*
X0075826Y0022925D03*
X0075826Y0024175D03*
X0076076Y0024425D03*
X0076326Y0024675D03*
X0076576Y0024925D03*
X0076826Y0024925D03*
X0077076Y0025175D03*
X0077326Y0025425D03*
X0077826Y0025675D03*
X0077576Y0027675D03*
X0078326Y0030175D03*
X0079076Y0030425D03*
X0079576Y0030675D03*
X0080576Y0031675D03*
X0079576Y0032425D03*
X0078076Y0034925D03*
X0078326Y0035175D03*
X0075826Y0035925D03*
X0075576Y0035675D03*
X0074826Y0032675D03*
X0074576Y0032675D03*
X0076576Y0032675D03*
X0073326Y0036175D03*
X0076826Y0039925D03*
X0076576Y0040175D03*
X0076076Y0040925D03*
X0075326Y0041675D03*
X0075076Y0041675D03*
X0075076Y0043925D03*
X0075326Y0043925D03*
X0075576Y0043925D03*
X0075826Y0043925D03*
X0076076Y0043925D03*
X0076326Y0046425D03*
X0076576Y0046675D03*
X0078076Y0047925D03*
X0078826Y0047925D03*
X0079076Y0047675D03*
X0078326Y0045175D03*
X0079076Y0043925D03*
X0080076Y0040175D03*
X0076576Y0050425D03*
X0076326Y0050425D03*
X0076076Y0050425D03*
X0077826Y0051175D03*
X0078326Y0051425D03*
X0078576Y0051675D03*
X0078826Y0051925D03*
X0078826Y0053425D03*
X0078576Y0053425D03*
X0080076Y0052925D03*
X0078826Y0055175D03*
X0077326Y0055675D03*
X0076576Y0055675D03*
X0077576Y0057925D03*
X0076576Y0059675D03*
X0076826Y0059925D03*
X0076076Y0059425D03*
X0076076Y0060925D03*
X0075826Y0060925D03*
X0075576Y0060925D03*
X0075326Y0060925D03*
X0075076Y0060925D03*
X0074576Y0058675D03*
X0073326Y0055425D03*
X0075326Y0053175D03*
X0075576Y0053175D03*
X0079076Y0061175D03*
X0079326Y0064425D03*
X0079076Y0064675D03*
X0078826Y0064925D03*
X0078576Y0064925D03*
X0078076Y0065175D03*
X0075826Y0067675D03*
X0076076Y0067925D03*
X0076326Y0068175D03*
X0076826Y0068425D03*
X0077076Y0068675D03*
X0077576Y0068925D03*
X0077826Y0069175D03*
X0078076Y0069425D03*
X0078826Y0069925D03*
X0079076Y0070425D03*
X0074576Y0066925D03*
X0074326Y0066675D03*
X0071826Y0065175D03*
X0071326Y0064925D03*
X0071076Y0064925D03*
X0070826Y0064925D03*
X0070576Y0064675D03*
X0070326Y0064675D03*
X0068326Y0065425D03*
X0068076Y0065425D03*
X0067826Y0065425D03*
X0067576Y0065425D03*
X0067326Y0065425D03*
X0067076Y0065425D03*
X0066826Y0065425D03*
X0066576Y0065425D03*
X0066326Y0065425D03*
X0066076Y0065425D03*
X0065826Y0065425D03*
X0065576Y0065425D03*
X0065326Y0065425D03*
X0065076Y0065425D03*
X0064826Y0065425D03*
X0064576Y0065425D03*
X0064326Y0065425D03*
X0064076Y0065425D03*
X0065076Y0062175D03*
X0065326Y0062175D03*
X0065576Y0062175D03*
X0065826Y0062175D03*
X0066076Y0062175D03*
X0066326Y0062175D03*
X0066576Y0062175D03*
X0066826Y0062175D03*
X0067076Y0062175D03*
X0067326Y0062175D03*
X0067576Y0062175D03*
X0067826Y0062175D03*
X0068076Y0062175D03*
X0068326Y0062175D03*
X0068076Y0059675D03*
X0068076Y0057425D03*
X0067826Y0057425D03*
X0067576Y0057425D03*
X0067326Y0057425D03*
X0067076Y0057425D03*
X0066826Y0057425D03*
X0066576Y0057425D03*
X0066326Y0057425D03*
X0066076Y0057425D03*
X0065826Y0057425D03*
X0065826Y0058925D03*
X0065326Y0055175D03*
X0065076Y0055175D03*
X0064826Y0055175D03*
X0064576Y0055175D03*
X0064326Y0055175D03*
X0064076Y0055175D03*
X0066326Y0055175D03*
X0066576Y0055175D03*
X0066826Y0055175D03*
X0067076Y0055175D03*
X0067326Y0055175D03*
X0067326Y0050425D03*
X0067076Y0050425D03*
X0066826Y0050425D03*
X0066576Y0050425D03*
X0066326Y0050425D03*
X0066076Y0050425D03*
X0065826Y0050425D03*
X0065576Y0050425D03*
X0065326Y0050425D03*
X0065076Y0050425D03*
X0064826Y0050425D03*
X0064576Y0050425D03*
X0064326Y0050425D03*
X0064076Y0050425D03*
X0063826Y0050425D03*
X0063576Y0050425D03*
X0063326Y0050425D03*
X0068326Y0068425D03*
X0067576Y0068675D03*
X0065826Y0069425D03*
X0065576Y0069425D03*
X0065076Y0069675D03*
X0064826Y0069675D03*
X0064576Y0069925D03*
X0064826Y0071175D03*
X0065076Y0071175D03*
X0065326Y0071425D03*
X0065576Y0071425D03*
X0065826Y0071425D03*
X0066076Y0071675D03*
X0066326Y0071675D03*
X0067326Y0072175D03*
X0067576Y0072175D03*
X0068076Y0072425D03*
X0070826Y0072425D03*
X0072076Y0072175D03*
X0069326Y0079925D03*
X0072076Y0081925D03*
X0069826Y0084425D03*
X0068576Y0086675D03*
X0067326Y0083675D03*
X0066576Y0082925D03*
X0066326Y0082675D03*
X0066076Y0082425D03*
X0065826Y0082175D03*
X0064576Y0080925D03*
X0063576Y0079925D03*
X0061076Y0078425D03*
X0059826Y0081175D03*
X0062826Y0085425D03*
X0062326Y0088925D03*
X0063326Y0089925D03*
X0062326Y0090925D03*
X0063826Y0093925D03*
X0064326Y0088925D03*
X0065826Y0087425D03*
X0067826Y0090925D03*
X0071326Y0091675D03*
X0073076Y0088675D03*
X0074326Y0080675D03*
X0079576Y0084175D03*
X0079326Y0093675D03*
X0079076Y0093675D03*
X0079076Y0094925D03*
X0063326Y0070425D03*
X0068076Y0031925D03*
X0068326Y0031925D03*
X0074326Y0026925D03*
X0075076Y0027175D03*
X0074576Y0023175D03*
X0082576Y0027675D03*
X0082826Y0027425D03*
X0083076Y0027425D03*
X0083326Y0027175D03*
X0083826Y0026925D03*
X0084076Y0026675D03*
X0084576Y0026425D03*
D12*
X0085326Y0025675D03*
X0080326Y0031675D03*
X0079076Y0035925D03*
X0077826Y0038925D03*
X0078076Y0039175D03*
X0078326Y0039425D03*
X0079826Y0040175D03*
X0079076Y0046175D03*
X0075076Y0046425D03*
X0075576Y0041675D03*
X0079826Y0052925D03*
X0078826Y0057175D03*
X0077826Y0060675D03*
X0077576Y0060675D03*
X0078076Y0060925D03*
X0078326Y0060925D03*
X0078576Y0060925D03*
X0079576Y0063925D03*
X0075076Y0058675D03*
X0072576Y0065425D03*
X0072826Y0065675D03*
X0073076Y0065675D03*
X0071326Y0072425D03*
X0071076Y0072425D03*
X0066326Y0077425D03*
X0064826Y0077425D03*
X0064076Y0080675D03*
X0061326Y0078425D03*
X0060076Y0081175D03*
X0063076Y0085425D03*
X0064326Y0085425D03*
X0064576Y0085675D03*
X0065576Y0087425D03*
X0063076Y0089925D03*
X0062076Y0091675D03*
X0064076Y0093925D03*
X0066826Y0094175D03*
X0068076Y0094175D03*
X0068326Y0094175D03*
X0069826Y0091675D03*
X0071826Y0081925D03*
X0069576Y0079925D03*
X0074576Y0080175D03*
X0063826Y0070425D03*
X0063576Y0070425D03*
X0063826Y0061675D03*
X0064076Y0061675D03*
X0067326Y0059925D03*
X0064076Y0057925D03*
X0063826Y0057925D03*
X0063576Y0057925D03*
X0074076Y0029175D03*
X0073576Y0028175D03*
X0072576Y0026925D03*
X0078826Y0026925D03*
X0060076Y0087425D03*
D13*
X0061576Y0087550D03*
X0061826Y0087800D03*
X0061826Y0091800D03*
X0065326Y0093800D03*
X0065576Y0093550D03*
X0067076Y0086550D03*
X0068326Y0086550D03*
X0071076Y0080300D03*
X0070826Y0080050D03*
X0066076Y0077300D03*
X0062826Y0078800D03*
X0062576Y0078550D03*
X0061326Y0081050D03*
X0064076Y0070550D03*
X0064326Y0061550D03*
X0067076Y0059800D03*
X0064826Y0058050D03*
X0064576Y0058050D03*
X0064326Y0058050D03*
X0073326Y0065800D03*
X0073576Y0065800D03*
X0077326Y0060550D03*
X0075326Y0058800D03*
X0078326Y0057300D03*
X0078576Y0057300D03*
X0079576Y0052800D03*
X0079576Y0047050D03*
X0078826Y0039800D03*
X0078576Y0039550D03*
X0077076Y0037800D03*
X0076326Y0036550D03*
X0076076Y0036300D03*
X0078576Y0035800D03*
X0078826Y0035800D03*
X0076326Y0033050D03*
X0076076Y0033050D03*
X0074576Y0030050D03*
X0074326Y0029550D03*
X0072826Y0027050D03*
X0075076Y0023300D03*
X0085076Y0025550D03*
X0080326Y0062800D03*
X0079826Y0071550D03*
X0074326Y0091050D03*
X0073076Y0090800D03*
X0080076Y0097300D03*
D14*
X0079826Y0097175D03*
X0079826Y0094925D03*
X0079576Y0094925D03*
X0071076Y0091425D03*
X0073076Y0080425D03*
X0073326Y0080175D03*
X0064326Y0070425D03*
X0064576Y0061675D03*
X0064826Y0061675D03*
X0073826Y0065925D03*
X0077076Y0060425D03*
X0075576Y0058675D03*
X0079326Y0052675D03*
X0077076Y0047675D03*
X0076826Y0047425D03*
X0077576Y0044175D03*
X0077326Y0043925D03*
X0077076Y0043925D03*
X0076826Y0043675D03*
X0075826Y0041675D03*
X0079076Y0039925D03*
X0079326Y0039925D03*
X0079576Y0040175D03*
X0080076Y0031675D03*
X0078576Y0026925D03*
X0075326Y0023425D03*
X0074826Y0030425D03*
X0084826Y0025675D03*
X0060326Y0087425D03*
D15*
X0060326Y0080550D03*
X0060576Y0081800D03*
X0061576Y0079050D03*
X0061576Y0077800D03*
X0062326Y0077800D03*
X0063076Y0079550D03*
X0063326Y0079800D03*
X0063826Y0080050D03*
X0064826Y0081050D03*
X0066826Y0083050D03*
X0067076Y0083300D03*
X0067576Y0083800D03*
X0067826Y0084050D03*
X0068076Y0084300D03*
X0068326Y0084550D03*
X0068576Y0084800D03*
X0069576Y0084550D03*
X0070326Y0083800D03*
X0070576Y0083550D03*
X0070826Y0083300D03*
X0071076Y0083050D03*
X0071326Y0082800D03*
X0071576Y0082550D03*
X0072326Y0081800D03*
X0072576Y0081550D03*
X0072826Y0081300D03*
X0073576Y0080800D03*
X0074326Y0079550D03*
X0071576Y0081300D03*
X0071326Y0081050D03*
X0069826Y0080550D03*
X0069826Y0079300D03*
X0070576Y0079300D03*
X0068326Y0072550D03*
X0070576Y0072300D03*
X0072326Y0072050D03*
X0072576Y0072050D03*
X0072826Y0072050D03*
X0073076Y0072050D03*
X0073326Y0072050D03*
X0073576Y0072050D03*
X0073826Y0072050D03*
X0074076Y0072050D03*
X0074826Y0072300D03*
X0075076Y0072300D03*
X0075326Y0072300D03*
X0075576Y0072300D03*
X0075826Y0072300D03*
X0076076Y0072300D03*
X0076326Y0072300D03*
X0077076Y0072300D03*
X0077576Y0072550D03*
X0078076Y0072550D03*
X0078326Y0072550D03*
X0078576Y0072300D03*
X0078826Y0072300D03*
X0079076Y0072300D03*
X0078576Y0069800D03*
X0078326Y0069550D03*
X0076576Y0068300D03*
X0075576Y0067550D03*
X0075326Y0067300D03*
X0075076Y0067300D03*
X0074826Y0067050D03*
X0074076Y0066550D03*
X0074576Y0065550D03*
X0074326Y0065300D03*
X0074076Y0065300D03*
X0077076Y0065300D03*
X0077326Y0065300D03*
X0077576Y0065300D03*
X0077826Y0065300D03*
X0078326Y0065050D03*
X0076826Y0061050D03*
X0076576Y0061050D03*
X0076326Y0061050D03*
X0076326Y0059550D03*
X0075826Y0059300D03*
X0075826Y0058050D03*
X0076076Y0058050D03*
X0076326Y0058050D03*
X0076576Y0058050D03*
X0076826Y0058050D03*
X0077076Y0058050D03*
X0077326Y0058050D03*
X0077826Y0057800D03*
X0078076Y0057800D03*
X0078076Y0055550D03*
X0077826Y0055550D03*
X0077576Y0055550D03*
X0077076Y0055550D03*
X0076826Y0055550D03*
X0076326Y0055550D03*
X0076076Y0055550D03*
X0075826Y0055550D03*
X0075826Y0053300D03*
X0076076Y0053300D03*
X0076326Y0053300D03*
X0077826Y0053550D03*
X0078076Y0053550D03*
X0078326Y0053550D03*
X0079076Y0053300D03*
X0078076Y0051300D03*
X0076826Y0050550D03*
X0075826Y0050300D03*
X0075576Y0050300D03*
X0076576Y0047800D03*
X0076326Y0047550D03*
X0076076Y0047550D03*
X0075826Y0047300D03*
X0075576Y0047050D03*
X0075326Y0047050D03*
X0075576Y0046050D03*
X0075826Y0046050D03*
X0076076Y0046300D03*
X0074576Y0046300D03*
X0078076Y0045050D03*
X0078076Y0043800D03*
X0078326Y0043800D03*
X0078576Y0043800D03*
X0078826Y0043800D03*
X0079326Y0043800D03*
X0078576Y0048050D03*
X0078326Y0048050D03*
X0077076Y0039800D03*
X0077076Y0036300D03*
X0077326Y0036300D03*
X0077576Y0036300D03*
X0077826Y0034800D03*
X0077576Y0034550D03*
X0077326Y0034300D03*
X0076826Y0034050D03*
X0076576Y0033800D03*
X0076826Y0032800D03*
X0077076Y0032800D03*
X0077326Y0032800D03*
X0077576Y0032800D03*
X0077826Y0032800D03*
X0078076Y0032800D03*
X0078326Y0032800D03*
X0078576Y0032800D03*
X0078826Y0032800D03*
X0079326Y0032550D03*
X0079326Y0030550D03*
X0078826Y0030300D03*
X0078576Y0030300D03*
X0078076Y0030050D03*
X0077826Y0030050D03*
X0077576Y0030050D03*
X0077326Y0030050D03*
X0077326Y0027550D03*
X0077076Y0027550D03*
X0076826Y0027550D03*
X0076576Y0027550D03*
X0076326Y0027550D03*
X0076076Y0027300D03*
X0075826Y0027300D03*
X0075576Y0027300D03*
X0075326Y0027300D03*
X0074826Y0027050D03*
X0074576Y0027050D03*
X0074076Y0026800D03*
X0073826Y0026800D03*
X0073576Y0026800D03*
X0072326Y0026800D03*
X0072326Y0032300D03*
X0072076Y0032300D03*
X0071826Y0032300D03*
X0071576Y0032300D03*
X0071326Y0032300D03*
X0070076Y0032050D03*
X0069826Y0032050D03*
X0069576Y0032050D03*
X0069326Y0032050D03*
X0069076Y0032050D03*
X0068826Y0032050D03*
X0068576Y0032050D03*
X0067826Y0031800D03*
X0067576Y0031800D03*
X0067326Y0031800D03*
X0067076Y0031800D03*
X0066826Y0031800D03*
X0066576Y0031800D03*
X0066326Y0031800D03*
X0066076Y0031800D03*
X0065826Y0031800D03*
X0065576Y0031800D03*
X0065326Y0031800D03*
X0065076Y0031800D03*
X0064826Y0031800D03*
X0064576Y0031800D03*
X0064326Y0031800D03*
X0064076Y0031800D03*
X0063826Y0031800D03*
X0063576Y0031800D03*
X0063326Y0031800D03*
X0063076Y0031800D03*
X0073576Y0032550D03*
X0073826Y0032550D03*
X0074076Y0032550D03*
X0074326Y0032550D03*
X0073826Y0036050D03*
X0073576Y0036050D03*
X0077826Y0027550D03*
X0078076Y0027550D03*
X0077576Y0025550D03*
X0078826Y0023550D03*
X0079076Y0023550D03*
X0079326Y0023550D03*
X0079826Y0023800D03*
X0080076Y0023800D03*
X0080326Y0023800D03*
X0081076Y0024050D03*
X0082076Y0024300D03*
X0082326Y0024300D03*
X0083326Y0024550D03*
X0084326Y0026550D03*
X0082326Y0027800D03*
X0078326Y0023300D03*
X0078076Y0023300D03*
X0077826Y0023300D03*
X0077576Y0023300D03*
X0076826Y0023050D03*
X0076576Y0023050D03*
X0079576Y0036050D03*
X0079326Y0057300D03*
X0074326Y0060800D03*
X0074076Y0060800D03*
X0070076Y0064550D03*
X0068326Y0059800D03*
X0066826Y0059300D03*
X0066576Y0059300D03*
X0066326Y0059050D03*
X0066076Y0059050D03*
X0065576Y0058800D03*
X0065326Y0058800D03*
X0065076Y0058550D03*
X0065076Y0057550D03*
X0065326Y0057550D03*
X0065576Y0057550D03*
X0068326Y0057300D03*
X0066826Y0060300D03*
X0066576Y0060300D03*
X0066326Y0060550D03*
X0066076Y0060550D03*
X0065826Y0060550D03*
X0065576Y0060800D03*
X0065326Y0060800D03*
X0065076Y0060800D03*
X0066076Y0069300D03*
X0065326Y0069550D03*
X0064576Y0071050D03*
X0065076Y0076800D03*
X0065076Y0077800D03*
X0064076Y0084800D03*
X0063326Y0084800D03*
X0063326Y0086050D03*
X0064076Y0086050D03*
X0064826Y0086300D03*
X0065076Y0086550D03*
X0065326Y0086800D03*
X0066076Y0087550D03*
X0066326Y0087800D03*
X0066576Y0088050D03*
X0066826Y0088300D03*
X0067326Y0087300D03*
X0067826Y0087300D03*
X0068076Y0087050D03*
X0068826Y0086550D03*
X0068076Y0086050D03*
X0067826Y0085800D03*
X0067326Y0085800D03*
X0065326Y0088050D03*
X0065076Y0088300D03*
X0064826Y0088550D03*
X0064576Y0088800D03*
X0064076Y0089300D03*
X0063826Y0089550D03*
X0063576Y0089800D03*
X0062826Y0089300D03*
X0062576Y0089050D03*
X0062076Y0088550D03*
X0061326Y0088050D03*
X0061326Y0086800D03*
X0062826Y0090550D03*
X0062576Y0090800D03*
X0060826Y0091300D03*
X0060326Y0091800D03*
X0060826Y0092300D03*
X0061076Y0092550D03*
X0061326Y0092550D03*
X0065076Y0093300D03*
X0065826Y0092800D03*
X0066076Y0092550D03*
X0066326Y0092300D03*
X0066576Y0092050D03*
X0066826Y0091800D03*
X0067076Y0091550D03*
X0068076Y0090550D03*
X0067826Y0093550D03*
X0067076Y0093550D03*
X0066576Y0094050D03*
X0067076Y0094800D03*
X0067826Y0094800D03*
X0070826Y0092300D03*
X0070826Y0091050D03*
X0071326Y0090550D03*
X0071576Y0090300D03*
X0071826Y0090050D03*
X0072076Y0089800D03*
X0072326Y0089550D03*
X0072826Y0090050D03*
X0073326Y0090550D03*
X0073326Y0091550D03*
X0073576Y0091800D03*
X0074076Y0091800D03*
X0073326Y0088550D03*
X0070076Y0091050D03*
X0078076Y0088550D03*
X0078326Y0088800D03*
X0078576Y0089050D03*
X0078826Y0089300D03*
X0079076Y0089550D03*
X0079326Y0089800D03*
X0079576Y0090050D03*
X0079576Y0093300D03*
X0078826Y0093550D03*
X0078826Y0094800D03*
X0078826Y0096050D03*
X0078576Y0096050D03*
X0079076Y0096050D03*
X0080076Y0094300D03*
X0080326Y0094300D03*
X0080826Y0086550D03*
X0079326Y0084550D03*
X0078826Y0084800D03*
D16*
X0083326Y0086550D03*
X0083576Y0086550D03*
X0074576Y0091050D03*
X0072576Y0089550D03*
X0072826Y0088800D03*
X0069576Y0091800D03*
X0066826Y0086550D03*
X0070076Y0084300D03*
X0064326Y0080800D03*
X0061576Y0081050D03*
X0067826Y0072300D03*
X0066326Y0069300D03*
X0067326Y0068800D03*
X0067826Y0068550D03*
X0068076Y0068550D03*
X0071576Y0065050D03*
X0072076Y0065300D03*
X0072326Y0065300D03*
X0074576Y0060800D03*
X0074826Y0060800D03*
X0074826Y0058550D03*
X0079076Y0057300D03*
X0078326Y0055300D03*
X0078576Y0055050D03*
X0079076Y0052050D03*
X0077076Y0050550D03*
X0074826Y0046300D03*
X0076076Y0042300D03*
X0076326Y0040550D03*
X0079326Y0036050D03*
X0073826Y0028550D03*
X0078076Y0026050D03*
X0074826Y0023300D03*
X0083576Y0027050D03*
X0084076Y0024800D03*
X0078576Y0045550D03*
X0078826Y0045800D03*
X0078826Y0061050D03*
X0079326Y0061300D03*
X0079576Y0061550D03*
X0077326Y0068800D03*
X0071826Y0072300D03*
X0071576Y0072300D03*
X0067826Y0059800D03*
X0067576Y0059800D03*
X0067576Y0055050D03*
X0067576Y0050300D03*
X0063326Y0057800D03*
X0063326Y0061800D03*
X0063576Y0061800D03*
X0060576Y0091800D03*
D17*
X0080076Y0091800D03*
X0082076Y0086550D03*
X0082326Y0086550D03*
X0079826Y0062800D03*
X0068326Y0049300D03*
X0068076Y0049300D03*
X0067826Y0049300D03*
X0075326Y0031800D03*
D18*
X0073326Y0032425D03*
X0073076Y0032425D03*
X0072826Y0032425D03*
X0072576Y0032425D03*
X0071076Y0032175D03*
X0070826Y0032175D03*
X0070576Y0032175D03*
X0070326Y0032175D03*
X0073076Y0036175D03*
X0077076Y0034175D03*
X0079076Y0032675D03*
X0077076Y0030175D03*
X0082076Y0027925D03*
X0078326Y0036425D03*
X0078076Y0036425D03*
X0077826Y0036425D03*
X0074826Y0041675D03*
X0074826Y0043925D03*
X0075326Y0045925D03*
X0079576Y0043925D03*
X0077576Y0053425D03*
X0077326Y0053425D03*
X0077076Y0053425D03*
X0076826Y0053425D03*
X0076576Y0053425D03*
X0075576Y0055425D03*
X0073576Y0055425D03*
X0073076Y0055425D03*
X0079076Y0055175D03*
X0076826Y0065425D03*
X0076576Y0065425D03*
X0076326Y0065425D03*
X0076076Y0065425D03*
X0075826Y0065425D03*
X0075576Y0065425D03*
X0075326Y0065425D03*
X0075076Y0065425D03*
X0074826Y0065425D03*
X0074576Y0072175D03*
X0074326Y0072175D03*
X0076576Y0072425D03*
X0076826Y0072425D03*
X0077326Y0072425D03*
X0077826Y0072425D03*
X0080076Y0071675D03*
X0074076Y0079425D03*
X0073826Y0079425D03*
X0073576Y0079425D03*
X0074826Y0080175D03*
X0074076Y0080925D03*
X0073826Y0080925D03*
X0073826Y0084675D03*
X0073576Y0084675D03*
X0073326Y0084675D03*
X0073076Y0084675D03*
X0072826Y0084675D03*
X0072576Y0084675D03*
X0072326Y0084675D03*
X0072076Y0084675D03*
X0071826Y0084675D03*
X0071576Y0084675D03*
X0071326Y0084675D03*
X0071076Y0084675D03*
X0070826Y0084675D03*
X0070576Y0084675D03*
X0070326Y0084675D03*
X0069326Y0084675D03*
X0069076Y0084675D03*
X0068826Y0084675D03*
X0067576Y0085675D03*
X0069076Y0086425D03*
X0069326Y0086425D03*
X0069576Y0086425D03*
X0069826Y0086425D03*
X0070076Y0086425D03*
X0070326Y0086425D03*
X0070576Y0086425D03*
X0070826Y0086425D03*
X0071076Y0086425D03*
X0071326Y0086425D03*
X0071576Y0086425D03*
X0071826Y0086425D03*
X0072076Y0086425D03*
X0072326Y0086425D03*
X0072576Y0086425D03*
X0072826Y0086425D03*
X0073076Y0086425D03*
X0073326Y0086425D03*
X0073576Y0086425D03*
X0073826Y0086425D03*
X0074076Y0086425D03*
X0074326Y0086425D03*
X0074576Y0086425D03*
X0074826Y0086425D03*
X0075076Y0086425D03*
X0075326Y0086425D03*
X0075576Y0086425D03*
X0075826Y0086425D03*
X0076076Y0086425D03*
X0076326Y0086425D03*
X0076576Y0086425D03*
X0076826Y0086425D03*
X0077076Y0086425D03*
X0077326Y0086425D03*
X0077576Y0086425D03*
X0077826Y0086425D03*
X0078076Y0086425D03*
X0078326Y0086425D03*
X0078576Y0086425D03*
X0078826Y0086425D03*
X0079076Y0086425D03*
X0079326Y0086425D03*
X0079576Y0086425D03*
X0079826Y0086425D03*
X0080076Y0086425D03*
X0080326Y0086425D03*
X0080576Y0086425D03*
X0079076Y0084675D03*
X0078576Y0084675D03*
X0078326Y0084675D03*
X0078076Y0084675D03*
X0077826Y0084675D03*
X0077576Y0084675D03*
X0077326Y0084675D03*
X0077076Y0084675D03*
X0076826Y0084675D03*
X0076576Y0084675D03*
X0076326Y0084675D03*
X0076076Y0084675D03*
X0075826Y0084675D03*
X0075576Y0084675D03*
X0075326Y0084675D03*
X0075076Y0084675D03*
X0074826Y0084675D03*
X0074576Y0084675D03*
X0074326Y0084675D03*
X0074076Y0084675D03*
X0074076Y0088425D03*
X0073826Y0088425D03*
X0073576Y0088425D03*
X0074326Y0088425D03*
X0074576Y0088425D03*
X0074826Y0088425D03*
X0075076Y0088425D03*
X0075326Y0088425D03*
X0075576Y0088425D03*
X0075826Y0088425D03*
X0076076Y0088425D03*
X0076326Y0088425D03*
X0076576Y0088425D03*
X0076826Y0088425D03*
X0077076Y0088425D03*
X0077326Y0088425D03*
X0077576Y0088425D03*
X0077826Y0088425D03*
X0074076Y0090425D03*
X0073826Y0090425D03*
X0073576Y0090425D03*
X0072576Y0088425D03*
X0072326Y0088425D03*
X0072076Y0088425D03*
X0071826Y0088425D03*
X0071576Y0088425D03*
X0071326Y0088425D03*
X0071076Y0088425D03*
X0070826Y0088425D03*
X0070576Y0088425D03*
X0070326Y0088425D03*
X0070076Y0088425D03*
X0069826Y0088425D03*
X0069576Y0088425D03*
X0069326Y0088425D03*
X0069076Y0088425D03*
X0068826Y0088425D03*
X0068076Y0088425D03*
X0067826Y0088425D03*
X0067576Y0088425D03*
X0067326Y0088425D03*
X0067076Y0088425D03*
X0067576Y0087425D03*
X0070326Y0090925D03*
X0070576Y0090925D03*
X0070576Y0092425D03*
X0070326Y0092425D03*
X0070076Y0092425D03*
X0067576Y0094925D03*
X0067326Y0094925D03*
X0065076Y0094425D03*
X0064826Y0094675D03*
X0064576Y0094675D03*
X0064326Y0094425D03*
X0064326Y0093175D03*
X0064576Y0093175D03*
X0064826Y0093175D03*
X0061576Y0092425D03*
X0061576Y0091175D03*
X0061326Y0091175D03*
X0061076Y0091175D03*
X0061076Y0088175D03*
X0060826Y0088175D03*
X0060576Y0088175D03*
X0059826Y0087425D03*
X0060576Y0086675D03*
X0060826Y0086675D03*
X0061076Y0086675D03*
X0063576Y0086175D03*
X0063826Y0086175D03*
X0063826Y0084675D03*
X0063576Y0084675D03*
X0063576Y0081175D03*
X0063326Y0081175D03*
X0063076Y0081175D03*
X0062826Y0081175D03*
X0062576Y0081175D03*
X0062326Y0081175D03*
X0062076Y0081175D03*
X0061826Y0081175D03*
X0061076Y0081675D03*
X0060826Y0081925D03*
X0060326Y0081675D03*
X0060576Y0080425D03*
X0060826Y0080425D03*
X0061076Y0080425D03*
X0061826Y0079175D03*
X0062076Y0079175D03*
X0062326Y0079175D03*
X0062076Y0077675D03*
X0061826Y0077675D03*
X0064576Y0077425D03*
X0065326Y0076675D03*
X0065576Y0076675D03*
X0065826Y0076675D03*
X0065826Y0078175D03*
X0065076Y0081425D03*
X0063826Y0081175D03*
X0070076Y0080675D03*
X0070326Y0080675D03*
X0070576Y0080675D03*
X0070326Y0079175D03*
X0070076Y0079175D03*
X0069826Y0064675D03*
X0078326Y0093675D03*
X0078576Y0093675D03*
X0078576Y0094925D03*
X0078326Y0094925D03*
X0078326Y0096175D03*
X0079576Y0096425D03*
X0080076Y0095425D03*
X0080326Y0095425D03*
X0080576Y0095425D03*
X0080576Y0094425D03*
X0062826Y0031675D03*
X0062576Y0031675D03*
D19*
X0081076Y0086550D03*
X0081326Y0086550D03*
D20*
X0080076Y0080175D03*
D21*
X0079326Y0071300D03*
X0080076Y0062800D03*
X0076326Y0043300D03*
X0067326Y0092300D03*
D22*
X0079826Y0091675D03*
X0068326Y0053925D03*
X0068076Y0053925D03*
X0067826Y0053925D03*
X0066076Y0053925D03*
X0065826Y0053925D03*
X0065576Y0053925D03*
X0063826Y0053925D03*
X0063576Y0053925D03*
X0063326Y0053925D03*
X0075076Y0031675D03*
D23*
X0079826Y0080300D03*
D24*
X0068326Y0089425D03*
X0079326Y0046925D03*
X0077326Y0038675D03*
X0079826Y0031675D03*
X0073326Y0027425D03*
D25*
X0073076Y0027300D03*
X0075576Y0023550D03*
X0078326Y0026800D03*
X0075826Y0032550D03*
X0076576Y0036800D03*
X0076826Y0037050D03*
X0077576Y0038800D03*
X0076576Y0043550D03*
X0077826Y0044300D03*
X0079576Y0071550D03*
X0068576Y0089300D03*
X0079326Y0095550D03*
D26*
X0067576Y0092175D03*
X0077826Y0048925D03*
X0075576Y0032175D03*
D27*
X0077326Y0049050D03*
X0077576Y0049300D03*
X0067076Y0070550D03*
X0063826Y0065550D03*
X0063576Y0065550D03*
X0063326Y0065550D03*
X0065326Y0080050D03*
D28*
X0066576Y0070425D03*
X0066826Y0070425D03*
D29*
X0065576Y0080175D03*
D30*
X0062984Y0110394D02*
X0082669Y0110394D01*
X0082669Y0122206D01*
X0062984Y0122206D01*
X0062984Y0110394D01*
D31*
X0062784Y0109293D02*
X0062784Y0106991D01*
X0061249Y0107758D01*
X0060482Y0107758D01*
X0059715Y0106991D01*
X0059715Y0105456D01*
X0060482Y0104689D01*
X0062017Y0104689D01*
X0062784Y0105456D01*
X0062784Y0109293D02*
X0059715Y0109293D01*
X0058180Y0109293D02*
X0058180Y0106224D01*
X0056645Y0104689D01*
X0055111Y0106224D01*
X0055111Y0109293D01*
X0068890Y0128644D02*
X0071960Y0128644D01*
X0070425Y0130179D02*
X0070425Y0127110D01*
X0073494Y0127877D02*
X0073494Y0130946D01*
X0073494Y0127877D02*
X0075029Y0126343D01*
X0076563Y0127877D01*
X0076563Y0130946D01*
X0080701Y0109293D02*
X0080701Y0106224D01*
X0082236Y0104689D01*
X0083771Y0106224D01*
X0083771Y0109293D01*
X0085305Y0108526D02*
X0085305Y0107758D01*
X0086073Y0106991D01*
X0085305Y0106224D01*
X0085305Y0105456D01*
X0086073Y0104689D01*
X0087607Y0104689D01*
X0088374Y0105456D01*
X0086840Y0106991D02*
X0086073Y0106991D01*
X0085305Y0108526D02*
X0086073Y0109293D01*
X0087607Y0109293D01*
X0088374Y0108526D01*
M02*
