%
M48
M72
T01C0.0138
T02C0.0400
T03C0.0866
%
T01
X5123Y2204
X5613Y1834
X6063Y1834
X6184Y2713
X6683Y1864
X7363Y1873
X7783Y1860
X8183Y2194
X7963Y3354
X8923Y4434
X8163Y6454
X7763Y6714
X7208Y6020
X6193Y5914
X5503Y5714
X5783Y7034
X7122Y9194
X6523Y9434
X7093Y10684
X7629Y11093
X8323Y12254
X8663Y11134
X8764Y10734
X8083Y14334
X9053Y15086
X9383Y15434
X6523Y14894
X6263Y13704
X6262Y13233
X6277Y12404
X5653Y11784
X4763Y10714
X4823Y9714
X5503Y9714
X5143Y13964
X5243Y15494
X6783Y4114
X5643Y874
X9323Y634
T02
X4283Y2214
X4283Y3214
X4283Y4214
X4283Y5214
X4283Y6214
X4283Y7214
X4283Y8214
X4283Y9214
X4283Y10214
X4283Y11214
X4283Y12214
X4283Y13214
X4283Y14214
X4283Y15214
X10283Y15214
X10283Y14214
X10283Y13214
X10283Y12214
X10283Y11214
X10283Y10214
X10283Y9214
X10283Y8214
X10283Y7214
X10283Y6214
X10283Y5214
X10283Y4214
X10283Y3214
X10283Y2214
T03
X10033Y964
X4533Y964
X4533Y16464
X10033Y16464
M30
