G75*
%MOIN*%
%OFA0B0*%
%FSLAX25Y25*%
%IPPOS*%
%LPD*%
%AMOC8*
5,1,8,0,0,1.08239X$1,22.5*
%
%ADD10C,0.07400*%
%ADD11C,0.00984*%
%ADD12R,0.04000X0.01000*%
%ADD13C,0.00197*%
%ADD14C,0.02978*%
%ADD15C,0.01600*%
%ADD16C,0.01000*%
%ADD17C,0.00600*%
D10*
X0042826Y0022142D03*
X0042826Y0032142D03*
X0042826Y0042142D03*
X0042826Y0052142D03*
X0042826Y0062142D03*
X0042826Y0072142D03*
X0042826Y0082142D03*
X0042826Y0092142D03*
X0042826Y0102142D03*
X0042826Y0112142D03*
X0042826Y0122142D03*
X0042826Y0132142D03*
X0042826Y0142142D03*
X0042826Y0152142D03*
X0102826Y0152142D03*
X0102826Y0142142D03*
X0102826Y0132142D03*
X0102826Y0122142D03*
X0102826Y0112142D03*
X0102826Y0102142D03*
X0102826Y0092142D03*
X0102826Y0082142D03*
X0102826Y0072142D03*
X0102826Y0062142D03*
X0102826Y0052142D03*
X0102826Y0042142D03*
X0102826Y0032142D03*
X0102826Y0022142D03*
D11*
X0077256Y0113697D02*
X0077256Y0120587D01*
X0080208Y0120587D01*
X0080208Y0113697D01*
X0077256Y0113697D01*
X0077256Y0114680D02*
X0080208Y0114680D01*
X0080208Y0115663D02*
X0077256Y0115663D01*
X0077256Y0116646D02*
X0080208Y0116646D01*
X0080208Y0117629D02*
X0077256Y0117629D01*
X0077256Y0118612D02*
X0080208Y0118612D01*
X0080208Y0119595D02*
X0077256Y0119595D01*
X0077256Y0120578D02*
X0080208Y0120578D01*
X0074302Y0120587D02*
X0074302Y0113697D01*
X0071350Y0113697D01*
X0071350Y0120587D01*
X0074302Y0120587D01*
X0074302Y0114680D02*
X0071350Y0114680D01*
X0071350Y0115663D02*
X0074302Y0115663D01*
X0074302Y0116646D02*
X0071350Y0116646D01*
X0071350Y0117629D02*
X0074302Y0117629D01*
X0074302Y0118612D02*
X0071350Y0118612D01*
X0071350Y0119595D02*
X0074302Y0119595D01*
X0074302Y0120578D02*
X0071350Y0120578D01*
X0068397Y0120587D02*
X0068397Y0113697D01*
X0065445Y0113697D01*
X0065445Y0120587D01*
X0068397Y0120587D01*
X0068397Y0114680D02*
X0065445Y0114680D01*
X0065445Y0115663D02*
X0068397Y0115663D01*
X0068397Y0116646D02*
X0065445Y0116646D01*
X0065445Y0117629D02*
X0068397Y0117629D01*
X0068397Y0118612D02*
X0065445Y0118612D01*
X0065445Y0119595D02*
X0068397Y0119595D01*
X0068397Y0120578D02*
X0065445Y0120578D01*
D12*
X0070326Y0117142D03*
D13*
X0063991Y0154004D02*
X0063574Y0153957D01*
X0062393Y0153957D01*
X0061977Y0154004D01*
X0061582Y0154142D01*
X0061227Y0154365D01*
X0060931Y0154661D01*
X0060709Y0155016D01*
X0060570Y0155411D01*
X0060523Y0155827D01*
X0060570Y0156243D01*
X0060709Y0156639D01*
X0060931Y0156993D01*
X0061227Y0157289D01*
X0061582Y0157512D01*
X0061977Y0157650D01*
X0062393Y0157697D01*
X0063574Y0157697D01*
X0063991Y0157650D01*
X0063992Y0157650D02*
X0061976Y0157650D01*
X0061491Y0157455D02*
X0064477Y0157455D01*
X0064386Y0157512D02*
X0063991Y0157650D01*
X0064386Y0157512D02*
X0064740Y0157289D01*
X0065037Y0156993D01*
X0065259Y0156639D01*
X0065398Y0156243D01*
X0065445Y0155827D01*
X0065398Y0155411D01*
X0065259Y0155016D01*
X0065037Y0154661D01*
X0064740Y0154365D01*
X0064386Y0154142D01*
X0063991Y0154004D01*
X0064361Y0154134D02*
X0061607Y0154134D01*
X0061285Y0154329D02*
X0064683Y0154329D01*
X0064900Y0154524D02*
X0061068Y0154524D01*
X0060895Y0154720D02*
X0065073Y0154720D01*
X0065196Y0154915D02*
X0060772Y0154915D01*
X0060675Y0155110D02*
X0065292Y0155110D01*
X0065361Y0155306D02*
X0060607Y0155306D01*
X0060560Y0155501D02*
X0065408Y0155501D01*
X0065430Y0155696D02*
X0060538Y0155696D01*
X0060531Y0155892D02*
X0065437Y0155892D01*
X0065415Y0156087D02*
X0060553Y0156087D01*
X0060584Y0156283D02*
X0065384Y0156283D01*
X0065316Y0156478D02*
X0060652Y0156478D01*
X0060730Y0156673D02*
X0065238Y0156673D01*
X0065115Y0156869D02*
X0060853Y0156869D01*
X0061002Y0157064D02*
X0064966Y0157064D01*
X0064770Y0157259D02*
X0061198Y0157259D01*
X0059047Y0163406D02*
X0063771Y0163406D01*
X0063771Y0169508D01*
X0059047Y0169508D01*
X0058609Y0169459D01*
X0058193Y0169313D01*
X0057820Y0169079D01*
X0057508Y0168767D01*
X0057273Y0168394D01*
X0057128Y0167978D01*
X0057078Y0167540D01*
X0057078Y0165374D01*
X0057128Y0164936D01*
X0057273Y0164520D01*
X0057508Y0164147D01*
X0057820Y0163835D01*
X0058193Y0163601D01*
X0058609Y0163455D01*
X0059047Y0163406D01*
X0058450Y0163511D02*
X0063771Y0163511D01*
X0063771Y0163706D02*
X0058025Y0163706D01*
X0057753Y0163902D02*
X0063771Y0163902D01*
X0063771Y0164097D02*
X0057558Y0164097D01*
X0057417Y0164292D02*
X0063771Y0164292D01*
X0063771Y0164488D02*
X0057294Y0164488D01*
X0057216Y0164683D02*
X0063771Y0164683D01*
X0063771Y0164878D02*
X0057148Y0164878D01*
X0057112Y0165074D02*
X0063771Y0165074D01*
X0063771Y0165269D02*
X0057090Y0165269D01*
X0057078Y0165465D02*
X0063771Y0165465D01*
X0063771Y0165660D02*
X0057078Y0165660D01*
X0057078Y0165855D02*
X0063771Y0165855D01*
X0063771Y0166051D02*
X0057078Y0166051D01*
X0057078Y0166246D02*
X0063771Y0166246D01*
X0063771Y0166441D02*
X0057078Y0166441D01*
X0057078Y0166637D02*
X0063771Y0166637D01*
X0063771Y0166832D02*
X0057078Y0166832D01*
X0057078Y0167027D02*
X0063771Y0167027D01*
X0063771Y0167223D02*
X0057078Y0167223D01*
X0057078Y0167418D02*
X0063771Y0167418D01*
X0063771Y0167614D02*
X0057087Y0167614D01*
X0057109Y0167809D02*
X0063771Y0167809D01*
X0063771Y0168004D02*
X0057137Y0168004D01*
X0057205Y0168200D02*
X0063771Y0168200D01*
X0063771Y0168395D02*
X0057274Y0168395D01*
X0057397Y0168590D02*
X0063771Y0168590D01*
X0063771Y0168786D02*
X0057526Y0168786D01*
X0057722Y0168981D02*
X0063771Y0168981D01*
X0063771Y0169176D02*
X0057975Y0169176D01*
X0058360Y0169372D02*
X0063771Y0169372D01*
X0080616Y0156993D02*
X0080394Y0156639D01*
X0080255Y0156243D01*
X0080208Y0155827D01*
X0080255Y0155411D01*
X0080394Y0155016D01*
X0080616Y0154661D01*
X0080912Y0154365D01*
X0081267Y0154142D01*
X0081662Y0154004D01*
X0082078Y0153957D01*
X0083260Y0153957D01*
X0083676Y0154004D01*
X0084071Y0154142D01*
X0084426Y0154365D01*
X0084722Y0154661D01*
X0084944Y0155016D01*
X0085083Y0155411D01*
X0085130Y0155827D01*
X0085083Y0156243D01*
X0084944Y0156639D01*
X0084722Y0156993D01*
X0084426Y0157289D01*
X0084071Y0157512D01*
X0083676Y0157650D01*
X0083260Y0157697D01*
X0082078Y0157697D01*
X0081662Y0157650D01*
X0081267Y0157512D01*
X0080912Y0157289D01*
X0080616Y0156993D01*
X0080687Y0157064D02*
X0084651Y0157064D01*
X0084800Y0156869D02*
X0080538Y0156869D01*
X0080415Y0156673D02*
X0084923Y0156673D01*
X0085001Y0156478D02*
X0080337Y0156478D01*
X0080269Y0156283D02*
X0085069Y0156283D01*
X0085100Y0156087D02*
X0080238Y0156087D01*
X0080216Y0155892D02*
X0085122Y0155892D01*
X0085115Y0155696D02*
X0080223Y0155696D01*
X0080245Y0155501D02*
X0085093Y0155501D01*
X0085046Y0155306D02*
X0080292Y0155306D01*
X0080360Y0155110D02*
X0084977Y0155110D01*
X0084881Y0154915D02*
X0080457Y0154915D01*
X0080580Y0154720D02*
X0084758Y0154720D01*
X0084585Y0154524D02*
X0080753Y0154524D01*
X0080970Y0154329D02*
X0084368Y0154329D01*
X0084046Y0154134D02*
X0081292Y0154134D01*
X0080883Y0157259D02*
X0084455Y0157259D01*
X0084162Y0157455D02*
X0081176Y0157455D01*
X0081661Y0157650D02*
X0083677Y0157650D01*
X0081882Y0163406D02*
X0081882Y0169508D01*
X0086606Y0169508D01*
X0087044Y0169459D01*
X0087460Y0169313D01*
X0087833Y0169079D01*
X0088145Y0168767D01*
X0088380Y0168394D01*
X0088525Y0167978D01*
X0088574Y0167540D01*
X0088574Y0165374D01*
X0088525Y0164936D01*
X0088380Y0164520D01*
X0088145Y0164147D01*
X0087833Y0163835D01*
X0087460Y0163601D01*
X0087044Y0163455D01*
X0086606Y0163406D01*
X0081882Y0163406D01*
X0081882Y0163511D02*
X0087203Y0163511D01*
X0087628Y0163706D02*
X0081882Y0163706D01*
X0081882Y0163902D02*
X0087900Y0163902D01*
X0088095Y0164097D02*
X0081882Y0164097D01*
X0081882Y0164292D02*
X0088236Y0164292D01*
X0088359Y0164488D02*
X0081882Y0164488D01*
X0081882Y0164683D02*
X0088436Y0164683D01*
X0088505Y0164878D02*
X0081882Y0164878D01*
X0081882Y0165074D02*
X0088541Y0165074D01*
X0088563Y0165269D02*
X0081882Y0165269D01*
X0081882Y0165465D02*
X0088574Y0165465D01*
X0088574Y0165660D02*
X0081882Y0165660D01*
X0081882Y0165855D02*
X0088574Y0165855D01*
X0088574Y0166051D02*
X0081882Y0166051D01*
X0081882Y0166246D02*
X0088574Y0166246D01*
X0088574Y0166441D02*
X0081882Y0166441D01*
X0081882Y0166637D02*
X0088574Y0166637D01*
X0088574Y0166832D02*
X0081882Y0166832D01*
X0081882Y0167027D02*
X0088574Y0167027D01*
X0088574Y0167223D02*
X0081882Y0167223D01*
X0081882Y0167418D02*
X0088574Y0167418D01*
X0088566Y0167614D02*
X0081882Y0167614D01*
X0081882Y0167809D02*
X0088544Y0167809D01*
X0088516Y0168004D02*
X0081882Y0168004D01*
X0081882Y0168200D02*
X0088448Y0168200D01*
X0088379Y0168395D02*
X0081882Y0168395D01*
X0081882Y0168590D02*
X0088256Y0168590D01*
X0088126Y0168786D02*
X0081882Y0168786D01*
X0081882Y0168981D02*
X0087931Y0168981D01*
X0087678Y0169176D02*
X0081882Y0169176D01*
X0081882Y0169372D02*
X0087293Y0169372D01*
D14*
X0092645Y0157098D03*
X0090526Y0150859D03*
X0080826Y0143342D03*
X0083226Y0122542D03*
X0086626Y0111342D03*
X0087637Y0107342D03*
X0076289Y0110931D03*
X0070926Y0106842D03*
X0065226Y0094342D03*
X0071215Y0091942D03*
X0057826Y0070342D03*
X0061926Y0059142D03*
X0055026Y0057142D03*
X0067826Y0041142D03*
X0061836Y0027132D03*
X0060626Y0018342D03*
X0056126Y0018342D03*
X0053589Y0023617D03*
X0056033Y0007167D03*
X0066826Y0018642D03*
X0073626Y0018731D03*
X0077826Y0018603D03*
X0081826Y0021942D03*
X0079626Y0033542D03*
X0089226Y0044342D03*
X0081626Y0064148D03*
X0077626Y0065961D03*
X0072082Y0060198D03*
X0055026Y0097142D03*
X0048226Y0097142D03*
X0047626Y0107142D03*
X0056526Y0117842D03*
X0062771Y0124042D03*
X0062620Y0132330D03*
X0062626Y0137042D03*
X0065226Y0148942D03*
X0054395Y0156123D03*
X0047489Y0136886D03*
X0093226Y0006342D03*
D15*
X0079626Y0033542D02*
X0076826Y0036542D01*
X0076826Y0039297D01*
X0061926Y0054397D01*
X0061926Y0059142D01*
X0061926Y0080351D01*
X0058226Y0084251D01*
X0058226Y0097258D01*
X0063011Y0102042D01*
X0071811Y0102042D01*
X0074189Y0104420D01*
X0074189Y0108580D01*
X0072826Y0109942D01*
X0072826Y0114879D01*
X0073926Y0115979D01*
X0073926Y0117142D01*
X0078626Y0117248D02*
X0078626Y0123342D01*
X0064926Y0137042D01*
X0062626Y0137042D01*
X0065226Y0148942D02*
X0088810Y0148942D01*
X0090526Y0150859D01*
X0078732Y0117142D02*
X0078732Y0112737D01*
X0080126Y0111342D01*
X0086626Y0111342D01*
X0070926Y0106842D02*
X0067126Y0110642D01*
X0067126Y0115579D01*
X0067126Y0115862D02*
X0066926Y0116062D01*
X0066926Y0117137D01*
X0066921Y0117142D02*
X0066921Y0122448D01*
X0065326Y0124042D01*
X0062771Y0124042D01*
D16*
X0066921Y0117142D02*
X0066926Y0117137D01*
X0076289Y0110931D02*
X0076289Y0103550D01*
X0072681Y0099942D01*
X0063881Y0099942D01*
X0060426Y0096488D01*
X0060426Y0085197D01*
X0067126Y0078497D01*
X0067126Y0052242D01*
X0083426Y0035942D01*
X0083426Y0031942D01*
X0081626Y0030142D01*
X0064771Y0030142D01*
X0064792Y0030121D01*
X0060681Y0030121D01*
X0058826Y0028266D01*
X0058826Y0020142D01*
X0060626Y0018342D01*
X0063826Y0016842D02*
X0063826Y0023142D01*
X0063827Y0024942D01*
X0080426Y0024942D01*
X0085426Y0029942D01*
X0085426Y0036742D01*
X0069226Y0053142D01*
X0069226Y0078942D01*
X0062226Y0085942D01*
X0062226Y0095542D01*
X0064826Y0098142D01*
X0073426Y0098142D01*
X0082626Y0107342D01*
X0087637Y0107342D01*
X0086826Y0111242D02*
X0086726Y0111242D01*
X0086626Y0111342D01*
X0086726Y0111342D01*
X0086826Y0111242D01*
X0092615Y0113187D02*
X0092615Y0141931D01*
X0102826Y0152142D01*
X0102826Y0142142D02*
X0094826Y0134142D01*
X0094826Y0083161D01*
X0077626Y0065961D01*
X0076471Y0069931D02*
X0072082Y0065542D01*
X0072082Y0060198D01*
X0076415Y0069931D02*
X0092626Y0085942D01*
X0092626Y0091927D01*
X0071231Y0091927D01*
X0071215Y0091942D01*
X0076415Y0069931D02*
X0076471Y0069931D01*
X0081626Y0064148D02*
X0096826Y0079348D01*
X0096826Y0126142D01*
X0102826Y0132142D01*
X0092626Y0113198D02*
X0092615Y0113187D01*
X0092626Y0113198D02*
X0092626Y0091927D01*
X0078732Y0117142D02*
X0078626Y0117248D01*
X0056526Y0117842D02*
X0051226Y0117842D01*
X0051226Y0026959D01*
X0051212Y0026158D01*
X0053360Y0024011D01*
X0053589Y0023617D01*
X0056126Y0018342D02*
X0056126Y0016042D01*
X0062526Y0009642D01*
X0090326Y0009642D01*
X0102826Y0022142D01*
X0097226Y0020342D02*
X0088526Y0011642D01*
X0069026Y0011642D01*
X0063826Y0016842D01*
X0066826Y0018642D02*
X0071926Y0013542D01*
X0087426Y0013542D01*
X0095226Y0021342D01*
X0095226Y0027088D01*
X0097226Y0029088D01*
X0097226Y0036542D01*
X0102826Y0042142D01*
X0097226Y0039088D02*
X0095426Y0037288D01*
X0095426Y0029833D01*
X0093426Y0027833D01*
X0093426Y0022088D01*
X0086681Y0015342D01*
X0076215Y0015342D01*
X0073626Y0017931D01*
X0073626Y0018731D01*
X0077826Y0018603D02*
X0087396Y0018603D01*
X0091626Y0022833D01*
X0091626Y0028579D01*
X0093626Y0030579D01*
X0093626Y0038033D01*
X0095426Y0039833D01*
X0095426Y0047288D01*
X0097226Y0049088D01*
X0097226Y0056542D01*
X0102826Y0062142D01*
X0102826Y0052142D02*
X0097226Y0046542D01*
X0097226Y0039088D01*
X0102826Y0032142D02*
X0097226Y0026542D01*
X0097226Y0020342D01*
X0063826Y0023142D02*
X0063826Y0025142D01*
X0061836Y0027132D01*
X0051226Y0117842D02*
X0051226Y0133543D01*
X0047489Y0136886D01*
D17*
X0039456Y0009133D02*
X0039496Y0009008D01*
X0039496Y0010802D01*
X0040384Y0012945D01*
X0042024Y0014585D01*
X0044167Y0015472D01*
X0046486Y0015472D01*
X0048629Y0014585D01*
X0050269Y0012945D01*
X0051156Y0010802D01*
X0051156Y0008482D01*
X0050269Y0006340D01*
X0048629Y0004700D01*
X0046486Y0003812D01*
X0044692Y0003812D01*
X0044817Y0003772D01*
X0045826Y0003692D01*
X0099826Y0003692D01*
X0100835Y0003772D01*
X0100960Y0003812D01*
X0099167Y0003812D01*
X0097024Y0004700D01*
X0095384Y0006340D01*
X0094496Y0008482D01*
X0094496Y0010802D01*
X0095025Y0012078D01*
X0091926Y0008979D01*
X0090989Y0008042D01*
X0061864Y0008042D01*
X0060926Y0008979D01*
X0060926Y0008979D01*
X0054526Y0015379D01*
X0054526Y0016281D01*
X0053932Y0016876D01*
X0053537Y0017827D01*
X0053537Y0018857D01*
X0053932Y0019809D01*
X0054660Y0020537D01*
X0055611Y0020931D01*
X0056641Y0020931D01*
X0057226Y0020689D01*
X0057226Y0028929D01*
X0059081Y0030784D01*
X0060019Y0031721D01*
X0064087Y0031721D01*
X0064108Y0031742D01*
X0077765Y0031742D01*
X0077432Y0032076D01*
X0077037Y0033027D01*
X0077037Y0033531D01*
X0075460Y0035222D01*
X0074926Y0035755D01*
X0074926Y0035793D01*
X0074900Y0035821D01*
X0074926Y0036575D01*
X0074926Y0038518D01*
X0060579Y0053058D01*
X0060026Y0053610D01*
X0060026Y0053618D01*
X0060021Y0053623D01*
X0060026Y0054404D01*
X0060026Y0057381D01*
X0059732Y0057676D01*
X0059337Y0058627D01*
X0059337Y0059657D01*
X0059732Y0060609D01*
X0060026Y0060904D01*
X0060026Y0079593D01*
X0056865Y0082925D01*
X0056326Y0083464D01*
X0056326Y0083493D01*
X0056306Y0083514D01*
X0056326Y0084276D01*
X0056326Y0098045D01*
X0061111Y0102829D01*
X0062224Y0103942D01*
X0071024Y0103942D01*
X0071335Y0104253D01*
X0070411Y0104253D01*
X0069460Y0104647D01*
X0068732Y0105376D01*
X0068337Y0106327D01*
X0068337Y0106744D01*
X0066339Y0108742D01*
X0065226Y0109855D01*
X0065226Y0112105D01*
X0064785Y0112105D01*
X0063852Y0113038D01*
X0063852Y0121247D01*
X0064644Y0122038D01*
X0064539Y0122142D01*
X0064533Y0122142D01*
X0064238Y0121847D01*
X0063286Y0121453D01*
X0062256Y0121453D01*
X0061305Y0121847D01*
X0060576Y0122576D01*
X0060182Y0123527D01*
X0060182Y0124557D01*
X0060576Y0125509D01*
X0061305Y0126237D01*
X0062256Y0126631D01*
X0063286Y0126631D01*
X0064238Y0126237D01*
X0064533Y0125942D01*
X0066113Y0125942D01*
X0067226Y0124829D01*
X0068821Y0123235D01*
X0068821Y0122179D01*
X0069057Y0122179D01*
X0069874Y0121362D01*
X0070691Y0122179D01*
X0074962Y0122179D01*
X0075779Y0121362D01*
X0076596Y0122179D01*
X0076726Y0122179D01*
X0076726Y0122555D01*
X0064264Y0135018D01*
X0064093Y0134847D01*
X0063141Y0134453D01*
X0062111Y0134453D01*
X0061160Y0134847D01*
X0060432Y0135576D01*
X0060037Y0136527D01*
X0060037Y0137557D01*
X0060432Y0138509D01*
X0061160Y0139237D01*
X0062111Y0139631D01*
X0063141Y0139631D01*
X0064093Y0139237D01*
X0064388Y0138942D01*
X0065713Y0138942D01*
X0080526Y0124129D01*
X0080526Y0122179D01*
X0080868Y0122179D01*
X0081800Y0121247D01*
X0081800Y0113242D01*
X0084865Y0113242D01*
X0085160Y0113537D01*
X0086111Y0113931D01*
X0087141Y0113931D01*
X0088093Y0113537D01*
X0088821Y0112809D01*
X0089215Y0111857D01*
X0089215Y0110827D01*
X0088821Y0109876D01*
X0088665Y0109719D01*
X0089104Y0109537D01*
X0089832Y0108809D01*
X0090226Y0107857D01*
X0090226Y0106827D01*
X0089832Y0105876D01*
X0089104Y0105147D01*
X0088152Y0104753D01*
X0087123Y0104753D01*
X0086171Y0105147D01*
X0085576Y0105742D01*
X0083289Y0105742D01*
X0074089Y0096542D01*
X0065489Y0096542D01*
X0063826Y0094879D01*
X0063826Y0086605D01*
X0070826Y0079605D01*
X0070826Y0066549D01*
X0074815Y0070538D01*
X0074815Y0070594D01*
X0074820Y0070598D01*
X0074820Y0070604D01*
X0075287Y0071066D01*
X0075753Y0071531D01*
X0075759Y0071531D01*
X0091026Y0086611D01*
X0091026Y0090327D01*
X0073261Y0090327D01*
X0072682Y0089747D01*
X0071730Y0089353D01*
X0070700Y0089353D01*
X0069749Y0089747D01*
X0069021Y0090476D01*
X0068626Y0091427D01*
X0068626Y0092457D01*
X0069021Y0093409D01*
X0069749Y0094137D01*
X0070700Y0094531D01*
X0071730Y0094531D01*
X0072682Y0094137D01*
X0073292Y0093527D01*
X0091026Y0093527D01*
X0091026Y0112513D01*
X0091015Y0112524D01*
X0091015Y0142594D01*
X0091953Y0143531D01*
X0098490Y0150068D01*
X0098026Y0151187D01*
X0098026Y0153097D01*
X0098757Y0154861D01*
X0100107Y0156211D01*
X0101872Y0156942D01*
X0103781Y0156942D01*
X0105545Y0156211D01*
X0106276Y0155480D01*
X0106276Y0164142D01*
X0106197Y0165151D01*
X0106156Y0165276D01*
X0106156Y0163482D01*
X0105269Y0161340D01*
X0103629Y0159700D01*
X0101486Y0158812D01*
X0099167Y0158812D01*
X0097024Y0159700D01*
X0095384Y0161340D01*
X0094496Y0163482D01*
X0094496Y0165802D01*
X0095384Y0167945D01*
X0097024Y0169585D01*
X0099167Y0170472D01*
X0100960Y0170472D01*
X0100835Y0170513D01*
X0099826Y0170592D01*
X0087677Y0170592D01*
X0087983Y0170400D01*
X0088324Y0170281D01*
X0088326Y0170277D01*
X0088330Y0170277D01*
X0088585Y0170022D01*
X0088891Y0169829D01*
X0088892Y0169826D01*
X0088896Y0169825D01*
X0089088Y0169519D01*
X0089343Y0169264D01*
X0089343Y0169260D01*
X0089347Y0169258D01*
X0089466Y0168917D01*
X0089658Y0168611D01*
X0089658Y0168608D01*
X0089660Y0168605D01*
X0089701Y0168246D01*
X0089820Y0167905D01*
X0089773Y0167807D01*
X0089773Y0167607D01*
X0089821Y0167181D01*
X0089773Y0167120D01*
X0089773Y0165794D01*
X0089821Y0165734D01*
X0089773Y0165307D01*
X0089773Y0165107D01*
X0089820Y0165009D01*
X0089701Y0164668D01*
X0089660Y0164309D01*
X0089658Y0164307D01*
X0089658Y0164303D01*
X0089466Y0163997D01*
X0089347Y0163656D01*
X0089343Y0163654D01*
X0089343Y0163651D01*
X0089088Y0163395D01*
X0088896Y0163089D01*
X0088892Y0163088D01*
X0088891Y0163085D01*
X0088585Y0162892D01*
X0088330Y0162637D01*
X0088326Y0162637D01*
X0088324Y0162634D01*
X0087983Y0162514D01*
X0087677Y0162322D01*
X0087674Y0162323D01*
X0087671Y0162320D01*
X0087312Y0162280D01*
X0086971Y0162160D01*
X0086873Y0162208D01*
X0086673Y0162208D01*
X0086247Y0162159D01*
X0086187Y0162208D01*
X0081385Y0162208D01*
X0080683Y0162910D01*
X0080683Y0170005D01*
X0081271Y0170592D01*
X0064382Y0170592D01*
X0064970Y0170005D01*
X0064970Y0162910D01*
X0064268Y0162208D01*
X0059466Y0162208D01*
X0059406Y0162159D01*
X0058980Y0162208D01*
X0058780Y0162208D01*
X0058682Y0162160D01*
X0058341Y0162280D01*
X0057981Y0162320D01*
X0057979Y0162323D01*
X0057976Y0162322D01*
X0057670Y0162514D01*
X0057328Y0162634D01*
X0057327Y0162637D01*
X0057323Y0162637D01*
X0057068Y0162892D01*
X0056762Y0163085D01*
X0056761Y0163088D01*
X0056757Y0163089D01*
X0056565Y0163395D01*
X0056309Y0163651D01*
X0056309Y0163654D01*
X0056306Y0163656D01*
X0056187Y0163997D01*
X0055995Y0164303D01*
X0055995Y0164307D01*
X0055992Y0164309D01*
X0055952Y0164668D01*
X0055833Y0165009D01*
X0055880Y0165107D01*
X0055880Y0165307D01*
X0055832Y0165734D01*
X0055880Y0165794D01*
X0055880Y0167120D01*
X0055832Y0167181D01*
X0055880Y0167607D01*
X0055880Y0167807D01*
X0055833Y0167905D01*
X0055952Y0168246D01*
X0055992Y0168605D01*
X0055995Y0168608D01*
X0055995Y0168611D01*
X0056187Y0168917D01*
X0056306Y0169258D01*
X0056309Y0169260D01*
X0056309Y0169264D01*
X0056565Y0169519D01*
X0056757Y0169825D01*
X0056761Y0169826D01*
X0056762Y0169829D01*
X0057068Y0170022D01*
X0057323Y0170277D01*
X0057327Y0170277D01*
X0057328Y0170281D01*
X0057670Y0170400D01*
X0057976Y0170592D01*
X0045826Y0170592D01*
X0044817Y0170513D01*
X0044692Y0170472D01*
X0046486Y0170472D01*
X0048629Y0169585D01*
X0050269Y0167945D01*
X0051156Y0165802D01*
X0051156Y0163482D01*
X0050269Y0161340D01*
X0048629Y0159700D01*
X0046486Y0158812D01*
X0044167Y0158812D01*
X0042024Y0159700D01*
X0040384Y0161340D01*
X0039496Y0163482D01*
X0039496Y0165276D01*
X0039456Y0165151D01*
X0039376Y0164142D01*
X0039376Y0155480D01*
X0040107Y0156211D01*
X0041872Y0156942D01*
X0043781Y0156942D01*
X0045545Y0156211D01*
X0046896Y0154861D01*
X0047626Y0153097D01*
X0047626Y0151187D01*
X0046896Y0149423D01*
X0045545Y0148073D01*
X0043781Y0147342D01*
X0041872Y0147342D01*
X0040107Y0148073D01*
X0039376Y0148804D01*
X0039376Y0145480D01*
X0040107Y0146211D01*
X0041872Y0146942D01*
X0043781Y0146942D01*
X0045545Y0146211D01*
X0046896Y0144861D01*
X0047626Y0143097D01*
X0047626Y0141187D01*
X0046905Y0139447D01*
X0046974Y0139475D01*
X0048004Y0139475D01*
X0048956Y0139081D01*
X0049684Y0138353D01*
X0050078Y0137401D01*
X0050078Y0136717D01*
X0051838Y0135143D01*
X0051889Y0135143D01*
X0052326Y0134706D01*
X0052787Y0134293D01*
X0052790Y0134242D01*
X0052826Y0134206D01*
X0052826Y0133587D01*
X0052861Y0132970D01*
X0052826Y0132932D01*
X0052826Y0119442D01*
X0054465Y0119442D01*
X0055060Y0120037D01*
X0056011Y0120431D01*
X0057041Y0120431D01*
X0057993Y0120037D01*
X0058721Y0119309D01*
X0059115Y0118357D01*
X0059115Y0117327D01*
X0058721Y0116376D01*
X0057993Y0115647D01*
X0057041Y0115253D01*
X0056011Y0115253D01*
X0055060Y0115647D01*
X0054465Y0116242D01*
X0052826Y0116242D01*
X0052826Y0027606D01*
X0052838Y0027594D01*
X0052826Y0026945D01*
X0052826Y0026806D01*
X0053427Y0026206D01*
X0054104Y0026206D01*
X0055055Y0025812D01*
X0055783Y0025084D01*
X0056178Y0024132D01*
X0056178Y0023102D01*
X0055783Y0022150D01*
X0055055Y0021422D01*
X0054104Y0021028D01*
X0053074Y0021028D01*
X0052122Y0021422D01*
X0051394Y0022150D01*
X0051000Y0023102D01*
X0051000Y0024108D01*
X0050538Y0024570D01*
X0050521Y0024570D01*
X0050071Y0025037D01*
X0049612Y0025495D01*
X0049612Y0025512D01*
X0049601Y0025524D01*
X0049612Y0026172D01*
X0049612Y0026821D01*
X0049624Y0026832D01*
X0049626Y0026973D01*
X0049626Y0132828D01*
X0047984Y0134297D01*
X0047129Y0134297D01*
X0047626Y0133097D01*
X0047626Y0131187D01*
X0046896Y0129423D01*
X0045545Y0128073D01*
X0043781Y0127342D01*
X0041872Y0127342D01*
X0040107Y0128073D01*
X0039376Y0128804D01*
X0039376Y0125480D01*
X0040107Y0126211D01*
X0041872Y0126942D01*
X0043781Y0126942D01*
X0045545Y0126211D01*
X0046896Y0124861D01*
X0047626Y0123097D01*
X0047626Y0121187D01*
X0046896Y0119423D01*
X0045545Y0118073D01*
X0043781Y0117342D01*
X0041872Y0117342D01*
X0040107Y0118073D01*
X0039376Y0118804D01*
X0039376Y0115763D01*
X0039569Y0115956D01*
X0040206Y0116419D01*
X0040907Y0116776D01*
X0041656Y0117019D01*
X0042433Y0117142D01*
X0042526Y0117142D01*
X0042526Y0112442D01*
X0043126Y0112442D01*
X0043126Y0117142D01*
X0043220Y0117142D01*
X0043997Y0117019D01*
X0044746Y0116776D01*
X0045447Y0116419D01*
X0046084Y0115956D01*
X0046640Y0115399D01*
X0047103Y0114763D01*
X0047460Y0114061D01*
X0047703Y0113313D01*
X0047826Y0112536D01*
X0047826Y0112442D01*
X0043127Y0112442D01*
X0043127Y0111842D01*
X0047826Y0111842D01*
X0047826Y0111749D01*
X0047703Y0110971D01*
X0047460Y0110223D01*
X0047103Y0109522D01*
X0046640Y0108885D01*
X0046084Y0108328D01*
X0045447Y0107866D01*
X0044746Y0107508D01*
X0043997Y0107265D01*
X0043220Y0107142D01*
X0043126Y0107142D01*
X0043126Y0102442D01*
X0042526Y0102442D01*
X0042526Y0107142D01*
X0042433Y0107142D01*
X0041656Y0107019D01*
X0040907Y0106776D01*
X0040206Y0106419D01*
X0039569Y0105956D01*
X0039376Y0105763D01*
X0039376Y0108521D01*
X0039569Y0108328D01*
X0040206Y0107866D01*
X0040907Y0107508D01*
X0041656Y0107265D01*
X0042433Y0107142D01*
X0042526Y0107142D01*
X0042526Y0111842D01*
X0043126Y0111842D01*
X0043126Y0107142D01*
X0043220Y0107142D01*
X0043997Y0107019D01*
X0044746Y0106776D01*
X0045447Y0106419D01*
X0046084Y0105956D01*
X0046640Y0105399D01*
X0047103Y0104763D01*
X0047460Y0104061D01*
X0047703Y0103313D01*
X0047826Y0102536D01*
X0047826Y0102442D01*
X0043127Y0102442D01*
X0043127Y0101842D01*
X0047826Y0101842D01*
X0047826Y0101749D01*
X0047703Y0100971D01*
X0047460Y0100223D01*
X0047103Y0099522D01*
X0046640Y0098885D01*
X0046084Y0098328D01*
X0045447Y0097866D01*
X0044746Y0097508D01*
X0043997Y0097265D01*
X0043220Y0097142D01*
X0043126Y0097142D01*
X0043126Y0101842D01*
X0042526Y0101842D01*
X0042526Y0097142D01*
X0042433Y0097142D01*
X0041656Y0097265D01*
X0040907Y0097508D01*
X0040206Y0097866D01*
X0039569Y0098328D01*
X0039376Y0098521D01*
X0039376Y0095480D01*
X0040107Y0096211D01*
X0041872Y0096942D01*
X0043781Y0096942D01*
X0045545Y0096211D01*
X0046896Y0094861D01*
X0047626Y0093097D01*
X0047626Y0091187D01*
X0046896Y0089423D01*
X0045545Y0088073D01*
X0043781Y0087342D01*
X0041872Y0087342D01*
X0040107Y0088073D01*
X0039376Y0088804D01*
X0039376Y0085480D01*
X0040107Y0086211D01*
X0041872Y0086942D01*
X0043781Y0086942D01*
X0045545Y0086211D01*
X0046896Y0084861D01*
X0047626Y0083097D01*
X0047626Y0081187D01*
X0046896Y0079423D01*
X0045545Y0078073D01*
X0043781Y0077342D01*
X0041872Y0077342D01*
X0040107Y0078073D01*
X0039376Y0078804D01*
X0039376Y0075480D01*
X0040107Y0076211D01*
X0041872Y0076942D01*
X0043781Y0076942D01*
X0045545Y0076211D01*
X0046896Y0074861D01*
X0047626Y0073097D01*
X0047626Y0071187D01*
X0046896Y0069423D01*
X0045545Y0068073D01*
X0043781Y0067342D01*
X0041872Y0067342D01*
X0040107Y0068073D01*
X0039376Y0068804D01*
X0039376Y0065480D01*
X0040107Y0066211D01*
X0041872Y0066942D01*
X0043781Y0066942D01*
X0045545Y0066211D01*
X0046896Y0064861D01*
X0047626Y0063097D01*
X0047626Y0061187D01*
X0046896Y0059423D01*
X0045545Y0058073D01*
X0043781Y0057342D01*
X0041872Y0057342D01*
X0040107Y0058073D01*
X0039376Y0058804D01*
X0039376Y0055480D01*
X0040107Y0056211D01*
X0041872Y0056942D01*
X0043781Y0056942D01*
X0045545Y0056211D01*
X0046896Y0054861D01*
X0047626Y0053097D01*
X0047626Y0051187D01*
X0046896Y0049423D01*
X0045545Y0048073D01*
X0043781Y0047342D01*
X0041872Y0047342D01*
X0040107Y0048073D01*
X0039376Y0048804D01*
X0039376Y0045480D01*
X0040107Y0046211D01*
X0041872Y0046942D01*
X0043781Y0046942D01*
X0045545Y0046211D01*
X0046896Y0044861D01*
X0047626Y0043097D01*
X0047626Y0041187D01*
X0046896Y0039423D01*
X0045545Y0038073D01*
X0043781Y0037342D01*
X0041872Y0037342D01*
X0040107Y0038073D01*
X0039376Y0038804D01*
X0039376Y0035480D01*
X0040107Y0036211D01*
X0041872Y0036942D01*
X0043781Y0036942D01*
X0045545Y0036211D01*
X0046896Y0034861D01*
X0047626Y0033097D01*
X0047626Y0031187D01*
X0046896Y0029423D01*
X0045545Y0028073D01*
X0043781Y0027342D01*
X0041872Y0027342D01*
X0040107Y0028073D01*
X0039376Y0028804D01*
X0039376Y0025480D01*
X0040107Y0026211D01*
X0041872Y0026942D01*
X0043781Y0026942D01*
X0045545Y0026211D01*
X0046896Y0024861D01*
X0047626Y0023097D01*
X0047626Y0021187D01*
X0046896Y0019423D01*
X0045545Y0018073D01*
X0043781Y0017342D01*
X0041872Y0017342D01*
X0040107Y0018073D01*
X0039376Y0018804D01*
X0039376Y0010142D01*
X0039456Y0009133D01*
X0039441Y0009324D02*
X0039496Y0009324D01*
X0039496Y0009923D02*
X0039394Y0009923D01*
X0039376Y0010521D02*
X0039496Y0010521D01*
X0039376Y0011120D02*
X0039628Y0011120D01*
X0039876Y0011718D02*
X0039376Y0011718D01*
X0039376Y0012317D02*
X0040124Y0012317D01*
X0040372Y0012915D02*
X0039376Y0012915D01*
X0039376Y0013514D02*
X0040953Y0013514D01*
X0041552Y0014112D02*
X0039376Y0014112D01*
X0039376Y0014711D02*
X0042329Y0014711D01*
X0043774Y0015309D02*
X0039376Y0015309D01*
X0039376Y0015908D02*
X0054526Y0015908D01*
X0054596Y0015309D02*
X0046879Y0015309D01*
X0048324Y0014711D02*
X0055195Y0014711D01*
X0055793Y0014112D02*
X0049101Y0014112D01*
X0049700Y0013514D02*
X0056392Y0013514D01*
X0056991Y0012915D02*
X0050281Y0012915D01*
X0050529Y0012317D02*
X0057589Y0012317D01*
X0058188Y0011718D02*
X0050777Y0011718D01*
X0051025Y0011120D02*
X0058786Y0011120D01*
X0059385Y0010521D02*
X0051156Y0010521D01*
X0051156Y0009923D02*
X0059983Y0009923D01*
X0060582Y0009324D02*
X0051156Y0009324D01*
X0051156Y0008726D02*
X0061180Y0008726D01*
X0061779Y0008127D02*
X0051009Y0008127D01*
X0050761Y0007529D02*
X0094891Y0007529D01*
X0094644Y0008127D02*
X0091074Y0008127D01*
X0091673Y0008726D02*
X0094496Y0008726D01*
X0094496Y0009324D02*
X0092271Y0009324D01*
X0092870Y0009923D02*
X0094496Y0009923D01*
X0094496Y0010521D02*
X0093468Y0010521D01*
X0094067Y0011120D02*
X0094628Y0011120D01*
X0094665Y0011718D02*
X0094876Y0011718D01*
X0095139Y0006930D02*
X0050513Y0006930D01*
X0050261Y0006332D02*
X0095392Y0006332D01*
X0095991Y0005733D02*
X0049662Y0005733D01*
X0049064Y0005135D02*
X0096589Y0005135D01*
X0097419Y0004536D02*
X0048234Y0004536D01*
X0046789Y0003938D02*
X0098864Y0003938D01*
X0087825Y0021295D02*
X0074203Y0021295D01*
X0074141Y0021320D02*
X0073111Y0021320D01*
X0072160Y0020926D01*
X0071432Y0020198D01*
X0071037Y0019246D01*
X0071037Y0018216D01*
X0071432Y0017265D01*
X0072160Y0016536D01*
X0073111Y0016142D01*
X0073153Y0016142D01*
X0074153Y0015142D01*
X0072589Y0015142D01*
X0069415Y0018316D01*
X0069415Y0019157D01*
X0069021Y0020109D01*
X0068293Y0020837D01*
X0067341Y0021231D01*
X0066311Y0021231D01*
X0065426Y0020865D01*
X0065426Y0023102D01*
X0065426Y0023342D01*
X0081089Y0023342D01*
X0082026Y0024279D01*
X0086089Y0028342D01*
X0086089Y0028342D01*
X0087026Y0029279D01*
X0087026Y0036737D01*
X0087030Y0037395D01*
X0087026Y0037399D01*
X0087026Y0037405D01*
X0086561Y0037870D01*
X0070826Y0053799D01*
X0070826Y0057916D01*
X0071567Y0057609D01*
X0072597Y0057609D01*
X0073549Y0058003D01*
X0074277Y0058731D01*
X0074671Y0059683D01*
X0074671Y0060713D01*
X0074277Y0061664D01*
X0073682Y0062259D01*
X0073682Y0064879D01*
X0075037Y0066235D01*
X0075037Y0065446D01*
X0075432Y0064495D01*
X0076160Y0063766D01*
X0077111Y0063372D01*
X0078141Y0063372D01*
X0079037Y0063743D01*
X0079037Y0063633D01*
X0079432Y0062682D01*
X0080160Y0061954D01*
X0081111Y0061559D01*
X0082141Y0061559D01*
X0083093Y0061954D01*
X0083821Y0062682D01*
X0084215Y0063633D01*
X0084215Y0064475D01*
X0098426Y0078686D01*
X0098426Y0080222D01*
X0098757Y0079423D01*
X0100107Y0078073D01*
X0101872Y0077342D01*
X0103781Y0077342D01*
X0105545Y0078073D01*
X0106276Y0078804D01*
X0106276Y0075480D01*
X0105545Y0076211D01*
X0103781Y0076942D01*
X0101872Y0076942D01*
X0100107Y0076211D01*
X0098757Y0074861D01*
X0098026Y0073097D01*
X0098026Y0071187D01*
X0098757Y0069423D01*
X0100107Y0068073D01*
X0101872Y0067342D01*
X0103781Y0067342D01*
X0105545Y0068073D01*
X0106276Y0068804D01*
X0106276Y0065480D01*
X0105545Y0066211D01*
X0103781Y0066942D01*
X0101872Y0066942D01*
X0100107Y0066211D01*
X0098757Y0064861D01*
X0098026Y0063097D01*
X0098026Y0061187D01*
X0098490Y0060068D01*
X0096564Y0058142D01*
X0095626Y0057205D01*
X0095626Y0049750D01*
X0094764Y0048888D01*
X0093826Y0047950D01*
X0093826Y0040496D01*
X0092026Y0038696D01*
X0092026Y0031242D01*
X0090964Y0030179D01*
X0090026Y0029242D01*
X0090026Y0023496D01*
X0086733Y0020203D01*
X0079888Y0020203D01*
X0079293Y0020798D01*
X0078341Y0021192D01*
X0077311Y0021192D01*
X0076360Y0020798D01*
X0075791Y0020228D01*
X0075093Y0020926D01*
X0074141Y0021320D01*
X0073050Y0021295D02*
X0065426Y0021295D01*
X0065426Y0021893D02*
X0088423Y0021893D01*
X0089022Y0022492D02*
X0065426Y0022492D01*
X0065426Y0023090D02*
X0089620Y0023090D01*
X0090026Y0023689D02*
X0081436Y0023689D01*
X0082026Y0024279D02*
X0082026Y0024279D01*
X0082034Y0024287D02*
X0090026Y0024287D01*
X0090026Y0024886D02*
X0082633Y0024886D01*
X0083231Y0025484D02*
X0090026Y0025484D01*
X0090026Y0026083D02*
X0083830Y0026083D01*
X0084428Y0026681D02*
X0090026Y0026681D01*
X0090026Y0027280D02*
X0085027Y0027280D01*
X0085625Y0027878D02*
X0090026Y0027878D01*
X0090026Y0028477D02*
X0086224Y0028477D01*
X0086822Y0029075D02*
X0090026Y0029075D01*
X0090458Y0029674D02*
X0087026Y0029674D01*
X0087026Y0030272D02*
X0091057Y0030272D01*
X0091655Y0030871D02*
X0087026Y0030871D01*
X0087026Y0031469D02*
X0092026Y0031469D01*
X0092026Y0032068D02*
X0087026Y0032068D01*
X0087026Y0032666D02*
X0092026Y0032666D01*
X0092026Y0033265D02*
X0087026Y0033265D01*
X0087026Y0033863D02*
X0092026Y0033863D01*
X0092026Y0034462D02*
X0087026Y0034462D01*
X0087026Y0035060D02*
X0092026Y0035060D01*
X0092026Y0035659D02*
X0087026Y0035659D01*
X0087026Y0036257D02*
X0092026Y0036257D01*
X0092026Y0036856D02*
X0087027Y0036856D01*
X0086977Y0037454D02*
X0092026Y0037454D01*
X0092026Y0038053D02*
X0086381Y0038053D01*
X0085790Y0038651D02*
X0092026Y0038651D01*
X0092580Y0039250D02*
X0085198Y0039250D01*
X0084607Y0039848D02*
X0093179Y0039848D01*
X0093777Y0040447D02*
X0084016Y0040447D01*
X0083425Y0041045D02*
X0093826Y0041045D01*
X0093826Y0041644D02*
X0082833Y0041644D01*
X0082242Y0042242D02*
X0093826Y0042242D01*
X0093826Y0042841D02*
X0081651Y0042841D01*
X0081060Y0043439D02*
X0093826Y0043439D01*
X0093826Y0044038D02*
X0080469Y0044038D01*
X0079877Y0044636D02*
X0093826Y0044636D01*
X0093826Y0045235D02*
X0079286Y0045235D01*
X0078695Y0045833D02*
X0093826Y0045833D01*
X0093826Y0046432D02*
X0078104Y0046432D01*
X0077513Y0047031D02*
X0093826Y0047031D01*
X0093826Y0047629D02*
X0076921Y0047629D01*
X0076330Y0048228D02*
X0094104Y0048228D01*
X0094702Y0048826D02*
X0075739Y0048826D01*
X0075148Y0049425D02*
X0095301Y0049425D01*
X0095626Y0050023D02*
X0074556Y0050023D01*
X0073965Y0050622D02*
X0095626Y0050622D01*
X0095626Y0051220D02*
X0073374Y0051220D01*
X0072783Y0051819D02*
X0095626Y0051819D01*
X0095626Y0052417D02*
X0072192Y0052417D01*
X0071600Y0053016D02*
X0095626Y0053016D01*
X0095626Y0053614D02*
X0071009Y0053614D01*
X0070826Y0054213D02*
X0095626Y0054213D01*
X0095626Y0054811D02*
X0070826Y0054811D01*
X0070826Y0055410D02*
X0095626Y0055410D01*
X0095626Y0056008D02*
X0070826Y0056008D01*
X0070826Y0056607D02*
X0095626Y0056607D01*
X0095627Y0057205D02*
X0070826Y0057205D01*
X0070826Y0057804D02*
X0071097Y0057804D01*
X0073067Y0057804D02*
X0096225Y0057804D01*
X0096824Y0058402D02*
X0073948Y0058402D01*
X0074389Y0059001D02*
X0097422Y0059001D01*
X0098021Y0059599D02*
X0074637Y0059599D01*
X0074671Y0060198D02*
X0098436Y0060198D01*
X0098188Y0060796D02*
X0074637Y0060796D01*
X0074389Y0061395D02*
X0098026Y0061395D01*
X0098026Y0061993D02*
X0083133Y0061993D01*
X0083731Y0062592D02*
X0098026Y0062592D01*
X0098065Y0063190D02*
X0084032Y0063190D01*
X0084215Y0063789D02*
X0098313Y0063789D01*
X0098561Y0064387D02*
X0084215Y0064387D01*
X0084727Y0064986D02*
X0098882Y0064986D01*
X0099480Y0065584D02*
X0085325Y0065584D01*
X0085924Y0066183D02*
X0100079Y0066183D01*
X0101484Y0066781D02*
X0086522Y0066781D01*
X0087121Y0067380D02*
X0101781Y0067380D01*
X0103872Y0067380D02*
X0106276Y0067380D01*
X0106276Y0067978D02*
X0105317Y0067978D01*
X0106049Y0068577D02*
X0106276Y0068577D01*
X0106276Y0066781D02*
X0104169Y0066781D01*
X0105574Y0066183D02*
X0106276Y0066183D01*
X0106276Y0065584D02*
X0106172Y0065584D01*
X0100336Y0067978D02*
X0087719Y0067978D01*
X0088318Y0068577D02*
X0099603Y0068577D01*
X0099005Y0069175D02*
X0088916Y0069175D01*
X0089515Y0069774D02*
X0098612Y0069774D01*
X0098364Y0070372D02*
X0090113Y0070372D01*
X0090712Y0070971D02*
X0098116Y0070971D01*
X0098026Y0071569D02*
X0091310Y0071569D01*
X0091909Y0072168D02*
X0098026Y0072168D01*
X0098026Y0072766D02*
X0092507Y0072766D01*
X0093106Y0073365D02*
X0098138Y0073365D01*
X0098385Y0073964D02*
X0093704Y0073964D01*
X0094303Y0074562D02*
X0098633Y0074562D01*
X0099057Y0075161D02*
X0094901Y0075161D01*
X0095500Y0075759D02*
X0099655Y0075759D01*
X0100460Y0076358D02*
X0096098Y0076358D01*
X0096697Y0076956D02*
X0106276Y0076956D01*
X0106276Y0076358D02*
X0105193Y0076358D01*
X0105998Y0075759D02*
X0106276Y0075759D01*
X0106276Y0077555D02*
X0104294Y0077555D01*
X0105626Y0078153D02*
X0106276Y0078153D01*
X0106276Y0078752D02*
X0106224Y0078752D01*
X0101359Y0077555D02*
X0097295Y0077555D01*
X0097894Y0078153D02*
X0100027Y0078153D01*
X0099429Y0078752D02*
X0098426Y0078752D01*
X0098426Y0079350D02*
X0098830Y0079350D01*
X0098540Y0079949D02*
X0098426Y0079949D01*
X0090947Y0086532D02*
X0063899Y0086532D01*
X0063826Y0087131D02*
X0091026Y0087131D01*
X0091026Y0087729D02*
X0063826Y0087729D01*
X0063826Y0088328D02*
X0091026Y0088328D01*
X0091026Y0088926D02*
X0063826Y0088926D01*
X0063826Y0089525D02*
X0070286Y0089525D01*
X0069373Y0090123D02*
X0063826Y0090123D01*
X0063826Y0090722D02*
X0068919Y0090722D01*
X0068671Y0091320D02*
X0063826Y0091320D01*
X0063826Y0091919D02*
X0068626Y0091919D01*
X0068651Y0092517D02*
X0063826Y0092517D01*
X0063826Y0093116D02*
X0068899Y0093116D01*
X0069326Y0093714D02*
X0063826Y0093714D01*
X0063826Y0094313D02*
X0070174Y0094313D01*
X0072257Y0094313D02*
X0091026Y0094313D01*
X0091026Y0094911D02*
X0063858Y0094911D01*
X0064457Y0095510D02*
X0091026Y0095510D01*
X0091026Y0096108D02*
X0065055Y0096108D01*
X0059777Y0101495D02*
X0052826Y0101495D01*
X0052826Y0100897D02*
X0059178Y0100897D01*
X0058580Y0100298D02*
X0052826Y0100298D01*
X0052826Y0099700D02*
X0057981Y0099700D01*
X0057383Y0099101D02*
X0052826Y0099101D01*
X0052826Y0098502D02*
X0056784Y0098502D01*
X0056326Y0097904D02*
X0052826Y0097904D01*
X0052826Y0097305D02*
X0056326Y0097305D01*
X0056326Y0096707D02*
X0052826Y0096707D01*
X0052826Y0096108D02*
X0056326Y0096108D01*
X0056326Y0095510D02*
X0052826Y0095510D01*
X0052826Y0094911D02*
X0056326Y0094911D01*
X0056326Y0094313D02*
X0052826Y0094313D01*
X0052826Y0093714D02*
X0056326Y0093714D01*
X0056326Y0093116D02*
X0052826Y0093116D01*
X0052826Y0092517D02*
X0056326Y0092517D01*
X0056326Y0091919D02*
X0052826Y0091919D01*
X0052826Y0091320D02*
X0056326Y0091320D01*
X0056326Y0090722D02*
X0052826Y0090722D01*
X0052826Y0090123D02*
X0056326Y0090123D01*
X0056326Y0089525D02*
X0052826Y0089525D01*
X0052826Y0088926D02*
X0056326Y0088926D01*
X0056326Y0088328D02*
X0052826Y0088328D01*
X0052826Y0087729D02*
X0056326Y0087729D01*
X0056326Y0087131D02*
X0052826Y0087131D01*
X0052826Y0086532D02*
X0056326Y0086532D01*
X0056326Y0085934D02*
X0052826Y0085934D01*
X0052826Y0085335D02*
X0056326Y0085335D01*
X0056326Y0084737D02*
X0052826Y0084737D01*
X0052826Y0084138D02*
X0056323Y0084138D01*
X0056307Y0083540D02*
X0052826Y0083540D01*
X0052826Y0082941D02*
X0056849Y0082941D01*
X0057418Y0082343D02*
X0052826Y0082343D01*
X0052826Y0081744D02*
X0057986Y0081744D01*
X0058554Y0081146D02*
X0052826Y0081146D01*
X0052826Y0080547D02*
X0059121Y0080547D01*
X0059689Y0079949D02*
X0052826Y0079949D01*
X0052826Y0079350D02*
X0060026Y0079350D01*
X0060026Y0078752D02*
X0052826Y0078752D01*
X0052826Y0078153D02*
X0060026Y0078153D01*
X0060026Y0077555D02*
X0052826Y0077555D01*
X0052826Y0076956D02*
X0060026Y0076956D01*
X0060026Y0076358D02*
X0052826Y0076358D01*
X0052826Y0075759D02*
X0060026Y0075759D01*
X0060026Y0075161D02*
X0052826Y0075161D01*
X0052826Y0074562D02*
X0060026Y0074562D01*
X0060026Y0073964D02*
X0052826Y0073964D01*
X0052826Y0073365D02*
X0060026Y0073365D01*
X0060026Y0072766D02*
X0052826Y0072766D01*
X0052826Y0072168D02*
X0060026Y0072168D01*
X0060026Y0071569D02*
X0052826Y0071569D01*
X0052826Y0070971D02*
X0060026Y0070971D01*
X0060026Y0070372D02*
X0052826Y0070372D01*
X0052826Y0069774D02*
X0060026Y0069774D01*
X0060026Y0069175D02*
X0052826Y0069175D01*
X0052826Y0068577D02*
X0060026Y0068577D01*
X0060026Y0067978D02*
X0052826Y0067978D01*
X0052826Y0067380D02*
X0060026Y0067380D01*
X0060026Y0066781D02*
X0052826Y0066781D01*
X0052826Y0066183D02*
X0060026Y0066183D01*
X0060026Y0065584D02*
X0052826Y0065584D01*
X0052826Y0064986D02*
X0060026Y0064986D01*
X0060026Y0064387D02*
X0052826Y0064387D01*
X0052826Y0063789D02*
X0060026Y0063789D01*
X0060026Y0063190D02*
X0052826Y0063190D01*
X0052826Y0062592D02*
X0060026Y0062592D01*
X0060026Y0061993D02*
X0052826Y0061993D01*
X0052826Y0061395D02*
X0060026Y0061395D01*
X0059919Y0060796D02*
X0052826Y0060796D01*
X0052826Y0060198D02*
X0059561Y0060198D01*
X0059337Y0059599D02*
X0052826Y0059599D01*
X0052826Y0059001D02*
X0059337Y0059001D01*
X0059431Y0058402D02*
X0052826Y0058402D01*
X0052826Y0057804D02*
X0059679Y0057804D01*
X0060026Y0057205D02*
X0052826Y0057205D01*
X0052826Y0056607D02*
X0060026Y0056607D01*
X0060026Y0056008D02*
X0052826Y0056008D01*
X0052826Y0055410D02*
X0060026Y0055410D01*
X0060026Y0054811D02*
X0052826Y0054811D01*
X0052826Y0054213D02*
X0060025Y0054213D01*
X0060026Y0053614D02*
X0052826Y0053614D01*
X0052826Y0053016D02*
X0060621Y0053016D01*
X0061211Y0052417D02*
X0052826Y0052417D01*
X0052826Y0051819D02*
X0061802Y0051819D01*
X0062392Y0051220D02*
X0052826Y0051220D01*
X0052826Y0050622D02*
X0062983Y0050622D01*
X0063574Y0050023D02*
X0052826Y0050023D01*
X0052826Y0049425D02*
X0064164Y0049425D01*
X0064755Y0048826D02*
X0052826Y0048826D01*
X0052826Y0048228D02*
X0065345Y0048228D01*
X0065936Y0047629D02*
X0052826Y0047629D01*
X0052826Y0047031D02*
X0066527Y0047031D01*
X0067117Y0046432D02*
X0052826Y0046432D01*
X0052826Y0045833D02*
X0067708Y0045833D01*
X0068298Y0045235D02*
X0052826Y0045235D01*
X0052826Y0044636D02*
X0068889Y0044636D01*
X0069479Y0044038D02*
X0052826Y0044038D01*
X0052826Y0043439D02*
X0070070Y0043439D01*
X0070661Y0042841D02*
X0052826Y0042841D01*
X0052826Y0042242D02*
X0071251Y0042242D01*
X0071842Y0041644D02*
X0052826Y0041644D01*
X0052826Y0041045D02*
X0072432Y0041045D01*
X0073023Y0040447D02*
X0052826Y0040447D01*
X0052826Y0039848D02*
X0073614Y0039848D01*
X0074204Y0039250D02*
X0052826Y0039250D01*
X0052826Y0038651D02*
X0074795Y0038651D01*
X0074926Y0038053D02*
X0052826Y0038053D01*
X0052826Y0037454D02*
X0074926Y0037454D01*
X0074926Y0036856D02*
X0052826Y0036856D01*
X0052826Y0036257D02*
X0074916Y0036257D01*
X0075023Y0035659D02*
X0052826Y0035659D01*
X0052826Y0035060D02*
X0075611Y0035060D01*
X0076169Y0034462D02*
X0052826Y0034462D01*
X0052826Y0033863D02*
X0076728Y0033863D01*
X0077037Y0033265D02*
X0052826Y0033265D01*
X0052826Y0032666D02*
X0077187Y0032666D01*
X0077440Y0032068D02*
X0052826Y0032068D01*
X0052826Y0031469D02*
X0059767Y0031469D01*
X0059168Y0030871D02*
X0052826Y0030871D01*
X0052826Y0030272D02*
X0058570Y0030272D01*
X0057971Y0029674D02*
X0052826Y0029674D01*
X0052826Y0029075D02*
X0057373Y0029075D01*
X0057226Y0028477D02*
X0052826Y0028477D01*
X0052826Y0027878D02*
X0057226Y0027878D01*
X0057226Y0027280D02*
X0052832Y0027280D01*
X0052952Y0026681D02*
X0057226Y0026681D01*
X0057226Y0026083D02*
X0054401Y0026083D01*
X0055383Y0025484D02*
X0057226Y0025484D01*
X0057226Y0024886D02*
X0055865Y0024886D01*
X0056113Y0024287D02*
X0057226Y0024287D01*
X0057226Y0023689D02*
X0056178Y0023689D01*
X0056173Y0023090D02*
X0057226Y0023090D01*
X0057226Y0022492D02*
X0055925Y0022492D01*
X0055526Y0021893D02*
X0057226Y0021893D01*
X0057226Y0021295D02*
X0054747Y0021295D01*
X0055044Y0020696D02*
X0047423Y0020696D01*
X0047626Y0021295D02*
X0052430Y0021295D01*
X0051651Y0021893D02*
X0047626Y0021893D01*
X0047626Y0022492D02*
X0051253Y0022492D01*
X0051005Y0023090D02*
X0047626Y0023090D01*
X0047381Y0023689D02*
X0051000Y0023689D01*
X0050820Y0024287D02*
X0047133Y0024287D01*
X0046871Y0024886D02*
X0050217Y0024886D01*
X0049623Y0025484D02*
X0046273Y0025484D01*
X0045674Y0026083D02*
X0049611Y0026083D01*
X0049612Y0026681D02*
X0044411Y0026681D01*
X0045075Y0027878D02*
X0049626Y0027878D01*
X0049626Y0027280D02*
X0039376Y0027280D01*
X0039376Y0027878D02*
X0040578Y0027878D01*
X0039704Y0028477D02*
X0039376Y0028477D01*
X0039376Y0026681D02*
X0041242Y0026681D01*
X0039979Y0026083D02*
X0039376Y0026083D01*
X0039376Y0025484D02*
X0039380Y0025484D01*
X0039376Y0018302D02*
X0039878Y0018302D01*
X0039376Y0017703D02*
X0040999Y0017703D01*
X0039376Y0017105D02*
X0053837Y0017105D01*
X0053589Y0017703D02*
X0044653Y0017703D01*
X0045774Y0018302D02*
X0053537Y0018302D01*
X0053555Y0018900D02*
X0046373Y0018900D01*
X0046927Y0019499D02*
X0053803Y0019499D01*
X0054220Y0020098D02*
X0047175Y0020098D01*
X0045949Y0028477D02*
X0049626Y0028477D01*
X0049626Y0029075D02*
X0046548Y0029075D01*
X0046999Y0029674D02*
X0049626Y0029674D01*
X0049626Y0030272D02*
X0047247Y0030272D01*
X0047495Y0030871D02*
X0049626Y0030871D01*
X0049626Y0031469D02*
X0047626Y0031469D01*
X0047626Y0032068D02*
X0049626Y0032068D01*
X0049626Y0032666D02*
X0047626Y0032666D01*
X0047557Y0033265D02*
X0049626Y0033265D01*
X0049626Y0033863D02*
X0047309Y0033863D01*
X0047061Y0034462D02*
X0049626Y0034462D01*
X0049626Y0035060D02*
X0046697Y0035060D01*
X0046098Y0035659D02*
X0049626Y0035659D01*
X0049626Y0036257D02*
X0045435Y0036257D01*
X0043990Y0036856D02*
X0049626Y0036856D01*
X0049626Y0037454D02*
X0044052Y0037454D01*
X0045497Y0038053D02*
X0049626Y0038053D01*
X0049626Y0038651D02*
X0046124Y0038651D01*
X0046722Y0039250D02*
X0049626Y0039250D01*
X0049626Y0039848D02*
X0047072Y0039848D01*
X0047320Y0040447D02*
X0049626Y0040447D01*
X0049626Y0041045D02*
X0047568Y0041045D01*
X0047626Y0041644D02*
X0049626Y0041644D01*
X0049626Y0042242D02*
X0047626Y0042242D01*
X0047626Y0042841D02*
X0049626Y0042841D01*
X0049626Y0043439D02*
X0047485Y0043439D01*
X0047237Y0044038D02*
X0049626Y0044038D01*
X0049626Y0044636D02*
X0046989Y0044636D01*
X0046522Y0045235D02*
X0049626Y0045235D01*
X0049626Y0045833D02*
X0045923Y0045833D01*
X0045013Y0046432D02*
X0049626Y0046432D01*
X0049626Y0047031D02*
X0039376Y0047031D01*
X0039376Y0047629D02*
X0041179Y0047629D01*
X0040640Y0046432D02*
X0039376Y0046432D01*
X0039376Y0045833D02*
X0039730Y0045833D01*
X0039953Y0048228D02*
X0039376Y0048228D01*
X0044474Y0047629D02*
X0049626Y0047629D01*
X0049626Y0048228D02*
X0045700Y0048228D01*
X0046299Y0048826D02*
X0049626Y0048826D01*
X0049626Y0049425D02*
X0046896Y0049425D01*
X0047144Y0050023D02*
X0049626Y0050023D01*
X0049626Y0050622D02*
X0047392Y0050622D01*
X0047626Y0051220D02*
X0049626Y0051220D01*
X0049626Y0051819D02*
X0047626Y0051819D01*
X0047626Y0052417D02*
X0049626Y0052417D01*
X0049626Y0053016D02*
X0047626Y0053016D01*
X0047412Y0053614D02*
X0049626Y0053614D01*
X0049626Y0054213D02*
X0047164Y0054213D01*
X0046916Y0054811D02*
X0049626Y0054811D01*
X0049626Y0055410D02*
X0046347Y0055410D01*
X0045749Y0056008D02*
X0049626Y0056008D01*
X0049626Y0056607D02*
X0044591Y0056607D01*
X0044896Y0057804D02*
X0049626Y0057804D01*
X0049626Y0058402D02*
X0045875Y0058402D01*
X0046473Y0059001D02*
X0049626Y0059001D01*
X0049626Y0059599D02*
X0046969Y0059599D01*
X0047217Y0060198D02*
X0049626Y0060198D01*
X0049626Y0060796D02*
X0047464Y0060796D01*
X0047626Y0061395D02*
X0049626Y0061395D01*
X0049626Y0061993D02*
X0047626Y0061993D01*
X0047626Y0062592D02*
X0049626Y0062592D01*
X0049626Y0063190D02*
X0047588Y0063190D01*
X0047340Y0063789D02*
X0049626Y0063789D01*
X0049626Y0064387D02*
X0047092Y0064387D01*
X0046771Y0064986D02*
X0049626Y0064986D01*
X0049626Y0065584D02*
X0046172Y0065584D01*
X0045574Y0066183D02*
X0049626Y0066183D01*
X0049626Y0066781D02*
X0044169Y0066781D01*
X0043872Y0067380D02*
X0049626Y0067380D01*
X0049626Y0067978D02*
X0045317Y0067978D01*
X0046049Y0068577D02*
X0049626Y0068577D01*
X0049626Y0069175D02*
X0046648Y0069175D01*
X0047041Y0069774D02*
X0049626Y0069774D01*
X0049626Y0070372D02*
X0047289Y0070372D01*
X0047537Y0070971D02*
X0049626Y0070971D01*
X0049626Y0071569D02*
X0047626Y0071569D01*
X0047626Y0072168D02*
X0049626Y0072168D01*
X0049626Y0072766D02*
X0047626Y0072766D01*
X0047515Y0073365D02*
X0049626Y0073365D01*
X0049626Y0073964D02*
X0047268Y0073964D01*
X0047020Y0074562D02*
X0049626Y0074562D01*
X0049626Y0075161D02*
X0046596Y0075161D01*
X0045998Y0075759D02*
X0049626Y0075759D01*
X0049626Y0076358D02*
X0045193Y0076358D01*
X0044294Y0077555D02*
X0049626Y0077555D01*
X0049626Y0078153D02*
X0045626Y0078153D01*
X0046224Y0078752D02*
X0049626Y0078752D01*
X0049626Y0079350D02*
X0046823Y0079350D01*
X0047113Y0079949D02*
X0049626Y0079949D01*
X0049626Y0080547D02*
X0047361Y0080547D01*
X0047609Y0081146D02*
X0049626Y0081146D01*
X0049626Y0081744D02*
X0047626Y0081744D01*
X0047626Y0082343D02*
X0049626Y0082343D01*
X0049626Y0082941D02*
X0047626Y0082941D01*
X0047443Y0083540D02*
X0049626Y0083540D01*
X0049626Y0084138D02*
X0047195Y0084138D01*
X0046947Y0084737D02*
X0049626Y0084737D01*
X0049626Y0085335D02*
X0046422Y0085335D01*
X0045823Y0085934D02*
X0049626Y0085934D01*
X0049626Y0086532D02*
X0044771Y0086532D01*
X0044716Y0087729D02*
X0049626Y0087729D01*
X0049626Y0087131D02*
X0039376Y0087131D01*
X0039376Y0087729D02*
X0040937Y0087729D01*
X0040882Y0086532D02*
X0039376Y0086532D01*
X0039376Y0085934D02*
X0039830Y0085934D01*
X0039853Y0088328D02*
X0039376Y0088328D01*
X0039376Y0095510D02*
X0039406Y0095510D01*
X0039376Y0096108D02*
X0040005Y0096108D01*
X0039376Y0096707D02*
X0041304Y0096707D01*
X0041532Y0097305D02*
X0039376Y0097305D01*
X0039376Y0097904D02*
X0040153Y0097904D01*
X0039395Y0098502D02*
X0039376Y0098502D01*
X0042526Y0098502D02*
X0043126Y0098502D01*
X0043126Y0097904D02*
X0042526Y0097904D01*
X0042526Y0097305D02*
X0043126Y0097305D01*
X0044121Y0097305D02*
X0049626Y0097305D01*
X0049626Y0096707D02*
X0044349Y0096707D01*
X0045648Y0096108D02*
X0049626Y0096108D01*
X0049626Y0095510D02*
X0046247Y0095510D01*
X0046845Y0094911D02*
X0049626Y0094911D01*
X0049626Y0094313D02*
X0047123Y0094313D01*
X0047371Y0093714D02*
X0049626Y0093714D01*
X0049626Y0093116D02*
X0047619Y0093116D01*
X0047626Y0092517D02*
X0049626Y0092517D01*
X0049626Y0091919D02*
X0047626Y0091919D01*
X0047626Y0091320D02*
X0049626Y0091320D01*
X0049626Y0090722D02*
X0047434Y0090722D01*
X0047186Y0090123D02*
X0049626Y0090123D01*
X0049626Y0089525D02*
X0046938Y0089525D01*
X0046399Y0088926D02*
X0049626Y0088926D01*
X0049626Y0088328D02*
X0045800Y0088328D01*
X0045500Y0097904D02*
X0049626Y0097904D01*
X0049626Y0098502D02*
X0046258Y0098502D01*
X0046797Y0099101D02*
X0049626Y0099101D01*
X0049626Y0099700D02*
X0047193Y0099700D01*
X0047485Y0100298D02*
X0049626Y0100298D01*
X0049626Y0100897D02*
X0047679Y0100897D01*
X0047786Y0101495D02*
X0049626Y0101495D01*
X0049626Y0102094D02*
X0043127Y0102094D01*
X0043126Y0102692D02*
X0042526Y0102692D01*
X0042526Y0103291D02*
X0043126Y0103291D01*
X0043126Y0103889D02*
X0042526Y0103889D01*
X0042526Y0104488D02*
X0043126Y0104488D01*
X0043126Y0105086D02*
X0042526Y0105086D01*
X0042526Y0105685D02*
X0043126Y0105685D01*
X0043126Y0106283D02*
X0042526Y0106283D01*
X0042526Y0106882D02*
X0043126Y0106882D01*
X0043126Y0107480D02*
X0042526Y0107480D01*
X0042526Y0108079D02*
X0043126Y0108079D01*
X0043126Y0108677D02*
X0042526Y0108677D01*
X0042526Y0109276D02*
X0043126Y0109276D01*
X0043126Y0109874D02*
X0042526Y0109874D01*
X0042526Y0110473D02*
X0043126Y0110473D01*
X0043126Y0111071D02*
X0042526Y0111071D01*
X0042526Y0111670D02*
X0043126Y0111670D01*
X0043127Y0112268D02*
X0049626Y0112268D01*
X0049626Y0111670D02*
X0047814Y0111670D01*
X0047719Y0111071D02*
X0049626Y0111071D01*
X0049626Y0110473D02*
X0047541Y0110473D01*
X0047283Y0109874D02*
X0049626Y0109874D01*
X0049626Y0109276D02*
X0046924Y0109276D01*
X0046433Y0108677D02*
X0049626Y0108677D01*
X0049626Y0108079D02*
X0045740Y0108079D01*
X0044659Y0107480D02*
X0049626Y0107480D01*
X0049626Y0106882D02*
X0044420Y0106882D01*
X0045633Y0106283D02*
X0049626Y0106283D01*
X0049626Y0105685D02*
X0046355Y0105685D01*
X0046868Y0105086D02*
X0049626Y0105086D01*
X0049626Y0104488D02*
X0047243Y0104488D01*
X0047516Y0103889D02*
X0049626Y0103889D01*
X0049626Y0103291D02*
X0047707Y0103291D01*
X0047802Y0102692D02*
X0049626Y0102692D01*
X0052826Y0102692D02*
X0060974Y0102692D01*
X0061572Y0103291D02*
X0052826Y0103291D01*
X0052826Y0103889D02*
X0062171Y0103889D01*
X0060375Y0102094D02*
X0052826Y0102094D01*
X0052826Y0104488D02*
X0069846Y0104488D01*
X0069021Y0105086D02*
X0052826Y0105086D01*
X0052826Y0105685D02*
X0068604Y0105685D01*
X0068356Y0106283D02*
X0052826Y0106283D01*
X0052826Y0106882D02*
X0068200Y0106882D01*
X0067601Y0107480D02*
X0052826Y0107480D01*
X0052826Y0108079D02*
X0067003Y0108079D01*
X0066404Y0108677D02*
X0052826Y0108677D01*
X0052826Y0109276D02*
X0065806Y0109276D01*
X0065226Y0109874D02*
X0052826Y0109874D01*
X0052826Y0110473D02*
X0065226Y0110473D01*
X0065226Y0111071D02*
X0052826Y0111071D01*
X0052826Y0111670D02*
X0065226Y0111670D01*
X0064622Y0112268D02*
X0052826Y0112268D01*
X0052826Y0112867D02*
X0064023Y0112867D01*
X0063852Y0113465D02*
X0052826Y0113465D01*
X0052826Y0114064D02*
X0063852Y0114064D01*
X0063852Y0114662D02*
X0052826Y0114662D01*
X0052826Y0115261D02*
X0055993Y0115261D01*
X0057060Y0115261D02*
X0063852Y0115261D01*
X0063852Y0115859D02*
X0058205Y0115859D01*
X0058755Y0116458D02*
X0063852Y0116458D01*
X0063852Y0117056D02*
X0059003Y0117056D01*
X0059115Y0117655D02*
X0063852Y0117655D01*
X0063852Y0118253D02*
X0059115Y0118253D01*
X0058911Y0118852D02*
X0063852Y0118852D01*
X0063852Y0119450D02*
X0058580Y0119450D01*
X0057964Y0120049D02*
X0063852Y0120049D01*
X0063852Y0120647D02*
X0052826Y0120647D01*
X0052826Y0120049D02*
X0055089Y0120049D01*
X0054473Y0119450D02*
X0052826Y0119450D01*
X0052826Y0121246D02*
X0063852Y0121246D01*
X0064231Y0121844D02*
X0064450Y0121844D01*
X0067219Y0124837D02*
X0074445Y0124837D01*
X0075043Y0124238D02*
X0067817Y0124238D01*
X0068416Y0123640D02*
X0075642Y0123640D01*
X0076240Y0123041D02*
X0068821Y0123041D01*
X0068821Y0122443D02*
X0076726Y0122443D01*
X0076261Y0121844D02*
X0075297Y0121844D01*
X0073846Y0125435D02*
X0066620Y0125435D01*
X0064441Y0126034D02*
X0073248Y0126034D01*
X0072649Y0126633D02*
X0052826Y0126633D01*
X0052826Y0127231D02*
X0072051Y0127231D01*
X0071452Y0127830D02*
X0052826Y0127830D01*
X0052826Y0128428D02*
X0070854Y0128428D01*
X0070255Y0129027D02*
X0052826Y0129027D01*
X0052826Y0129625D02*
X0069657Y0129625D01*
X0069058Y0130224D02*
X0052826Y0130224D01*
X0052826Y0130822D02*
X0068460Y0130822D01*
X0067861Y0131421D02*
X0052826Y0131421D01*
X0052826Y0132019D02*
X0067263Y0132019D01*
X0066664Y0132618D02*
X0052826Y0132618D01*
X0052847Y0133216D02*
X0066065Y0133216D01*
X0065467Y0133815D02*
X0052826Y0133815D01*
X0052653Y0134413D02*
X0064868Y0134413D01*
X0064270Y0135012D02*
X0064257Y0135012D01*
X0066651Y0138004D02*
X0091015Y0138004D01*
X0091015Y0137406D02*
X0067250Y0137406D01*
X0067848Y0136807D02*
X0091015Y0136807D01*
X0091015Y0136209D02*
X0068447Y0136209D01*
X0069045Y0135610D02*
X0091015Y0135610D01*
X0091015Y0135012D02*
X0069644Y0135012D01*
X0070242Y0134413D02*
X0091015Y0134413D01*
X0091015Y0133815D02*
X0070841Y0133815D01*
X0071439Y0133216D02*
X0091015Y0133216D01*
X0091015Y0132618D02*
X0072038Y0132618D01*
X0072636Y0132019D02*
X0091015Y0132019D01*
X0091015Y0131421D02*
X0073235Y0131421D01*
X0073834Y0130822D02*
X0091015Y0130822D01*
X0091015Y0130224D02*
X0074432Y0130224D01*
X0075031Y0129625D02*
X0091015Y0129625D01*
X0091015Y0129027D02*
X0075629Y0129027D01*
X0076228Y0128428D02*
X0091015Y0128428D01*
X0091015Y0127830D02*
X0076826Y0127830D01*
X0077425Y0127231D02*
X0091015Y0127231D01*
X0091015Y0126633D02*
X0078023Y0126633D01*
X0078622Y0126034D02*
X0091015Y0126034D01*
X0091015Y0125435D02*
X0079220Y0125435D01*
X0079819Y0124837D02*
X0091015Y0124837D01*
X0091015Y0124238D02*
X0080417Y0124238D01*
X0080526Y0123640D02*
X0091015Y0123640D01*
X0091015Y0123041D02*
X0080526Y0123041D01*
X0080526Y0122443D02*
X0091015Y0122443D01*
X0091015Y0121844D02*
X0081203Y0121844D01*
X0081800Y0121246D02*
X0091015Y0121246D01*
X0091015Y0120647D02*
X0081800Y0120647D01*
X0081800Y0120049D02*
X0091015Y0120049D01*
X0091015Y0119450D02*
X0081800Y0119450D01*
X0081800Y0118852D02*
X0091015Y0118852D01*
X0091015Y0118253D02*
X0081800Y0118253D01*
X0081800Y0117655D02*
X0091015Y0117655D01*
X0091015Y0117056D02*
X0081800Y0117056D01*
X0081800Y0116458D02*
X0091015Y0116458D01*
X0091015Y0115859D02*
X0081800Y0115859D01*
X0081800Y0115261D02*
X0091015Y0115261D01*
X0091015Y0114662D02*
X0081800Y0114662D01*
X0081800Y0114064D02*
X0091015Y0114064D01*
X0091015Y0113465D02*
X0088165Y0113465D01*
X0088763Y0112867D02*
X0091015Y0112867D01*
X0091026Y0112268D02*
X0089045Y0112268D01*
X0089215Y0111670D02*
X0091026Y0111670D01*
X0091026Y0111071D02*
X0089215Y0111071D01*
X0089069Y0110473D02*
X0091026Y0110473D01*
X0091026Y0109874D02*
X0088820Y0109874D01*
X0089365Y0109276D02*
X0091026Y0109276D01*
X0091026Y0108677D02*
X0089887Y0108677D01*
X0090135Y0108079D02*
X0091026Y0108079D01*
X0091026Y0107480D02*
X0090226Y0107480D01*
X0090226Y0106882D02*
X0091026Y0106882D01*
X0091026Y0106283D02*
X0090001Y0106283D01*
X0089641Y0105685D02*
X0091026Y0105685D01*
X0091026Y0105086D02*
X0088956Y0105086D01*
X0091026Y0104488D02*
X0082035Y0104488D01*
X0082633Y0105086D02*
X0086319Y0105086D01*
X0085634Y0105685D02*
X0083232Y0105685D01*
X0081436Y0103889D02*
X0091026Y0103889D01*
X0091026Y0103291D02*
X0080838Y0103291D01*
X0080239Y0102692D02*
X0091026Y0102692D01*
X0091026Y0102094D02*
X0079641Y0102094D01*
X0079042Y0101495D02*
X0091026Y0101495D01*
X0091026Y0100897D02*
X0078444Y0100897D01*
X0077845Y0100298D02*
X0091026Y0100298D01*
X0091026Y0099700D02*
X0077247Y0099700D01*
X0076648Y0099101D02*
X0091026Y0099101D01*
X0091026Y0098502D02*
X0076050Y0098502D01*
X0075451Y0097904D02*
X0091026Y0097904D01*
X0091026Y0097305D02*
X0074852Y0097305D01*
X0074254Y0096707D02*
X0091026Y0096707D01*
X0091026Y0093714D02*
X0073105Y0093714D01*
X0073058Y0090123D02*
X0091026Y0090123D01*
X0091026Y0089525D02*
X0072145Y0089525D01*
X0066293Y0084138D02*
X0088523Y0084138D01*
X0087917Y0083540D02*
X0066892Y0083540D01*
X0067490Y0082941D02*
X0087311Y0082941D01*
X0086705Y0082343D02*
X0068089Y0082343D01*
X0068687Y0081744D02*
X0086099Y0081744D01*
X0085493Y0081146D02*
X0069286Y0081146D01*
X0069884Y0080547D02*
X0084887Y0080547D01*
X0084281Y0079949D02*
X0070483Y0079949D01*
X0070826Y0079350D02*
X0083675Y0079350D01*
X0083069Y0078752D02*
X0070826Y0078752D01*
X0070826Y0078153D02*
X0082463Y0078153D01*
X0081857Y0077555D02*
X0070826Y0077555D01*
X0070826Y0076956D02*
X0081251Y0076956D01*
X0080645Y0076358D02*
X0070826Y0076358D01*
X0070826Y0075759D02*
X0080039Y0075759D01*
X0079433Y0075161D02*
X0070826Y0075161D01*
X0070826Y0074562D02*
X0078827Y0074562D01*
X0078221Y0073964D02*
X0070826Y0073964D01*
X0070826Y0073365D02*
X0077615Y0073365D01*
X0077009Y0072766D02*
X0070826Y0072766D01*
X0070826Y0072168D02*
X0076403Y0072168D01*
X0075797Y0071569D02*
X0070826Y0071569D01*
X0070826Y0070971D02*
X0075191Y0070971D01*
X0074650Y0070372D02*
X0070826Y0070372D01*
X0070826Y0069774D02*
X0074051Y0069774D01*
X0073453Y0069175D02*
X0070826Y0069175D01*
X0070826Y0068577D02*
X0072854Y0068577D01*
X0072256Y0067978D02*
X0070826Y0067978D01*
X0070826Y0067380D02*
X0071657Y0067380D01*
X0071059Y0066781D02*
X0070826Y0066781D01*
X0073789Y0064986D02*
X0075228Y0064986D01*
X0075037Y0065584D02*
X0074387Y0065584D01*
X0074986Y0066183D02*
X0075037Y0066183D01*
X0075539Y0064387D02*
X0073682Y0064387D01*
X0073682Y0063789D02*
X0076137Y0063789D01*
X0073682Y0063190D02*
X0079221Y0063190D01*
X0079522Y0062592D02*
X0073682Y0062592D01*
X0073948Y0061993D02*
X0080120Y0061993D01*
X0089129Y0084737D02*
X0065695Y0084737D01*
X0065096Y0085335D02*
X0089735Y0085335D01*
X0090341Y0085934D02*
X0064498Y0085934D01*
X0049626Y0076956D02*
X0039376Y0076956D01*
X0039376Y0076358D02*
X0040460Y0076358D01*
X0039655Y0075759D02*
X0039376Y0075759D01*
X0039376Y0077555D02*
X0041359Y0077555D01*
X0040027Y0078153D02*
X0039376Y0078153D01*
X0039376Y0078752D02*
X0039429Y0078752D01*
X0039376Y0068577D02*
X0039603Y0068577D01*
X0039376Y0067978D02*
X0040336Y0067978D01*
X0039376Y0067380D02*
X0041781Y0067380D01*
X0041484Y0066781D02*
X0039376Y0066781D01*
X0039376Y0066183D02*
X0040079Y0066183D01*
X0039480Y0065584D02*
X0039376Y0065584D01*
X0039376Y0058402D02*
X0039778Y0058402D01*
X0039376Y0057804D02*
X0040757Y0057804D01*
X0041062Y0056607D02*
X0039376Y0056607D01*
X0039376Y0057205D02*
X0049626Y0057205D01*
X0039904Y0056008D02*
X0039376Y0056008D01*
X0039376Y0038651D02*
X0039529Y0038651D01*
X0039376Y0038053D02*
X0040156Y0038053D01*
X0039376Y0037454D02*
X0041601Y0037454D01*
X0041663Y0036856D02*
X0039376Y0036856D01*
X0039376Y0036257D02*
X0040218Y0036257D01*
X0039555Y0035659D02*
X0039376Y0035659D01*
X0039376Y0016506D02*
X0054301Y0016506D01*
X0057209Y0020696D02*
X0057226Y0020696D01*
X0068434Y0020696D02*
X0071930Y0020696D01*
X0071390Y0020098D02*
X0069026Y0020098D01*
X0069274Y0019499D02*
X0071142Y0019499D01*
X0071037Y0018900D02*
X0069415Y0018900D01*
X0069429Y0018302D02*
X0071037Y0018302D01*
X0071250Y0017703D02*
X0070028Y0017703D01*
X0070626Y0017105D02*
X0071591Y0017105D01*
X0071225Y0016506D02*
X0072232Y0016506D01*
X0071823Y0015908D02*
X0073387Y0015908D01*
X0073985Y0015309D02*
X0072422Y0015309D01*
X0075323Y0020696D02*
X0076258Y0020696D01*
X0079395Y0020696D02*
X0087226Y0020696D01*
X0043126Y0099101D02*
X0042526Y0099101D01*
X0042526Y0099700D02*
X0043126Y0099700D01*
X0043126Y0100298D02*
X0042526Y0100298D01*
X0042526Y0100897D02*
X0043126Y0100897D01*
X0043126Y0101495D02*
X0042526Y0101495D01*
X0040020Y0106283D02*
X0039376Y0106283D01*
X0039376Y0106882D02*
X0041233Y0106882D01*
X0040994Y0107480D02*
X0039376Y0107480D01*
X0039376Y0108079D02*
X0039913Y0108079D01*
X0042526Y0112867D02*
X0043126Y0112867D01*
X0043126Y0113465D02*
X0042526Y0113465D01*
X0042526Y0114064D02*
X0043126Y0114064D01*
X0043126Y0114662D02*
X0042526Y0114662D01*
X0042526Y0115261D02*
X0043126Y0115261D01*
X0043126Y0115859D02*
X0042526Y0115859D01*
X0042526Y0116458D02*
X0043126Y0116458D01*
X0043126Y0117056D02*
X0042526Y0117056D01*
X0041891Y0117056D02*
X0039376Y0117056D01*
X0039376Y0116458D02*
X0040283Y0116458D01*
X0039473Y0115859D02*
X0039376Y0115859D01*
X0039376Y0117655D02*
X0041117Y0117655D01*
X0039927Y0118253D02*
X0039376Y0118253D01*
X0043762Y0117056D02*
X0049626Y0117056D01*
X0049626Y0116458D02*
X0045370Y0116458D01*
X0046180Y0115859D02*
X0049626Y0115859D01*
X0049626Y0115261D02*
X0046741Y0115261D01*
X0047154Y0114662D02*
X0049626Y0114662D01*
X0049626Y0114064D02*
X0047459Y0114064D01*
X0047654Y0113465D02*
X0049626Y0113465D01*
X0049626Y0112867D02*
X0047774Y0112867D01*
X0049626Y0117655D02*
X0044536Y0117655D01*
X0045726Y0118253D02*
X0049626Y0118253D01*
X0049626Y0118852D02*
X0046324Y0118852D01*
X0046907Y0119450D02*
X0049626Y0119450D01*
X0049626Y0120049D02*
X0047155Y0120049D01*
X0047403Y0120647D02*
X0049626Y0120647D01*
X0049626Y0121246D02*
X0047626Y0121246D01*
X0047626Y0121844D02*
X0049626Y0121844D01*
X0049626Y0122443D02*
X0047626Y0122443D01*
X0047626Y0123041D02*
X0049626Y0123041D01*
X0049626Y0123640D02*
X0047402Y0123640D01*
X0047154Y0124238D02*
X0049626Y0124238D01*
X0049626Y0124837D02*
X0046906Y0124837D01*
X0046321Y0125435D02*
X0049626Y0125435D01*
X0049626Y0126034D02*
X0045723Y0126034D01*
X0044529Y0126633D02*
X0049626Y0126633D01*
X0049626Y0127231D02*
X0039376Y0127231D01*
X0039376Y0126633D02*
X0041124Y0126633D01*
X0040695Y0127830D02*
X0039376Y0127830D01*
X0039376Y0128428D02*
X0039752Y0128428D01*
X0039930Y0126034D02*
X0039376Y0126034D01*
X0044958Y0127830D02*
X0049626Y0127830D01*
X0049626Y0128428D02*
X0045901Y0128428D01*
X0046499Y0129027D02*
X0049626Y0129027D01*
X0049626Y0129625D02*
X0046979Y0129625D01*
X0047227Y0130224D02*
X0049626Y0130224D01*
X0049626Y0130822D02*
X0047475Y0130822D01*
X0047626Y0131421D02*
X0049626Y0131421D01*
X0049626Y0132019D02*
X0047626Y0132019D01*
X0047626Y0132618D02*
X0049626Y0132618D01*
X0049192Y0133216D02*
X0047577Y0133216D01*
X0047329Y0133815D02*
X0048523Y0133815D01*
X0050646Y0136209D02*
X0060169Y0136209D01*
X0060037Y0136807D02*
X0050078Y0136807D01*
X0050077Y0137406D02*
X0060037Y0137406D01*
X0060223Y0138004D02*
X0049829Y0138004D01*
X0049434Y0138603D02*
X0060526Y0138603D01*
X0061124Y0139201D02*
X0048666Y0139201D01*
X0047548Y0140997D02*
X0091015Y0140997D01*
X0091015Y0141595D02*
X0047626Y0141595D01*
X0047626Y0142194D02*
X0091015Y0142194D01*
X0091214Y0142792D02*
X0047626Y0142792D01*
X0047505Y0143391D02*
X0091812Y0143391D01*
X0092411Y0143989D02*
X0047257Y0143989D01*
X0047009Y0144588D02*
X0093009Y0144588D01*
X0093608Y0145186D02*
X0046570Y0145186D01*
X0045972Y0145785D02*
X0094206Y0145785D01*
X0094805Y0146383D02*
X0065814Y0146383D01*
X0065741Y0146353D02*
X0066693Y0146747D01*
X0066988Y0147042D01*
X0088083Y0147042D01*
X0088129Y0147002D01*
X0088862Y0147042D01*
X0089597Y0147042D01*
X0089640Y0147085D01*
X0089700Y0147088D01*
X0090190Y0147636D01*
X0090710Y0148155D01*
X0090710Y0148216D01*
X0090758Y0148270D01*
X0091041Y0148270D01*
X0091993Y0148664D01*
X0092721Y0149392D01*
X0093115Y0150344D01*
X0093115Y0151374D01*
X0092721Y0152325D01*
X0091993Y0153054D01*
X0091041Y0153448D01*
X0090011Y0153448D01*
X0089060Y0153054D01*
X0088332Y0152325D01*
X0087937Y0151374D01*
X0087937Y0150842D01*
X0066988Y0150842D01*
X0066693Y0151137D01*
X0065741Y0151531D01*
X0064711Y0151531D01*
X0063760Y0151137D01*
X0063032Y0150409D01*
X0062637Y0149457D01*
X0062637Y0148427D01*
X0063032Y0147476D01*
X0063760Y0146747D01*
X0064711Y0146353D01*
X0065741Y0146353D01*
X0064639Y0146383D02*
X0045130Y0146383D01*
X0044356Y0147580D02*
X0062988Y0147580D01*
X0062740Y0148179D02*
X0045651Y0148179D01*
X0046250Y0148777D02*
X0062637Y0148777D01*
X0062637Y0149376D02*
X0046848Y0149376D01*
X0047124Y0149974D02*
X0062852Y0149974D01*
X0063196Y0150573D02*
X0047372Y0150573D01*
X0047620Y0151171D02*
X0063843Y0151171D01*
X0063918Y0152709D02*
X0063814Y0152759D01*
X0063642Y0152759D01*
X0063215Y0152711D01*
X0063155Y0152759D01*
X0062813Y0152759D01*
X0062752Y0152711D01*
X0062326Y0152759D01*
X0062153Y0152759D01*
X0062050Y0152709D01*
X0061908Y0152759D01*
X0061897Y0152759D01*
X0061891Y0152764D01*
X0061709Y0152828D01*
X0061375Y0152866D01*
X0061365Y0152863D01*
X0061358Y0152868D01*
X0061350Y0152869D01*
X0061343Y0152877D01*
X0061059Y0153056D01*
X0060742Y0153167D01*
X0060731Y0153167D01*
X0060725Y0153172D01*
X0060718Y0153175D01*
X0060713Y0153185D01*
X0060475Y0153422D01*
X0060191Y0153601D01*
X0060181Y0153603D01*
X0060176Y0153610D01*
X0060170Y0153614D01*
X0060167Y0153625D01*
X0059988Y0153909D01*
X0059751Y0154147D01*
X0059741Y0154151D01*
X0059739Y0154159D01*
X0059733Y0154165D01*
X0059733Y0154175D01*
X0059622Y0154493D01*
X0059443Y0154777D01*
X0059435Y0154784D01*
X0059434Y0154792D01*
X0059430Y0154799D01*
X0059432Y0154809D01*
X0059394Y0155143D01*
X0059283Y0155460D01*
X0059277Y0155468D01*
X0059278Y0155476D01*
X0059275Y0155484D01*
X0059280Y0155493D01*
X0059317Y0155827D01*
X0059280Y0156161D01*
X0059275Y0156171D01*
X0059278Y0156178D01*
X0059277Y0156186D01*
X0059283Y0156195D01*
X0059394Y0156512D01*
X0059432Y0156845D01*
X0059430Y0156856D01*
X0059434Y0156863D01*
X0059435Y0156871D01*
X0059443Y0156877D01*
X0059622Y0157162D01*
X0059733Y0157479D01*
X0059733Y0157490D01*
X0059739Y0157495D01*
X0059741Y0157503D01*
X0059751Y0157508D01*
X0059988Y0157745D01*
X0060167Y0158030D01*
X0060170Y0158040D01*
X0060176Y0158044D01*
X0060181Y0158051D01*
X0060191Y0158053D01*
X0060475Y0158232D01*
X0060713Y0158470D01*
X0060718Y0158479D01*
X0060725Y0158482D01*
X0060731Y0158488D01*
X0060742Y0158488D01*
X0061059Y0158599D01*
X0061343Y0158777D01*
X0061350Y0158786D01*
X0061358Y0158787D01*
X0061365Y0158791D01*
X0061375Y0158789D01*
X0061709Y0158826D01*
X0061891Y0158890D01*
X0061897Y0158896D01*
X0061908Y0158896D01*
X0062050Y0158946D01*
X0062153Y0158896D01*
X0062326Y0158896D01*
X0062752Y0158944D01*
X0062813Y0158896D01*
X0063155Y0158896D01*
X0063215Y0158944D01*
X0063642Y0158896D01*
X0063814Y0158896D01*
X0063918Y0158946D01*
X0064060Y0158896D01*
X0064071Y0158896D01*
X0064077Y0158890D01*
X0064259Y0158826D01*
X0064593Y0158789D01*
X0064603Y0158791D01*
X0064610Y0158787D01*
X0064618Y0158786D01*
X0064625Y0158777D01*
X0064909Y0158599D01*
X0065226Y0158488D01*
X0065237Y0158488D01*
X0065243Y0158482D01*
X0065250Y0158479D01*
X0065255Y0158470D01*
X0065492Y0158232D01*
X0065777Y0158053D01*
X0065787Y0158051D01*
X0065791Y0158044D01*
X0065798Y0158040D01*
X0065801Y0158030D01*
X0065979Y0157745D01*
X0066217Y0157508D01*
X0066227Y0157503D01*
X0066229Y0157495D01*
X0066235Y0157490D01*
X0066235Y0157479D01*
X0066346Y0157162D01*
X0066525Y0156877D01*
X0066533Y0156871D01*
X0066534Y0156863D01*
X0066538Y0156856D01*
X0066536Y0156845D01*
X0066573Y0156512D01*
X0066684Y0156195D01*
X0066691Y0156186D01*
X0066690Y0156178D01*
X0066693Y0156171D01*
X0066688Y0156161D01*
X0066651Y0155827D01*
X0066688Y0155493D01*
X0066693Y0155484D01*
X0066690Y0155476D01*
X0066691Y0155468D01*
X0066684Y0155460D01*
X0066573Y0155143D01*
X0066536Y0154809D01*
X0066538Y0154799D01*
X0066534Y0154792D01*
X0066533Y0154784D01*
X0066525Y0154777D01*
X0066346Y0154493D01*
X0066235Y0154175D01*
X0066235Y0154165D01*
X0066229Y0154159D01*
X0066227Y0154151D01*
X0066217Y0154147D01*
X0065979Y0153909D01*
X0065801Y0153625D01*
X0065798Y0153614D01*
X0065792Y0153610D01*
X0065787Y0153603D01*
X0065777Y0153601D01*
X0065492Y0153422D01*
X0065255Y0153185D01*
X0065250Y0153175D01*
X0065243Y0153172D01*
X0065237Y0153167D01*
X0065226Y0153167D01*
X0064909Y0153056D01*
X0064625Y0152877D01*
X0064618Y0152869D01*
X0064610Y0152868D01*
X0064603Y0152863D01*
X0064593Y0152866D01*
X0064259Y0152828D01*
X0064077Y0152764D01*
X0064071Y0152759D01*
X0064060Y0152759D01*
X0063918Y0152709D01*
X0064768Y0152967D02*
X0080885Y0152967D01*
X0080744Y0153056D02*
X0081028Y0152877D01*
X0081035Y0152869D01*
X0081043Y0152868D01*
X0081050Y0152863D01*
X0081060Y0152866D01*
X0081394Y0152828D01*
X0081576Y0152764D01*
X0081582Y0152759D01*
X0081593Y0152759D01*
X0081735Y0152709D01*
X0081838Y0152759D01*
X0082011Y0152759D01*
X0082438Y0152711D01*
X0082498Y0152759D01*
X0082840Y0152759D01*
X0082900Y0152711D01*
X0083327Y0152759D01*
X0083499Y0152759D01*
X0083603Y0152709D01*
X0083745Y0152759D01*
X0083756Y0152759D01*
X0083762Y0152764D01*
X0083944Y0152828D01*
X0084278Y0152866D01*
X0084288Y0152863D01*
X0084295Y0152868D01*
X0084303Y0152869D01*
X0084310Y0152877D01*
X0084594Y0153056D01*
X0084911Y0153167D01*
X0084922Y0153167D01*
X0084928Y0153172D01*
X0084935Y0153175D01*
X0084940Y0153185D01*
X0085177Y0153422D01*
X0085462Y0153601D01*
X0085472Y0153603D01*
X0085477Y0153610D01*
X0085483Y0153614D01*
X0085486Y0153625D01*
X0085664Y0153909D01*
X0085902Y0154147D01*
X0085912Y0154151D01*
X0085914Y0154159D01*
X0085920Y0154165D01*
X0085920Y0154175D01*
X0086031Y0154493D01*
X0086210Y0154777D01*
X0086218Y0154784D01*
X0086219Y0154792D01*
X0086223Y0154799D01*
X0086221Y0154809D01*
X0086258Y0155143D01*
X0086369Y0155460D01*
X0086376Y0155468D01*
X0086375Y0155476D01*
X0086378Y0155484D01*
X0086373Y0155493D01*
X0086336Y0155827D01*
X0086373Y0156161D01*
X0086378Y0156171D01*
X0086375Y0156178D01*
X0086376Y0156186D01*
X0086369Y0156195D01*
X0086258Y0156512D01*
X0086221Y0156845D01*
X0086223Y0156856D01*
X0086219Y0156863D01*
X0086218Y0156871D01*
X0086210Y0156877D01*
X0086031Y0157162D01*
X0085920Y0157479D01*
X0085920Y0157490D01*
X0085914Y0157495D01*
X0085912Y0157503D01*
X0085902Y0157508D01*
X0085664Y0157745D01*
X0085486Y0158030D01*
X0085483Y0158040D01*
X0085477Y0158044D01*
X0085472Y0158051D01*
X0085462Y0158053D01*
X0085177Y0158232D01*
X0084940Y0158470D01*
X0084935Y0158479D01*
X0084928Y0158482D01*
X0084922Y0158488D01*
X0084911Y0158488D01*
X0084594Y0158599D01*
X0084310Y0158777D01*
X0084303Y0158786D01*
X0084295Y0158787D01*
X0084288Y0158791D01*
X0084278Y0158789D01*
X0083944Y0158826D01*
X0083762Y0158890D01*
X0083756Y0158896D01*
X0083745Y0158896D01*
X0083603Y0158946D01*
X0083499Y0158896D01*
X0083327Y0158896D01*
X0082900Y0158944D01*
X0082840Y0158896D01*
X0082498Y0158896D01*
X0082438Y0158944D01*
X0082011Y0158896D01*
X0081838Y0158896D01*
X0081735Y0158946D01*
X0081593Y0158896D01*
X0081582Y0158896D01*
X0081576Y0158890D01*
X0081394Y0158826D01*
X0081060Y0158789D01*
X0081050Y0158791D01*
X0081043Y0158787D01*
X0081035Y0158786D01*
X0081028Y0158777D01*
X0080744Y0158599D01*
X0080427Y0158488D01*
X0080416Y0158488D01*
X0080410Y0158482D01*
X0080403Y0158479D01*
X0080398Y0158470D01*
X0080161Y0158232D01*
X0079876Y0158053D01*
X0079866Y0158051D01*
X0079861Y0158044D01*
X0079855Y0158040D01*
X0079852Y0158030D01*
X0079673Y0157745D01*
X0079436Y0157508D01*
X0079426Y0157503D01*
X0079424Y0157495D01*
X0079418Y0157490D01*
X0079418Y0157479D01*
X0079307Y0157162D01*
X0079128Y0156877D01*
X0079120Y0156871D01*
X0079119Y0156863D01*
X0079115Y0156856D01*
X0079117Y0156845D01*
X0079079Y0156512D01*
X0078969Y0156195D01*
X0078962Y0156186D01*
X0078963Y0156178D01*
X0078960Y0156171D01*
X0078965Y0156161D01*
X0079002Y0155827D01*
X0078965Y0155493D01*
X0078960Y0155484D01*
X0078963Y0155476D01*
X0078962Y0155468D01*
X0078969Y0155460D01*
X0079079Y0155143D01*
X0079117Y0154809D01*
X0079115Y0154799D01*
X0079119Y0154792D01*
X0079120Y0154784D01*
X0079128Y0154777D01*
X0079307Y0154493D01*
X0079418Y0154175D01*
X0079418Y0154165D01*
X0079424Y0154159D01*
X0079426Y0154151D01*
X0079436Y0154147D01*
X0079673Y0153909D01*
X0079852Y0153625D01*
X0079855Y0153614D01*
X0079861Y0153610D01*
X0079866Y0153603D01*
X0079876Y0153601D01*
X0080161Y0153422D01*
X0080398Y0153185D01*
X0080403Y0153175D01*
X0080410Y0153172D01*
X0080416Y0153167D01*
X0080427Y0153167D01*
X0080744Y0153056D01*
X0079932Y0153566D02*
X0065720Y0153566D01*
X0066234Y0154164D02*
X0079419Y0154164D01*
X0079137Y0154763D02*
X0066516Y0154763D01*
X0066650Y0155361D02*
X0079003Y0155361D01*
X0078987Y0155960D02*
X0066665Y0155960D01*
X0066568Y0156558D02*
X0079085Y0156558D01*
X0079304Y0157157D02*
X0066349Y0157157D01*
X0065973Y0157755D02*
X0079680Y0157755D01*
X0080282Y0158354D02*
X0065371Y0158354D01*
X0064603Y0162543D02*
X0081049Y0162543D01*
X0080683Y0163142D02*
X0064970Y0163142D01*
X0064970Y0163740D02*
X0080683Y0163740D01*
X0080683Y0164339D02*
X0064970Y0164339D01*
X0064970Y0164937D02*
X0080683Y0164937D01*
X0080683Y0165536D02*
X0064970Y0165536D01*
X0064970Y0166134D02*
X0080683Y0166134D01*
X0080683Y0166733D02*
X0064970Y0166733D01*
X0064970Y0167331D02*
X0080683Y0167331D01*
X0080683Y0167930D02*
X0064970Y0167930D01*
X0064970Y0168528D02*
X0080683Y0168528D01*
X0080683Y0169127D02*
X0064970Y0169127D01*
X0064970Y0169725D02*
X0080683Y0169725D01*
X0081002Y0170324D02*
X0064651Y0170324D01*
X0057452Y0170324D02*
X0046844Y0170324D01*
X0048289Y0169725D02*
X0056695Y0169725D01*
X0056260Y0169127D02*
X0049087Y0169127D01*
X0049685Y0168528D02*
X0055984Y0168528D01*
X0055841Y0167930D02*
X0050275Y0167930D01*
X0050523Y0167331D02*
X0055849Y0167331D01*
X0055880Y0166733D02*
X0050771Y0166733D01*
X0051019Y0166134D02*
X0055880Y0166134D01*
X0055854Y0165536D02*
X0051156Y0165536D01*
X0051156Y0164937D02*
X0055858Y0164937D01*
X0055989Y0164339D02*
X0051156Y0164339D01*
X0051156Y0163740D02*
X0056277Y0163740D01*
X0056724Y0163142D02*
X0051015Y0163142D01*
X0050767Y0162543D02*
X0057587Y0162543D01*
X0060597Y0158354D02*
X0039376Y0158354D01*
X0039376Y0158952D02*
X0043829Y0158952D01*
X0044708Y0156558D02*
X0059400Y0156558D01*
X0059302Y0155960D02*
X0045797Y0155960D01*
X0046396Y0155361D02*
X0059318Y0155361D01*
X0059452Y0154763D02*
X0046937Y0154763D01*
X0047184Y0154164D02*
X0059734Y0154164D01*
X0060247Y0153566D02*
X0047432Y0153566D01*
X0047626Y0152967D02*
X0061200Y0152967D01*
X0059619Y0157157D02*
X0039376Y0157157D01*
X0039376Y0157755D02*
X0059995Y0157755D01*
X0066610Y0151171D02*
X0087937Y0151171D01*
X0088102Y0151770D02*
X0047626Y0151770D01*
X0047626Y0152369D02*
X0088375Y0152369D01*
X0088973Y0152967D02*
X0084453Y0152967D01*
X0085405Y0153566D02*
X0098221Y0153566D01*
X0098026Y0152967D02*
X0092080Y0152967D01*
X0092678Y0152369D02*
X0098026Y0152369D01*
X0098026Y0151770D02*
X0092951Y0151770D01*
X0093115Y0151171D02*
X0098033Y0151171D01*
X0098281Y0150573D02*
X0093115Y0150573D01*
X0092962Y0149974D02*
X0098396Y0149974D01*
X0097798Y0149376D02*
X0092705Y0149376D01*
X0092107Y0148777D02*
X0097199Y0148777D01*
X0096601Y0148179D02*
X0090710Y0148179D01*
X0090141Y0147580D02*
X0096002Y0147580D01*
X0095403Y0146982D02*
X0066928Y0146982D01*
X0063525Y0146982D02*
X0039376Y0146982D01*
X0039376Y0147580D02*
X0041296Y0147580D01*
X0040523Y0146383D02*
X0039376Y0146383D01*
X0039376Y0145785D02*
X0039681Y0145785D01*
X0039376Y0148179D02*
X0040001Y0148179D01*
X0039403Y0148777D02*
X0039376Y0148777D01*
X0039376Y0155960D02*
X0039856Y0155960D01*
X0039376Y0156558D02*
X0040944Y0156558D01*
X0042384Y0159551D02*
X0039376Y0159551D01*
X0039376Y0160149D02*
X0041575Y0160149D01*
X0040976Y0160748D02*
X0039376Y0160748D01*
X0039376Y0161346D02*
X0040381Y0161346D01*
X0040133Y0161945D02*
X0039376Y0161945D01*
X0039376Y0162543D02*
X0039886Y0162543D01*
X0039638Y0163142D02*
X0039376Y0163142D01*
X0039376Y0163740D02*
X0039496Y0163740D01*
X0039496Y0164339D02*
X0039392Y0164339D01*
X0039439Y0164937D02*
X0039496Y0164937D01*
X0046824Y0158952D02*
X0098829Y0158952D01*
X0097384Y0159551D02*
X0048269Y0159551D01*
X0049078Y0160149D02*
X0096575Y0160149D01*
X0095976Y0160748D02*
X0049677Y0160748D01*
X0050272Y0161346D02*
X0095381Y0161346D01*
X0095133Y0161945D02*
X0050519Y0161945D01*
X0047300Y0140398D02*
X0091015Y0140398D01*
X0091015Y0139800D02*
X0047052Y0139800D01*
X0051315Y0135610D02*
X0060417Y0135610D01*
X0060996Y0135012D02*
X0052020Y0135012D01*
X0052826Y0126034D02*
X0061102Y0126034D01*
X0060546Y0125435D02*
X0052826Y0125435D01*
X0052826Y0124837D02*
X0060298Y0124837D01*
X0060182Y0124238D02*
X0052826Y0124238D01*
X0052826Y0123640D02*
X0060182Y0123640D01*
X0060383Y0123041D02*
X0052826Y0123041D01*
X0052826Y0122443D02*
X0060709Y0122443D01*
X0061312Y0121844D02*
X0052826Y0121844D01*
X0052826Y0115859D02*
X0054848Y0115859D01*
X0069392Y0121844D02*
X0070356Y0121844D01*
X0081800Y0113465D02*
X0085088Y0113465D01*
X0091015Y0138603D02*
X0066053Y0138603D01*
X0064129Y0139201D02*
X0091015Y0139201D01*
X0085919Y0154164D02*
X0098468Y0154164D01*
X0098716Y0154763D02*
X0086201Y0154763D01*
X0086335Y0155361D02*
X0099257Y0155361D01*
X0099856Y0155960D02*
X0086351Y0155960D01*
X0086253Y0156558D02*
X0100944Y0156558D01*
X0101824Y0158952D02*
X0106276Y0158952D01*
X0106276Y0158354D02*
X0085056Y0158354D01*
X0085658Y0157755D02*
X0106276Y0157755D01*
X0106276Y0157157D02*
X0086034Y0157157D01*
X0088066Y0162543D02*
X0094886Y0162543D01*
X0094638Y0163142D02*
X0088929Y0163142D01*
X0089376Y0163740D02*
X0094496Y0163740D01*
X0094496Y0164339D02*
X0089664Y0164339D01*
X0089795Y0164937D02*
X0094496Y0164937D01*
X0094496Y0165536D02*
X0089799Y0165536D01*
X0089773Y0166134D02*
X0094634Y0166134D01*
X0094882Y0166733D02*
X0089773Y0166733D01*
X0089804Y0167331D02*
X0095130Y0167331D01*
X0095378Y0167930D02*
X0089812Y0167930D01*
X0089669Y0168528D02*
X0095968Y0168528D01*
X0096566Y0169127D02*
X0089393Y0169127D01*
X0088958Y0169725D02*
X0097364Y0169725D01*
X0098809Y0170324D02*
X0088201Y0170324D01*
X0103269Y0159551D02*
X0106276Y0159551D01*
X0106276Y0160149D02*
X0104078Y0160149D01*
X0104677Y0160748D02*
X0106276Y0160748D01*
X0106276Y0161346D02*
X0105272Y0161346D01*
X0105519Y0161945D02*
X0106276Y0161945D01*
X0106276Y0162543D02*
X0105767Y0162543D01*
X0106015Y0163142D02*
X0106276Y0163142D01*
X0106276Y0163740D02*
X0106156Y0163740D01*
X0106156Y0164339D02*
X0106261Y0164339D01*
X0106214Y0164937D02*
X0106156Y0164937D01*
X0106276Y0156558D02*
X0104708Y0156558D01*
X0105797Y0155960D02*
X0106276Y0155960D01*
M02*
