G75*
%MOIN*%
%OFA0B0*%
%FSLAX25Y25*%
%IPPOS*%
%LPD*%
%AMOC8*
5,1,8,0,0,1.08239X$1,22.5*
%
%ADD10C,0.09460*%
%ADD11C,0.08200*%
%ADD12C,0.01184*%
%ADD13C,0.00787*%
D10*
X0045326Y0009642D03*
X0100326Y0009642D03*
X0100326Y0164642D03*
X0045326Y0164642D03*
D11*
X0042826Y0022142D03*
X0042826Y0032142D03*
X0042826Y0042142D03*
X0042826Y0052142D03*
X0042826Y0062142D03*
X0042826Y0072142D03*
X0042826Y0082142D03*
X0042826Y0092142D03*
X0042826Y0102142D03*
X0042826Y0112142D03*
X0042826Y0122142D03*
X0042826Y0132142D03*
X0042826Y0142142D03*
X0042826Y0152142D03*
X0102826Y0152142D03*
X0102826Y0142142D03*
X0102826Y0132142D03*
X0102826Y0122142D03*
X0102826Y0112142D03*
X0102826Y0102142D03*
X0102826Y0092142D03*
X0102826Y0082142D03*
X0102826Y0072142D03*
X0102826Y0062142D03*
X0102826Y0052142D03*
X0102826Y0042142D03*
X0102826Y0032142D03*
X0102826Y0022142D03*
D12*
X0076956Y0113397D02*
X0076956Y0120887D01*
X0080508Y0120887D01*
X0080508Y0113397D01*
X0076956Y0113397D01*
X0076956Y0114580D02*
X0080508Y0114580D01*
X0080508Y0115763D02*
X0076956Y0115763D01*
X0076956Y0116946D02*
X0080508Y0116946D01*
X0080508Y0118129D02*
X0076956Y0118129D01*
X0076956Y0119312D02*
X0080508Y0119312D01*
X0080508Y0120495D02*
X0076956Y0120495D01*
X0074602Y0120887D02*
X0074602Y0113397D01*
X0071050Y0113397D01*
X0071050Y0120887D01*
X0074602Y0120887D01*
X0074602Y0114580D02*
X0071050Y0114580D01*
X0071050Y0115763D02*
X0074602Y0115763D01*
X0074602Y0116946D02*
X0071050Y0116946D01*
X0071050Y0118129D02*
X0074602Y0118129D01*
X0074602Y0119312D02*
X0071050Y0119312D01*
X0071050Y0120495D02*
X0074602Y0120495D01*
X0068697Y0120887D02*
X0068697Y0113397D01*
X0065145Y0113397D01*
X0065145Y0120887D01*
X0068697Y0120887D01*
X0068697Y0114580D02*
X0065145Y0114580D01*
X0065145Y0115763D02*
X0068697Y0115763D01*
X0068697Y0116946D02*
X0065145Y0116946D01*
X0065145Y0118129D02*
X0068697Y0118129D01*
X0068697Y0119312D02*
X0065145Y0119312D01*
X0065145Y0120495D02*
X0068697Y0120495D01*
D13*
X0063991Y0154004D02*
X0063574Y0153957D01*
X0062393Y0153957D01*
X0061977Y0154004D01*
X0061582Y0154142D01*
X0061227Y0154365D01*
X0060931Y0154661D01*
X0060709Y0155016D01*
X0060570Y0155411D01*
X0060523Y0155827D01*
X0060570Y0156243D01*
X0060709Y0156639D01*
X0060931Y0156993D01*
X0061227Y0157289D01*
X0061582Y0157512D01*
X0061977Y0157650D01*
X0062393Y0157697D01*
X0063574Y0157697D01*
X0063991Y0157650D01*
X0064386Y0157512D01*
X0064740Y0157289D01*
X0065037Y0156993D01*
X0065259Y0156639D01*
X0065398Y0156243D01*
X0065445Y0155827D01*
X0065398Y0155411D01*
X0065259Y0155016D01*
X0065037Y0154661D01*
X0064740Y0154365D01*
X0064386Y0154142D01*
X0063991Y0154004D01*
X0064985Y0154609D02*
X0060983Y0154609D01*
X0060576Y0155395D02*
X0065392Y0155395D01*
X0065405Y0156181D02*
X0060563Y0156181D01*
X0060915Y0156967D02*
X0065053Y0156967D01*
X0063771Y0163406D02*
X0063771Y0169508D01*
X0059047Y0169508D01*
X0058609Y0169459D01*
X0058193Y0169313D01*
X0057820Y0169079D01*
X0057508Y0168767D01*
X0057273Y0168394D01*
X0057128Y0167978D01*
X0057078Y0167540D01*
X0057078Y0165374D01*
X0057128Y0164936D01*
X0057273Y0164520D01*
X0057508Y0164147D01*
X0057820Y0163835D01*
X0058193Y0163601D01*
X0058609Y0163455D01*
X0059047Y0163406D01*
X0063771Y0163406D01*
X0063771Y0164040D02*
X0057615Y0164040D01*
X0057166Y0164826D02*
X0063771Y0164826D01*
X0063771Y0165612D02*
X0057078Y0165612D01*
X0057078Y0166398D02*
X0063771Y0166398D01*
X0063771Y0167184D02*
X0057078Y0167184D01*
X0057127Y0167970D02*
X0063771Y0167970D01*
X0063771Y0168756D02*
X0057501Y0168756D01*
X0080394Y0156639D02*
X0080255Y0156243D01*
X0080208Y0155827D01*
X0080255Y0155411D01*
X0080394Y0155016D01*
X0080616Y0154661D01*
X0080912Y0154365D01*
X0081267Y0154142D01*
X0081662Y0154004D01*
X0082078Y0153957D01*
X0083260Y0153957D01*
X0083676Y0154004D01*
X0084071Y0154142D01*
X0084426Y0154365D01*
X0084722Y0154661D01*
X0084944Y0155016D01*
X0085083Y0155411D01*
X0085130Y0155827D01*
X0085083Y0156243D01*
X0084944Y0156639D01*
X0084722Y0156993D01*
X0084426Y0157289D01*
X0084071Y0157512D01*
X0083676Y0157650D01*
X0083260Y0157697D01*
X0082078Y0157697D01*
X0081662Y0157650D01*
X0081267Y0157512D01*
X0080912Y0157289D01*
X0080616Y0156993D01*
X0080394Y0156639D01*
X0080600Y0156967D02*
X0084738Y0156967D01*
X0085090Y0156181D02*
X0080248Y0156181D01*
X0080261Y0155395D02*
X0085077Y0155395D01*
X0084670Y0154609D02*
X0080668Y0154609D01*
X0081882Y0163406D02*
X0081882Y0169508D01*
X0086606Y0169508D01*
X0087044Y0169459D01*
X0087460Y0169313D01*
X0087833Y0169079D01*
X0088145Y0168767D01*
X0088380Y0168394D01*
X0088525Y0167978D01*
X0088574Y0167540D01*
X0088574Y0165374D01*
X0088525Y0164936D01*
X0088380Y0164520D01*
X0088145Y0164147D01*
X0087833Y0163835D01*
X0087460Y0163601D01*
X0087044Y0163455D01*
X0086606Y0163406D01*
X0081882Y0163406D01*
X0081882Y0164040D02*
X0088038Y0164040D01*
X0088487Y0164826D02*
X0081882Y0164826D01*
X0081882Y0165612D02*
X0088574Y0165612D01*
X0088574Y0166398D02*
X0081882Y0166398D01*
X0081882Y0167184D02*
X0088574Y0167184D01*
X0088526Y0167970D02*
X0081882Y0167970D01*
X0081882Y0168756D02*
X0088152Y0168756D01*
M02*
