G75*
%MOIN*%
%OFA0B0*%
%FSLAX25Y25*%
%IPPOS*%
%LPD*%
%AMOC8*
5,1,8,0,0,1.08239X$1,22.5*
%
%ADD10C,0.00400*%
%ADD11C,0.00500*%
%ADD12C,0.00008*%
%ADD13R,0.00787X0.00787*%
%ADD14C,0.00800*%
D10*
X0047524Y0037447D02*
X0048392Y0038315D01*
X0050126Y0038315D01*
X0049693Y0039342D02*
X0050126Y0039776D01*
X0050126Y0040643D01*
X0049693Y0041077D01*
X0049259Y0041077D01*
X0048825Y0040643D01*
X0048825Y0040210D01*
X0048825Y0040643D02*
X0048392Y0041077D01*
X0047958Y0041077D01*
X0047524Y0040643D01*
X0047524Y0039776D01*
X0047958Y0039342D01*
X0048825Y0038315D02*
X0048825Y0036580D01*
X0048392Y0036580D02*
X0047524Y0037447D01*
X0048392Y0036580D02*
X0050126Y0036580D01*
X0049825Y0067580D02*
X0049825Y0069315D01*
X0049392Y0069315D02*
X0048524Y0068447D01*
X0049392Y0067580D01*
X0051126Y0067580D01*
X0051126Y0069315D02*
X0049392Y0069315D01*
X0048958Y0070342D02*
X0048524Y0070776D01*
X0048524Y0071643D01*
X0048958Y0072077D01*
X0050693Y0070342D01*
X0051126Y0070776D01*
X0051126Y0071643D01*
X0050693Y0072077D01*
X0048958Y0072077D01*
X0048958Y0070342D02*
X0050693Y0070342D01*
X0050333Y0077308D02*
X0048598Y0077308D01*
X0047731Y0078175D01*
X0048598Y0079043D01*
X0050333Y0079043D01*
X0050333Y0080070D02*
X0048598Y0080070D01*
X0049465Y0080070D02*
X0048598Y0080938D01*
X0048598Y0081371D01*
X0049032Y0082372D02*
X0048598Y0082806D01*
X0048598Y0083673D01*
X0049032Y0084107D01*
X0049465Y0084107D01*
X0049465Y0082372D01*
X0049032Y0082372D02*
X0049899Y0082372D01*
X0050333Y0082806D01*
X0050333Y0083673D01*
X0050333Y0085568D02*
X0048164Y0085568D01*
X0047731Y0086002D01*
X0049032Y0086002D02*
X0049032Y0085135D01*
X0049859Y0089059D02*
X0048124Y0089059D01*
X0048124Y0090794D02*
X0049859Y0090794D01*
X0050726Y0089926D01*
X0049859Y0089059D01*
X0048992Y0091821D02*
X0048992Y0092255D01*
X0050726Y0092255D01*
X0050726Y0091821D02*
X0050726Y0092689D01*
X0050726Y0093663D02*
X0048992Y0093663D01*
X0048992Y0094964D01*
X0049425Y0095398D01*
X0050726Y0095398D01*
X0048124Y0092255D02*
X0047691Y0092255D01*
X0049032Y0079043D02*
X0049032Y0077308D01*
X0061264Y0069577D02*
X0062132Y0070444D01*
X0062132Y0067842D01*
X0062999Y0067842D02*
X0061264Y0067842D01*
X0064026Y0068276D02*
X0064460Y0067842D01*
X0065328Y0067842D01*
X0065761Y0068276D01*
X0065761Y0068710D01*
X0065328Y0069143D01*
X0064894Y0069143D01*
X0065328Y0069143D02*
X0065761Y0069577D01*
X0065761Y0070011D01*
X0065328Y0070444D01*
X0064460Y0070444D01*
X0064026Y0070011D01*
X0067964Y0070011D02*
X0067964Y0068276D01*
X0068398Y0067842D01*
X0069265Y0067842D01*
X0069699Y0068276D01*
X0069699Y0070011D01*
X0069265Y0070444D01*
X0068398Y0070444D01*
X0067964Y0070011D01*
X0070726Y0070444D02*
X0070726Y0067842D01*
X0072461Y0067842D02*
X0070726Y0070444D01*
X0072461Y0070444D02*
X0072461Y0067842D01*
X0074464Y0067842D02*
X0074464Y0070444D01*
X0075765Y0070444D01*
X0076199Y0070011D01*
X0076199Y0069143D01*
X0075765Y0068710D01*
X0074464Y0068710D01*
X0075332Y0068710D02*
X0076199Y0067842D01*
X0077226Y0067842D02*
X0078961Y0070444D01*
X0077226Y0070444D02*
X0078961Y0067842D01*
X0080864Y0070444D02*
X0082599Y0070444D01*
X0081732Y0070444D02*
X0081732Y0067842D01*
X0083626Y0067842D02*
X0085361Y0070444D01*
X0083626Y0070444D02*
X0085361Y0067842D01*
D11*
X0049441Y0022144D02*
X0048273Y0020977D01*
X0049441Y0019809D01*
X0051776Y0019809D01*
X0050025Y0019809D02*
X0050025Y0022144D01*
X0049441Y0022144D02*
X0051776Y0022144D01*
X0051193Y0023492D02*
X0051776Y0024076D01*
X0051776Y0025244D01*
X0051193Y0025827D01*
X0050025Y0025827D01*
X0049441Y0025244D01*
X0049441Y0024660D01*
X0050025Y0023492D01*
X0048273Y0023492D01*
X0048273Y0025827D01*
X0049441Y0029309D02*
X0048273Y0030477D01*
X0049441Y0031644D01*
X0051776Y0031644D01*
X0050025Y0031644D02*
X0050025Y0029309D01*
X0049441Y0029309D02*
X0051776Y0029309D01*
X0050025Y0032992D02*
X0050025Y0035327D01*
X0051776Y0034744D02*
X0048273Y0034744D01*
X0050025Y0032992D01*
X0050431Y0042142D02*
X0065047Y0027527D01*
X0072006Y0027527D01*
X0086622Y0042142D01*
X0068526Y0060237D01*
X0050431Y0042142D01*
X0050025Y0049309D02*
X0050025Y0051644D01*
X0049441Y0051644D02*
X0051776Y0051644D01*
X0051776Y0052992D02*
X0049441Y0055327D01*
X0048857Y0055327D01*
X0048273Y0054744D01*
X0048273Y0053576D01*
X0048857Y0052992D01*
X0049441Y0051644D02*
X0048273Y0050477D01*
X0049441Y0049309D01*
X0051776Y0049309D01*
X0051776Y0052992D02*
X0051776Y0055327D01*
X0051776Y0059309D02*
X0049441Y0059309D01*
X0048273Y0060477D01*
X0049441Y0061644D01*
X0051776Y0061644D01*
X0051776Y0062992D02*
X0051776Y0065327D01*
X0051776Y0064160D02*
X0048273Y0064160D01*
X0049441Y0062992D01*
X0050025Y0061644D02*
X0050025Y0059309D01*
X0073140Y0089368D02*
X0073142Y0089407D01*
X0073148Y0089446D01*
X0073158Y0089484D01*
X0073171Y0089521D01*
X0073188Y0089556D01*
X0073208Y0089590D01*
X0073232Y0089621D01*
X0073259Y0089650D01*
X0073288Y0089676D01*
X0073320Y0089699D01*
X0073354Y0089719D01*
X0073390Y0089735D01*
X0073427Y0089747D01*
X0073466Y0089756D01*
X0073505Y0089761D01*
X0073544Y0089762D01*
X0073583Y0089759D01*
X0073622Y0089752D01*
X0073659Y0089741D01*
X0073696Y0089727D01*
X0073731Y0089709D01*
X0073764Y0089688D01*
X0073795Y0089663D01*
X0073823Y0089636D01*
X0073848Y0089606D01*
X0073870Y0089573D01*
X0073889Y0089539D01*
X0073904Y0089503D01*
X0073916Y0089465D01*
X0073924Y0089427D01*
X0073928Y0089388D01*
X0073928Y0089348D01*
X0073924Y0089309D01*
X0073916Y0089271D01*
X0073904Y0089233D01*
X0073889Y0089197D01*
X0073870Y0089163D01*
X0073848Y0089130D01*
X0073823Y0089100D01*
X0073795Y0089073D01*
X0073764Y0089048D01*
X0073731Y0089027D01*
X0073696Y0089009D01*
X0073659Y0088995D01*
X0073622Y0088984D01*
X0073583Y0088977D01*
X0073544Y0088974D01*
X0073505Y0088975D01*
X0073466Y0088980D01*
X0073427Y0088989D01*
X0073390Y0089001D01*
X0073354Y0089017D01*
X0073320Y0089037D01*
X0073288Y0089060D01*
X0073259Y0089086D01*
X0073232Y0089115D01*
X0073208Y0089146D01*
X0073188Y0089180D01*
X0073171Y0089215D01*
X0073158Y0089252D01*
X0073148Y0089290D01*
X0073142Y0089329D01*
X0073140Y0089368D01*
X0073534Y0090943D02*
X0086919Y0090943D01*
X0086919Y0103541D01*
X0073534Y0103541D01*
X0073534Y0090943D01*
X0074165Y0113481D02*
X0087945Y0113481D01*
X0091488Y0117024D01*
X0091488Y0130804D01*
X0074165Y0130804D01*
X0074165Y0113481D01*
X0093873Y0112302D02*
X0093873Y0111134D01*
X0094457Y0110551D01*
X0095041Y0110551D01*
X0095625Y0111134D01*
X0095625Y0112886D01*
X0096793Y0112886D02*
X0094457Y0112886D01*
X0093873Y0112302D01*
X0096793Y0112886D02*
X0097376Y0112302D01*
X0097376Y0111134D01*
X0096793Y0110551D01*
X0096793Y0102886D02*
X0097376Y0102302D01*
X0097376Y0101134D01*
X0096793Y0100551D01*
X0096209Y0100551D01*
X0095625Y0101134D01*
X0095625Y0102302D01*
X0096209Y0102886D01*
X0096793Y0102886D01*
X0095625Y0102302D02*
X0095041Y0102886D01*
X0094457Y0102886D01*
X0093873Y0102302D01*
X0093873Y0101134D01*
X0094457Y0100551D01*
X0095041Y0100551D01*
X0095625Y0101134D01*
X0094457Y0092886D02*
X0096793Y0090551D01*
X0097376Y0090551D01*
X0093873Y0090551D02*
X0093873Y0092886D01*
X0094457Y0092886D01*
X0093873Y0082886D02*
X0094457Y0081718D01*
X0095625Y0080551D01*
X0095625Y0082302D01*
X0096209Y0082886D01*
X0096793Y0082886D01*
X0097376Y0082302D01*
X0097376Y0081134D01*
X0096793Y0080551D01*
X0095625Y0080551D01*
X0095625Y0072886D02*
X0096793Y0072886D01*
X0097376Y0072302D01*
X0097376Y0071134D01*
X0096793Y0070551D01*
X0095625Y0070551D02*
X0095041Y0071718D01*
X0095041Y0072302D01*
X0095625Y0072886D01*
X0093873Y0072886D02*
X0093873Y0070551D01*
X0095625Y0070551D01*
X0095625Y0063386D02*
X0095625Y0061051D01*
X0093873Y0062802D01*
X0097376Y0062802D01*
X0096793Y0053386D02*
X0097376Y0052802D01*
X0097376Y0051634D01*
X0096793Y0051051D01*
X0095625Y0052218D02*
X0095625Y0052802D01*
X0096209Y0053386D01*
X0096793Y0053386D01*
X0095625Y0052802D02*
X0095041Y0053386D01*
X0094457Y0053386D01*
X0093873Y0052802D01*
X0093873Y0051634D01*
X0094457Y0051051D01*
X0094457Y0042886D02*
X0093873Y0042302D01*
X0093873Y0041134D01*
X0094457Y0040551D01*
X0094457Y0042886D02*
X0095041Y0042886D01*
X0097376Y0040551D01*
X0097376Y0042886D01*
X0097976Y0030286D02*
X0097976Y0027951D01*
X0097976Y0029118D02*
X0094473Y0029118D01*
X0095641Y0027951D01*
X0095057Y0019086D02*
X0094473Y0018502D01*
X0094473Y0017334D01*
X0095057Y0016751D01*
X0097393Y0016751D01*
X0095057Y0019086D01*
X0097393Y0019086D01*
X0097976Y0018502D01*
X0097976Y0017334D01*
X0097393Y0016751D01*
X0081094Y0016654D02*
X0081094Y0005630D01*
X0064559Y0005630D01*
X0064559Y0016654D01*
X0081094Y0016654D01*
X0077157Y0011930D02*
X0077157Y0010355D01*
X0077155Y0010260D01*
X0077149Y0010165D01*
X0077140Y0010070D01*
X0077126Y0009976D01*
X0077109Y0009883D01*
X0077088Y0009790D01*
X0077064Y0009698D01*
X0077035Y0009607D01*
X0077004Y0009517D01*
X0076968Y0009429D01*
X0076929Y0009342D01*
X0076886Y0009257D01*
X0076841Y0009174D01*
X0076791Y0009093D01*
X0076739Y0009013D01*
X0076683Y0008936D01*
X0076625Y0008861D01*
X0076563Y0008789D01*
X0076498Y0008719D01*
X0076431Y0008652D01*
X0076361Y0008587D01*
X0076289Y0008525D01*
X0076214Y0008467D01*
X0076137Y0008411D01*
X0076057Y0008359D01*
X0075976Y0008309D01*
X0075893Y0008264D01*
X0075808Y0008221D01*
X0075721Y0008182D01*
X0075633Y0008146D01*
X0075543Y0008115D01*
X0075452Y0008086D01*
X0075360Y0008062D01*
X0075267Y0008041D01*
X0075174Y0008024D01*
X0075080Y0008010D01*
X0074985Y0008001D01*
X0074890Y0007995D01*
X0074795Y0007993D01*
X0070858Y0007993D01*
X0070763Y0007995D01*
X0070668Y0008001D01*
X0070573Y0008010D01*
X0070479Y0008024D01*
X0070386Y0008041D01*
X0070293Y0008062D01*
X0070201Y0008086D01*
X0070110Y0008115D01*
X0070020Y0008146D01*
X0069932Y0008182D01*
X0069845Y0008221D01*
X0069760Y0008264D01*
X0069677Y0008309D01*
X0069596Y0008359D01*
X0069516Y0008411D01*
X0069439Y0008467D01*
X0069364Y0008525D01*
X0069292Y0008587D01*
X0069222Y0008652D01*
X0069155Y0008719D01*
X0069090Y0008789D01*
X0069028Y0008861D01*
X0068970Y0008936D01*
X0068914Y0009013D01*
X0068862Y0009093D01*
X0068812Y0009174D01*
X0068767Y0009257D01*
X0068724Y0009342D01*
X0068685Y0009429D01*
X0068649Y0009517D01*
X0068618Y0009607D01*
X0068589Y0009698D01*
X0068565Y0009790D01*
X0068544Y0009883D01*
X0068527Y0009976D01*
X0068513Y0010070D01*
X0068504Y0010165D01*
X0068498Y0010260D01*
X0068496Y0010355D01*
X0068496Y0011930D01*
X0068498Y0012025D01*
X0068504Y0012120D01*
X0068513Y0012215D01*
X0068527Y0012309D01*
X0068544Y0012402D01*
X0068565Y0012495D01*
X0068589Y0012587D01*
X0068618Y0012678D01*
X0068649Y0012768D01*
X0068685Y0012856D01*
X0068724Y0012943D01*
X0068767Y0013028D01*
X0068812Y0013111D01*
X0068862Y0013192D01*
X0068914Y0013272D01*
X0068970Y0013349D01*
X0069028Y0013424D01*
X0069090Y0013496D01*
X0069155Y0013566D01*
X0069222Y0013633D01*
X0069292Y0013698D01*
X0069364Y0013760D01*
X0069439Y0013818D01*
X0069516Y0013874D01*
X0069596Y0013926D01*
X0069677Y0013976D01*
X0069760Y0014021D01*
X0069845Y0014064D01*
X0069932Y0014103D01*
X0070020Y0014139D01*
X0070110Y0014170D01*
X0070201Y0014199D01*
X0070293Y0014223D01*
X0070386Y0014244D01*
X0070479Y0014261D01*
X0070573Y0014275D01*
X0070668Y0014284D01*
X0070763Y0014290D01*
X0070858Y0014292D01*
X0074795Y0014292D01*
X0074890Y0014290D01*
X0074985Y0014284D01*
X0075080Y0014275D01*
X0075174Y0014261D01*
X0075267Y0014244D01*
X0075360Y0014223D01*
X0075452Y0014199D01*
X0075543Y0014170D01*
X0075633Y0014139D01*
X0075721Y0014103D01*
X0075808Y0014064D01*
X0075893Y0014021D01*
X0075976Y0013976D01*
X0076057Y0013926D01*
X0076137Y0013874D01*
X0076214Y0013818D01*
X0076289Y0013760D01*
X0076361Y0013698D01*
X0076431Y0013633D01*
X0076498Y0013566D01*
X0076563Y0013496D01*
X0076625Y0013424D01*
X0076683Y0013349D01*
X0076739Y0013272D01*
X0076791Y0013192D01*
X0076841Y0013111D01*
X0076886Y0013028D01*
X0076929Y0012943D01*
X0076968Y0012856D01*
X0077004Y0012768D01*
X0077035Y0012678D01*
X0077064Y0012587D01*
X0077088Y0012495D01*
X0077109Y0012402D01*
X0077126Y0012309D01*
X0077140Y0012215D01*
X0077149Y0012120D01*
X0077155Y0012025D01*
X0077157Y0011930D01*
X0061778Y0013095D02*
X0059443Y0013095D01*
X0060610Y0013095D02*
X0060610Y0009592D01*
X0058095Y0010176D02*
X0057511Y0009592D01*
X0056343Y0009592D01*
X0055760Y0010176D01*
X0056343Y0011344D02*
X0057511Y0011344D01*
X0058095Y0010760D01*
X0058095Y0010176D01*
X0058095Y0012511D02*
X0057511Y0013095D01*
X0056343Y0013095D01*
X0055760Y0012511D01*
X0055760Y0011927D01*
X0056343Y0011344D01*
X0054412Y0011344D02*
X0053828Y0010760D01*
X0052076Y0010760D01*
X0052076Y0009592D02*
X0052076Y0013095D01*
X0053828Y0013095D01*
X0054412Y0012511D01*
X0054412Y0011344D01*
X0053244Y0010760D02*
X0054412Y0009592D01*
X0051193Y0102467D02*
X0048857Y0102467D01*
X0048273Y0103051D01*
X0048273Y0104219D01*
X0048857Y0104803D01*
X0050025Y0104803D02*
X0050025Y0103635D01*
X0050025Y0104803D02*
X0051193Y0104803D01*
X0051776Y0104219D01*
X0051776Y0103051D01*
X0051193Y0102467D01*
X0051776Y0106151D02*
X0048273Y0106151D01*
X0051776Y0108486D01*
X0048273Y0108486D01*
X0048273Y0109834D02*
X0048273Y0111585D01*
X0048857Y0112169D01*
X0051193Y0112169D01*
X0051776Y0111585D01*
X0051776Y0109834D01*
X0048273Y0109834D01*
X0048273Y0119309D02*
X0050025Y0119309D01*
X0049441Y0120477D01*
X0049441Y0121061D01*
X0050025Y0121644D01*
X0051193Y0121644D01*
X0051776Y0121061D01*
X0051776Y0119893D01*
X0051193Y0119309D01*
X0050609Y0122992D02*
X0051776Y0124160D01*
X0050609Y0125327D01*
X0048273Y0125327D01*
X0048273Y0122992D02*
X0050609Y0122992D01*
X0048273Y0121644D02*
X0048273Y0119309D01*
X0048857Y0128809D02*
X0048273Y0129393D01*
X0048273Y0130561D01*
X0048857Y0131144D01*
X0049441Y0131144D01*
X0050025Y0130561D01*
X0050609Y0131144D01*
X0051193Y0131144D01*
X0051776Y0130561D01*
X0051776Y0129393D01*
X0051193Y0128809D01*
X0050025Y0129977D02*
X0050025Y0130561D01*
X0050609Y0132492D02*
X0051776Y0133660D01*
X0050609Y0134827D01*
X0048273Y0134827D01*
X0048273Y0138081D02*
X0048273Y0139833D01*
X0048857Y0140417D01*
X0050025Y0140417D01*
X0050609Y0139833D01*
X0050609Y0138081D01*
X0051776Y0138081D02*
X0048273Y0138081D01*
X0050609Y0139249D02*
X0051776Y0140417D01*
X0051776Y0141764D02*
X0051776Y0143516D01*
X0051193Y0144100D01*
X0050609Y0143516D01*
X0050609Y0142348D01*
X0050025Y0141764D01*
X0049441Y0142348D01*
X0049441Y0144100D01*
X0049441Y0145448D02*
X0049441Y0146615D01*
X0048857Y0146031D02*
X0051193Y0146031D01*
X0051776Y0146615D01*
X0051393Y0149867D02*
X0051976Y0150451D01*
X0051976Y0151619D01*
X0051393Y0152203D01*
X0048473Y0152203D01*
X0049057Y0153551D02*
X0048473Y0154134D01*
X0048473Y0155302D01*
X0049057Y0155886D01*
X0050225Y0155302D02*
X0050225Y0154134D01*
X0049641Y0153551D01*
X0049057Y0153551D01*
X0050225Y0155302D02*
X0050809Y0155886D01*
X0051393Y0155886D01*
X0051976Y0155302D01*
X0051976Y0154134D01*
X0051393Y0153551D01*
X0051393Y0149867D02*
X0048473Y0149867D01*
X0048473Y0157234D02*
X0048473Y0158985D01*
X0049057Y0159569D01*
X0049641Y0159569D01*
X0050225Y0158985D01*
X0050225Y0157234D01*
X0050225Y0158985D02*
X0050809Y0159569D01*
X0051393Y0159569D01*
X0051976Y0158985D01*
X0051976Y0157234D01*
X0048473Y0157234D01*
X0055897Y0151693D02*
X0055897Y0172166D01*
X0089756Y0172166D01*
X0089756Y0151693D01*
X0055897Y0151693D01*
X0050609Y0132492D02*
X0048273Y0132492D01*
X0080143Y0150512D02*
X0080145Y0150559D01*
X0080151Y0150605D01*
X0080160Y0150651D01*
X0080174Y0150695D01*
X0080191Y0150739D01*
X0080212Y0150780D01*
X0080236Y0150820D01*
X0080263Y0150858D01*
X0080294Y0150893D01*
X0080327Y0150926D01*
X0080363Y0150956D01*
X0080402Y0150982D01*
X0080442Y0151006D01*
X0080484Y0151025D01*
X0080528Y0151042D01*
X0080573Y0151054D01*
X0080619Y0151063D01*
X0080665Y0151068D01*
X0080712Y0151069D01*
X0080758Y0151066D01*
X0080804Y0151059D01*
X0080850Y0151048D01*
X0080894Y0151034D01*
X0080937Y0151016D01*
X0080978Y0150994D01*
X0081018Y0150969D01*
X0081055Y0150941D01*
X0081090Y0150910D01*
X0081122Y0150876D01*
X0081151Y0150839D01*
X0081176Y0150801D01*
X0081199Y0150760D01*
X0081218Y0150717D01*
X0081233Y0150673D01*
X0081245Y0150628D01*
X0081253Y0150582D01*
X0081257Y0150535D01*
X0081257Y0150489D01*
X0081253Y0150442D01*
X0081245Y0150396D01*
X0081233Y0150351D01*
X0081218Y0150307D01*
X0081199Y0150264D01*
X0081176Y0150223D01*
X0081151Y0150185D01*
X0081122Y0150148D01*
X0081090Y0150114D01*
X0081055Y0150083D01*
X0081018Y0150055D01*
X0080979Y0150030D01*
X0080937Y0150008D01*
X0080894Y0149990D01*
X0080850Y0149976D01*
X0080804Y0149965D01*
X0080758Y0149958D01*
X0080712Y0149955D01*
X0080665Y0149956D01*
X0080619Y0149961D01*
X0080573Y0149970D01*
X0080528Y0149982D01*
X0080484Y0149999D01*
X0080442Y0150018D01*
X0080402Y0150042D01*
X0080363Y0150068D01*
X0080327Y0150098D01*
X0080294Y0150131D01*
X0080263Y0150166D01*
X0080236Y0150204D01*
X0080212Y0150244D01*
X0080191Y0150285D01*
X0080174Y0150329D01*
X0080160Y0150373D01*
X0080151Y0150419D01*
X0080145Y0150465D01*
X0080143Y0150512D01*
X0093873Y0150377D02*
X0097376Y0150377D01*
X0097376Y0151544D02*
X0097376Y0149209D01*
X0095041Y0149209D02*
X0093873Y0150377D01*
X0094457Y0152892D02*
X0093873Y0153476D01*
X0093873Y0154644D01*
X0094457Y0155227D01*
X0095041Y0155227D01*
X0095625Y0154644D01*
X0096209Y0155227D01*
X0096793Y0155227D01*
X0097376Y0154644D01*
X0097376Y0153476D01*
X0096793Y0152892D01*
X0095625Y0154060D02*
X0095625Y0154644D01*
X0095441Y0144727D02*
X0094857Y0144727D01*
X0094273Y0144144D01*
X0094273Y0142976D01*
X0094857Y0142392D01*
X0095441Y0144727D02*
X0097776Y0142392D01*
X0097776Y0144727D01*
X0097776Y0141044D02*
X0097776Y0138709D01*
X0097776Y0139877D02*
X0094273Y0139877D01*
X0095441Y0138709D01*
X0097376Y0134727D02*
X0097376Y0132392D01*
X0097376Y0133560D02*
X0093873Y0133560D01*
X0095041Y0132392D01*
X0093873Y0129877D02*
X0097376Y0129877D01*
X0097376Y0131044D02*
X0097376Y0128709D01*
X0095041Y0128709D02*
X0093873Y0129877D01*
X0094457Y0124727D02*
X0096793Y0122392D01*
X0097376Y0122976D01*
X0097376Y0124144D01*
X0096793Y0124727D01*
X0094457Y0124727D01*
X0093873Y0124144D01*
X0093873Y0122976D01*
X0094457Y0122392D01*
X0096793Y0122392D01*
X0097376Y0121044D02*
X0097376Y0118709D01*
X0097376Y0119877D02*
X0093873Y0119877D01*
X0095041Y0118709D01*
D12*
X0088723Y0062419D02*
X0086872Y0062417D01*
X0085022Y0062414D01*
X0084480Y0061840D01*
X0083939Y0061266D01*
X0083939Y0058128D01*
X0081774Y0058128D01*
X0081774Y0060451D01*
X0082758Y0060451D01*
X0082758Y0062419D01*
X0081108Y0062419D01*
X0080437Y0061765D01*
X0079766Y0061110D01*
X0079766Y0057361D01*
X0080444Y0056681D01*
X0081123Y0056002D01*
X0084747Y0056002D01*
X0085307Y0056563D01*
X0085867Y0057124D01*
X0085877Y0058837D01*
X0085888Y0060549D01*
X0087935Y0060549D01*
X0087956Y0058207D01*
X0087049Y0058207D01*
X0087049Y0056041D01*
X0088761Y0056041D01*
X0089303Y0056582D01*
X0089844Y0057123D01*
X0089844Y0061296D01*
X0083967Y0061296D01*
X0083973Y0061302D02*
X0089838Y0061302D01*
X0089844Y0061296D02*
X0089284Y0061858D01*
X0084497Y0061858D01*
X0084503Y0061864D02*
X0089277Y0061864D01*
X0089271Y0061871D02*
X0084509Y0061871D01*
X0084515Y0061877D02*
X0089265Y0061877D01*
X0089258Y0061883D02*
X0084521Y0061883D01*
X0084527Y0061890D02*
X0089252Y0061890D01*
X0089245Y0061896D02*
X0084533Y0061896D01*
X0084539Y0061903D02*
X0089239Y0061903D01*
X0089233Y0061909D02*
X0084545Y0061909D01*
X0084551Y0061915D02*
X0089226Y0061915D01*
X0089220Y0061922D02*
X0084557Y0061922D01*
X0084563Y0061928D02*
X0089214Y0061928D01*
X0089207Y0061934D02*
X0084569Y0061934D01*
X0084575Y0061941D02*
X0089201Y0061941D01*
X0089194Y0061947D02*
X0084581Y0061947D01*
X0084587Y0061954D02*
X0089188Y0061954D01*
X0089182Y0061960D02*
X0084593Y0061960D01*
X0084599Y0061966D02*
X0089175Y0061966D01*
X0089169Y0061973D02*
X0084605Y0061973D01*
X0084611Y0061979D02*
X0089163Y0061979D01*
X0089156Y0061986D02*
X0084617Y0061986D01*
X0084623Y0061992D02*
X0089150Y0061992D01*
X0089143Y0061998D02*
X0084629Y0061998D01*
X0084635Y0062005D02*
X0089137Y0062005D01*
X0089131Y0062011D02*
X0084641Y0062011D01*
X0084647Y0062017D02*
X0089124Y0062017D01*
X0089118Y0062024D02*
X0084653Y0062024D01*
X0084659Y0062030D02*
X0089112Y0062030D01*
X0089105Y0062037D02*
X0084665Y0062037D01*
X0084671Y0062043D02*
X0089099Y0062043D01*
X0089092Y0062049D02*
X0084677Y0062049D01*
X0084683Y0062056D02*
X0089086Y0062056D01*
X0089080Y0062062D02*
X0084689Y0062062D01*
X0084695Y0062069D02*
X0089073Y0062069D01*
X0089067Y0062075D02*
X0084702Y0062075D01*
X0084708Y0062081D02*
X0089061Y0062081D01*
X0089054Y0062088D02*
X0084714Y0062088D01*
X0084720Y0062094D02*
X0089048Y0062094D01*
X0089042Y0062100D02*
X0084726Y0062100D01*
X0084732Y0062107D02*
X0089035Y0062107D01*
X0089029Y0062113D02*
X0084738Y0062113D01*
X0084744Y0062120D02*
X0089022Y0062120D01*
X0089016Y0062126D02*
X0084750Y0062126D01*
X0084756Y0062132D02*
X0089010Y0062132D01*
X0089003Y0062139D02*
X0084762Y0062139D01*
X0084768Y0062145D02*
X0088997Y0062145D01*
X0088991Y0062152D02*
X0084774Y0062152D01*
X0084780Y0062158D02*
X0088984Y0062158D01*
X0088978Y0062164D02*
X0084786Y0062164D01*
X0084792Y0062171D02*
X0088971Y0062171D01*
X0088965Y0062177D02*
X0084798Y0062177D01*
X0084804Y0062183D02*
X0088959Y0062183D01*
X0088952Y0062190D02*
X0084810Y0062190D01*
X0084816Y0062196D02*
X0088946Y0062196D01*
X0088940Y0062203D02*
X0084822Y0062203D01*
X0084828Y0062209D02*
X0088933Y0062209D01*
X0088927Y0062215D02*
X0084834Y0062215D01*
X0084840Y0062222D02*
X0088920Y0062222D01*
X0088914Y0062228D02*
X0084846Y0062228D01*
X0084852Y0062235D02*
X0088908Y0062235D01*
X0088901Y0062241D02*
X0084858Y0062241D01*
X0084864Y0062247D02*
X0088895Y0062247D01*
X0088889Y0062254D02*
X0084870Y0062254D01*
X0084876Y0062260D02*
X0088882Y0062260D01*
X0088876Y0062266D02*
X0084882Y0062266D01*
X0084888Y0062273D02*
X0088869Y0062273D01*
X0088863Y0062279D02*
X0084894Y0062279D01*
X0084900Y0062286D02*
X0088857Y0062286D01*
X0088850Y0062292D02*
X0084906Y0062292D01*
X0084912Y0062298D02*
X0088844Y0062298D01*
X0088838Y0062305D02*
X0084918Y0062305D01*
X0084924Y0062311D02*
X0088831Y0062311D01*
X0088825Y0062318D02*
X0084930Y0062318D01*
X0084936Y0062324D02*
X0088818Y0062324D01*
X0088812Y0062330D02*
X0084942Y0062330D01*
X0084948Y0062337D02*
X0088806Y0062337D01*
X0088799Y0062343D02*
X0084954Y0062343D01*
X0084960Y0062349D02*
X0088793Y0062349D01*
X0088787Y0062356D02*
X0084966Y0062356D01*
X0084972Y0062362D02*
X0088780Y0062362D01*
X0088774Y0062369D02*
X0084978Y0062369D01*
X0084984Y0062375D02*
X0088767Y0062375D01*
X0088761Y0062381D02*
X0084990Y0062381D01*
X0084996Y0062388D02*
X0088755Y0062388D01*
X0088748Y0062394D02*
X0085003Y0062394D01*
X0085009Y0062401D02*
X0088742Y0062401D01*
X0088736Y0062407D02*
X0085015Y0062407D01*
X0085021Y0062413D02*
X0088729Y0062413D01*
X0088723Y0062419D02*
X0089284Y0061858D01*
X0089290Y0061851D02*
X0084491Y0061851D01*
X0084485Y0061845D02*
X0089296Y0061845D01*
X0089303Y0061839D02*
X0084479Y0061839D01*
X0084473Y0061832D02*
X0089309Y0061832D01*
X0089316Y0061826D02*
X0084467Y0061826D01*
X0084461Y0061820D02*
X0089322Y0061820D01*
X0089328Y0061813D02*
X0084455Y0061813D01*
X0084449Y0061807D02*
X0089335Y0061807D01*
X0089341Y0061800D02*
X0084443Y0061800D01*
X0084437Y0061794D02*
X0089347Y0061794D01*
X0089354Y0061788D02*
X0084431Y0061788D01*
X0084425Y0061781D02*
X0089360Y0061781D01*
X0089367Y0061775D02*
X0084419Y0061775D01*
X0084413Y0061768D02*
X0089373Y0061768D01*
X0089379Y0061762D02*
X0084406Y0061762D01*
X0084400Y0061756D02*
X0089386Y0061756D01*
X0089392Y0061749D02*
X0084394Y0061749D01*
X0084388Y0061743D02*
X0089398Y0061743D01*
X0089405Y0061736D02*
X0084382Y0061736D01*
X0084376Y0061730D02*
X0089411Y0061730D01*
X0089418Y0061724D02*
X0084370Y0061724D01*
X0084364Y0061717D02*
X0089424Y0061717D01*
X0089430Y0061711D02*
X0084358Y0061711D01*
X0084352Y0061705D02*
X0089437Y0061705D01*
X0089443Y0061698D02*
X0084346Y0061698D01*
X0084340Y0061692D02*
X0089449Y0061692D01*
X0089456Y0061685D02*
X0084334Y0061685D01*
X0084328Y0061679D02*
X0089462Y0061679D01*
X0089469Y0061673D02*
X0084322Y0061673D01*
X0084316Y0061666D02*
X0089475Y0061666D01*
X0089481Y0061660D02*
X0084310Y0061660D01*
X0084304Y0061653D02*
X0089488Y0061653D01*
X0089494Y0061647D02*
X0084298Y0061647D01*
X0084292Y0061641D02*
X0089500Y0061641D01*
X0089507Y0061634D02*
X0084286Y0061634D01*
X0084280Y0061628D02*
X0089513Y0061628D01*
X0089520Y0061622D02*
X0084274Y0061622D01*
X0084268Y0061615D02*
X0089526Y0061615D01*
X0089532Y0061609D02*
X0084262Y0061609D01*
X0084256Y0061602D02*
X0089539Y0061602D01*
X0089545Y0061596D02*
X0084250Y0061596D01*
X0084244Y0061590D02*
X0089551Y0061590D01*
X0089558Y0061583D02*
X0084238Y0061583D01*
X0084232Y0061577D02*
X0089564Y0061577D01*
X0089571Y0061570D02*
X0084226Y0061570D01*
X0084220Y0061564D02*
X0089577Y0061564D01*
X0089583Y0061558D02*
X0084214Y0061558D01*
X0084208Y0061551D02*
X0089590Y0061551D01*
X0089596Y0061545D02*
X0084202Y0061545D01*
X0084196Y0061539D02*
X0089602Y0061539D01*
X0089609Y0061532D02*
X0084190Y0061532D01*
X0084184Y0061526D02*
X0089615Y0061526D01*
X0089622Y0061519D02*
X0084178Y0061519D01*
X0084172Y0061513D02*
X0089628Y0061513D01*
X0089634Y0061507D02*
X0084166Y0061507D01*
X0084160Y0061500D02*
X0089641Y0061500D01*
X0089647Y0061494D02*
X0084154Y0061494D01*
X0084148Y0061487D02*
X0089653Y0061487D01*
X0089660Y0061481D02*
X0084142Y0061481D01*
X0084136Y0061475D02*
X0089666Y0061475D01*
X0089673Y0061468D02*
X0084130Y0061468D01*
X0084124Y0061462D02*
X0089679Y0061462D01*
X0089685Y0061456D02*
X0084118Y0061456D01*
X0084111Y0061449D02*
X0089692Y0061449D01*
X0089698Y0061443D02*
X0084105Y0061443D01*
X0084099Y0061436D02*
X0089704Y0061436D01*
X0089711Y0061430D02*
X0084093Y0061430D01*
X0084087Y0061424D02*
X0089717Y0061424D01*
X0089724Y0061417D02*
X0084081Y0061417D01*
X0084075Y0061411D02*
X0089730Y0061411D01*
X0089736Y0061404D02*
X0084069Y0061404D01*
X0084063Y0061398D02*
X0089743Y0061398D01*
X0089749Y0061392D02*
X0084057Y0061392D01*
X0084051Y0061385D02*
X0089755Y0061385D01*
X0089762Y0061379D02*
X0084045Y0061379D01*
X0084039Y0061373D02*
X0089768Y0061373D01*
X0089774Y0061366D02*
X0084033Y0061366D01*
X0084027Y0061360D02*
X0089781Y0061360D01*
X0089787Y0061353D02*
X0084021Y0061353D01*
X0084015Y0061347D02*
X0089794Y0061347D01*
X0089800Y0061341D02*
X0084009Y0061341D01*
X0084003Y0061334D02*
X0089806Y0061334D01*
X0089813Y0061328D02*
X0083997Y0061328D01*
X0083991Y0061321D02*
X0089819Y0061321D01*
X0089825Y0061315D02*
X0083985Y0061315D01*
X0083979Y0061309D02*
X0089832Y0061309D01*
X0089844Y0061290D02*
X0083961Y0061290D01*
X0083955Y0061283D02*
X0089844Y0061283D01*
X0089844Y0061277D02*
X0083949Y0061277D01*
X0083943Y0061270D02*
X0089844Y0061270D01*
X0089844Y0061264D02*
X0083939Y0061264D01*
X0083939Y0061258D02*
X0089844Y0061258D01*
X0089844Y0061251D02*
X0083939Y0061251D01*
X0083939Y0061245D02*
X0089844Y0061245D01*
X0089844Y0061238D02*
X0083939Y0061238D01*
X0083939Y0061232D02*
X0089844Y0061232D01*
X0089844Y0061226D02*
X0083939Y0061226D01*
X0083939Y0061219D02*
X0089844Y0061219D01*
X0089844Y0061213D02*
X0083939Y0061213D01*
X0083939Y0061207D02*
X0089844Y0061207D01*
X0089844Y0061200D02*
X0083939Y0061200D01*
X0083939Y0061194D02*
X0089844Y0061194D01*
X0089844Y0061187D02*
X0083939Y0061187D01*
X0083939Y0061181D02*
X0089844Y0061181D01*
X0089844Y0061175D02*
X0083939Y0061175D01*
X0083939Y0061168D02*
X0089844Y0061168D01*
X0089844Y0061162D02*
X0083939Y0061162D01*
X0083939Y0061155D02*
X0089844Y0061155D01*
X0089844Y0061149D02*
X0083939Y0061149D01*
X0083939Y0061143D02*
X0089844Y0061143D01*
X0089844Y0061136D02*
X0083939Y0061136D01*
X0083939Y0061130D02*
X0089844Y0061130D01*
X0089844Y0061123D02*
X0083939Y0061123D01*
X0083939Y0061117D02*
X0089844Y0061117D01*
X0089844Y0061111D02*
X0083939Y0061111D01*
X0083939Y0061104D02*
X0089844Y0061104D01*
X0089844Y0061098D02*
X0083939Y0061098D01*
X0083939Y0061092D02*
X0089844Y0061092D01*
X0089844Y0061085D02*
X0083939Y0061085D01*
X0083939Y0061079D02*
X0089844Y0061079D01*
X0089844Y0061072D02*
X0083939Y0061072D01*
X0083939Y0061066D02*
X0089844Y0061066D01*
X0089844Y0061060D02*
X0083939Y0061060D01*
X0083939Y0061053D02*
X0089844Y0061053D01*
X0089844Y0061047D02*
X0083939Y0061047D01*
X0083939Y0061040D02*
X0089844Y0061040D01*
X0089844Y0061034D02*
X0083939Y0061034D01*
X0083939Y0061028D02*
X0089844Y0061028D01*
X0089844Y0061021D02*
X0083939Y0061021D01*
X0083939Y0061015D02*
X0089844Y0061015D01*
X0089844Y0061009D02*
X0083939Y0061009D01*
X0083939Y0061002D02*
X0089844Y0061002D01*
X0089844Y0060996D02*
X0083939Y0060996D01*
X0083939Y0060989D02*
X0089844Y0060989D01*
X0089844Y0060983D02*
X0083939Y0060983D01*
X0083939Y0060977D02*
X0089844Y0060977D01*
X0089844Y0060970D02*
X0083939Y0060970D01*
X0083939Y0060964D02*
X0089844Y0060964D01*
X0089844Y0060957D02*
X0083939Y0060957D01*
X0083939Y0060951D02*
X0089844Y0060951D01*
X0089844Y0060945D02*
X0083939Y0060945D01*
X0083939Y0060938D02*
X0089844Y0060938D01*
X0089844Y0060932D02*
X0083939Y0060932D01*
X0083939Y0060926D02*
X0089844Y0060926D01*
X0089844Y0060919D02*
X0083939Y0060919D01*
X0083939Y0060913D02*
X0089844Y0060913D01*
X0089844Y0060906D02*
X0083939Y0060906D01*
X0083939Y0060900D02*
X0089844Y0060900D01*
X0089844Y0060894D02*
X0083939Y0060894D01*
X0083939Y0060887D02*
X0089844Y0060887D01*
X0089844Y0060881D02*
X0083939Y0060881D01*
X0083939Y0060874D02*
X0089844Y0060874D01*
X0089844Y0060868D02*
X0083939Y0060868D01*
X0083939Y0060862D02*
X0089844Y0060862D01*
X0089844Y0060855D02*
X0083939Y0060855D01*
X0083939Y0060849D02*
X0089844Y0060849D01*
X0089844Y0060843D02*
X0083939Y0060843D01*
X0083939Y0060836D02*
X0089844Y0060836D01*
X0089844Y0060830D02*
X0083939Y0060830D01*
X0083939Y0060823D02*
X0089844Y0060823D01*
X0089844Y0060817D02*
X0083939Y0060817D01*
X0083939Y0060811D02*
X0089844Y0060811D01*
X0089844Y0060804D02*
X0083939Y0060804D01*
X0083939Y0060798D02*
X0089844Y0060798D01*
X0089844Y0060791D02*
X0083939Y0060791D01*
X0083939Y0060785D02*
X0089844Y0060785D01*
X0089844Y0060779D02*
X0083939Y0060779D01*
X0083939Y0060772D02*
X0089844Y0060772D01*
X0089844Y0060766D02*
X0083939Y0060766D01*
X0083939Y0060760D02*
X0089844Y0060760D01*
X0089844Y0060753D02*
X0083939Y0060753D01*
X0083939Y0060747D02*
X0089844Y0060747D01*
X0089844Y0060740D02*
X0083939Y0060740D01*
X0083939Y0060734D02*
X0089844Y0060734D01*
X0089844Y0060728D02*
X0083939Y0060728D01*
X0083939Y0060721D02*
X0089844Y0060721D01*
X0089844Y0060715D02*
X0083939Y0060715D01*
X0083939Y0060708D02*
X0089844Y0060708D01*
X0089844Y0060702D02*
X0083939Y0060702D01*
X0083939Y0060696D02*
X0089844Y0060696D01*
X0089844Y0060689D02*
X0083939Y0060689D01*
X0083939Y0060683D02*
X0089844Y0060683D01*
X0089844Y0060677D02*
X0083939Y0060677D01*
X0083939Y0060670D02*
X0089844Y0060670D01*
X0089844Y0060664D02*
X0083939Y0060664D01*
X0083939Y0060657D02*
X0089844Y0060657D01*
X0089844Y0060651D02*
X0083939Y0060651D01*
X0083939Y0060645D02*
X0089844Y0060645D01*
X0089844Y0060638D02*
X0083939Y0060638D01*
X0083939Y0060632D02*
X0089844Y0060632D01*
X0089844Y0060625D02*
X0083939Y0060625D01*
X0083939Y0060619D02*
X0089844Y0060619D01*
X0089844Y0060613D02*
X0083939Y0060613D01*
X0083939Y0060606D02*
X0089844Y0060606D01*
X0089844Y0060600D02*
X0083939Y0060600D01*
X0083939Y0060594D02*
X0089844Y0060594D01*
X0089844Y0060587D02*
X0083939Y0060587D01*
X0083939Y0060581D02*
X0089844Y0060581D01*
X0089844Y0060574D02*
X0083939Y0060574D01*
X0083939Y0060568D02*
X0089844Y0060568D01*
X0089844Y0060562D02*
X0083939Y0060562D01*
X0083939Y0060555D02*
X0089844Y0060555D01*
X0089844Y0060549D02*
X0087935Y0060549D01*
X0087935Y0060542D02*
X0089844Y0060542D01*
X0089844Y0060536D02*
X0087935Y0060536D01*
X0087935Y0060530D02*
X0089844Y0060530D01*
X0089844Y0060523D02*
X0087935Y0060523D01*
X0087935Y0060517D02*
X0089844Y0060517D01*
X0089844Y0060511D02*
X0087935Y0060511D01*
X0087935Y0060504D02*
X0089844Y0060504D01*
X0089844Y0060498D02*
X0087935Y0060498D01*
X0087935Y0060491D02*
X0089844Y0060491D01*
X0089844Y0060485D02*
X0087936Y0060485D01*
X0087936Y0060479D02*
X0089844Y0060479D01*
X0089844Y0060472D02*
X0087936Y0060472D01*
X0087936Y0060466D02*
X0089844Y0060466D01*
X0089844Y0060459D02*
X0087936Y0060459D01*
X0087936Y0060453D02*
X0089844Y0060453D01*
X0089844Y0060447D02*
X0087936Y0060447D01*
X0087936Y0060440D02*
X0089844Y0060440D01*
X0089844Y0060434D02*
X0087936Y0060434D01*
X0087936Y0060427D02*
X0089844Y0060427D01*
X0089844Y0060421D02*
X0087936Y0060421D01*
X0087936Y0060415D02*
X0089844Y0060415D01*
X0089844Y0060408D02*
X0087936Y0060408D01*
X0087936Y0060402D02*
X0089844Y0060402D01*
X0089844Y0060396D02*
X0087936Y0060396D01*
X0087936Y0060389D02*
X0089844Y0060389D01*
X0089844Y0060383D02*
X0087936Y0060383D01*
X0087937Y0060376D02*
X0089844Y0060376D01*
X0089844Y0060370D02*
X0087937Y0060370D01*
X0087937Y0060364D02*
X0089844Y0060364D01*
X0089844Y0060357D02*
X0087937Y0060357D01*
X0087937Y0060351D02*
X0089844Y0060351D01*
X0089844Y0060344D02*
X0087937Y0060344D01*
X0087937Y0060338D02*
X0089844Y0060338D01*
X0089844Y0060332D02*
X0087937Y0060332D01*
X0087937Y0060325D02*
X0089844Y0060325D01*
X0089844Y0060319D02*
X0087937Y0060319D01*
X0087937Y0060313D02*
X0089844Y0060313D01*
X0089844Y0060306D02*
X0087937Y0060306D01*
X0087937Y0060300D02*
X0089844Y0060300D01*
X0089844Y0060293D02*
X0087937Y0060293D01*
X0087937Y0060287D02*
X0089844Y0060287D01*
X0089844Y0060281D02*
X0087937Y0060281D01*
X0087937Y0060274D02*
X0089844Y0060274D01*
X0089844Y0060268D02*
X0087937Y0060268D01*
X0087938Y0060261D02*
X0089844Y0060261D01*
X0089844Y0060255D02*
X0087938Y0060255D01*
X0087938Y0060249D02*
X0089844Y0060249D01*
X0089844Y0060242D02*
X0087938Y0060242D01*
X0087938Y0060236D02*
X0089844Y0060236D01*
X0089844Y0060230D02*
X0087938Y0060230D01*
X0087938Y0060223D02*
X0089844Y0060223D01*
X0089844Y0060217D02*
X0087938Y0060217D01*
X0087938Y0060210D02*
X0089844Y0060210D01*
X0089844Y0060204D02*
X0087938Y0060204D01*
X0087938Y0060198D02*
X0089844Y0060198D01*
X0089844Y0060191D02*
X0087938Y0060191D01*
X0087938Y0060185D02*
X0089844Y0060185D01*
X0089844Y0060178D02*
X0087938Y0060178D01*
X0087938Y0060172D02*
X0089844Y0060172D01*
X0089844Y0060166D02*
X0087938Y0060166D01*
X0087938Y0060159D02*
X0089844Y0060159D01*
X0089844Y0060153D02*
X0087938Y0060153D01*
X0087939Y0060147D02*
X0089844Y0060147D01*
X0089844Y0060140D02*
X0087939Y0060140D01*
X0087939Y0060134D02*
X0089844Y0060134D01*
X0089844Y0060127D02*
X0087939Y0060127D01*
X0087939Y0060121D02*
X0089844Y0060121D01*
X0089844Y0060115D02*
X0087939Y0060115D01*
X0087939Y0060108D02*
X0089844Y0060108D01*
X0089844Y0060102D02*
X0087939Y0060102D01*
X0087939Y0060095D02*
X0089844Y0060095D01*
X0089844Y0060089D02*
X0087939Y0060089D01*
X0087939Y0060083D02*
X0089844Y0060083D01*
X0089844Y0060076D02*
X0087939Y0060076D01*
X0087939Y0060070D02*
X0089844Y0060070D01*
X0089844Y0060064D02*
X0087939Y0060064D01*
X0087939Y0060057D02*
X0089844Y0060057D01*
X0089844Y0060051D02*
X0087939Y0060051D01*
X0087939Y0060044D02*
X0089844Y0060044D01*
X0089844Y0060038D02*
X0087940Y0060038D01*
X0087940Y0060032D02*
X0089844Y0060032D01*
X0089844Y0060025D02*
X0087940Y0060025D01*
X0087940Y0060019D02*
X0089844Y0060019D01*
X0089844Y0060012D02*
X0087940Y0060012D01*
X0087940Y0060006D02*
X0089844Y0060006D01*
X0089844Y0060000D02*
X0087940Y0060000D01*
X0087940Y0059993D02*
X0089844Y0059993D01*
X0089844Y0059987D02*
X0087940Y0059987D01*
X0087940Y0059981D02*
X0089844Y0059981D01*
X0089844Y0059974D02*
X0087940Y0059974D01*
X0087940Y0059968D02*
X0089844Y0059968D01*
X0089844Y0059961D02*
X0087940Y0059961D01*
X0087940Y0059955D02*
X0089844Y0059955D01*
X0089844Y0059949D02*
X0087940Y0059949D01*
X0087940Y0059942D02*
X0089844Y0059942D01*
X0089844Y0059936D02*
X0087940Y0059936D01*
X0087940Y0059929D02*
X0089844Y0059929D01*
X0089844Y0059923D02*
X0087941Y0059923D01*
X0087941Y0059917D02*
X0089844Y0059917D01*
X0089844Y0059910D02*
X0087941Y0059910D01*
X0087941Y0059904D02*
X0089844Y0059904D01*
X0089844Y0059898D02*
X0087941Y0059898D01*
X0087941Y0059891D02*
X0089844Y0059891D01*
X0089844Y0059885D02*
X0087941Y0059885D01*
X0087941Y0059878D02*
X0089844Y0059878D01*
X0089844Y0059872D02*
X0087941Y0059872D01*
X0087941Y0059866D02*
X0089844Y0059866D01*
X0089844Y0059859D02*
X0087941Y0059859D01*
X0087941Y0059853D02*
X0089844Y0059853D01*
X0089844Y0059846D02*
X0087941Y0059846D01*
X0087941Y0059840D02*
X0089844Y0059840D01*
X0089844Y0059834D02*
X0087941Y0059834D01*
X0087941Y0059827D02*
X0089844Y0059827D01*
X0089844Y0059821D02*
X0087941Y0059821D01*
X0087942Y0059815D02*
X0089844Y0059815D01*
X0089844Y0059808D02*
X0087942Y0059808D01*
X0087942Y0059802D02*
X0089844Y0059802D01*
X0089844Y0059795D02*
X0087942Y0059795D01*
X0087942Y0059789D02*
X0089844Y0059789D01*
X0089844Y0059783D02*
X0087942Y0059783D01*
X0087942Y0059776D02*
X0089844Y0059776D01*
X0089844Y0059770D02*
X0087942Y0059770D01*
X0087942Y0059763D02*
X0089844Y0059763D01*
X0089844Y0059757D02*
X0087942Y0059757D01*
X0087942Y0059751D02*
X0089844Y0059751D01*
X0089844Y0059744D02*
X0087942Y0059744D01*
X0087942Y0059738D02*
X0089844Y0059738D01*
X0089844Y0059731D02*
X0087942Y0059731D01*
X0087942Y0059725D02*
X0089844Y0059725D01*
X0089844Y0059719D02*
X0087942Y0059719D01*
X0087942Y0059712D02*
X0089844Y0059712D01*
X0089844Y0059706D02*
X0087942Y0059706D01*
X0087943Y0059700D02*
X0089844Y0059700D01*
X0089844Y0059693D02*
X0087943Y0059693D01*
X0087943Y0059687D02*
X0089844Y0059687D01*
X0089844Y0059680D02*
X0087943Y0059680D01*
X0087943Y0059674D02*
X0089844Y0059674D01*
X0089844Y0059668D02*
X0087943Y0059668D01*
X0087943Y0059661D02*
X0089844Y0059661D01*
X0089844Y0059655D02*
X0087943Y0059655D01*
X0087943Y0059648D02*
X0089844Y0059648D01*
X0089844Y0059642D02*
X0087943Y0059642D01*
X0087943Y0059636D02*
X0089844Y0059636D01*
X0089844Y0059629D02*
X0087943Y0059629D01*
X0087943Y0059623D02*
X0089844Y0059623D01*
X0089844Y0059617D02*
X0087943Y0059617D01*
X0087943Y0059610D02*
X0089844Y0059610D01*
X0089844Y0059604D02*
X0087943Y0059604D01*
X0087943Y0059597D02*
X0089844Y0059597D01*
X0089844Y0059591D02*
X0087944Y0059591D01*
X0087944Y0059585D02*
X0089844Y0059585D01*
X0089844Y0059578D02*
X0087944Y0059578D01*
X0087944Y0059572D02*
X0089844Y0059572D01*
X0089844Y0059565D02*
X0087944Y0059565D01*
X0087944Y0059559D02*
X0089844Y0059559D01*
X0089844Y0059553D02*
X0087944Y0059553D01*
X0087944Y0059546D02*
X0089844Y0059546D01*
X0089844Y0059540D02*
X0087944Y0059540D01*
X0087944Y0059534D02*
X0089844Y0059534D01*
X0089844Y0059527D02*
X0087944Y0059527D01*
X0087944Y0059521D02*
X0089844Y0059521D01*
X0089844Y0059514D02*
X0087944Y0059514D01*
X0087944Y0059508D02*
X0089844Y0059508D01*
X0089844Y0059502D02*
X0087944Y0059502D01*
X0087944Y0059495D02*
X0089844Y0059495D01*
X0089844Y0059489D02*
X0087944Y0059489D01*
X0087944Y0059482D02*
X0089844Y0059482D01*
X0089844Y0059476D02*
X0087945Y0059476D01*
X0087945Y0059470D02*
X0089844Y0059470D01*
X0089844Y0059463D02*
X0087945Y0059463D01*
X0087945Y0059457D02*
X0089844Y0059457D01*
X0089844Y0059451D02*
X0087945Y0059451D01*
X0087945Y0059444D02*
X0089844Y0059444D01*
X0089844Y0059438D02*
X0087945Y0059438D01*
X0087945Y0059431D02*
X0089844Y0059431D01*
X0089844Y0059425D02*
X0087945Y0059425D01*
X0087945Y0059419D02*
X0089844Y0059419D01*
X0089844Y0059412D02*
X0087945Y0059412D01*
X0087945Y0059406D02*
X0089844Y0059406D01*
X0089844Y0059399D02*
X0087945Y0059399D01*
X0087945Y0059393D02*
X0089844Y0059393D01*
X0089844Y0059387D02*
X0087945Y0059387D01*
X0087945Y0059380D02*
X0089844Y0059380D01*
X0089844Y0059374D02*
X0087945Y0059374D01*
X0087945Y0059368D02*
X0089844Y0059368D01*
X0089844Y0059361D02*
X0087946Y0059361D01*
X0087946Y0059355D02*
X0089844Y0059355D01*
X0089844Y0059348D02*
X0087946Y0059348D01*
X0087946Y0059342D02*
X0089844Y0059342D01*
X0089844Y0059336D02*
X0087946Y0059336D01*
X0087946Y0059329D02*
X0089844Y0059329D01*
X0089844Y0059323D02*
X0087946Y0059323D01*
X0087946Y0059316D02*
X0089844Y0059316D01*
X0089844Y0059310D02*
X0087946Y0059310D01*
X0087946Y0059304D02*
X0089844Y0059304D01*
X0089844Y0059297D02*
X0087946Y0059297D01*
X0087946Y0059291D02*
X0089844Y0059291D01*
X0089844Y0059285D02*
X0087946Y0059285D01*
X0087946Y0059278D02*
X0089844Y0059278D01*
X0089844Y0059272D02*
X0087946Y0059272D01*
X0087946Y0059265D02*
X0089844Y0059265D01*
X0089844Y0059259D02*
X0087946Y0059259D01*
X0087947Y0059253D02*
X0089844Y0059253D01*
X0089844Y0059246D02*
X0087947Y0059246D01*
X0087947Y0059240D02*
X0089844Y0059240D01*
X0089844Y0059233D02*
X0087947Y0059233D01*
X0087947Y0059227D02*
X0089844Y0059227D01*
X0089844Y0059221D02*
X0087947Y0059221D01*
X0087947Y0059214D02*
X0089844Y0059214D01*
X0089844Y0059208D02*
X0087947Y0059208D01*
X0087947Y0059202D02*
X0089844Y0059202D01*
X0089844Y0059195D02*
X0087947Y0059195D01*
X0087947Y0059189D02*
X0089844Y0059189D01*
X0089844Y0059182D02*
X0087947Y0059182D01*
X0087947Y0059176D02*
X0089844Y0059176D01*
X0089844Y0059170D02*
X0087947Y0059170D01*
X0087947Y0059163D02*
X0089844Y0059163D01*
X0089844Y0059157D02*
X0087947Y0059157D01*
X0087947Y0059150D02*
X0089844Y0059150D01*
X0089844Y0059144D02*
X0087947Y0059144D01*
X0087948Y0059138D02*
X0089844Y0059138D01*
X0089844Y0059131D02*
X0087948Y0059131D01*
X0087948Y0059125D02*
X0089844Y0059125D01*
X0089844Y0059119D02*
X0087948Y0059119D01*
X0087948Y0059112D02*
X0089844Y0059112D01*
X0089844Y0059106D02*
X0087948Y0059106D01*
X0087948Y0059099D02*
X0089844Y0059099D01*
X0089844Y0059093D02*
X0087948Y0059093D01*
X0087948Y0059087D02*
X0089844Y0059087D01*
X0089844Y0059080D02*
X0087948Y0059080D01*
X0087948Y0059074D02*
X0089844Y0059074D01*
X0089844Y0059067D02*
X0087948Y0059067D01*
X0087948Y0059061D02*
X0089844Y0059061D01*
X0089844Y0059055D02*
X0087948Y0059055D01*
X0087948Y0059048D02*
X0089844Y0059048D01*
X0089844Y0059042D02*
X0087948Y0059042D01*
X0087948Y0059035D02*
X0089844Y0059035D01*
X0089844Y0059029D02*
X0087949Y0059029D01*
X0087949Y0059023D02*
X0089844Y0059023D01*
X0089844Y0059016D02*
X0087949Y0059016D01*
X0087949Y0059010D02*
X0089844Y0059010D01*
X0089844Y0059004D02*
X0087949Y0059004D01*
X0087949Y0058997D02*
X0089844Y0058997D01*
X0089844Y0058991D02*
X0087949Y0058991D01*
X0087949Y0058984D02*
X0089844Y0058984D01*
X0089844Y0058978D02*
X0087949Y0058978D01*
X0087949Y0058972D02*
X0089844Y0058972D01*
X0089844Y0058965D02*
X0087949Y0058965D01*
X0087949Y0058959D02*
X0089844Y0058959D01*
X0089844Y0058952D02*
X0087949Y0058952D01*
X0087949Y0058946D02*
X0089844Y0058946D01*
X0089844Y0058940D02*
X0087949Y0058940D01*
X0087949Y0058933D02*
X0089844Y0058933D01*
X0089844Y0058927D02*
X0087949Y0058927D01*
X0087949Y0058921D02*
X0089844Y0058921D01*
X0089844Y0058914D02*
X0087950Y0058914D01*
X0087950Y0058908D02*
X0089844Y0058908D01*
X0089844Y0058901D02*
X0087950Y0058901D01*
X0087950Y0058895D02*
X0089844Y0058895D01*
X0089844Y0058889D02*
X0087950Y0058889D01*
X0087950Y0058882D02*
X0089844Y0058882D01*
X0089844Y0058876D02*
X0087950Y0058876D01*
X0087950Y0058869D02*
X0089844Y0058869D01*
X0089844Y0058863D02*
X0087950Y0058863D01*
X0087950Y0058857D02*
X0089844Y0058857D01*
X0089844Y0058850D02*
X0087950Y0058850D01*
X0087950Y0058844D02*
X0089844Y0058844D01*
X0089844Y0058838D02*
X0087950Y0058838D01*
X0087950Y0058831D02*
X0089844Y0058831D01*
X0089844Y0058825D02*
X0087950Y0058825D01*
X0087950Y0058818D02*
X0089844Y0058818D01*
X0089844Y0058812D02*
X0087950Y0058812D01*
X0087951Y0058806D02*
X0089844Y0058806D01*
X0089844Y0058799D02*
X0087951Y0058799D01*
X0087951Y0058793D02*
X0089844Y0058793D01*
X0089844Y0058786D02*
X0087951Y0058786D01*
X0087951Y0058780D02*
X0089844Y0058780D01*
X0089844Y0058774D02*
X0087951Y0058774D01*
X0087951Y0058767D02*
X0089844Y0058767D01*
X0089844Y0058761D02*
X0087951Y0058761D01*
X0087951Y0058755D02*
X0089844Y0058755D01*
X0089844Y0058748D02*
X0087951Y0058748D01*
X0087951Y0058742D02*
X0089844Y0058742D01*
X0089844Y0058735D02*
X0087951Y0058735D01*
X0087951Y0058729D02*
X0089844Y0058729D01*
X0089844Y0058723D02*
X0087951Y0058723D01*
X0087951Y0058716D02*
X0089844Y0058716D01*
X0089844Y0058710D02*
X0087951Y0058710D01*
X0087951Y0058703D02*
X0089844Y0058703D01*
X0089844Y0058697D02*
X0087951Y0058697D01*
X0087952Y0058691D02*
X0089844Y0058691D01*
X0089844Y0058684D02*
X0087952Y0058684D01*
X0087952Y0058678D02*
X0089844Y0058678D01*
X0089844Y0058672D02*
X0087952Y0058672D01*
X0087952Y0058665D02*
X0089844Y0058665D01*
X0089844Y0058659D02*
X0087952Y0058659D01*
X0087952Y0058652D02*
X0089844Y0058652D01*
X0089844Y0058646D02*
X0087952Y0058646D01*
X0087952Y0058640D02*
X0089844Y0058640D01*
X0089844Y0058633D02*
X0087952Y0058633D01*
X0087952Y0058627D02*
X0089844Y0058627D01*
X0089844Y0058620D02*
X0087952Y0058620D01*
X0087952Y0058614D02*
X0089844Y0058614D01*
X0089844Y0058608D02*
X0087952Y0058608D01*
X0087952Y0058601D02*
X0089844Y0058601D01*
X0089844Y0058595D02*
X0087952Y0058595D01*
X0087952Y0058589D02*
X0089844Y0058589D01*
X0089844Y0058582D02*
X0087952Y0058582D01*
X0087953Y0058576D02*
X0089844Y0058576D01*
X0089844Y0058569D02*
X0087953Y0058569D01*
X0087953Y0058563D02*
X0089844Y0058563D01*
X0089844Y0058557D02*
X0087953Y0058557D01*
X0087953Y0058550D02*
X0089844Y0058550D01*
X0089844Y0058544D02*
X0087953Y0058544D01*
X0087953Y0058537D02*
X0089844Y0058537D01*
X0089844Y0058531D02*
X0087953Y0058531D01*
X0087953Y0058525D02*
X0089844Y0058525D01*
X0089844Y0058518D02*
X0087953Y0058518D01*
X0087953Y0058512D02*
X0089844Y0058512D01*
X0089844Y0058506D02*
X0087953Y0058506D01*
X0087953Y0058499D02*
X0089844Y0058499D01*
X0089844Y0058493D02*
X0087953Y0058493D01*
X0087953Y0058486D02*
X0089844Y0058486D01*
X0089844Y0058480D02*
X0087953Y0058480D01*
X0087953Y0058474D02*
X0089844Y0058474D01*
X0089844Y0058467D02*
X0087954Y0058467D01*
X0087954Y0058461D02*
X0089844Y0058461D01*
X0089844Y0058454D02*
X0087954Y0058454D01*
X0087954Y0058448D02*
X0089844Y0058448D01*
X0089844Y0058442D02*
X0087954Y0058442D01*
X0087954Y0058435D02*
X0089844Y0058435D01*
X0089844Y0058429D02*
X0087954Y0058429D01*
X0087954Y0058423D02*
X0089844Y0058423D01*
X0089844Y0058416D02*
X0087954Y0058416D01*
X0087954Y0058410D02*
X0089844Y0058410D01*
X0089844Y0058403D02*
X0087954Y0058403D01*
X0087954Y0058397D02*
X0089844Y0058397D01*
X0089844Y0058391D02*
X0087954Y0058391D01*
X0087954Y0058384D02*
X0089844Y0058384D01*
X0089844Y0058378D02*
X0087954Y0058378D01*
X0087954Y0058371D02*
X0089844Y0058371D01*
X0089844Y0058365D02*
X0087954Y0058365D01*
X0087954Y0058359D02*
X0089844Y0058359D01*
X0089844Y0058352D02*
X0087955Y0058352D01*
X0087955Y0058346D02*
X0089844Y0058346D01*
X0089844Y0058339D02*
X0087955Y0058339D01*
X0087955Y0058333D02*
X0089844Y0058333D01*
X0089844Y0058327D02*
X0087955Y0058327D01*
X0087955Y0058320D02*
X0089844Y0058320D01*
X0089844Y0058314D02*
X0087955Y0058314D01*
X0087955Y0058308D02*
X0089844Y0058308D01*
X0089844Y0058301D02*
X0087955Y0058301D01*
X0087955Y0058295D02*
X0089844Y0058295D01*
X0089844Y0058288D02*
X0087955Y0058288D01*
X0087955Y0058282D02*
X0089844Y0058282D01*
X0089844Y0058276D02*
X0087955Y0058276D01*
X0087955Y0058269D02*
X0089844Y0058269D01*
X0089844Y0058263D02*
X0087955Y0058263D01*
X0087955Y0058256D02*
X0089844Y0058256D01*
X0089844Y0058250D02*
X0087955Y0058250D01*
X0087956Y0058244D02*
X0089844Y0058244D01*
X0089844Y0058237D02*
X0087956Y0058237D01*
X0087956Y0058231D02*
X0089844Y0058231D01*
X0089844Y0058225D02*
X0087956Y0058225D01*
X0087956Y0058218D02*
X0089844Y0058218D01*
X0089844Y0058212D02*
X0087956Y0058212D01*
X0087049Y0058205D02*
X0089844Y0058205D01*
X0089844Y0058199D02*
X0087049Y0058199D01*
X0087049Y0058193D02*
X0089844Y0058193D01*
X0089844Y0058186D02*
X0087049Y0058186D01*
X0087049Y0058180D02*
X0089844Y0058180D01*
X0089844Y0058173D02*
X0087049Y0058173D01*
X0087049Y0058167D02*
X0089844Y0058167D01*
X0089844Y0058161D02*
X0087049Y0058161D01*
X0087049Y0058154D02*
X0089844Y0058154D01*
X0089844Y0058148D02*
X0087049Y0058148D01*
X0087049Y0058142D02*
X0089844Y0058142D01*
X0089844Y0058135D02*
X0087049Y0058135D01*
X0087049Y0058129D02*
X0089844Y0058129D01*
X0089844Y0058122D02*
X0087049Y0058122D01*
X0087049Y0058116D02*
X0089844Y0058116D01*
X0089844Y0058110D02*
X0087049Y0058110D01*
X0087049Y0058103D02*
X0089844Y0058103D01*
X0089844Y0058097D02*
X0087049Y0058097D01*
X0087049Y0058090D02*
X0089844Y0058090D01*
X0089844Y0058084D02*
X0087049Y0058084D01*
X0087049Y0058078D02*
X0089844Y0058078D01*
X0089844Y0058071D02*
X0087049Y0058071D01*
X0087049Y0058065D02*
X0089844Y0058065D01*
X0089844Y0058059D02*
X0087049Y0058059D01*
X0087049Y0058052D02*
X0089844Y0058052D01*
X0089844Y0058046D02*
X0087049Y0058046D01*
X0087049Y0058039D02*
X0089844Y0058039D01*
X0089844Y0058033D02*
X0087049Y0058033D01*
X0087049Y0058027D02*
X0089844Y0058027D01*
X0089844Y0058020D02*
X0087049Y0058020D01*
X0087049Y0058014D02*
X0089844Y0058014D01*
X0089844Y0058007D02*
X0087049Y0058007D01*
X0087049Y0058001D02*
X0089844Y0058001D01*
X0089844Y0057995D02*
X0087049Y0057995D01*
X0087049Y0057988D02*
X0089844Y0057988D01*
X0089844Y0057982D02*
X0087049Y0057982D01*
X0087049Y0057976D02*
X0089844Y0057976D01*
X0089844Y0057969D02*
X0087049Y0057969D01*
X0087049Y0057963D02*
X0089844Y0057963D01*
X0089844Y0057956D02*
X0087049Y0057956D01*
X0087049Y0057950D02*
X0089844Y0057950D01*
X0089844Y0057944D02*
X0087049Y0057944D01*
X0087049Y0057937D02*
X0089844Y0057937D01*
X0089844Y0057931D02*
X0087049Y0057931D01*
X0087049Y0057924D02*
X0089844Y0057924D01*
X0089844Y0057918D02*
X0087049Y0057918D01*
X0087049Y0057912D02*
X0089844Y0057912D01*
X0089844Y0057905D02*
X0087049Y0057905D01*
X0087049Y0057899D02*
X0089844Y0057899D01*
X0089844Y0057893D02*
X0087049Y0057893D01*
X0087049Y0057886D02*
X0089844Y0057886D01*
X0089844Y0057880D02*
X0087049Y0057880D01*
X0087049Y0057873D02*
X0089844Y0057873D01*
X0089844Y0057867D02*
X0087049Y0057867D01*
X0087049Y0057861D02*
X0089844Y0057861D01*
X0089844Y0057854D02*
X0087049Y0057854D01*
X0087049Y0057848D02*
X0089844Y0057848D01*
X0089844Y0057841D02*
X0087049Y0057841D01*
X0087049Y0057835D02*
X0089844Y0057835D01*
X0089844Y0057829D02*
X0087049Y0057829D01*
X0087049Y0057822D02*
X0089844Y0057822D01*
X0089844Y0057816D02*
X0087049Y0057816D01*
X0087049Y0057810D02*
X0089844Y0057810D01*
X0089844Y0057803D02*
X0087049Y0057803D01*
X0087049Y0057797D02*
X0089844Y0057797D01*
X0089844Y0057790D02*
X0087049Y0057790D01*
X0087049Y0057784D02*
X0089844Y0057784D01*
X0089844Y0057778D02*
X0087049Y0057778D01*
X0087049Y0057771D02*
X0089844Y0057771D01*
X0089844Y0057765D02*
X0087049Y0057765D01*
X0087049Y0057758D02*
X0089844Y0057758D01*
X0089844Y0057752D02*
X0087049Y0057752D01*
X0087049Y0057746D02*
X0089844Y0057746D01*
X0089844Y0057739D02*
X0087049Y0057739D01*
X0087049Y0057733D02*
X0089844Y0057733D01*
X0089844Y0057727D02*
X0087049Y0057727D01*
X0087049Y0057720D02*
X0089844Y0057720D01*
X0089844Y0057714D02*
X0087049Y0057714D01*
X0087049Y0057707D02*
X0089844Y0057707D01*
X0089844Y0057701D02*
X0087049Y0057701D01*
X0087049Y0057695D02*
X0089844Y0057695D01*
X0089844Y0057688D02*
X0087049Y0057688D01*
X0087049Y0057682D02*
X0089844Y0057682D01*
X0089844Y0057675D02*
X0087049Y0057675D01*
X0087049Y0057669D02*
X0089844Y0057669D01*
X0089844Y0057663D02*
X0087049Y0057663D01*
X0087049Y0057656D02*
X0089844Y0057656D01*
X0089844Y0057650D02*
X0087049Y0057650D01*
X0087049Y0057643D02*
X0089844Y0057643D01*
X0089844Y0057637D02*
X0087049Y0057637D01*
X0087049Y0057631D02*
X0089844Y0057631D01*
X0089844Y0057624D02*
X0087049Y0057624D01*
X0087049Y0057618D02*
X0089844Y0057618D01*
X0089844Y0057612D02*
X0087049Y0057612D01*
X0087049Y0057605D02*
X0089844Y0057605D01*
X0089844Y0057599D02*
X0087049Y0057599D01*
X0087049Y0057592D02*
X0089844Y0057592D01*
X0089844Y0057586D02*
X0087049Y0057586D01*
X0087049Y0057580D02*
X0089844Y0057580D01*
X0089844Y0057573D02*
X0087049Y0057573D01*
X0087049Y0057567D02*
X0089844Y0057567D01*
X0089844Y0057560D02*
X0087049Y0057560D01*
X0087049Y0057554D02*
X0089844Y0057554D01*
X0089844Y0057548D02*
X0087049Y0057548D01*
X0087049Y0057541D02*
X0089844Y0057541D01*
X0089844Y0057535D02*
X0087049Y0057535D01*
X0087049Y0057529D02*
X0089844Y0057529D01*
X0089844Y0057522D02*
X0087049Y0057522D01*
X0087049Y0057516D02*
X0089844Y0057516D01*
X0089844Y0057509D02*
X0087049Y0057509D01*
X0087049Y0057503D02*
X0089844Y0057503D01*
X0089844Y0057497D02*
X0087049Y0057497D01*
X0087049Y0057490D02*
X0089844Y0057490D01*
X0089844Y0057484D02*
X0087049Y0057484D01*
X0087049Y0057477D02*
X0089844Y0057477D01*
X0089844Y0057471D02*
X0087049Y0057471D01*
X0087049Y0057465D02*
X0089844Y0057465D01*
X0089844Y0057458D02*
X0087049Y0057458D01*
X0087049Y0057452D02*
X0089844Y0057452D01*
X0089844Y0057446D02*
X0087049Y0057446D01*
X0087049Y0057439D02*
X0089844Y0057439D01*
X0089844Y0057433D02*
X0087049Y0057433D01*
X0087049Y0057426D02*
X0089844Y0057426D01*
X0089844Y0057420D02*
X0087049Y0057420D01*
X0087049Y0057414D02*
X0089844Y0057414D01*
X0089844Y0057407D02*
X0087049Y0057407D01*
X0087049Y0057401D02*
X0089844Y0057401D01*
X0089844Y0057394D02*
X0087049Y0057394D01*
X0087049Y0057388D02*
X0089844Y0057388D01*
X0089844Y0057382D02*
X0087049Y0057382D01*
X0087049Y0057375D02*
X0089844Y0057375D01*
X0089844Y0057369D02*
X0087049Y0057369D01*
X0087049Y0057363D02*
X0089844Y0057363D01*
X0089844Y0057356D02*
X0087049Y0057356D01*
X0087049Y0057350D02*
X0089844Y0057350D01*
X0089844Y0057343D02*
X0087049Y0057343D01*
X0087049Y0057337D02*
X0089844Y0057337D01*
X0089844Y0057331D02*
X0087049Y0057331D01*
X0087049Y0057324D02*
X0089844Y0057324D01*
X0089844Y0057318D02*
X0087049Y0057318D01*
X0087049Y0057311D02*
X0089844Y0057311D01*
X0089844Y0057305D02*
X0087049Y0057305D01*
X0087049Y0057299D02*
X0089844Y0057299D01*
X0089844Y0057292D02*
X0087049Y0057292D01*
X0087049Y0057286D02*
X0089844Y0057286D01*
X0089844Y0057280D02*
X0087049Y0057280D01*
X0087049Y0057273D02*
X0089844Y0057273D01*
X0089844Y0057267D02*
X0087049Y0057267D01*
X0087049Y0057260D02*
X0089844Y0057260D01*
X0089844Y0057254D02*
X0087049Y0057254D01*
X0087049Y0057248D02*
X0089844Y0057248D01*
X0089844Y0057241D02*
X0087049Y0057241D01*
X0087049Y0057235D02*
X0089844Y0057235D01*
X0089844Y0057228D02*
X0087049Y0057228D01*
X0087049Y0057222D02*
X0089844Y0057222D01*
X0089844Y0057216D02*
X0087049Y0057216D01*
X0087049Y0057209D02*
X0089844Y0057209D01*
X0089844Y0057203D02*
X0087049Y0057203D01*
X0087049Y0057197D02*
X0089844Y0057197D01*
X0089844Y0057190D02*
X0087049Y0057190D01*
X0087049Y0057184D02*
X0089844Y0057184D01*
X0089844Y0057177D02*
X0087049Y0057177D01*
X0087049Y0057171D02*
X0089844Y0057171D01*
X0089844Y0057165D02*
X0087049Y0057165D01*
X0087049Y0057158D02*
X0089844Y0057158D01*
X0089844Y0057152D02*
X0087049Y0057152D01*
X0087049Y0057145D02*
X0089844Y0057145D01*
X0089844Y0057139D02*
X0087049Y0057139D01*
X0087049Y0057133D02*
X0089844Y0057133D01*
X0089844Y0057126D02*
X0087049Y0057126D01*
X0087049Y0057120D02*
X0089841Y0057120D01*
X0089835Y0057114D02*
X0087049Y0057114D01*
X0087049Y0057107D02*
X0089829Y0057107D01*
X0089822Y0057101D02*
X0087049Y0057101D01*
X0087049Y0057094D02*
X0089816Y0057094D01*
X0089809Y0057088D02*
X0087049Y0057088D01*
X0087049Y0057082D02*
X0089803Y0057082D01*
X0089797Y0057075D02*
X0087049Y0057075D01*
X0087049Y0057069D02*
X0089790Y0057069D01*
X0089784Y0057062D02*
X0087049Y0057062D01*
X0087049Y0057056D02*
X0089777Y0057056D01*
X0089771Y0057050D02*
X0087049Y0057050D01*
X0087049Y0057043D02*
X0089765Y0057043D01*
X0089758Y0057037D02*
X0087049Y0057037D01*
X0087049Y0057030D02*
X0089752Y0057030D01*
X0089746Y0057024D02*
X0087049Y0057024D01*
X0087049Y0057018D02*
X0089739Y0057018D01*
X0089733Y0057011D02*
X0087049Y0057011D01*
X0087049Y0057005D02*
X0089726Y0057005D01*
X0089720Y0056999D02*
X0087049Y0056999D01*
X0087049Y0056992D02*
X0089714Y0056992D01*
X0089707Y0056986D02*
X0087049Y0056986D01*
X0087049Y0056979D02*
X0089701Y0056979D01*
X0089694Y0056973D02*
X0087049Y0056973D01*
X0087049Y0056967D02*
X0089688Y0056967D01*
X0089682Y0056960D02*
X0087049Y0056960D01*
X0087049Y0056954D02*
X0089675Y0056954D01*
X0089669Y0056947D02*
X0087049Y0056947D01*
X0087049Y0056941D02*
X0089662Y0056941D01*
X0089656Y0056935D02*
X0087049Y0056935D01*
X0087049Y0056928D02*
X0089650Y0056928D01*
X0089643Y0056922D02*
X0087049Y0056922D01*
X0087049Y0056916D02*
X0089637Y0056916D01*
X0089630Y0056909D02*
X0087049Y0056909D01*
X0087049Y0056903D02*
X0089624Y0056903D01*
X0089618Y0056896D02*
X0087049Y0056896D01*
X0087049Y0056890D02*
X0089611Y0056890D01*
X0089605Y0056884D02*
X0087049Y0056884D01*
X0087049Y0056877D02*
X0089598Y0056877D01*
X0089592Y0056871D02*
X0087049Y0056871D01*
X0087049Y0056864D02*
X0089586Y0056864D01*
X0089579Y0056858D02*
X0087049Y0056858D01*
X0087049Y0056852D02*
X0089573Y0056852D01*
X0089566Y0056845D02*
X0087049Y0056845D01*
X0087049Y0056839D02*
X0089560Y0056839D01*
X0089554Y0056833D02*
X0087049Y0056833D01*
X0087049Y0056826D02*
X0089547Y0056826D01*
X0089541Y0056820D02*
X0087049Y0056820D01*
X0087049Y0056813D02*
X0089534Y0056813D01*
X0089528Y0056807D02*
X0087049Y0056807D01*
X0087049Y0056801D02*
X0089522Y0056801D01*
X0089515Y0056794D02*
X0087049Y0056794D01*
X0087049Y0056788D02*
X0089509Y0056788D01*
X0089502Y0056781D02*
X0087049Y0056781D01*
X0087049Y0056775D02*
X0089496Y0056775D01*
X0089490Y0056769D02*
X0087049Y0056769D01*
X0087049Y0056762D02*
X0089483Y0056762D01*
X0089477Y0056756D02*
X0087049Y0056756D01*
X0087049Y0056750D02*
X0089470Y0056750D01*
X0089464Y0056743D02*
X0087049Y0056743D01*
X0087049Y0056737D02*
X0089458Y0056737D01*
X0089451Y0056730D02*
X0087049Y0056730D01*
X0087049Y0056724D02*
X0089445Y0056724D01*
X0089438Y0056718D02*
X0087049Y0056718D01*
X0087049Y0056711D02*
X0089432Y0056711D01*
X0089426Y0056705D02*
X0087049Y0056705D01*
X0087049Y0056698D02*
X0089419Y0056698D01*
X0089413Y0056692D02*
X0087049Y0056692D01*
X0087049Y0056686D02*
X0089406Y0056686D01*
X0089400Y0056679D02*
X0087049Y0056679D01*
X0087049Y0056673D02*
X0089394Y0056673D01*
X0089387Y0056667D02*
X0087049Y0056667D01*
X0087049Y0056660D02*
X0089381Y0056660D01*
X0089374Y0056654D02*
X0087049Y0056654D01*
X0087049Y0056647D02*
X0089368Y0056647D01*
X0089362Y0056641D02*
X0087049Y0056641D01*
X0087049Y0056635D02*
X0089355Y0056635D01*
X0089349Y0056628D02*
X0087049Y0056628D01*
X0087049Y0056622D02*
X0089342Y0056622D01*
X0089336Y0056615D02*
X0087049Y0056615D01*
X0087049Y0056609D02*
X0089330Y0056609D01*
X0089323Y0056603D02*
X0087049Y0056603D01*
X0087049Y0056596D02*
X0089317Y0056596D01*
X0089311Y0056590D02*
X0087049Y0056590D01*
X0087049Y0056584D02*
X0089304Y0056584D01*
X0089298Y0056577D02*
X0087049Y0056577D01*
X0087049Y0056571D02*
X0089291Y0056571D01*
X0089285Y0056564D02*
X0087049Y0056564D01*
X0087049Y0056558D02*
X0089279Y0056558D01*
X0089272Y0056552D02*
X0087049Y0056552D01*
X0087049Y0056545D02*
X0089266Y0056545D01*
X0089259Y0056539D02*
X0087049Y0056539D01*
X0087049Y0056532D02*
X0089253Y0056532D01*
X0089247Y0056526D02*
X0087049Y0056526D01*
X0087049Y0056520D02*
X0089240Y0056520D01*
X0089234Y0056513D02*
X0087049Y0056513D01*
X0087049Y0056507D02*
X0089227Y0056507D01*
X0089221Y0056501D02*
X0087049Y0056501D01*
X0087049Y0056494D02*
X0089215Y0056494D01*
X0089208Y0056488D02*
X0087049Y0056488D01*
X0087049Y0056481D02*
X0089202Y0056481D01*
X0089195Y0056475D02*
X0087049Y0056475D01*
X0087049Y0056469D02*
X0089189Y0056469D01*
X0089183Y0056462D02*
X0087049Y0056462D01*
X0087049Y0056456D02*
X0089176Y0056456D01*
X0089170Y0056449D02*
X0087049Y0056449D01*
X0087049Y0056443D02*
X0089163Y0056443D01*
X0089157Y0056437D02*
X0087049Y0056437D01*
X0087049Y0056430D02*
X0089151Y0056430D01*
X0089144Y0056424D02*
X0087049Y0056424D01*
X0087049Y0056418D02*
X0089138Y0056418D01*
X0089131Y0056411D02*
X0087049Y0056411D01*
X0087049Y0056405D02*
X0089125Y0056405D01*
X0089119Y0056398D02*
X0087049Y0056398D01*
X0087049Y0056392D02*
X0089112Y0056392D01*
X0089106Y0056386D02*
X0087049Y0056386D01*
X0087049Y0056379D02*
X0089099Y0056379D01*
X0089093Y0056373D02*
X0087049Y0056373D01*
X0087049Y0056366D02*
X0089087Y0056366D01*
X0089080Y0056360D02*
X0087049Y0056360D01*
X0087049Y0056354D02*
X0089074Y0056354D01*
X0089067Y0056347D02*
X0087049Y0056347D01*
X0087049Y0056341D02*
X0089061Y0056341D01*
X0089055Y0056334D02*
X0087049Y0056334D01*
X0087049Y0056328D02*
X0089048Y0056328D01*
X0089042Y0056322D02*
X0087049Y0056322D01*
X0087049Y0056315D02*
X0089035Y0056315D01*
X0089029Y0056309D02*
X0087049Y0056309D01*
X0087049Y0056303D02*
X0089023Y0056303D01*
X0089016Y0056296D02*
X0087049Y0056296D01*
X0087049Y0056290D02*
X0089010Y0056290D01*
X0089003Y0056283D02*
X0087049Y0056283D01*
X0087049Y0056277D02*
X0088997Y0056277D01*
X0088991Y0056271D02*
X0087049Y0056271D01*
X0087049Y0056264D02*
X0088984Y0056264D01*
X0088978Y0056258D02*
X0087049Y0056258D01*
X0087049Y0056251D02*
X0088971Y0056251D01*
X0088965Y0056245D02*
X0087049Y0056245D01*
X0087049Y0056239D02*
X0088959Y0056239D01*
X0088952Y0056232D02*
X0087049Y0056232D01*
X0087049Y0056226D02*
X0088946Y0056226D01*
X0088939Y0056220D02*
X0087049Y0056220D01*
X0087049Y0056213D02*
X0088933Y0056213D01*
X0088927Y0056207D02*
X0087049Y0056207D01*
X0087049Y0056200D02*
X0088920Y0056200D01*
X0088914Y0056194D02*
X0087049Y0056194D01*
X0087049Y0056188D02*
X0088907Y0056188D01*
X0088901Y0056181D02*
X0087049Y0056181D01*
X0087049Y0056175D02*
X0088895Y0056175D01*
X0088888Y0056168D02*
X0087049Y0056168D01*
X0087049Y0056162D02*
X0088882Y0056162D01*
X0088875Y0056156D02*
X0087049Y0056156D01*
X0087049Y0056149D02*
X0088869Y0056149D01*
X0088863Y0056143D02*
X0087049Y0056143D01*
X0087049Y0056137D02*
X0088856Y0056137D01*
X0088850Y0056130D02*
X0087049Y0056130D01*
X0087049Y0056124D02*
X0088843Y0056124D01*
X0088837Y0056117D02*
X0087049Y0056117D01*
X0087049Y0056111D02*
X0088831Y0056111D01*
X0088824Y0056105D02*
X0087049Y0056105D01*
X0087049Y0056098D02*
X0088818Y0056098D01*
X0088811Y0056092D02*
X0087049Y0056092D01*
X0087049Y0056085D02*
X0088805Y0056085D01*
X0088799Y0056079D02*
X0087049Y0056079D01*
X0087049Y0056073D02*
X0088792Y0056073D01*
X0088786Y0056066D02*
X0087049Y0056066D01*
X0087049Y0056060D02*
X0088780Y0056060D01*
X0088773Y0056054D02*
X0087049Y0056054D01*
X0087049Y0056047D02*
X0088767Y0056047D01*
X0085867Y0057126D02*
X0080000Y0057126D01*
X0080006Y0057120D02*
X0085863Y0057120D01*
X0085857Y0057114D02*
X0080013Y0057114D01*
X0080019Y0057107D02*
X0085850Y0057107D01*
X0085844Y0057101D02*
X0080026Y0057101D01*
X0080032Y0057094D02*
X0085838Y0057094D01*
X0085831Y0057088D02*
X0080038Y0057088D01*
X0080045Y0057082D02*
X0085825Y0057082D01*
X0085818Y0057075D02*
X0080051Y0057075D01*
X0080057Y0057069D02*
X0085812Y0057069D01*
X0085806Y0057062D02*
X0080064Y0057062D01*
X0080070Y0057056D02*
X0085799Y0057056D01*
X0085793Y0057050D02*
X0080077Y0057050D01*
X0080083Y0057043D02*
X0085787Y0057043D01*
X0085780Y0057037D02*
X0080089Y0057037D01*
X0080096Y0057030D02*
X0085774Y0057030D01*
X0085767Y0057024D02*
X0080102Y0057024D01*
X0080108Y0057018D02*
X0085761Y0057018D01*
X0085755Y0057011D02*
X0080115Y0057011D01*
X0080121Y0057005D02*
X0085748Y0057005D01*
X0085742Y0056999D02*
X0080128Y0056999D01*
X0080134Y0056992D02*
X0085736Y0056992D01*
X0085729Y0056986D02*
X0080140Y0056986D01*
X0080147Y0056979D02*
X0085723Y0056979D01*
X0085716Y0056973D02*
X0080153Y0056973D01*
X0080159Y0056967D02*
X0085710Y0056967D01*
X0085704Y0056960D02*
X0080166Y0056960D01*
X0080172Y0056954D02*
X0085697Y0056954D01*
X0085691Y0056947D02*
X0080179Y0056947D01*
X0080185Y0056941D02*
X0085685Y0056941D01*
X0085678Y0056935D02*
X0080191Y0056935D01*
X0080198Y0056928D02*
X0085672Y0056928D01*
X0085665Y0056922D02*
X0080204Y0056922D01*
X0080210Y0056916D02*
X0085659Y0056916D01*
X0085653Y0056909D02*
X0080217Y0056909D01*
X0080223Y0056903D02*
X0085646Y0056903D01*
X0085640Y0056896D02*
X0080230Y0056896D01*
X0080236Y0056890D02*
X0085634Y0056890D01*
X0085627Y0056884D02*
X0080242Y0056884D01*
X0080249Y0056877D02*
X0085621Y0056877D01*
X0085614Y0056871D02*
X0080255Y0056871D01*
X0080262Y0056864D02*
X0085608Y0056864D01*
X0085602Y0056858D02*
X0080268Y0056858D01*
X0080274Y0056852D02*
X0085595Y0056852D01*
X0085589Y0056845D02*
X0080281Y0056845D01*
X0080287Y0056839D02*
X0085583Y0056839D01*
X0085576Y0056833D02*
X0080293Y0056833D01*
X0080300Y0056826D02*
X0085570Y0056826D01*
X0085564Y0056820D02*
X0080306Y0056820D01*
X0080313Y0056813D02*
X0085557Y0056813D01*
X0085551Y0056807D02*
X0080319Y0056807D01*
X0080325Y0056801D02*
X0085544Y0056801D01*
X0085538Y0056794D02*
X0080332Y0056794D01*
X0080338Y0056788D02*
X0085532Y0056788D01*
X0085525Y0056781D02*
X0080344Y0056781D01*
X0080351Y0056775D02*
X0085519Y0056775D01*
X0085513Y0056769D02*
X0080357Y0056769D01*
X0080364Y0056762D02*
X0085506Y0056762D01*
X0085500Y0056756D02*
X0080370Y0056756D01*
X0080376Y0056750D02*
X0085493Y0056750D01*
X0085487Y0056743D02*
X0080383Y0056743D01*
X0080389Y0056737D02*
X0085481Y0056737D01*
X0085474Y0056730D02*
X0080395Y0056730D01*
X0080402Y0056724D02*
X0085468Y0056724D01*
X0085462Y0056718D02*
X0080408Y0056718D01*
X0080415Y0056711D02*
X0085455Y0056711D01*
X0085449Y0056705D02*
X0080421Y0056705D01*
X0080427Y0056698D02*
X0085442Y0056698D01*
X0085436Y0056692D02*
X0080434Y0056692D01*
X0080440Y0056686D02*
X0085430Y0056686D01*
X0085423Y0056679D02*
X0080446Y0056679D01*
X0080453Y0056673D02*
X0085417Y0056673D01*
X0085411Y0056667D02*
X0080459Y0056667D01*
X0080466Y0056660D02*
X0085404Y0056660D01*
X0085398Y0056654D02*
X0080472Y0056654D01*
X0080478Y0056647D02*
X0085391Y0056647D01*
X0085385Y0056641D02*
X0080485Y0056641D01*
X0080491Y0056635D02*
X0085379Y0056635D01*
X0085372Y0056628D02*
X0080497Y0056628D01*
X0080504Y0056622D02*
X0085366Y0056622D01*
X0085360Y0056615D02*
X0080510Y0056615D01*
X0080517Y0056609D02*
X0085353Y0056609D01*
X0085347Y0056603D02*
X0080523Y0056603D01*
X0080529Y0056596D02*
X0085340Y0056596D01*
X0085334Y0056590D02*
X0080536Y0056590D01*
X0080542Y0056584D02*
X0085328Y0056584D01*
X0085321Y0056577D02*
X0080548Y0056577D01*
X0080555Y0056571D02*
X0085315Y0056571D01*
X0085309Y0056564D02*
X0080561Y0056564D01*
X0080568Y0056558D02*
X0085302Y0056558D01*
X0085296Y0056552D02*
X0080574Y0056552D01*
X0080580Y0056545D02*
X0085289Y0056545D01*
X0085283Y0056539D02*
X0080587Y0056539D01*
X0080593Y0056532D02*
X0085277Y0056532D01*
X0085270Y0056526D02*
X0080600Y0056526D01*
X0080606Y0056520D02*
X0085264Y0056520D01*
X0085258Y0056513D02*
X0080612Y0056513D01*
X0080619Y0056507D02*
X0085251Y0056507D01*
X0085245Y0056501D02*
X0080625Y0056501D01*
X0080631Y0056494D02*
X0085238Y0056494D01*
X0085232Y0056488D02*
X0080638Y0056488D01*
X0080644Y0056481D02*
X0085226Y0056481D01*
X0085219Y0056475D02*
X0080651Y0056475D01*
X0080657Y0056469D02*
X0085213Y0056469D01*
X0085207Y0056462D02*
X0080663Y0056462D01*
X0080670Y0056456D02*
X0085200Y0056456D01*
X0085194Y0056449D02*
X0080676Y0056449D01*
X0080682Y0056443D02*
X0085187Y0056443D01*
X0085181Y0056437D02*
X0080689Y0056437D01*
X0080695Y0056430D02*
X0085175Y0056430D01*
X0085168Y0056424D02*
X0080702Y0056424D01*
X0080708Y0056418D02*
X0085162Y0056418D01*
X0085156Y0056411D02*
X0080714Y0056411D01*
X0080721Y0056405D02*
X0085149Y0056405D01*
X0085143Y0056398D02*
X0080727Y0056398D01*
X0080733Y0056392D02*
X0085136Y0056392D01*
X0085130Y0056386D02*
X0080740Y0056386D01*
X0080746Y0056379D02*
X0085124Y0056379D01*
X0085117Y0056373D02*
X0080753Y0056373D01*
X0080759Y0056366D02*
X0085111Y0056366D01*
X0085105Y0056360D02*
X0080765Y0056360D01*
X0080772Y0056354D02*
X0085098Y0056354D01*
X0085092Y0056347D02*
X0080778Y0056347D01*
X0080784Y0056341D02*
X0085085Y0056341D01*
X0085079Y0056334D02*
X0080791Y0056334D01*
X0080797Y0056328D02*
X0085073Y0056328D01*
X0085066Y0056322D02*
X0080804Y0056322D01*
X0080810Y0056315D02*
X0085060Y0056315D01*
X0085054Y0056309D02*
X0080816Y0056309D01*
X0080823Y0056303D02*
X0085047Y0056303D01*
X0085041Y0056296D02*
X0080829Y0056296D01*
X0080835Y0056290D02*
X0085034Y0056290D01*
X0085028Y0056283D02*
X0080842Y0056283D01*
X0080848Y0056277D02*
X0085022Y0056277D01*
X0085015Y0056271D02*
X0080855Y0056271D01*
X0080861Y0056264D02*
X0085009Y0056264D01*
X0085003Y0056258D02*
X0080867Y0056258D01*
X0080874Y0056251D02*
X0084996Y0056251D01*
X0084990Y0056245D02*
X0080880Y0056245D01*
X0080887Y0056239D02*
X0084984Y0056239D01*
X0084977Y0056232D02*
X0080893Y0056232D01*
X0080899Y0056226D02*
X0084971Y0056226D01*
X0084964Y0056220D02*
X0080906Y0056220D01*
X0080912Y0056213D02*
X0084958Y0056213D01*
X0084952Y0056207D02*
X0080918Y0056207D01*
X0080925Y0056200D02*
X0084945Y0056200D01*
X0084939Y0056194D02*
X0080931Y0056194D01*
X0080938Y0056188D02*
X0084933Y0056188D01*
X0084926Y0056181D02*
X0080944Y0056181D01*
X0080950Y0056175D02*
X0084920Y0056175D01*
X0084913Y0056168D02*
X0080957Y0056168D01*
X0080963Y0056162D02*
X0084907Y0056162D01*
X0084901Y0056156D02*
X0080969Y0056156D01*
X0080976Y0056149D02*
X0084894Y0056149D01*
X0084888Y0056143D02*
X0080982Y0056143D01*
X0080989Y0056137D02*
X0084882Y0056137D01*
X0084875Y0056130D02*
X0080995Y0056130D01*
X0081001Y0056124D02*
X0084869Y0056124D01*
X0084862Y0056117D02*
X0081008Y0056117D01*
X0081014Y0056111D02*
X0084856Y0056111D01*
X0084850Y0056105D02*
X0081020Y0056105D01*
X0081027Y0056098D02*
X0084843Y0056098D01*
X0084837Y0056092D02*
X0081033Y0056092D01*
X0081040Y0056085D02*
X0084831Y0056085D01*
X0084824Y0056079D02*
X0081046Y0056079D01*
X0081052Y0056073D02*
X0084818Y0056073D01*
X0084811Y0056066D02*
X0081059Y0056066D01*
X0081065Y0056060D02*
X0084805Y0056060D01*
X0084799Y0056054D02*
X0081071Y0056054D01*
X0081078Y0056047D02*
X0084792Y0056047D01*
X0084786Y0056041D02*
X0081084Y0056041D01*
X0081091Y0056034D02*
X0084780Y0056034D01*
X0084773Y0056028D02*
X0081097Y0056028D01*
X0081103Y0056022D02*
X0084767Y0056022D01*
X0084760Y0056015D02*
X0081110Y0056015D01*
X0081116Y0056009D02*
X0084754Y0056009D01*
X0084748Y0056002D02*
X0081122Y0056002D01*
X0079994Y0057133D02*
X0085867Y0057133D01*
X0085867Y0057139D02*
X0079987Y0057139D01*
X0079981Y0057145D02*
X0085867Y0057145D01*
X0085867Y0057152D02*
X0079975Y0057152D01*
X0079968Y0057158D02*
X0085867Y0057158D01*
X0085867Y0057165D02*
X0079962Y0057165D01*
X0079955Y0057171D02*
X0085867Y0057171D01*
X0085868Y0057177D02*
X0079949Y0057177D01*
X0079943Y0057184D02*
X0085868Y0057184D01*
X0085868Y0057190D02*
X0079936Y0057190D01*
X0079930Y0057197D02*
X0085868Y0057197D01*
X0085868Y0057203D02*
X0079923Y0057203D01*
X0079917Y0057209D02*
X0085868Y0057209D01*
X0085868Y0057216D02*
X0079911Y0057216D01*
X0079904Y0057222D02*
X0085868Y0057222D01*
X0085868Y0057228D02*
X0079898Y0057228D01*
X0079892Y0057235D02*
X0085868Y0057235D01*
X0085868Y0057241D02*
X0079885Y0057241D01*
X0079879Y0057248D02*
X0085868Y0057248D01*
X0085868Y0057254D02*
X0079872Y0057254D01*
X0079866Y0057260D02*
X0085868Y0057260D01*
X0085868Y0057267D02*
X0079860Y0057267D01*
X0079853Y0057273D02*
X0085868Y0057273D01*
X0085868Y0057280D02*
X0079847Y0057280D01*
X0079841Y0057286D02*
X0085868Y0057286D01*
X0085868Y0057292D02*
X0079834Y0057292D01*
X0079828Y0057299D02*
X0085868Y0057299D01*
X0085868Y0057305D02*
X0079821Y0057305D01*
X0079815Y0057311D02*
X0085868Y0057311D01*
X0085868Y0057318D02*
X0079809Y0057318D01*
X0079802Y0057324D02*
X0085868Y0057324D01*
X0085868Y0057331D02*
X0079796Y0057331D01*
X0079790Y0057337D02*
X0085868Y0057337D01*
X0085868Y0057343D02*
X0079783Y0057343D01*
X0079777Y0057350D02*
X0085869Y0057350D01*
X0085869Y0057356D02*
X0079770Y0057356D01*
X0079766Y0057363D02*
X0085869Y0057363D01*
X0085869Y0057369D02*
X0079766Y0057369D01*
X0079766Y0057375D02*
X0085869Y0057375D01*
X0085869Y0057382D02*
X0079766Y0057382D01*
X0079766Y0057388D02*
X0085869Y0057388D01*
X0085869Y0057394D02*
X0079766Y0057394D01*
X0079766Y0057401D02*
X0085869Y0057401D01*
X0085869Y0057407D02*
X0079766Y0057407D01*
X0079766Y0057414D02*
X0085869Y0057414D01*
X0085869Y0057420D02*
X0079766Y0057420D01*
X0079766Y0057426D02*
X0085869Y0057426D01*
X0085869Y0057433D02*
X0079766Y0057433D01*
X0079766Y0057439D02*
X0085869Y0057439D01*
X0085869Y0057446D02*
X0079766Y0057446D01*
X0079766Y0057452D02*
X0085869Y0057452D01*
X0085869Y0057458D02*
X0079766Y0057458D01*
X0079766Y0057465D02*
X0085869Y0057465D01*
X0085869Y0057471D02*
X0079766Y0057471D01*
X0079766Y0057477D02*
X0085869Y0057477D01*
X0085869Y0057484D02*
X0079766Y0057484D01*
X0079766Y0057490D02*
X0085869Y0057490D01*
X0085869Y0057497D02*
X0079766Y0057497D01*
X0079766Y0057503D02*
X0085869Y0057503D01*
X0085869Y0057509D02*
X0079766Y0057509D01*
X0079766Y0057516D02*
X0085870Y0057516D01*
X0085870Y0057522D02*
X0079766Y0057522D01*
X0079766Y0057529D02*
X0085870Y0057529D01*
X0085870Y0057535D02*
X0079766Y0057535D01*
X0079766Y0057541D02*
X0085870Y0057541D01*
X0085870Y0057548D02*
X0079766Y0057548D01*
X0079766Y0057554D02*
X0085870Y0057554D01*
X0085870Y0057560D02*
X0079766Y0057560D01*
X0079766Y0057567D02*
X0085870Y0057567D01*
X0085870Y0057573D02*
X0079766Y0057573D01*
X0079766Y0057580D02*
X0085870Y0057580D01*
X0085870Y0057586D02*
X0079766Y0057586D01*
X0079766Y0057592D02*
X0085870Y0057592D01*
X0085870Y0057599D02*
X0079766Y0057599D01*
X0079766Y0057605D02*
X0085870Y0057605D01*
X0085870Y0057612D02*
X0079766Y0057612D01*
X0079766Y0057618D02*
X0085870Y0057618D01*
X0085870Y0057624D02*
X0079766Y0057624D01*
X0079766Y0057631D02*
X0085870Y0057631D01*
X0085870Y0057637D02*
X0079766Y0057637D01*
X0079766Y0057643D02*
X0085870Y0057643D01*
X0085870Y0057650D02*
X0079766Y0057650D01*
X0079766Y0057656D02*
X0085870Y0057656D01*
X0085870Y0057663D02*
X0079766Y0057663D01*
X0079766Y0057669D02*
X0085870Y0057669D01*
X0085870Y0057675D02*
X0079766Y0057675D01*
X0079766Y0057682D02*
X0085871Y0057682D01*
X0085871Y0057688D02*
X0079766Y0057688D01*
X0079766Y0057695D02*
X0085871Y0057695D01*
X0085871Y0057701D02*
X0079766Y0057701D01*
X0079766Y0057707D02*
X0085871Y0057707D01*
X0085871Y0057714D02*
X0079766Y0057714D01*
X0079766Y0057720D02*
X0085871Y0057720D01*
X0085871Y0057727D02*
X0079766Y0057727D01*
X0079766Y0057733D02*
X0085871Y0057733D01*
X0085871Y0057739D02*
X0079766Y0057739D01*
X0079766Y0057746D02*
X0085871Y0057746D01*
X0085871Y0057752D02*
X0079766Y0057752D01*
X0079766Y0057758D02*
X0085871Y0057758D01*
X0085871Y0057765D02*
X0079766Y0057765D01*
X0079766Y0057771D02*
X0085871Y0057771D01*
X0085871Y0057778D02*
X0079766Y0057778D01*
X0079766Y0057784D02*
X0085871Y0057784D01*
X0085871Y0057790D02*
X0079766Y0057790D01*
X0079766Y0057797D02*
X0085871Y0057797D01*
X0085871Y0057803D02*
X0079766Y0057803D01*
X0079766Y0057810D02*
X0085871Y0057810D01*
X0085871Y0057816D02*
X0079766Y0057816D01*
X0079766Y0057822D02*
X0085871Y0057822D01*
X0085871Y0057829D02*
X0079766Y0057829D01*
X0079766Y0057835D02*
X0085871Y0057835D01*
X0085871Y0057841D02*
X0079766Y0057841D01*
X0079766Y0057848D02*
X0085872Y0057848D01*
X0085872Y0057854D02*
X0079766Y0057854D01*
X0079766Y0057861D02*
X0085872Y0057861D01*
X0085872Y0057867D02*
X0079766Y0057867D01*
X0079766Y0057873D02*
X0085872Y0057873D01*
X0085872Y0057880D02*
X0079766Y0057880D01*
X0079766Y0057886D02*
X0085872Y0057886D01*
X0085872Y0057893D02*
X0079766Y0057893D01*
X0079766Y0057899D02*
X0085872Y0057899D01*
X0085872Y0057905D02*
X0079766Y0057905D01*
X0079766Y0057912D02*
X0085872Y0057912D01*
X0085872Y0057918D02*
X0079766Y0057918D01*
X0079766Y0057924D02*
X0085872Y0057924D01*
X0085872Y0057931D02*
X0079766Y0057931D01*
X0079766Y0057937D02*
X0085872Y0057937D01*
X0085872Y0057944D02*
X0079766Y0057944D01*
X0079766Y0057950D02*
X0085872Y0057950D01*
X0085872Y0057956D02*
X0079766Y0057956D01*
X0079766Y0057963D02*
X0085872Y0057963D01*
X0085872Y0057969D02*
X0079766Y0057969D01*
X0079766Y0057976D02*
X0085872Y0057976D01*
X0085872Y0057982D02*
X0079766Y0057982D01*
X0079766Y0057988D02*
X0085872Y0057988D01*
X0085872Y0057995D02*
X0079766Y0057995D01*
X0079766Y0058001D02*
X0085872Y0058001D01*
X0085872Y0058007D02*
X0079766Y0058007D01*
X0079766Y0058014D02*
X0085873Y0058014D01*
X0085873Y0058020D02*
X0079766Y0058020D01*
X0079766Y0058027D02*
X0085873Y0058027D01*
X0085873Y0058033D02*
X0079766Y0058033D01*
X0079766Y0058039D02*
X0085873Y0058039D01*
X0085873Y0058046D02*
X0079766Y0058046D01*
X0079766Y0058052D02*
X0085873Y0058052D01*
X0085873Y0058059D02*
X0079766Y0058059D01*
X0079766Y0058065D02*
X0085873Y0058065D01*
X0085873Y0058071D02*
X0079766Y0058071D01*
X0079766Y0058078D02*
X0085873Y0058078D01*
X0085873Y0058084D02*
X0079766Y0058084D01*
X0079766Y0058090D02*
X0085873Y0058090D01*
X0085873Y0058097D02*
X0079766Y0058097D01*
X0079766Y0058103D02*
X0085873Y0058103D01*
X0085873Y0058110D02*
X0079766Y0058110D01*
X0079766Y0058116D02*
X0085873Y0058116D01*
X0085873Y0058122D02*
X0079766Y0058122D01*
X0079766Y0058129D02*
X0081774Y0058129D01*
X0081774Y0058135D02*
X0079766Y0058135D01*
X0079766Y0058142D02*
X0081774Y0058142D01*
X0081774Y0058148D02*
X0079766Y0058148D01*
X0079766Y0058154D02*
X0081774Y0058154D01*
X0081774Y0058161D02*
X0079766Y0058161D01*
X0079766Y0058167D02*
X0081774Y0058167D01*
X0081774Y0058173D02*
X0079766Y0058173D01*
X0079766Y0058180D02*
X0081774Y0058180D01*
X0081774Y0058186D02*
X0079766Y0058186D01*
X0079766Y0058193D02*
X0081774Y0058193D01*
X0081774Y0058199D02*
X0079766Y0058199D01*
X0079766Y0058205D02*
X0081774Y0058205D01*
X0081774Y0058212D02*
X0079766Y0058212D01*
X0079766Y0058218D02*
X0081774Y0058218D01*
X0081774Y0058225D02*
X0079766Y0058225D01*
X0079766Y0058231D02*
X0081774Y0058231D01*
X0081774Y0058237D02*
X0079766Y0058237D01*
X0079766Y0058244D02*
X0081774Y0058244D01*
X0081774Y0058250D02*
X0079766Y0058250D01*
X0079766Y0058256D02*
X0081774Y0058256D01*
X0081774Y0058263D02*
X0079766Y0058263D01*
X0079766Y0058269D02*
X0081774Y0058269D01*
X0081774Y0058276D02*
X0079766Y0058276D01*
X0079766Y0058282D02*
X0081774Y0058282D01*
X0081774Y0058288D02*
X0079766Y0058288D01*
X0079766Y0058295D02*
X0081774Y0058295D01*
X0081774Y0058301D02*
X0079766Y0058301D01*
X0079766Y0058308D02*
X0081774Y0058308D01*
X0081774Y0058314D02*
X0079766Y0058314D01*
X0079766Y0058320D02*
X0081774Y0058320D01*
X0081774Y0058327D02*
X0079766Y0058327D01*
X0079766Y0058333D02*
X0081774Y0058333D01*
X0081774Y0058339D02*
X0079766Y0058339D01*
X0079766Y0058346D02*
X0081774Y0058346D01*
X0081774Y0058352D02*
X0079766Y0058352D01*
X0079766Y0058359D02*
X0081774Y0058359D01*
X0081774Y0058365D02*
X0079766Y0058365D01*
X0079766Y0058371D02*
X0081774Y0058371D01*
X0081774Y0058378D02*
X0079766Y0058378D01*
X0079766Y0058384D02*
X0081774Y0058384D01*
X0081774Y0058391D02*
X0079766Y0058391D01*
X0079766Y0058397D02*
X0081774Y0058397D01*
X0081774Y0058403D02*
X0079766Y0058403D01*
X0079766Y0058410D02*
X0081774Y0058410D01*
X0081774Y0058416D02*
X0079766Y0058416D01*
X0079766Y0058423D02*
X0081774Y0058423D01*
X0081774Y0058429D02*
X0079766Y0058429D01*
X0079766Y0058435D02*
X0081774Y0058435D01*
X0081774Y0058442D02*
X0079766Y0058442D01*
X0079766Y0058448D02*
X0081774Y0058448D01*
X0081774Y0058454D02*
X0079766Y0058454D01*
X0079766Y0058461D02*
X0081774Y0058461D01*
X0081774Y0058467D02*
X0079766Y0058467D01*
X0079766Y0058474D02*
X0081774Y0058474D01*
X0081774Y0058480D02*
X0079766Y0058480D01*
X0079766Y0058486D02*
X0081774Y0058486D01*
X0081774Y0058493D02*
X0079766Y0058493D01*
X0079766Y0058499D02*
X0081774Y0058499D01*
X0081774Y0058506D02*
X0079766Y0058506D01*
X0079766Y0058512D02*
X0081774Y0058512D01*
X0081774Y0058518D02*
X0079766Y0058518D01*
X0079766Y0058525D02*
X0081774Y0058525D01*
X0081774Y0058531D02*
X0079766Y0058531D01*
X0079766Y0058537D02*
X0081774Y0058537D01*
X0081774Y0058544D02*
X0079766Y0058544D01*
X0079766Y0058550D02*
X0081774Y0058550D01*
X0081774Y0058557D02*
X0079766Y0058557D01*
X0079766Y0058563D02*
X0081774Y0058563D01*
X0081774Y0058569D02*
X0079766Y0058569D01*
X0079766Y0058576D02*
X0081774Y0058576D01*
X0081774Y0058582D02*
X0079766Y0058582D01*
X0079766Y0058589D02*
X0081774Y0058589D01*
X0081774Y0058595D02*
X0079766Y0058595D01*
X0079766Y0058601D02*
X0081774Y0058601D01*
X0081774Y0058608D02*
X0079766Y0058608D01*
X0079766Y0058614D02*
X0081774Y0058614D01*
X0081774Y0058620D02*
X0079766Y0058620D01*
X0079766Y0058627D02*
X0081774Y0058627D01*
X0081774Y0058633D02*
X0079766Y0058633D01*
X0079766Y0058640D02*
X0081774Y0058640D01*
X0081774Y0058646D02*
X0079766Y0058646D01*
X0079766Y0058652D02*
X0081774Y0058652D01*
X0081774Y0058659D02*
X0079766Y0058659D01*
X0079766Y0058665D02*
X0081774Y0058665D01*
X0081774Y0058672D02*
X0079766Y0058672D01*
X0079766Y0058678D02*
X0081774Y0058678D01*
X0081774Y0058684D02*
X0079766Y0058684D01*
X0079766Y0058691D02*
X0081774Y0058691D01*
X0081774Y0058697D02*
X0079766Y0058697D01*
X0079766Y0058703D02*
X0081774Y0058703D01*
X0081774Y0058710D02*
X0079766Y0058710D01*
X0079766Y0058716D02*
X0081774Y0058716D01*
X0081774Y0058723D02*
X0079766Y0058723D01*
X0079766Y0058729D02*
X0081774Y0058729D01*
X0081774Y0058735D02*
X0079766Y0058735D01*
X0079766Y0058742D02*
X0081774Y0058742D01*
X0081774Y0058748D02*
X0079766Y0058748D01*
X0079766Y0058755D02*
X0081774Y0058755D01*
X0081774Y0058761D02*
X0079766Y0058761D01*
X0079766Y0058767D02*
X0081774Y0058767D01*
X0081774Y0058774D02*
X0079766Y0058774D01*
X0079766Y0058780D02*
X0081774Y0058780D01*
X0081774Y0058786D02*
X0079766Y0058786D01*
X0079766Y0058793D02*
X0081774Y0058793D01*
X0081774Y0058799D02*
X0079766Y0058799D01*
X0079766Y0058806D02*
X0081774Y0058806D01*
X0081774Y0058812D02*
X0079766Y0058812D01*
X0079766Y0058818D02*
X0081774Y0058818D01*
X0081774Y0058825D02*
X0079766Y0058825D01*
X0079766Y0058831D02*
X0081774Y0058831D01*
X0081774Y0058838D02*
X0079766Y0058838D01*
X0079766Y0058844D02*
X0081774Y0058844D01*
X0081774Y0058850D02*
X0079766Y0058850D01*
X0079766Y0058857D02*
X0081774Y0058857D01*
X0081774Y0058863D02*
X0079766Y0058863D01*
X0079766Y0058869D02*
X0081774Y0058869D01*
X0081774Y0058876D02*
X0079766Y0058876D01*
X0079766Y0058882D02*
X0081774Y0058882D01*
X0081774Y0058889D02*
X0079766Y0058889D01*
X0079766Y0058895D02*
X0081774Y0058895D01*
X0081774Y0058901D02*
X0079766Y0058901D01*
X0079766Y0058908D02*
X0081774Y0058908D01*
X0081774Y0058914D02*
X0079766Y0058914D01*
X0079766Y0058921D02*
X0081774Y0058921D01*
X0081774Y0058927D02*
X0079766Y0058927D01*
X0079766Y0058933D02*
X0081774Y0058933D01*
X0081774Y0058940D02*
X0079766Y0058940D01*
X0079766Y0058946D02*
X0081774Y0058946D01*
X0081774Y0058952D02*
X0079766Y0058952D01*
X0079766Y0058959D02*
X0081774Y0058959D01*
X0081774Y0058965D02*
X0079766Y0058965D01*
X0079766Y0058972D02*
X0081774Y0058972D01*
X0081774Y0058978D02*
X0079766Y0058978D01*
X0079766Y0058984D02*
X0081774Y0058984D01*
X0081774Y0058991D02*
X0079766Y0058991D01*
X0079766Y0058997D02*
X0081774Y0058997D01*
X0081774Y0059004D02*
X0079766Y0059004D01*
X0079766Y0059010D02*
X0081774Y0059010D01*
X0081774Y0059016D02*
X0079766Y0059016D01*
X0079766Y0059023D02*
X0081774Y0059023D01*
X0081774Y0059029D02*
X0079766Y0059029D01*
X0079766Y0059035D02*
X0081774Y0059035D01*
X0081774Y0059042D02*
X0079766Y0059042D01*
X0079766Y0059048D02*
X0081774Y0059048D01*
X0081774Y0059055D02*
X0079766Y0059055D01*
X0079766Y0059061D02*
X0081774Y0059061D01*
X0081774Y0059067D02*
X0079766Y0059067D01*
X0079766Y0059074D02*
X0081774Y0059074D01*
X0081774Y0059080D02*
X0079766Y0059080D01*
X0079766Y0059087D02*
X0081774Y0059087D01*
X0081774Y0059093D02*
X0079766Y0059093D01*
X0079766Y0059099D02*
X0081774Y0059099D01*
X0081774Y0059106D02*
X0079766Y0059106D01*
X0079766Y0059112D02*
X0081774Y0059112D01*
X0081774Y0059119D02*
X0079766Y0059119D01*
X0079766Y0059125D02*
X0081774Y0059125D01*
X0081774Y0059131D02*
X0079766Y0059131D01*
X0079766Y0059138D02*
X0081774Y0059138D01*
X0081774Y0059144D02*
X0079766Y0059144D01*
X0079766Y0059150D02*
X0081774Y0059150D01*
X0081774Y0059157D02*
X0079766Y0059157D01*
X0079766Y0059163D02*
X0081774Y0059163D01*
X0081774Y0059170D02*
X0079766Y0059170D01*
X0079766Y0059176D02*
X0081774Y0059176D01*
X0081774Y0059182D02*
X0079766Y0059182D01*
X0079766Y0059189D02*
X0081774Y0059189D01*
X0081774Y0059195D02*
X0079766Y0059195D01*
X0079766Y0059202D02*
X0081774Y0059202D01*
X0081774Y0059208D02*
X0079766Y0059208D01*
X0079766Y0059214D02*
X0081774Y0059214D01*
X0081774Y0059221D02*
X0079766Y0059221D01*
X0079766Y0059227D02*
X0081774Y0059227D01*
X0081774Y0059233D02*
X0079766Y0059233D01*
X0079766Y0059240D02*
X0081774Y0059240D01*
X0081774Y0059246D02*
X0079766Y0059246D01*
X0079766Y0059253D02*
X0081774Y0059253D01*
X0081774Y0059259D02*
X0079766Y0059259D01*
X0079766Y0059265D02*
X0081774Y0059265D01*
X0081774Y0059272D02*
X0079766Y0059272D01*
X0079766Y0059278D02*
X0081774Y0059278D01*
X0081774Y0059285D02*
X0079766Y0059285D01*
X0079766Y0059291D02*
X0081774Y0059291D01*
X0081774Y0059297D02*
X0079766Y0059297D01*
X0079766Y0059304D02*
X0081774Y0059304D01*
X0081774Y0059310D02*
X0079766Y0059310D01*
X0079766Y0059316D02*
X0081774Y0059316D01*
X0081774Y0059323D02*
X0079766Y0059323D01*
X0079766Y0059329D02*
X0081774Y0059329D01*
X0081774Y0059336D02*
X0079766Y0059336D01*
X0079766Y0059342D02*
X0081774Y0059342D01*
X0081774Y0059348D02*
X0079766Y0059348D01*
X0079766Y0059355D02*
X0081774Y0059355D01*
X0081774Y0059361D02*
X0079766Y0059361D01*
X0079766Y0059368D02*
X0081774Y0059368D01*
X0081774Y0059374D02*
X0079766Y0059374D01*
X0079766Y0059380D02*
X0081774Y0059380D01*
X0081774Y0059387D02*
X0079766Y0059387D01*
X0079766Y0059393D02*
X0081774Y0059393D01*
X0081774Y0059399D02*
X0079766Y0059399D01*
X0079766Y0059406D02*
X0081774Y0059406D01*
X0081774Y0059412D02*
X0079766Y0059412D01*
X0079766Y0059419D02*
X0081774Y0059419D01*
X0081774Y0059425D02*
X0079766Y0059425D01*
X0079766Y0059431D02*
X0081774Y0059431D01*
X0081774Y0059438D02*
X0079766Y0059438D01*
X0079766Y0059444D02*
X0081774Y0059444D01*
X0081774Y0059451D02*
X0079766Y0059451D01*
X0079766Y0059457D02*
X0081774Y0059457D01*
X0081774Y0059463D02*
X0079766Y0059463D01*
X0079766Y0059470D02*
X0081774Y0059470D01*
X0081774Y0059476D02*
X0079766Y0059476D01*
X0079766Y0059482D02*
X0081774Y0059482D01*
X0081774Y0059489D02*
X0079766Y0059489D01*
X0079766Y0059495D02*
X0081774Y0059495D01*
X0081774Y0059502D02*
X0079766Y0059502D01*
X0079766Y0059508D02*
X0081774Y0059508D01*
X0081774Y0059514D02*
X0079766Y0059514D01*
X0079766Y0059521D02*
X0081774Y0059521D01*
X0081774Y0059527D02*
X0079766Y0059527D01*
X0079766Y0059534D02*
X0081774Y0059534D01*
X0081774Y0059540D02*
X0079766Y0059540D01*
X0079766Y0059546D02*
X0081774Y0059546D01*
X0081774Y0059553D02*
X0079766Y0059553D01*
X0079766Y0059559D02*
X0081774Y0059559D01*
X0081774Y0059565D02*
X0079766Y0059565D01*
X0079766Y0059572D02*
X0081774Y0059572D01*
X0081774Y0059578D02*
X0079766Y0059578D01*
X0079766Y0059585D02*
X0081774Y0059585D01*
X0081774Y0059591D02*
X0079766Y0059591D01*
X0079766Y0059597D02*
X0081774Y0059597D01*
X0081774Y0059604D02*
X0079766Y0059604D01*
X0079766Y0059610D02*
X0081774Y0059610D01*
X0081774Y0059617D02*
X0079766Y0059617D01*
X0079766Y0059623D02*
X0081774Y0059623D01*
X0081774Y0059629D02*
X0079766Y0059629D01*
X0079766Y0059636D02*
X0081774Y0059636D01*
X0081774Y0059642D02*
X0079766Y0059642D01*
X0079766Y0059648D02*
X0081774Y0059648D01*
X0081774Y0059655D02*
X0079766Y0059655D01*
X0079766Y0059661D02*
X0081774Y0059661D01*
X0081774Y0059668D02*
X0079766Y0059668D01*
X0079766Y0059674D02*
X0081774Y0059674D01*
X0081774Y0059680D02*
X0079766Y0059680D01*
X0079766Y0059687D02*
X0081774Y0059687D01*
X0081774Y0059693D02*
X0079766Y0059693D01*
X0079766Y0059700D02*
X0081774Y0059700D01*
X0081774Y0059706D02*
X0079766Y0059706D01*
X0079766Y0059712D02*
X0081774Y0059712D01*
X0081774Y0059719D02*
X0079766Y0059719D01*
X0079766Y0059725D02*
X0081774Y0059725D01*
X0081774Y0059731D02*
X0079766Y0059731D01*
X0079766Y0059738D02*
X0081774Y0059738D01*
X0081774Y0059744D02*
X0079766Y0059744D01*
X0079766Y0059751D02*
X0081774Y0059751D01*
X0081774Y0059757D02*
X0079766Y0059757D01*
X0079766Y0059763D02*
X0081774Y0059763D01*
X0081774Y0059770D02*
X0079766Y0059770D01*
X0079766Y0059776D02*
X0081774Y0059776D01*
X0081774Y0059783D02*
X0079766Y0059783D01*
X0079766Y0059789D02*
X0081774Y0059789D01*
X0081774Y0059795D02*
X0079766Y0059795D01*
X0079766Y0059802D02*
X0081774Y0059802D01*
X0081774Y0059808D02*
X0079766Y0059808D01*
X0079766Y0059815D02*
X0081774Y0059815D01*
X0081774Y0059821D02*
X0079766Y0059821D01*
X0079766Y0059827D02*
X0081774Y0059827D01*
X0081774Y0059834D02*
X0079766Y0059834D01*
X0079766Y0059840D02*
X0081774Y0059840D01*
X0081774Y0059846D02*
X0079766Y0059846D01*
X0079766Y0059853D02*
X0081774Y0059853D01*
X0081774Y0059859D02*
X0079766Y0059859D01*
X0079766Y0059866D02*
X0081774Y0059866D01*
X0081774Y0059872D02*
X0079766Y0059872D01*
X0079766Y0059878D02*
X0081774Y0059878D01*
X0081774Y0059885D02*
X0079766Y0059885D01*
X0079766Y0059891D02*
X0081774Y0059891D01*
X0081774Y0059898D02*
X0079766Y0059898D01*
X0079766Y0059904D02*
X0081774Y0059904D01*
X0081774Y0059910D02*
X0079766Y0059910D01*
X0079766Y0059917D02*
X0081774Y0059917D01*
X0081774Y0059923D02*
X0079766Y0059923D01*
X0079766Y0059929D02*
X0081774Y0059929D01*
X0081774Y0059936D02*
X0079766Y0059936D01*
X0079766Y0059942D02*
X0081774Y0059942D01*
X0081774Y0059949D02*
X0079766Y0059949D01*
X0079766Y0059955D02*
X0081774Y0059955D01*
X0081774Y0059961D02*
X0079766Y0059961D01*
X0079766Y0059968D02*
X0081774Y0059968D01*
X0081774Y0059974D02*
X0079766Y0059974D01*
X0079766Y0059981D02*
X0081774Y0059981D01*
X0081774Y0059987D02*
X0079766Y0059987D01*
X0079766Y0059993D02*
X0081774Y0059993D01*
X0081774Y0060000D02*
X0079766Y0060000D01*
X0079766Y0060006D02*
X0081774Y0060006D01*
X0081774Y0060012D02*
X0079766Y0060012D01*
X0079766Y0060019D02*
X0081774Y0060019D01*
X0081774Y0060025D02*
X0079766Y0060025D01*
X0079766Y0060032D02*
X0081774Y0060032D01*
X0081774Y0060038D02*
X0079766Y0060038D01*
X0079766Y0060044D02*
X0081774Y0060044D01*
X0081774Y0060051D02*
X0079766Y0060051D01*
X0079766Y0060057D02*
X0081774Y0060057D01*
X0081774Y0060064D02*
X0079766Y0060064D01*
X0079766Y0060070D02*
X0081774Y0060070D01*
X0081774Y0060076D02*
X0079766Y0060076D01*
X0079766Y0060083D02*
X0081774Y0060083D01*
X0081774Y0060089D02*
X0079766Y0060089D01*
X0079766Y0060095D02*
X0081774Y0060095D01*
X0081774Y0060102D02*
X0079766Y0060102D01*
X0079766Y0060108D02*
X0081774Y0060108D01*
X0081774Y0060115D02*
X0079766Y0060115D01*
X0079766Y0060121D02*
X0081774Y0060121D01*
X0081774Y0060127D02*
X0079766Y0060127D01*
X0079766Y0060134D02*
X0081774Y0060134D01*
X0081774Y0060140D02*
X0079766Y0060140D01*
X0079766Y0060147D02*
X0081774Y0060147D01*
X0081774Y0060153D02*
X0079766Y0060153D01*
X0079766Y0060159D02*
X0081774Y0060159D01*
X0081774Y0060166D02*
X0079766Y0060166D01*
X0079766Y0060172D02*
X0081774Y0060172D01*
X0081774Y0060178D02*
X0079766Y0060178D01*
X0079766Y0060185D02*
X0081774Y0060185D01*
X0081774Y0060191D02*
X0079766Y0060191D01*
X0079766Y0060198D02*
X0081774Y0060198D01*
X0081774Y0060204D02*
X0079766Y0060204D01*
X0079766Y0060210D02*
X0081774Y0060210D01*
X0081774Y0060217D02*
X0079766Y0060217D01*
X0079766Y0060223D02*
X0081774Y0060223D01*
X0081774Y0060230D02*
X0079766Y0060230D01*
X0079766Y0060236D02*
X0081774Y0060236D01*
X0081774Y0060242D02*
X0079766Y0060242D01*
X0079766Y0060249D02*
X0081774Y0060249D01*
X0081774Y0060255D02*
X0079766Y0060255D01*
X0079766Y0060261D02*
X0081774Y0060261D01*
X0081774Y0060268D02*
X0079766Y0060268D01*
X0079766Y0060274D02*
X0081774Y0060274D01*
X0081774Y0060281D02*
X0079766Y0060281D01*
X0079766Y0060287D02*
X0081774Y0060287D01*
X0081774Y0060293D02*
X0079766Y0060293D01*
X0079766Y0060300D02*
X0081774Y0060300D01*
X0081774Y0060306D02*
X0079766Y0060306D01*
X0079766Y0060313D02*
X0081774Y0060313D01*
X0081774Y0060319D02*
X0079766Y0060319D01*
X0079766Y0060325D02*
X0081774Y0060325D01*
X0081774Y0060332D02*
X0079766Y0060332D01*
X0079766Y0060338D02*
X0081774Y0060338D01*
X0081774Y0060344D02*
X0079766Y0060344D01*
X0079766Y0060351D02*
X0081774Y0060351D01*
X0081774Y0060357D02*
X0079766Y0060357D01*
X0079766Y0060364D02*
X0081774Y0060364D01*
X0081774Y0060370D02*
X0079766Y0060370D01*
X0079766Y0060376D02*
X0081774Y0060376D01*
X0081774Y0060383D02*
X0079766Y0060383D01*
X0079766Y0060389D02*
X0081774Y0060389D01*
X0081774Y0060396D02*
X0079766Y0060396D01*
X0079766Y0060402D02*
X0081774Y0060402D01*
X0081774Y0060408D02*
X0079766Y0060408D01*
X0079766Y0060415D02*
X0081774Y0060415D01*
X0081774Y0060421D02*
X0079766Y0060421D01*
X0079766Y0060427D02*
X0081774Y0060427D01*
X0081774Y0060434D02*
X0079766Y0060434D01*
X0079766Y0060440D02*
X0081774Y0060440D01*
X0081774Y0060447D02*
X0079766Y0060447D01*
X0079766Y0060453D02*
X0082758Y0060453D01*
X0082758Y0060459D02*
X0079766Y0060459D01*
X0079766Y0060466D02*
X0082758Y0060466D01*
X0082758Y0060472D02*
X0079766Y0060472D01*
X0079766Y0060479D02*
X0082758Y0060479D01*
X0082758Y0060485D02*
X0079766Y0060485D01*
X0079766Y0060491D02*
X0082758Y0060491D01*
X0082758Y0060498D02*
X0079766Y0060498D01*
X0079766Y0060504D02*
X0082758Y0060504D01*
X0082758Y0060511D02*
X0079766Y0060511D01*
X0079766Y0060517D02*
X0082758Y0060517D01*
X0082758Y0060523D02*
X0079766Y0060523D01*
X0079766Y0060530D02*
X0082758Y0060530D01*
X0082758Y0060536D02*
X0079766Y0060536D01*
X0079766Y0060542D02*
X0082758Y0060542D01*
X0082758Y0060549D02*
X0079766Y0060549D01*
X0079766Y0060555D02*
X0082758Y0060555D01*
X0082758Y0060562D02*
X0079766Y0060562D01*
X0079766Y0060568D02*
X0082758Y0060568D01*
X0082758Y0060574D02*
X0079766Y0060574D01*
X0079766Y0060581D02*
X0082758Y0060581D01*
X0082758Y0060587D02*
X0079766Y0060587D01*
X0079766Y0060594D02*
X0082758Y0060594D01*
X0082758Y0060600D02*
X0079766Y0060600D01*
X0079766Y0060606D02*
X0082758Y0060606D01*
X0082758Y0060613D02*
X0079766Y0060613D01*
X0079766Y0060619D02*
X0082758Y0060619D01*
X0082758Y0060625D02*
X0079766Y0060625D01*
X0079766Y0060632D02*
X0082758Y0060632D01*
X0082758Y0060638D02*
X0079766Y0060638D01*
X0079766Y0060645D02*
X0082758Y0060645D01*
X0082758Y0060651D02*
X0079766Y0060651D01*
X0079766Y0060657D02*
X0082758Y0060657D01*
X0082758Y0060664D02*
X0079766Y0060664D01*
X0079766Y0060670D02*
X0082758Y0060670D01*
X0082758Y0060677D02*
X0079766Y0060677D01*
X0079766Y0060683D02*
X0082758Y0060683D01*
X0082758Y0060689D02*
X0079766Y0060689D01*
X0079766Y0060696D02*
X0082758Y0060696D01*
X0082758Y0060702D02*
X0079766Y0060702D01*
X0079766Y0060708D02*
X0082758Y0060708D01*
X0082758Y0060715D02*
X0079766Y0060715D01*
X0079766Y0060721D02*
X0082758Y0060721D01*
X0082758Y0060728D02*
X0079766Y0060728D01*
X0079766Y0060734D02*
X0082758Y0060734D01*
X0082758Y0060740D02*
X0079766Y0060740D01*
X0079766Y0060747D02*
X0082758Y0060747D01*
X0082758Y0060753D02*
X0079766Y0060753D01*
X0079766Y0060760D02*
X0082758Y0060760D01*
X0082758Y0060766D02*
X0079766Y0060766D01*
X0079766Y0060772D02*
X0082758Y0060772D01*
X0082758Y0060779D02*
X0079766Y0060779D01*
X0079766Y0060785D02*
X0082758Y0060785D01*
X0082758Y0060791D02*
X0079766Y0060791D01*
X0079766Y0060798D02*
X0082758Y0060798D01*
X0082758Y0060804D02*
X0079766Y0060804D01*
X0079766Y0060811D02*
X0082758Y0060811D01*
X0082758Y0060817D02*
X0079766Y0060817D01*
X0079766Y0060823D02*
X0082758Y0060823D01*
X0082758Y0060830D02*
X0079766Y0060830D01*
X0079766Y0060836D02*
X0082758Y0060836D01*
X0082758Y0060843D02*
X0079766Y0060843D01*
X0079766Y0060849D02*
X0082758Y0060849D01*
X0082758Y0060855D02*
X0079766Y0060855D01*
X0079766Y0060862D02*
X0082758Y0060862D01*
X0082758Y0060868D02*
X0079766Y0060868D01*
X0079766Y0060874D02*
X0082758Y0060874D01*
X0082758Y0060881D02*
X0079766Y0060881D01*
X0079766Y0060887D02*
X0082758Y0060887D01*
X0082758Y0060894D02*
X0079766Y0060894D01*
X0079766Y0060900D02*
X0082758Y0060900D01*
X0082758Y0060906D02*
X0079766Y0060906D01*
X0079766Y0060913D02*
X0082758Y0060913D01*
X0082758Y0060919D02*
X0079766Y0060919D01*
X0079766Y0060926D02*
X0082758Y0060926D01*
X0082758Y0060932D02*
X0079766Y0060932D01*
X0079766Y0060938D02*
X0082758Y0060938D01*
X0082758Y0060945D02*
X0079766Y0060945D01*
X0079766Y0060951D02*
X0082758Y0060951D01*
X0082758Y0060957D02*
X0079766Y0060957D01*
X0079766Y0060964D02*
X0082758Y0060964D01*
X0082758Y0060970D02*
X0079766Y0060970D01*
X0079766Y0060977D02*
X0082758Y0060977D01*
X0082758Y0060983D02*
X0079766Y0060983D01*
X0079766Y0060989D02*
X0082758Y0060989D01*
X0082758Y0060996D02*
X0079766Y0060996D01*
X0079766Y0061002D02*
X0082758Y0061002D01*
X0082758Y0061009D02*
X0079766Y0061009D01*
X0079766Y0061015D02*
X0082758Y0061015D01*
X0082758Y0061021D02*
X0079766Y0061021D01*
X0079766Y0061028D02*
X0082758Y0061028D01*
X0082758Y0061034D02*
X0079766Y0061034D01*
X0079766Y0061040D02*
X0082758Y0061040D01*
X0082758Y0061047D02*
X0079766Y0061047D01*
X0079766Y0061053D02*
X0082758Y0061053D01*
X0082758Y0061060D02*
X0079766Y0061060D01*
X0079766Y0061066D02*
X0082758Y0061066D01*
X0082758Y0061072D02*
X0079766Y0061072D01*
X0079766Y0061079D02*
X0082758Y0061079D01*
X0082758Y0061085D02*
X0079766Y0061085D01*
X0079766Y0061092D02*
X0082758Y0061092D01*
X0082758Y0061098D02*
X0079766Y0061098D01*
X0079766Y0061104D02*
X0082758Y0061104D01*
X0082758Y0061111D02*
X0079766Y0061111D01*
X0079773Y0061117D02*
X0082758Y0061117D01*
X0082758Y0061123D02*
X0079779Y0061123D01*
X0079786Y0061130D02*
X0082758Y0061130D01*
X0082758Y0061136D02*
X0079792Y0061136D01*
X0079799Y0061143D02*
X0082758Y0061143D01*
X0082758Y0061149D02*
X0079806Y0061149D01*
X0079812Y0061155D02*
X0082758Y0061155D01*
X0082758Y0061162D02*
X0079819Y0061162D01*
X0079825Y0061168D02*
X0082758Y0061168D01*
X0082758Y0061175D02*
X0079832Y0061175D01*
X0079838Y0061181D02*
X0082758Y0061181D01*
X0082758Y0061187D02*
X0079845Y0061187D01*
X0079851Y0061194D02*
X0082758Y0061194D01*
X0082758Y0061200D02*
X0079858Y0061200D01*
X0079865Y0061207D02*
X0082758Y0061207D01*
X0082758Y0061213D02*
X0079871Y0061213D01*
X0079878Y0061219D02*
X0082758Y0061219D01*
X0082758Y0061226D02*
X0079884Y0061226D01*
X0079891Y0061232D02*
X0082758Y0061232D01*
X0082758Y0061238D02*
X0079897Y0061238D01*
X0079904Y0061245D02*
X0082758Y0061245D01*
X0082758Y0061251D02*
X0079910Y0061251D01*
X0079917Y0061258D02*
X0082758Y0061258D01*
X0082758Y0061264D02*
X0079923Y0061264D01*
X0079930Y0061270D02*
X0082758Y0061270D01*
X0082758Y0061277D02*
X0079937Y0061277D01*
X0079943Y0061283D02*
X0082758Y0061283D01*
X0082758Y0061290D02*
X0079950Y0061290D01*
X0079956Y0061296D02*
X0082758Y0061296D01*
X0082758Y0061302D02*
X0079963Y0061302D01*
X0079969Y0061309D02*
X0082758Y0061309D01*
X0082758Y0061315D02*
X0079976Y0061315D01*
X0079982Y0061321D02*
X0082758Y0061321D01*
X0082758Y0061328D02*
X0079989Y0061328D01*
X0079996Y0061334D02*
X0082758Y0061334D01*
X0082758Y0061341D02*
X0080002Y0061341D01*
X0080009Y0061347D02*
X0082758Y0061347D01*
X0082758Y0061353D02*
X0080015Y0061353D01*
X0080022Y0061360D02*
X0082758Y0061360D01*
X0082758Y0061366D02*
X0080028Y0061366D01*
X0080035Y0061373D02*
X0082758Y0061373D01*
X0082758Y0061379D02*
X0080041Y0061379D01*
X0080048Y0061385D02*
X0082758Y0061385D01*
X0082758Y0061392D02*
X0080054Y0061392D01*
X0080061Y0061398D02*
X0082758Y0061398D01*
X0082758Y0061404D02*
X0080068Y0061404D01*
X0080074Y0061411D02*
X0082758Y0061411D01*
X0082758Y0061417D02*
X0080081Y0061417D01*
X0080087Y0061424D02*
X0082758Y0061424D01*
X0082758Y0061430D02*
X0080094Y0061430D01*
X0080100Y0061436D02*
X0082758Y0061436D01*
X0082758Y0061443D02*
X0080107Y0061443D01*
X0080113Y0061449D02*
X0082758Y0061449D01*
X0082758Y0061456D02*
X0080120Y0061456D01*
X0080126Y0061462D02*
X0082758Y0061462D01*
X0082758Y0061468D02*
X0080133Y0061468D01*
X0080140Y0061475D02*
X0082758Y0061475D01*
X0082758Y0061481D02*
X0080146Y0061481D01*
X0080153Y0061487D02*
X0082758Y0061487D01*
X0082758Y0061494D02*
X0080159Y0061494D01*
X0080166Y0061500D02*
X0082758Y0061500D01*
X0082758Y0061507D02*
X0080172Y0061507D01*
X0080179Y0061513D02*
X0082758Y0061513D01*
X0082758Y0061519D02*
X0080185Y0061519D01*
X0080192Y0061526D02*
X0082758Y0061526D01*
X0082758Y0061532D02*
X0080199Y0061532D01*
X0080205Y0061539D02*
X0082758Y0061539D01*
X0082758Y0061545D02*
X0080212Y0061545D01*
X0080218Y0061551D02*
X0082758Y0061551D01*
X0082758Y0061558D02*
X0080225Y0061558D01*
X0080231Y0061564D02*
X0082758Y0061564D01*
X0082758Y0061570D02*
X0080238Y0061570D01*
X0080244Y0061577D02*
X0082758Y0061577D01*
X0082758Y0061583D02*
X0080251Y0061583D01*
X0080257Y0061590D02*
X0082758Y0061590D01*
X0082758Y0061596D02*
X0080264Y0061596D01*
X0080271Y0061602D02*
X0082758Y0061602D01*
X0082758Y0061609D02*
X0080277Y0061609D01*
X0080284Y0061615D02*
X0082758Y0061615D01*
X0082758Y0061622D02*
X0080290Y0061622D01*
X0080297Y0061628D02*
X0082758Y0061628D01*
X0082758Y0061634D02*
X0080303Y0061634D01*
X0080310Y0061641D02*
X0082758Y0061641D01*
X0082758Y0061647D02*
X0080316Y0061647D01*
X0080323Y0061653D02*
X0082758Y0061653D01*
X0082758Y0061660D02*
X0080330Y0061660D01*
X0080336Y0061666D02*
X0082758Y0061666D01*
X0082758Y0061673D02*
X0080343Y0061673D01*
X0080349Y0061679D02*
X0082758Y0061679D01*
X0082758Y0061685D02*
X0080356Y0061685D01*
X0080362Y0061692D02*
X0082758Y0061692D01*
X0082758Y0061698D02*
X0080369Y0061698D01*
X0080375Y0061705D02*
X0082758Y0061705D01*
X0082758Y0061711D02*
X0080382Y0061711D01*
X0080388Y0061717D02*
X0082758Y0061717D01*
X0082758Y0061724D02*
X0080395Y0061724D01*
X0080402Y0061730D02*
X0082758Y0061730D01*
X0082758Y0061736D02*
X0080408Y0061736D01*
X0080415Y0061743D02*
X0082758Y0061743D01*
X0082758Y0061749D02*
X0080421Y0061749D01*
X0080428Y0061756D02*
X0082758Y0061756D01*
X0082758Y0061762D02*
X0080434Y0061762D01*
X0080441Y0061768D02*
X0082758Y0061768D01*
X0082758Y0061775D02*
X0080447Y0061775D01*
X0080454Y0061781D02*
X0082758Y0061781D01*
X0082758Y0061788D02*
X0080460Y0061788D01*
X0080467Y0061794D02*
X0082758Y0061794D01*
X0082758Y0061800D02*
X0080474Y0061800D01*
X0080480Y0061807D02*
X0082758Y0061807D01*
X0082758Y0061813D02*
X0080487Y0061813D01*
X0080493Y0061820D02*
X0082758Y0061820D01*
X0082758Y0061826D02*
X0080500Y0061826D01*
X0080506Y0061832D02*
X0082758Y0061832D01*
X0082758Y0061839D02*
X0080513Y0061839D01*
X0080519Y0061845D02*
X0082758Y0061845D01*
X0082758Y0061851D02*
X0080526Y0061851D01*
X0080533Y0061858D02*
X0082758Y0061858D01*
X0082758Y0061864D02*
X0080539Y0061864D01*
X0080546Y0061871D02*
X0082758Y0061871D01*
X0082758Y0061877D02*
X0080552Y0061877D01*
X0080559Y0061883D02*
X0082758Y0061883D01*
X0082758Y0061890D02*
X0080565Y0061890D01*
X0080572Y0061896D02*
X0082758Y0061896D01*
X0082758Y0061903D02*
X0080578Y0061903D01*
X0080585Y0061909D02*
X0082758Y0061909D01*
X0082758Y0061915D02*
X0080591Y0061915D01*
X0080598Y0061922D02*
X0082758Y0061922D01*
X0082758Y0061928D02*
X0080605Y0061928D01*
X0080611Y0061934D02*
X0082758Y0061934D01*
X0082758Y0061941D02*
X0080618Y0061941D01*
X0080624Y0061947D02*
X0082758Y0061947D01*
X0082758Y0061954D02*
X0080631Y0061954D01*
X0080637Y0061960D02*
X0082758Y0061960D01*
X0082758Y0061966D02*
X0080644Y0061966D01*
X0080650Y0061973D02*
X0082758Y0061973D01*
X0082758Y0061979D02*
X0080657Y0061979D01*
X0080663Y0061986D02*
X0082758Y0061986D01*
X0082758Y0061992D02*
X0080670Y0061992D01*
X0080677Y0061998D02*
X0082758Y0061998D01*
X0082758Y0062005D02*
X0080683Y0062005D01*
X0080690Y0062011D02*
X0082758Y0062011D01*
X0082758Y0062017D02*
X0080696Y0062017D01*
X0080703Y0062024D02*
X0082758Y0062024D01*
X0082758Y0062030D02*
X0080709Y0062030D01*
X0080716Y0062037D02*
X0082758Y0062037D01*
X0082758Y0062043D02*
X0080722Y0062043D01*
X0080729Y0062049D02*
X0082758Y0062049D01*
X0082758Y0062056D02*
X0080736Y0062056D01*
X0080742Y0062062D02*
X0082758Y0062062D01*
X0082758Y0062069D02*
X0080749Y0062069D01*
X0080755Y0062075D02*
X0082758Y0062075D01*
X0082758Y0062081D02*
X0080762Y0062081D01*
X0080768Y0062088D02*
X0082758Y0062088D01*
X0082758Y0062094D02*
X0080775Y0062094D01*
X0080781Y0062100D02*
X0082758Y0062100D01*
X0082758Y0062107D02*
X0080788Y0062107D01*
X0080794Y0062113D02*
X0082758Y0062113D01*
X0082758Y0062120D02*
X0080801Y0062120D01*
X0080808Y0062126D02*
X0082758Y0062126D01*
X0082758Y0062132D02*
X0080814Y0062132D01*
X0080821Y0062139D02*
X0082758Y0062139D01*
X0082758Y0062145D02*
X0080827Y0062145D01*
X0080834Y0062152D02*
X0082758Y0062152D01*
X0082758Y0062158D02*
X0080840Y0062158D01*
X0080847Y0062164D02*
X0082758Y0062164D01*
X0082758Y0062171D02*
X0080853Y0062171D01*
X0080860Y0062177D02*
X0082758Y0062177D01*
X0082758Y0062183D02*
X0080867Y0062183D01*
X0080873Y0062190D02*
X0082758Y0062190D01*
X0082758Y0062196D02*
X0080880Y0062196D01*
X0080886Y0062203D02*
X0082758Y0062203D01*
X0082758Y0062209D02*
X0080893Y0062209D01*
X0080899Y0062215D02*
X0082758Y0062215D01*
X0082758Y0062222D02*
X0080906Y0062222D01*
X0080912Y0062228D02*
X0082758Y0062228D01*
X0082758Y0062235D02*
X0080919Y0062235D01*
X0080925Y0062241D02*
X0082758Y0062241D01*
X0082758Y0062247D02*
X0080932Y0062247D01*
X0080939Y0062254D02*
X0082758Y0062254D01*
X0082758Y0062260D02*
X0080945Y0062260D01*
X0080952Y0062266D02*
X0082758Y0062266D01*
X0082758Y0062273D02*
X0080958Y0062273D01*
X0080965Y0062279D02*
X0082758Y0062279D01*
X0082758Y0062286D02*
X0080971Y0062286D01*
X0080978Y0062292D02*
X0082758Y0062292D01*
X0082758Y0062298D02*
X0080984Y0062298D01*
X0080991Y0062305D02*
X0082758Y0062305D01*
X0082758Y0062311D02*
X0080998Y0062311D01*
X0081004Y0062318D02*
X0082758Y0062318D01*
X0082758Y0062324D02*
X0081011Y0062324D01*
X0081017Y0062330D02*
X0082758Y0062330D01*
X0082758Y0062337D02*
X0081024Y0062337D01*
X0081030Y0062343D02*
X0082758Y0062343D01*
X0082758Y0062349D02*
X0081037Y0062349D01*
X0081043Y0062356D02*
X0082758Y0062356D01*
X0082758Y0062362D02*
X0081050Y0062362D01*
X0081056Y0062369D02*
X0082758Y0062369D01*
X0082758Y0062375D02*
X0081063Y0062375D01*
X0081070Y0062381D02*
X0082758Y0062381D01*
X0082758Y0062388D02*
X0081076Y0062388D01*
X0081083Y0062394D02*
X0082758Y0062394D01*
X0082758Y0062401D02*
X0081089Y0062401D01*
X0081096Y0062407D02*
X0082758Y0062407D01*
X0082758Y0062413D02*
X0081102Y0062413D01*
X0083939Y0060549D02*
X0085888Y0060549D01*
X0085888Y0060542D02*
X0083939Y0060542D01*
X0083939Y0060536D02*
X0085888Y0060536D01*
X0085888Y0060530D02*
X0083939Y0060530D01*
X0083939Y0060523D02*
X0085888Y0060523D01*
X0085888Y0060517D02*
X0083939Y0060517D01*
X0083939Y0060511D02*
X0085888Y0060511D01*
X0085887Y0060504D02*
X0083939Y0060504D01*
X0083939Y0060498D02*
X0085887Y0060498D01*
X0085887Y0060491D02*
X0083939Y0060491D01*
X0083939Y0060485D02*
X0085887Y0060485D01*
X0085887Y0060479D02*
X0083939Y0060479D01*
X0083939Y0060472D02*
X0085887Y0060472D01*
X0085887Y0060466D02*
X0083939Y0060466D01*
X0083939Y0060459D02*
X0085887Y0060459D01*
X0085887Y0060453D02*
X0083939Y0060453D01*
X0083939Y0060447D02*
X0085887Y0060447D01*
X0085887Y0060440D02*
X0083939Y0060440D01*
X0083939Y0060434D02*
X0085887Y0060434D01*
X0085887Y0060427D02*
X0083939Y0060427D01*
X0083939Y0060421D02*
X0085887Y0060421D01*
X0085887Y0060415D02*
X0083939Y0060415D01*
X0083939Y0060408D02*
X0085887Y0060408D01*
X0085887Y0060402D02*
X0083939Y0060402D01*
X0083939Y0060396D02*
X0085887Y0060396D01*
X0085887Y0060389D02*
X0083939Y0060389D01*
X0083939Y0060383D02*
X0085887Y0060383D01*
X0085887Y0060376D02*
X0083939Y0060376D01*
X0083939Y0060370D02*
X0085887Y0060370D01*
X0085887Y0060364D02*
X0083939Y0060364D01*
X0083939Y0060357D02*
X0085887Y0060357D01*
X0085887Y0060351D02*
X0083939Y0060351D01*
X0083939Y0060344D02*
X0085887Y0060344D01*
X0085886Y0060338D02*
X0083939Y0060338D01*
X0083939Y0060332D02*
X0085886Y0060332D01*
X0085886Y0060325D02*
X0083939Y0060325D01*
X0083939Y0060319D02*
X0085886Y0060319D01*
X0085886Y0060313D02*
X0083939Y0060313D01*
X0083939Y0060306D02*
X0085886Y0060306D01*
X0085886Y0060300D02*
X0083939Y0060300D01*
X0083939Y0060293D02*
X0085886Y0060293D01*
X0085886Y0060287D02*
X0083939Y0060287D01*
X0083939Y0060281D02*
X0085886Y0060281D01*
X0085886Y0060274D02*
X0083939Y0060274D01*
X0083939Y0060268D02*
X0085886Y0060268D01*
X0085886Y0060261D02*
X0083939Y0060261D01*
X0083939Y0060255D02*
X0085886Y0060255D01*
X0085886Y0060249D02*
X0083939Y0060249D01*
X0083939Y0060242D02*
X0085886Y0060242D01*
X0085886Y0060236D02*
X0083939Y0060236D01*
X0083939Y0060230D02*
X0085886Y0060230D01*
X0085886Y0060223D02*
X0083939Y0060223D01*
X0083939Y0060217D02*
X0085886Y0060217D01*
X0085886Y0060210D02*
X0083939Y0060210D01*
X0083939Y0060204D02*
X0085886Y0060204D01*
X0085886Y0060198D02*
X0083939Y0060198D01*
X0083939Y0060191D02*
X0085886Y0060191D01*
X0085886Y0060185D02*
X0083939Y0060185D01*
X0083939Y0060178D02*
X0085886Y0060178D01*
X0085885Y0060172D02*
X0083939Y0060172D01*
X0083939Y0060166D02*
X0085885Y0060166D01*
X0085885Y0060159D02*
X0083939Y0060159D01*
X0083939Y0060153D02*
X0085885Y0060153D01*
X0085885Y0060147D02*
X0083939Y0060147D01*
X0083939Y0060140D02*
X0085885Y0060140D01*
X0085885Y0060134D02*
X0083939Y0060134D01*
X0083939Y0060127D02*
X0085885Y0060127D01*
X0085885Y0060121D02*
X0083939Y0060121D01*
X0083939Y0060115D02*
X0085885Y0060115D01*
X0085885Y0060108D02*
X0083939Y0060108D01*
X0083939Y0060102D02*
X0085885Y0060102D01*
X0085885Y0060095D02*
X0083939Y0060095D01*
X0083939Y0060089D02*
X0085885Y0060089D01*
X0085885Y0060083D02*
X0083939Y0060083D01*
X0083939Y0060076D02*
X0085885Y0060076D01*
X0085885Y0060070D02*
X0083939Y0060070D01*
X0083939Y0060064D02*
X0085885Y0060064D01*
X0085885Y0060057D02*
X0083939Y0060057D01*
X0083939Y0060051D02*
X0085885Y0060051D01*
X0085885Y0060044D02*
X0083939Y0060044D01*
X0083939Y0060038D02*
X0085885Y0060038D01*
X0085885Y0060032D02*
X0083939Y0060032D01*
X0083939Y0060025D02*
X0085885Y0060025D01*
X0085885Y0060019D02*
X0083939Y0060019D01*
X0083939Y0060012D02*
X0085885Y0060012D01*
X0085884Y0060006D02*
X0083939Y0060006D01*
X0083939Y0060000D02*
X0085884Y0060000D01*
X0085884Y0059993D02*
X0083939Y0059993D01*
X0083939Y0059987D02*
X0085884Y0059987D01*
X0085884Y0059981D02*
X0083939Y0059981D01*
X0083939Y0059974D02*
X0085884Y0059974D01*
X0085884Y0059968D02*
X0083939Y0059968D01*
X0083939Y0059961D02*
X0085884Y0059961D01*
X0085884Y0059955D02*
X0083939Y0059955D01*
X0083939Y0059949D02*
X0085884Y0059949D01*
X0085884Y0059942D02*
X0083939Y0059942D01*
X0083939Y0059936D02*
X0085884Y0059936D01*
X0085884Y0059929D02*
X0083939Y0059929D01*
X0083939Y0059923D02*
X0085884Y0059923D01*
X0085884Y0059917D02*
X0083939Y0059917D01*
X0083939Y0059910D02*
X0085884Y0059910D01*
X0085884Y0059904D02*
X0083939Y0059904D01*
X0083939Y0059898D02*
X0085884Y0059898D01*
X0085884Y0059891D02*
X0083939Y0059891D01*
X0083939Y0059885D02*
X0085884Y0059885D01*
X0085884Y0059878D02*
X0083939Y0059878D01*
X0083939Y0059872D02*
X0085884Y0059872D01*
X0085884Y0059866D02*
X0083939Y0059866D01*
X0083939Y0059859D02*
X0085884Y0059859D01*
X0085884Y0059853D02*
X0083939Y0059853D01*
X0083939Y0059846D02*
X0085884Y0059846D01*
X0085883Y0059840D02*
X0083939Y0059840D01*
X0083939Y0059834D02*
X0085883Y0059834D01*
X0085883Y0059827D02*
X0083939Y0059827D01*
X0083939Y0059821D02*
X0085883Y0059821D01*
X0085883Y0059815D02*
X0083939Y0059815D01*
X0083939Y0059808D02*
X0085883Y0059808D01*
X0085883Y0059802D02*
X0083939Y0059802D01*
X0083939Y0059795D02*
X0085883Y0059795D01*
X0085883Y0059789D02*
X0083939Y0059789D01*
X0083939Y0059783D02*
X0085883Y0059783D01*
X0085883Y0059776D02*
X0083939Y0059776D01*
X0083939Y0059770D02*
X0085883Y0059770D01*
X0085883Y0059763D02*
X0083939Y0059763D01*
X0083939Y0059757D02*
X0085883Y0059757D01*
X0085883Y0059751D02*
X0083939Y0059751D01*
X0083939Y0059744D02*
X0085883Y0059744D01*
X0085883Y0059738D02*
X0083939Y0059738D01*
X0083939Y0059731D02*
X0085883Y0059731D01*
X0085883Y0059725D02*
X0083939Y0059725D01*
X0083939Y0059719D02*
X0085883Y0059719D01*
X0085883Y0059712D02*
X0083939Y0059712D01*
X0083939Y0059706D02*
X0085883Y0059706D01*
X0085883Y0059700D02*
X0083939Y0059700D01*
X0083939Y0059693D02*
X0085883Y0059693D01*
X0085883Y0059687D02*
X0083939Y0059687D01*
X0083939Y0059680D02*
X0085883Y0059680D01*
X0085882Y0059674D02*
X0083939Y0059674D01*
X0083939Y0059668D02*
X0085882Y0059668D01*
X0085882Y0059661D02*
X0083939Y0059661D01*
X0083939Y0059655D02*
X0085882Y0059655D01*
X0085882Y0059648D02*
X0083939Y0059648D01*
X0083939Y0059642D02*
X0085882Y0059642D01*
X0085882Y0059636D02*
X0083939Y0059636D01*
X0083939Y0059629D02*
X0085882Y0059629D01*
X0085882Y0059623D02*
X0083939Y0059623D01*
X0083939Y0059617D02*
X0085882Y0059617D01*
X0085882Y0059610D02*
X0083939Y0059610D01*
X0083939Y0059604D02*
X0085882Y0059604D01*
X0085882Y0059597D02*
X0083939Y0059597D01*
X0083939Y0059591D02*
X0085882Y0059591D01*
X0085882Y0059585D02*
X0083939Y0059585D01*
X0083939Y0059578D02*
X0085882Y0059578D01*
X0085882Y0059572D02*
X0083939Y0059572D01*
X0083939Y0059565D02*
X0085882Y0059565D01*
X0085882Y0059559D02*
X0083939Y0059559D01*
X0083939Y0059553D02*
X0085882Y0059553D01*
X0085882Y0059546D02*
X0083939Y0059546D01*
X0083939Y0059540D02*
X0085882Y0059540D01*
X0085882Y0059534D02*
X0083939Y0059534D01*
X0083939Y0059527D02*
X0085882Y0059527D01*
X0085882Y0059521D02*
X0083939Y0059521D01*
X0083939Y0059514D02*
X0085882Y0059514D01*
X0085881Y0059508D02*
X0083939Y0059508D01*
X0083939Y0059502D02*
X0085881Y0059502D01*
X0085881Y0059495D02*
X0083939Y0059495D01*
X0083939Y0059489D02*
X0085881Y0059489D01*
X0085881Y0059482D02*
X0083939Y0059482D01*
X0083939Y0059476D02*
X0085881Y0059476D01*
X0085881Y0059470D02*
X0083939Y0059470D01*
X0083939Y0059463D02*
X0085881Y0059463D01*
X0085881Y0059457D02*
X0083939Y0059457D01*
X0083939Y0059451D02*
X0085881Y0059451D01*
X0085881Y0059444D02*
X0083939Y0059444D01*
X0083939Y0059438D02*
X0085881Y0059438D01*
X0085881Y0059431D02*
X0083939Y0059431D01*
X0083939Y0059425D02*
X0085881Y0059425D01*
X0085881Y0059419D02*
X0083939Y0059419D01*
X0083939Y0059412D02*
X0085881Y0059412D01*
X0085881Y0059406D02*
X0083939Y0059406D01*
X0083939Y0059399D02*
X0085881Y0059399D01*
X0085881Y0059393D02*
X0083939Y0059393D01*
X0083939Y0059387D02*
X0085881Y0059387D01*
X0085881Y0059380D02*
X0083939Y0059380D01*
X0083939Y0059374D02*
X0085881Y0059374D01*
X0085881Y0059368D02*
X0083939Y0059368D01*
X0083939Y0059361D02*
X0085881Y0059361D01*
X0085881Y0059355D02*
X0083939Y0059355D01*
X0083939Y0059348D02*
X0085881Y0059348D01*
X0085880Y0059342D02*
X0083939Y0059342D01*
X0083939Y0059336D02*
X0085880Y0059336D01*
X0085880Y0059329D02*
X0083939Y0059329D01*
X0083939Y0059323D02*
X0085880Y0059323D01*
X0085880Y0059316D02*
X0083939Y0059316D01*
X0083939Y0059310D02*
X0085880Y0059310D01*
X0085880Y0059304D02*
X0083939Y0059304D01*
X0083939Y0059297D02*
X0085880Y0059297D01*
X0085880Y0059291D02*
X0083939Y0059291D01*
X0083939Y0059285D02*
X0085880Y0059285D01*
X0085880Y0059278D02*
X0083939Y0059278D01*
X0083939Y0059272D02*
X0085880Y0059272D01*
X0085880Y0059265D02*
X0083939Y0059265D01*
X0083939Y0059259D02*
X0085880Y0059259D01*
X0085880Y0059253D02*
X0083939Y0059253D01*
X0083939Y0059246D02*
X0085880Y0059246D01*
X0085880Y0059240D02*
X0083939Y0059240D01*
X0083939Y0059233D02*
X0085880Y0059233D01*
X0085880Y0059227D02*
X0083939Y0059227D01*
X0083939Y0059221D02*
X0085880Y0059221D01*
X0085880Y0059214D02*
X0083939Y0059214D01*
X0083939Y0059208D02*
X0085880Y0059208D01*
X0085880Y0059202D02*
X0083939Y0059202D01*
X0083939Y0059195D02*
X0085880Y0059195D01*
X0085880Y0059189D02*
X0083939Y0059189D01*
X0083939Y0059182D02*
X0085880Y0059182D01*
X0085879Y0059176D02*
X0083939Y0059176D01*
X0083939Y0059170D02*
X0085879Y0059170D01*
X0085879Y0059163D02*
X0083939Y0059163D01*
X0083939Y0059157D02*
X0085879Y0059157D01*
X0085879Y0059150D02*
X0083939Y0059150D01*
X0083939Y0059144D02*
X0085879Y0059144D01*
X0085879Y0059138D02*
X0083939Y0059138D01*
X0083939Y0059131D02*
X0085879Y0059131D01*
X0085879Y0059125D02*
X0083939Y0059125D01*
X0083939Y0059119D02*
X0085879Y0059119D01*
X0085879Y0059112D02*
X0083939Y0059112D01*
X0083939Y0059106D02*
X0085879Y0059106D01*
X0085879Y0059099D02*
X0083939Y0059099D01*
X0083939Y0059093D02*
X0085879Y0059093D01*
X0085879Y0059087D02*
X0083939Y0059087D01*
X0083939Y0059080D02*
X0085879Y0059080D01*
X0085879Y0059074D02*
X0083939Y0059074D01*
X0083939Y0059067D02*
X0085879Y0059067D01*
X0085879Y0059061D02*
X0083939Y0059061D01*
X0083939Y0059055D02*
X0085879Y0059055D01*
X0085879Y0059048D02*
X0083939Y0059048D01*
X0083939Y0059042D02*
X0085879Y0059042D01*
X0085879Y0059035D02*
X0083939Y0059035D01*
X0083939Y0059029D02*
X0085879Y0059029D01*
X0085879Y0059023D02*
X0083939Y0059023D01*
X0083939Y0059016D02*
X0085879Y0059016D01*
X0085878Y0059010D02*
X0083939Y0059010D01*
X0083939Y0059004D02*
X0085878Y0059004D01*
X0085878Y0058997D02*
X0083939Y0058997D01*
X0083939Y0058991D02*
X0085878Y0058991D01*
X0085878Y0058984D02*
X0083939Y0058984D01*
X0083939Y0058978D02*
X0085878Y0058978D01*
X0085878Y0058972D02*
X0083939Y0058972D01*
X0083939Y0058965D02*
X0085878Y0058965D01*
X0085878Y0058959D02*
X0083939Y0058959D01*
X0083939Y0058952D02*
X0085878Y0058952D01*
X0085878Y0058946D02*
X0083939Y0058946D01*
X0083939Y0058940D02*
X0085878Y0058940D01*
X0085878Y0058933D02*
X0083939Y0058933D01*
X0083939Y0058927D02*
X0085878Y0058927D01*
X0085878Y0058921D02*
X0083939Y0058921D01*
X0083939Y0058914D02*
X0085878Y0058914D01*
X0085878Y0058908D02*
X0083939Y0058908D01*
X0083939Y0058901D02*
X0085878Y0058901D01*
X0085878Y0058895D02*
X0083939Y0058895D01*
X0083939Y0058889D02*
X0085878Y0058889D01*
X0085878Y0058882D02*
X0083939Y0058882D01*
X0083939Y0058876D02*
X0085878Y0058876D01*
X0085878Y0058869D02*
X0083939Y0058869D01*
X0083939Y0058863D02*
X0085878Y0058863D01*
X0085878Y0058857D02*
X0083939Y0058857D01*
X0083939Y0058850D02*
X0085878Y0058850D01*
X0085877Y0058844D02*
X0083939Y0058844D01*
X0083939Y0058838D02*
X0085877Y0058838D01*
X0085877Y0058831D02*
X0083939Y0058831D01*
X0083939Y0058825D02*
X0085877Y0058825D01*
X0085877Y0058818D02*
X0083939Y0058818D01*
X0083939Y0058812D02*
X0085877Y0058812D01*
X0085877Y0058806D02*
X0083939Y0058806D01*
X0083939Y0058799D02*
X0085877Y0058799D01*
X0085877Y0058793D02*
X0083939Y0058793D01*
X0083939Y0058786D02*
X0085877Y0058786D01*
X0085877Y0058780D02*
X0083939Y0058780D01*
X0083939Y0058774D02*
X0085877Y0058774D01*
X0085877Y0058767D02*
X0083939Y0058767D01*
X0083939Y0058761D02*
X0085877Y0058761D01*
X0085877Y0058755D02*
X0083939Y0058755D01*
X0083939Y0058748D02*
X0085877Y0058748D01*
X0085877Y0058742D02*
X0083939Y0058742D01*
X0083939Y0058735D02*
X0085877Y0058735D01*
X0085877Y0058729D02*
X0083939Y0058729D01*
X0083939Y0058723D02*
X0085877Y0058723D01*
X0085877Y0058716D02*
X0083939Y0058716D01*
X0083939Y0058710D02*
X0085877Y0058710D01*
X0085877Y0058703D02*
X0083939Y0058703D01*
X0083939Y0058697D02*
X0085877Y0058697D01*
X0085877Y0058691D02*
X0083939Y0058691D01*
X0083939Y0058684D02*
X0085877Y0058684D01*
X0085877Y0058678D02*
X0083939Y0058678D01*
X0083939Y0058672D02*
X0085876Y0058672D01*
X0085876Y0058665D02*
X0083939Y0058665D01*
X0083939Y0058659D02*
X0085876Y0058659D01*
X0085876Y0058652D02*
X0083939Y0058652D01*
X0083939Y0058646D02*
X0085876Y0058646D01*
X0085876Y0058640D02*
X0083939Y0058640D01*
X0083939Y0058633D02*
X0085876Y0058633D01*
X0085876Y0058627D02*
X0083939Y0058627D01*
X0083939Y0058620D02*
X0085876Y0058620D01*
X0085876Y0058614D02*
X0083939Y0058614D01*
X0083939Y0058608D02*
X0085876Y0058608D01*
X0085876Y0058601D02*
X0083939Y0058601D01*
X0083939Y0058595D02*
X0085876Y0058595D01*
X0085876Y0058589D02*
X0083939Y0058589D01*
X0083939Y0058582D02*
X0085876Y0058582D01*
X0085876Y0058576D02*
X0083939Y0058576D01*
X0083939Y0058569D02*
X0085876Y0058569D01*
X0085876Y0058563D02*
X0083939Y0058563D01*
X0083939Y0058557D02*
X0085876Y0058557D01*
X0085876Y0058550D02*
X0083939Y0058550D01*
X0083939Y0058544D02*
X0085876Y0058544D01*
X0085876Y0058537D02*
X0083939Y0058537D01*
X0083939Y0058531D02*
X0085876Y0058531D01*
X0085876Y0058525D02*
X0083939Y0058525D01*
X0083939Y0058518D02*
X0085876Y0058518D01*
X0085876Y0058512D02*
X0083939Y0058512D01*
X0083939Y0058506D02*
X0085875Y0058506D01*
X0085875Y0058499D02*
X0083939Y0058499D01*
X0083939Y0058493D02*
X0085875Y0058493D01*
X0085875Y0058486D02*
X0083939Y0058486D01*
X0083939Y0058480D02*
X0085875Y0058480D01*
X0085875Y0058474D02*
X0083939Y0058474D01*
X0083939Y0058467D02*
X0085875Y0058467D01*
X0085875Y0058461D02*
X0083939Y0058461D01*
X0083939Y0058454D02*
X0085875Y0058454D01*
X0085875Y0058448D02*
X0083939Y0058448D01*
X0083939Y0058442D02*
X0085875Y0058442D01*
X0085875Y0058435D02*
X0083939Y0058435D01*
X0083939Y0058429D02*
X0085875Y0058429D01*
X0085875Y0058423D02*
X0083939Y0058423D01*
X0083939Y0058416D02*
X0085875Y0058416D01*
X0085875Y0058410D02*
X0083939Y0058410D01*
X0083939Y0058403D02*
X0085875Y0058403D01*
X0085875Y0058397D02*
X0083939Y0058397D01*
X0083939Y0058391D02*
X0085875Y0058391D01*
X0085875Y0058384D02*
X0083939Y0058384D01*
X0083939Y0058378D02*
X0085875Y0058378D01*
X0085875Y0058371D02*
X0083939Y0058371D01*
X0083939Y0058365D02*
X0085875Y0058365D01*
X0085875Y0058359D02*
X0083939Y0058359D01*
X0083939Y0058352D02*
X0085875Y0058352D01*
X0085875Y0058346D02*
X0083939Y0058346D01*
X0083939Y0058339D02*
X0085874Y0058339D01*
X0085874Y0058333D02*
X0083939Y0058333D01*
X0083939Y0058327D02*
X0085874Y0058327D01*
X0085874Y0058320D02*
X0083939Y0058320D01*
X0083939Y0058314D02*
X0085874Y0058314D01*
X0085874Y0058308D02*
X0083939Y0058308D01*
X0083939Y0058301D02*
X0085874Y0058301D01*
X0085874Y0058295D02*
X0083939Y0058295D01*
X0083939Y0058288D02*
X0085874Y0058288D01*
X0085874Y0058282D02*
X0083939Y0058282D01*
X0083939Y0058276D02*
X0085874Y0058276D01*
X0085874Y0058269D02*
X0083939Y0058269D01*
X0083939Y0058263D02*
X0085874Y0058263D01*
X0085874Y0058256D02*
X0083939Y0058256D01*
X0083939Y0058250D02*
X0085874Y0058250D01*
X0085874Y0058244D02*
X0083939Y0058244D01*
X0083939Y0058237D02*
X0085874Y0058237D01*
X0085874Y0058231D02*
X0083939Y0058231D01*
X0083939Y0058225D02*
X0085874Y0058225D01*
X0085874Y0058218D02*
X0083939Y0058218D01*
X0083939Y0058212D02*
X0085874Y0058212D01*
X0085874Y0058205D02*
X0083939Y0058205D01*
X0083939Y0058199D02*
X0085874Y0058199D01*
X0085874Y0058193D02*
X0083939Y0058193D01*
X0083939Y0058186D02*
X0085874Y0058186D01*
X0085874Y0058180D02*
X0083939Y0058180D01*
X0083939Y0058173D02*
X0085873Y0058173D01*
X0085873Y0058167D02*
X0083939Y0058167D01*
X0083939Y0058161D02*
X0085873Y0058161D01*
X0085873Y0058154D02*
X0083939Y0058154D01*
X0083939Y0058148D02*
X0085873Y0058148D01*
X0085873Y0058142D02*
X0083939Y0058142D01*
X0083939Y0058135D02*
X0085873Y0058135D01*
X0085873Y0058129D02*
X0083939Y0058129D01*
D13*
X0083226Y0077948D03*
X0076726Y0077948D03*
X0070226Y0077948D03*
X0063726Y0077948D03*
D14*
X0063535Y0093993D02*
X0063535Y0100292D01*
X0052118Y0100292D02*
X0052118Y0093993D01*
X0090469Y0039841D02*
X0096126Y0034185D01*
X0085184Y0023243D02*
X0079527Y0028900D01*
M02*
