G75*
%MOIN*%
%OFA0B0*%
%FSLAX25Y25*%
%IPPOS*%
%LPD*%
%AMOC8*
5,1,8,0,0,1.08239X$1,22.5*
%
%ADD10C,0.09460*%
%ADD11R,0.04343X0.03556*%
%ADD12R,0.06706X0.05918*%
%ADD13R,0.05918X0.06706*%
%ADD14R,0.03556X0.04343*%
%ADD15C,0.08200*%
%ADD16R,0.05524X0.05524*%
%ADD17R,0.04737X0.04737*%
%ADD18C,0.00178*%
%ADD19C,0.00867*%
%ADD20R,0.02769X0.04737*%
%ADD21C,0.01981*%
%ADD22R,0.13005X0.13005*%
%ADD23R,0.01981X0.07099*%
%ADD24C,0.00900*%
%ADD25R,0.02375X0.06115*%
%ADD26R,0.06706X0.06902*%
%ADD27C,0.00787*%
%ADD28R,0.05603X0.05721*%
D10*
X0045326Y0008800D03*
X0100326Y0008800D03*
X0100326Y0163800D03*
X0045326Y0163800D03*
D11*
X0067626Y0128359D03*
X0067626Y0123241D03*
X0076526Y0135141D03*
X0076526Y0140259D03*
X0085326Y0141659D03*
X0085326Y0136541D03*
X0091226Y0139741D03*
X0091226Y0144859D03*
X0088726Y0012759D03*
X0088726Y0007641D03*
D12*
X0054826Y0075560D03*
X0054826Y0083040D03*
X0068826Y0135560D03*
X0068826Y0143040D03*
D13*
X0063167Y0109100D03*
X0055686Y0109100D03*
D14*
X0060567Y0117000D03*
X0065686Y0117000D03*
X0066967Y0063700D03*
X0072086Y0063700D03*
X0061486Y0063800D03*
X0056367Y0063800D03*
X0057767Y0022100D03*
X0062886Y0022100D03*
G36*
X0087325Y0019167D02*
X0089840Y0021682D01*
X0092909Y0018613D01*
X0090394Y0016098D01*
X0087325Y0019167D01*
G37*
G36*
X0090944Y0022787D02*
X0093459Y0025302D01*
X0096528Y0022233D01*
X0094013Y0019718D01*
X0090944Y0022787D01*
G37*
D15*
X0042826Y0021300D03*
X0042826Y0031300D03*
X0042826Y0041300D03*
X0042826Y0051300D03*
X0042826Y0061300D03*
X0042826Y0071300D03*
X0042826Y0081300D03*
X0042826Y0091300D03*
X0042826Y0101300D03*
X0042826Y0111300D03*
X0042826Y0121300D03*
X0042826Y0131300D03*
X0042826Y0141300D03*
X0042826Y0151300D03*
X0102826Y0151300D03*
X0102826Y0141300D03*
X0102826Y0131300D03*
X0102826Y0121300D03*
X0102826Y0111300D03*
X0102826Y0101300D03*
X0102826Y0091300D03*
X0102826Y0081300D03*
X0102826Y0071300D03*
X0102826Y0061300D03*
X0102826Y0051300D03*
X0102826Y0041300D03*
X0102826Y0031300D03*
X0102826Y0021300D03*
D16*
X0083226Y0073366D03*
X0083226Y0081634D03*
X0076726Y0081634D03*
X0070226Y0081634D03*
X0070226Y0073366D03*
X0076726Y0073366D03*
X0063726Y0073366D03*
X0063726Y0081634D03*
D17*
X0064952Y0013450D03*
X0064952Y0007150D03*
X0080700Y0007150D03*
X0080700Y0013450D03*
D18*
X0080055Y0113115D02*
X0080055Y0115311D01*
X0081661Y0115311D01*
X0081661Y0113115D01*
X0080055Y0113115D01*
X0080055Y0113292D02*
X0081661Y0113292D01*
X0081661Y0113469D02*
X0080055Y0113469D01*
X0080055Y0113646D02*
X0081661Y0113646D01*
X0081661Y0113823D02*
X0080055Y0113823D01*
X0080055Y0114000D02*
X0081661Y0114000D01*
X0081661Y0114177D02*
X0080055Y0114177D01*
X0080055Y0114354D02*
X0081661Y0114354D01*
X0081661Y0114531D02*
X0080055Y0114531D01*
X0080055Y0114708D02*
X0081661Y0114708D01*
X0081661Y0114885D02*
X0080055Y0114885D01*
X0080055Y0115062D02*
X0081661Y0115062D01*
X0081661Y0115239D02*
X0080055Y0115239D01*
X0078086Y0115311D02*
X0078086Y0113115D01*
X0078086Y0115311D02*
X0079692Y0115311D01*
X0079692Y0113115D01*
X0078086Y0113115D01*
X0078086Y0113292D02*
X0079692Y0113292D01*
X0079692Y0113469D02*
X0078086Y0113469D01*
X0078086Y0113646D02*
X0079692Y0113646D01*
X0079692Y0113823D02*
X0078086Y0113823D01*
X0078086Y0114000D02*
X0079692Y0114000D01*
X0079692Y0114177D02*
X0078086Y0114177D01*
X0078086Y0114354D02*
X0079692Y0114354D01*
X0079692Y0114531D02*
X0078086Y0114531D01*
X0078086Y0114708D02*
X0079692Y0114708D01*
X0079692Y0114885D02*
X0078086Y0114885D01*
X0078086Y0115062D02*
X0079692Y0115062D01*
X0079692Y0115239D02*
X0078086Y0115239D01*
X0076838Y0118166D02*
X0074642Y0118166D01*
X0076838Y0118166D02*
X0076838Y0116560D01*
X0074642Y0116560D01*
X0074642Y0118166D01*
X0074642Y0116737D02*
X0076838Y0116737D01*
X0076838Y0116914D02*
X0074642Y0116914D01*
X0074642Y0117091D02*
X0076838Y0117091D01*
X0076838Y0117268D02*
X0074642Y0117268D01*
X0074642Y0117445D02*
X0076838Y0117445D01*
X0076838Y0117622D02*
X0074642Y0117622D01*
X0074642Y0117799D02*
X0076838Y0117799D01*
X0076838Y0117976D02*
X0074642Y0117976D01*
X0074642Y0118153D02*
X0076838Y0118153D01*
X0076838Y0120134D02*
X0074642Y0120134D01*
X0076838Y0120134D02*
X0076838Y0118528D01*
X0074642Y0118528D01*
X0074642Y0120134D01*
X0074642Y0118705D02*
X0076838Y0118705D01*
X0076838Y0118882D02*
X0074642Y0118882D01*
X0074642Y0119059D02*
X0076838Y0119059D01*
X0076838Y0119236D02*
X0074642Y0119236D01*
X0074642Y0119413D02*
X0076838Y0119413D01*
X0076838Y0119590D02*
X0074642Y0119590D01*
X0074642Y0119767D02*
X0076838Y0119767D01*
X0076838Y0119944D02*
X0074642Y0119944D01*
X0074642Y0120121D02*
X0076838Y0120121D01*
X0076838Y0122103D02*
X0074642Y0122103D01*
X0076838Y0122103D02*
X0076838Y0120497D01*
X0074642Y0120497D01*
X0074642Y0122103D01*
X0074642Y0120674D02*
X0076838Y0120674D01*
X0076838Y0120851D02*
X0074642Y0120851D01*
X0074642Y0121028D02*
X0076838Y0121028D01*
X0076838Y0121205D02*
X0074642Y0121205D01*
X0074642Y0121382D02*
X0076838Y0121382D01*
X0076838Y0121559D02*
X0074642Y0121559D01*
X0074642Y0121736D02*
X0076838Y0121736D01*
X0076838Y0121913D02*
X0074642Y0121913D01*
X0074642Y0122090D02*
X0076838Y0122090D01*
X0076838Y0124072D02*
X0074642Y0124072D01*
X0076838Y0124072D02*
X0076838Y0122466D01*
X0074642Y0122466D01*
X0074642Y0124072D01*
X0074642Y0122643D02*
X0076838Y0122643D01*
X0076838Y0122820D02*
X0074642Y0122820D01*
X0074642Y0122997D02*
X0076838Y0122997D01*
X0076838Y0123174D02*
X0074642Y0123174D01*
X0074642Y0123351D02*
X0076838Y0123351D01*
X0076838Y0123528D02*
X0074642Y0123528D01*
X0074642Y0123705D02*
X0076838Y0123705D01*
X0076838Y0123882D02*
X0074642Y0123882D01*
X0074642Y0124059D02*
X0076838Y0124059D01*
X0076838Y0126040D02*
X0074642Y0126040D01*
X0076838Y0126040D02*
X0076838Y0124434D01*
X0074642Y0124434D01*
X0074642Y0126040D01*
X0074642Y0124611D02*
X0076838Y0124611D01*
X0076838Y0124788D02*
X0074642Y0124788D01*
X0074642Y0124965D02*
X0076838Y0124965D01*
X0076838Y0125142D02*
X0074642Y0125142D01*
X0074642Y0125319D02*
X0076838Y0125319D01*
X0076838Y0125496D02*
X0074642Y0125496D01*
X0074642Y0125673D02*
X0076838Y0125673D01*
X0076838Y0125850D02*
X0074642Y0125850D01*
X0074642Y0126027D02*
X0076838Y0126027D01*
X0079692Y0127289D02*
X0079692Y0129485D01*
X0079692Y0127289D02*
X0078086Y0127289D01*
X0078086Y0129485D01*
X0079692Y0129485D01*
X0079692Y0127466D02*
X0078086Y0127466D01*
X0078086Y0127643D02*
X0079692Y0127643D01*
X0079692Y0127820D02*
X0078086Y0127820D01*
X0078086Y0127997D02*
X0079692Y0127997D01*
X0079692Y0128174D02*
X0078086Y0128174D01*
X0078086Y0128351D02*
X0079692Y0128351D01*
X0079692Y0128528D02*
X0078086Y0128528D01*
X0078086Y0128705D02*
X0079692Y0128705D01*
X0079692Y0128882D02*
X0078086Y0128882D01*
X0078086Y0129059D02*
X0079692Y0129059D01*
X0079692Y0129236D02*
X0078086Y0129236D01*
X0078086Y0129413D02*
X0079692Y0129413D01*
X0081661Y0129485D02*
X0081661Y0127289D01*
X0080055Y0127289D01*
X0080055Y0129485D01*
X0081661Y0129485D01*
X0081661Y0127466D02*
X0080055Y0127466D01*
X0080055Y0127643D02*
X0081661Y0127643D01*
X0081661Y0127820D02*
X0080055Y0127820D01*
X0080055Y0127997D02*
X0081661Y0127997D01*
X0081661Y0128174D02*
X0080055Y0128174D01*
X0080055Y0128351D02*
X0081661Y0128351D01*
X0081661Y0128528D02*
X0080055Y0128528D01*
X0080055Y0128705D02*
X0081661Y0128705D01*
X0081661Y0128882D02*
X0080055Y0128882D01*
X0080055Y0129059D02*
X0081661Y0129059D01*
X0081661Y0129236D02*
X0080055Y0129236D01*
X0080055Y0129413D02*
X0081661Y0129413D01*
X0083629Y0129485D02*
X0083629Y0127289D01*
X0082023Y0127289D01*
X0082023Y0129485D01*
X0083629Y0129485D01*
X0083629Y0127466D02*
X0082023Y0127466D01*
X0082023Y0127643D02*
X0083629Y0127643D01*
X0083629Y0127820D02*
X0082023Y0127820D01*
X0082023Y0127997D02*
X0083629Y0127997D01*
X0083629Y0128174D02*
X0082023Y0128174D01*
X0082023Y0128351D02*
X0083629Y0128351D01*
X0083629Y0128528D02*
X0082023Y0128528D01*
X0082023Y0128705D02*
X0083629Y0128705D01*
X0083629Y0128882D02*
X0082023Y0128882D01*
X0082023Y0129059D02*
X0083629Y0129059D01*
X0083629Y0129236D02*
X0082023Y0129236D01*
X0082023Y0129413D02*
X0083629Y0129413D01*
X0085598Y0129485D02*
X0085598Y0127289D01*
X0083992Y0127289D01*
X0083992Y0129485D01*
X0085598Y0129485D01*
X0085598Y0127466D02*
X0083992Y0127466D01*
X0083992Y0127643D02*
X0085598Y0127643D01*
X0085598Y0127820D02*
X0083992Y0127820D01*
X0083992Y0127997D02*
X0085598Y0127997D01*
X0085598Y0128174D02*
X0083992Y0128174D01*
X0083992Y0128351D02*
X0085598Y0128351D01*
X0085598Y0128528D02*
X0083992Y0128528D01*
X0083992Y0128705D02*
X0085598Y0128705D01*
X0085598Y0128882D02*
X0083992Y0128882D01*
X0083992Y0129059D02*
X0085598Y0129059D01*
X0085598Y0129236D02*
X0083992Y0129236D01*
X0083992Y0129413D02*
X0085598Y0129413D01*
X0087566Y0129485D02*
X0087566Y0127289D01*
X0085960Y0127289D01*
X0085960Y0129485D01*
X0087566Y0129485D01*
X0087566Y0127466D02*
X0085960Y0127466D01*
X0085960Y0127643D02*
X0087566Y0127643D01*
X0087566Y0127820D02*
X0085960Y0127820D01*
X0085960Y0127997D02*
X0087566Y0127997D01*
X0087566Y0128174D02*
X0085960Y0128174D01*
X0085960Y0128351D02*
X0087566Y0128351D01*
X0087566Y0128528D02*
X0085960Y0128528D01*
X0085960Y0128705D02*
X0087566Y0128705D01*
X0087566Y0128882D02*
X0085960Y0128882D01*
X0085960Y0129059D02*
X0087566Y0129059D01*
X0087566Y0129236D02*
X0085960Y0129236D01*
X0085960Y0129413D02*
X0087566Y0129413D01*
X0088815Y0124434D02*
X0091011Y0124434D01*
X0088815Y0124434D02*
X0088815Y0126040D01*
X0091011Y0126040D01*
X0091011Y0124434D01*
X0091011Y0124611D02*
X0088815Y0124611D01*
X0088815Y0124788D02*
X0091011Y0124788D01*
X0091011Y0124965D02*
X0088815Y0124965D01*
X0088815Y0125142D02*
X0091011Y0125142D01*
X0091011Y0125319D02*
X0088815Y0125319D01*
X0088815Y0125496D02*
X0091011Y0125496D01*
X0091011Y0125673D02*
X0088815Y0125673D01*
X0088815Y0125850D02*
X0091011Y0125850D01*
X0091011Y0126027D02*
X0088815Y0126027D01*
X0088815Y0122466D02*
X0091011Y0122466D01*
X0088815Y0122466D02*
X0088815Y0124072D01*
X0091011Y0124072D01*
X0091011Y0122466D01*
X0091011Y0122643D02*
X0088815Y0122643D01*
X0088815Y0122820D02*
X0091011Y0122820D01*
X0091011Y0122997D02*
X0088815Y0122997D01*
X0088815Y0123174D02*
X0091011Y0123174D01*
X0091011Y0123351D02*
X0088815Y0123351D01*
X0088815Y0123528D02*
X0091011Y0123528D01*
X0091011Y0123705D02*
X0088815Y0123705D01*
X0088815Y0123882D02*
X0091011Y0123882D01*
X0091011Y0124059D02*
X0088815Y0124059D01*
X0088815Y0120497D02*
X0091011Y0120497D01*
X0088815Y0120497D02*
X0088815Y0122103D01*
X0091011Y0122103D01*
X0091011Y0120497D01*
X0091011Y0120674D02*
X0088815Y0120674D01*
X0088815Y0120851D02*
X0091011Y0120851D01*
X0091011Y0121028D02*
X0088815Y0121028D01*
X0088815Y0121205D02*
X0091011Y0121205D01*
X0091011Y0121382D02*
X0088815Y0121382D01*
X0088815Y0121559D02*
X0091011Y0121559D01*
X0091011Y0121736D02*
X0088815Y0121736D01*
X0088815Y0121913D02*
X0091011Y0121913D01*
X0091011Y0122090D02*
X0088815Y0122090D01*
X0088815Y0118528D02*
X0091011Y0118528D01*
X0088815Y0118528D02*
X0088815Y0120134D01*
X0091011Y0120134D01*
X0091011Y0118528D01*
X0091011Y0118705D02*
X0088815Y0118705D01*
X0088815Y0118882D02*
X0091011Y0118882D01*
X0091011Y0119059D02*
X0088815Y0119059D01*
X0088815Y0119236D02*
X0091011Y0119236D01*
X0091011Y0119413D02*
X0088815Y0119413D01*
X0088815Y0119590D02*
X0091011Y0119590D01*
X0091011Y0119767D02*
X0088815Y0119767D01*
X0088815Y0119944D02*
X0091011Y0119944D01*
X0091011Y0120121D02*
X0088815Y0120121D01*
X0088815Y0116560D02*
X0091011Y0116560D01*
X0088815Y0116560D02*
X0088815Y0118166D01*
X0091011Y0118166D01*
X0091011Y0116560D01*
X0091011Y0116737D02*
X0088815Y0116737D01*
X0088815Y0116914D02*
X0091011Y0116914D01*
X0091011Y0117091D02*
X0088815Y0117091D01*
X0088815Y0117268D02*
X0091011Y0117268D01*
X0091011Y0117445D02*
X0088815Y0117445D01*
X0088815Y0117622D02*
X0091011Y0117622D01*
X0091011Y0117799D02*
X0088815Y0117799D01*
X0088815Y0117976D02*
X0091011Y0117976D01*
X0091011Y0118153D02*
X0088815Y0118153D01*
X0085960Y0115311D02*
X0085960Y0113115D01*
X0085960Y0115311D02*
X0087566Y0115311D01*
X0087566Y0113115D01*
X0085960Y0113115D01*
X0085960Y0113292D02*
X0087566Y0113292D01*
X0087566Y0113469D02*
X0085960Y0113469D01*
X0085960Y0113646D02*
X0087566Y0113646D01*
X0087566Y0113823D02*
X0085960Y0113823D01*
X0085960Y0114000D02*
X0087566Y0114000D01*
X0087566Y0114177D02*
X0085960Y0114177D01*
X0085960Y0114354D02*
X0087566Y0114354D01*
X0087566Y0114531D02*
X0085960Y0114531D01*
X0085960Y0114708D02*
X0087566Y0114708D01*
X0087566Y0114885D02*
X0085960Y0114885D01*
X0085960Y0115062D02*
X0087566Y0115062D01*
X0087566Y0115239D02*
X0085960Y0115239D01*
X0083992Y0115311D02*
X0083992Y0113115D01*
X0083992Y0115311D02*
X0085598Y0115311D01*
X0085598Y0113115D01*
X0083992Y0113115D01*
X0083992Y0113292D02*
X0085598Y0113292D01*
X0085598Y0113469D02*
X0083992Y0113469D01*
X0083992Y0113646D02*
X0085598Y0113646D01*
X0085598Y0113823D02*
X0083992Y0113823D01*
X0083992Y0114000D02*
X0085598Y0114000D01*
X0085598Y0114177D02*
X0083992Y0114177D01*
X0083992Y0114354D02*
X0085598Y0114354D01*
X0085598Y0114531D02*
X0083992Y0114531D01*
X0083992Y0114708D02*
X0085598Y0114708D01*
X0085598Y0114885D02*
X0083992Y0114885D01*
X0083992Y0115062D02*
X0085598Y0115062D01*
X0085598Y0115239D02*
X0083992Y0115239D01*
X0082023Y0115311D02*
X0082023Y0113115D01*
X0082023Y0115311D02*
X0083629Y0115311D01*
X0083629Y0113115D01*
X0082023Y0113115D01*
X0082023Y0113292D02*
X0083629Y0113292D01*
X0083629Y0113469D02*
X0082023Y0113469D01*
X0082023Y0113646D02*
X0083629Y0113646D01*
X0083629Y0113823D02*
X0082023Y0113823D01*
X0082023Y0114000D02*
X0083629Y0114000D01*
X0083629Y0114177D02*
X0082023Y0114177D01*
X0082023Y0114354D02*
X0083629Y0114354D01*
X0083629Y0114531D02*
X0082023Y0114531D01*
X0082023Y0114708D02*
X0083629Y0114708D01*
X0083629Y0114885D02*
X0082023Y0114885D01*
X0082023Y0115062D02*
X0083629Y0115062D01*
X0083629Y0115239D02*
X0082023Y0115239D01*
D19*
X0078922Y0117396D02*
X0078922Y0125204D01*
X0086730Y0125204D01*
X0086730Y0117396D01*
X0078922Y0117396D01*
X0078922Y0118262D02*
X0086730Y0118262D01*
X0086730Y0119128D02*
X0078922Y0119128D01*
X0078922Y0119994D02*
X0086730Y0119994D01*
X0086730Y0120860D02*
X0078922Y0120860D01*
X0078922Y0121726D02*
X0086730Y0121726D01*
X0086730Y0122592D02*
X0078922Y0122592D01*
X0078922Y0123458D02*
X0086730Y0123458D01*
X0086730Y0124324D02*
X0078922Y0124324D01*
X0078922Y0125190D02*
X0086730Y0125190D01*
D20*
X0061567Y0101024D03*
X0061567Y0091576D03*
X0057826Y0091576D03*
X0054086Y0091576D03*
X0054086Y0101024D03*
D21*
X0065743Y0053828D02*
X0067135Y0052436D01*
X0067135Y0052436D01*
X0065743Y0053828D01*
X0065743Y0053828D01*
X0064351Y0052436D02*
X0065743Y0051044D01*
X0065743Y0051044D01*
X0064351Y0052436D01*
X0064351Y0052436D01*
X0062959Y0051044D02*
X0064351Y0049652D01*
X0064351Y0049652D01*
X0062959Y0051044D01*
X0062959Y0051044D01*
X0061567Y0049652D02*
X0062959Y0048260D01*
X0062959Y0048260D01*
X0061567Y0049652D01*
X0061567Y0049652D01*
X0060175Y0048260D02*
X0061567Y0046868D01*
X0061567Y0046868D01*
X0060175Y0048260D01*
X0060175Y0048260D01*
X0058783Y0046868D02*
X0060175Y0045476D01*
X0060175Y0045476D01*
X0058783Y0046868D01*
X0058783Y0046868D01*
X0057391Y0045476D02*
X0058783Y0044084D01*
X0058783Y0044084D01*
X0057391Y0045476D01*
X0057391Y0045476D01*
X0055999Y0044084D02*
X0057391Y0042692D01*
X0057391Y0042692D01*
X0055999Y0044084D01*
X0055999Y0044084D01*
X0057391Y0039908D02*
X0055999Y0038516D01*
X0055999Y0038516D01*
X0057391Y0039908D01*
X0057391Y0039908D01*
X0058783Y0038516D02*
X0057391Y0037124D01*
X0057391Y0037124D01*
X0058783Y0038516D01*
X0058783Y0038516D01*
X0060175Y0037124D02*
X0058783Y0035732D01*
X0058783Y0035732D01*
X0060175Y0037124D01*
X0060175Y0037124D01*
X0061567Y0035732D02*
X0060175Y0034340D01*
X0060175Y0034340D01*
X0061567Y0035732D01*
X0061567Y0035732D01*
X0062959Y0034340D02*
X0061567Y0032948D01*
X0061567Y0032948D01*
X0062959Y0034340D01*
X0062959Y0034340D01*
X0064351Y0032948D02*
X0062959Y0031556D01*
X0062959Y0031556D01*
X0064351Y0032948D01*
X0064351Y0032948D01*
X0065743Y0031556D02*
X0064351Y0030164D01*
X0064351Y0030164D01*
X0065743Y0031556D01*
X0065743Y0031556D01*
X0067135Y0030164D02*
X0065743Y0028772D01*
X0065743Y0028772D01*
X0067135Y0030164D01*
X0067135Y0030164D01*
X0069918Y0030164D02*
X0071310Y0028772D01*
X0071310Y0028772D01*
X0069918Y0030164D01*
X0069918Y0030164D01*
X0071310Y0031556D02*
X0072702Y0030164D01*
X0072702Y0030164D01*
X0071310Y0031556D01*
X0071310Y0031556D01*
X0072702Y0032948D02*
X0074094Y0031556D01*
X0074094Y0031556D01*
X0072702Y0032948D01*
X0072702Y0032948D01*
X0074094Y0034340D02*
X0075486Y0032948D01*
X0075486Y0032948D01*
X0074094Y0034340D01*
X0074094Y0034340D01*
X0075486Y0035732D02*
X0076878Y0034340D01*
X0076878Y0034340D01*
X0075486Y0035732D01*
X0075486Y0035732D01*
X0076878Y0037124D02*
X0078270Y0035732D01*
X0078270Y0035732D01*
X0076878Y0037124D01*
X0076878Y0037124D01*
X0078270Y0038516D02*
X0079662Y0037124D01*
X0079662Y0037124D01*
X0078270Y0038516D01*
X0078270Y0038516D01*
X0079662Y0039908D02*
X0081054Y0038516D01*
X0081054Y0038516D01*
X0079662Y0039908D01*
X0079662Y0039908D01*
X0079662Y0042692D02*
X0081054Y0044084D01*
X0079662Y0042692D02*
X0079662Y0042692D01*
X0081054Y0044084D01*
X0081054Y0044084D01*
X0079662Y0045476D02*
X0078270Y0044084D01*
X0078270Y0044084D01*
X0079662Y0045476D01*
X0079662Y0045476D01*
X0078270Y0046868D02*
X0076878Y0045476D01*
X0076878Y0045476D01*
X0078270Y0046868D01*
X0078270Y0046868D01*
X0076878Y0048260D02*
X0075486Y0046868D01*
X0076878Y0048260D02*
X0076878Y0048260D01*
X0075486Y0046868D01*
X0075486Y0046868D01*
X0074094Y0048260D02*
X0075486Y0049652D01*
X0075486Y0049652D01*
X0074094Y0048260D01*
X0074094Y0048260D01*
X0072702Y0049652D02*
X0074094Y0051044D01*
X0072702Y0049652D02*
X0072702Y0049652D01*
X0074094Y0051044D01*
X0074094Y0051044D01*
X0072702Y0052436D02*
X0071310Y0051044D01*
X0071310Y0051044D01*
X0072702Y0052436D01*
X0072702Y0052436D01*
X0071310Y0053828D02*
X0069918Y0052436D01*
X0069918Y0052436D01*
X0071310Y0053828D01*
X0071310Y0053828D01*
D22*
G36*
X0068526Y0050495D02*
X0077721Y0041300D01*
X0068526Y0032105D01*
X0059331Y0041300D01*
X0068526Y0050495D01*
G37*
D23*
G36*
X0088391Y0026246D02*
X0086991Y0024846D01*
X0081973Y0029864D01*
X0083373Y0031264D01*
X0088391Y0026246D01*
G37*
G36*
X0091035Y0028891D02*
X0089635Y0027491D01*
X0084617Y0032509D01*
X0086017Y0033909D01*
X0091035Y0028891D01*
G37*
G36*
X0093680Y0031536D02*
X0092280Y0030136D01*
X0087262Y0035154D01*
X0088662Y0036554D01*
X0093680Y0031536D01*
G37*
D24*
X0085787Y0091333D02*
X0084115Y0091333D01*
X0084115Y0094775D01*
X0085787Y0094775D01*
X0085787Y0091333D01*
X0085787Y0092232D02*
X0084115Y0092232D01*
X0084115Y0093131D02*
X0085787Y0093131D01*
X0085787Y0094030D02*
X0084115Y0094030D01*
X0082637Y0091333D02*
X0080965Y0091333D01*
X0080965Y0094775D01*
X0082637Y0094775D01*
X0082637Y0091333D01*
X0082637Y0092232D02*
X0080965Y0092232D01*
X0080965Y0093131D02*
X0082637Y0093131D01*
X0082637Y0094030D02*
X0080965Y0094030D01*
X0079488Y0091333D02*
X0077816Y0091333D01*
X0077816Y0094775D01*
X0079488Y0094775D01*
X0079488Y0091333D01*
X0079488Y0092232D02*
X0077816Y0092232D01*
X0077816Y0093131D02*
X0079488Y0093131D01*
X0079488Y0094030D02*
X0077816Y0094030D01*
X0076338Y0091333D02*
X0074666Y0091333D01*
X0074666Y0094775D01*
X0076338Y0094775D01*
X0076338Y0091333D01*
X0076338Y0092232D02*
X0074666Y0092232D01*
X0074666Y0093131D02*
X0076338Y0093131D01*
X0076338Y0094030D02*
X0074666Y0094030D01*
X0074666Y0098025D02*
X0076338Y0098025D01*
X0074666Y0098025D02*
X0074666Y0101467D01*
X0076338Y0101467D01*
X0076338Y0098025D01*
X0076338Y0098924D02*
X0074666Y0098924D01*
X0074666Y0099823D02*
X0076338Y0099823D01*
X0076338Y0100722D02*
X0074666Y0100722D01*
X0077816Y0098025D02*
X0079488Y0098025D01*
X0077816Y0098025D02*
X0077816Y0101467D01*
X0079488Y0101467D01*
X0079488Y0098025D01*
X0079488Y0098924D02*
X0077816Y0098924D01*
X0077816Y0099823D02*
X0079488Y0099823D01*
X0079488Y0100722D02*
X0077816Y0100722D01*
X0080965Y0098025D02*
X0082637Y0098025D01*
X0080965Y0098025D02*
X0080965Y0101467D01*
X0082637Y0101467D01*
X0082637Y0098025D01*
X0082637Y0098924D02*
X0080965Y0098924D01*
X0080965Y0099823D02*
X0082637Y0099823D01*
X0082637Y0100722D02*
X0080965Y0100722D01*
X0084115Y0098025D02*
X0085787Y0098025D01*
X0084115Y0098025D02*
X0084115Y0101467D01*
X0085787Y0101467D01*
X0085787Y0098025D01*
X0085787Y0098924D02*
X0084115Y0098924D01*
X0084115Y0099823D02*
X0085787Y0099823D01*
X0085787Y0100722D02*
X0084115Y0100722D01*
D25*
X0077945Y0154985D03*
X0075386Y0154985D03*
X0072826Y0154985D03*
X0070267Y0154985D03*
X0067708Y0154985D03*
D26*
X0068889Y0165615D03*
X0076763Y0165615D03*
D27*
X0081882Y0165556D02*
X0088574Y0165556D01*
X0088574Y0166342D02*
X0081882Y0166342D01*
X0081882Y0167128D02*
X0088526Y0167128D01*
X0088525Y0167136D02*
X0088380Y0167552D01*
X0088145Y0167925D01*
X0087833Y0168237D01*
X0087460Y0168471D01*
X0087044Y0168617D01*
X0086606Y0168666D01*
X0081882Y0168666D01*
X0081882Y0162564D01*
X0086606Y0162564D01*
X0087044Y0162613D01*
X0087460Y0162759D01*
X0087833Y0162993D01*
X0088145Y0163305D01*
X0088380Y0163678D01*
X0088525Y0164094D01*
X0088574Y0164532D01*
X0088574Y0166698D01*
X0088525Y0167136D01*
X0088152Y0167914D02*
X0081882Y0167914D01*
X0081882Y0164770D02*
X0088574Y0164770D01*
X0088487Y0163984D02*
X0081882Y0163984D01*
X0081882Y0163198D02*
X0088038Y0163198D01*
X0084071Y0156670D02*
X0083676Y0156808D01*
X0083260Y0156855D01*
X0082078Y0156855D01*
X0081662Y0156808D01*
X0081267Y0156670D01*
X0080912Y0156447D01*
X0080616Y0156151D01*
X0080394Y0155796D01*
X0080255Y0155401D01*
X0080208Y0154985D01*
X0080255Y0154569D01*
X0080394Y0154174D01*
X0080616Y0153819D01*
X0080912Y0153523D01*
X0081267Y0153300D01*
X0081662Y0153162D01*
X0082078Y0153115D01*
X0083260Y0153115D01*
X0083676Y0153162D01*
X0084071Y0153300D01*
X0084426Y0153523D01*
X0084722Y0153819D01*
X0084944Y0154174D01*
X0085083Y0154569D01*
X0085130Y0154985D01*
X0085083Y0155401D01*
X0084944Y0155796D01*
X0084722Y0156151D01*
X0084426Y0156447D01*
X0084071Y0156670D01*
X0084738Y0156125D02*
X0080600Y0156125D01*
X0080248Y0155339D02*
X0085090Y0155339D01*
X0085077Y0154553D02*
X0080261Y0154553D01*
X0080668Y0153767D02*
X0084670Y0153767D01*
X0065445Y0154985D02*
X0065398Y0154569D01*
X0065259Y0154174D01*
X0065037Y0153819D01*
X0064740Y0153523D01*
X0064386Y0153300D01*
X0063991Y0153162D01*
X0063574Y0153115D01*
X0062393Y0153115D01*
X0061977Y0153162D01*
X0061582Y0153300D01*
X0061227Y0153523D01*
X0060931Y0153819D01*
X0060709Y0154174D01*
X0060570Y0154569D01*
X0060523Y0154985D01*
X0060570Y0155401D01*
X0060709Y0155796D01*
X0060931Y0156151D01*
X0061227Y0156447D01*
X0061582Y0156670D01*
X0061977Y0156808D01*
X0062393Y0156855D01*
X0063574Y0156855D01*
X0063991Y0156808D01*
X0064386Y0156670D01*
X0064740Y0156447D01*
X0065037Y0156151D01*
X0065259Y0155796D01*
X0065398Y0155401D01*
X0065445Y0154985D01*
X0065405Y0155339D02*
X0060563Y0155339D01*
X0060576Y0154553D02*
X0065392Y0154553D01*
X0064985Y0153767D02*
X0060983Y0153767D01*
X0060915Y0156125D02*
X0065053Y0156125D01*
X0063771Y0162564D02*
X0063771Y0168666D01*
X0059047Y0168666D01*
X0058609Y0168617D01*
X0058193Y0168471D01*
X0057820Y0168237D01*
X0057508Y0167925D01*
X0057273Y0167552D01*
X0057128Y0167136D01*
X0057078Y0166698D01*
X0057078Y0164532D01*
X0057128Y0164094D01*
X0057273Y0163678D01*
X0057508Y0163305D01*
X0057820Y0162993D01*
X0058193Y0162759D01*
X0058609Y0162613D01*
X0059047Y0162564D01*
X0063771Y0162564D01*
X0063771Y0163198D02*
X0057615Y0163198D01*
X0057166Y0163984D02*
X0063771Y0163984D01*
X0063771Y0164770D02*
X0057078Y0164770D01*
X0057078Y0165556D02*
X0063771Y0165556D01*
X0063771Y0166342D02*
X0057078Y0166342D01*
X0057127Y0167128D02*
X0063771Y0167128D01*
X0063771Y0167914D02*
X0057501Y0167914D01*
D28*
X0057118Y0142540D03*
X0057118Y0130926D03*
M02*
