G75*
%MOIN*%
%OFA0B0*%
%FSLAX25Y25*%
%IPPOS*%
%LPD*%
%AMOC8*
5,1,8,0,0,1.08239X$1,22.5*
%
%ADD10C,0.00400*%
%ADD11C,0.00500*%
%ADD12C,0.00008*%
%ADD13R,0.00787X0.00787*%
%ADD14C,0.00800*%
D10*
X0047524Y0036605D02*
X0048392Y0035738D01*
X0050126Y0035738D01*
X0048825Y0035738D02*
X0048825Y0037472D01*
X0048392Y0037472D02*
X0050126Y0037472D01*
X0049693Y0038500D02*
X0050126Y0038934D01*
X0050126Y0039801D01*
X0049693Y0040235D01*
X0049259Y0040235D01*
X0048825Y0039801D01*
X0048825Y0039367D01*
X0048825Y0039801D02*
X0048392Y0040235D01*
X0047958Y0040235D01*
X0047524Y0039801D01*
X0047524Y0038934D01*
X0047958Y0038500D01*
X0048392Y0037472D02*
X0047524Y0036605D01*
X0049392Y0066738D02*
X0048524Y0067605D01*
X0049392Y0068472D01*
X0051126Y0068472D01*
X0050693Y0069500D02*
X0048958Y0071235D01*
X0050693Y0071235D01*
X0051126Y0070801D01*
X0051126Y0069934D01*
X0050693Y0069500D01*
X0048958Y0069500D01*
X0048524Y0069934D01*
X0048524Y0070801D01*
X0048958Y0071235D01*
X0049825Y0068472D02*
X0049825Y0066738D01*
X0049392Y0066738D02*
X0051126Y0066738D01*
X0050333Y0076466D02*
X0048598Y0076466D01*
X0047731Y0077333D01*
X0048598Y0078201D01*
X0050333Y0078201D01*
X0050333Y0079228D02*
X0048598Y0079228D01*
X0049465Y0079228D02*
X0048598Y0080096D01*
X0048598Y0080529D01*
X0049032Y0081530D02*
X0048598Y0081964D01*
X0048598Y0082831D01*
X0049032Y0083265D01*
X0049465Y0083265D01*
X0049465Y0081530D01*
X0049032Y0081530D02*
X0049899Y0081530D01*
X0050333Y0081964D01*
X0050333Y0082831D01*
X0050333Y0084726D02*
X0048164Y0084726D01*
X0047731Y0085160D01*
X0049032Y0085160D02*
X0049032Y0084293D01*
X0049859Y0088217D02*
X0048124Y0088217D01*
X0048124Y0089952D02*
X0049859Y0089952D01*
X0050726Y0089084D01*
X0049859Y0088217D01*
X0048992Y0090979D02*
X0048992Y0091413D01*
X0050726Y0091413D01*
X0050726Y0090979D02*
X0050726Y0091847D01*
X0050726Y0092821D02*
X0048992Y0092821D01*
X0048992Y0094122D01*
X0049425Y0094556D01*
X0050726Y0094556D01*
X0048124Y0091413D02*
X0047691Y0091413D01*
X0049032Y0078201D02*
X0049032Y0076466D01*
X0061264Y0068735D02*
X0062132Y0069602D01*
X0062132Y0067000D01*
X0062999Y0067000D02*
X0061264Y0067000D01*
X0064026Y0067434D02*
X0064460Y0067000D01*
X0065328Y0067000D01*
X0065761Y0067434D01*
X0065761Y0067867D01*
X0065328Y0068301D01*
X0064894Y0068301D01*
X0065328Y0068301D02*
X0065761Y0068735D01*
X0065761Y0069169D01*
X0065328Y0069602D01*
X0064460Y0069602D01*
X0064026Y0069169D01*
X0067964Y0069169D02*
X0067964Y0067434D01*
X0068398Y0067000D01*
X0069265Y0067000D01*
X0069699Y0067434D01*
X0069699Y0069169D01*
X0069265Y0069602D01*
X0068398Y0069602D01*
X0067964Y0069169D01*
X0070726Y0069602D02*
X0070726Y0067000D01*
X0072461Y0067000D02*
X0070726Y0069602D01*
X0072461Y0069602D02*
X0072461Y0067000D01*
X0074464Y0067000D02*
X0074464Y0069602D01*
X0075765Y0069602D01*
X0076199Y0069169D01*
X0076199Y0068301D01*
X0075765Y0067867D01*
X0074464Y0067867D01*
X0075332Y0067867D02*
X0076199Y0067000D01*
X0077226Y0067000D02*
X0078961Y0069602D01*
X0077226Y0069602D02*
X0078961Y0067000D01*
X0080864Y0069602D02*
X0082599Y0069602D01*
X0081732Y0069602D02*
X0081732Y0067000D01*
X0083626Y0067000D02*
X0085361Y0069602D01*
X0083626Y0069602D02*
X0085361Y0067000D01*
D11*
X0049441Y0021302D02*
X0048273Y0020135D01*
X0049441Y0018967D01*
X0051776Y0018967D01*
X0050025Y0018967D02*
X0050025Y0021302D01*
X0049441Y0021302D02*
X0051776Y0021302D01*
X0051193Y0022650D02*
X0051776Y0023234D01*
X0051776Y0024401D01*
X0051193Y0024985D01*
X0050025Y0024985D01*
X0049441Y0024401D01*
X0049441Y0023818D01*
X0050025Y0022650D01*
X0048273Y0022650D01*
X0048273Y0024985D01*
X0049441Y0028467D02*
X0048273Y0029635D01*
X0049441Y0030802D01*
X0051776Y0030802D01*
X0050025Y0030802D02*
X0050025Y0028467D01*
X0049441Y0028467D02*
X0051776Y0028467D01*
X0050025Y0032150D02*
X0050025Y0034485D01*
X0051776Y0033901D02*
X0048273Y0033901D01*
X0050025Y0032150D01*
X0050431Y0041300D02*
X0065047Y0026685D01*
X0072006Y0026685D01*
X0086622Y0041300D01*
X0068526Y0059395D01*
X0050431Y0041300D01*
X0050025Y0048467D02*
X0050025Y0050802D01*
X0049441Y0050802D02*
X0051776Y0050802D01*
X0051776Y0052150D02*
X0049441Y0054485D01*
X0048857Y0054485D01*
X0048273Y0053901D01*
X0048273Y0052734D01*
X0048857Y0052150D01*
X0049441Y0050802D02*
X0048273Y0049635D01*
X0049441Y0048467D01*
X0051776Y0048467D01*
X0051776Y0052150D02*
X0051776Y0054485D01*
X0051776Y0058467D02*
X0049441Y0058467D01*
X0048273Y0059635D01*
X0049441Y0060802D01*
X0051776Y0060802D01*
X0051776Y0062150D02*
X0051776Y0064485D01*
X0051776Y0063318D02*
X0048273Y0063318D01*
X0049441Y0062150D01*
X0050025Y0060802D02*
X0050025Y0058467D01*
X0073140Y0088526D02*
X0073142Y0088565D01*
X0073148Y0088604D01*
X0073158Y0088642D01*
X0073171Y0088679D01*
X0073188Y0088714D01*
X0073208Y0088748D01*
X0073232Y0088779D01*
X0073259Y0088808D01*
X0073288Y0088834D01*
X0073320Y0088857D01*
X0073354Y0088877D01*
X0073390Y0088893D01*
X0073427Y0088905D01*
X0073466Y0088914D01*
X0073505Y0088919D01*
X0073544Y0088920D01*
X0073583Y0088917D01*
X0073622Y0088910D01*
X0073659Y0088899D01*
X0073696Y0088885D01*
X0073731Y0088867D01*
X0073764Y0088846D01*
X0073795Y0088821D01*
X0073823Y0088794D01*
X0073848Y0088764D01*
X0073870Y0088731D01*
X0073889Y0088697D01*
X0073904Y0088661D01*
X0073916Y0088623D01*
X0073924Y0088585D01*
X0073928Y0088546D01*
X0073928Y0088506D01*
X0073924Y0088467D01*
X0073916Y0088429D01*
X0073904Y0088391D01*
X0073889Y0088355D01*
X0073870Y0088321D01*
X0073848Y0088288D01*
X0073823Y0088258D01*
X0073795Y0088231D01*
X0073764Y0088206D01*
X0073731Y0088185D01*
X0073696Y0088167D01*
X0073659Y0088153D01*
X0073622Y0088142D01*
X0073583Y0088135D01*
X0073544Y0088132D01*
X0073505Y0088133D01*
X0073466Y0088138D01*
X0073427Y0088147D01*
X0073390Y0088159D01*
X0073354Y0088175D01*
X0073320Y0088195D01*
X0073288Y0088218D01*
X0073259Y0088244D01*
X0073232Y0088273D01*
X0073208Y0088304D01*
X0073188Y0088338D01*
X0073171Y0088373D01*
X0073158Y0088410D01*
X0073148Y0088448D01*
X0073142Y0088487D01*
X0073140Y0088526D01*
X0073534Y0090101D02*
X0086919Y0090101D01*
X0086919Y0102699D01*
X0073534Y0102699D01*
X0073534Y0090101D01*
X0074165Y0112639D02*
X0087945Y0112639D01*
X0091488Y0116182D01*
X0091488Y0129961D01*
X0074165Y0129961D01*
X0074165Y0112639D01*
X0093873Y0111460D02*
X0093873Y0110292D01*
X0094457Y0109708D01*
X0095041Y0109708D01*
X0095625Y0110292D01*
X0095625Y0112044D01*
X0096793Y0112044D02*
X0094457Y0112044D01*
X0093873Y0111460D01*
X0096793Y0112044D02*
X0097376Y0111460D01*
X0097376Y0110292D01*
X0096793Y0109708D01*
X0096793Y0102044D02*
X0097376Y0101460D01*
X0097376Y0100292D01*
X0096793Y0099708D01*
X0096209Y0099708D01*
X0095625Y0100292D01*
X0095625Y0101460D01*
X0096209Y0102044D01*
X0096793Y0102044D01*
X0095625Y0101460D02*
X0095041Y0102044D01*
X0094457Y0102044D01*
X0093873Y0101460D01*
X0093873Y0100292D01*
X0094457Y0099708D01*
X0095041Y0099708D01*
X0095625Y0100292D01*
X0094457Y0092044D02*
X0096793Y0089708D01*
X0097376Y0089708D01*
X0093873Y0089708D02*
X0093873Y0092044D01*
X0094457Y0092044D01*
X0093873Y0082044D02*
X0094457Y0080876D01*
X0095625Y0079708D01*
X0095625Y0081460D01*
X0096209Y0082044D01*
X0096793Y0082044D01*
X0097376Y0081460D01*
X0097376Y0080292D01*
X0096793Y0079708D01*
X0095625Y0079708D01*
X0095625Y0072044D02*
X0096793Y0072044D01*
X0097376Y0071460D01*
X0097376Y0070292D01*
X0096793Y0069708D01*
X0095625Y0069708D02*
X0095041Y0070876D01*
X0095041Y0071460D01*
X0095625Y0072044D01*
X0093873Y0072044D02*
X0093873Y0069708D01*
X0095625Y0069708D01*
X0095625Y0062544D02*
X0095625Y0060208D01*
X0093873Y0061960D01*
X0097376Y0061960D01*
X0096793Y0052544D02*
X0097376Y0051960D01*
X0097376Y0050792D01*
X0096793Y0050208D01*
X0095625Y0051376D02*
X0095625Y0051960D01*
X0096209Y0052544D01*
X0096793Y0052544D01*
X0095625Y0051960D02*
X0095041Y0052544D01*
X0094457Y0052544D01*
X0093873Y0051960D01*
X0093873Y0050792D01*
X0094457Y0050208D01*
X0094457Y0042044D02*
X0093873Y0041460D01*
X0093873Y0040292D01*
X0094457Y0039708D01*
X0094457Y0042044D02*
X0095041Y0042044D01*
X0097376Y0039708D01*
X0097376Y0042044D01*
X0097976Y0029444D02*
X0097976Y0027108D01*
X0097976Y0028276D02*
X0094473Y0028276D01*
X0095641Y0027108D01*
X0095057Y0018244D02*
X0097393Y0015908D01*
X0097976Y0016492D01*
X0097976Y0017660D01*
X0097393Y0018244D01*
X0095057Y0018244D01*
X0094473Y0017660D01*
X0094473Y0016492D01*
X0095057Y0015908D01*
X0097393Y0015908D01*
X0081094Y0015812D02*
X0081094Y0004788D01*
X0064559Y0004788D01*
X0064559Y0015812D01*
X0081094Y0015812D01*
X0077157Y0011087D02*
X0077157Y0009513D01*
X0077155Y0009418D01*
X0077149Y0009323D01*
X0077140Y0009228D01*
X0077126Y0009134D01*
X0077109Y0009041D01*
X0077088Y0008948D01*
X0077064Y0008856D01*
X0077035Y0008765D01*
X0077004Y0008675D01*
X0076968Y0008587D01*
X0076929Y0008500D01*
X0076886Y0008415D01*
X0076841Y0008332D01*
X0076791Y0008251D01*
X0076739Y0008171D01*
X0076683Y0008094D01*
X0076625Y0008019D01*
X0076563Y0007947D01*
X0076498Y0007877D01*
X0076431Y0007810D01*
X0076361Y0007745D01*
X0076289Y0007683D01*
X0076214Y0007625D01*
X0076137Y0007569D01*
X0076057Y0007517D01*
X0075976Y0007467D01*
X0075893Y0007422D01*
X0075808Y0007379D01*
X0075721Y0007340D01*
X0075633Y0007304D01*
X0075543Y0007273D01*
X0075452Y0007244D01*
X0075360Y0007220D01*
X0075267Y0007199D01*
X0075174Y0007182D01*
X0075080Y0007168D01*
X0074985Y0007159D01*
X0074890Y0007153D01*
X0074795Y0007151D01*
X0074795Y0007150D02*
X0070858Y0007150D01*
X0070858Y0007151D02*
X0070763Y0007153D01*
X0070668Y0007159D01*
X0070573Y0007168D01*
X0070479Y0007182D01*
X0070386Y0007199D01*
X0070293Y0007220D01*
X0070201Y0007244D01*
X0070110Y0007273D01*
X0070020Y0007304D01*
X0069932Y0007340D01*
X0069845Y0007379D01*
X0069760Y0007422D01*
X0069677Y0007467D01*
X0069596Y0007517D01*
X0069516Y0007569D01*
X0069439Y0007625D01*
X0069364Y0007683D01*
X0069292Y0007745D01*
X0069222Y0007810D01*
X0069155Y0007877D01*
X0069090Y0007947D01*
X0069028Y0008019D01*
X0068970Y0008094D01*
X0068914Y0008171D01*
X0068862Y0008251D01*
X0068812Y0008332D01*
X0068767Y0008415D01*
X0068724Y0008500D01*
X0068685Y0008587D01*
X0068649Y0008675D01*
X0068618Y0008765D01*
X0068589Y0008856D01*
X0068565Y0008948D01*
X0068544Y0009041D01*
X0068527Y0009134D01*
X0068513Y0009228D01*
X0068504Y0009323D01*
X0068498Y0009418D01*
X0068496Y0009513D01*
X0068496Y0011087D01*
X0068498Y0011182D01*
X0068504Y0011277D01*
X0068513Y0011372D01*
X0068527Y0011466D01*
X0068544Y0011559D01*
X0068565Y0011652D01*
X0068589Y0011744D01*
X0068618Y0011835D01*
X0068649Y0011925D01*
X0068685Y0012013D01*
X0068724Y0012100D01*
X0068767Y0012185D01*
X0068812Y0012268D01*
X0068862Y0012349D01*
X0068914Y0012429D01*
X0068970Y0012506D01*
X0069028Y0012581D01*
X0069090Y0012653D01*
X0069155Y0012723D01*
X0069222Y0012790D01*
X0069292Y0012855D01*
X0069364Y0012917D01*
X0069439Y0012975D01*
X0069516Y0013031D01*
X0069596Y0013083D01*
X0069677Y0013133D01*
X0069760Y0013178D01*
X0069845Y0013221D01*
X0069932Y0013260D01*
X0070020Y0013296D01*
X0070110Y0013327D01*
X0070201Y0013356D01*
X0070293Y0013380D01*
X0070386Y0013401D01*
X0070479Y0013418D01*
X0070573Y0013432D01*
X0070668Y0013441D01*
X0070763Y0013447D01*
X0070858Y0013449D01*
X0070858Y0013450D02*
X0074795Y0013450D01*
X0074795Y0013449D02*
X0074890Y0013447D01*
X0074985Y0013441D01*
X0075080Y0013432D01*
X0075174Y0013418D01*
X0075267Y0013401D01*
X0075360Y0013380D01*
X0075452Y0013356D01*
X0075543Y0013327D01*
X0075633Y0013296D01*
X0075721Y0013260D01*
X0075808Y0013221D01*
X0075893Y0013178D01*
X0075976Y0013133D01*
X0076057Y0013083D01*
X0076137Y0013031D01*
X0076214Y0012975D01*
X0076289Y0012917D01*
X0076361Y0012855D01*
X0076431Y0012790D01*
X0076498Y0012723D01*
X0076563Y0012653D01*
X0076625Y0012581D01*
X0076683Y0012506D01*
X0076739Y0012429D01*
X0076791Y0012349D01*
X0076841Y0012268D01*
X0076886Y0012185D01*
X0076929Y0012100D01*
X0076968Y0012013D01*
X0077004Y0011925D01*
X0077035Y0011835D01*
X0077064Y0011744D01*
X0077088Y0011652D01*
X0077109Y0011559D01*
X0077126Y0011466D01*
X0077140Y0011372D01*
X0077149Y0011277D01*
X0077155Y0011182D01*
X0077157Y0011087D01*
X0061778Y0012253D02*
X0059443Y0012253D01*
X0060610Y0012253D02*
X0060610Y0008750D01*
X0058095Y0009334D02*
X0057511Y0008750D01*
X0056343Y0008750D01*
X0055760Y0009334D01*
X0056343Y0010501D02*
X0057511Y0010501D01*
X0058095Y0009918D01*
X0058095Y0009334D01*
X0058095Y0011669D02*
X0057511Y0012253D01*
X0056343Y0012253D01*
X0055760Y0011669D01*
X0055760Y0011085D01*
X0056343Y0010501D01*
X0054412Y0010501D02*
X0053828Y0009918D01*
X0052076Y0009918D01*
X0052076Y0008750D02*
X0052076Y0012253D01*
X0053828Y0012253D01*
X0054412Y0011669D01*
X0054412Y0010501D01*
X0053244Y0009918D02*
X0054412Y0008750D01*
X0051193Y0101625D02*
X0048857Y0101625D01*
X0048273Y0102209D01*
X0048273Y0103377D01*
X0048857Y0103961D01*
X0050025Y0103961D02*
X0050025Y0102793D01*
X0050025Y0103961D02*
X0051193Y0103961D01*
X0051776Y0103377D01*
X0051776Y0102209D01*
X0051193Y0101625D01*
X0051776Y0105308D02*
X0048273Y0105308D01*
X0051776Y0107644D01*
X0048273Y0107644D01*
X0048273Y0108992D02*
X0048273Y0110743D01*
X0048857Y0111327D01*
X0051193Y0111327D01*
X0051776Y0110743D01*
X0051776Y0108992D01*
X0048273Y0108992D01*
X0048273Y0118467D02*
X0050025Y0118467D01*
X0049441Y0119635D01*
X0049441Y0120218D01*
X0050025Y0120802D01*
X0051193Y0120802D01*
X0051776Y0120218D01*
X0051776Y0119051D01*
X0051193Y0118467D01*
X0050609Y0122150D02*
X0051776Y0123318D01*
X0050609Y0124485D01*
X0048273Y0124485D01*
X0048273Y0122150D02*
X0050609Y0122150D01*
X0048273Y0120802D02*
X0048273Y0118467D01*
X0048857Y0127967D02*
X0048273Y0128551D01*
X0048273Y0129718D01*
X0048857Y0130302D01*
X0049441Y0130302D01*
X0050025Y0129718D01*
X0050609Y0130302D01*
X0051193Y0130302D01*
X0051776Y0129718D01*
X0051776Y0128551D01*
X0051193Y0127967D01*
X0050025Y0129135D02*
X0050025Y0129718D01*
X0050609Y0131650D02*
X0051776Y0132818D01*
X0050609Y0133985D01*
X0048273Y0133985D01*
X0048273Y0137239D02*
X0048273Y0138991D01*
X0048857Y0139574D01*
X0050025Y0139574D01*
X0050609Y0138991D01*
X0050609Y0137239D01*
X0051776Y0137239D02*
X0048273Y0137239D01*
X0050609Y0138407D02*
X0051776Y0139574D01*
X0051776Y0140922D02*
X0051776Y0142674D01*
X0051193Y0143258D01*
X0050609Y0142674D01*
X0050609Y0141506D01*
X0050025Y0140922D01*
X0049441Y0141506D01*
X0049441Y0143258D01*
X0049441Y0144605D02*
X0049441Y0145773D01*
X0048857Y0145189D02*
X0051193Y0145189D01*
X0051776Y0145773D01*
X0051393Y0149025D02*
X0051976Y0149609D01*
X0051976Y0150777D01*
X0051393Y0151361D01*
X0048473Y0151361D01*
X0049057Y0152708D02*
X0048473Y0153292D01*
X0048473Y0154460D01*
X0049057Y0155044D01*
X0050225Y0154460D02*
X0050225Y0153292D01*
X0049641Y0152708D01*
X0049057Y0152708D01*
X0050225Y0154460D02*
X0050809Y0155044D01*
X0051393Y0155044D01*
X0051976Y0154460D01*
X0051976Y0153292D01*
X0051393Y0152708D01*
X0051393Y0149025D02*
X0048473Y0149025D01*
X0048473Y0156392D02*
X0048473Y0158143D01*
X0049057Y0158727D01*
X0049641Y0158727D01*
X0050225Y0158143D01*
X0050225Y0156392D01*
X0050225Y0158143D02*
X0050809Y0158727D01*
X0051393Y0158727D01*
X0051976Y0158143D01*
X0051976Y0156392D01*
X0048473Y0156392D01*
X0055897Y0150851D02*
X0055897Y0171324D01*
X0089756Y0171324D01*
X0089756Y0150851D01*
X0055897Y0150851D01*
X0050609Y0131650D02*
X0048273Y0131650D01*
X0080143Y0149670D02*
X0080145Y0149717D01*
X0080151Y0149763D01*
X0080160Y0149809D01*
X0080174Y0149853D01*
X0080191Y0149897D01*
X0080212Y0149938D01*
X0080236Y0149978D01*
X0080263Y0150016D01*
X0080294Y0150051D01*
X0080327Y0150084D01*
X0080363Y0150114D01*
X0080402Y0150140D01*
X0080442Y0150164D01*
X0080484Y0150183D01*
X0080528Y0150200D01*
X0080573Y0150212D01*
X0080619Y0150221D01*
X0080665Y0150226D01*
X0080712Y0150227D01*
X0080758Y0150224D01*
X0080804Y0150217D01*
X0080850Y0150206D01*
X0080894Y0150192D01*
X0080937Y0150174D01*
X0080978Y0150152D01*
X0081018Y0150127D01*
X0081055Y0150099D01*
X0081090Y0150068D01*
X0081122Y0150034D01*
X0081151Y0149997D01*
X0081176Y0149959D01*
X0081199Y0149918D01*
X0081218Y0149875D01*
X0081233Y0149831D01*
X0081245Y0149786D01*
X0081253Y0149740D01*
X0081257Y0149693D01*
X0081257Y0149647D01*
X0081253Y0149600D01*
X0081245Y0149554D01*
X0081233Y0149509D01*
X0081218Y0149465D01*
X0081199Y0149422D01*
X0081176Y0149381D01*
X0081151Y0149343D01*
X0081122Y0149306D01*
X0081090Y0149272D01*
X0081055Y0149241D01*
X0081018Y0149213D01*
X0080979Y0149188D01*
X0080937Y0149166D01*
X0080894Y0149148D01*
X0080850Y0149134D01*
X0080804Y0149123D01*
X0080758Y0149116D01*
X0080712Y0149113D01*
X0080665Y0149114D01*
X0080619Y0149119D01*
X0080573Y0149128D01*
X0080528Y0149140D01*
X0080484Y0149157D01*
X0080442Y0149176D01*
X0080402Y0149200D01*
X0080363Y0149226D01*
X0080327Y0149256D01*
X0080294Y0149289D01*
X0080263Y0149324D01*
X0080236Y0149362D01*
X0080212Y0149402D01*
X0080191Y0149443D01*
X0080174Y0149487D01*
X0080160Y0149531D01*
X0080151Y0149577D01*
X0080145Y0149623D01*
X0080143Y0149670D01*
X0093873Y0149535D02*
X0097376Y0149535D01*
X0097376Y0150702D02*
X0097376Y0148367D01*
X0095041Y0148367D02*
X0093873Y0149535D01*
X0094457Y0152050D02*
X0093873Y0152634D01*
X0093873Y0153801D01*
X0094457Y0154385D01*
X0095041Y0154385D01*
X0095625Y0153801D01*
X0096209Y0154385D01*
X0096793Y0154385D01*
X0097376Y0153801D01*
X0097376Y0152634D01*
X0096793Y0152050D01*
X0095625Y0153218D02*
X0095625Y0153801D01*
X0095441Y0143885D02*
X0094857Y0143885D01*
X0094273Y0143301D01*
X0094273Y0142134D01*
X0094857Y0141550D01*
X0095441Y0143885D02*
X0097776Y0141550D01*
X0097776Y0143885D01*
X0097776Y0140202D02*
X0097776Y0137867D01*
X0097776Y0139035D02*
X0094273Y0139035D01*
X0095441Y0137867D01*
X0097376Y0133885D02*
X0097376Y0131550D01*
X0097376Y0132718D02*
X0093873Y0132718D01*
X0095041Y0131550D01*
X0093873Y0129035D02*
X0097376Y0129035D01*
X0097376Y0130202D02*
X0097376Y0127867D01*
X0095041Y0127867D02*
X0093873Y0129035D01*
X0094457Y0123885D02*
X0096793Y0121550D01*
X0097376Y0122134D01*
X0097376Y0123301D01*
X0096793Y0123885D01*
X0094457Y0123885D01*
X0093873Y0123301D01*
X0093873Y0122134D01*
X0094457Y0121550D01*
X0096793Y0121550D01*
X0097376Y0120202D02*
X0097376Y0117867D01*
X0097376Y0119035D02*
X0093873Y0119035D01*
X0095041Y0117867D01*
D12*
X0088723Y0061577D02*
X0086872Y0061575D01*
X0085022Y0061572D01*
X0084480Y0060998D01*
X0083939Y0060424D01*
X0083939Y0057286D01*
X0081774Y0057286D01*
X0081774Y0059608D01*
X0082758Y0059608D01*
X0082758Y0061577D01*
X0081108Y0061577D01*
X0080437Y0060922D01*
X0079766Y0060268D01*
X0079766Y0056519D01*
X0080444Y0055839D01*
X0081123Y0055160D01*
X0084747Y0055160D01*
X0085307Y0055721D01*
X0085867Y0056282D01*
X0085877Y0057994D01*
X0085888Y0059707D01*
X0087935Y0059707D01*
X0087956Y0057364D01*
X0087049Y0057364D01*
X0087049Y0055199D01*
X0088761Y0055199D01*
X0089303Y0055740D01*
X0089844Y0056281D01*
X0089844Y0060454D01*
X0089284Y0061015D01*
X0088723Y0061577D01*
X0088729Y0061571D02*
X0085021Y0061571D01*
X0085015Y0061565D02*
X0088736Y0061565D01*
X0088742Y0061558D02*
X0085009Y0061558D01*
X0085003Y0061552D02*
X0088748Y0061552D01*
X0088755Y0061546D02*
X0084996Y0061546D01*
X0084990Y0061539D02*
X0088761Y0061539D01*
X0088767Y0061533D02*
X0084984Y0061533D01*
X0084978Y0061526D02*
X0088774Y0061526D01*
X0088780Y0061520D02*
X0084972Y0061520D01*
X0084966Y0061514D02*
X0088787Y0061514D01*
X0088793Y0061507D02*
X0084960Y0061507D01*
X0084954Y0061501D02*
X0088799Y0061501D01*
X0088806Y0061495D02*
X0084948Y0061495D01*
X0084942Y0061488D02*
X0088812Y0061488D01*
X0088818Y0061482D02*
X0084936Y0061482D01*
X0084930Y0061475D02*
X0088825Y0061475D01*
X0088831Y0061469D02*
X0084924Y0061469D01*
X0084918Y0061463D02*
X0088838Y0061463D01*
X0088844Y0061456D02*
X0084912Y0061456D01*
X0084906Y0061450D02*
X0088850Y0061450D01*
X0088857Y0061443D02*
X0084900Y0061443D01*
X0084894Y0061437D02*
X0088863Y0061437D01*
X0088869Y0061431D02*
X0084888Y0061431D01*
X0084882Y0061424D02*
X0088876Y0061424D01*
X0088882Y0061418D02*
X0084876Y0061418D01*
X0084870Y0061412D02*
X0088889Y0061412D01*
X0088895Y0061405D02*
X0084864Y0061405D01*
X0084858Y0061399D02*
X0088901Y0061399D01*
X0088908Y0061392D02*
X0084852Y0061392D01*
X0084846Y0061386D02*
X0088914Y0061386D01*
X0088920Y0061380D02*
X0084840Y0061380D01*
X0084834Y0061373D02*
X0088927Y0061373D01*
X0088933Y0061367D02*
X0084828Y0061367D01*
X0084822Y0061360D02*
X0088940Y0061360D01*
X0088946Y0061354D02*
X0084816Y0061354D01*
X0084810Y0061348D02*
X0088952Y0061348D01*
X0088959Y0061341D02*
X0084804Y0061341D01*
X0084798Y0061335D02*
X0088965Y0061335D01*
X0088971Y0061329D02*
X0084792Y0061329D01*
X0084786Y0061322D02*
X0088978Y0061322D01*
X0088984Y0061316D02*
X0084780Y0061316D01*
X0084774Y0061309D02*
X0088991Y0061309D01*
X0088997Y0061303D02*
X0084768Y0061303D01*
X0084762Y0061297D02*
X0089003Y0061297D01*
X0089010Y0061290D02*
X0084756Y0061290D01*
X0084750Y0061284D02*
X0089016Y0061284D01*
X0089022Y0061277D02*
X0084744Y0061277D01*
X0084738Y0061271D02*
X0089029Y0061271D01*
X0089035Y0061265D02*
X0084732Y0061265D01*
X0084726Y0061258D02*
X0089042Y0061258D01*
X0089048Y0061252D02*
X0084720Y0061252D01*
X0084714Y0061246D02*
X0089054Y0061246D01*
X0089061Y0061239D02*
X0084708Y0061239D01*
X0084702Y0061233D02*
X0089067Y0061233D01*
X0089073Y0061226D02*
X0084695Y0061226D01*
X0084689Y0061220D02*
X0089080Y0061220D01*
X0089086Y0061214D02*
X0084683Y0061214D01*
X0084677Y0061207D02*
X0089092Y0061207D01*
X0089099Y0061201D02*
X0084671Y0061201D01*
X0084665Y0061194D02*
X0089105Y0061194D01*
X0089112Y0061188D02*
X0084659Y0061188D01*
X0084653Y0061182D02*
X0089118Y0061182D01*
X0089124Y0061175D02*
X0084647Y0061175D01*
X0084641Y0061169D02*
X0089131Y0061169D01*
X0089137Y0061163D02*
X0084635Y0061163D01*
X0084629Y0061156D02*
X0089143Y0061156D01*
X0089150Y0061150D02*
X0084623Y0061150D01*
X0084617Y0061143D02*
X0089156Y0061143D01*
X0089163Y0061137D02*
X0084611Y0061137D01*
X0084605Y0061131D02*
X0089169Y0061131D01*
X0089175Y0061124D02*
X0084599Y0061124D01*
X0084593Y0061118D02*
X0089182Y0061118D01*
X0089188Y0061111D02*
X0084587Y0061111D01*
X0084581Y0061105D02*
X0089194Y0061105D01*
X0089201Y0061099D02*
X0084575Y0061099D01*
X0084569Y0061092D02*
X0089207Y0061092D01*
X0089214Y0061086D02*
X0084563Y0061086D01*
X0084557Y0061080D02*
X0089220Y0061080D01*
X0089226Y0061073D02*
X0084551Y0061073D01*
X0084545Y0061067D02*
X0089233Y0061067D01*
X0089239Y0061060D02*
X0084539Y0061060D01*
X0084533Y0061054D02*
X0089245Y0061054D01*
X0089252Y0061048D02*
X0084527Y0061048D01*
X0084521Y0061041D02*
X0089258Y0061041D01*
X0089265Y0061035D02*
X0084515Y0061035D01*
X0084509Y0061028D02*
X0089271Y0061028D01*
X0089277Y0061022D02*
X0084503Y0061022D01*
X0084497Y0061016D02*
X0089284Y0061016D01*
X0089290Y0061009D02*
X0084491Y0061009D01*
X0084485Y0061003D02*
X0089296Y0061003D01*
X0089303Y0060996D02*
X0084479Y0060996D01*
X0084473Y0060990D02*
X0089309Y0060990D01*
X0089316Y0060984D02*
X0084467Y0060984D01*
X0084461Y0060977D02*
X0089322Y0060977D01*
X0089328Y0060971D02*
X0084455Y0060971D01*
X0084449Y0060965D02*
X0089335Y0060965D01*
X0089341Y0060958D02*
X0084443Y0060958D01*
X0084437Y0060952D02*
X0089347Y0060952D01*
X0089354Y0060945D02*
X0084431Y0060945D01*
X0084425Y0060939D02*
X0089360Y0060939D01*
X0089367Y0060933D02*
X0084419Y0060933D01*
X0084413Y0060926D02*
X0089373Y0060926D01*
X0089379Y0060920D02*
X0084406Y0060920D01*
X0084400Y0060913D02*
X0089386Y0060913D01*
X0089392Y0060907D02*
X0084394Y0060907D01*
X0084388Y0060901D02*
X0089398Y0060901D01*
X0089405Y0060894D02*
X0084382Y0060894D01*
X0084376Y0060888D02*
X0089411Y0060888D01*
X0089418Y0060882D02*
X0084370Y0060882D01*
X0084364Y0060875D02*
X0089424Y0060875D01*
X0089430Y0060869D02*
X0084358Y0060869D01*
X0084352Y0060862D02*
X0089437Y0060862D01*
X0089443Y0060856D02*
X0084346Y0060856D01*
X0084340Y0060850D02*
X0089449Y0060850D01*
X0089456Y0060843D02*
X0084334Y0060843D01*
X0084328Y0060837D02*
X0089462Y0060837D01*
X0089469Y0060830D02*
X0084322Y0060830D01*
X0084316Y0060824D02*
X0089475Y0060824D01*
X0089481Y0060818D02*
X0084310Y0060818D01*
X0084304Y0060811D02*
X0089488Y0060811D01*
X0089494Y0060805D02*
X0084298Y0060805D01*
X0084292Y0060799D02*
X0089500Y0060799D01*
X0089507Y0060792D02*
X0084286Y0060792D01*
X0084280Y0060786D02*
X0089513Y0060786D01*
X0089520Y0060779D02*
X0084274Y0060779D01*
X0084268Y0060773D02*
X0089526Y0060773D01*
X0089532Y0060767D02*
X0084262Y0060767D01*
X0084256Y0060760D02*
X0089539Y0060760D01*
X0089545Y0060754D02*
X0084250Y0060754D01*
X0084244Y0060747D02*
X0089551Y0060747D01*
X0089558Y0060741D02*
X0084238Y0060741D01*
X0084232Y0060735D02*
X0089564Y0060735D01*
X0089571Y0060728D02*
X0084226Y0060728D01*
X0084220Y0060722D02*
X0089577Y0060722D01*
X0089583Y0060716D02*
X0084214Y0060716D01*
X0084208Y0060709D02*
X0089590Y0060709D01*
X0089596Y0060703D02*
X0084202Y0060703D01*
X0084196Y0060696D02*
X0089602Y0060696D01*
X0089609Y0060690D02*
X0084190Y0060690D01*
X0084184Y0060684D02*
X0089615Y0060684D01*
X0089622Y0060677D02*
X0084178Y0060677D01*
X0084172Y0060671D02*
X0089628Y0060671D01*
X0089634Y0060664D02*
X0084166Y0060664D01*
X0084160Y0060658D02*
X0089641Y0060658D01*
X0089647Y0060652D02*
X0084154Y0060652D01*
X0084148Y0060645D02*
X0089653Y0060645D01*
X0089660Y0060639D02*
X0084142Y0060639D01*
X0084136Y0060633D02*
X0089666Y0060633D01*
X0089673Y0060626D02*
X0084130Y0060626D01*
X0084124Y0060620D02*
X0089679Y0060620D01*
X0089685Y0060613D02*
X0084118Y0060613D01*
X0084111Y0060607D02*
X0089692Y0060607D01*
X0089698Y0060601D02*
X0084105Y0060601D01*
X0084099Y0060594D02*
X0089704Y0060594D01*
X0089711Y0060588D02*
X0084093Y0060588D01*
X0084087Y0060581D02*
X0089717Y0060581D01*
X0089724Y0060575D02*
X0084081Y0060575D01*
X0084075Y0060569D02*
X0089730Y0060569D01*
X0089736Y0060562D02*
X0084069Y0060562D01*
X0084063Y0060556D02*
X0089743Y0060556D01*
X0089749Y0060550D02*
X0084057Y0060550D01*
X0084051Y0060543D02*
X0089755Y0060543D01*
X0089762Y0060537D02*
X0084045Y0060537D01*
X0084039Y0060530D02*
X0089768Y0060530D01*
X0089774Y0060524D02*
X0084033Y0060524D01*
X0084027Y0060518D02*
X0089781Y0060518D01*
X0089787Y0060511D02*
X0084021Y0060511D01*
X0084015Y0060505D02*
X0089794Y0060505D01*
X0089800Y0060498D02*
X0084009Y0060498D01*
X0084003Y0060492D02*
X0089806Y0060492D01*
X0089813Y0060486D02*
X0083997Y0060486D01*
X0083991Y0060479D02*
X0089819Y0060479D01*
X0089825Y0060473D02*
X0083985Y0060473D01*
X0083979Y0060467D02*
X0089832Y0060467D01*
X0089838Y0060460D02*
X0083973Y0060460D01*
X0083967Y0060454D02*
X0089844Y0060454D01*
X0089844Y0060447D02*
X0083961Y0060447D01*
X0083955Y0060441D02*
X0089844Y0060441D01*
X0089844Y0060435D02*
X0083949Y0060435D01*
X0083943Y0060428D02*
X0089844Y0060428D01*
X0089844Y0060422D02*
X0083939Y0060422D01*
X0083939Y0060415D02*
X0089844Y0060415D01*
X0089844Y0060409D02*
X0083939Y0060409D01*
X0083939Y0060403D02*
X0089844Y0060403D01*
X0089844Y0060396D02*
X0083939Y0060396D01*
X0083939Y0060390D02*
X0089844Y0060390D01*
X0089844Y0060384D02*
X0083939Y0060384D01*
X0083939Y0060377D02*
X0089844Y0060377D01*
X0089844Y0060371D02*
X0083939Y0060371D01*
X0083939Y0060364D02*
X0089844Y0060364D01*
X0089844Y0060358D02*
X0083939Y0060358D01*
X0083939Y0060352D02*
X0089844Y0060352D01*
X0089844Y0060345D02*
X0083939Y0060345D01*
X0083939Y0060339D02*
X0089844Y0060339D01*
X0089844Y0060332D02*
X0083939Y0060332D01*
X0083939Y0060326D02*
X0089844Y0060326D01*
X0089844Y0060320D02*
X0083939Y0060320D01*
X0083939Y0060313D02*
X0089844Y0060313D01*
X0089844Y0060307D02*
X0083939Y0060307D01*
X0083939Y0060300D02*
X0089844Y0060300D01*
X0089844Y0060294D02*
X0083939Y0060294D01*
X0083939Y0060288D02*
X0089844Y0060288D01*
X0089844Y0060281D02*
X0083939Y0060281D01*
X0083939Y0060275D02*
X0089844Y0060275D01*
X0089844Y0060269D02*
X0083939Y0060269D01*
X0083939Y0060262D02*
X0089844Y0060262D01*
X0089844Y0060256D02*
X0083939Y0060256D01*
X0083939Y0060249D02*
X0089844Y0060249D01*
X0089844Y0060243D02*
X0083939Y0060243D01*
X0083939Y0060237D02*
X0089844Y0060237D01*
X0089844Y0060230D02*
X0083939Y0060230D01*
X0083939Y0060224D02*
X0089844Y0060224D01*
X0089844Y0060217D02*
X0083939Y0060217D01*
X0083939Y0060211D02*
X0089844Y0060211D01*
X0089844Y0060205D02*
X0083939Y0060205D01*
X0083939Y0060198D02*
X0089844Y0060198D01*
X0089844Y0060192D02*
X0083939Y0060192D01*
X0083939Y0060186D02*
X0089844Y0060186D01*
X0089844Y0060179D02*
X0083939Y0060179D01*
X0083939Y0060173D02*
X0089844Y0060173D01*
X0089844Y0060166D02*
X0083939Y0060166D01*
X0083939Y0060160D02*
X0089844Y0060160D01*
X0089844Y0060154D02*
X0083939Y0060154D01*
X0083939Y0060147D02*
X0089844Y0060147D01*
X0089844Y0060141D02*
X0083939Y0060141D01*
X0083939Y0060134D02*
X0089844Y0060134D01*
X0089844Y0060128D02*
X0083939Y0060128D01*
X0083939Y0060122D02*
X0089844Y0060122D01*
X0089844Y0060115D02*
X0083939Y0060115D01*
X0083939Y0060109D02*
X0089844Y0060109D01*
X0089844Y0060103D02*
X0083939Y0060103D01*
X0083939Y0060096D02*
X0089844Y0060096D01*
X0089844Y0060090D02*
X0083939Y0060090D01*
X0083939Y0060083D02*
X0089844Y0060083D01*
X0089844Y0060077D02*
X0083939Y0060077D01*
X0083939Y0060071D02*
X0089844Y0060071D01*
X0089844Y0060064D02*
X0083939Y0060064D01*
X0083939Y0060058D02*
X0089844Y0060058D01*
X0089844Y0060051D02*
X0083939Y0060051D01*
X0083939Y0060045D02*
X0089844Y0060045D01*
X0089844Y0060039D02*
X0083939Y0060039D01*
X0083939Y0060032D02*
X0089844Y0060032D01*
X0089844Y0060026D02*
X0083939Y0060026D01*
X0083939Y0060020D02*
X0089844Y0060020D01*
X0089844Y0060013D02*
X0083939Y0060013D01*
X0083939Y0060007D02*
X0089844Y0060007D01*
X0089844Y0060000D02*
X0083939Y0060000D01*
X0083939Y0059994D02*
X0089844Y0059994D01*
X0089844Y0059988D02*
X0083939Y0059988D01*
X0083939Y0059981D02*
X0089844Y0059981D01*
X0089844Y0059975D02*
X0083939Y0059975D01*
X0083939Y0059968D02*
X0089844Y0059968D01*
X0089844Y0059962D02*
X0083939Y0059962D01*
X0083939Y0059956D02*
X0089844Y0059956D01*
X0089844Y0059949D02*
X0083939Y0059949D01*
X0083939Y0059943D02*
X0089844Y0059943D01*
X0089844Y0059937D02*
X0083939Y0059937D01*
X0083939Y0059930D02*
X0089844Y0059930D01*
X0089844Y0059924D02*
X0083939Y0059924D01*
X0083939Y0059917D02*
X0089844Y0059917D01*
X0089844Y0059911D02*
X0083939Y0059911D01*
X0083939Y0059905D02*
X0089844Y0059905D01*
X0089844Y0059898D02*
X0083939Y0059898D01*
X0083939Y0059892D02*
X0089844Y0059892D01*
X0089844Y0059885D02*
X0083939Y0059885D01*
X0083939Y0059879D02*
X0089844Y0059879D01*
X0089844Y0059873D02*
X0083939Y0059873D01*
X0083939Y0059866D02*
X0089844Y0059866D01*
X0089844Y0059860D02*
X0083939Y0059860D01*
X0083939Y0059854D02*
X0089844Y0059854D01*
X0089844Y0059847D02*
X0083939Y0059847D01*
X0083939Y0059841D02*
X0089844Y0059841D01*
X0089844Y0059834D02*
X0083939Y0059834D01*
X0083939Y0059828D02*
X0089844Y0059828D01*
X0089844Y0059822D02*
X0083939Y0059822D01*
X0083939Y0059815D02*
X0089844Y0059815D01*
X0089844Y0059809D02*
X0083939Y0059809D01*
X0083939Y0059802D02*
X0089844Y0059802D01*
X0089844Y0059796D02*
X0083939Y0059796D01*
X0083939Y0059790D02*
X0089844Y0059790D01*
X0089844Y0059783D02*
X0083939Y0059783D01*
X0083939Y0059777D02*
X0089844Y0059777D01*
X0089844Y0059771D02*
X0083939Y0059771D01*
X0083939Y0059764D02*
X0089844Y0059764D01*
X0089844Y0059758D02*
X0083939Y0059758D01*
X0083939Y0059751D02*
X0089844Y0059751D01*
X0089844Y0059745D02*
X0083939Y0059745D01*
X0083939Y0059739D02*
X0089844Y0059739D01*
X0089844Y0059732D02*
X0083939Y0059732D01*
X0083939Y0059726D02*
X0089844Y0059726D01*
X0089844Y0059719D02*
X0083939Y0059719D01*
X0083939Y0059713D02*
X0089844Y0059713D01*
X0089844Y0059707D02*
X0087935Y0059707D01*
X0087935Y0059700D02*
X0089844Y0059700D01*
X0089844Y0059694D02*
X0087935Y0059694D01*
X0087935Y0059687D02*
X0089844Y0059687D01*
X0089844Y0059681D02*
X0087935Y0059681D01*
X0087935Y0059675D02*
X0089844Y0059675D01*
X0089844Y0059668D02*
X0087935Y0059668D01*
X0087935Y0059662D02*
X0089844Y0059662D01*
X0089844Y0059656D02*
X0087935Y0059656D01*
X0087935Y0059649D02*
X0089844Y0059649D01*
X0089844Y0059643D02*
X0087936Y0059643D01*
X0087936Y0059636D02*
X0089844Y0059636D01*
X0089844Y0059630D02*
X0087936Y0059630D01*
X0087936Y0059624D02*
X0089844Y0059624D01*
X0089844Y0059617D02*
X0087936Y0059617D01*
X0087936Y0059611D02*
X0089844Y0059611D01*
X0089844Y0059604D02*
X0087936Y0059604D01*
X0087936Y0059598D02*
X0089844Y0059598D01*
X0089844Y0059592D02*
X0087936Y0059592D01*
X0087936Y0059585D02*
X0089844Y0059585D01*
X0089844Y0059579D02*
X0087936Y0059579D01*
X0087936Y0059573D02*
X0089844Y0059573D01*
X0089844Y0059566D02*
X0087936Y0059566D01*
X0087936Y0059560D02*
X0089844Y0059560D01*
X0089844Y0059553D02*
X0087936Y0059553D01*
X0087936Y0059547D02*
X0089844Y0059547D01*
X0089844Y0059541D02*
X0087936Y0059541D01*
X0087937Y0059534D02*
X0089844Y0059534D01*
X0089844Y0059528D02*
X0087937Y0059528D01*
X0087937Y0059521D02*
X0089844Y0059521D01*
X0089844Y0059515D02*
X0087937Y0059515D01*
X0087937Y0059509D02*
X0089844Y0059509D01*
X0089844Y0059502D02*
X0087937Y0059502D01*
X0087937Y0059496D02*
X0089844Y0059496D01*
X0089844Y0059490D02*
X0087937Y0059490D01*
X0087937Y0059483D02*
X0089844Y0059483D01*
X0089844Y0059477D02*
X0087937Y0059477D01*
X0087937Y0059470D02*
X0089844Y0059470D01*
X0089844Y0059464D02*
X0087937Y0059464D01*
X0087937Y0059458D02*
X0089844Y0059458D01*
X0089844Y0059451D02*
X0087937Y0059451D01*
X0087937Y0059445D02*
X0089844Y0059445D01*
X0089844Y0059438D02*
X0087937Y0059438D01*
X0087937Y0059432D02*
X0089844Y0059432D01*
X0089844Y0059426D02*
X0087937Y0059426D01*
X0087938Y0059419D02*
X0089844Y0059419D01*
X0089844Y0059413D02*
X0087938Y0059413D01*
X0087938Y0059407D02*
X0089844Y0059407D01*
X0089844Y0059400D02*
X0087938Y0059400D01*
X0087938Y0059394D02*
X0089844Y0059394D01*
X0089844Y0059387D02*
X0087938Y0059387D01*
X0087938Y0059381D02*
X0089844Y0059381D01*
X0089844Y0059375D02*
X0087938Y0059375D01*
X0087938Y0059368D02*
X0089844Y0059368D01*
X0089844Y0059362D02*
X0087938Y0059362D01*
X0087938Y0059355D02*
X0089844Y0059355D01*
X0089844Y0059349D02*
X0087938Y0059349D01*
X0087938Y0059343D02*
X0089844Y0059343D01*
X0089844Y0059336D02*
X0087938Y0059336D01*
X0087938Y0059330D02*
X0089844Y0059330D01*
X0089844Y0059324D02*
X0087938Y0059324D01*
X0087938Y0059317D02*
X0089844Y0059317D01*
X0089844Y0059311D02*
X0087938Y0059311D01*
X0087939Y0059304D02*
X0089844Y0059304D01*
X0089844Y0059298D02*
X0087939Y0059298D01*
X0087939Y0059292D02*
X0089844Y0059292D01*
X0089844Y0059285D02*
X0087939Y0059285D01*
X0087939Y0059279D02*
X0089844Y0059279D01*
X0089844Y0059272D02*
X0087939Y0059272D01*
X0087939Y0059266D02*
X0089844Y0059266D01*
X0089844Y0059260D02*
X0087939Y0059260D01*
X0087939Y0059253D02*
X0089844Y0059253D01*
X0089844Y0059247D02*
X0087939Y0059247D01*
X0087939Y0059241D02*
X0089844Y0059241D01*
X0089844Y0059234D02*
X0087939Y0059234D01*
X0087939Y0059228D02*
X0089844Y0059228D01*
X0089844Y0059221D02*
X0087939Y0059221D01*
X0087939Y0059215D02*
X0089844Y0059215D01*
X0089844Y0059209D02*
X0087939Y0059209D01*
X0087939Y0059202D02*
X0089844Y0059202D01*
X0089844Y0059196D02*
X0087940Y0059196D01*
X0087940Y0059189D02*
X0089844Y0059189D01*
X0089844Y0059183D02*
X0087940Y0059183D01*
X0087940Y0059177D02*
X0089844Y0059177D01*
X0089844Y0059170D02*
X0087940Y0059170D01*
X0087940Y0059164D02*
X0089844Y0059164D01*
X0089844Y0059158D02*
X0087940Y0059158D01*
X0087940Y0059151D02*
X0089844Y0059151D01*
X0089844Y0059145D02*
X0087940Y0059145D01*
X0087940Y0059138D02*
X0089844Y0059138D01*
X0089844Y0059132D02*
X0087940Y0059132D01*
X0087940Y0059126D02*
X0089844Y0059126D01*
X0089844Y0059119D02*
X0087940Y0059119D01*
X0087940Y0059113D02*
X0089844Y0059113D01*
X0089844Y0059106D02*
X0087940Y0059106D01*
X0087940Y0059100D02*
X0089844Y0059100D01*
X0089844Y0059094D02*
X0087940Y0059094D01*
X0087940Y0059087D02*
X0089844Y0059087D01*
X0089844Y0059081D02*
X0087941Y0059081D01*
X0087941Y0059075D02*
X0089844Y0059075D01*
X0089844Y0059068D02*
X0087941Y0059068D01*
X0087941Y0059062D02*
X0089844Y0059062D01*
X0089844Y0059055D02*
X0087941Y0059055D01*
X0087941Y0059049D02*
X0089844Y0059049D01*
X0089844Y0059043D02*
X0087941Y0059043D01*
X0087941Y0059036D02*
X0089844Y0059036D01*
X0089844Y0059030D02*
X0087941Y0059030D01*
X0087941Y0059023D02*
X0089844Y0059023D01*
X0089844Y0059017D02*
X0087941Y0059017D01*
X0087941Y0059011D02*
X0089844Y0059011D01*
X0089844Y0059004D02*
X0087941Y0059004D01*
X0087941Y0058998D02*
X0089844Y0058998D01*
X0089844Y0058991D02*
X0087941Y0058991D01*
X0087941Y0058985D02*
X0089844Y0058985D01*
X0089844Y0058979D02*
X0087941Y0058979D01*
X0087942Y0058972D02*
X0089844Y0058972D01*
X0089844Y0058966D02*
X0087942Y0058966D01*
X0087942Y0058960D02*
X0089844Y0058960D01*
X0089844Y0058953D02*
X0087942Y0058953D01*
X0087942Y0058947D02*
X0089844Y0058947D01*
X0089844Y0058940D02*
X0087942Y0058940D01*
X0087942Y0058934D02*
X0089844Y0058934D01*
X0089844Y0058928D02*
X0087942Y0058928D01*
X0087942Y0058921D02*
X0089844Y0058921D01*
X0089844Y0058915D02*
X0087942Y0058915D01*
X0087942Y0058908D02*
X0089844Y0058908D01*
X0089844Y0058902D02*
X0087942Y0058902D01*
X0087942Y0058896D02*
X0089844Y0058896D01*
X0089844Y0058889D02*
X0087942Y0058889D01*
X0087942Y0058883D02*
X0089844Y0058883D01*
X0089844Y0058877D02*
X0087942Y0058877D01*
X0087942Y0058870D02*
X0089844Y0058870D01*
X0089844Y0058864D02*
X0087942Y0058864D01*
X0087943Y0058857D02*
X0089844Y0058857D01*
X0089844Y0058851D02*
X0087943Y0058851D01*
X0087943Y0058845D02*
X0089844Y0058845D01*
X0089844Y0058838D02*
X0087943Y0058838D01*
X0087943Y0058832D02*
X0089844Y0058832D01*
X0089844Y0058825D02*
X0087943Y0058825D01*
X0087943Y0058819D02*
X0089844Y0058819D01*
X0089844Y0058813D02*
X0087943Y0058813D01*
X0087943Y0058806D02*
X0089844Y0058806D01*
X0089844Y0058800D02*
X0087943Y0058800D01*
X0087943Y0058794D02*
X0089844Y0058794D01*
X0089844Y0058787D02*
X0087943Y0058787D01*
X0087943Y0058781D02*
X0089844Y0058781D01*
X0089844Y0058774D02*
X0087943Y0058774D01*
X0087943Y0058768D02*
X0089844Y0058768D01*
X0089844Y0058762D02*
X0087943Y0058762D01*
X0087943Y0058755D02*
X0089844Y0058755D01*
X0089844Y0058749D02*
X0087944Y0058749D01*
X0087944Y0058742D02*
X0089844Y0058742D01*
X0089844Y0058736D02*
X0087944Y0058736D01*
X0087944Y0058730D02*
X0089844Y0058730D01*
X0089844Y0058723D02*
X0087944Y0058723D01*
X0087944Y0058717D02*
X0089844Y0058717D01*
X0089844Y0058711D02*
X0087944Y0058711D01*
X0087944Y0058704D02*
X0089844Y0058704D01*
X0089844Y0058698D02*
X0087944Y0058698D01*
X0087944Y0058691D02*
X0089844Y0058691D01*
X0089844Y0058685D02*
X0087944Y0058685D01*
X0087944Y0058679D02*
X0089844Y0058679D01*
X0089844Y0058672D02*
X0087944Y0058672D01*
X0087944Y0058666D02*
X0089844Y0058666D01*
X0089844Y0058659D02*
X0087944Y0058659D01*
X0087944Y0058653D02*
X0089844Y0058653D01*
X0089844Y0058647D02*
X0087944Y0058647D01*
X0087944Y0058640D02*
X0089844Y0058640D01*
X0089844Y0058634D02*
X0087945Y0058634D01*
X0087945Y0058628D02*
X0089844Y0058628D01*
X0089844Y0058621D02*
X0087945Y0058621D01*
X0087945Y0058615D02*
X0089844Y0058615D01*
X0089844Y0058608D02*
X0087945Y0058608D01*
X0087945Y0058602D02*
X0089844Y0058602D01*
X0089844Y0058596D02*
X0087945Y0058596D01*
X0087945Y0058589D02*
X0089844Y0058589D01*
X0089844Y0058583D02*
X0087945Y0058583D01*
X0087945Y0058576D02*
X0089844Y0058576D01*
X0089844Y0058570D02*
X0087945Y0058570D01*
X0087945Y0058564D02*
X0089844Y0058564D01*
X0089844Y0058557D02*
X0087945Y0058557D01*
X0087945Y0058551D02*
X0089844Y0058551D01*
X0089844Y0058545D02*
X0087945Y0058545D01*
X0087945Y0058538D02*
X0089844Y0058538D01*
X0089844Y0058532D02*
X0087945Y0058532D01*
X0087945Y0058525D02*
X0089844Y0058525D01*
X0089844Y0058519D02*
X0087946Y0058519D01*
X0087946Y0058513D02*
X0089844Y0058513D01*
X0089844Y0058506D02*
X0087946Y0058506D01*
X0087946Y0058500D02*
X0089844Y0058500D01*
X0089844Y0058493D02*
X0087946Y0058493D01*
X0087946Y0058487D02*
X0089844Y0058487D01*
X0089844Y0058481D02*
X0087946Y0058481D01*
X0087946Y0058474D02*
X0089844Y0058474D01*
X0089844Y0058468D02*
X0087946Y0058468D01*
X0087946Y0058462D02*
X0089844Y0058462D01*
X0089844Y0058455D02*
X0087946Y0058455D01*
X0087946Y0058449D02*
X0089844Y0058449D01*
X0089844Y0058442D02*
X0087946Y0058442D01*
X0087946Y0058436D02*
X0089844Y0058436D01*
X0089844Y0058430D02*
X0087946Y0058430D01*
X0087946Y0058423D02*
X0089844Y0058423D01*
X0089844Y0058417D02*
X0087946Y0058417D01*
X0087947Y0058410D02*
X0089844Y0058410D01*
X0089844Y0058404D02*
X0087947Y0058404D01*
X0087947Y0058398D02*
X0089844Y0058398D01*
X0089844Y0058391D02*
X0087947Y0058391D01*
X0087947Y0058385D02*
X0089844Y0058385D01*
X0089844Y0058379D02*
X0087947Y0058379D01*
X0087947Y0058372D02*
X0089844Y0058372D01*
X0089844Y0058366D02*
X0087947Y0058366D01*
X0087947Y0058359D02*
X0089844Y0058359D01*
X0089844Y0058353D02*
X0087947Y0058353D01*
X0087947Y0058347D02*
X0089844Y0058347D01*
X0089844Y0058340D02*
X0087947Y0058340D01*
X0087947Y0058334D02*
X0089844Y0058334D01*
X0089844Y0058327D02*
X0087947Y0058327D01*
X0087947Y0058321D02*
X0089844Y0058321D01*
X0089844Y0058315D02*
X0087947Y0058315D01*
X0087947Y0058308D02*
X0089844Y0058308D01*
X0089844Y0058302D02*
X0087947Y0058302D01*
X0087948Y0058295D02*
X0089844Y0058295D01*
X0089844Y0058289D02*
X0087948Y0058289D01*
X0087948Y0058283D02*
X0089844Y0058283D01*
X0089844Y0058276D02*
X0087948Y0058276D01*
X0087948Y0058270D02*
X0089844Y0058270D01*
X0089844Y0058264D02*
X0087948Y0058264D01*
X0087948Y0058257D02*
X0089844Y0058257D01*
X0089844Y0058251D02*
X0087948Y0058251D01*
X0087948Y0058244D02*
X0089844Y0058244D01*
X0089844Y0058238D02*
X0087948Y0058238D01*
X0087948Y0058232D02*
X0089844Y0058232D01*
X0089844Y0058225D02*
X0087948Y0058225D01*
X0087948Y0058219D02*
X0089844Y0058219D01*
X0089844Y0058212D02*
X0087948Y0058212D01*
X0087948Y0058206D02*
X0089844Y0058206D01*
X0089844Y0058200D02*
X0087948Y0058200D01*
X0087948Y0058193D02*
X0089844Y0058193D01*
X0089844Y0058187D02*
X0087949Y0058187D01*
X0087949Y0058181D02*
X0089844Y0058181D01*
X0089844Y0058174D02*
X0087949Y0058174D01*
X0087949Y0058168D02*
X0089844Y0058168D01*
X0089844Y0058161D02*
X0087949Y0058161D01*
X0087949Y0058155D02*
X0089844Y0058155D01*
X0089844Y0058149D02*
X0087949Y0058149D01*
X0087949Y0058142D02*
X0089844Y0058142D01*
X0089844Y0058136D02*
X0087949Y0058136D01*
X0087949Y0058129D02*
X0089844Y0058129D01*
X0089844Y0058123D02*
X0087949Y0058123D01*
X0087949Y0058117D02*
X0089844Y0058117D01*
X0089844Y0058110D02*
X0087949Y0058110D01*
X0087949Y0058104D02*
X0089844Y0058104D01*
X0089844Y0058098D02*
X0087949Y0058098D01*
X0087949Y0058091D02*
X0089844Y0058091D01*
X0089844Y0058085D02*
X0087949Y0058085D01*
X0087949Y0058078D02*
X0089844Y0058078D01*
X0089844Y0058072D02*
X0087950Y0058072D01*
X0087950Y0058066D02*
X0089844Y0058066D01*
X0089844Y0058059D02*
X0087950Y0058059D01*
X0087950Y0058053D02*
X0089844Y0058053D01*
X0089844Y0058046D02*
X0087950Y0058046D01*
X0087950Y0058040D02*
X0089844Y0058040D01*
X0089844Y0058034D02*
X0087950Y0058034D01*
X0087950Y0058027D02*
X0089844Y0058027D01*
X0089844Y0058021D02*
X0087950Y0058021D01*
X0087950Y0058015D02*
X0089844Y0058015D01*
X0089844Y0058008D02*
X0087950Y0058008D01*
X0087950Y0058002D02*
X0089844Y0058002D01*
X0089844Y0057995D02*
X0087950Y0057995D01*
X0087950Y0057989D02*
X0089844Y0057989D01*
X0089844Y0057983D02*
X0087950Y0057983D01*
X0087950Y0057976D02*
X0089844Y0057976D01*
X0089844Y0057970D02*
X0087950Y0057970D01*
X0087951Y0057963D02*
X0089844Y0057963D01*
X0089844Y0057957D02*
X0087951Y0057957D01*
X0087951Y0057951D02*
X0089844Y0057951D01*
X0089844Y0057944D02*
X0087951Y0057944D01*
X0087951Y0057938D02*
X0089844Y0057938D01*
X0089844Y0057932D02*
X0087951Y0057932D01*
X0087951Y0057925D02*
X0089844Y0057925D01*
X0089844Y0057919D02*
X0087951Y0057919D01*
X0087951Y0057912D02*
X0089844Y0057912D01*
X0089844Y0057906D02*
X0087951Y0057906D01*
X0087951Y0057900D02*
X0089844Y0057900D01*
X0089844Y0057893D02*
X0087951Y0057893D01*
X0087951Y0057887D02*
X0089844Y0057887D01*
X0089844Y0057880D02*
X0087951Y0057880D01*
X0087951Y0057874D02*
X0089844Y0057874D01*
X0089844Y0057868D02*
X0087951Y0057868D01*
X0087951Y0057861D02*
X0089844Y0057861D01*
X0089844Y0057855D02*
X0087951Y0057855D01*
X0087952Y0057849D02*
X0089844Y0057849D01*
X0089844Y0057842D02*
X0087952Y0057842D01*
X0087952Y0057836D02*
X0089844Y0057836D01*
X0089844Y0057829D02*
X0087952Y0057829D01*
X0087952Y0057823D02*
X0089844Y0057823D01*
X0089844Y0057817D02*
X0087952Y0057817D01*
X0087952Y0057810D02*
X0089844Y0057810D01*
X0089844Y0057804D02*
X0087952Y0057804D01*
X0087952Y0057797D02*
X0089844Y0057797D01*
X0089844Y0057791D02*
X0087952Y0057791D01*
X0087952Y0057785D02*
X0089844Y0057785D01*
X0089844Y0057778D02*
X0087952Y0057778D01*
X0087952Y0057772D02*
X0089844Y0057772D01*
X0089844Y0057766D02*
X0087952Y0057766D01*
X0087952Y0057759D02*
X0089844Y0057759D01*
X0089844Y0057753D02*
X0087952Y0057753D01*
X0087952Y0057746D02*
X0089844Y0057746D01*
X0089844Y0057740D02*
X0087952Y0057740D01*
X0087953Y0057734D02*
X0089844Y0057734D01*
X0089844Y0057727D02*
X0087953Y0057727D01*
X0087953Y0057721D02*
X0089844Y0057721D01*
X0089844Y0057714D02*
X0087953Y0057714D01*
X0087953Y0057708D02*
X0089844Y0057708D01*
X0089844Y0057702D02*
X0087953Y0057702D01*
X0087953Y0057695D02*
X0089844Y0057695D01*
X0089844Y0057689D02*
X0087953Y0057689D01*
X0087953Y0057683D02*
X0089844Y0057683D01*
X0089844Y0057676D02*
X0087953Y0057676D01*
X0087953Y0057670D02*
X0089844Y0057670D01*
X0089844Y0057663D02*
X0087953Y0057663D01*
X0087953Y0057657D02*
X0089844Y0057657D01*
X0089844Y0057651D02*
X0087953Y0057651D01*
X0087953Y0057644D02*
X0089844Y0057644D01*
X0089844Y0057638D02*
X0087953Y0057638D01*
X0087953Y0057631D02*
X0089844Y0057631D01*
X0089844Y0057625D02*
X0087954Y0057625D01*
X0087954Y0057619D02*
X0089844Y0057619D01*
X0089844Y0057612D02*
X0087954Y0057612D01*
X0087954Y0057606D02*
X0089844Y0057606D01*
X0089844Y0057599D02*
X0087954Y0057599D01*
X0087954Y0057593D02*
X0089844Y0057593D01*
X0089844Y0057587D02*
X0087954Y0057587D01*
X0087954Y0057580D02*
X0089844Y0057580D01*
X0089844Y0057574D02*
X0087954Y0057574D01*
X0087954Y0057568D02*
X0089844Y0057568D01*
X0089844Y0057561D02*
X0087954Y0057561D01*
X0087954Y0057555D02*
X0089844Y0057555D01*
X0089844Y0057548D02*
X0087954Y0057548D01*
X0087954Y0057542D02*
X0089844Y0057542D01*
X0089844Y0057536D02*
X0087954Y0057536D01*
X0087954Y0057529D02*
X0089844Y0057529D01*
X0089844Y0057523D02*
X0087954Y0057523D01*
X0087954Y0057516D02*
X0089844Y0057516D01*
X0089844Y0057510D02*
X0087955Y0057510D01*
X0087955Y0057504D02*
X0089844Y0057504D01*
X0089844Y0057497D02*
X0087955Y0057497D01*
X0087955Y0057491D02*
X0089844Y0057491D01*
X0089844Y0057485D02*
X0087955Y0057485D01*
X0087955Y0057478D02*
X0089844Y0057478D01*
X0089844Y0057472D02*
X0087955Y0057472D01*
X0087955Y0057465D02*
X0089844Y0057465D01*
X0089844Y0057459D02*
X0087955Y0057459D01*
X0087955Y0057453D02*
X0089844Y0057453D01*
X0089844Y0057446D02*
X0087955Y0057446D01*
X0087955Y0057440D02*
X0089844Y0057440D01*
X0089844Y0057433D02*
X0087955Y0057433D01*
X0087955Y0057427D02*
X0089844Y0057427D01*
X0089844Y0057421D02*
X0087955Y0057421D01*
X0087955Y0057414D02*
X0089844Y0057414D01*
X0089844Y0057408D02*
X0087955Y0057408D01*
X0087956Y0057402D02*
X0089844Y0057402D01*
X0089844Y0057395D02*
X0087956Y0057395D01*
X0087956Y0057389D02*
X0089844Y0057389D01*
X0089844Y0057382D02*
X0087956Y0057382D01*
X0087956Y0057376D02*
X0089844Y0057376D01*
X0089844Y0057370D02*
X0087956Y0057370D01*
X0087049Y0057363D02*
X0089844Y0057363D01*
X0089844Y0057357D02*
X0087049Y0057357D01*
X0087049Y0057350D02*
X0089844Y0057350D01*
X0089844Y0057344D02*
X0087049Y0057344D01*
X0087049Y0057338D02*
X0089844Y0057338D01*
X0089844Y0057331D02*
X0087049Y0057331D01*
X0087049Y0057325D02*
X0089844Y0057325D01*
X0089844Y0057319D02*
X0087049Y0057319D01*
X0087049Y0057312D02*
X0089844Y0057312D01*
X0089844Y0057306D02*
X0087049Y0057306D01*
X0087049Y0057299D02*
X0089844Y0057299D01*
X0089844Y0057293D02*
X0087049Y0057293D01*
X0087049Y0057287D02*
X0089844Y0057287D01*
X0089844Y0057280D02*
X0087049Y0057280D01*
X0087049Y0057274D02*
X0089844Y0057274D01*
X0089844Y0057267D02*
X0087049Y0057267D01*
X0087049Y0057261D02*
X0089844Y0057261D01*
X0089844Y0057255D02*
X0087049Y0057255D01*
X0087049Y0057248D02*
X0089844Y0057248D01*
X0089844Y0057242D02*
X0087049Y0057242D01*
X0087049Y0057236D02*
X0089844Y0057236D01*
X0089844Y0057229D02*
X0087049Y0057229D01*
X0087049Y0057223D02*
X0089844Y0057223D01*
X0089844Y0057216D02*
X0087049Y0057216D01*
X0087049Y0057210D02*
X0089844Y0057210D01*
X0089844Y0057204D02*
X0087049Y0057204D01*
X0087049Y0057197D02*
X0089844Y0057197D01*
X0089844Y0057191D02*
X0087049Y0057191D01*
X0087049Y0057184D02*
X0089844Y0057184D01*
X0089844Y0057178D02*
X0087049Y0057178D01*
X0087049Y0057172D02*
X0089844Y0057172D01*
X0089844Y0057165D02*
X0087049Y0057165D01*
X0087049Y0057159D02*
X0089844Y0057159D01*
X0089844Y0057153D02*
X0087049Y0057153D01*
X0087049Y0057146D02*
X0089844Y0057146D01*
X0089844Y0057140D02*
X0087049Y0057140D01*
X0087049Y0057133D02*
X0089844Y0057133D01*
X0089844Y0057127D02*
X0087049Y0057127D01*
X0087049Y0057121D02*
X0089844Y0057121D01*
X0089844Y0057114D02*
X0087049Y0057114D01*
X0087049Y0057108D02*
X0089844Y0057108D01*
X0089844Y0057101D02*
X0087049Y0057101D01*
X0087049Y0057095D02*
X0089844Y0057095D01*
X0089844Y0057089D02*
X0087049Y0057089D01*
X0087049Y0057082D02*
X0089844Y0057082D01*
X0089844Y0057076D02*
X0087049Y0057076D01*
X0087049Y0057070D02*
X0089844Y0057070D01*
X0089844Y0057063D02*
X0087049Y0057063D01*
X0087049Y0057057D02*
X0089844Y0057057D01*
X0089844Y0057050D02*
X0087049Y0057050D01*
X0087049Y0057044D02*
X0089844Y0057044D01*
X0089844Y0057038D02*
X0087049Y0057038D01*
X0087049Y0057031D02*
X0089844Y0057031D01*
X0089844Y0057025D02*
X0087049Y0057025D01*
X0087049Y0057018D02*
X0089844Y0057018D01*
X0089844Y0057012D02*
X0087049Y0057012D01*
X0087049Y0057006D02*
X0089844Y0057006D01*
X0089844Y0056999D02*
X0087049Y0056999D01*
X0087049Y0056993D02*
X0089844Y0056993D01*
X0089844Y0056987D02*
X0087049Y0056987D01*
X0087049Y0056980D02*
X0089844Y0056980D01*
X0089844Y0056974D02*
X0087049Y0056974D01*
X0087049Y0056967D02*
X0089844Y0056967D01*
X0089844Y0056961D02*
X0087049Y0056961D01*
X0087049Y0056955D02*
X0089844Y0056955D01*
X0089844Y0056948D02*
X0087049Y0056948D01*
X0087049Y0056942D02*
X0089844Y0056942D01*
X0089844Y0056935D02*
X0087049Y0056935D01*
X0087049Y0056929D02*
X0089844Y0056929D01*
X0089844Y0056923D02*
X0087049Y0056923D01*
X0087049Y0056916D02*
X0089844Y0056916D01*
X0089844Y0056910D02*
X0087049Y0056910D01*
X0087049Y0056903D02*
X0089844Y0056903D01*
X0089844Y0056897D02*
X0087049Y0056897D01*
X0087049Y0056891D02*
X0089844Y0056891D01*
X0089844Y0056884D02*
X0087049Y0056884D01*
X0087049Y0056878D02*
X0089844Y0056878D01*
X0089844Y0056872D02*
X0087049Y0056872D01*
X0087049Y0056865D02*
X0089844Y0056865D01*
X0089844Y0056859D02*
X0087049Y0056859D01*
X0087049Y0056852D02*
X0089844Y0056852D01*
X0089844Y0056846D02*
X0087049Y0056846D01*
X0087049Y0056840D02*
X0089844Y0056840D01*
X0089844Y0056833D02*
X0087049Y0056833D01*
X0087049Y0056827D02*
X0089844Y0056827D01*
X0089844Y0056820D02*
X0087049Y0056820D01*
X0087049Y0056814D02*
X0089844Y0056814D01*
X0089844Y0056808D02*
X0087049Y0056808D01*
X0087049Y0056801D02*
X0089844Y0056801D01*
X0089844Y0056795D02*
X0087049Y0056795D01*
X0087049Y0056789D02*
X0089844Y0056789D01*
X0089844Y0056782D02*
X0087049Y0056782D01*
X0087049Y0056776D02*
X0089844Y0056776D01*
X0089844Y0056769D02*
X0087049Y0056769D01*
X0087049Y0056763D02*
X0089844Y0056763D01*
X0089844Y0056757D02*
X0087049Y0056757D01*
X0087049Y0056750D02*
X0089844Y0056750D01*
X0089844Y0056744D02*
X0087049Y0056744D01*
X0087049Y0056737D02*
X0089844Y0056737D01*
X0089844Y0056731D02*
X0087049Y0056731D01*
X0087049Y0056725D02*
X0089844Y0056725D01*
X0089844Y0056718D02*
X0087049Y0056718D01*
X0087049Y0056712D02*
X0089844Y0056712D01*
X0089844Y0056706D02*
X0087049Y0056706D01*
X0087049Y0056699D02*
X0089844Y0056699D01*
X0089844Y0056693D02*
X0087049Y0056693D01*
X0087049Y0056686D02*
X0089844Y0056686D01*
X0089844Y0056680D02*
X0087049Y0056680D01*
X0087049Y0056674D02*
X0089844Y0056674D01*
X0089844Y0056667D02*
X0087049Y0056667D01*
X0087049Y0056661D02*
X0089844Y0056661D01*
X0089844Y0056654D02*
X0087049Y0056654D01*
X0087049Y0056648D02*
X0089844Y0056648D01*
X0089844Y0056642D02*
X0087049Y0056642D01*
X0087049Y0056635D02*
X0089844Y0056635D01*
X0089844Y0056629D02*
X0087049Y0056629D01*
X0087049Y0056623D02*
X0089844Y0056623D01*
X0089844Y0056616D02*
X0087049Y0056616D01*
X0087049Y0056610D02*
X0089844Y0056610D01*
X0089844Y0056603D02*
X0087049Y0056603D01*
X0087049Y0056597D02*
X0089844Y0056597D01*
X0089844Y0056591D02*
X0087049Y0056591D01*
X0087049Y0056584D02*
X0089844Y0056584D01*
X0089844Y0056578D02*
X0087049Y0056578D01*
X0087049Y0056571D02*
X0089844Y0056571D01*
X0089844Y0056565D02*
X0087049Y0056565D01*
X0087049Y0056559D02*
X0089844Y0056559D01*
X0089844Y0056552D02*
X0087049Y0056552D01*
X0087049Y0056546D02*
X0089844Y0056546D01*
X0089844Y0056540D02*
X0087049Y0056540D01*
X0087049Y0056533D02*
X0089844Y0056533D01*
X0089844Y0056527D02*
X0087049Y0056527D01*
X0087049Y0056520D02*
X0089844Y0056520D01*
X0089844Y0056514D02*
X0087049Y0056514D01*
X0087049Y0056508D02*
X0089844Y0056508D01*
X0089844Y0056501D02*
X0087049Y0056501D01*
X0087049Y0056495D02*
X0089844Y0056495D01*
X0089844Y0056488D02*
X0087049Y0056488D01*
X0087049Y0056482D02*
X0089844Y0056482D01*
X0089844Y0056476D02*
X0087049Y0056476D01*
X0087049Y0056469D02*
X0089844Y0056469D01*
X0089844Y0056463D02*
X0087049Y0056463D01*
X0087049Y0056457D02*
X0089844Y0056457D01*
X0089844Y0056450D02*
X0087049Y0056450D01*
X0087049Y0056444D02*
X0089844Y0056444D01*
X0089844Y0056437D02*
X0087049Y0056437D01*
X0087049Y0056431D02*
X0089844Y0056431D01*
X0089844Y0056425D02*
X0087049Y0056425D01*
X0087049Y0056418D02*
X0089844Y0056418D01*
X0089844Y0056412D02*
X0087049Y0056412D01*
X0087049Y0056405D02*
X0089844Y0056405D01*
X0089844Y0056399D02*
X0087049Y0056399D01*
X0087049Y0056393D02*
X0089844Y0056393D01*
X0089844Y0056386D02*
X0087049Y0056386D01*
X0087049Y0056380D02*
X0089844Y0056380D01*
X0089844Y0056374D02*
X0087049Y0056374D01*
X0087049Y0056367D02*
X0089844Y0056367D01*
X0089844Y0056361D02*
X0087049Y0056361D01*
X0087049Y0056354D02*
X0089844Y0056354D01*
X0089844Y0056348D02*
X0087049Y0056348D01*
X0087049Y0056342D02*
X0089844Y0056342D01*
X0089844Y0056335D02*
X0087049Y0056335D01*
X0087049Y0056329D02*
X0089844Y0056329D01*
X0089844Y0056322D02*
X0087049Y0056322D01*
X0087049Y0056316D02*
X0089844Y0056316D01*
X0089844Y0056310D02*
X0087049Y0056310D01*
X0087049Y0056303D02*
X0089844Y0056303D01*
X0089844Y0056297D02*
X0087049Y0056297D01*
X0087049Y0056291D02*
X0089844Y0056291D01*
X0089844Y0056284D02*
X0087049Y0056284D01*
X0087049Y0056278D02*
X0089841Y0056278D01*
X0089835Y0056271D02*
X0087049Y0056271D01*
X0087049Y0056265D02*
X0089829Y0056265D01*
X0089822Y0056259D02*
X0087049Y0056259D01*
X0087049Y0056252D02*
X0089816Y0056252D01*
X0089809Y0056246D02*
X0087049Y0056246D01*
X0087049Y0056239D02*
X0089803Y0056239D01*
X0089797Y0056233D02*
X0087049Y0056233D01*
X0087049Y0056227D02*
X0089790Y0056227D01*
X0089784Y0056220D02*
X0087049Y0056220D01*
X0087049Y0056214D02*
X0089777Y0056214D01*
X0089771Y0056207D02*
X0087049Y0056207D01*
X0087049Y0056201D02*
X0089765Y0056201D01*
X0089758Y0056195D02*
X0087049Y0056195D01*
X0087049Y0056188D02*
X0089752Y0056188D01*
X0089746Y0056182D02*
X0087049Y0056182D01*
X0087049Y0056176D02*
X0089739Y0056176D01*
X0089733Y0056169D02*
X0087049Y0056169D01*
X0087049Y0056163D02*
X0089726Y0056163D01*
X0089720Y0056156D02*
X0087049Y0056156D01*
X0087049Y0056150D02*
X0089714Y0056150D01*
X0089707Y0056144D02*
X0087049Y0056144D01*
X0087049Y0056137D02*
X0089701Y0056137D01*
X0089694Y0056131D02*
X0087049Y0056131D01*
X0087049Y0056124D02*
X0089688Y0056124D01*
X0089682Y0056118D02*
X0087049Y0056118D01*
X0087049Y0056112D02*
X0089675Y0056112D01*
X0089669Y0056105D02*
X0087049Y0056105D01*
X0087049Y0056099D02*
X0089662Y0056099D01*
X0089656Y0056093D02*
X0087049Y0056093D01*
X0087049Y0056086D02*
X0089650Y0056086D01*
X0089643Y0056080D02*
X0087049Y0056080D01*
X0087049Y0056073D02*
X0089637Y0056073D01*
X0089630Y0056067D02*
X0087049Y0056067D01*
X0087049Y0056061D02*
X0089624Y0056061D01*
X0089618Y0056054D02*
X0087049Y0056054D01*
X0087049Y0056048D02*
X0089611Y0056048D01*
X0089605Y0056041D02*
X0087049Y0056041D01*
X0087049Y0056035D02*
X0089598Y0056035D01*
X0089592Y0056029D02*
X0087049Y0056029D01*
X0087049Y0056022D02*
X0089586Y0056022D01*
X0089579Y0056016D02*
X0087049Y0056016D01*
X0087049Y0056010D02*
X0089573Y0056010D01*
X0089566Y0056003D02*
X0087049Y0056003D01*
X0087049Y0055997D02*
X0089560Y0055997D01*
X0089554Y0055990D02*
X0087049Y0055990D01*
X0087049Y0055984D02*
X0089547Y0055984D01*
X0089541Y0055978D02*
X0087049Y0055978D01*
X0087049Y0055971D02*
X0089534Y0055971D01*
X0089528Y0055965D02*
X0087049Y0055965D01*
X0087049Y0055958D02*
X0089522Y0055958D01*
X0089515Y0055952D02*
X0087049Y0055952D01*
X0087049Y0055946D02*
X0089509Y0055946D01*
X0089502Y0055939D02*
X0087049Y0055939D01*
X0087049Y0055933D02*
X0089496Y0055933D01*
X0089490Y0055927D02*
X0087049Y0055927D01*
X0087049Y0055920D02*
X0089483Y0055920D01*
X0089477Y0055914D02*
X0087049Y0055914D01*
X0087049Y0055907D02*
X0089470Y0055907D01*
X0089464Y0055901D02*
X0087049Y0055901D01*
X0087049Y0055895D02*
X0089458Y0055895D01*
X0089451Y0055888D02*
X0087049Y0055888D01*
X0087049Y0055882D02*
X0089445Y0055882D01*
X0089438Y0055875D02*
X0087049Y0055875D01*
X0087049Y0055869D02*
X0089432Y0055869D01*
X0089426Y0055863D02*
X0087049Y0055863D01*
X0087049Y0055856D02*
X0089419Y0055856D01*
X0089413Y0055850D02*
X0087049Y0055850D01*
X0087049Y0055844D02*
X0089406Y0055844D01*
X0089400Y0055837D02*
X0087049Y0055837D01*
X0087049Y0055831D02*
X0089394Y0055831D01*
X0089387Y0055824D02*
X0087049Y0055824D01*
X0087049Y0055818D02*
X0089381Y0055818D01*
X0089374Y0055812D02*
X0087049Y0055812D01*
X0087049Y0055805D02*
X0089368Y0055805D01*
X0089362Y0055799D02*
X0087049Y0055799D01*
X0087049Y0055792D02*
X0089355Y0055792D01*
X0089349Y0055786D02*
X0087049Y0055786D01*
X0087049Y0055780D02*
X0089342Y0055780D01*
X0089336Y0055773D02*
X0087049Y0055773D01*
X0087049Y0055767D02*
X0089330Y0055767D01*
X0089323Y0055761D02*
X0087049Y0055761D01*
X0087049Y0055754D02*
X0089317Y0055754D01*
X0089311Y0055748D02*
X0087049Y0055748D01*
X0087049Y0055741D02*
X0089304Y0055741D01*
X0089298Y0055735D02*
X0087049Y0055735D01*
X0087049Y0055729D02*
X0089291Y0055729D01*
X0089285Y0055722D02*
X0087049Y0055722D01*
X0087049Y0055716D02*
X0089279Y0055716D01*
X0089272Y0055709D02*
X0087049Y0055709D01*
X0087049Y0055703D02*
X0089266Y0055703D01*
X0089259Y0055697D02*
X0087049Y0055697D01*
X0087049Y0055690D02*
X0089253Y0055690D01*
X0089247Y0055684D02*
X0087049Y0055684D01*
X0087049Y0055678D02*
X0089240Y0055678D01*
X0089234Y0055671D02*
X0087049Y0055671D01*
X0087049Y0055665D02*
X0089227Y0055665D01*
X0089221Y0055658D02*
X0087049Y0055658D01*
X0087049Y0055652D02*
X0089215Y0055652D01*
X0089208Y0055646D02*
X0087049Y0055646D01*
X0087049Y0055639D02*
X0089202Y0055639D01*
X0089195Y0055633D02*
X0087049Y0055633D01*
X0087049Y0055626D02*
X0089189Y0055626D01*
X0089183Y0055620D02*
X0087049Y0055620D01*
X0087049Y0055614D02*
X0089176Y0055614D01*
X0089170Y0055607D02*
X0087049Y0055607D01*
X0087049Y0055601D02*
X0089163Y0055601D01*
X0089157Y0055595D02*
X0087049Y0055595D01*
X0087049Y0055588D02*
X0089151Y0055588D01*
X0089144Y0055582D02*
X0087049Y0055582D01*
X0087049Y0055575D02*
X0089138Y0055575D01*
X0089131Y0055569D02*
X0087049Y0055569D01*
X0087049Y0055563D02*
X0089125Y0055563D01*
X0089119Y0055556D02*
X0087049Y0055556D01*
X0087049Y0055550D02*
X0089112Y0055550D01*
X0089106Y0055543D02*
X0087049Y0055543D01*
X0087049Y0055537D02*
X0089099Y0055537D01*
X0089093Y0055531D02*
X0087049Y0055531D01*
X0087049Y0055524D02*
X0089087Y0055524D01*
X0089080Y0055518D02*
X0087049Y0055518D01*
X0087049Y0055511D02*
X0089074Y0055511D01*
X0089067Y0055505D02*
X0087049Y0055505D01*
X0087049Y0055499D02*
X0089061Y0055499D01*
X0089055Y0055492D02*
X0087049Y0055492D01*
X0087049Y0055486D02*
X0089048Y0055486D01*
X0089042Y0055480D02*
X0087049Y0055480D01*
X0087049Y0055473D02*
X0089035Y0055473D01*
X0089029Y0055467D02*
X0087049Y0055467D01*
X0087049Y0055460D02*
X0089023Y0055460D01*
X0089016Y0055454D02*
X0087049Y0055454D01*
X0087049Y0055448D02*
X0089010Y0055448D01*
X0089003Y0055441D02*
X0087049Y0055441D01*
X0087049Y0055435D02*
X0088997Y0055435D01*
X0088991Y0055428D02*
X0087049Y0055428D01*
X0087049Y0055422D02*
X0088984Y0055422D01*
X0088978Y0055416D02*
X0087049Y0055416D01*
X0087049Y0055409D02*
X0088971Y0055409D01*
X0088965Y0055403D02*
X0087049Y0055403D01*
X0087049Y0055397D02*
X0088959Y0055397D01*
X0088952Y0055390D02*
X0087049Y0055390D01*
X0087049Y0055384D02*
X0088946Y0055384D01*
X0088939Y0055377D02*
X0087049Y0055377D01*
X0087049Y0055371D02*
X0088933Y0055371D01*
X0088927Y0055365D02*
X0087049Y0055365D01*
X0087049Y0055358D02*
X0088920Y0055358D01*
X0088914Y0055352D02*
X0087049Y0055352D01*
X0087049Y0055345D02*
X0088907Y0055345D01*
X0088901Y0055339D02*
X0087049Y0055339D01*
X0087049Y0055333D02*
X0088895Y0055333D01*
X0088888Y0055326D02*
X0087049Y0055326D01*
X0087049Y0055320D02*
X0088882Y0055320D01*
X0088875Y0055314D02*
X0087049Y0055314D01*
X0087049Y0055307D02*
X0088869Y0055307D01*
X0088863Y0055301D02*
X0087049Y0055301D01*
X0087049Y0055294D02*
X0088856Y0055294D01*
X0088850Y0055288D02*
X0087049Y0055288D01*
X0087049Y0055282D02*
X0088843Y0055282D01*
X0088837Y0055275D02*
X0087049Y0055275D01*
X0087049Y0055269D02*
X0088831Y0055269D01*
X0088824Y0055262D02*
X0087049Y0055262D01*
X0087049Y0055256D02*
X0088818Y0055256D01*
X0088811Y0055250D02*
X0087049Y0055250D01*
X0087049Y0055243D02*
X0088805Y0055243D01*
X0088799Y0055237D02*
X0087049Y0055237D01*
X0087049Y0055231D02*
X0088792Y0055231D01*
X0088786Y0055224D02*
X0087049Y0055224D01*
X0087049Y0055218D02*
X0088780Y0055218D01*
X0088773Y0055211D02*
X0087049Y0055211D01*
X0087049Y0055205D02*
X0088767Y0055205D01*
X0085867Y0056284D02*
X0080000Y0056284D01*
X0080006Y0056278D02*
X0085863Y0056278D01*
X0085857Y0056271D02*
X0080013Y0056271D01*
X0080019Y0056265D02*
X0085850Y0056265D01*
X0085844Y0056259D02*
X0080026Y0056259D01*
X0080032Y0056252D02*
X0085838Y0056252D01*
X0085831Y0056246D02*
X0080038Y0056246D01*
X0080045Y0056239D02*
X0085825Y0056239D01*
X0085818Y0056233D02*
X0080051Y0056233D01*
X0080057Y0056227D02*
X0085812Y0056227D01*
X0085806Y0056220D02*
X0080064Y0056220D01*
X0080070Y0056214D02*
X0085799Y0056214D01*
X0085793Y0056207D02*
X0080077Y0056207D01*
X0080083Y0056201D02*
X0085787Y0056201D01*
X0085780Y0056195D02*
X0080089Y0056195D01*
X0080096Y0056188D02*
X0085774Y0056188D01*
X0085767Y0056182D02*
X0080102Y0056182D01*
X0080108Y0056176D02*
X0085761Y0056176D01*
X0085755Y0056169D02*
X0080115Y0056169D01*
X0080121Y0056163D02*
X0085748Y0056163D01*
X0085742Y0056156D02*
X0080128Y0056156D01*
X0080134Y0056150D02*
X0085736Y0056150D01*
X0085729Y0056144D02*
X0080140Y0056144D01*
X0080147Y0056137D02*
X0085723Y0056137D01*
X0085716Y0056131D02*
X0080153Y0056131D01*
X0080159Y0056124D02*
X0085710Y0056124D01*
X0085704Y0056118D02*
X0080166Y0056118D01*
X0080172Y0056112D02*
X0085697Y0056112D01*
X0085691Y0056105D02*
X0080179Y0056105D01*
X0080185Y0056099D02*
X0085685Y0056099D01*
X0085678Y0056093D02*
X0080191Y0056093D01*
X0080198Y0056086D02*
X0085672Y0056086D01*
X0085665Y0056080D02*
X0080204Y0056080D01*
X0080210Y0056073D02*
X0085659Y0056073D01*
X0085653Y0056067D02*
X0080217Y0056067D01*
X0080223Y0056061D02*
X0085646Y0056061D01*
X0085640Y0056054D02*
X0080230Y0056054D01*
X0080236Y0056048D02*
X0085634Y0056048D01*
X0085627Y0056041D02*
X0080242Y0056041D01*
X0080249Y0056035D02*
X0085621Y0056035D01*
X0085614Y0056029D02*
X0080255Y0056029D01*
X0080262Y0056022D02*
X0085608Y0056022D01*
X0085602Y0056016D02*
X0080268Y0056016D01*
X0080274Y0056010D02*
X0085595Y0056010D01*
X0085589Y0056003D02*
X0080281Y0056003D01*
X0080287Y0055997D02*
X0085583Y0055997D01*
X0085576Y0055990D02*
X0080293Y0055990D01*
X0080300Y0055984D02*
X0085570Y0055984D01*
X0085564Y0055978D02*
X0080306Y0055978D01*
X0080313Y0055971D02*
X0085557Y0055971D01*
X0085551Y0055965D02*
X0080319Y0055965D01*
X0080325Y0055958D02*
X0085544Y0055958D01*
X0085538Y0055952D02*
X0080332Y0055952D01*
X0080338Y0055946D02*
X0085532Y0055946D01*
X0085525Y0055939D02*
X0080344Y0055939D01*
X0080351Y0055933D02*
X0085519Y0055933D01*
X0085513Y0055927D02*
X0080357Y0055927D01*
X0080364Y0055920D02*
X0085506Y0055920D01*
X0085500Y0055914D02*
X0080370Y0055914D01*
X0080376Y0055907D02*
X0085493Y0055907D01*
X0085487Y0055901D02*
X0080383Y0055901D01*
X0080389Y0055895D02*
X0085481Y0055895D01*
X0085474Y0055888D02*
X0080395Y0055888D01*
X0080402Y0055882D02*
X0085468Y0055882D01*
X0085462Y0055875D02*
X0080408Y0055875D01*
X0080415Y0055869D02*
X0085455Y0055869D01*
X0085449Y0055863D02*
X0080421Y0055863D01*
X0080427Y0055856D02*
X0085442Y0055856D01*
X0085436Y0055850D02*
X0080434Y0055850D01*
X0080440Y0055844D02*
X0085430Y0055844D01*
X0085423Y0055837D02*
X0080446Y0055837D01*
X0080453Y0055831D02*
X0085417Y0055831D01*
X0085411Y0055824D02*
X0080459Y0055824D01*
X0080466Y0055818D02*
X0085404Y0055818D01*
X0085398Y0055812D02*
X0080472Y0055812D01*
X0080478Y0055805D02*
X0085391Y0055805D01*
X0085385Y0055799D02*
X0080485Y0055799D01*
X0080491Y0055792D02*
X0085379Y0055792D01*
X0085372Y0055786D02*
X0080497Y0055786D01*
X0080504Y0055780D02*
X0085366Y0055780D01*
X0085360Y0055773D02*
X0080510Y0055773D01*
X0080517Y0055767D02*
X0085353Y0055767D01*
X0085347Y0055761D02*
X0080523Y0055761D01*
X0080529Y0055754D02*
X0085340Y0055754D01*
X0085334Y0055748D02*
X0080536Y0055748D01*
X0080542Y0055741D02*
X0085328Y0055741D01*
X0085321Y0055735D02*
X0080548Y0055735D01*
X0080555Y0055729D02*
X0085315Y0055729D01*
X0085309Y0055722D02*
X0080561Y0055722D01*
X0080568Y0055716D02*
X0085302Y0055716D01*
X0085296Y0055709D02*
X0080574Y0055709D01*
X0080580Y0055703D02*
X0085289Y0055703D01*
X0085283Y0055697D02*
X0080587Y0055697D01*
X0080593Y0055690D02*
X0085277Y0055690D01*
X0085270Y0055684D02*
X0080600Y0055684D01*
X0080606Y0055678D02*
X0085264Y0055678D01*
X0085258Y0055671D02*
X0080612Y0055671D01*
X0080619Y0055665D02*
X0085251Y0055665D01*
X0085245Y0055658D02*
X0080625Y0055658D01*
X0080631Y0055652D02*
X0085238Y0055652D01*
X0085232Y0055646D02*
X0080638Y0055646D01*
X0080644Y0055639D02*
X0085226Y0055639D01*
X0085219Y0055633D02*
X0080651Y0055633D01*
X0080657Y0055626D02*
X0085213Y0055626D01*
X0085207Y0055620D02*
X0080663Y0055620D01*
X0080670Y0055614D02*
X0085200Y0055614D01*
X0085194Y0055607D02*
X0080676Y0055607D01*
X0080682Y0055601D02*
X0085187Y0055601D01*
X0085181Y0055595D02*
X0080689Y0055595D01*
X0080695Y0055588D02*
X0085175Y0055588D01*
X0085168Y0055582D02*
X0080702Y0055582D01*
X0080708Y0055575D02*
X0085162Y0055575D01*
X0085156Y0055569D02*
X0080714Y0055569D01*
X0080721Y0055563D02*
X0085149Y0055563D01*
X0085143Y0055556D02*
X0080727Y0055556D01*
X0080733Y0055550D02*
X0085136Y0055550D01*
X0085130Y0055543D02*
X0080740Y0055543D01*
X0080746Y0055537D02*
X0085124Y0055537D01*
X0085117Y0055531D02*
X0080753Y0055531D01*
X0080759Y0055524D02*
X0085111Y0055524D01*
X0085105Y0055518D02*
X0080765Y0055518D01*
X0080772Y0055511D02*
X0085098Y0055511D01*
X0085092Y0055505D02*
X0080778Y0055505D01*
X0080784Y0055499D02*
X0085085Y0055499D01*
X0085079Y0055492D02*
X0080791Y0055492D01*
X0080797Y0055486D02*
X0085073Y0055486D01*
X0085066Y0055480D02*
X0080804Y0055480D01*
X0080810Y0055473D02*
X0085060Y0055473D01*
X0085054Y0055467D02*
X0080816Y0055467D01*
X0080823Y0055460D02*
X0085047Y0055460D01*
X0085041Y0055454D02*
X0080829Y0055454D01*
X0080835Y0055448D02*
X0085034Y0055448D01*
X0085028Y0055441D02*
X0080842Y0055441D01*
X0080848Y0055435D02*
X0085022Y0055435D01*
X0085015Y0055428D02*
X0080855Y0055428D01*
X0080861Y0055422D02*
X0085009Y0055422D01*
X0085003Y0055416D02*
X0080867Y0055416D01*
X0080874Y0055409D02*
X0084996Y0055409D01*
X0084990Y0055403D02*
X0080880Y0055403D01*
X0080887Y0055397D02*
X0084984Y0055397D01*
X0084977Y0055390D02*
X0080893Y0055390D01*
X0080899Y0055384D02*
X0084971Y0055384D01*
X0084964Y0055377D02*
X0080906Y0055377D01*
X0080912Y0055371D02*
X0084958Y0055371D01*
X0084952Y0055365D02*
X0080918Y0055365D01*
X0080925Y0055358D02*
X0084945Y0055358D01*
X0084939Y0055352D02*
X0080931Y0055352D01*
X0080938Y0055345D02*
X0084933Y0055345D01*
X0084926Y0055339D02*
X0080944Y0055339D01*
X0080950Y0055333D02*
X0084920Y0055333D01*
X0084913Y0055326D02*
X0080957Y0055326D01*
X0080963Y0055320D02*
X0084907Y0055320D01*
X0084901Y0055314D02*
X0080969Y0055314D01*
X0080976Y0055307D02*
X0084894Y0055307D01*
X0084888Y0055301D02*
X0080982Y0055301D01*
X0080989Y0055294D02*
X0084882Y0055294D01*
X0084875Y0055288D02*
X0080995Y0055288D01*
X0081001Y0055282D02*
X0084869Y0055282D01*
X0084862Y0055275D02*
X0081008Y0055275D01*
X0081014Y0055269D02*
X0084856Y0055269D01*
X0084850Y0055262D02*
X0081020Y0055262D01*
X0081027Y0055256D02*
X0084843Y0055256D01*
X0084837Y0055250D02*
X0081033Y0055250D01*
X0081040Y0055243D02*
X0084831Y0055243D01*
X0084824Y0055237D02*
X0081046Y0055237D01*
X0081052Y0055231D02*
X0084818Y0055231D01*
X0084811Y0055224D02*
X0081059Y0055224D01*
X0081065Y0055218D02*
X0084805Y0055218D01*
X0084799Y0055211D02*
X0081071Y0055211D01*
X0081078Y0055205D02*
X0084792Y0055205D01*
X0084786Y0055199D02*
X0081084Y0055199D01*
X0081091Y0055192D02*
X0084780Y0055192D01*
X0084773Y0055186D02*
X0081097Y0055186D01*
X0081103Y0055179D02*
X0084767Y0055179D01*
X0084760Y0055173D02*
X0081110Y0055173D01*
X0081116Y0055167D02*
X0084754Y0055167D01*
X0084748Y0055160D02*
X0081122Y0055160D01*
X0079994Y0056291D02*
X0085867Y0056291D01*
X0085867Y0056297D02*
X0079987Y0056297D01*
X0079981Y0056303D02*
X0085867Y0056303D01*
X0085867Y0056310D02*
X0079975Y0056310D01*
X0079968Y0056316D02*
X0085867Y0056316D01*
X0085867Y0056322D02*
X0079962Y0056322D01*
X0079955Y0056329D02*
X0085867Y0056329D01*
X0085868Y0056335D02*
X0079949Y0056335D01*
X0079943Y0056342D02*
X0085868Y0056342D01*
X0085868Y0056348D02*
X0079936Y0056348D01*
X0079930Y0056354D02*
X0085868Y0056354D01*
X0085868Y0056361D02*
X0079923Y0056361D01*
X0079917Y0056367D02*
X0085868Y0056367D01*
X0085868Y0056374D02*
X0079911Y0056374D01*
X0079904Y0056380D02*
X0085868Y0056380D01*
X0085868Y0056386D02*
X0079898Y0056386D01*
X0079892Y0056393D02*
X0085868Y0056393D01*
X0085868Y0056399D02*
X0079885Y0056399D01*
X0079879Y0056405D02*
X0085868Y0056405D01*
X0085868Y0056412D02*
X0079872Y0056412D01*
X0079866Y0056418D02*
X0085868Y0056418D01*
X0085868Y0056425D02*
X0079860Y0056425D01*
X0079853Y0056431D02*
X0085868Y0056431D01*
X0085868Y0056437D02*
X0079847Y0056437D01*
X0079841Y0056444D02*
X0085868Y0056444D01*
X0085868Y0056450D02*
X0079834Y0056450D01*
X0079828Y0056457D02*
X0085868Y0056457D01*
X0085868Y0056463D02*
X0079821Y0056463D01*
X0079815Y0056469D02*
X0085868Y0056469D01*
X0085868Y0056476D02*
X0079809Y0056476D01*
X0079802Y0056482D02*
X0085868Y0056482D01*
X0085868Y0056488D02*
X0079796Y0056488D01*
X0079790Y0056495D02*
X0085868Y0056495D01*
X0085868Y0056501D02*
X0079783Y0056501D01*
X0079777Y0056508D02*
X0085869Y0056508D01*
X0085869Y0056514D02*
X0079770Y0056514D01*
X0079766Y0056520D02*
X0085869Y0056520D01*
X0085869Y0056527D02*
X0079766Y0056527D01*
X0079766Y0056533D02*
X0085869Y0056533D01*
X0085869Y0056540D02*
X0079766Y0056540D01*
X0079766Y0056546D02*
X0085869Y0056546D01*
X0085869Y0056552D02*
X0079766Y0056552D01*
X0079766Y0056559D02*
X0085869Y0056559D01*
X0085869Y0056565D02*
X0079766Y0056565D01*
X0079766Y0056571D02*
X0085869Y0056571D01*
X0085869Y0056578D02*
X0079766Y0056578D01*
X0079766Y0056584D02*
X0085869Y0056584D01*
X0085869Y0056591D02*
X0079766Y0056591D01*
X0079766Y0056597D02*
X0085869Y0056597D01*
X0085869Y0056603D02*
X0079766Y0056603D01*
X0079766Y0056610D02*
X0085869Y0056610D01*
X0085869Y0056616D02*
X0079766Y0056616D01*
X0079766Y0056623D02*
X0085869Y0056623D01*
X0085869Y0056629D02*
X0079766Y0056629D01*
X0079766Y0056635D02*
X0085869Y0056635D01*
X0085869Y0056642D02*
X0079766Y0056642D01*
X0079766Y0056648D02*
X0085869Y0056648D01*
X0085869Y0056654D02*
X0079766Y0056654D01*
X0079766Y0056661D02*
X0085869Y0056661D01*
X0085869Y0056667D02*
X0079766Y0056667D01*
X0079766Y0056674D02*
X0085870Y0056674D01*
X0085870Y0056680D02*
X0079766Y0056680D01*
X0079766Y0056686D02*
X0085870Y0056686D01*
X0085870Y0056693D02*
X0079766Y0056693D01*
X0079766Y0056699D02*
X0085870Y0056699D01*
X0085870Y0056706D02*
X0079766Y0056706D01*
X0079766Y0056712D02*
X0085870Y0056712D01*
X0085870Y0056718D02*
X0079766Y0056718D01*
X0079766Y0056725D02*
X0085870Y0056725D01*
X0085870Y0056731D02*
X0079766Y0056731D01*
X0079766Y0056737D02*
X0085870Y0056737D01*
X0085870Y0056744D02*
X0079766Y0056744D01*
X0079766Y0056750D02*
X0085870Y0056750D01*
X0085870Y0056757D02*
X0079766Y0056757D01*
X0079766Y0056763D02*
X0085870Y0056763D01*
X0085870Y0056769D02*
X0079766Y0056769D01*
X0079766Y0056776D02*
X0085870Y0056776D01*
X0085870Y0056782D02*
X0079766Y0056782D01*
X0079766Y0056789D02*
X0085870Y0056789D01*
X0085870Y0056795D02*
X0079766Y0056795D01*
X0079766Y0056801D02*
X0085870Y0056801D01*
X0085870Y0056808D02*
X0079766Y0056808D01*
X0079766Y0056814D02*
X0085870Y0056814D01*
X0085870Y0056820D02*
X0079766Y0056820D01*
X0079766Y0056827D02*
X0085870Y0056827D01*
X0085870Y0056833D02*
X0079766Y0056833D01*
X0079766Y0056840D02*
X0085871Y0056840D01*
X0085871Y0056846D02*
X0079766Y0056846D01*
X0079766Y0056852D02*
X0085871Y0056852D01*
X0085871Y0056859D02*
X0079766Y0056859D01*
X0079766Y0056865D02*
X0085871Y0056865D01*
X0085871Y0056872D02*
X0079766Y0056872D01*
X0079766Y0056878D02*
X0085871Y0056878D01*
X0085871Y0056884D02*
X0079766Y0056884D01*
X0079766Y0056891D02*
X0085871Y0056891D01*
X0085871Y0056897D02*
X0079766Y0056897D01*
X0079766Y0056903D02*
X0085871Y0056903D01*
X0085871Y0056910D02*
X0079766Y0056910D01*
X0079766Y0056916D02*
X0085871Y0056916D01*
X0085871Y0056923D02*
X0079766Y0056923D01*
X0079766Y0056929D02*
X0085871Y0056929D01*
X0085871Y0056935D02*
X0079766Y0056935D01*
X0079766Y0056942D02*
X0085871Y0056942D01*
X0085871Y0056948D02*
X0079766Y0056948D01*
X0079766Y0056955D02*
X0085871Y0056955D01*
X0085871Y0056961D02*
X0079766Y0056961D01*
X0079766Y0056967D02*
X0085871Y0056967D01*
X0085871Y0056974D02*
X0079766Y0056974D01*
X0079766Y0056980D02*
X0085871Y0056980D01*
X0085871Y0056987D02*
X0079766Y0056987D01*
X0079766Y0056993D02*
X0085871Y0056993D01*
X0085871Y0056999D02*
X0079766Y0056999D01*
X0079766Y0057006D02*
X0085872Y0057006D01*
X0085872Y0057012D02*
X0079766Y0057012D01*
X0079766Y0057018D02*
X0085872Y0057018D01*
X0085872Y0057025D02*
X0079766Y0057025D01*
X0079766Y0057031D02*
X0085872Y0057031D01*
X0085872Y0057038D02*
X0079766Y0057038D01*
X0079766Y0057044D02*
X0085872Y0057044D01*
X0085872Y0057050D02*
X0079766Y0057050D01*
X0079766Y0057057D02*
X0085872Y0057057D01*
X0085872Y0057063D02*
X0079766Y0057063D01*
X0079766Y0057070D02*
X0085872Y0057070D01*
X0085872Y0057076D02*
X0079766Y0057076D01*
X0079766Y0057082D02*
X0085872Y0057082D01*
X0085872Y0057089D02*
X0079766Y0057089D01*
X0079766Y0057095D02*
X0085872Y0057095D01*
X0085872Y0057101D02*
X0079766Y0057101D01*
X0079766Y0057108D02*
X0085872Y0057108D01*
X0085872Y0057114D02*
X0079766Y0057114D01*
X0079766Y0057121D02*
X0085872Y0057121D01*
X0085872Y0057127D02*
X0079766Y0057127D01*
X0079766Y0057133D02*
X0085872Y0057133D01*
X0085872Y0057140D02*
X0079766Y0057140D01*
X0079766Y0057146D02*
X0085872Y0057146D01*
X0085872Y0057153D02*
X0079766Y0057153D01*
X0079766Y0057159D02*
X0085872Y0057159D01*
X0085872Y0057165D02*
X0079766Y0057165D01*
X0079766Y0057172D02*
X0085873Y0057172D01*
X0085873Y0057178D02*
X0079766Y0057178D01*
X0079766Y0057184D02*
X0085873Y0057184D01*
X0085873Y0057191D02*
X0079766Y0057191D01*
X0079766Y0057197D02*
X0085873Y0057197D01*
X0085873Y0057204D02*
X0079766Y0057204D01*
X0079766Y0057210D02*
X0085873Y0057210D01*
X0085873Y0057216D02*
X0079766Y0057216D01*
X0079766Y0057223D02*
X0085873Y0057223D01*
X0085873Y0057229D02*
X0079766Y0057229D01*
X0079766Y0057236D02*
X0085873Y0057236D01*
X0085873Y0057242D02*
X0079766Y0057242D01*
X0079766Y0057248D02*
X0085873Y0057248D01*
X0085873Y0057255D02*
X0079766Y0057255D01*
X0079766Y0057261D02*
X0085873Y0057261D01*
X0085873Y0057267D02*
X0079766Y0057267D01*
X0079766Y0057274D02*
X0085873Y0057274D01*
X0085873Y0057280D02*
X0079766Y0057280D01*
X0079766Y0057287D02*
X0081774Y0057287D01*
X0081774Y0057293D02*
X0079766Y0057293D01*
X0079766Y0057299D02*
X0081774Y0057299D01*
X0081774Y0057306D02*
X0079766Y0057306D01*
X0079766Y0057312D02*
X0081774Y0057312D01*
X0081774Y0057319D02*
X0079766Y0057319D01*
X0079766Y0057325D02*
X0081774Y0057325D01*
X0081774Y0057331D02*
X0079766Y0057331D01*
X0079766Y0057338D02*
X0081774Y0057338D01*
X0081774Y0057344D02*
X0079766Y0057344D01*
X0079766Y0057350D02*
X0081774Y0057350D01*
X0081774Y0057357D02*
X0079766Y0057357D01*
X0079766Y0057363D02*
X0081774Y0057363D01*
X0081774Y0057370D02*
X0079766Y0057370D01*
X0079766Y0057376D02*
X0081774Y0057376D01*
X0081774Y0057382D02*
X0079766Y0057382D01*
X0079766Y0057389D02*
X0081774Y0057389D01*
X0081774Y0057395D02*
X0079766Y0057395D01*
X0079766Y0057402D02*
X0081774Y0057402D01*
X0081774Y0057408D02*
X0079766Y0057408D01*
X0079766Y0057414D02*
X0081774Y0057414D01*
X0081774Y0057421D02*
X0079766Y0057421D01*
X0079766Y0057427D02*
X0081774Y0057427D01*
X0081774Y0057433D02*
X0079766Y0057433D01*
X0079766Y0057440D02*
X0081774Y0057440D01*
X0081774Y0057446D02*
X0079766Y0057446D01*
X0079766Y0057453D02*
X0081774Y0057453D01*
X0081774Y0057459D02*
X0079766Y0057459D01*
X0079766Y0057465D02*
X0081774Y0057465D01*
X0081774Y0057472D02*
X0079766Y0057472D01*
X0079766Y0057478D02*
X0081774Y0057478D01*
X0081774Y0057485D02*
X0079766Y0057485D01*
X0079766Y0057491D02*
X0081774Y0057491D01*
X0081774Y0057497D02*
X0079766Y0057497D01*
X0079766Y0057504D02*
X0081774Y0057504D01*
X0081774Y0057510D02*
X0079766Y0057510D01*
X0079766Y0057516D02*
X0081774Y0057516D01*
X0081774Y0057523D02*
X0079766Y0057523D01*
X0079766Y0057529D02*
X0081774Y0057529D01*
X0081774Y0057536D02*
X0079766Y0057536D01*
X0079766Y0057542D02*
X0081774Y0057542D01*
X0081774Y0057548D02*
X0079766Y0057548D01*
X0079766Y0057555D02*
X0081774Y0057555D01*
X0081774Y0057561D02*
X0079766Y0057561D01*
X0079766Y0057568D02*
X0081774Y0057568D01*
X0081774Y0057574D02*
X0079766Y0057574D01*
X0079766Y0057580D02*
X0081774Y0057580D01*
X0081774Y0057587D02*
X0079766Y0057587D01*
X0079766Y0057593D02*
X0081774Y0057593D01*
X0081774Y0057599D02*
X0079766Y0057599D01*
X0079766Y0057606D02*
X0081774Y0057606D01*
X0081774Y0057612D02*
X0079766Y0057612D01*
X0079766Y0057619D02*
X0081774Y0057619D01*
X0081774Y0057625D02*
X0079766Y0057625D01*
X0079766Y0057631D02*
X0081774Y0057631D01*
X0081774Y0057638D02*
X0079766Y0057638D01*
X0079766Y0057644D02*
X0081774Y0057644D01*
X0081774Y0057651D02*
X0079766Y0057651D01*
X0079766Y0057657D02*
X0081774Y0057657D01*
X0081774Y0057663D02*
X0079766Y0057663D01*
X0079766Y0057670D02*
X0081774Y0057670D01*
X0081774Y0057676D02*
X0079766Y0057676D01*
X0079766Y0057683D02*
X0081774Y0057683D01*
X0081774Y0057689D02*
X0079766Y0057689D01*
X0079766Y0057695D02*
X0081774Y0057695D01*
X0081774Y0057702D02*
X0079766Y0057702D01*
X0079766Y0057708D02*
X0081774Y0057708D01*
X0081774Y0057714D02*
X0079766Y0057714D01*
X0079766Y0057721D02*
X0081774Y0057721D01*
X0081774Y0057727D02*
X0079766Y0057727D01*
X0079766Y0057734D02*
X0081774Y0057734D01*
X0081774Y0057740D02*
X0079766Y0057740D01*
X0079766Y0057746D02*
X0081774Y0057746D01*
X0081774Y0057753D02*
X0079766Y0057753D01*
X0079766Y0057759D02*
X0081774Y0057759D01*
X0081774Y0057766D02*
X0079766Y0057766D01*
X0079766Y0057772D02*
X0081774Y0057772D01*
X0081774Y0057778D02*
X0079766Y0057778D01*
X0079766Y0057785D02*
X0081774Y0057785D01*
X0081774Y0057791D02*
X0079766Y0057791D01*
X0079766Y0057797D02*
X0081774Y0057797D01*
X0081774Y0057804D02*
X0079766Y0057804D01*
X0079766Y0057810D02*
X0081774Y0057810D01*
X0081774Y0057817D02*
X0079766Y0057817D01*
X0079766Y0057823D02*
X0081774Y0057823D01*
X0081774Y0057829D02*
X0079766Y0057829D01*
X0079766Y0057836D02*
X0081774Y0057836D01*
X0081774Y0057842D02*
X0079766Y0057842D01*
X0079766Y0057849D02*
X0081774Y0057849D01*
X0081774Y0057855D02*
X0079766Y0057855D01*
X0079766Y0057861D02*
X0081774Y0057861D01*
X0081774Y0057868D02*
X0079766Y0057868D01*
X0079766Y0057874D02*
X0081774Y0057874D01*
X0081774Y0057880D02*
X0079766Y0057880D01*
X0079766Y0057887D02*
X0081774Y0057887D01*
X0081774Y0057893D02*
X0079766Y0057893D01*
X0079766Y0057900D02*
X0081774Y0057900D01*
X0081774Y0057906D02*
X0079766Y0057906D01*
X0079766Y0057912D02*
X0081774Y0057912D01*
X0081774Y0057919D02*
X0079766Y0057919D01*
X0079766Y0057925D02*
X0081774Y0057925D01*
X0081774Y0057932D02*
X0079766Y0057932D01*
X0079766Y0057938D02*
X0081774Y0057938D01*
X0081774Y0057944D02*
X0079766Y0057944D01*
X0079766Y0057951D02*
X0081774Y0057951D01*
X0081774Y0057957D02*
X0079766Y0057957D01*
X0079766Y0057963D02*
X0081774Y0057963D01*
X0081774Y0057970D02*
X0079766Y0057970D01*
X0079766Y0057976D02*
X0081774Y0057976D01*
X0081774Y0057983D02*
X0079766Y0057983D01*
X0079766Y0057989D02*
X0081774Y0057989D01*
X0081774Y0057995D02*
X0079766Y0057995D01*
X0079766Y0058002D02*
X0081774Y0058002D01*
X0081774Y0058008D02*
X0079766Y0058008D01*
X0079766Y0058015D02*
X0081774Y0058015D01*
X0081774Y0058021D02*
X0079766Y0058021D01*
X0079766Y0058027D02*
X0081774Y0058027D01*
X0081774Y0058034D02*
X0079766Y0058034D01*
X0079766Y0058040D02*
X0081774Y0058040D01*
X0081774Y0058046D02*
X0079766Y0058046D01*
X0079766Y0058053D02*
X0081774Y0058053D01*
X0081774Y0058059D02*
X0079766Y0058059D01*
X0079766Y0058066D02*
X0081774Y0058066D01*
X0081774Y0058072D02*
X0079766Y0058072D01*
X0079766Y0058078D02*
X0081774Y0058078D01*
X0081774Y0058085D02*
X0079766Y0058085D01*
X0079766Y0058091D02*
X0081774Y0058091D01*
X0081774Y0058098D02*
X0079766Y0058098D01*
X0079766Y0058104D02*
X0081774Y0058104D01*
X0081774Y0058110D02*
X0079766Y0058110D01*
X0079766Y0058117D02*
X0081774Y0058117D01*
X0081774Y0058123D02*
X0079766Y0058123D01*
X0079766Y0058129D02*
X0081774Y0058129D01*
X0081774Y0058136D02*
X0079766Y0058136D01*
X0079766Y0058142D02*
X0081774Y0058142D01*
X0081774Y0058149D02*
X0079766Y0058149D01*
X0079766Y0058155D02*
X0081774Y0058155D01*
X0081774Y0058161D02*
X0079766Y0058161D01*
X0079766Y0058168D02*
X0081774Y0058168D01*
X0081774Y0058174D02*
X0079766Y0058174D01*
X0079766Y0058181D02*
X0081774Y0058181D01*
X0081774Y0058187D02*
X0079766Y0058187D01*
X0079766Y0058193D02*
X0081774Y0058193D01*
X0081774Y0058200D02*
X0079766Y0058200D01*
X0079766Y0058206D02*
X0081774Y0058206D01*
X0081774Y0058212D02*
X0079766Y0058212D01*
X0079766Y0058219D02*
X0081774Y0058219D01*
X0081774Y0058225D02*
X0079766Y0058225D01*
X0079766Y0058232D02*
X0081774Y0058232D01*
X0081774Y0058238D02*
X0079766Y0058238D01*
X0079766Y0058244D02*
X0081774Y0058244D01*
X0081774Y0058251D02*
X0079766Y0058251D01*
X0079766Y0058257D02*
X0081774Y0058257D01*
X0081774Y0058264D02*
X0079766Y0058264D01*
X0079766Y0058270D02*
X0081774Y0058270D01*
X0081774Y0058276D02*
X0079766Y0058276D01*
X0079766Y0058283D02*
X0081774Y0058283D01*
X0081774Y0058289D02*
X0079766Y0058289D01*
X0079766Y0058295D02*
X0081774Y0058295D01*
X0081774Y0058302D02*
X0079766Y0058302D01*
X0079766Y0058308D02*
X0081774Y0058308D01*
X0081774Y0058315D02*
X0079766Y0058315D01*
X0079766Y0058321D02*
X0081774Y0058321D01*
X0081774Y0058327D02*
X0079766Y0058327D01*
X0079766Y0058334D02*
X0081774Y0058334D01*
X0081774Y0058340D02*
X0079766Y0058340D01*
X0079766Y0058347D02*
X0081774Y0058347D01*
X0081774Y0058353D02*
X0079766Y0058353D01*
X0079766Y0058359D02*
X0081774Y0058359D01*
X0081774Y0058366D02*
X0079766Y0058366D01*
X0079766Y0058372D02*
X0081774Y0058372D01*
X0081774Y0058379D02*
X0079766Y0058379D01*
X0079766Y0058385D02*
X0081774Y0058385D01*
X0081774Y0058391D02*
X0079766Y0058391D01*
X0079766Y0058398D02*
X0081774Y0058398D01*
X0081774Y0058404D02*
X0079766Y0058404D01*
X0079766Y0058410D02*
X0081774Y0058410D01*
X0081774Y0058417D02*
X0079766Y0058417D01*
X0079766Y0058423D02*
X0081774Y0058423D01*
X0081774Y0058430D02*
X0079766Y0058430D01*
X0079766Y0058436D02*
X0081774Y0058436D01*
X0081774Y0058442D02*
X0079766Y0058442D01*
X0079766Y0058449D02*
X0081774Y0058449D01*
X0081774Y0058455D02*
X0079766Y0058455D01*
X0079766Y0058462D02*
X0081774Y0058462D01*
X0081774Y0058468D02*
X0079766Y0058468D01*
X0079766Y0058474D02*
X0081774Y0058474D01*
X0081774Y0058481D02*
X0079766Y0058481D01*
X0079766Y0058487D02*
X0081774Y0058487D01*
X0081774Y0058493D02*
X0079766Y0058493D01*
X0079766Y0058500D02*
X0081774Y0058500D01*
X0081774Y0058506D02*
X0079766Y0058506D01*
X0079766Y0058513D02*
X0081774Y0058513D01*
X0081774Y0058519D02*
X0079766Y0058519D01*
X0079766Y0058525D02*
X0081774Y0058525D01*
X0081774Y0058532D02*
X0079766Y0058532D01*
X0079766Y0058538D02*
X0081774Y0058538D01*
X0081774Y0058545D02*
X0079766Y0058545D01*
X0079766Y0058551D02*
X0081774Y0058551D01*
X0081774Y0058557D02*
X0079766Y0058557D01*
X0079766Y0058564D02*
X0081774Y0058564D01*
X0081774Y0058570D02*
X0079766Y0058570D01*
X0079766Y0058576D02*
X0081774Y0058576D01*
X0081774Y0058583D02*
X0079766Y0058583D01*
X0079766Y0058589D02*
X0081774Y0058589D01*
X0081774Y0058596D02*
X0079766Y0058596D01*
X0079766Y0058602D02*
X0081774Y0058602D01*
X0081774Y0058608D02*
X0079766Y0058608D01*
X0079766Y0058615D02*
X0081774Y0058615D01*
X0081774Y0058621D02*
X0079766Y0058621D01*
X0079766Y0058628D02*
X0081774Y0058628D01*
X0081774Y0058634D02*
X0079766Y0058634D01*
X0079766Y0058640D02*
X0081774Y0058640D01*
X0081774Y0058647D02*
X0079766Y0058647D01*
X0079766Y0058653D02*
X0081774Y0058653D01*
X0081774Y0058659D02*
X0079766Y0058659D01*
X0079766Y0058666D02*
X0081774Y0058666D01*
X0081774Y0058672D02*
X0079766Y0058672D01*
X0079766Y0058679D02*
X0081774Y0058679D01*
X0081774Y0058685D02*
X0079766Y0058685D01*
X0079766Y0058691D02*
X0081774Y0058691D01*
X0081774Y0058698D02*
X0079766Y0058698D01*
X0079766Y0058704D02*
X0081774Y0058704D01*
X0081774Y0058711D02*
X0079766Y0058711D01*
X0079766Y0058717D02*
X0081774Y0058717D01*
X0081774Y0058723D02*
X0079766Y0058723D01*
X0079766Y0058730D02*
X0081774Y0058730D01*
X0081774Y0058736D02*
X0079766Y0058736D01*
X0079766Y0058742D02*
X0081774Y0058742D01*
X0081774Y0058749D02*
X0079766Y0058749D01*
X0079766Y0058755D02*
X0081774Y0058755D01*
X0081774Y0058762D02*
X0079766Y0058762D01*
X0079766Y0058768D02*
X0081774Y0058768D01*
X0081774Y0058774D02*
X0079766Y0058774D01*
X0079766Y0058781D02*
X0081774Y0058781D01*
X0081774Y0058787D02*
X0079766Y0058787D01*
X0079766Y0058794D02*
X0081774Y0058794D01*
X0081774Y0058800D02*
X0079766Y0058800D01*
X0079766Y0058806D02*
X0081774Y0058806D01*
X0081774Y0058813D02*
X0079766Y0058813D01*
X0079766Y0058819D02*
X0081774Y0058819D01*
X0081774Y0058825D02*
X0079766Y0058825D01*
X0079766Y0058832D02*
X0081774Y0058832D01*
X0081774Y0058838D02*
X0079766Y0058838D01*
X0079766Y0058845D02*
X0081774Y0058845D01*
X0081774Y0058851D02*
X0079766Y0058851D01*
X0079766Y0058857D02*
X0081774Y0058857D01*
X0081774Y0058864D02*
X0079766Y0058864D01*
X0079766Y0058870D02*
X0081774Y0058870D01*
X0081774Y0058877D02*
X0079766Y0058877D01*
X0079766Y0058883D02*
X0081774Y0058883D01*
X0081774Y0058889D02*
X0079766Y0058889D01*
X0079766Y0058896D02*
X0081774Y0058896D01*
X0081774Y0058902D02*
X0079766Y0058902D01*
X0079766Y0058908D02*
X0081774Y0058908D01*
X0081774Y0058915D02*
X0079766Y0058915D01*
X0079766Y0058921D02*
X0081774Y0058921D01*
X0081774Y0058928D02*
X0079766Y0058928D01*
X0079766Y0058934D02*
X0081774Y0058934D01*
X0081774Y0058940D02*
X0079766Y0058940D01*
X0079766Y0058947D02*
X0081774Y0058947D01*
X0081774Y0058953D02*
X0079766Y0058953D01*
X0079766Y0058960D02*
X0081774Y0058960D01*
X0081774Y0058966D02*
X0079766Y0058966D01*
X0079766Y0058972D02*
X0081774Y0058972D01*
X0081774Y0058979D02*
X0079766Y0058979D01*
X0079766Y0058985D02*
X0081774Y0058985D01*
X0081774Y0058991D02*
X0079766Y0058991D01*
X0079766Y0058998D02*
X0081774Y0058998D01*
X0081774Y0059004D02*
X0079766Y0059004D01*
X0079766Y0059011D02*
X0081774Y0059011D01*
X0081774Y0059017D02*
X0079766Y0059017D01*
X0079766Y0059023D02*
X0081774Y0059023D01*
X0081774Y0059030D02*
X0079766Y0059030D01*
X0079766Y0059036D02*
X0081774Y0059036D01*
X0081774Y0059043D02*
X0079766Y0059043D01*
X0079766Y0059049D02*
X0081774Y0059049D01*
X0081774Y0059055D02*
X0079766Y0059055D01*
X0079766Y0059062D02*
X0081774Y0059062D01*
X0081774Y0059068D02*
X0079766Y0059068D01*
X0079766Y0059075D02*
X0081774Y0059075D01*
X0081774Y0059081D02*
X0079766Y0059081D01*
X0079766Y0059087D02*
X0081774Y0059087D01*
X0081774Y0059094D02*
X0079766Y0059094D01*
X0079766Y0059100D02*
X0081774Y0059100D01*
X0081774Y0059106D02*
X0079766Y0059106D01*
X0079766Y0059113D02*
X0081774Y0059113D01*
X0081774Y0059119D02*
X0079766Y0059119D01*
X0079766Y0059126D02*
X0081774Y0059126D01*
X0081774Y0059132D02*
X0079766Y0059132D01*
X0079766Y0059138D02*
X0081774Y0059138D01*
X0081774Y0059145D02*
X0079766Y0059145D01*
X0079766Y0059151D02*
X0081774Y0059151D01*
X0081774Y0059158D02*
X0079766Y0059158D01*
X0079766Y0059164D02*
X0081774Y0059164D01*
X0081774Y0059170D02*
X0079766Y0059170D01*
X0079766Y0059177D02*
X0081774Y0059177D01*
X0081774Y0059183D02*
X0079766Y0059183D01*
X0079766Y0059189D02*
X0081774Y0059189D01*
X0081774Y0059196D02*
X0079766Y0059196D01*
X0079766Y0059202D02*
X0081774Y0059202D01*
X0081774Y0059209D02*
X0079766Y0059209D01*
X0079766Y0059215D02*
X0081774Y0059215D01*
X0081774Y0059221D02*
X0079766Y0059221D01*
X0079766Y0059228D02*
X0081774Y0059228D01*
X0081774Y0059234D02*
X0079766Y0059234D01*
X0079766Y0059241D02*
X0081774Y0059241D01*
X0081774Y0059247D02*
X0079766Y0059247D01*
X0079766Y0059253D02*
X0081774Y0059253D01*
X0081774Y0059260D02*
X0079766Y0059260D01*
X0079766Y0059266D02*
X0081774Y0059266D01*
X0081774Y0059272D02*
X0079766Y0059272D01*
X0079766Y0059279D02*
X0081774Y0059279D01*
X0081774Y0059285D02*
X0079766Y0059285D01*
X0079766Y0059292D02*
X0081774Y0059292D01*
X0081774Y0059298D02*
X0079766Y0059298D01*
X0079766Y0059304D02*
X0081774Y0059304D01*
X0081774Y0059311D02*
X0079766Y0059311D01*
X0079766Y0059317D02*
X0081774Y0059317D01*
X0081774Y0059324D02*
X0079766Y0059324D01*
X0079766Y0059330D02*
X0081774Y0059330D01*
X0081774Y0059336D02*
X0079766Y0059336D01*
X0079766Y0059343D02*
X0081774Y0059343D01*
X0081774Y0059349D02*
X0079766Y0059349D01*
X0079766Y0059355D02*
X0081774Y0059355D01*
X0081774Y0059362D02*
X0079766Y0059362D01*
X0079766Y0059368D02*
X0081774Y0059368D01*
X0081774Y0059375D02*
X0079766Y0059375D01*
X0079766Y0059381D02*
X0081774Y0059381D01*
X0081774Y0059387D02*
X0079766Y0059387D01*
X0079766Y0059394D02*
X0081774Y0059394D01*
X0081774Y0059400D02*
X0079766Y0059400D01*
X0079766Y0059407D02*
X0081774Y0059407D01*
X0081774Y0059413D02*
X0079766Y0059413D01*
X0079766Y0059419D02*
X0081774Y0059419D01*
X0081774Y0059426D02*
X0079766Y0059426D01*
X0079766Y0059432D02*
X0081774Y0059432D01*
X0081774Y0059438D02*
X0079766Y0059438D01*
X0079766Y0059445D02*
X0081774Y0059445D01*
X0081774Y0059451D02*
X0079766Y0059451D01*
X0079766Y0059458D02*
X0081774Y0059458D01*
X0081774Y0059464D02*
X0079766Y0059464D01*
X0079766Y0059470D02*
X0081774Y0059470D01*
X0081774Y0059477D02*
X0079766Y0059477D01*
X0079766Y0059483D02*
X0081774Y0059483D01*
X0081774Y0059490D02*
X0079766Y0059490D01*
X0079766Y0059496D02*
X0081774Y0059496D01*
X0081774Y0059502D02*
X0079766Y0059502D01*
X0079766Y0059509D02*
X0081774Y0059509D01*
X0081774Y0059515D02*
X0079766Y0059515D01*
X0079766Y0059521D02*
X0081774Y0059521D01*
X0081774Y0059528D02*
X0079766Y0059528D01*
X0079766Y0059534D02*
X0081774Y0059534D01*
X0081774Y0059541D02*
X0079766Y0059541D01*
X0079766Y0059547D02*
X0081774Y0059547D01*
X0081774Y0059553D02*
X0079766Y0059553D01*
X0079766Y0059560D02*
X0081774Y0059560D01*
X0081774Y0059566D02*
X0079766Y0059566D01*
X0079766Y0059573D02*
X0081774Y0059573D01*
X0081774Y0059579D02*
X0079766Y0059579D01*
X0079766Y0059585D02*
X0081774Y0059585D01*
X0081774Y0059592D02*
X0079766Y0059592D01*
X0079766Y0059598D02*
X0081774Y0059598D01*
X0081774Y0059604D02*
X0079766Y0059604D01*
X0079766Y0059611D02*
X0082758Y0059611D01*
X0082758Y0059617D02*
X0079766Y0059617D01*
X0079766Y0059624D02*
X0082758Y0059624D01*
X0082758Y0059630D02*
X0079766Y0059630D01*
X0079766Y0059636D02*
X0082758Y0059636D01*
X0082758Y0059643D02*
X0079766Y0059643D01*
X0079766Y0059649D02*
X0082758Y0059649D01*
X0082758Y0059656D02*
X0079766Y0059656D01*
X0079766Y0059662D02*
X0082758Y0059662D01*
X0082758Y0059668D02*
X0079766Y0059668D01*
X0079766Y0059675D02*
X0082758Y0059675D01*
X0082758Y0059681D02*
X0079766Y0059681D01*
X0079766Y0059687D02*
X0082758Y0059687D01*
X0082758Y0059694D02*
X0079766Y0059694D01*
X0079766Y0059700D02*
X0082758Y0059700D01*
X0082758Y0059707D02*
X0079766Y0059707D01*
X0079766Y0059713D02*
X0082758Y0059713D01*
X0082758Y0059719D02*
X0079766Y0059719D01*
X0079766Y0059726D02*
X0082758Y0059726D01*
X0082758Y0059732D02*
X0079766Y0059732D01*
X0079766Y0059739D02*
X0082758Y0059739D01*
X0082758Y0059745D02*
X0079766Y0059745D01*
X0079766Y0059751D02*
X0082758Y0059751D01*
X0082758Y0059758D02*
X0079766Y0059758D01*
X0079766Y0059764D02*
X0082758Y0059764D01*
X0082758Y0059771D02*
X0079766Y0059771D01*
X0079766Y0059777D02*
X0082758Y0059777D01*
X0082758Y0059783D02*
X0079766Y0059783D01*
X0079766Y0059790D02*
X0082758Y0059790D01*
X0082758Y0059796D02*
X0079766Y0059796D01*
X0079766Y0059802D02*
X0082758Y0059802D01*
X0082758Y0059809D02*
X0079766Y0059809D01*
X0079766Y0059815D02*
X0082758Y0059815D01*
X0082758Y0059822D02*
X0079766Y0059822D01*
X0079766Y0059828D02*
X0082758Y0059828D01*
X0082758Y0059834D02*
X0079766Y0059834D01*
X0079766Y0059841D02*
X0082758Y0059841D01*
X0082758Y0059847D02*
X0079766Y0059847D01*
X0079766Y0059854D02*
X0082758Y0059854D01*
X0082758Y0059860D02*
X0079766Y0059860D01*
X0079766Y0059866D02*
X0082758Y0059866D01*
X0082758Y0059873D02*
X0079766Y0059873D01*
X0079766Y0059879D02*
X0082758Y0059879D01*
X0082758Y0059885D02*
X0079766Y0059885D01*
X0079766Y0059892D02*
X0082758Y0059892D01*
X0082758Y0059898D02*
X0079766Y0059898D01*
X0079766Y0059905D02*
X0082758Y0059905D01*
X0082758Y0059911D02*
X0079766Y0059911D01*
X0079766Y0059917D02*
X0082758Y0059917D01*
X0082758Y0059924D02*
X0079766Y0059924D01*
X0079766Y0059930D02*
X0082758Y0059930D01*
X0082758Y0059937D02*
X0079766Y0059937D01*
X0079766Y0059943D02*
X0082758Y0059943D01*
X0082758Y0059949D02*
X0079766Y0059949D01*
X0079766Y0059956D02*
X0082758Y0059956D01*
X0082758Y0059962D02*
X0079766Y0059962D01*
X0079766Y0059968D02*
X0082758Y0059968D01*
X0082758Y0059975D02*
X0079766Y0059975D01*
X0079766Y0059981D02*
X0082758Y0059981D01*
X0082758Y0059988D02*
X0079766Y0059988D01*
X0079766Y0059994D02*
X0082758Y0059994D01*
X0082758Y0060000D02*
X0079766Y0060000D01*
X0079766Y0060007D02*
X0082758Y0060007D01*
X0082758Y0060013D02*
X0079766Y0060013D01*
X0079766Y0060020D02*
X0082758Y0060020D01*
X0082758Y0060026D02*
X0079766Y0060026D01*
X0079766Y0060032D02*
X0082758Y0060032D01*
X0082758Y0060039D02*
X0079766Y0060039D01*
X0079766Y0060045D02*
X0082758Y0060045D01*
X0082758Y0060051D02*
X0079766Y0060051D01*
X0079766Y0060058D02*
X0082758Y0060058D01*
X0082758Y0060064D02*
X0079766Y0060064D01*
X0079766Y0060071D02*
X0082758Y0060071D01*
X0082758Y0060077D02*
X0079766Y0060077D01*
X0079766Y0060083D02*
X0082758Y0060083D01*
X0082758Y0060090D02*
X0079766Y0060090D01*
X0079766Y0060096D02*
X0082758Y0060096D01*
X0082758Y0060103D02*
X0079766Y0060103D01*
X0079766Y0060109D02*
X0082758Y0060109D01*
X0082758Y0060115D02*
X0079766Y0060115D01*
X0079766Y0060122D02*
X0082758Y0060122D01*
X0082758Y0060128D02*
X0079766Y0060128D01*
X0079766Y0060134D02*
X0082758Y0060134D01*
X0082758Y0060141D02*
X0079766Y0060141D01*
X0079766Y0060147D02*
X0082758Y0060147D01*
X0082758Y0060154D02*
X0079766Y0060154D01*
X0079766Y0060160D02*
X0082758Y0060160D01*
X0082758Y0060166D02*
X0079766Y0060166D01*
X0079766Y0060173D02*
X0082758Y0060173D01*
X0082758Y0060179D02*
X0079766Y0060179D01*
X0079766Y0060186D02*
X0082758Y0060186D01*
X0082758Y0060192D02*
X0079766Y0060192D01*
X0079766Y0060198D02*
X0082758Y0060198D01*
X0082758Y0060205D02*
X0079766Y0060205D01*
X0079766Y0060211D02*
X0082758Y0060211D01*
X0082758Y0060217D02*
X0079766Y0060217D01*
X0079766Y0060224D02*
X0082758Y0060224D01*
X0082758Y0060230D02*
X0079766Y0060230D01*
X0079766Y0060237D02*
X0082758Y0060237D01*
X0082758Y0060243D02*
X0079766Y0060243D01*
X0079766Y0060249D02*
X0082758Y0060249D01*
X0082758Y0060256D02*
X0079766Y0060256D01*
X0079766Y0060262D02*
X0082758Y0060262D01*
X0082758Y0060269D02*
X0079766Y0060269D01*
X0079773Y0060275D02*
X0082758Y0060275D01*
X0082758Y0060281D02*
X0079779Y0060281D01*
X0079786Y0060288D02*
X0082758Y0060288D01*
X0082758Y0060294D02*
X0079792Y0060294D01*
X0079799Y0060300D02*
X0082758Y0060300D01*
X0082758Y0060307D02*
X0079806Y0060307D01*
X0079812Y0060313D02*
X0082758Y0060313D01*
X0082758Y0060320D02*
X0079819Y0060320D01*
X0079825Y0060326D02*
X0082758Y0060326D01*
X0082758Y0060332D02*
X0079832Y0060332D01*
X0079838Y0060339D02*
X0082758Y0060339D01*
X0082758Y0060345D02*
X0079845Y0060345D01*
X0079851Y0060352D02*
X0082758Y0060352D01*
X0082758Y0060358D02*
X0079858Y0060358D01*
X0079865Y0060364D02*
X0082758Y0060364D01*
X0082758Y0060371D02*
X0079871Y0060371D01*
X0079878Y0060377D02*
X0082758Y0060377D01*
X0082758Y0060384D02*
X0079884Y0060384D01*
X0079891Y0060390D02*
X0082758Y0060390D01*
X0082758Y0060396D02*
X0079897Y0060396D01*
X0079904Y0060403D02*
X0082758Y0060403D01*
X0082758Y0060409D02*
X0079910Y0060409D01*
X0079917Y0060415D02*
X0082758Y0060415D01*
X0082758Y0060422D02*
X0079923Y0060422D01*
X0079930Y0060428D02*
X0082758Y0060428D01*
X0082758Y0060435D02*
X0079937Y0060435D01*
X0079943Y0060441D02*
X0082758Y0060441D01*
X0082758Y0060447D02*
X0079950Y0060447D01*
X0079956Y0060454D02*
X0082758Y0060454D01*
X0082758Y0060460D02*
X0079963Y0060460D01*
X0079969Y0060467D02*
X0082758Y0060467D01*
X0082758Y0060473D02*
X0079976Y0060473D01*
X0079982Y0060479D02*
X0082758Y0060479D01*
X0082758Y0060486D02*
X0079989Y0060486D01*
X0079996Y0060492D02*
X0082758Y0060492D01*
X0082758Y0060498D02*
X0080002Y0060498D01*
X0080009Y0060505D02*
X0082758Y0060505D01*
X0082758Y0060511D02*
X0080015Y0060511D01*
X0080022Y0060518D02*
X0082758Y0060518D01*
X0082758Y0060524D02*
X0080028Y0060524D01*
X0080035Y0060530D02*
X0082758Y0060530D01*
X0082758Y0060537D02*
X0080041Y0060537D01*
X0080048Y0060543D02*
X0082758Y0060543D01*
X0082758Y0060550D02*
X0080054Y0060550D01*
X0080061Y0060556D02*
X0082758Y0060556D01*
X0082758Y0060562D02*
X0080068Y0060562D01*
X0080074Y0060569D02*
X0082758Y0060569D01*
X0082758Y0060575D02*
X0080081Y0060575D01*
X0080087Y0060581D02*
X0082758Y0060581D01*
X0082758Y0060588D02*
X0080094Y0060588D01*
X0080100Y0060594D02*
X0082758Y0060594D01*
X0082758Y0060601D02*
X0080107Y0060601D01*
X0080113Y0060607D02*
X0082758Y0060607D01*
X0082758Y0060613D02*
X0080120Y0060613D01*
X0080126Y0060620D02*
X0082758Y0060620D01*
X0082758Y0060626D02*
X0080133Y0060626D01*
X0080140Y0060633D02*
X0082758Y0060633D01*
X0082758Y0060639D02*
X0080146Y0060639D01*
X0080153Y0060645D02*
X0082758Y0060645D01*
X0082758Y0060652D02*
X0080159Y0060652D01*
X0080166Y0060658D02*
X0082758Y0060658D01*
X0082758Y0060664D02*
X0080172Y0060664D01*
X0080179Y0060671D02*
X0082758Y0060671D01*
X0082758Y0060677D02*
X0080185Y0060677D01*
X0080192Y0060684D02*
X0082758Y0060684D01*
X0082758Y0060690D02*
X0080199Y0060690D01*
X0080205Y0060696D02*
X0082758Y0060696D01*
X0082758Y0060703D02*
X0080212Y0060703D01*
X0080218Y0060709D02*
X0082758Y0060709D01*
X0082758Y0060716D02*
X0080225Y0060716D01*
X0080231Y0060722D02*
X0082758Y0060722D01*
X0082758Y0060728D02*
X0080238Y0060728D01*
X0080244Y0060735D02*
X0082758Y0060735D01*
X0082758Y0060741D02*
X0080251Y0060741D01*
X0080257Y0060747D02*
X0082758Y0060747D01*
X0082758Y0060754D02*
X0080264Y0060754D01*
X0080271Y0060760D02*
X0082758Y0060760D01*
X0082758Y0060767D02*
X0080277Y0060767D01*
X0080284Y0060773D02*
X0082758Y0060773D01*
X0082758Y0060779D02*
X0080290Y0060779D01*
X0080297Y0060786D02*
X0082758Y0060786D01*
X0082758Y0060792D02*
X0080303Y0060792D01*
X0080310Y0060799D02*
X0082758Y0060799D01*
X0082758Y0060805D02*
X0080316Y0060805D01*
X0080323Y0060811D02*
X0082758Y0060811D01*
X0082758Y0060818D02*
X0080330Y0060818D01*
X0080336Y0060824D02*
X0082758Y0060824D01*
X0082758Y0060830D02*
X0080343Y0060830D01*
X0080349Y0060837D02*
X0082758Y0060837D01*
X0082758Y0060843D02*
X0080356Y0060843D01*
X0080362Y0060850D02*
X0082758Y0060850D01*
X0082758Y0060856D02*
X0080369Y0060856D01*
X0080375Y0060862D02*
X0082758Y0060862D01*
X0082758Y0060869D02*
X0080382Y0060869D01*
X0080388Y0060875D02*
X0082758Y0060875D01*
X0082758Y0060882D02*
X0080395Y0060882D01*
X0080402Y0060888D02*
X0082758Y0060888D01*
X0082758Y0060894D02*
X0080408Y0060894D01*
X0080415Y0060901D02*
X0082758Y0060901D01*
X0082758Y0060907D02*
X0080421Y0060907D01*
X0080428Y0060913D02*
X0082758Y0060913D01*
X0082758Y0060920D02*
X0080434Y0060920D01*
X0080441Y0060926D02*
X0082758Y0060926D01*
X0082758Y0060933D02*
X0080447Y0060933D01*
X0080454Y0060939D02*
X0082758Y0060939D01*
X0082758Y0060945D02*
X0080460Y0060945D01*
X0080467Y0060952D02*
X0082758Y0060952D01*
X0082758Y0060958D02*
X0080474Y0060958D01*
X0080480Y0060965D02*
X0082758Y0060965D01*
X0082758Y0060971D02*
X0080487Y0060971D01*
X0080493Y0060977D02*
X0082758Y0060977D01*
X0082758Y0060984D02*
X0080500Y0060984D01*
X0080506Y0060990D02*
X0082758Y0060990D01*
X0082758Y0060996D02*
X0080513Y0060996D01*
X0080519Y0061003D02*
X0082758Y0061003D01*
X0082758Y0061009D02*
X0080526Y0061009D01*
X0080533Y0061016D02*
X0082758Y0061016D01*
X0082758Y0061022D02*
X0080539Y0061022D01*
X0080546Y0061028D02*
X0082758Y0061028D01*
X0082758Y0061035D02*
X0080552Y0061035D01*
X0080559Y0061041D02*
X0082758Y0061041D01*
X0082758Y0061048D02*
X0080565Y0061048D01*
X0080572Y0061054D02*
X0082758Y0061054D01*
X0082758Y0061060D02*
X0080578Y0061060D01*
X0080585Y0061067D02*
X0082758Y0061067D01*
X0082758Y0061073D02*
X0080591Y0061073D01*
X0080598Y0061080D02*
X0082758Y0061080D01*
X0082758Y0061086D02*
X0080605Y0061086D01*
X0080611Y0061092D02*
X0082758Y0061092D01*
X0082758Y0061099D02*
X0080618Y0061099D01*
X0080624Y0061105D02*
X0082758Y0061105D01*
X0082758Y0061111D02*
X0080631Y0061111D01*
X0080637Y0061118D02*
X0082758Y0061118D01*
X0082758Y0061124D02*
X0080644Y0061124D01*
X0080650Y0061131D02*
X0082758Y0061131D01*
X0082758Y0061137D02*
X0080657Y0061137D01*
X0080663Y0061143D02*
X0082758Y0061143D01*
X0082758Y0061150D02*
X0080670Y0061150D01*
X0080677Y0061156D02*
X0082758Y0061156D01*
X0082758Y0061163D02*
X0080683Y0061163D01*
X0080690Y0061169D02*
X0082758Y0061169D01*
X0082758Y0061175D02*
X0080696Y0061175D01*
X0080703Y0061182D02*
X0082758Y0061182D01*
X0082758Y0061188D02*
X0080709Y0061188D01*
X0080716Y0061194D02*
X0082758Y0061194D01*
X0082758Y0061201D02*
X0080722Y0061201D01*
X0080729Y0061207D02*
X0082758Y0061207D01*
X0082758Y0061214D02*
X0080736Y0061214D01*
X0080742Y0061220D02*
X0082758Y0061220D01*
X0082758Y0061226D02*
X0080749Y0061226D01*
X0080755Y0061233D02*
X0082758Y0061233D01*
X0082758Y0061239D02*
X0080762Y0061239D01*
X0080768Y0061246D02*
X0082758Y0061246D01*
X0082758Y0061252D02*
X0080775Y0061252D01*
X0080781Y0061258D02*
X0082758Y0061258D01*
X0082758Y0061265D02*
X0080788Y0061265D01*
X0080794Y0061271D02*
X0082758Y0061271D01*
X0082758Y0061277D02*
X0080801Y0061277D01*
X0080808Y0061284D02*
X0082758Y0061284D01*
X0082758Y0061290D02*
X0080814Y0061290D01*
X0080821Y0061297D02*
X0082758Y0061297D01*
X0082758Y0061303D02*
X0080827Y0061303D01*
X0080834Y0061309D02*
X0082758Y0061309D01*
X0082758Y0061316D02*
X0080840Y0061316D01*
X0080847Y0061322D02*
X0082758Y0061322D01*
X0082758Y0061329D02*
X0080853Y0061329D01*
X0080860Y0061335D02*
X0082758Y0061335D01*
X0082758Y0061341D02*
X0080867Y0061341D01*
X0080873Y0061348D02*
X0082758Y0061348D01*
X0082758Y0061354D02*
X0080880Y0061354D01*
X0080886Y0061360D02*
X0082758Y0061360D01*
X0082758Y0061367D02*
X0080893Y0061367D01*
X0080899Y0061373D02*
X0082758Y0061373D01*
X0082758Y0061380D02*
X0080906Y0061380D01*
X0080912Y0061386D02*
X0082758Y0061386D01*
X0082758Y0061392D02*
X0080919Y0061392D01*
X0080925Y0061399D02*
X0082758Y0061399D01*
X0082758Y0061405D02*
X0080932Y0061405D01*
X0080939Y0061412D02*
X0082758Y0061412D01*
X0082758Y0061418D02*
X0080945Y0061418D01*
X0080952Y0061424D02*
X0082758Y0061424D01*
X0082758Y0061431D02*
X0080958Y0061431D01*
X0080965Y0061437D02*
X0082758Y0061437D01*
X0082758Y0061443D02*
X0080971Y0061443D01*
X0080978Y0061450D02*
X0082758Y0061450D01*
X0082758Y0061456D02*
X0080984Y0061456D01*
X0080991Y0061463D02*
X0082758Y0061463D01*
X0082758Y0061469D02*
X0080998Y0061469D01*
X0081004Y0061475D02*
X0082758Y0061475D01*
X0082758Y0061482D02*
X0081011Y0061482D01*
X0081017Y0061488D02*
X0082758Y0061488D01*
X0082758Y0061495D02*
X0081024Y0061495D01*
X0081030Y0061501D02*
X0082758Y0061501D01*
X0082758Y0061507D02*
X0081037Y0061507D01*
X0081043Y0061514D02*
X0082758Y0061514D01*
X0082758Y0061520D02*
X0081050Y0061520D01*
X0081056Y0061526D02*
X0082758Y0061526D01*
X0082758Y0061533D02*
X0081063Y0061533D01*
X0081070Y0061539D02*
X0082758Y0061539D01*
X0082758Y0061546D02*
X0081076Y0061546D01*
X0081083Y0061552D02*
X0082758Y0061552D01*
X0082758Y0061558D02*
X0081089Y0061558D01*
X0081096Y0061565D02*
X0082758Y0061565D01*
X0082758Y0061571D02*
X0081102Y0061571D01*
X0083939Y0059707D02*
X0085888Y0059707D01*
X0085888Y0059700D02*
X0083939Y0059700D01*
X0083939Y0059694D02*
X0085888Y0059694D01*
X0085888Y0059687D02*
X0083939Y0059687D01*
X0083939Y0059681D02*
X0085888Y0059681D01*
X0085888Y0059675D02*
X0083939Y0059675D01*
X0083939Y0059668D02*
X0085888Y0059668D01*
X0085887Y0059662D02*
X0083939Y0059662D01*
X0083939Y0059656D02*
X0085887Y0059656D01*
X0085887Y0059649D02*
X0083939Y0059649D01*
X0083939Y0059643D02*
X0085887Y0059643D01*
X0085887Y0059636D02*
X0083939Y0059636D01*
X0083939Y0059630D02*
X0085887Y0059630D01*
X0085887Y0059624D02*
X0083939Y0059624D01*
X0083939Y0059617D02*
X0085887Y0059617D01*
X0085887Y0059611D02*
X0083939Y0059611D01*
X0083939Y0059604D02*
X0085887Y0059604D01*
X0085887Y0059598D02*
X0083939Y0059598D01*
X0083939Y0059592D02*
X0085887Y0059592D01*
X0085887Y0059585D02*
X0083939Y0059585D01*
X0083939Y0059579D02*
X0085887Y0059579D01*
X0085887Y0059573D02*
X0083939Y0059573D01*
X0083939Y0059566D02*
X0085887Y0059566D01*
X0085887Y0059560D02*
X0083939Y0059560D01*
X0083939Y0059553D02*
X0085887Y0059553D01*
X0085887Y0059547D02*
X0083939Y0059547D01*
X0083939Y0059541D02*
X0085887Y0059541D01*
X0085887Y0059534D02*
X0083939Y0059534D01*
X0083939Y0059528D02*
X0085887Y0059528D01*
X0085887Y0059521D02*
X0083939Y0059521D01*
X0083939Y0059515D02*
X0085887Y0059515D01*
X0085887Y0059509D02*
X0083939Y0059509D01*
X0083939Y0059502D02*
X0085887Y0059502D01*
X0085886Y0059496D02*
X0083939Y0059496D01*
X0083939Y0059490D02*
X0085886Y0059490D01*
X0085886Y0059483D02*
X0083939Y0059483D01*
X0083939Y0059477D02*
X0085886Y0059477D01*
X0085886Y0059470D02*
X0083939Y0059470D01*
X0083939Y0059464D02*
X0085886Y0059464D01*
X0085886Y0059458D02*
X0083939Y0059458D01*
X0083939Y0059451D02*
X0085886Y0059451D01*
X0085886Y0059445D02*
X0083939Y0059445D01*
X0083939Y0059438D02*
X0085886Y0059438D01*
X0085886Y0059432D02*
X0083939Y0059432D01*
X0083939Y0059426D02*
X0085886Y0059426D01*
X0085886Y0059419D02*
X0083939Y0059419D01*
X0083939Y0059413D02*
X0085886Y0059413D01*
X0085886Y0059407D02*
X0083939Y0059407D01*
X0083939Y0059400D02*
X0085886Y0059400D01*
X0085886Y0059394D02*
X0083939Y0059394D01*
X0083939Y0059387D02*
X0085886Y0059387D01*
X0085886Y0059381D02*
X0083939Y0059381D01*
X0083939Y0059375D02*
X0085886Y0059375D01*
X0085886Y0059368D02*
X0083939Y0059368D01*
X0083939Y0059362D02*
X0085886Y0059362D01*
X0085886Y0059355D02*
X0083939Y0059355D01*
X0083939Y0059349D02*
X0085886Y0059349D01*
X0085886Y0059343D02*
X0083939Y0059343D01*
X0083939Y0059336D02*
X0085886Y0059336D01*
X0085885Y0059330D02*
X0083939Y0059330D01*
X0083939Y0059324D02*
X0085885Y0059324D01*
X0085885Y0059317D02*
X0083939Y0059317D01*
X0083939Y0059311D02*
X0085885Y0059311D01*
X0085885Y0059304D02*
X0083939Y0059304D01*
X0083939Y0059298D02*
X0085885Y0059298D01*
X0085885Y0059292D02*
X0083939Y0059292D01*
X0083939Y0059285D02*
X0085885Y0059285D01*
X0085885Y0059279D02*
X0083939Y0059279D01*
X0083939Y0059272D02*
X0085885Y0059272D01*
X0085885Y0059266D02*
X0083939Y0059266D01*
X0083939Y0059260D02*
X0085885Y0059260D01*
X0085885Y0059253D02*
X0083939Y0059253D01*
X0083939Y0059247D02*
X0085885Y0059247D01*
X0085885Y0059241D02*
X0083939Y0059241D01*
X0083939Y0059234D02*
X0085885Y0059234D01*
X0085885Y0059228D02*
X0083939Y0059228D01*
X0083939Y0059221D02*
X0085885Y0059221D01*
X0085885Y0059215D02*
X0083939Y0059215D01*
X0083939Y0059209D02*
X0085885Y0059209D01*
X0085885Y0059202D02*
X0083939Y0059202D01*
X0083939Y0059196D02*
X0085885Y0059196D01*
X0085885Y0059189D02*
X0083939Y0059189D01*
X0083939Y0059183D02*
X0085885Y0059183D01*
X0085885Y0059177D02*
X0083939Y0059177D01*
X0083939Y0059170D02*
X0085885Y0059170D01*
X0085884Y0059164D02*
X0083939Y0059164D01*
X0083939Y0059158D02*
X0085884Y0059158D01*
X0085884Y0059151D02*
X0083939Y0059151D01*
X0083939Y0059145D02*
X0085884Y0059145D01*
X0085884Y0059138D02*
X0083939Y0059138D01*
X0083939Y0059132D02*
X0085884Y0059132D01*
X0085884Y0059126D02*
X0083939Y0059126D01*
X0083939Y0059119D02*
X0085884Y0059119D01*
X0085884Y0059113D02*
X0083939Y0059113D01*
X0083939Y0059106D02*
X0085884Y0059106D01*
X0085884Y0059100D02*
X0083939Y0059100D01*
X0083939Y0059094D02*
X0085884Y0059094D01*
X0085884Y0059087D02*
X0083939Y0059087D01*
X0083939Y0059081D02*
X0085884Y0059081D01*
X0085884Y0059075D02*
X0083939Y0059075D01*
X0083939Y0059068D02*
X0085884Y0059068D01*
X0085884Y0059062D02*
X0083939Y0059062D01*
X0083939Y0059055D02*
X0085884Y0059055D01*
X0085884Y0059049D02*
X0083939Y0059049D01*
X0083939Y0059043D02*
X0085884Y0059043D01*
X0085884Y0059036D02*
X0083939Y0059036D01*
X0083939Y0059030D02*
X0085884Y0059030D01*
X0085884Y0059023D02*
X0083939Y0059023D01*
X0083939Y0059017D02*
X0085884Y0059017D01*
X0085884Y0059011D02*
X0083939Y0059011D01*
X0083939Y0059004D02*
X0085884Y0059004D01*
X0085883Y0058998D02*
X0083939Y0058998D01*
X0083939Y0058991D02*
X0085883Y0058991D01*
X0085883Y0058985D02*
X0083939Y0058985D01*
X0083939Y0058979D02*
X0085883Y0058979D01*
X0085883Y0058972D02*
X0083939Y0058972D01*
X0083939Y0058966D02*
X0085883Y0058966D01*
X0085883Y0058960D02*
X0083939Y0058960D01*
X0083939Y0058953D02*
X0085883Y0058953D01*
X0085883Y0058947D02*
X0083939Y0058947D01*
X0083939Y0058940D02*
X0085883Y0058940D01*
X0085883Y0058934D02*
X0083939Y0058934D01*
X0083939Y0058928D02*
X0085883Y0058928D01*
X0085883Y0058921D02*
X0083939Y0058921D01*
X0083939Y0058915D02*
X0085883Y0058915D01*
X0085883Y0058908D02*
X0083939Y0058908D01*
X0083939Y0058902D02*
X0085883Y0058902D01*
X0085883Y0058896D02*
X0083939Y0058896D01*
X0083939Y0058889D02*
X0085883Y0058889D01*
X0085883Y0058883D02*
X0083939Y0058883D01*
X0083939Y0058877D02*
X0085883Y0058877D01*
X0085883Y0058870D02*
X0083939Y0058870D01*
X0083939Y0058864D02*
X0085883Y0058864D01*
X0085883Y0058857D02*
X0083939Y0058857D01*
X0083939Y0058851D02*
X0085883Y0058851D01*
X0085883Y0058845D02*
X0083939Y0058845D01*
X0083939Y0058838D02*
X0085883Y0058838D01*
X0085882Y0058832D02*
X0083939Y0058832D01*
X0083939Y0058825D02*
X0085882Y0058825D01*
X0085882Y0058819D02*
X0083939Y0058819D01*
X0083939Y0058813D02*
X0085882Y0058813D01*
X0085882Y0058806D02*
X0083939Y0058806D01*
X0083939Y0058800D02*
X0085882Y0058800D01*
X0085882Y0058794D02*
X0083939Y0058794D01*
X0083939Y0058787D02*
X0085882Y0058787D01*
X0085882Y0058781D02*
X0083939Y0058781D01*
X0083939Y0058774D02*
X0085882Y0058774D01*
X0085882Y0058768D02*
X0083939Y0058768D01*
X0083939Y0058762D02*
X0085882Y0058762D01*
X0085882Y0058755D02*
X0083939Y0058755D01*
X0083939Y0058749D02*
X0085882Y0058749D01*
X0085882Y0058742D02*
X0083939Y0058742D01*
X0083939Y0058736D02*
X0085882Y0058736D01*
X0085882Y0058730D02*
X0083939Y0058730D01*
X0083939Y0058723D02*
X0085882Y0058723D01*
X0085882Y0058717D02*
X0083939Y0058717D01*
X0083939Y0058711D02*
X0085882Y0058711D01*
X0085882Y0058704D02*
X0083939Y0058704D01*
X0083939Y0058698D02*
X0085882Y0058698D01*
X0085882Y0058691D02*
X0083939Y0058691D01*
X0083939Y0058685D02*
X0085882Y0058685D01*
X0085882Y0058679D02*
X0083939Y0058679D01*
X0083939Y0058672D02*
X0085882Y0058672D01*
X0085881Y0058666D02*
X0083939Y0058666D01*
X0083939Y0058659D02*
X0085881Y0058659D01*
X0085881Y0058653D02*
X0083939Y0058653D01*
X0083939Y0058647D02*
X0085881Y0058647D01*
X0085881Y0058640D02*
X0083939Y0058640D01*
X0083939Y0058634D02*
X0085881Y0058634D01*
X0085881Y0058628D02*
X0083939Y0058628D01*
X0083939Y0058621D02*
X0085881Y0058621D01*
X0085881Y0058615D02*
X0083939Y0058615D01*
X0083939Y0058608D02*
X0085881Y0058608D01*
X0085881Y0058602D02*
X0083939Y0058602D01*
X0083939Y0058596D02*
X0085881Y0058596D01*
X0085881Y0058589D02*
X0083939Y0058589D01*
X0083939Y0058583D02*
X0085881Y0058583D01*
X0085881Y0058576D02*
X0083939Y0058576D01*
X0083939Y0058570D02*
X0085881Y0058570D01*
X0085881Y0058564D02*
X0083939Y0058564D01*
X0083939Y0058557D02*
X0085881Y0058557D01*
X0085881Y0058551D02*
X0083939Y0058551D01*
X0083939Y0058545D02*
X0085881Y0058545D01*
X0085881Y0058538D02*
X0083939Y0058538D01*
X0083939Y0058532D02*
X0085881Y0058532D01*
X0085881Y0058525D02*
X0083939Y0058525D01*
X0083939Y0058519D02*
X0085881Y0058519D01*
X0085881Y0058513D02*
X0083939Y0058513D01*
X0083939Y0058506D02*
X0085881Y0058506D01*
X0085880Y0058500D02*
X0083939Y0058500D01*
X0083939Y0058493D02*
X0085880Y0058493D01*
X0085880Y0058487D02*
X0083939Y0058487D01*
X0083939Y0058481D02*
X0085880Y0058481D01*
X0085880Y0058474D02*
X0083939Y0058474D01*
X0083939Y0058468D02*
X0085880Y0058468D01*
X0085880Y0058462D02*
X0083939Y0058462D01*
X0083939Y0058455D02*
X0085880Y0058455D01*
X0085880Y0058449D02*
X0083939Y0058449D01*
X0083939Y0058442D02*
X0085880Y0058442D01*
X0085880Y0058436D02*
X0083939Y0058436D01*
X0083939Y0058430D02*
X0085880Y0058430D01*
X0085880Y0058423D02*
X0083939Y0058423D01*
X0083939Y0058417D02*
X0085880Y0058417D01*
X0085880Y0058410D02*
X0083939Y0058410D01*
X0083939Y0058404D02*
X0085880Y0058404D01*
X0085880Y0058398D02*
X0083939Y0058398D01*
X0083939Y0058391D02*
X0085880Y0058391D01*
X0085880Y0058385D02*
X0083939Y0058385D01*
X0083939Y0058379D02*
X0085880Y0058379D01*
X0085880Y0058372D02*
X0083939Y0058372D01*
X0083939Y0058366D02*
X0085880Y0058366D01*
X0085880Y0058359D02*
X0083939Y0058359D01*
X0083939Y0058353D02*
X0085880Y0058353D01*
X0085880Y0058347D02*
X0083939Y0058347D01*
X0083939Y0058340D02*
X0085880Y0058340D01*
X0085879Y0058334D02*
X0083939Y0058334D01*
X0083939Y0058327D02*
X0085879Y0058327D01*
X0085879Y0058321D02*
X0083939Y0058321D01*
X0083939Y0058315D02*
X0085879Y0058315D01*
X0085879Y0058308D02*
X0083939Y0058308D01*
X0083939Y0058302D02*
X0085879Y0058302D01*
X0085879Y0058295D02*
X0083939Y0058295D01*
X0083939Y0058289D02*
X0085879Y0058289D01*
X0085879Y0058283D02*
X0083939Y0058283D01*
X0083939Y0058276D02*
X0085879Y0058276D01*
X0085879Y0058270D02*
X0083939Y0058270D01*
X0083939Y0058264D02*
X0085879Y0058264D01*
X0085879Y0058257D02*
X0083939Y0058257D01*
X0083939Y0058251D02*
X0085879Y0058251D01*
X0085879Y0058244D02*
X0083939Y0058244D01*
X0083939Y0058238D02*
X0085879Y0058238D01*
X0085879Y0058232D02*
X0083939Y0058232D01*
X0083939Y0058225D02*
X0085879Y0058225D01*
X0085879Y0058219D02*
X0083939Y0058219D01*
X0083939Y0058212D02*
X0085879Y0058212D01*
X0085879Y0058206D02*
X0083939Y0058206D01*
X0083939Y0058200D02*
X0085879Y0058200D01*
X0085879Y0058193D02*
X0083939Y0058193D01*
X0083939Y0058187D02*
X0085879Y0058187D01*
X0085879Y0058181D02*
X0083939Y0058181D01*
X0083939Y0058174D02*
X0085879Y0058174D01*
X0085878Y0058168D02*
X0083939Y0058168D01*
X0083939Y0058161D02*
X0085878Y0058161D01*
X0085878Y0058155D02*
X0083939Y0058155D01*
X0083939Y0058149D02*
X0085878Y0058149D01*
X0085878Y0058142D02*
X0083939Y0058142D01*
X0083939Y0058136D02*
X0085878Y0058136D01*
X0085878Y0058129D02*
X0083939Y0058129D01*
X0083939Y0058123D02*
X0085878Y0058123D01*
X0085878Y0058117D02*
X0083939Y0058117D01*
X0083939Y0058110D02*
X0085878Y0058110D01*
X0085878Y0058104D02*
X0083939Y0058104D01*
X0083939Y0058098D02*
X0085878Y0058098D01*
X0085878Y0058091D02*
X0083939Y0058091D01*
X0083939Y0058085D02*
X0085878Y0058085D01*
X0085878Y0058078D02*
X0083939Y0058078D01*
X0083939Y0058072D02*
X0085878Y0058072D01*
X0085878Y0058066D02*
X0083939Y0058066D01*
X0083939Y0058059D02*
X0085878Y0058059D01*
X0085878Y0058053D02*
X0083939Y0058053D01*
X0083939Y0058046D02*
X0085878Y0058046D01*
X0085878Y0058040D02*
X0083939Y0058040D01*
X0083939Y0058034D02*
X0085878Y0058034D01*
X0085878Y0058027D02*
X0083939Y0058027D01*
X0083939Y0058021D02*
X0085878Y0058021D01*
X0085878Y0058015D02*
X0083939Y0058015D01*
X0083939Y0058008D02*
X0085878Y0058008D01*
X0085877Y0058002D02*
X0083939Y0058002D01*
X0083939Y0057995D02*
X0085877Y0057995D01*
X0085877Y0057989D02*
X0083939Y0057989D01*
X0083939Y0057983D02*
X0085877Y0057983D01*
X0085877Y0057976D02*
X0083939Y0057976D01*
X0083939Y0057970D02*
X0085877Y0057970D01*
X0085877Y0057963D02*
X0083939Y0057963D01*
X0083939Y0057957D02*
X0085877Y0057957D01*
X0085877Y0057951D02*
X0083939Y0057951D01*
X0083939Y0057944D02*
X0085877Y0057944D01*
X0085877Y0057938D02*
X0083939Y0057938D01*
X0083939Y0057932D02*
X0085877Y0057932D01*
X0085877Y0057925D02*
X0083939Y0057925D01*
X0083939Y0057919D02*
X0085877Y0057919D01*
X0085877Y0057912D02*
X0083939Y0057912D01*
X0083939Y0057906D02*
X0085877Y0057906D01*
X0085877Y0057900D02*
X0083939Y0057900D01*
X0083939Y0057893D02*
X0085877Y0057893D01*
X0085877Y0057887D02*
X0083939Y0057887D01*
X0083939Y0057880D02*
X0085877Y0057880D01*
X0085877Y0057874D02*
X0083939Y0057874D01*
X0083939Y0057868D02*
X0085877Y0057868D01*
X0085877Y0057861D02*
X0083939Y0057861D01*
X0083939Y0057855D02*
X0085877Y0057855D01*
X0085877Y0057849D02*
X0083939Y0057849D01*
X0083939Y0057842D02*
X0085877Y0057842D01*
X0085877Y0057836D02*
X0083939Y0057836D01*
X0083939Y0057829D02*
X0085876Y0057829D01*
X0085876Y0057823D02*
X0083939Y0057823D01*
X0083939Y0057817D02*
X0085876Y0057817D01*
X0085876Y0057810D02*
X0083939Y0057810D01*
X0083939Y0057804D02*
X0085876Y0057804D01*
X0085876Y0057797D02*
X0083939Y0057797D01*
X0083939Y0057791D02*
X0085876Y0057791D01*
X0085876Y0057785D02*
X0083939Y0057785D01*
X0083939Y0057778D02*
X0085876Y0057778D01*
X0085876Y0057772D02*
X0083939Y0057772D01*
X0083939Y0057766D02*
X0085876Y0057766D01*
X0085876Y0057759D02*
X0083939Y0057759D01*
X0083939Y0057753D02*
X0085876Y0057753D01*
X0085876Y0057746D02*
X0083939Y0057746D01*
X0083939Y0057740D02*
X0085876Y0057740D01*
X0085876Y0057734D02*
X0083939Y0057734D01*
X0083939Y0057727D02*
X0085876Y0057727D01*
X0085876Y0057721D02*
X0083939Y0057721D01*
X0083939Y0057714D02*
X0085876Y0057714D01*
X0085876Y0057708D02*
X0083939Y0057708D01*
X0083939Y0057702D02*
X0085876Y0057702D01*
X0085876Y0057695D02*
X0083939Y0057695D01*
X0083939Y0057689D02*
X0085876Y0057689D01*
X0085876Y0057683D02*
X0083939Y0057683D01*
X0083939Y0057676D02*
X0085876Y0057676D01*
X0085876Y0057670D02*
X0083939Y0057670D01*
X0083939Y0057663D02*
X0085875Y0057663D01*
X0085875Y0057657D02*
X0083939Y0057657D01*
X0083939Y0057651D02*
X0085875Y0057651D01*
X0085875Y0057644D02*
X0083939Y0057644D01*
X0083939Y0057638D02*
X0085875Y0057638D01*
X0085875Y0057631D02*
X0083939Y0057631D01*
X0083939Y0057625D02*
X0085875Y0057625D01*
X0085875Y0057619D02*
X0083939Y0057619D01*
X0083939Y0057612D02*
X0085875Y0057612D01*
X0085875Y0057606D02*
X0083939Y0057606D01*
X0083939Y0057599D02*
X0085875Y0057599D01*
X0085875Y0057593D02*
X0083939Y0057593D01*
X0083939Y0057587D02*
X0085875Y0057587D01*
X0085875Y0057580D02*
X0083939Y0057580D01*
X0083939Y0057574D02*
X0085875Y0057574D01*
X0085875Y0057568D02*
X0083939Y0057568D01*
X0083939Y0057561D02*
X0085875Y0057561D01*
X0085875Y0057555D02*
X0083939Y0057555D01*
X0083939Y0057548D02*
X0085875Y0057548D01*
X0085875Y0057542D02*
X0083939Y0057542D01*
X0083939Y0057536D02*
X0085875Y0057536D01*
X0085875Y0057529D02*
X0083939Y0057529D01*
X0083939Y0057523D02*
X0085875Y0057523D01*
X0085875Y0057516D02*
X0083939Y0057516D01*
X0083939Y0057510D02*
X0085875Y0057510D01*
X0085875Y0057504D02*
X0083939Y0057504D01*
X0083939Y0057497D02*
X0085874Y0057497D01*
X0085874Y0057491D02*
X0083939Y0057491D01*
X0083939Y0057485D02*
X0085874Y0057485D01*
X0085874Y0057478D02*
X0083939Y0057478D01*
X0083939Y0057472D02*
X0085874Y0057472D01*
X0085874Y0057465D02*
X0083939Y0057465D01*
X0083939Y0057459D02*
X0085874Y0057459D01*
X0085874Y0057453D02*
X0083939Y0057453D01*
X0083939Y0057446D02*
X0085874Y0057446D01*
X0085874Y0057440D02*
X0083939Y0057440D01*
X0083939Y0057433D02*
X0085874Y0057433D01*
X0085874Y0057427D02*
X0083939Y0057427D01*
X0083939Y0057421D02*
X0085874Y0057421D01*
X0085874Y0057414D02*
X0083939Y0057414D01*
X0083939Y0057408D02*
X0085874Y0057408D01*
X0085874Y0057402D02*
X0083939Y0057402D01*
X0083939Y0057395D02*
X0085874Y0057395D01*
X0085874Y0057389D02*
X0083939Y0057389D01*
X0083939Y0057382D02*
X0085874Y0057382D01*
X0085874Y0057376D02*
X0083939Y0057376D01*
X0083939Y0057370D02*
X0085874Y0057370D01*
X0085874Y0057363D02*
X0083939Y0057363D01*
X0083939Y0057357D02*
X0085874Y0057357D01*
X0085874Y0057350D02*
X0083939Y0057350D01*
X0083939Y0057344D02*
X0085874Y0057344D01*
X0085874Y0057338D02*
X0083939Y0057338D01*
X0083939Y0057331D02*
X0085873Y0057331D01*
X0085873Y0057325D02*
X0083939Y0057325D01*
X0083939Y0057319D02*
X0085873Y0057319D01*
X0085873Y0057312D02*
X0083939Y0057312D01*
X0083939Y0057306D02*
X0085873Y0057306D01*
X0085873Y0057299D02*
X0083939Y0057299D01*
X0083939Y0057293D02*
X0085873Y0057293D01*
X0085873Y0057287D02*
X0083939Y0057287D01*
D13*
X0083226Y0077106D03*
X0076726Y0077106D03*
X0070226Y0077106D03*
X0063726Y0077106D03*
D14*
X0063535Y0093150D02*
X0063535Y0099450D01*
X0052118Y0099450D02*
X0052118Y0093150D01*
X0090469Y0038999D02*
X0096126Y0033342D01*
X0085184Y0022401D02*
X0079527Y0028058D01*
M02*
