G75*
%MOIN*%
%OFA0B0*%
%FSLAX25Y25*%
%IPPOS*%
%LPD*%
%AMOC8*
5,1,8,0,0,1.08239X$1,22.5*
%
%ADD10R,0.03543X0.02756*%
%ADD11R,0.05906X0.05118*%
%ADD12R,0.05118X0.05906*%
%ADD13R,0.02756X0.03543*%
%ADD14C,0.07400*%
%ADD15R,0.04724X0.04724*%
%ADD16R,0.03937X0.03937*%
%ADD17C,0.00098*%
%ADD18C,0.00787*%
%ADD19R,0.01969X0.03937*%
%ADD20C,0.01181*%
%ADD21R,0.12205X0.12205*%
%ADD22R,0.01181X0.06299*%
%ADD23C,0.00620*%
%ADD24R,0.01575X0.05315*%
%ADD25R,0.05906X0.06102*%
%ADD26C,0.00197*%
%ADD27R,0.04803X0.04921*%
%ADD28C,0.01000*%
%ADD29C,0.00600*%
%ADD30C,0.01600*%
%ADD31C,0.02978*%
D10*
X0067626Y0124083D03*
X0067626Y0129201D03*
X0076526Y0135983D03*
X0076526Y0141101D03*
X0085326Y0142501D03*
X0085326Y0137383D03*
X0091226Y0140583D03*
X0091226Y0145701D03*
X0088726Y0013601D03*
X0088726Y0008483D03*
D11*
X0054826Y0076402D03*
X0054826Y0083882D03*
X0068826Y0136402D03*
X0068826Y0143882D03*
D12*
X0063167Y0109942D03*
X0055686Y0109942D03*
D13*
X0060567Y0117842D03*
X0065686Y0117842D03*
X0066967Y0064542D03*
X0072086Y0064542D03*
X0061486Y0064642D03*
X0056367Y0064642D03*
X0057767Y0022942D03*
X0062886Y0022942D03*
G36*
X0087891Y0020010D02*
X0089840Y0021959D01*
X0092343Y0019456D01*
X0090394Y0017507D01*
X0087891Y0020010D01*
G37*
G36*
X0091510Y0023629D02*
X0093459Y0025578D01*
X0095962Y0023075D01*
X0094013Y0021126D01*
X0091510Y0023629D01*
G37*
D14*
X0102826Y0022142D03*
X0102826Y0032142D03*
X0102826Y0042142D03*
X0102826Y0052142D03*
X0102826Y0062142D03*
X0102826Y0072142D03*
X0102826Y0082142D03*
X0102826Y0092142D03*
X0102826Y0102142D03*
X0102826Y0112142D03*
X0102826Y0122142D03*
X0102826Y0132142D03*
X0102826Y0142142D03*
X0102826Y0152142D03*
X0042826Y0152142D03*
X0042826Y0142142D03*
X0042826Y0132142D03*
X0042826Y0122142D03*
X0042826Y0112142D03*
X0042826Y0102142D03*
X0042826Y0092142D03*
X0042826Y0082142D03*
X0042826Y0072142D03*
X0042826Y0062142D03*
X0042826Y0052142D03*
X0042826Y0042142D03*
X0042826Y0032142D03*
X0042826Y0022142D03*
D15*
X0063726Y0074208D03*
X0063726Y0082476D03*
X0070226Y0082476D03*
X0076726Y0082476D03*
X0076726Y0074208D03*
X0070226Y0074208D03*
X0083226Y0074208D03*
X0083226Y0082476D03*
D16*
X0080700Y0014292D03*
X0080700Y0007993D03*
X0064952Y0007993D03*
X0064952Y0014292D03*
D17*
X0078446Y0114318D02*
X0078446Y0115794D01*
X0079332Y0115794D01*
X0079332Y0114318D01*
X0078446Y0114318D01*
X0078446Y0114415D02*
X0079332Y0114415D01*
X0079332Y0114512D02*
X0078446Y0114512D01*
X0078446Y0114609D02*
X0079332Y0114609D01*
X0079332Y0114706D02*
X0078446Y0114706D01*
X0078446Y0114803D02*
X0079332Y0114803D01*
X0079332Y0114900D02*
X0078446Y0114900D01*
X0078446Y0114997D02*
X0079332Y0114997D01*
X0079332Y0115094D02*
X0078446Y0115094D01*
X0078446Y0115191D02*
X0079332Y0115191D01*
X0079332Y0115288D02*
X0078446Y0115288D01*
X0078446Y0115385D02*
X0079332Y0115385D01*
X0079332Y0115482D02*
X0078446Y0115482D01*
X0078446Y0115579D02*
X0079332Y0115579D01*
X0079332Y0115676D02*
X0078446Y0115676D01*
X0078446Y0115773D02*
X0079332Y0115773D01*
X0080415Y0115794D02*
X0080415Y0114318D01*
X0080415Y0115794D02*
X0081301Y0115794D01*
X0081301Y0114318D01*
X0080415Y0114318D01*
X0080415Y0114415D02*
X0081301Y0114415D01*
X0081301Y0114512D02*
X0080415Y0114512D01*
X0080415Y0114609D02*
X0081301Y0114609D01*
X0081301Y0114706D02*
X0080415Y0114706D01*
X0080415Y0114803D02*
X0081301Y0114803D01*
X0081301Y0114900D02*
X0080415Y0114900D01*
X0080415Y0114997D02*
X0081301Y0114997D01*
X0081301Y0115094D02*
X0080415Y0115094D01*
X0080415Y0115191D02*
X0081301Y0115191D01*
X0081301Y0115288D02*
X0080415Y0115288D01*
X0080415Y0115385D02*
X0081301Y0115385D01*
X0081301Y0115482D02*
X0080415Y0115482D01*
X0080415Y0115579D02*
X0081301Y0115579D01*
X0081301Y0115676D02*
X0080415Y0115676D01*
X0080415Y0115773D02*
X0081301Y0115773D01*
X0082383Y0115794D02*
X0082383Y0114318D01*
X0082383Y0115794D02*
X0083269Y0115794D01*
X0083269Y0114318D01*
X0082383Y0114318D01*
X0082383Y0114415D02*
X0083269Y0114415D01*
X0083269Y0114512D02*
X0082383Y0114512D01*
X0082383Y0114609D02*
X0083269Y0114609D01*
X0083269Y0114706D02*
X0082383Y0114706D01*
X0082383Y0114803D02*
X0083269Y0114803D01*
X0083269Y0114900D02*
X0082383Y0114900D01*
X0082383Y0114997D02*
X0083269Y0114997D01*
X0083269Y0115094D02*
X0082383Y0115094D01*
X0082383Y0115191D02*
X0083269Y0115191D01*
X0083269Y0115288D02*
X0082383Y0115288D01*
X0082383Y0115385D02*
X0083269Y0115385D01*
X0083269Y0115482D02*
X0082383Y0115482D01*
X0082383Y0115579D02*
X0083269Y0115579D01*
X0083269Y0115676D02*
X0082383Y0115676D01*
X0082383Y0115773D02*
X0083269Y0115773D01*
X0084352Y0115794D02*
X0084352Y0114318D01*
X0084352Y0115794D02*
X0085238Y0115794D01*
X0085238Y0114318D01*
X0084352Y0114318D01*
X0084352Y0114415D02*
X0085238Y0114415D01*
X0085238Y0114512D02*
X0084352Y0114512D01*
X0084352Y0114609D02*
X0085238Y0114609D01*
X0085238Y0114706D02*
X0084352Y0114706D01*
X0084352Y0114803D02*
X0085238Y0114803D01*
X0085238Y0114900D02*
X0084352Y0114900D01*
X0084352Y0114997D02*
X0085238Y0114997D01*
X0085238Y0115094D02*
X0084352Y0115094D01*
X0084352Y0115191D02*
X0085238Y0115191D01*
X0085238Y0115288D02*
X0084352Y0115288D01*
X0084352Y0115385D02*
X0085238Y0115385D01*
X0085238Y0115482D02*
X0084352Y0115482D01*
X0084352Y0115579D02*
X0085238Y0115579D01*
X0085238Y0115676D02*
X0084352Y0115676D01*
X0084352Y0115773D02*
X0085238Y0115773D01*
X0086320Y0115794D02*
X0086320Y0114318D01*
X0086320Y0115794D02*
X0087206Y0115794D01*
X0087206Y0114318D01*
X0086320Y0114318D01*
X0086320Y0114415D02*
X0087206Y0114415D01*
X0087206Y0114512D02*
X0086320Y0114512D01*
X0086320Y0114609D02*
X0087206Y0114609D01*
X0087206Y0114706D02*
X0086320Y0114706D01*
X0086320Y0114803D02*
X0087206Y0114803D01*
X0087206Y0114900D02*
X0086320Y0114900D01*
X0086320Y0114997D02*
X0087206Y0114997D01*
X0087206Y0115094D02*
X0086320Y0115094D01*
X0086320Y0115191D02*
X0087206Y0115191D01*
X0087206Y0115288D02*
X0086320Y0115288D01*
X0086320Y0115385D02*
X0087206Y0115385D01*
X0087206Y0115482D02*
X0086320Y0115482D01*
X0086320Y0115579D02*
X0087206Y0115579D01*
X0087206Y0115676D02*
X0086320Y0115676D01*
X0086320Y0115773D02*
X0087206Y0115773D01*
X0089175Y0117762D02*
X0090651Y0117762D01*
X0089175Y0117762D02*
X0089175Y0118648D01*
X0090651Y0118648D01*
X0090651Y0117762D01*
X0090651Y0117859D02*
X0089175Y0117859D01*
X0089175Y0117956D02*
X0090651Y0117956D01*
X0090651Y0118053D02*
X0089175Y0118053D01*
X0089175Y0118150D02*
X0090651Y0118150D01*
X0090651Y0118247D02*
X0089175Y0118247D01*
X0089175Y0118344D02*
X0090651Y0118344D01*
X0090651Y0118441D02*
X0089175Y0118441D01*
X0089175Y0118538D02*
X0090651Y0118538D01*
X0090651Y0118635D02*
X0089175Y0118635D01*
X0089175Y0119731D02*
X0090651Y0119731D01*
X0089175Y0119731D02*
X0089175Y0120617D01*
X0090651Y0120617D01*
X0090651Y0119731D01*
X0090651Y0119828D02*
X0089175Y0119828D01*
X0089175Y0119925D02*
X0090651Y0119925D01*
X0090651Y0120022D02*
X0089175Y0120022D01*
X0089175Y0120119D02*
X0090651Y0120119D01*
X0090651Y0120216D02*
X0089175Y0120216D01*
X0089175Y0120313D02*
X0090651Y0120313D01*
X0090651Y0120410D02*
X0089175Y0120410D01*
X0089175Y0120507D02*
X0090651Y0120507D01*
X0090651Y0120604D02*
X0089175Y0120604D01*
X0089175Y0121699D02*
X0090651Y0121699D01*
X0089175Y0121699D02*
X0089175Y0122585D01*
X0090651Y0122585D01*
X0090651Y0121699D01*
X0090651Y0121796D02*
X0089175Y0121796D01*
X0089175Y0121893D02*
X0090651Y0121893D01*
X0090651Y0121990D02*
X0089175Y0121990D01*
X0089175Y0122087D02*
X0090651Y0122087D01*
X0090651Y0122184D02*
X0089175Y0122184D01*
X0089175Y0122281D02*
X0090651Y0122281D01*
X0090651Y0122378D02*
X0089175Y0122378D01*
X0089175Y0122475D02*
X0090651Y0122475D01*
X0090651Y0122572D02*
X0089175Y0122572D01*
X0089175Y0123668D02*
X0090651Y0123668D01*
X0089175Y0123668D02*
X0089175Y0124554D01*
X0090651Y0124554D01*
X0090651Y0123668D01*
X0090651Y0123765D02*
X0089175Y0123765D01*
X0089175Y0123862D02*
X0090651Y0123862D01*
X0090651Y0123959D02*
X0089175Y0123959D01*
X0089175Y0124056D02*
X0090651Y0124056D01*
X0090651Y0124153D02*
X0089175Y0124153D01*
X0089175Y0124250D02*
X0090651Y0124250D01*
X0090651Y0124347D02*
X0089175Y0124347D01*
X0089175Y0124444D02*
X0090651Y0124444D01*
X0090651Y0124541D02*
X0089175Y0124541D01*
X0089175Y0125636D02*
X0090651Y0125636D01*
X0089175Y0125636D02*
X0089175Y0126522D01*
X0090651Y0126522D01*
X0090651Y0125636D01*
X0090651Y0125733D02*
X0089175Y0125733D01*
X0089175Y0125830D02*
X0090651Y0125830D01*
X0090651Y0125927D02*
X0089175Y0125927D01*
X0089175Y0126024D02*
X0090651Y0126024D01*
X0090651Y0126121D02*
X0089175Y0126121D01*
X0089175Y0126218D02*
X0090651Y0126218D01*
X0090651Y0126315D02*
X0089175Y0126315D01*
X0089175Y0126412D02*
X0090651Y0126412D01*
X0090651Y0126509D02*
X0089175Y0126509D01*
X0087206Y0128491D02*
X0087206Y0129967D01*
X0087206Y0128491D02*
X0086320Y0128491D01*
X0086320Y0129967D01*
X0087206Y0129967D01*
X0087206Y0128588D02*
X0086320Y0128588D01*
X0086320Y0128685D02*
X0087206Y0128685D01*
X0087206Y0128782D02*
X0086320Y0128782D01*
X0086320Y0128879D02*
X0087206Y0128879D01*
X0087206Y0128976D02*
X0086320Y0128976D01*
X0086320Y0129073D02*
X0087206Y0129073D01*
X0087206Y0129170D02*
X0086320Y0129170D01*
X0086320Y0129267D02*
X0087206Y0129267D01*
X0087206Y0129364D02*
X0086320Y0129364D01*
X0086320Y0129461D02*
X0087206Y0129461D01*
X0087206Y0129558D02*
X0086320Y0129558D01*
X0086320Y0129655D02*
X0087206Y0129655D01*
X0087206Y0129752D02*
X0086320Y0129752D01*
X0086320Y0129849D02*
X0087206Y0129849D01*
X0087206Y0129946D02*
X0086320Y0129946D01*
X0085238Y0129967D02*
X0085238Y0128491D01*
X0084352Y0128491D01*
X0084352Y0129967D01*
X0085238Y0129967D01*
X0085238Y0128588D02*
X0084352Y0128588D01*
X0084352Y0128685D02*
X0085238Y0128685D01*
X0085238Y0128782D02*
X0084352Y0128782D01*
X0084352Y0128879D02*
X0085238Y0128879D01*
X0085238Y0128976D02*
X0084352Y0128976D01*
X0084352Y0129073D02*
X0085238Y0129073D01*
X0085238Y0129170D02*
X0084352Y0129170D01*
X0084352Y0129267D02*
X0085238Y0129267D01*
X0085238Y0129364D02*
X0084352Y0129364D01*
X0084352Y0129461D02*
X0085238Y0129461D01*
X0085238Y0129558D02*
X0084352Y0129558D01*
X0084352Y0129655D02*
X0085238Y0129655D01*
X0085238Y0129752D02*
X0084352Y0129752D01*
X0084352Y0129849D02*
X0085238Y0129849D01*
X0085238Y0129946D02*
X0084352Y0129946D01*
X0083269Y0129967D02*
X0083269Y0128491D01*
X0082383Y0128491D01*
X0082383Y0129967D01*
X0083269Y0129967D01*
X0083269Y0128588D02*
X0082383Y0128588D01*
X0082383Y0128685D02*
X0083269Y0128685D01*
X0083269Y0128782D02*
X0082383Y0128782D01*
X0082383Y0128879D02*
X0083269Y0128879D01*
X0083269Y0128976D02*
X0082383Y0128976D01*
X0082383Y0129073D02*
X0083269Y0129073D01*
X0083269Y0129170D02*
X0082383Y0129170D01*
X0082383Y0129267D02*
X0083269Y0129267D01*
X0083269Y0129364D02*
X0082383Y0129364D01*
X0082383Y0129461D02*
X0083269Y0129461D01*
X0083269Y0129558D02*
X0082383Y0129558D01*
X0082383Y0129655D02*
X0083269Y0129655D01*
X0083269Y0129752D02*
X0082383Y0129752D01*
X0082383Y0129849D02*
X0083269Y0129849D01*
X0083269Y0129946D02*
X0082383Y0129946D01*
X0081301Y0129967D02*
X0081301Y0128491D01*
X0080415Y0128491D01*
X0080415Y0129967D01*
X0081301Y0129967D01*
X0081301Y0128588D02*
X0080415Y0128588D01*
X0080415Y0128685D02*
X0081301Y0128685D01*
X0081301Y0128782D02*
X0080415Y0128782D01*
X0080415Y0128879D02*
X0081301Y0128879D01*
X0081301Y0128976D02*
X0080415Y0128976D01*
X0080415Y0129073D02*
X0081301Y0129073D01*
X0081301Y0129170D02*
X0080415Y0129170D01*
X0080415Y0129267D02*
X0081301Y0129267D01*
X0081301Y0129364D02*
X0080415Y0129364D01*
X0080415Y0129461D02*
X0081301Y0129461D01*
X0081301Y0129558D02*
X0080415Y0129558D01*
X0080415Y0129655D02*
X0081301Y0129655D01*
X0081301Y0129752D02*
X0080415Y0129752D01*
X0080415Y0129849D02*
X0081301Y0129849D01*
X0081301Y0129946D02*
X0080415Y0129946D01*
X0079332Y0129967D02*
X0079332Y0128491D01*
X0078446Y0128491D01*
X0078446Y0129967D01*
X0079332Y0129967D01*
X0079332Y0128588D02*
X0078446Y0128588D01*
X0078446Y0128685D02*
X0079332Y0128685D01*
X0079332Y0128782D02*
X0078446Y0128782D01*
X0078446Y0128879D02*
X0079332Y0128879D01*
X0079332Y0128976D02*
X0078446Y0128976D01*
X0078446Y0129073D02*
X0079332Y0129073D01*
X0079332Y0129170D02*
X0078446Y0129170D01*
X0078446Y0129267D02*
X0079332Y0129267D01*
X0079332Y0129364D02*
X0078446Y0129364D01*
X0078446Y0129461D02*
X0079332Y0129461D01*
X0079332Y0129558D02*
X0078446Y0129558D01*
X0078446Y0129655D02*
X0079332Y0129655D01*
X0079332Y0129752D02*
X0078446Y0129752D01*
X0078446Y0129849D02*
X0079332Y0129849D01*
X0079332Y0129946D02*
X0078446Y0129946D01*
X0076478Y0126522D02*
X0075002Y0126522D01*
X0076478Y0126522D02*
X0076478Y0125636D01*
X0075002Y0125636D01*
X0075002Y0126522D01*
X0075002Y0125733D02*
X0076478Y0125733D01*
X0076478Y0125830D02*
X0075002Y0125830D01*
X0075002Y0125927D02*
X0076478Y0125927D01*
X0076478Y0126024D02*
X0075002Y0126024D01*
X0075002Y0126121D02*
X0076478Y0126121D01*
X0076478Y0126218D02*
X0075002Y0126218D01*
X0075002Y0126315D02*
X0076478Y0126315D01*
X0076478Y0126412D02*
X0075002Y0126412D01*
X0075002Y0126509D02*
X0076478Y0126509D01*
X0076478Y0124554D02*
X0075002Y0124554D01*
X0076478Y0124554D02*
X0076478Y0123668D01*
X0075002Y0123668D01*
X0075002Y0124554D01*
X0075002Y0123765D02*
X0076478Y0123765D01*
X0076478Y0123862D02*
X0075002Y0123862D01*
X0075002Y0123959D02*
X0076478Y0123959D01*
X0076478Y0124056D02*
X0075002Y0124056D01*
X0075002Y0124153D02*
X0076478Y0124153D01*
X0076478Y0124250D02*
X0075002Y0124250D01*
X0075002Y0124347D02*
X0076478Y0124347D01*
X0076478Y0124444D02*
X0075002Y0124444D01*
X0075002Y0124541D02*
X0076478Y0124541D01*
X0076478Y0122585D02*
X0075002Y0122585D01*
X0076478Y0122585D02*
X0076478Y0121699D01*
X0075002Y0121699D01*
X0075002Y0122585D01*
X0075002Y0121796D02*
X0076478Y0121796D01*
X0076478Y0121893D02*
X0075002Y0121893D01*
X0075002Y0121990D02*
X0076478Y0121990D01*
X0076478Y0122087D02*
X0075002Y0122087D01*
X0075002Y0122184D02*
X0076478Y0122184D01*
X0076478Y0122281D02*
X0075002Y0122281D01*
X0075002Y0122378D02*
X0076478Y0122378D01*
X0076478Y0122475D02*
X0075002Y0122475D01*
X0075002Y0122572D02*
X0076478Y0122572D01*
X0076478Y0120617D02*
X0075002Y0120617D01*
X0076478Y0120617D02*
X0076478Y0119731D01*
X0075002Y0119731D01*
X0075002Y0120617D01*
X0075002Y0119828D02*
X0076478Y0119828D01*
X0076478Y0119925D02*
X0075002Y0119925D01*
X0075002Y0120022D02*
X0076478Y0120022D01*
X0076478Y0120119D02*
X0075002Y0120119D01*
X0075002Y0120216D02*
X0076478Y0120216D01*
X0076478Y0120313D02*
X0075002Y0120313D01*
X0075002Y0120410D02*
X0076478Y0120410D01*
X0076478Y0120507D02*
X0075002Y0120507D01*
X0075002Y0120604D02*
X0076478Y0120604D01*
X0076478Y0118648D02*
X0075002Y0118648D01*
X0076478Y0118648D02*
X0076478Y0117762D01*
X0075002Y0117762D01*
X0075002Y0118648D01*
X0075002Y0117859D02*
X0076478Y0117859D01*
X0076478Y0117956D02*
X0075002Y0117956D01*
X0075002Y0118053D02*
X0076478Y0118053D01*
X0076478Y0118150D02*
X0075002Y0118150D01*
X0075002Y0118247D02*
X0076478Y0118247D01*
X0076478Y0118344D02*
X0075002Y0118344D01*
X0075002Y0118441D02*
X0076478Y0118441D01*
X0076478Y0118538D02*
X0075002Y0118538D01*
X0075002Y0118635D02*
X0076478Y0118635D01*
D18*
X0079282Y0118598D02*
X0079282Y0125686D01*
X0086370Y0125686D01*
X0086370Y0118598D01*
X0079282Y0118598D01*
X0079282Y0119384D02*
X0086370Y0119384D01*
X0086370Y0120170D02*
X0079282Y0120170D01*
X0079282Y0120956D02*
X0086370Y0120956D01*
X0086370Y0121742D02*
X0079282Y0121742D01*
X0079282Y0122528D02*
X0086370Y0122528D01*
X0086370Y0123314D02*
X0079282Y0123314D01*
X0079282Y0124100D02*
X0086370Y0124100D01*
X0086370Y0124886D02*
X0079282Y0124886D01*
X0079282Y0125672D02*
X0086370Y0125672D01*
D19*
X0061567Y0101867D03*
X0061567Y0092418D03*
X0057826Y0092418D03*
X0054086Y0092418D03*
X0054086Y0101867D03*
D20*
X0065743Y0054670D02*
X0067135Y0053278D01*
X0067135Y0053278D01*
X0065743Y0054670D01*
X0065743Y0054670D01*
X0065955Y0054458D02*
X0065955Y0054458D01*
X0064351Y0053278D02*
X0065743Y0051886D01*
X0065743Y0051886D01*
X0064351Y0053278D01*
X0064351Y0053278D01*
X0064563Y0053066D02*
X0064563Y0053066D01*
X0062959Y0051886D02*
X0064351Y0050494D01*
X0064351Y0050494D01*
X0062959Y0051886D01*
X0062959Y0051886D01*
X0063171Y0051674D02*
X0063171Y0051674D01*
X0061567Y0050494D02*
X0062959Y0049102D01*
X0062959Y0049102D01*
X0061567Y0050494D01*
X0061567Y0050494D01*
X0061779Y0050282D02*
X0061779Y0050282D01*
X0060175Y0049102D02*
X0061567Y0047710D01*
X0061567Y0047710D01*
X0060175Y0049102D01*
X0060175Y0049102D01*
X0060387Y0048890D02*
X0060387Y0048890D01*
X0058783Y0047710D02*
X0060175Y0046318D01*
X0060175Y0046318D01*
X0058783Y0047710D01*
X0058783Y0047710D01*
X0058995Y0047498D02*
X0058995Y0047498D01*
X0057391Y0046318D02*
X0058783Y0044926D01*
X0058783Y0044926D01*
X0057391Y0046318D01*
X0057391Y0046318D01*
X0057603Y0046106D02*
X0057603Y0046106D01*
X0055999Y0044926D02*
X0057391Y0043534D01*
X0057391Y0043534D01*
X0055999Y0044926D01*
X0055999Y0044926D01*
X0056211Y0044714D02*
X0056211Y0044714D01*
X0057391Y0040750D02*
X0055999Y0039358D01*
X0055999Y0039358D01*
X0057391Y0040750D01*
X0057391Y0040750D01*
X0057179Y0040538D02*
X0057179Y0040538D01*
X0058783Y0039358D02*
X0057391Y0037966D01*
X0057391Y0037966D01*
X0058783Y0039358D01*
X0058783Y0039358D01*
X0058571Y0039146D02*
X0058571Y0039146D01*
X0060175Y0037966D02*
X0058783Y0036574D01*
X0058783Y0036574D01*
X0060175Y0037966D01*
X0060175Y0037966D01*
X0059963Y0037754D02*
X0059963Y0037754D01*
X0061567Y0036574D02*
X0060175Y0035182D01*
X0060175Y0035182D01*
X0061567Y0036574D01*
X0061567Y0036574D01*
X0061355Y0036362D02*
X0061355Y0036362D01*
X0062959Y0035182D02*
X0061567Y0033790D01*
X0061567Y0033790D01*
X0062959Y0035182D01*
X0062959Y0035182D01*
X0062747Y0034970D02*
X0062747Y0034970D01*
X0064351Y0033791D02*
X0062959Y0032399D01*
X0062959Y0032399D01*
X0064351Y0033791D01*
X0064351Y0033791D01*
X0064139Y0033579D02*
X0064139Y0033579D01*
X0065743Y0032399D02*
X0064351Y0031007D01*
X0064351Y0031007D01*
X0065743Y0032399D01*
X0065743Y0032399D01*
X0065531Y0032187D02*
X0065531Y0032187D01*
X0067135Y0031007D02*
X0065743Y0029615D01*
X0065743Y0029615D01*
X0067135Y0031007D01*
X0067135Y0031007D01*
X0066923Y0030795D02*
X0066923Y0030795D01*
X0069918Y0031007D02*
X0071310Y0029615D01*
X0071310Y0029615D01*
X0069918Y0031007D01*
X0069918Y0031007D01*
X0070130Y0030795D02*
X0070130Y0030795D01*
X0071310Y0032399D02*
X0072702Y0031007D01*
X0072702Y0031007D01*
X0071310Y0032399D01*
X0071310Y0032399D01*
X0071522Y0032187D02*
X0071522Y0032187D01*
X0072702Y0033791D02*
X0074094Y0032399D01*
X0074094Y0032399D01*
X0072702Y0033791D01*
X0072702Y0033791D01*
X0072914Y0033579D02*
X0072914Y0033579D01*
X0074094Y0035182D02*
X0075486Y0033790D01*
X0075486Y0033790D01*
X0074094Y0035182D01*
X0074094Y0035182D01*
X0074306Y0034970D02*
X0074306Y0034970D01*
X0075486Y0036574D02*
X0076878Y0035182D01*
X0076878Y0035182D01*
X0075486Y0036574D01*
X0075486Y0036574D01*
X0075698Y0036362D02*
X0075698Y0036362D01*
X0076878Y0037966D02*
X0078270Y0036574D01*
X0078270Y0036574D01*
X0076878Y0037966D01*
X0076878Y0037966D01*
X0077090Y0037754D02*
X0077090Y0037754D01*
X0078270Y0039358D02*
X0079662Y0037966D01*
X0079662Y0037966D01*
X0078270Y0039358D01*
X0078270Y0039358D01*
X0078482Y0039146D02*
X0078482Y0039146D01*
X0079662Y0040750D02*
X0081054Y0039358D01*
X0081054Y0039358D01*
X0079662Y0040750D01*
X0079662Y0040750D01*
X0079874Y0040538D02*
X0079874Y0040538D01*
X0079662Y0043534D02*
X0081054Y0044926D01*
X0079662Y0043534D02*
X0079662Y0043534D01*
X0081054Y0044926D01*
X0081054Y0044926D01*
X0080842Y0044714D02*
X0080842Y0044714D01*
X0079662Y0046318D02*
X0078270Y0044926D01*
X0078270Y0044926D01*
X0079662Y0046318D01*
X0079662Y0046318D01*
X0079450Y0046106D02*
X0079450Y0046106D01*
X0078270Y0047710D02*
X0076878Y0046318D01*
X0076878Y0046318D01*
X0078270Y0047710D01*
X0078270Y0047710D01*
X0078058Y0047498D02*
X0078058Y0047498D01*
X0076878Y0049102D02*
X0075486Y0047710D01*
X0076878Y0049102D02*
X0076878Y0049102D01*
X0075486Y0047710D01*
X0075486Y0047710D01*
X0076666Y0048890D02*
X0076666Y0048890D01*
X0075486Y0050494D02*
X0074094Y0049102D01*
X0075486Y0050494D02*
X0075486Y0050494D01*
X0074094Y0049102D01*
X0074094Y0049102D01*
X0075274Y0050282D02*
X0075274Y0050282D01*
X0074094Y0051886D02*
X0072702Y0050494D01*
X0072702Y0050494D01*
X0074094Y0051886D01*
X0074094Y0051886D01*
X0073882Y0051674D02*
X0073882Y0051674D01*
X0072702Y0053278D02*
X0071310Y0051886D01*
X0071310Y0051886D01*
X0072702Y0053278D01*
X0072702Y0053278D01*
X0072490Y0053066D02*
X0072490Y0053066D01*
X0071310Y0054670D02*
X0069918Y0053278D01*
X0069918Y0053278D01*
X0071310Y0054670D01*
X0071310Y0054670D01*
X0071098Y0054458D02*
X0071098Y0054458D01*
D21*
G36*
X0068526Y0050771D02*
X0077155Y0042142D01*
X0068526Y0033513D01*
X0059897Y0042142D01*
X0068526Y0050771D01*
G37*
D22*
G36*
X0087825Y0027088D02*
X0086991Y0026254D01*
X0082539Y0030706D01*
X0083373Y0031540D01*
X0087825Y0027088D01*
G37*
G36*
X0090469Y0029733D02*
X0089635Y0028899D01*
X0085183Y0033351D01*
X0086017Y0034185D01*
X0090469Y0029733D01*
G37*
G36*
X0093114Y0032378D02*
X0092280Y0031544D01*
X0087828Y0035996D01*
X0088662Y0036830D01*
X0093114Y0032378D01*
G37*
D23*
X0085527Y0092435D02*
X0084375Y0092435D01*
X0084375Y0095357D01*
X0085527Y0095357D01*
X0085527Y0092435D01*
X0085527Y0093054D02*
X0084375Y0093054D01*
X0084375Y0093673D02*
X0085527Y0093673D01*
X0085527Y0094292D02*
X0084375Y0094292D01*
X0084375Y0094911D02*
X0085527Y0094911D01*
X0082377Y0092435D02*
X0081225Y0092435D01*
X0081225Y0095357D01*
X0082377Y0095357D01*
X0082377Y0092435D01*
X0082377Y0093054D02*
X0081225Y0093054D01*
X0081225Y0093673D02*
X0082377Y0093673D01*
X0082377Y0094292D02*
X0081225Y0094292D01*
X0081225Y0094911D02*
X0082377Y0094911D01*
X0079228Y0092435D02*
X0078076Y0092435D01*
X0078076Y0095357D01*
X0079228Y0095357D01*
X0079228Y0092435D01*
X0079228Y0093054D02*
X0078076Y0093054D01*
X0078076Y0093673D02*
X0079228Y0093673D01*
X0079228Y0094292D02*
X0078076Y0094292D01*
X0078076Y0094911D02*
X0079228Y0094911D01*
X0076078Y0092435D02*
X0074926Y0092435D01*
X0074926Y0095357D01*
X0076078Y0095357D01*
X0076078Y0092435D01*
X0076078Y0093054D02*
X0074926Y0093054D01*
X0074926Y0093673D02*
X0076078Y0093673D01*
X0076078Y0094292D02*
X0074926Y0094292D01*
X0074926Y0094911D02*
X0076078Y0094911D01*
X0076078Y0099128D02*
X0074926Y0099128D01*
X0074926Y0102050D01*
X0076078Y0102050D01*
X0076078Y0099128D01*
X0076078Y0099747D02*
X0074926Y0099747D01*
X0074926Y0100366D02*
X0076078Y0100366D01*
X0076078Y0100985D02*
X0074926Y0100985D01*
X0074926Y0101604D02*
X0076078Y0101604D01*
X0078076Y0099128D02*
X0079228Y0099128D01*
X0078076Y0099128D02*
X0078076Y0102050D01*
X0079228Y0102050D01*
X0079228Y0099128D01*
X0079228Y0099747D02*
X0078076Y0099747D01*
X0078076Y0100366D02*
X0079228Y0100366D01*
X0079228Y0100985D02*
X0078076Y0100985D01*
X0078076Y0101604D02*
X0079228Y0101604D01*
X0081225Y0099128D02*
X0082377Y0099128D01*
X0081225Y0099128D02*
X0081225Y0102050D01*
X0082377Y0102050D01*
X0082377Y0099128D01*
X0082377Y0099747D02*
X0081225Y0099747D01*
X0081225Y0100366D02*
X0082377Y0100366D01*
X0082377Y0100985D02*
X0081225Y0100985D01*
X0081225Y0101604D02*
X0082377Y0101604D01*
X0084375Y0099128D02*
X0085527Y0099128D01*
X0084375Y0099128D02*
X0084375Y0102050D01*
X0085527Y0102050D01*
X0085527Y0099128D01*
X0085527Y0099747D02*
X0084375Y0099747D01*
X0084375Y0100366D02*
X0085527Y0100366D01*
X0085527Y0100985D02*
X0084375Y0100985D01*
X0084375Y0101604D02*
X0085527Y0101604D01*
D24*
X0077945Y0155827D03*
X0075386Y0155827D03*
X0072826Y0155827D03*
X0070267Y0155827D03*
X0067708Y0155827D03*
D25*
X0068889Y0166457D03*
X0076763Y0166457D03*
D26*
X0081882Y0166441D02*
X0088574Y0166441D01*
X0088574Y0166246D02*
X0081882Y0166246D01*
X0081882Y0166051D02*
X0088574Y0166051D01*
X0088574Y0165855D02*
X0081882Y0165855D01*
X0081882Y0165660D02*
X0088574Y0165660D01*
X0088574Y0165465D02*
X0081882Y0165465D01*
X0081882Y0165269D02*
X0088563Y0165269D01*
X0088574Y0165374D02*
X0088574Y0167540D01*
X0088525Y0167978D01*
X0088380Y0168394D01*
X0088145Y0168767D01*
X0087833Y0169079D01*
X0087460Y0169313D01*
X0087044Y0169459D01*
X0086606Y0169508D01*
X0081882Y0169508D01*
X0081882Y0163406D01*
X0086606Y0163406D01*
X0087044Y0163455D01*
X0087460Y0163601D01*
X0087833Y0163835D01*
X0088145Y0164147D01*
X0088380Y0164520D01*
X0088525Y0164936D01*
X0088574Y0165374D01*
X0088541Y0165074D02*
X0081882Y0165074D01*
X0081882Y0164878D02*
X0088505Y0164878D01*
X0088436Y0164683D02*
X0081882Y0164683D01*
X0081882Y0164488D02*
X0088359Y0164488D01*
X0088236Y0164292D02*
X0081882Y0164292D01*
X0081882Y0164097D02*
X0088095Y0164097D01*
X0087900Y0163902D02*
X0081882Y0163902D01*
X0081882Y0163706D02*
X0087628Y0163706D01*
X0087203Y0163511D02*
X0081882Y0163511D01*
X0081882Y0166637D02*
X0088574Y0166637D01*
X0088574Y0166832D02*
X0081882Y0166832D01*
X0081882Y0167027D02*
X0088574Y0167027D01*
X0088574Y0167223D02*
X0081882Y0167223D01*
X0081882Y0167418D02*
X0088574Y0167418D01*
X0088566Y0167614D02*
X0081882Y0167614D01*
X0081882Y0167809D02*
X0088544Y0167809D01*
X0088516Y0168004D02*
X0081882Y0168004D01*
X0081882Y0168200D02*
X0088448Y0168200D01*
X0088379Y0168395D02*
X0081882Y0168395D01*
X0081882Y0168590D02*
X0088256Y0168590D01*
X0088126Y0168786D02*
X0081882Y0168786D01*
X0081882Y0168981D02*
X0087931Y0168981D01*
X0087678Y0169176D02*
X0081882Y0169176D01*
X0081882Y0169372D02*
X0087293Y0169372D01*
X0083676Y0157650D02*
X0083260Y0157697D01*
X0082078Y0157697D01*
X0081662Y0157650D01*
X0081267Y0157512D01*
X0080912Y0157289D01*
X0080616Y0156993D01*
X0080394Y0156639D01*
X0080255Y0156243D01*
X0080208Y0155827D01*
X0080255Y0155411D01*
X0080394Y0155016D01*
X0080616Y0154661D01*
X0080912Y0154365D01*
X0081267Y0154142D01*
X0081662Y0154004D01*
X0082078Y0153957D01*
X0083260Y0153957D01*
X0083676Y0154004D01*
X0084071Y0154142D01*
X0084426Y0154365D01*
X0084722Y0154661D01*
X0084944Y0155016D01*
X0085083Y0155411D01*
X0085130Y0155827D01*
X0085083Y0156243D01*
X0084944Y0156639D01*
X0084722Y0156993D01*
X0084426Y0157289D01*
X0084071Y0157512D01*
X0083676Y0157650D01*
X0083677Y0157650D02*
X0081661Y0157650D01*
X0081176Y0157455D02*
X0084162Y0157455D01*
X0084455Y0157259D02*
X0080883Y0157259D01*
X0080687Y0157064D02*
X0084651Y0157064D01*
X0084800Y0156869D02*
X0080538Y0156869D01*
X0080415Y0156673D02*
X0084923Y0156673D01*
X0085001Y0156478D02*
X0080337Y0156478D01*
X0080269Y0156283D02*
X0085069Y0156283D01*
X0085100Y0156087D02*
X0080238Y0156087D01*
X0080216Y0155892D02*
X0085122Y0155892D01*
X0085115Y0155696D02*
X0080223Y0155696D01*
X0080245Y0155501D02*
X0085093Y0155501D01*
X0085046Y0155306D02*
X0080292Y0155306D01*
X0080360Y0155110D02*
X0084977Y0155110D01*
X0084881Y0154915D02*
X0080457Y0154915D01*
X0080580Y0154720D02*
X0084758Y0154720D01*
X0084585Y0154524D02*
X0080753Y0154524D01*
X0080970Y0154329D02*
X0084368Y0154329D01*
X0084046Y0154134D02*
X0081292Y0154134D01*
X0065445Y0155827D02*
X0065398Y0155411D01*
X0065259Y0155016D01*
X0065037Y0154661D01*
X0064740Y0154365D01*
X0064386Y0154142D01*
X0063991Y0154004D01*
X0063574Y0153957D01*
X0062393Y0153957D01*
X0061977Y0154004D01*
X0061582Y0154142D01*
X0061227Y0154365D01*
X0060931Y0154661D01*
X0060709Y0155016D01*
X0060570Y0155411D01*
X0060523Y0155827D01*
X0060570Y0156243D01*
X0060709Y0156639D01*
X0060931Y0156993D01*
X0061227Y0157289D01*
X0061582Y0157512D01*
X0061977Y0157650D01*
X0062393Y0157697D01*
X0063574Y0157697D01*
X0063991Y0157650D01*
X0063992Y0157650D02*
X0061976Y0157650D01*
X0061491Y0157455D02*
X0064477Y0157455D01*
X0064386Y0157512D02*
X0063991Y0157650D01*
X0064386Y0157512D02*
X0064740Y0157289D01*
X0065037Y0156993D01*
X0065259Y0156639D01*
X0065398Y0156243D01*
X0065445Y0155827D01*
X0065437Y0155892D02*
X0060531Y0155892D01*
X0060538Y0155696D02*
X0065430Y0155696D01*
X0065408Y0155501D02*
X0060560Y0155501D01*
X0060607Y0155306D02*
X0065361Y0155306D01*
X0065292Y0155110D02*
X0060675Y0155110D01*
X0060772Y0154915D02*
X0065196Y0154915D01*
X0065073Y0154720D02*
X0060895Y0154720D01*
X0061068Y0154524D02*
X0064900Y0154524D01*
X0064683Y0154329D02*
X0061285Y0154329D01*
X0061607Y0154134D02*
X0064361Y0154134D01*
X0065415Y0156087D02*
X0060553Y0156087D01*
X0060584Y0156283D02*
X0065384Y0156283D01*
X0065316Y0156478D02*
X0060652Y0156478D01*
X0060730Y0156673D02*
X0065238Y0156673D01*
X0065115Y0156869D02*
X0060853Y0156869D01*
X0061002Y0157064D02*
X0064966Y0157064D01*
X0064770Y0157259D02*
X0061198Y0157259D01*
X0059047Y0163406D02*
X0063771Y0163406D01*
X0063771Y0169508D01*
X0059047Y0169508D01*
X0058609Y0169459D01*
X0058193Y0169313D01*
X0057820Y0169079D01*
X0057508Y0168767D01*
X0057273Y0168394D01*
X0057128Y0167978D01*
X0057078Y0167540D01*
X0057078Y0165374D01*
X0057128Y0164936D01*
X0057273Y0164520D01*
X0057508Y0164147D01*
X0057820Y0163835D01*
X0058193Y0163601D01*
X0058609Y0163455D01*
X0059047Y0163406D01*
X0058450Y0163511D02*
X0063771Y0163511D01*
X0063771Y0163706D02*
X0058025Y0163706D01*
X0057753Y0163902D02*
X0063771Y0163902D01*
X0063771Y0164097D02*
X0057558Y0164097D01*
X0057417Y0164292D02*
X0063771Y0164292D01*
X0063771Y0164488D02*
X0057294Y0164488D01*
X0057216Y0164683D02*
X0063771Y0164683D01*
X0063771Y0164878D02*
X0057148Y0164878D01*
X0057112Y0165074D02*
X0063771Y0165074D01*
X0063771Y0165269D02*
X0057090Y0165269D01*
X0057078Y0165465D02*
X0063771Y0165465D01*
X0063771Y0165660D02*
X0057078Y0165660D01*
X0057078Y0165855D02*
X0063771Y0165855D01*
X0063771Y0166051D02*
X0057078Y0166051D01*
X0057078Y0166246D02*
X0063771Y0166246D01*
X0063771Y0166441D02*
X0057078Y0166441D01*
X0057078Y0166637D02*
X0063771Y0166637D01*
X0063771Y0166832D02*
X0057078Y0166832D01*
X0057078Y0167027D02*
X0063771Y0167027D01*
X0063771Y0167223D02*
X0057078Y0167223D01*
X0057078Y0167418D02*
X0063771Y0167418D01*
X0063771Y0167614D02*
X0057087Y0167614D01*
X0057109Y0167809D02*
X0063771Y0167809D01*
X0063771Y0168004D02*
X0057137Y0168004D01*
X0057205Y0168200D02*
X0063771Y0168200D01*
X0063771Y0168395D02*
X0057274Y0168395D01*
X0057397Y0168590D02*
X0063771Y0168590D01*
X0063771Y0168786D02*
X0057526Y0168786D01*
X0057722Y0168981D02*
X0063771Y0168981D01*
X0063771Y0169176D02*
X0057975Y0169176D01*
X0058360Y0169372D02*
X0063771Y0169372D01*
D27*
X0057118Y0143382D03*
X0057118Y0131768D03*
D28*
X0062626Y0137042D02*
X0062926Y0137142D01*
X0062626Y0137042D02*
X0063726Y0137142D01*
X0067654Y0124111D02*
X0067626Y0124083D01*
X0067586Y0124042D01*
X0067654Y0124111D02*
X0075740Y0124111D01*
X0075740Y0126079D02*
X0073689Y0126079D01*
X0073026Y0126742D01*
X0073026Y0130742D01*
X0074826Y0132542D01*
X0076447Y0132542D01*
X0076447Y0135904D01*
X0076526Y0135983D01*
X0076447Y0132542D02*
X0078026Y0132542D01*
X0078889Y0131679D01*
X0078889Y0129229D01*
X0080858Y0129229D02*
X0080858Y0138448D01*
X0082352Y0139942D01*
X0085326Y0137383D02*
X0085326Y0135042D01*
X0084526Y0134242D01*
X0084626Y0134242D01*
X0082826Y0132442D01*
X0082826Y0129229D01*
X0084795Y0129229D02*
X0084795Y0131665D01*
X0085572Y0132442D01*
X0092626Y0132442D01*
X0095026Y0130042D01*
X0095026Y0109433D01*
X0093326Y0107733D01*
X0093326Y0100279D01*
X0091426Y0098379D01*
X0091426Y0090925D01*
X0089526Y0089025D01*
X0089526Y0081570D01*
X0087726Y0079770D01*
X0087726Y0075342D01*
X0086593Y0074208D01*
X0083226Y0074208D01*
X0087526Y0069825D02*
X0087526Y0065318D01*
X0073398Y0051190D01*
X0074790Y0049798D02*
X0089326Y0064334D01*
X0089326Y0069079D01*
X0090381Y0070133D01*
X0090381Y0070133D01*
X0091326Y0071079D01*
X0091326Y0078279D01*
X0093126Y0080079D01*
X0093126Y0087533D01*
X0095026Y0089433D01*
X0095026Y0096888D01*
X0096926Y0098788D01*
X0096926Y0106242D01*
X0102826Y0112142D01*
X0096826Y0108688D02*
X0095126Y0106988D01*
X0095126Y0099533D01*
X0093226Y0097633D01*
X0093226Y0090179D01*
X0091326Y0088279D01*
X0091326Y0080825D01*
X0089526Y0079025D01*
X0089526Y0071825D01*
X0087526Y0069825D01*
X0091126Y0068333D02*
X0091126Y0063350D01*
X0076182Y0048406D01*
X0077574Y0047014D02*
X0092926Y0062366D01*
X0092926Y0067588D01*
X0094926Y0069588D01*
X0094926Y0076788D01*
X0096726Y0078588D01*
X0096726Y0086042D01*
X0102826Y0092142D01*
X0096826Y0088688D02*
X0094926Y0086788D01*
X0094926Y0079333D01*
X0093126Y0077533D01*
X0093126Y0070333D01*
X0091126Y0068333D01*
X0094726Y0066842D02*
X0096726Y0068842D01*
X0096726Y0076042D01*
X0102826Y0082142D01*
X0096826Y0088688D02*
X0096826Y0096142D01*
X0102826Y0102142D01*
X0096826Y0108688D02*
X0096826Y0116142D01*
X0102826Y0122142D01*
X0093226Y0117542D02*
X0093226Y0112942D01*
X0087626Y0107342D01*
X0087637Y0107342D01*
X0086626Y0111342D02*
X0086763Y0111479D01*
X0086763Y0115056D01*
X0089913Y0118205D02*
X0092563Y0118205D01*
X0093226Y0117542D01*
X0084326Y0123642D02*
X0084326Y0124342D01*
X0082826Y0122842D01*
X0083226Y0122542D01*
X0078889Y0118205D01*
X0078889Y0115056D01*
X0080858Y0115056D02*
X0080858Y0111974D01*
X0079826Y0110942D01*
X0076300Y0110942D01*
X0076289Y0110931D01*
X0074626Y0107942D02*
X0079626Y0107942D01*
X0082826Y0111142D01*
X0082826Y0115056D01*
X0080858Y0115056D02*
X0080858Y0113935D01*
X0075740Y0120174D02*
X0072742Y0120174D01*
X0071685Y0121231D01*
X0054971Y0121231D01*
X0053137Y0119397D01*
X0053137Y0116018D01*
X0054741Y0114414D01*
X0066702Y0114414D01*
X0067651Y0113465D01*
X0067651Y0104118D01*
X0068226Y0103542D01*
X0068226Y0092542D01*
X0062126Y0086442D01*
X0060681Y0086442D01*
X0059564Y0085326D01*
X0059564Y0079375D01*
X0060526Y0078414D01*
X0075726Y0078414D01*
X0076726Y0077413D01*
X0076726Y0074208D01*
X0077626Y0065961D02*
X0077626Y0060986D01*
X0070614Y0053974D01*
X0072006Y0052582D02*
X0081626Y0062202D01*
X0081626Y0064148D01*
X0072226Y0060342D02*
X0072082Y0060198D01*
X0072226Y0060342D02*
X0067071Y0060342D01*
X0064626Y0057898D01*
X0064626Y0055786D01*
X0066439Y0053974D01*
X0065047Y0052582D02*
X0061926Y0055702D01*
X0061926Y0059142D01*
X0058726Y0059042D02*
X0058726Y0053334D01*
X0062263Y0049798D01*
X0060871Y0048406D02*
X0063735Y0045542D01*
X0064026Y0045542D01*
X0068526Y0042142D02*
X0071435Y0042142D01*
X0071435Y0041451D01*
X0071609Y0040651D01*
X0076182Y0035878D01*
X0074790Y0034486D02*
X0078180Y0031096D01*
X0079626Y0032542D02*
X0079626Y0033542D01*
X0079626Y0035218D01*
X0077574Y0037270D01*
X0078966Y0038662D02*
X0080166Y0037352D01*
X0082627Y0034892D01*
X0082627Y0031453D01*
X0085182Y0028897D01*
X0090471Y0034187D02*
X0087916Y0036742D01*
X0083870Y0036742D01*
X0080358Y0040054D01*
X0080358Y0044230D02*
X0096626Y0060499D01*
X0096626Y0065942D01*
X0102826Y0072142D01*
X0094726Y0066842D02*
X0094726Y0061382D01*
X0078966Y0045622D01*
X0071435Y0041451D02*
X0071435Y0038634D01*
X0071326Y0036942D01*
X0071326Y0035166D01*
X0073398Y0033095D01*
X0072006Y0031703D02*
X0077826Y0025882D01*
X0077826Y0018603D01*
X0073626Y0018731D02*
X0073626Y0027299D01*
X0070614Y0030311D01*
X0066439Y0030311D02*
X0064826Y0028699D01*
X0064826Y0026942D01*
X0066826Y0024942D01*
X0066826Y0018642D01*
X0062886Y0020601D02*
X0060626Y0018342D01*
X0060626Y0018542D01*
X0060426Y0018742D01*
X0062886Y0020601D02*
X0062886Y0022942D01*
X0061826Y0027122D02*
X0061836Y0027132D01*
X0061826Y0027122D02*
X0061826Y0028482D01*
X0065047Y0031703D01*
X0063655Y0033095D02*
X0057767Y0027207D01*
X0057767Y0022942D01*
X0057767Y0019983D01*
X0056126Y0018342D01*
X0053574Y0022221D02*
X0051226Y0019873D01*
X0051226Y0016842D01*
X0053777Y0014292D01*
X0064952Y0014292D01*
X0080700Y0014292D01*
X0083577Y0014292D01*
X0084926Y0012942D01*
X0084926Y0009442D01*
X0085886Y0008483D01*
X0088726Y0008483D01*
X0089544Y0019733D02*
X0090117Y0019733D01*
X0062263Y0034486D02*
X0053589Y0025812D01*
X0053589Y0023617D01*
X0053574Y0022221D01*
X0053835Y0028842D02*
X0049526Y0028842D01*
X0042826Y0022142D01*
X0042826Y0032142D02*
X0054351Y0032142D01*
X0059479Y0037270D01*
X0060871Y0035878D02*
X0053835Y0028842D01*
X0054467Y0035142D02*
X0049826Y0035142D01*
X0042826Y0042142D01*
X0048226Y0042642D02*
X0048226Y0046742D01*
X0042826Y0052142D01*
X0048226Y0058757D02*
X0048226Y0066742D01*
X0042826Y0072142D01*
X0048226Y0075242D02*
X0048226Y0076742D01*
X0042826Y0082142D01*
X0048226Y0075242D02*
X0056326Y0067142D01*
X0056326Y0064683D01*
X0056367Y0064642D01*
X0056367Y0061401D01*
X0058726Y0059042D01*
X0054126Y0051988D02*
X0054173Y0051934D01*
X0054173Y0049536D01*
X0058087Y0045622D01*
X0056695Y0044230D02*
X0052326Y0048599D01*
X0052326Y0051242D01*
X0042826Y0062142D01*
X0048226Y0058757D02*
X0054126Y0051988D01*
X0056695Y0044230D02*
X0056695Y0044140D01*
X0056695Y0040054D02*
X0054483Y0037842D01*
X0053026Y0037842D01*
X0048226Y0042642D01*
X0054467Y0035142D02*
X0058087Y0038662D01*
X0066967Y0064183D02*
X0066967Y0064542D01*
X0063726Y0082476D02*
X0063726Y0085042D01*
X0066826Y0088142D01*
X0073226Y0088142D01*
X0075502Y0090418D01*
X0075502Y0093896D01*
X0074626Y0097142D02*
X0073426Y0097142D01*
X0071215Y0094931D01*
X0071215Y0091942D01*
X0071526Y0086142D02*
X0074172Y0086142D01*
X0078652Y0090622D01*
X0078652Y0093896D01*
X0081801Y0093896D02*
X0081801Y0090317D01*
X0076726Y0085242D01*
X0076726Y0082476D01*
X0071526Y0086142D02*
X0070226Y0084842D01*
X0070226Y0082476D01*
X0074626Y0097142D02*
X0075502Y0098018D01*
X0075502Y0100589D01*
X0078652Y0100589D02*
X0078652Y0105770D01*
X0078698Y0105817D01*
X0072152Y0105817D01*
X0070926Y0106842D01*
X0074626Y0107942D02*
X0070426Y0112142D01*
X0070426Y0115542D01*
X0068226Y0117742D01*
X0065226Y0117742D01*
X0065126Y0117842D01*
X0065686Y0117842D01*
X0060567Y0117842D02*
X0056526Y0117842D01*
X0056926Y0124100D02*
X0055469Y0124042D01*
X0047489Y0136886D02*
X0043021Y0141355D01*
X0042826Y0142142D01*
X0072798Y0151331D02*
X0077960Y0146170D01*
X0083999Y0146170D01*
X0085326Y0144842D01*
X0085326Y0142501D01*
X0089326Y0139942D02*
X0089967Y0140583D01*
X0091226Y0140583D01*
X0091226Y0145701D02*
X0088858Y0148070D01*
X0078919Y0148070D01*
X0075357Y0151631D01*
X0075357Y0156356D01*
X0075386Y0155827D01*
X0077945Y0155827D02*
X0077945Y0152224D01*
X0080226Y0149942D01*
X0089610Y0149942D01*
X0090526Y0150859D01*
X0072798Y0151331D02*
X0072798Y0156356D01*
X0072826Y0155827D01*
X0084326Y0123642D02*
X0083226Y0122542D01*
X0083901Y0105817D02*
X0081534Y0105817D01*
X0081801Y0105749D01*
X0081801Y0100589D01*
X0084951Y0100589D02*
X0084951Y0104767D01*
X0083901Y0105817D01*
X0081534Y0105817D02*
X0078698Y0105817D01*
X0084951Y0093896D02*
X0084951Y0088267D01*
X0083226Y0086542D01*
X0083226Y0082476D01*
X0055993Y0085067D02*
X0054826Y0083882D01*
X0054290Y0092214D02*
X0054086Y0092418D01*
D29*
X0039456Y0009133D02*
X0039496Y0009008D01*
X0039496Y0010802D01*
X0040384Y0012945D01*
X0042024Y0014585D01*
X0044167Y0015472D01*
X0046486Y0015472D01*
X0048629Y0014585D01*
X0050269Y0012945D01*
X0051156Y0010802D01*
X0051156Y0008482D01*
X0050269Y0006340D01*
X0048629Y0004700D01*
X0046486Y0003812D01*
X0044692Y0003812D01*
X0044817Y0003772D01*
X0045826Y0003692D01*
X0099826Y0003692D01*
X0100835Y0003772D01*
X0100960Y0003812D01*
X0099167Y0003812D01*
X0097024Y0004700D01*
X0095384Y0006340D01*
X0094496Y0008482D01*
X0094496Y0010802D01*
X0095384Y0012945D01*
X0097024Y0014585D01*
X0099167Y0015472D01*
X0101486Y0015472D01*
X0103629Y0014585D01*
X0105269Y0012945D01*
X0106156Y0010802D01*
X0106156Y0009008D01*
X0106197Y0009133D01*
X0106276Y0010142D01*
X0106276Y0018804D01*
X0105545Y0018073D01*
X0103781Y0017342D01*
X0101872Y0017342D01*
X0100107Y0018073D01*
X0098757Y0019423D01*
X0098026Y0021187D01*
X0098026Y0023097D01*
X0098757Y0024861D01*
X0100107Y0026211D01*
X0101872Y0026942D01*
X0103781Y0026942D01*
X0105545Y0026211D01*
X0106276Y0025480D01*
X0106276Y0028804D01*
X0105545Y0028073D01*
X0103781Y0027342D01*
X0101872Y0027342D01*
X0100107Y0028073D01*
X0098757Y0029423D01*
X0098026Y0031187D01*
X0098026Y0033097D01*
X0098757Y0034861D01*
X0100107Y0036211D01*
X0101872Y0036942D01*
X0103781Y0036942D01*
X0105545Y0036211D01*
X0106276Y0035480D01*
X0106276Y0038804D01*
X0105545Y0038073D01*
X0103781Y0037342D01*
X0101872Y0037342D01*
X0100107Y0038073D01*
X0098757Y0039423D01*
X0098026Y0041187D01*
X0098026Y0043097D01*
X0098757Y0044861D01*
X0100107Y0046211D01*
X0101872Y0046942D01*
X0103781Y0046942D01*
X0105545Y0046211D01*
X0106276Y0045480D01*
X0106276Y0048804D01*
X0105545Y0048073D01*
X0103781Y0047342D01*
X0101872Y0047342D01*
X0100107Y0048073D01*
X0098757Y0049423D01*
X0098026Y0051187D01*
X0098026Y0053097D01*
X0098757Y0054861D01*
X0100107Y0056211D01*
X0101872Y0056942D01*
X0103781Y0056942D01*
X0105545Y0056211D01*
X0106276Y0055480D01*
X0106276Y0058804D01*
X0105545Y0058073D01*
X0103781Y0057342D01*
X0101872Y0057342D01*
X0100107Y0058073D01*
X0098757Y0059423D01*
X0098226Y0060705D01*
X0098226Y0059836D01*
X0097289Y0058899D01*
X0097289Y0058899D01*
X0082744Y0044354D01*
X0082744Y0044226D01*
X0080661Y0042142D01*
X0082744Y0040059D01*
X0082744Y0040003D01*
X0084505Y0038342D01*
X0088579Y0038342D01*
X0088989Y0037932D01*
X0089117Y0037932D01*
X0094216Y0032833D01*
X0094216Y0031922D01*
X0092736Y0030442D01*
X0091825Y0030442D01*
X0087125Y0035142D01*
X0086900Y0035142D01*
X0089163Y0032879D01*
X0087827Y0031542D01*
X0090973Y0028396D01*
X0091511Y0028934D01*
X0091683Y0029231D01*
X0091771Y0029561D01*
X0091771Y0029904D01*
X0091683Y0030234D01*
X0091511Y0030531D01*
X0089163Y0032879D01*
X0087827Y0031542D01*
X0087827Y0031542D01*
X0087827Y0031542D01*
X0090973Y0028396D01*
X0090434Y0027857D01*
X0090138Y0027686D01*
X0089807Y0027597D01*
X0089465Y0027597D01*
X0089134Y0027686D01*
X0088838Y0027857D01*
X0086490Y0030205D01*
X0087826Y0031542D01*
X0087826Y0031542D01*
X0086490Y0030205D01*
X0084226Y0032469D01*
X0084226Y0032244D01*
X0088926Y0027544D01*
X0088926Y0026632D01*
X0087447Y0025153D01*
X0086811Y0025153D01*
X0089143Y0022820D01*
X0089383Y0023060D01*
X0090294Y0023060D01*
X0090396Y0022958D01*
X0090297Y0023128D01*
X0090209Y0023459D01*
X0090209Y0023801D01*
X0090297Y0024132D01*
X0090469Y0024428D01*
X0091352Y0025312D01*
X0093312Y0023352D01*
X0093736Y0023776D01*
X0095417Y0025457D01*
X0094256Y0026619D01*
X0093959Y0026790D01*
X0093629Y0026879D01*
X0093286Y0026879D01*
X0092956Y0026790D01*
X0092659Y0026619D01*
X0091776Y0025736D01*
X0093736Y0023776D01*
X0094160Y0023352D01*
X0095842Y0025033D01*
X0097003Y0023872D01*
X0097174Y0023575D01*
X0097263Y0023244D01*
X0097263Y0022902D01*
X0097174Y0022572D01*
X0097003Y0022275D01*
X0096120Y0021392D01*
X0094160Y0023352D01*
X0093736Y0022927D01*
X0095696Y0020968D01*
X0094813Y0020084D01*
X0094516Y0019913D01*
X0094186Y0019825D01*
X0093843Y0019825D01*
X0093513Y0019913D01*
X0093343Y0020011D01*
X0093444Y0019910D01*
X0093444Y0018999D01*
X0090851Y0016406D01*
X0090626Y0016406D01*
X0090626Y0016079D01*
X0090954Y0016079D01*
X0091598Y0015435D01*
X0091598Y0011768D01*
X0090954Y0011123D01*
X0086526Y0011123D01*
X0086526Y0010961D01*
X0090954Y0010961D01*
X0091598Y0010317D01*
X0091598Y0006650D01*
X0090954Y0006005D01*
X0086499Y0006005D01*
X0085855Y0006650D01*
X0085855Y0006883D01*
X0085223Y0006883D01*
X0084264Y0007842D01*
X0083813Y0008293D01*
X0081001Y0008293D01*
X0081001Y0007693D01*
X0083969Y0007693D01*
X0083969Y0005853D01*
X0083880Y0005522D01*
X0083709Y0005226D01*
X0083467Y0004984D01*
X0083171Y0004813D01*
X0082840Y0004724D01*
X0081000Y0004724D01*
X0081000Y0007693D01*
X0080400Y0007693D01*
X0077432Y0007693D01*
X0077432Y0005853D01*
X0077521Y0005522D01*
X0077692Y0005226D01*
X0077934Y0004984D01*
X0078230Y0004813D01*
X0078561Y0004724D01*
X0080400Y0004724D01*
X0080400Y0007693D01*
X0080400Y0008293D01*
X0077432Y0008293D01*
X0077432Y0010132D01*
X0077521Y0010463D01*
X0077692Y0010759D01*
X0077934Y0011001D01*
X0078230Y0011172D01*
X0078420Y0011223D01*
X0078276Y0011223D01*
X0077632Y0011868D01*
X0077632Y0012692D01*
X0068021Y0012692D01*
X0068021Y0011868D01*
X0067377Y0011223D01*
X0067233Y0011223D01*
X0067423Y0011172D01*
X0067719Y0011001D01*
X0067961Y0010759D01*
X0068132Y0010463D01*
X0068221Y0010132D01*
X0068221Y0008293D01*
X0065252Y0008293D01*
X0065252Y0007693D01*
X0065252Y0004724D01*
X0067092Y0004724D01*
X0067423Y0004813D01*
X0067719Y0004984D01*
X0067961Y0005226D01*
X0068132Y0005522D01*
X0068221Y0005853D01*
X0068221Y0007693D01*
X0065252Y0007693D01*
X0064652Y0007693D01*
X0061684Y0007693D01*
X0061684Y0005853D01*
X0061773Y0005522D01*
X0061944Y0005226D01*
X0062186Y0004984D01*
X0062482Y0004813D01*
X0062813Y0004724D01*
X0064652Y0004724D01*
X0064652Y0007693D01*
X0064652Y0008293D01*
X0061684Y0008293D01*
X0061684Y0010132D01*
X0061773Y0010463D01*
X0061944Y0010759D01*
X0062186Y0011001D01*
X0062482Y0011172D01*
X0062672Y0011223D01*
X0062528Y0011223D01*
X0061884Y0011868D01*
X0061884Y0012692D01*
X0053114Y0012692D01*
X0052177Y0013629D01*
X0049626Y0016179D01*
X0049626Y0020536D01*
X0050564Y0021473D01*
X0051349Y0022258D01*
X0051000Y0023102D01*
X0051000Y0024132D01*
X0051394Y0025084D01*
X0051989Y0025678D01*
X0051989Y0026475D01*
X0052756Y0027242D01*
X0050189Y0027242D01*
X0047163Y0024216D01*
X0047626Y0023097D01*
X0047626Y0021187D01*
X0046896Y0019423D01*
X0045545Y0018073D01*
X0043781Y0017342D01*
X0041872Y0017342D01*
X0040107Y0018073D01*
X0039376Y0018804D01*
X0039376Y0010142D01*
X0039456Y0009133D01*
X0039441Y0009324D02*
X0039496Y0009324D01*
X0039496Y0009923D02*
X0039394Y0009923D01*
X0039376Y0010521D02*
X0039496Y0010521D01*
X0039376Y0011120D02*
X0039628Y0011120D01*
X0039876Y0011718D02*
X0039376Y0011718D01*
X0039376Y0012317D02*
X0040124Y0012317D01*
X0040372Y0012915D02*
X0039376Y0012915D01*
X0039376Y0013514D02*
X0040953Y0013514D01*
X0041552Y0014112D02*
X0039376Y0014112D01*
X0039376Y0014711D02*
X0042329Y0014711D01*
X0043774Y0015309D02*
X0039376Y0015309D01*
X0039376Y0015908D02*
X0049898Y0015908D01*
X0049626Y0016506D02*
X0039376Y0016506D01*
X0039376Y0017105D02*
X0049626Y0017105D01*
X0049626Y0017703D02*
X0044653Y0017703D01*
X0045774Y0018302D02*
X0049626Y0018302D01*
X0049626Y0018900D02*
X0046373Y0018900D01*
X0046927Y0019499D02*
X0049626Y0019499D01*
X0049626Y0020098D02*
X0047175Y0020098D01*
X0047423Y0020696D02*
X0049787Y0020696D01*
X0050385Y0021295D02*
X0047626Y0021295D01*
X0047626Y0021893D02*
X0050984Y0021893D01*
X0051253Y0022492D02*
X0047626Y0022492D01*
X0047626Y0023090D02*
X0051005Y0023090D01*
X0051000Y0023689D02*
X0047381Y0023689D01*
X0047234Y0024287D02*
X0051064Y0024287D01*
X0051312Y0024886D02*
X0047833Y0024886D01*
X0048431Y0025484D02*
X0051794Y0025484D01*
X0051989Y0026083D02*
X0049030Y0026083D01*
X0049628Y0026681D02*
X0052195Y0026681D01*
X0050496Y0015309D02*
X0046879Y0015309D01*
X0048324Y0014711D02*
X0051095Y0014711D01*
X0051693Y0014112D02*
X0049101Y0014112D01*
X0049700Y0013514D02*
X0052292Y0013514D01*
X0052891Y0012915D02*
X0050281Y0012915D01*
X0050529Y0012317D02*
X0061884Y0012317D01*
X0062033Y0011718D02*
X0050777Y0011718D01*
X0051025Y0011120D02*
X0062391Y0011120D01*
X0061806Y0010521D02*
X0051156Y0010521D01*
X0051156Y0009923D02*
X0061684Y0009923D01*
X0061684Y0009324D02*
X0051156Y0009324D01*
X0051156Y0008726D02*
X0061684Y0008726D01*
X0061684Y0007529D02*
X0050761Y0007529D01*
X0051009Y0008127D02*
X0064652Y0008127D01*
X0064652Y0007529D02*
X0065252Y0007529D01*
X0065252Y0008127D02*
X0080400Y0008127D01*
X0080400Y0007529D02*
X0081000Y0007529D01*
X0081001Y0008127D02*
X0083979Y0008127D01*
X0083969Y0007529D02*
X0084577Y0007529D01*
X0085176Y0006930D02*
X0083969Y0006930D01*
X0083969Y0006332D02*
X0086173Y0006332D01*
X0083937Y0005733D02*
X0095991Y0005733D01*
X0096589Y0005135D02*
X0083618Y0005135D01*
X0081000Y0005135D02*
X0080400Y0005135D01*
X0080400Y0005733D02*
X0081000Y0005733D01*
X0081000Y0006332D02*
X0080400Y0006332D01*
X0080400Y0006930D02*
X0081000Y0006930D01*
X0077432Y0006930D02*
X0068221Y0006930D01*
X0068221Y0006332D02*
X0077432Y0006332D01*
X0077464Y0005733D02*
X0068189Y0005733D01*
X0067870Y0005135D02*
X0077783Y0005135D01*
X0077432Y0007529D02*
X0068221Y0007529D01*
X0068221Y0008726D02*
X0077432Y0008726D01*
X0077432Y0009324D02*
X0068221Y0009324D01*
X0068221Y0009923D02*
X0077432Y0009923D01*
X0077554Y0010521D02*
X0068099Y0010521D01*
X0067514Y0011120D02*
X0078139Y0011120D01*
X0077781Y0011718D02*
X0067872Y0011718D01*
X0068021Y0012317D02*
X0077632Y0012317D01*
X0080114Y0017360D02*
X0080415Y0018088D01*
X0080415Y0019118D01*
X0080021Y0020069D01*
X0079426Y0020664D01*
X0079426Y0026545D01*
X0075148Y0030824D01*
X0075255Y0030886D01*
X0075431Y0031062D01*
X0075607Y0031238D01*
X0075669Y0031345D01*
X0076280Y0030733D01*
X0076280Y0030309D01*
X0077393Y0029196D01*
X0086790Y0019800D01*
X0086790Y0019555D01*
X0087021Y0019324D01*
X0086826Y0019129D01*
X0086826Y0016079D01*
X0086499Y0016079D01*
X0085855Y0015435D01*
X0085855Y0014277D01*
X0085589Y0014542D01*
X0085177Y0014954D01*
X0085177Y0014955D01*
X0084240Y0015892D01*
X0083769Y0015892D01*
X0083769Y0016716D01*
X0083125Y0017360D01*
X0080114Y0017360D01*
X0080256Y0017703D02*
X0086826Y0017703D01*
X0086826Y0017105D02*
X0083380Y0017105D01*
X0083769Y0016506D02*
X0086826Y0016506D01*
X0086328Y0015908D02*
X0083769Y0015908D01*
X0084822Y0015309D02*
X0085855Y0015309D01*
X0085855Y0014711D02*
X0085420Y0014711D01*
X0085589Y0014542D02*
X0085589Y0014542D01*
X0086526Y0011120D02*
X0094628Y0011120D01*
X0094496Y0010521D02*
X0091393Y0010521D01*
X0091598Y0009923D02*
X0094496Y0009923D01*
X0094496Y0009324D02*
X0091598Y0009324D01*
X0091598Y0008726D02*
X0094496Y0008726D01*
X0094644Y0008127D02*
X0091598Y0008127D01*
X0091598Y0007529D02*
X0094891Y0007529D01*
X0095139Y0006930D02*
X0091598Y0006930D01*
X0091280Y0006332D02*
X0095392Y0006332D01*
X0097419Y0004536D02*
X0048234Y0004536D01*
X0049064Y0005135D02*
X0062035Y0005135D01*
X0061716Y0005733D02*
X0049662Y0005733D01*
X0050261Y0006332D02*
X0061684Y0006332D01*
X0061684Y0006930D02*
X0050513Y0006930D01*
X0046789Y0003938D02*
X0098864Y0003938D01*
X0094876Y0011718D02*
X0091549Y0011718D01*
X0091598Y0012317D02*
X0095124Y0012317D01*
X0095372Y0012915D02*
X0091598Y0012915D01*
X0091598Y0013514D02*
X0095953Y0013514D01*
X0096552Y0014112D02*
X0091598Y0014112D01*
X0091598Y0014711D02*
X0097329Y0014711D01*
X0098774Y0015309D02*
X0091598Y0015309D01*
X0091125Y0015908D02*
X0106276Y0015908D01*
X0106276Y0016506D02*
X0090952Y0016506D01*
X0091550Y0017105D02*
X0106276Y0017105D01*
X0106276Y0017703D02*
X0104653Y0017703D01*
X0105774Y0018302D02*
X0106276Y0018302D01*
X0106276Y0015309D02*
X0101879Y0015309D01*
X0103324Y0014711D02*
X0106276Y0014711D01*
X0106276Y0014112D02*
X0104101Y0014112D01*
X0104700Y0013514D02*
X0106276Y0013514D01*
X0106276Y0012915D02*
X0105281Y0012915D01*
X0105529Y0012317D02*
X0106276Y0012317D01*
X0106276Y0011718D02*
X0105777Y0011718D01*
X0106025Y0011120D02*
X0106276Y0011120D01*
X0106276Y0010521D02*
X0106156Y0010521D01*
X0106156Y0009923D02*
X0106259Y0009923D01*
X0106212Y0009324D02*
X0106156Y0009324D01*
X0100999Y0017703D02*
X0092149Y0017703D01*
X0092747Y0018302D02*
X0099878Y0018302D01*
X0099280Y0018900D02*
X0093346Y0018900D01*
X0093444Y0019499D02*
X0098726Y0019499D01*
X0098478Y0020098D02*
X0094826Y0020098D01*
X0095424Y0020696D02*
X0098230Y0020696D01*
X0098026Y0021295D02*
X0095369Y0021295D01*
X0095619Y0021893D02*
X0094770Y0021893D01*
X0095020Y0022492D02*
X0094172Y0022492D01*
X0094422Y0023090D02*
X0093899Y0023090D01*
X0093823Y0023689D02*
X0094497Y0023689D01*
X0094247Y0024287D02*
X0095096Y0024287D01*
X0094846Y0024886D02*
X0095694Y0024886D01*
X0095989Y0024886D02*
X0098782Y0024886D01*
X0098519Y0024287D02*
X0096588Y0024287D01*
X0097109Y0023689D02*
X0098272Y0023689D01*
X0098026Y0023090D02*
X0097263Y0023090D01*
X0097128Y0022492D02*
X0098026Y0022492D01*
X0098026Y0021893D02*
X0096621Y0021893D01*
X0093649Y0023689D02*
X0092975Y0023689D01*
X0093225Y0024287D02*
X0092376Y0024287D01*
X0092626Y0024886D02*
X0091778Y0024886D01*
X0092028Y0025484D02*
X0087778Y0025484D01*
X0088377Y0026083D02*
X0092123Y0026083D01*
X0092767Y0026681D02*
X0088926Y0026681D01*
X0088926Y0027280D02*
X0106276Y0027280D01*
X0106276Y0027878D02*
X0105075Y0027878D01*
X0105949Y0028477D02*
X0106276Y0028477D01*
X0106276Y0026681D02*
X0104411Y0026681D01*
X0105674Y0026083D02*
X0106276Y0026083D01*
X0106273Y0025484D02*
X0106276Y0025484D01*
X0101242Y0026681D02*
X0094148Y0026681D01*
X0094792Y0026083D02*
X0099979Y0026083D01*
X0099380Y0025484D02*
X0095391Y0025484D01*
X0093165Y0030871D02*
X0098158Y0030871D01*
X0098026Y0031469D02*
X0093763Y0031469D01*
X0094216Y0032068D02*
X0098026Y0032068D01*
X0098026Y0032666D02*
X0094216Y0032666D01*
X0093784Y0033265D02*
X0098096Y0033265D01*
X0098344Y0033863D02*
X0093186Y0033863D01*
X0092587Y0034462D02*
X0098592Y0034462D01*
X0098956Y0035060D02*
X0091988Y0035060D01*
X0091390Y0035659D02*
X0099555Y0035659D01*
X0100218Y0036257D02*
X0090791Y0036257D01*
X0090193Y0036856D02*
X0101663Y0036856D01*
X0101601Y0037454D02*
X0089594Y0037454D01*
X0088868Y0038053D02*
X0100156Y0038053D01*
X0099529Y0038651D02*
X0084178Y0038651D01*
X0083543Y0039250D02*
X0098931Y0039250D01*
X0098581Y0039848D02*
X0082908Y0039848D01*
X0082356Y0040447D02*
X0098333Y0040447D01*
X0098085Y0041045D02*
X0081758Y0041045D01*
X0081159Y0041644D02*
X0098026Y0041644D01*
X0098026Y0042242D02*
X0080761Y0042242D01*
X0081360Y0042841D02*
X0098026Y0042841D01*
X0098168Y0043439D02*
X0081958Y0043439D01*
X0082557Y0044038D02*
X0098416Y0044038D01*
X0098664Y0044636D02*
X0083027Y0044636D01*
X0083626Y0045235D02*
X0099131Y0045235D01*
X0099730Y0045833D02*
X0084224Y0045833D01*
X0084823Y0046432D02*
X0100640Y0046432D01*
X0101179Y0047629D02*
X0086020Y0047629D01*
X0086618Y0048228D02*
X0099953Y0048228D01*
X0099354Y0048826D02*
X0087217Y0048826D01*
X0087815Y0049425D02*
X0098757Y0049425D01*
X0098509Y0050023D02*
X0088414Y0050023D01*
X0089012Y0050622D02*
X0098261Y0050622D01*
X0098026Y0051220D02*
X0089611Y0051220D01*
X0090209Y0051819D02*
X0098026Y0051819D01*
X0098026Y0052417D02*
X0090808Y0052417D01*
X0091406Y0053016D02*
X0098026Y0053016D01*
X0098241Y0053614D02*
X0092005Y0053614D01*
X0092603Y0054213D02*
X0098489Y0054213D01*
X0098737Y0054811D02*
X0093202Y0054811D01*
X0093800Y0055410D02*
X0099306Y0055410D01*
X0099904Y0056008D02*
X0094399Y0056008D01*
X0094997Y0056607D02*
X0101062Y0056607D01*
X0100757Y0057804D02*
X0096194Y0057804D01*
X0095596Y0057205D02*
X0106276Y0057205D01*
X0106276Y0056607D02*
X0104591Y0056607D01*
X0104896Y0057804D02*
X0106276Y0057804D01*
X0106276Y0058402D02*
X0105875Y0058402D01*
X0105749Y0056008D02*
X0106276Y0056008D01*
X0106276Y0048228D02*
X0105700Y0048228D01*
X0106276Y0047629D02*
X0104474Y0047629D01*
X0105013Y0046432D02*
X0106276Y0046432D01*
X0106276Y0047031D02*
X0085421Y0047031D01*
X0085134Y0035142D02*
X0084680Y0034689D01*
X0087826Y0031542D01*
X0084680Y0034688D01*
X0084226Y0034235D01*
X0084226Y0035142D01*
X0085134Y0035142D01*
X0085052Y0035060D02*
X0084226Y0035060D01*
X0084226Y0034462D02*
X0084453Y0034462D01*
X0084907Y0034462D02*
X0084907Y0034462D01*
X0085505Y0033863D02*
X0085505Y0033863D01*
X0086104Y0033265D02*
X0086104Y0033265D01*
X0086702Y0032666D02*
X0086702Y0032666D01*
X0087301Y0032068D02*
X0087301Y0032068D01*
X0087826Y0031542D02*
X0087826Y0031542D01*
X0087754Y0031469D02*
X0087753Y0031469D01*
X0087899Y0031469D02*
X0087899Y0031469D01*
X0088352Y0032068D02*
X0088352Y0032068D01*
X0088950Y0032666D02*
X0088951Y0032666D01*
X0089376Y0032666D02*
X0089601Y0032666D01*
X0089975Y0032068D02*
X0090199Y0032068D01*
X0090573Y0031469D02*
X0090798Y0031469D01*
X0091172Y0030871D02*
X0091396Y0030871D01*
X0091661Y0030272D02*
X0098406Y0030272D01*
X0098653Y0029674D02*
X0091771Y0029674D01*
X0091593Y0029075D02*
X0099105Y0029075D01*
X0099704Y0028477D02*
X0091054Y0028477D01*
X0090892Y0028477D02*
X0090892Y0028477D01*
X0090455Y0027878D02*
X0100578Y0027878D01*
X0106098Y0035659D02*
X0106276Y0035659D01*
X0106276Y0036257D02*
X0105435Y0036257D01*
X0106276Y0036856D02*
X0103990Y0036856D01*
X0104052Y0037454D02*
X0106276Y0037454D01*
X0106276Y0038053D02*
X0105497Y0038053D01*
X0106124Y0038651D02*
X0106276Y0038651D01*
X0106276Y0045833D02*
X0105923Y0045833D01*
X0099778Y0058402D02*
X0096793Y0058402D01*
X0097391Y0059001D02*
X0099180Y0059001D01*
X0098684Y0059599D02*
X0097990Y0059599D01*
X0098226Y0060198D02*
X0098436Y0060198D01*
X0086864Y0071425D02*
X0087926Y0072487D01*
X0087926Y0073279D01*
X0087255Y0072608D01*
X0086689Y0072608D01*
X0086689Y0071390D01*
X0086044Y0070746D01*
X0080409Y0070746D01*
X0079976Y0071178D01*
X0079544Y0070746D01*
X0073909Y0070746D01*
X0073618Y0071037D01*
X0073387Y0070806D01*
X0073090Y0070635D01*
X0072760Y0070546D01*
X0070526Y0070546D01*
X0070526Y0073908D01*
X0069926Y0073908D01*
X0064027Y0073908D01*
X0064027Y0074508D01*
X0067389Y0074508D01*
X0069926Y0074508D01*
X0069926Y0073908D01*
X0069926Y0070546D01*
X0067693Y0070546D01*
X0067362Y0070635D01*
X0067066Y0070806D01*
X0066976Y0070895D01*
X0066887Y0070806D01*
X0066590Y0070635D01*
X0066260Y0070546D01*
X0064026Y0070546D01*
X0064026Y0073908D01*
X0063426Y0073908D01*
X0060064Y0073908D01*
X0060064Y0071675D01*
X0060153Y0071344D01*
X0060324Y0071048D01*
X0060566Y0070806D01*
X0060862Y0070635D01*
X0061193Y0070546D01*
X0063426Y0070546D01*
X0063426Y0073908D01*
X0063426Y0074508D01*
X0060064Y0074508D01*
X0060064Y0076742D01*
X0060084Y0076814D01*
X0059863Y0076814D01*
X0059079Y0077598D01*
X0059079Y0076702D01*
X0055127Y0076702D01*
X0055127Y0076102D01*
X0059079Y0076102D01*
X0059079Y0073672D01*
X0058991Y0073341D01*
X0058819Y0073045D01*
X0058577Y0072803D01*
X0058281Y0072632D01*
X0057950Y0072543D01*
X0055126Y0072543D01*
X0055126Y0076102D01*
X0054526Y0076102D01*
X0050574Y0076102D01*
X0050574Y0075158D01*
X0049826Y0075905D01*
X0049826Y0077405D01*
X0048889Y0078342D01*
X0047163Y0080068D01*
X0047626Y0081187D01*
X0047626Y0083097D01*
X0046896Y0084861D01*
X0045545Y0086211D01*
X0043781Y0086942D01*
X0041872Y0086942D01*
X0040107Y0086211D01*
X0039376Y0085480D01*
X0039376Y0088804D01*
X0040107Y0088073D01*
X0041872Y0087342D01*
X0043781Y0087342D01*
X0044600Y0087681D01*
X0045639Y0086642D01*
X0050774Y0086642D01*
X0050774Y0080868D01*
X0051418Y0080223D01*
X0051562Y0080223D01*
X0051372Y0080172D01*
X0051075Y0080001D01*
X0050833Y0079759D01*
X0050662Y0079463D01*
X0050574Y0079132D01*
X0050574Y0076702D01*
X0054526Y0076702D01*
X0054526Y0076102D01*
X0054526Y0072543D01*
X0053188Y0072543D01*
X0056989Y0068742D01*
X0057926Y0067805D01*
X0057926Y0067514D01*
X0058201Y0067514D01*
X0058845Y0066869D01*
X0058845Y0066726D01*
X0058896Y0066916D01*
X0059067Y0067212D01*
X0059309Y0067454D01*
X0059606Y0067625D01*
X0059936Y0067714D01*
X0061186Y0067714D01*
X0061186Y0064942D01*
X0061785Y0064942D01*
X0061785Y0067714D01*
X0063035Y0067714D01*
X0063365Y0067625D01*
X0063662Y0067454D01*
X0063904Y0067212D01*
X0064075Y0066916D01*
X0064163Y0066585D01*
X0064163Y0064942D01*
X0061786Y0064942D01*
X0061786Y0064342D01*
X0064163Y0064342D01*
X0064163Y0064066D01*
X0064489Y0064392D01*
X0064489Y0066769D01*
X0065134Y0067414D01*
X0068801Y0067414D01*
X0069445Y0066769D01*
X0069445Y0066626D01*
X0069496Y0066816D01*
X0069667Y0067112D01*
X0069909Y0067354D01*
X0070206Y0067525D01*
X0070536Y0067614D01*
X0071786Y0067614D01*
X0071786Y0064842D01*
X0072385Y0064842D01*
X0072385Y0067614D01*
X0073635Y0067614D01*
X0073965Y0067525D01*
X0074262Y0067354D01*
X0074504Y0067112D01*
X0074675Y0066816D01*
X0074763Y0066485D01*
X0074763Y0064842D01*
X0072386Y0064842D01*
X0072386Y0064242D01*
X0074763Y0064242D01*
X0074763Y0062599D01*
X0074675Y0062269D01*
X0074504Y0061972D01*
X0074262Y0061730D01*
X0074230Y0061712D01*
X0074277Y0061664D01*
X0074671Y0060713D01*
X0074671Y0060293D01*
X0076026Y0061648D01*
X0076026Y0063900D01*
X0075432Y0064495D01*
X0075037Y0065446D01*
X0075037Y0066476D01*
X0075432Y0067428D01*
X0076160Y0068156D01*
X0077111Y0068550D01*
X0078141Y0068550D01*
X0079093Y0068156D01*
X0079821Y0067428D01*
X0080215Y0066476D01*
X0080215Y0066366D01*
X0081111Y0066737D01*
X0082141Y0066737D01*
X0083093Y0066343D01*
X0083821Y0065615D01*
X0084215Y0064663D01*
X0084215Y0064270D01*
X0085926Y0065981D01*
X0085926Y0070487D01*
X0086864Y0071425D01*
X0087009Y0071569D02*
X0086689Y0071569D01*
X0086689Y0072168D02*
X0087607Y0072168D01*
X0087414Y0072766D02*
X0087926Y0072766D01*
X0086410Y0070971D02*
X0086269Y0070971D01*
X0085926Y0070372D02*
X0055359Y0070372D01*
X0055957Y0069774D02*
X0085926Y0069774D01*
X0085926Y0069175D02*
X0056556Y0069175D01*
X0057154Y0068577D02*
X0085926Y0068577D01*
X0085926Y0067978D02*
X0079270Y0067978D01*
X0079841Y0067380D02*
X0085926Y0067380D01*
X0085926Y0066781D02*
X0080089Y0066781D01*
X0083253Y0066183D02*
X0085926Y0066183D01*
X0085530Y0065584D02*
X0083834Y0065584D01*
X0084082Y0064986D02*
X0084932Y0064986D01*
X0084333Y0064387D02*
X0084215Y0064387D01*
X0080184Y0070971D02*
X0079769Y0070971D01*
X0075982Y0067978D02*
X0057753Y0067978D01*
X0058335Y0067380D02*
X0059235Y0067380D01*
X0058860Y0066781D02*
X0058845Y0066781D01*
X0061186Y0066781D02*
X0061785Y0066781D01*
X0061785Y0066183D02*
X0061186Y0066183D01*
X0061186Y0065584D02*
X0061785Y0065584D01*
X0061785Y0064986D02*
X0061186Y0064986D01*
X0061786Y0064387D02*
X0064485Y0064387D01*
X0064489Y0064986D02*
X0064163Y0064986D01*
X0064163Y0065584D02*
X0064489Y0065584D01*
X0064489Y0066183D02*
X0064163Y0066183D01*
X0064111Y0066781D02*
X0064501Y0066781D01*
X0065100Y0067380D02*
X0063736Y0067380D01*
X0061785Y0067380D02*
X0061186Y0067380D01*
X0060401Y0070971D02*
X0054760Y0070971D01*
X0054162Y0071569D02*
X0060093Y0071569D01*
X0060064Y0072168D02*
X0053563Y0072168D01*
X0054526Y0072766D02*
X0055126Y0072766D01*
X0055126Y0073365D02*
X0054526Y0073365D01*
X0054526Y0073964D02*
X0055126Y0073964D01*
X0055126Y0074562D02*
X0054526Y0074562D01*
X0054526Y0075161D02*
X0055126Y0075161D01*
X0055126Y0075759D02*
X0054526Y0075759D01*
X0054526Y0076358D02*
X0049826Y0076358D01*
X0049826Y0076956D02*
X0050574Y0076956D01*
X0050574Y0077555D02*
X0049677Y0077555D01*
X0049078Y0078153D02*
X0050574Y0078153D01*
X0050574Y0078752D02*
X0048480Y0078752D01*
X0047881Y0079350D02*
X0050632Y0079350D01*
X0051023Y0079949D02*
X0047283Y0079949D01*
X0047361Y0080547D02*
X0051094Y0080547D01*
X0050774Y0081146D02*
X0047609Y0081146D01*
X0047626Y0081744D02*
X0050774Y0081744D01*
X0050774Y0082343D02*
X0047626Y0082343D01*
X0047626Y0082941D02*
X0050774Y0082941D01*
X0050774Y0083540D02*
X0047443Y0083540D01*
X0047195Y0084138D02*
X0050774Y0084138D01*
X0050774Y0084737D02*
X0046947Y0084737D01*
X0046422Y0085335D02*
X0050774Y0085335D01*
X0050774Y0085934D02*
X0045823Y0085934D01*
X0044771Y0086532D02*
X0050774Y0086532D01*
X0052002Y0090442D02*
X0047318Y0090442D01*
X0047626Y0091187D01*
X0047626Y0093097D01*
X0046896Y0094861D01*
X0045545Y0096211D01*
X0043781Y0096942D01*
X0041872Y0096942D01*
X0040107Y0096211D01*
X0039376Y0095480D01*
X0039376Y0098521D01*
X0039569Y0098328D01*
X0040206Y0097866D01*
X0040907Y0097508D01*
X0041656Y0097265D01*
X0042433Y0097142D01*
X0042526Y0097142D01*
X0042526Y0101842D01*
X0043126Y0101842D01*
X0043126Y0097142D01*
X0043220Y0097142D01*
X0043997Y0097265D01*
X0044746Y0097508D01*
X0045447Y0097866D01*
X0046084Y0098328D01*
X0046640Y0098885D01*
X0047103Y0099522D01*
X0047460Y0100223D01*
X0047703Y0100971D01*
X0047826Y0101749D01*
X0047826Y0101842D01*
X0043127Y0101842D01*
X0043127Y0102442D01*
X0047826Y0102442D01*
X0047826Y0102536D01*
X0047703Y0103313D01*
X0047460Y0104061D01*
X0047103Y0104763D01*
X0046640Y0105399D01*
X0046084Y0105956D01*
X0045447Y0106419D01*
X0044746Y0106776D01*
X0043997Y0107019D01*
X0043220Y0107142D01*
X0043126Y0107142D01*
X0043126Y0102442D01*
X0042526Y0102442D01*
X0042526Y0107142D01*
X0042433Y0107142D01*
X0041656Y0107019D01*
X0040907Y0106776D01*
X0040206Y0106419D01*
X0039569Y0105956D01*
X0039376Y0105763D01*
X0039376Y0108521D01*
X0039569Y0108328D01*
X0040206Y0107866D01*
X0040907Y0107508D01*
X0041656Y0107265D01*
X0042433Y0107142D01*
X0042526Y0107142D01*
X0042526Y0111842D01*
X0043126Y0111842D01*
X0043126Y0107142D01*
X0043220Y0107142D01*
X0043997Y0107265D01*
X0044746Y0107508D01*
X0045447Y0107866D01*
X0046084Y0108328D01*
X0046640Y0108885D01*
X0047103Y0109522D01*
X0047460Y0110223D01*
X0047703Y0110971D01*
X0047826Y0111749D01*
X0047826Y0111842D01*
X0043127Y0111842D01*
X0043127Y0112442D01*
X0047826Y0112442D01*
X0047826Y0112536D01*
X0047703Y0113313D01*
X0047460Y0114061D01*
X0047103Y0114763D01*
X0046640Y0115399D01*
X0046084Y0115956D01*
X0045447Y0116419D01*
X0044746Y0116776D01*
X0043997Y0117019D01*
X0043220Y0117142D01*
X0043126Y0117142D01*
X0043126Y0112442D01*
X0042526Y0112442D01*
X0042526Y0117142D01*
X0042433Y0117142D01*
X0041656Y0117019D01*
X0040907Y0116776D01*
X0040206Y0116419D01*
X0039569Y0115956D01*
X0039376Y0115763D01*
X0039376Y0118804D01*
X0040107Y0118073D01*
X0041872Y0117342D01*
X0043781Y0117342D01*
X0045545Y0118073D01*
X0046896Y0119423D01*
X0047235Y0120242D01*
X0048626Y0120242D01*
X0048626Y0115868D01*
X0048625Y0115867D01*
X0048626Y0115083D01*
X0048626Y0114296D01*
X0048628Y0114295D01*
X0048628Y0114293D01*
X0049185Y0113737D01*
X0049739Y0113183D01*
X0049741Y0113183D01*
X0052027Y0110906D01*
X0052027Y0106534D01*
X0052672Y0105889D01*
X0052687Y0105889D01*
X0052186Y0105389D01*
X0052186Y0104475D01*
X0052002Y0104291D01*
X0052002Y0099442D01*
X0052646Y0098798D01*
X0055526Y0098798D01*
X0056171Y0099442D01*
X0056171Y0103999D01*
X0057007Y0104836D01*
X0057563Y0105387D01*
X0057563Y0105392D01*
X0057567Y0105396D01*
X0057567Y0105889D01*
X0058701Y0105889D01*
X0059345Y0106534D01*
X0059345Y0106677D01*
X0059396Y0106488D01*
X0059567Y0106191D01*
X0059809Y0105949D01*
X0060106Y0105778D01*
X0060436Y0105689D01*
X0062867Y0105689D01*
X0062867Y0109642D01*
X0063467Y0109642D01*
X0063467Y0105689D01*
X0065897Y0105689D01*
X0066051Y0105731D01*
X0066051Y0103455D01*
X0066626Y0102879D01*
X0066626Y0093205D01*
X0063651Y0090229D01*
X0063651Y0094842D01*
X0063007Y0095486D01*
X0060127Y0095486D01*
X0059838Y0095197D01*
X0059609Y0095427D01*
X0059312Y0095598D01*
X0058982Y0095686D01*
X0058019Y0095686D01*
X0058019Y0092610D01*
X0057634Y0092610D01*
X0057634Y0095686D01*
X0056671Y0095686D01*
X0056340Y0095598D01*
X0056044Y0095427D01*
X0055815Y0095197D01*
X0055526Y0095486D01*
X0052646Y0095486D01*
X0052002Y0094842D01*
X0052002Y0090442D01*
X0052002Y0090722D02*
X0047434Y0090722D01*
X0047626Y0091320D02*
X0052002Y0091320D01*
X0052002Y0091919D02*
X0047626Y0091919D01*
X0047626Y0092517D02*
X0052002Y0092517D01*
X0052002Y0093116D02*
X0047619Y0093116D01*
X0047371Y0093714D02*
X0052002Y0093714D01*
X0052002Y0094313D02*
X0047123Y0094313D01*
X0046845Y0094911D02*
X0052072Y0094911D01*
X0052343Y0099101D02*
X0046797Y0099101D01*
X0047193Y0099700D02*
X0052002Y0099700D01*
X0052002Y0100298D02*
X0047485Y0100298D01*
X0047679Y0100897D02*
X0052002Y0100897D01*
X0052002Y0101495D02*
X0047786Y0101495D01*
X0047802Y0102692D02*
X0052002Y0102692D01*
X0052002Y0102094D02*
X0043127Y0102094D01*
X0043126Y0102692D02*
X0042526Y0102692D01*
X0042526Y0103291D02*
X0043126Y0103291D01*
X0043126Y0103889D02*
X0042526Y0103889D01*
X0042526Y0104488D02*
X0043126Y0104488D01*
X0043126Y0105086D02*
X0042526Y0105086D01*
X0042526Y0105685D02*
X0043126Y0105685D01*
X0043126Y0106283D02*
X0042526Y0106283D01*
X0042526Y0106882D02*
X0043126Y0106882D01*
X0043126Y0107480D02*
X0042526Y0107480D01*
X0042526Y0108079D02*
X0043126Y0108079D01*
X0043126Y0108677D02*
X0042526Y0108677D01*
X0042526Y0109276D02*
X0043126Y0109276D01*
X0043126Y0109874D02*
X0042526Y0109874D01*
X0042526Y0110473D02*
X0043126Y0110473D01*
X0043126Y0111071D02*
X0042526Y0111071D01*
X0042526Y0111670D02*
X0043126Y0111670D01*
X0043127Y0112268D02*
X0050660Y0112268D01*
X0051260Y0111670D02*
X0047814Y0111670D01*
X0047719Y0111071D02*
X0051861Y0111071D01*
X0052027Y0110473D02*
X0047541Y0110473D01*
X0047283Y0109874D02*
X0052027Y0109874D01*
X0052027Y0109276D02*
X0046924Y0109276D01*
X0046433Y0108677D02*
X0052027Y0108677D01*
X0052027Y0108079D02*
X0045740Y0108079D01*
X0044659Y0107480D02*
X0052027Y0107480D01*
X0052027Y0106882D02*
X0044420Y0106882D01*
X0045633Y0106283D02*
X0052278Y0106283D01*
X0052482Y0105685D02*
X0046355Y0105685D01*
X0046868Y0105086D02*
X0052186Y0105086D01*
X0052186Y0104488D02*
X0047243Y0104488D01*
X0047516Y0103889D02*
X0052002Y0103889D01*
X0052002Y0103291D02*
X0047707Y0103291D01*
X0046258Y0098502D02*
X0066626Y0098502D01*
X0066626Y0097904D02*
X0045500Y0097904D01*
X0044121Y0097305D02*
X0066626Y0097305D01*
X0066626Y0096707D02*
X0044349Y0096707D01*
X0043126Y0097305D02*
X0042526Y0097305D01*
X0042526Y0097904D02*
X0043126Y0097904D01*
X0043126Y0098502D02*
X0042526Y0098502D01*
X0042526Y0099101D02*
X0043126Y0099101D01*
X0043126Y0099700D02*
X0042526Y0099700D01*
X0042526Y0100298D02*
X0043126Y0100298D01*
X0043126Y0100897D02*
X0042526Y0100897D01*
X0042526Y0101495D02*
X0043126Y0101495D01*
X0041532Y0097305D02*
X0039376Y0097305D01*
X0039376Y0096707D02*
X0041304Y0096707D01*
X0040005Y0096108D02*
X0039376Y0096108D01*
X0039376Y0095510D02*
X0039406Y0095510D01*
X0039376Y0097904D02*
X0040153Y0097904D01*
X0039395Y0098502D02*
X0039376Y0098502D01*
X0039376Y0106283D02*
X0040020Y0106283D01*
X0039376Y0106882D02*
X0041233Y0106882D01*
X0040994Y0107480D02*
X0039376Y0107480D01*
X0039376Y0108079D02*
X0039913Y0108079D01*
X0042526Y0112867D02*
X0043126Y0112867D01*
X0043126Y0113465D02*
X0042526Y0113465D01*
X0042526Y0114064D02*
X0043126Y0114064D01*
X0043126Y0114662D02*
X0042526Y0114662D01*
X0042526Y0115261D02*
X0043126Y0115261D01*
X0043126Y0115859D02*
X0042526Y0115859D01*
X0042526Y0116458D02*
X0043126Y0116458D01*
X0043126Y0117056D02*
X0042526Y0117056D01*
X0041891Y0117056D02*
X0039376Y0117056D01*
X0039376Y0116458D02*
X0040283Y0116458D01*
X0039473Y0115859D02*
X0039376Y0115859D01*
X0039376Y0117655D02*
X0041117Y0117655D01*
X0039927Y0118253D02*
X0039376Y0118253D01*
X0043762Y0117056D02*
X0048626Y0117056D01*
X0048626Y0116458D02*
X0045370Y0116458D01*
X0046180Y0115859D02*
X0048625Y0115859D01*
X0048626Y0115261D02*
X0046741Y0115261D01*
X0047154Y0114662D02*
X0048626Y0114662D01*
X0048858Y0114064D02*
X0047459Y0114064D01*
X0047654Y0113465D02*
X0049457Y0113465D01*
X0050059Y0112867D02*
X0047774Y0112867D01*
X0048626Y0117655D02*
X0044536Y0117655D01*
X0045726Y0118253D02*
X0048626Y0118253D01*
X0048626Y0118852D02*
X0046324Y0118852D01*
X0046907Y0119450D02*
X0048626Y0119450D01*
X0048626Y0120049D02*
X0047155Y0120049D01*
X0047235Y0134042D02*
X0047129Y0134297D01*
X0048004Y0134297D01*
X0048956Y0134691D01*
X0049684Y0135420D01*
X0050078Y0136371D01*
X0050078Y0137401D01*
X0049684Y0138353D01*
X0048956Y0139081D01*
X0048004Y0139475D01*
X0047163Y0139475D01*
X0046989Y0139649D01*
X0047626Y0141187D01*
X0047626Y0143097D01*
X0046896Y0144861D01*
X0045545Y0146211D01*
X0043781Y0146942D01*
X0041872Y0146942D01*
X0040107Y0146211D01*
X0039376Y0145480D01*
X0039376Y0148804D01*
X0040107Y0148073D01*
X0041872Y0147342D01*
X0043781Y0147342D01*
X0045545Y0148073D01*
X0046896Y0149423D01*
X0047235Y0150242D01*
X0047276Y0150242D01*
X0048525Y0148993D01*
X0048525Y0145056D01*
X0049638Y0143943D01*
X0052099Y0141482D01*
X0053616Y0141482D01*
X0053616Y0140466D01*
X0054261Y0139822D01*
X0059975Y0139822D01*
X0060619Y0140466D01*
X0060619Y0141748D01*
X0064574Y0145702D01*
X0064574Y0144182D01*
X0068526Y0144182D01*
X0068526Y0143582D01*
X0064574Y0143582D01*
X0064574Y0141152D01*
X0064662Y0140821D01*
X0064833Y0140525D01*
X0065075Y0140283D01*
X0065372Y0140112D01*
X0065562Y0140061D01*
X0065418Y0140061D01*
X0064774Y0139417D01*
X0064774Y0138942D01*
X0064388Y0138942D01*
X0064093Y0139237D01*
X0063141Y0139631D01*
X0062111Y0139631D01*
X0061160Y0139237D01*
X0060965Y0139042D01*
X0053639Y0139042D01*
X0048639Y0134042D01*
X0047235Y0134042D01*
X0048284Y0134413D02*
X0049010Y0134413D01*
X0049276Y0135012D02*
X0049609Y0135012D01*
X0049763Y0135610D02*
X0050207Y0135610D01*
X0050011Y0136209D02*
X0050806Y0136209D01*
X0051405Y0136807D02*
X0050078Y0136807D01*
X0050077Y0137406D02*
X0052003Y0137406D01*
X0052602Y0138004D02*
X0049829Y0138004D01*
X0049434Y0138603D02*
X0053200Y0138603D01*
X0053684Y0140398D02*
X0047300Y0140398D01*
X0047052Y0139800D02*
X0065157Y0139800D01*
X0064960Y0140398D02*
X0060552Y0140398D01*
X0060619Y0140997D02*
X0064615Y0140997D01*
X0064574Y0141595D02*
X0060619Y0141595D01*
X0061065Y0142194D02*
X0064574Y0142194D01*
X0064574Y0142792D02*
X0061664Y0142792D01*
X0062262Y0143391D02*
X0064574Y0143391D01*
X0064574Y0144588D02*
X0063459Y0144588D01*
X0064058Y0145186D02*
X0064574Y0145186D01*
X0062861Y0143989D02*
X0068526Y0143989D01*
X0068526Y0144182D02*
X0068526Y0147741D01*
X0067531Y0147741D01*
X0067815Y0148427D01*
X0067815Y0149457D01*
X0067421Y0150409D01*
X0066693Y0151137D01*
X0065741Y0151531D01*
X0064711Y0151531D01*
X0063760Y0151137D01*
X0063032Y0150409D01*
X0062637Y0149457D01*
X0062637Y0149140D01*
X0060208Y0146710D01*
X0059975Y0146943D01*
X0054261Y0146943D01*
X0053616Y0146299D01*
X0053616Y0145339D01*
X0052325Y0146630D01*
X0052325Y0150567D01*
X0049963Y0152929D01*
X0048850Y0154042D01*
X0047235Y0154042D01*
X0046896Y0154861D01*
X0045545Y0156211D01*
X0043781Y0156942D01*
X0041872Y0156942D01*
X0040107Y0156211D01*
X0039376Y0155480D01*
X0039376Y0164142D01*
X0039456Y0165151D01*
X0039496Y0165276D01*
X0039496Y0163482D01*
X0040384Y0161340D01*
X0042024Y0159700D01*
X0044167Y0158812D01*
X0046486Y0158812D01*
X0048629Y0159700D01*
X0050269Y0161340D01*
X0051156Y0163482D01*
X0051156Y0165802D01*
X0050269Y0167945D01*
X0048629Y0169585D01*
X0046486Y0170472D01*
X0044692Y0170472D01*
X0044817Y0170513D01*
X0045826Y0170592D01*
X0057976Y0170592D01*
X0057670Y0170400D01*
X0057328Y0170281D01*
X0057327Y0170277D01*
X0057323Y0170277D01*
X0057068Y0170022D01*
X0056762Y0169829D01*
X0056761Y0169826D01*
X0056757Y0169825D01*
X0056565Y0169519D01*
X0056309Y0169264D01*
X0056309Y0169260D01*
X0056306Y0169258D01*
X0056187Y0168917D01*
X0055995Y0168611D01*
X0055995Y0168608D01*
X0055992Y0168605D01*
X0055952Y0168246D01*
X0055833Y0167905D01*
X0055880Y0167807D01*
X0055880Y0167607D01*
X0055832Y0167181D01*
X0055880Y0167120D01*
X0055880Y0165794D01*
X0055832Y0165734D01*
X0055880Y0165307D01*
X0055880Y0165107D01*
X0055833Y0165009D01*
X0055952Y0164668D01*
X0055992Y0164309D01*
X0055995Y0164307D01*
X0055995Y0164303D01*
X0056187Y0163997D01*
X0056306Y0163656D01*
X0056309Y0163654D01*
X0056309Y0163651D01*
X0056565Y0163395D01*
X0056757Y0163089D01*
X0056761Y0163088D01*
X0056762Y0163085D01*
X0057068Y0162892D01*
X0057323Y0162637D01*
X0057327Y0162637D01*
X0057328Y0162634D01*
X0057670Y0162514D01*
X0057976Y0162322D01*
X0057979Y0162323D01*
X0057981Y0162320D01*
X0058341Y0162280D01*
X0058682Y0162160D01*
X0058780Y0162208D01*
X0058980Y0162208D01*
X0059406Y0162159D01*
X0059466Y0162208D01*
X0064268Y0162208D01*
X0064924Y0162863D01*
X0065481Y0162306D01*
X0072298Y0162306D01*
X0072826Y0162835D01*
X0073355Y0162306D01*
X0080172Y0162306D01*
X0080729Y0162863D01*
X0081385Y0162208D01*
X0086187Y0162208D01*
X0086247Y0162159D01*
X0086673Y0162208D01*
X0086873Y0162208D01*
X0086971Y0162160D01*
X0087312Y0162280D01*
X0087671Y0162320D01*
X0087674Y0162323D01*
X0087677Y0162322D01*
X0087983Y0162514D01*
X0088324Y0162634D01*
X0088326Y0162637D01*
X0088330Y0162637D01*
X0088585Y0162892D01*
X0088891Y0163085D01*
X0088892Y0163088D01*
X0088896Y0163089D01*
X0089088Y0163395D01*
X0089343Y0163651D01*
X0089343Y0163654D01*
X0089347Y0163656D01*
X0089466Y0163997D01*
X0089658Y0164303D01*
X0089658Y0164307D01*
X0089660Y0164309D01*
X0089701Y0164668D01*
X0089820Y0165009D01*
X0089773Y0165107D01*
X0089773Y0165307D01*
X0089821Y0165734D01*
X0089773Y0165794D01*
X0089773Y0167120D01*
X0089821Y0167181D01*
X0089773Y0167607D01*
X0089773Y0167807D01*
X0089820Y0167905D01*
X0089701Y0168246D01*
X0089660Y0168605D01*
X0089658Y0168608D01*
X0089658Y0168611D01*
X0089466Y0168917D01*
X0089347Y0169258D01*
X0089343Y0169260D01*
X0089343Y0169264D01*
X0089088Y0169519D01*
X0088896Y0169825D01*
X0088892Y0169826D01*
X0088891Y0169829D01*
X0088585Y0170022D01*
X0088330Y0170277D01*
X0088326Y0170277D01*
X0088324Y0170281D01*
X0087983Y0170400D01*
X0087677Y0170592D01*
X0099826Y0170592D01*
X0100835Y0170513D01*
X0100960Y0170472D01*
X0099167Y0170472D01*
X0097024Y0169585D01*
X0095384Y0167945D01*
X0094496Y0165802D01*
X0094496Y0163482D01*
X0095384Y0161340D01*
X0097024Y0159700D01*
X0099167Y0158812D01*
X0101486Y0158812D01*
X0103629Y0159700D01*
X0105269Y0161340D01*
X0106156Y0163482D01*
X0106156Y0165276D01*
X0106197Y0165151D01*
X0106276Y0164142D01*
X0106276Y0155480D01*
X0105545Y0156211D01*
X0103781Y0156942D01*
X0101872Y0156942D01*
X0100107Y0156211D01*
X0098757Y0154861D01*
X0098026Y0153097D01*
X0098026Y0151187D01*
X0098757Y0149423D01*
X0100107Y0148073D01*
X0101872Y0147342D01*
X0103781Y0147342D01*
X0105545Y0148073D01*
X0106276Y0148804D01*
X0106276Y0145480D01*
X0105545Y0146211D01*
X0103781Y0146942D01*
X0101872Y0146942D01*
X0100107Y0146211D01*
X0098757Y0144861D01*
X0098026Y0143097D01*
X0098026Y0141187D01*
X0098757Y0139423D01*
X0100107Y0138073D01*
X0101872Y0137342D01*
X0103781Y0137342D01*
X0105545Y0138073D01*
X0106276Y0138804D01*
X0106276Y0135480D01*
X0105545Y0136211D01*
X0103781Y0136942D01*
X0101872Y0136942D01*
X0100107Y0136211D01*
X0098757Y0134861D01*
X0098026Y0133097D01*
X0098026Y0131187D01*
X0098757Y0129423D01*
X0100107Y0128073D01*
X0101872Y0127342D01*
X0103781Y0127342D01*
X0105545Y0128073D01*
X0106276Y0128804D01*
X0106276Y0125480D01*
X0105545Y0126211D01*
X0103781Y0126942D01*
X0101872Y0126942D01*
X0100107Y0126211D01*
X0098757Y0124861D01*
X0098026Y0123097D01*
X0098026Y0121187D01*
X0098490Y0120068D01*
X0096626Y0118205D01*
X0096626Y0130705D01*
X0093289Y0134042D01*
X0086589Y0134042D01*
X0086926Y0134379D01*
X0086926Y0134905D01*
X0087554Y0134905D01*
X0088198Y0135550D01*
X0088198Y0138542D01*
X0088464Y0138542D01*
X0088664Y0138342D01*
X0088762Y0138342D01*
X0088999Y0138105D01*
X0093454Y0138105D01*
X0094098Y0138750D01*
X0094098Y0142417D01*
X0093454Y0143061D01*
X0088999Y0143061D01*
X0088355Y0142417D01*
X0088355Y0141342D01*
X0088198Y0141342D01*
X0088198Y0144335D01*
X0087554Y0144979D01*
X0086926Y0144979D01*
X0086926Y0145505D01*
X0085989Y0146442D01*
X0085962Y0146470D01*
X0088195Y0146470D01*
X0088355Y0146310D01*
X0088355Y0143868D01*
X0088999Y0143223D01*
X0093454Y0143223D01*
X0094098Y0143868D01*
X0094098Y0147535D01*
X0093454Y0148179D01*
X0100001Y0148179D01*
X0099403Y0148777D02*
X0092107Y0148777D01*
X0091993Y0148664D02*
X0092721Y0149392D01*
X0093115Y0150344D01*
X0093115Y0151374D01*
X0092721Y0152325D01*
X0091993Y0153054D01*
X0091041Y0153448D01*
X0090011Y0153448D01*
X0089060Y0153054D01*
X0088332Y0152325D01*
X0088007Y0151542D01*
X0080889Y0151542D01*
X0079775Y0152657D01*
X0079832Y0152714D01*
X0079832Y0153657D01*
X0079852Y0153625D01*
X0079855Y0153614D01*
X0079861Y0153610D01*
X0079866Y0153603D01*
X0079876Y0153601D01*
X0080161Y0153422D01*
X0080398Y0153185D01*
X0080403Y0153175D01*
X0080410Y0153172D01*
X0080416Y0153167D01*
X0080427Y0153167D01*
X0080744Y0153056D01*
X0081028Y0152877D01*
X0081035Y0152869D01*
X0081043Y0152868D01*
X0081050Y0152863D01*
X0081060Y0152866D01*
X0081394Y0152828D01*
X0081576Y0152764D01*
X0081582Y0152759D01*
X0081593Y0152759D01*
X0081735Y0152709D01*
X0081838Y0152759D01*
X0082011Y0152759D01*
X0082438Y0152711D01*
X0082498Y0152759D01*
X0082840Y0152759D01*
X0082900Y0152711D01*
X0083327Y0152759D01*
X0083499Y0152759D01*
X0083603Y0152709D01*
X0083745Y0152759D01*
X0083756Y0152759D01*
X0083762Y0152764D01*
X0083944Y0152828D01*
X0084278Y0152866D01*
X0084288Y0152863D01*
X0084295Y0152868D01*
X0084303Y0152869D01*
X0084310Y0152877D01*
X0084594Y0153056D01*
X0084911Y0153167D01*
X0084922Y0153167D01*
X0084928Y0153172D01*
X0084935Y0153175D01*
X0084940Y0153185D01*
X0085177Y0153422D01*
X0085462Y0153601D01*
X0085472Y0153603D01*
X0085477Y0153610D01*
X0085483Y0153614D01*
X0085486Y0153625D01*
X0085664Y0153909D01*
X0085902Y0154147D01*
X0085912Y0154151D01*
X0085914Y0154159D01*
X0085920Y0154165D01*
X0085920Y0154175D01*
X0086031Y0154493D01*
X0086210Y0154777D01*
X0086218Y0154784D01*
X0086219Y0154792D01*
X0086223Y0154799D01*
X0086221Y0154809D01*
X0086258Y0155143D01*
X0086369Y0155460D01*
X0086376Y0155468D01*
X0086375Y0155476D01*
X0086378Y0155484D01*
X0086373Y0155493D01*
X0086336Y0155827D01*
X0086373Y0156161D01*
X0086378Y0156171D01*
X0086375Y0156178D01*
X0086376Y0156186D01*
X0086369Y0156195D01*
X0086258Y0156512D01*
X0086221Y0156845D01*
X0086223Y0156856D01*
X0086219Y0156863D01*
X0086218Y0156871D01*
X0086210Y0156877D01*
X0086031Y0157162D01*
X0085920Y0157479D01*
X0085920Y0157490D01*
X0085914Y0157495D01*
X0085912Y0157503D01*
X0085902Y0157508D01*
X0085664Y0157745D01*
X0085486Y0158030D01*
X0085483Y0158040D01*
X0085477Y0158044D01*
X0085472Y0158051D01*
X0085462Y0158053D01*
X0085177Y0158232D01*
X0084940Y0158470D01*
X0084935Y0158479D01*
X0084928Y0158482D01*
X0084922Y0158488D01*
X0084911Y0158488D01*
X0084594Y0158599D01*
X0084310Y0158777D01*
X0084303Y0158786D01*
X0084295Y0158787D01*
X0084288Y0158791D01*
X0084278Y0158789D01*
X0083944Y0158826D01*
X0083762Y0158890D01*
X0083756Y0158896D01*
X0083745Y0158896D01*
X0083603Y0158946D01*
X0083499Y0158896D01*
X0083327Y0158896D01*
X0082900Y0158944D01*
X0082840Y0158896D01*
X0082498Y0158896D01*
X0082438Y0158944D01*
X0082011Y0158896D01*
X0081838Y0158896D01*
X0081735Y0158946D01*
X0081593Y0158896D01*
X0081582Y0158896D01*
X0081576Y0158890D01*
X0081394Y0158826D01*
X0081060Y0158789D01*
X0081050Y0158791D01*
X0081043Y0158787D01*
X0081035Y0158786D01*
X0081028Y0158777D01*
X0080744Y0158599D01*
X0080427Y0158488D01*
X0080416Y0158488D01*
X0080410Y0158482D01*
X0080403Y0158479D01*
X0080398Y0158470D01*
X0080161Y0158232D01*
X0079876Y0158053D01*
X0079866Y0158051D01*
X0079861Y0158044D01*
X0079855Y0158040D01*
X0079852Y0158030D01*
X0079832Y0157997D01*
X0079832Y0158940D01*
X0079188Y0159585D01*
X0076702Y0159585D01*
X0076665Y0159548D01*
X0076629Y0159585D01*
X0074142Y0159585D01*
X0074106Y0159548D01*
X0074070Y0159585D01*
X0071583Y0159585D01*
X0071547Y0159548D01*
X0071510Y0159585D01*
X0069190Y0159585D01*
X0068998Y0159696D01*
X0068667Y0159785D01*
X0067802Y0159785D01*
X0067802Y0155921D01*
X0067615Y0155921D01*
X0067615Y0159785D01*
X0066750Y0159785D01*
X0066419Y0159696D01*
X0066123Y0159525D01*
X0065881Y0159283D01*
X0065710Y0158986D01*
X0065621Y0158656D01*
X0065621Y0158151D01*
X0065492Y0158232D01*
X0065255Y0158470D01*
X0065250Y0158479D01*
X0065243Y0158482D01*
X0065237Y0158488D01*
X0065226Y0158488D01*
X0064909Y0158599D01*
X0064625Y0158777D01*
X0064618Y0158786D01*
X0064610Y0158787D01*
X0064603Y0158791D01*
X0064593Y0158789D01*
X0064259Y0158826D01*
X0064077Y0158890D01*
X0064071Y0158896D01*
X0064060Y0158896D01*
X0063918Y0158946D01*
X0063814Y0158896D01*
X0063642Y0158896D01*
X0063215Y0158944D01*
X0063155Y0158896D01*
X0062813Y0158896D01*
X0062752Y0158944D01*
X0062326Y0158896D01*
X0062153Y0158896D01*
X0062050Y0158946D01*
X0061908Y0158896D01*
X0061897Y0158896D01*
X0061891Y0158890D01*
X0061709Y0158826D01*
X0061375Y0158789D01*
X0061365Y0158791D01*
X0061358Y0158787D01*
X0061350Y0158786D01*
X0061343Y0158777D01*
X0061059Y0158599D01*
X0060742Y0158488D01*
X0060731Y0158488D01*
X0060725Y0158482D01*
X0060718Y0158479D01*
X0060713Y0158470D01*
X0060475Y0158232D01*
X0060191Y0158053D01*
X0060181Y0158051D01*
X0060176Y0158044D01*
X0060170Y0158040D01*
X0060167Y0158029D01*
X0059988Y0157745D01*
X0059751Y0157508D01*
X0059741Y0157503D01*
X0059739Y0157495D01*
X0059733Y0157490D01*
X0059733Y0157479D01*
X0059622Y0157162D01*
X0059443Y0156877D01*
X0059435Y0156871D01*
X0059434Y0156863D01*
X0059430Y0156856D01*
X0059432Y0156845D01*
X0059394Y0156512D01*
X0059283Y0156195D01*
X0059277Y0156186D01*
X0059278Y0156178D01*
X0059275Y0156171D01*
X0059280Y0156161D01*
X0059317Y0155827D01*
X0059280Y0155493D01*
X0059275Y0155484D01*
X0059278Y0155476D01*
X0059277Y0155468D01*
X0059283Y0155460D01*
X0059394Y0155143D01*
X0059432Y0154809D01*
X0059430Y0154799D01*
X0059434Y0154792D01*
X0059435Y0154784D01*
X0059443Y0154777D01*
X0059622Y0154493D01*
X0059733Y0154175D01*
X0059733Y0154165D01*
X0059739Y0154159D01*
X0059741Y0154151D01*
X0059751Y0154147D01*
X0059988Y0153909D01*
X0060167Y0153625D01*
X0060170Y0153614D01*
X0060176Y0153610D01*
X0060181Y0153603D01*
X0060191Y0153601D01*
X0060475Y0153422D01*
X0060713Y0153185D01*
X0060718Y0153175D01*
X0060725Y0153172D01*
X0060731Y0153167D01*
X0060742Y0153167D01*
X0061059Y0153056D01*
X0061343Y0152877D01*
X0061350Y0152869D01*
X0061358Y0152868D01*
X0061365Y0152863D01*
X0061375Y0152866D01*
X0061709Y0152828D01*
X0061891Y0152764D01*
X0061897Y0152759D01*
X0061908Y0152759D01*
X0062050Y0152709D01*
X0062153Y0152759D01*
X0062326Y0152759D01*
X0062752Y0152711D01*
X0062813Y0152759D01*
X0063155Y0152759D01*
X0063215Y0152711D01*
X0063642Y0152759D01*
X0063814Y0152759D01*
X0063918Y0152709D01*
X0064060Y0152759D01*
X0064071Y0152759D01*
X0064077Y0152764D01*
X0064259Y0152828D01*
X0064593Y0152866D01*
X0064603Y0152863D01*
X0064610Y0152868D01*
X0064618Y0152869D01*
X0064625Y0152877D01*
X0064909Y0153056D01*
X0065226Y0153167D01*
X0065237Y0153167D01*
X0065243Y0153172D01*
X0065250Y0153175D01*
X0065255Y0153185D01*
X0065492Y0153422D01*
X0065621Y0153503D01*
X0065621Y0152999D01*
X0065710Y0152668D01*
X0065881Y0152371D01*
X0066123Y0152129D01*
X0066419Y0151958D01*
X0066750Y0151870D01*
X0067615Y0151870D01*
X0067615Y0155733D01*
X0067802Y0155733D01*
X0067802Y0151870D01*
X0068667Y0151870D01*
X0068998Y0151958D01*
X0069190Y0152070D01*
X0071198Y0152070D01*
X0071198Y0150668D01*
X0076360Y0145507D01*
X0077297Y0144570D01*
X0082690Y0144570D01*
X0082455Y0144335D01*
X0082455Y0141542D01*
X0081689Y0141542D01*
X0079561Y0139414D01*
X0079598Y0139552D01*
X0079598Y0140801D01*
X0076827Y0140801D01*
X0076827Y0141401D01*
X0079598Y0141401D01*
X0079598Y0142650D01*
X0079510Y0142981D01*
X0079338Y0143277D01*
X0079096Y0143519D01*
X0078800Y0143691D01*
X0078469Y0143779D01*
X0076826Y0143779D01*
X0076826Y0141401D01*
X0076226Y0141401D01*
X0076226Y0140801D01*
X0073455Y0140801D01*
X0073455Y0139552D01*
X0073543Y0139221D01*
X0073715Y0138925D01*
X0073957Y0138683D01*
X0074253Y0138512D01*
X0074443Y0138461D01*
X0074299Y0138461D01*
X0073721Y0137883D01*
X0072879Y0137883D01*
X0072879Y0139417D01*
X0072235Y0140061D01*
X0072091Y0140061D01*
X0072281Y0140112D01*
X0072577Y0140283D01*
X0072819Y0140525D01*
X0072991Y0140821D01*
X0073079Y0141152D01*
X0073079Y0143582D01*
X0069127Y0143582D01*
X0069127Y0144182D01*
X0073079Y0144182D01*
X0073079Y0146613D01*
X0072991Y0146943D01*
X0072819Y0147240D01*
X0072577Y0147482D01*
X0072281Y0147653D01*
X0071950Y0147741D01*
X0069126Y0147741D01*
X0069126Y0144182D01*
X0068526Y0144182D01*
X0068526Y0144588D02*
X0069126Y0144588D01*
X0069126Y0145186D02*
X0068526Y0145186D01*
X0068526Y0145785D02*
X0069126Y0145785D01*
X0069126Y0146383D02*
X0068526Y0146383D01*
X0068526Y0146982D02*
X0069126Y0146982D01*
X0069126Y0147580D02*
X0068526Y0147580D01*
X0067713Y0148179D02*
X0073688Y0148179D01*
X0074286Y0147580D02*
X0072406Y0147580D01*
X0072968Y0146982D02*
X0074885Y0146982D01*
X0075483Y0146383D02*
X0073079Y0146383D01*
X0073079Y0145785D02*
X0076082Y0145785D01*
X0076680Y0145186D02*
X0073079Y0145186D01*
X0073079Y0144588D02*
X0077279Y0144588D01*
X0076826Y0143391D02*
X0076226Y0143391D01*
X0076226Y0143779D02*
X0074584Y0143779D01*
X0074253Y0143691D01*
X0073957Y0143519D01*
X0073715Y0143277D01*
X0073543Y0142981D01*
X0073455Y0142650D01*
X0073455Y0141401D01*
X0076226Y0141401D01*
X0076226Y0143779D01*
X0076226Y0142792D02*
X0076826Y0142792D01*
X0076826Y0142194D02*
X0076226Y0142194D01*
X0076226Y0141595D02*
X0076826Y0141595D01*
X0076827Y0140997D02*
X0081144Y0140997D01*
X0080545Y0140398D02*
X0079598Y0140398D01*
X0079598Y0139800D02*
X0079947Y0139800D01*
X0079598Y0141595D02*
X0082455Y0141595D01*
X0082455Y0142194D02*
X0079598Y0142194D01*
X0079560Y0142792D02*
X0082455Y0142792D01*
X0082455Y0143391D02*
X0079225Y0143391D01*
X0076226Y0140997D02*
X0073038Y0140997D01*
X0073079Y0141595D02*
X0073455Y0141595D01*
X0073455Y0142194D02*
X0073079Y0142194D01*
X0073079Y0142792D02*
X0073493Y0142792D01*
X0073828Y0143391D02*
X0073079Y0143391D01*
X0073455Y0140398D02*
X0072693Y0140398D01*
X0072496Y0139800D02*
X0073455Y0139800D01*
X0073555Y0139201D02*
X0072879Y0139201D01*
X0072879Y0138603D02*
X0074096Y0138603D01*
X0073842Y0138004D02*
X0072879Y0138004D01*
X0072879Y0134083D02*
X0073721Y0134083D01*
X0073913Y0133891D01*
X0072364Y0132342D01*
X0071426Y0131405D01*
X0071426Y0127405D01*
X0071426Y0126079D01*
X0071795Y0125711D01*
X0070498Y0125711D01*
X0070498Y0125917D01*
X0069854Y0126561D01*
X0069710Y0126561D01*
X0069900Y0126612D01*
X0070196Y0126783D01*
X0070438Y0127025D01*
X0070610Y0127321D01*
X0070698Y0127652D01*
X0070698Y0128901D01*
X0067927Y0128901D01*
X0067927Y0129501D01*
X0070698Y0129501D01*
X0070698Y0130750D01*
X0070610Y0131081D01*
X0070438Y0131377D01*
X0070196Y0131619D01*
X0069900Y0131791D01*
X0069569Y0131879D01*
X0067926Y0131879D01*
X0067926Y0129501D01*
X0067326Y0129501D01*
X0067326Y0128901D01*
X0064555Y0128901D01*
X0064555Y0127652D01*
X0064643Y0127321D01*
X0064815Y0127025D01*
X0065057Y0126783D01*
X0065353Y0126612D01*
X0065543Y0126561D01*
X0065399Y0126561D01*
X0064780Y0125942D01*
X0064533Y0125942D01*
X0064238Y0126237D01*
X0063286Y0126631D01*
X0062256Y0126631D01*
X0061305Y0126237D01*
X0061010Y0125942D01*
X0058702Y0125942D01*
X0058702Y0128208D01*
X0059975Y0128208D01*
X0060619Y0128852D01*
X0060619Y0134684D01*
X0060062Y0135242D01*
X0060765Y0135242D01*
X0061160Y0134847D01*
X0062111Y0134453D01*
X0063141Y0134453D01*
X0064093Y0134847D01*
X0064388Y0135142D01*
X0064774Y0135142D01*
X0064774Y0133387D01*
X0065418Y0132743D01*
X0072235Y0132743D01*
X0072879Y0133387D01*
X0072879Y0134083D01*
X0072879Y0133815D02*
X0073836Y0133815D01*
X0073238Y0133216D02*
X0072708Y0133216D01*
X0072639Y0132618D02*
X0060619Y0132618D01*
X0060619Y0133216D02*
X0064945Y0133216D01*
X0064774Y0133815D02*
X0060619Y0133815D01*
X0060619Y0134413D02*
X0064774Y0134413D01*
X0064774Y0135012D02*
X0064257Y0135012D01*
X0065353Y0131791D02*
X0065057Y0131619D01*
X0064815Y0131377D01*
X0064643Y0131081D01*
X0064555Y0130750D01*
X0064555Y0129501D01*
X0067326Y0129501D01*
X0067326Y0131879D01*
X0065684Y0131879D01*
X0065353Y0131791D01*
X0064858Y0131421D02*
X0060619Y0131421D01*
X0060619Y0132019D02*
X0072041Y0132019D01*
X0071442Y0131421D02*
X0070395Y0131421D01*
X0070679Y0130822D02*
X0071426Y0130822D01*
X0071426Y0130224D02*
X0070698Y0130224D01*
X0070698Y0129625D02*
X0071426Y0129625D01*
X0071426Y0129027D02*
X0067927Y0129027D01*
X0067926Y0129625D02*
X0067326Y0129625D01*
X0067326Y0129027D02*
X0060619Y0129027D01*
X0060619Y0129625D02*
X0064555Y0129625D01*
X0064555Y0130224D02*
X0060619Y0130224D01*
X0060619Y0130822D02*
X0064574Y0130822D01*
X0064555Y0128428D02*
X0060196Y0128428D01*
X0058702Y0127830D02*
X0064555Y0127830D01*
X0064696Y0127231D02*
X0058702Y0127231D01*
X0058702Y0126633D02*
X0065317Y0126633D01*
X0064872Y0126034D02*
X0064441Y0126034D01*
X0067326Y0130224D02*
X0067926Y0130224D01*
X0067926Y0130822D02*
X0067326Y0130822D01*
X0067326Y0131421D02*
X0067926Y0131421D01*
X0070698Y0128428D02*
X0071426Y0128428D01*
X0071426Y0127830D02*
X0070698Y0127830D01*
X0070557Y0127231D02*
X0071426Y0127231D01*
X0071426Y0126633D02*
X0069936Y0126633D01*
X0070381Y0126034D02*
X0071472Y0126034D01*
X0072668Y0122511D02*
X0073652Y0122511D01*
X0073652Y0122142D01*
X0073652Y0121774D01*
X0073405Y0121774D01*
X0072668Y0122511D01*
X0072736Y0122443D02*
X0073652Y0122443D01*
X0073652Y0122142D02*
X0075740Y0122142D01*
X0075740Y0122142D01*
X0077827Y0122142D01*
X0077827Y0121842D01*
X0082526Y0121842D01*
X0082526Y0122442D01*
X0077827Y0122442D01*
X0077827Y0122142D01*
X0075740Y0122142D01*
X0073652Y0122142D01*
X0073652Y0121844D02*
X0073334Y0121844D01*
X0071022Y0119631D02*
X0072079Y0118574D01*
X0073852Y0118574D01*
X0073852Y0117286D01*
X0074526Y0116613D01*
X0076954Y0116613D01*
X0077627Y0117286D01*
X0077627Y0118235D01*
X0077705Y0117945D01*
X0077928Y0117559D01*
X0078243Y0117244D01*
X0078417Y0117143D01*
X0078269Y0117143D01*
X0077926Y0117051D01*
X0077618Y0116873D01*
X0077367Y0116622D01*
X0077189Y0116315D01*
X0077097Y0115971D01*
X0077097Y0115056D01*
X0078889Y0115056D01*
X0078889Y0115055D01*
X0078890Y0115055D01*
X0078890Y0112968D01*
X0079258Y0112968D01*
X0079258Y0112636D01*
X0079164Y0112542D01*
X0078339Y0112542D01*
X0077755Y0113126D01*
X0076804Y0113520D01*
X0075774Y0113520D01*
X0074822Y0113126D01*
X0074094Y0112398D01*
X0073700Y0111446D01*
X0073700Y0111132D01*
X0072026Y0112805D01*
X0072026Y0116205D01*
X0069826Y0118405D01*
X0068889Y0119342D01*
X0068163Y0119342D01*
X0068163Y0119631D01*
X0071022Y0119631D01*
X0071203Y0119450D02*
X0068163Y0119450D01*
X0069379Y0118852D02*
X0071801Y0118852D01*
X0070577Y0117655D02*
X0073852Y0117655D01*
X0073852Y0118253D02*
X0069978Y0118253D01*
X0071175Y0117056D02*
X0074082Y0117056D01*
X0072026Y0115859D02*
X0077097Y0115859D01*
X0077097Y0115261D02*
X0072026Y0115261D01*
X0072026Y0114662D02*
X0077097Y0114662D01*
X0077097Y0115055D02*
X0077097Y0114140D01*
X0077189Y0113797D01*
X0077367Y0113489D01*
X0077618Y0113238D01*
X0077926Y0113060D01*
X0078269Y0112968D01*
X0078889Y0112968D01*
X0078889Y0115055D01*
X0077097Y0115055D01*
X0077118Y0114064D02*
X0072026Y0114064D01*
X0072026Y0113465D02*
X0075641Y0113465D01*
X0074563Y0112867D02*
X0072026Y0112867D01*
X0072563Y0112268D02*
X0074040Y0112268D01*
X0073792Y0111670D02*
X0073162Y0111670D01*
X0071774Y0116458D02*
X0077272Y0116458D01*
X0077397Y0117056D02*
X0077946Y0117056D01*
X0077872Y0117655D02*
X0077627Y0117655D01*
X0078889Y0114662D02*
X0078890Y0114662D01*
X0078889Y0114064D02*
X0078890Y0114064D01*
X0078889Y0113465D02*
X0078890Y0113465D01*
X0079258Y0112867D02*
X0078014Y0112867D01*
X0077391Y0113465D02*
X0076936Y0113465D01*
X0077827Y0121844D02*
X0082526Y0121844D01*
X0082526Y0122442D02*
X0082526Y0127341D01*
X0083126Y0127341D01*
X0083126Y0122442D01*
X0082526Y0122442D01*
X0082526Y0122443D02*
X0083126Y0122443D01*
X0083127Y0122442D02*
X0087826Y0122442D01*
X0087826Y0122142D01*
X0087826Y0121842D01*
X0083127Y0121842D01*
X0083127Y0122442D01*
X0083127Y0121844D02*
X0087826Y0121844D01*
X0087826Y0122142D02*
X0089913Y0122142D01*
X0089913Y0122142D01*
X0087826Y0122142D01*
X0089913Y0122142D02*
X0092000Y0122142D01*
X0089913Y0122142D01*
X0089913Y0122142D01*
X0092000Y0122142D02*
X0092000Y0121522D01*
X0091909Y0121178D01*
X0091800Y0120991D01*
X0091800Y0119805D01*
X0093226Y0119805D01*
X0093426Y0119605D01*
X0093426Y0129379D01*
X0091964Y0130842D01*
X0087956Y0130842D01*
X0088356Y0130443D01*
X0088356Y0128015D01*
X0087682Y0127341D01*
X0086734Y0127341D01*
X0087024Y0127264D01*
X0087410Y0127041D01*
X0087725Y0126725D01*
X0087948Y0126339D01*
X0088026Y0126049D01*
X0088026Y0126998D01*
X0088699Y0127671D01*
X0091127Y0127671D01*
X0091800Y0126998D01*
X0091800Y0125160D01*
X0091735Y0125095D01*
X0091800Y0125030D01*
X0091800Y0123293D01*
X0091909Y0123106D01*
X0092000Y0122763D01*
X0092000Y0122142D01*
X0092000Y0121844D02*
X0093426Y0121844D01*
X0093426Y0121246D02*
X0091927Y0121246D01*
X0091800Y0120647D02*
X0093426Y0120647D01*
X0093426Y0120049D02*
X0091800Y0120049D01*
X0092000Y0122443D02*
X0093426Y0122443D01*
X0093426Y0123041D02*
X0091926Y0123041D01*
X0091800Y0123640D02*
X0093426Y0123640D01*
X0093426Y0124238D02*
X0091800Y0124238D01*
X0091800Y0124837D02*
X0093426Y0124837D01*
X0093426Y0125435D02*
X0091800Y0125435D01*
X0091800Y0126034D02*
X0093426Y0126034D01*
X0093426Y0126633D02*
X0091800Y0126633D01*
X0091568Y0127231D02*
X0093426Y0127231D01*
X0093426Y0127830D02*
X0088171Y0127830D01*
X0088259Y0127231D02*
X0087080Y0127231D01*
X0087779Y0126633D02*
X0088026Y0126633D01*
X0088356Y0128428D02*
X0093426Y0128428D01*
X0093426Y0129027D02*
X0088356Y0129027D01*
X0088356Y0129625D02*
X0093181Y0129625D01*
X0092582Y0130224D02*
X0088356Y0130224D01*
X0087976Y0130822D02*
X0091984Y0130822D01*
X0094115Y0133216D02*
X0098076Y0133216D01*
X0098026Y0132618D02*
X0094714Y0132618D01*
X0095312Y0132019D02*
X0098026Y0132019D01*
X0098026Y0131421D02*
X0095911Y0131421D01*
X0096509Y0130822D02*
X0098178Y0130822D01*
X0098426Y0130224D02*
X0096626Y0130224D01*
X0096626Y0129625D02*
X0098674Y0129625D01*
X0099154Y0129027D02*
X0096626Y0129027D01*
X0096626Y0128428D02*
X0099752Y0128428D01*
X0100695Y0127830D02*
X0096626Y0127830D01*
X0096626Y0127231D02*
X0106276Y0127231D01*
X0106276Y0126633D02*
X0104529Y0126633D01*
X0104958Y0127830D02*
X0106276Y0127830D01*
X0106276Y0128428D02*
X0105901Y0128428D01*
X0105723Y0126034D02*
X0106276Y0126034D01*
X0101124Y0126633D02*
X0096626Y0126633D01*
X0096626Y0126034D02*
X0099930Y0126034D01*
X0099332Y0125435D02*
X0096626Y0125435D01*
X0096626Y0124837D02*
X0098747Y0124837D01*
X0098499Y0124238D02*
X0096626Y0124238D01*
X0096626Y0123640D02*
X0098251Y0123640D01*
X0098026Y0123041D02*
X0096626Y0123041D01*
X0096626Y0122443D02*
X0098026Y0122443D01*
X0098026Y0121844D02*
X0096626Y0121844D01*
X0096626Y0121246D02*
X0098026Y0121246D01*
X0098250Y0120647D02*
X0096626Y0120647D01*
X0096626Y0120049D02*
X0098470Y0120049D01*
X0097872Y0119450D02*
X0096626Y0119450D01*
X0096626Y0118852D02*
X0097273Y0118852D01*
X0096675Y0118253D02*
X0096626Y0118253D01*
X0098324Y0133815D02*
X0093517Y0133815D01*
X0093951Y0138603D02*
X0099578Y0138603D01*
X0098979Y0139201D02*
X0094098Y0139201D01*
X0094098Y0139800D02*
X0098601Y0139800D01*
X0098353Y0140398D02*
X0094098Y0140398D01*
X0094098Y0140997D02*
X0098105Y0140997D01*
X0098026Y0141595D02*
X0094098Y0141595D01*
X0094098Y0142194D02*
X0098026Y0142194D01*
X0098026Y0142792D02*
X0093722Y0142792D01*
X0093621Y0143391D02*
X0098148Y0143391D01*
X0098396Y0143989D02*
X0094098Y0143989D01*
X0094098Y0144588D02*
X0098644Y0144588D01*
X0099082Y0145186D02*
X0094098Y0145186D01*
X0094098Y0145785D02*
X0099681Y0145785D01*
X0100523Y0146383D02*
X0094098Y0146383D01*
X0094098Y0146982D02*
X0106276Y0146982D01*
X0106276Y0147580D02*
X0104356Y0147580D01*
X0105130Y0146383D02*
X0106276Y0146383D01*
X0106276Y0145785D02*
X0105972Y0145785D01*
X0106276Y0148179D02*
X0105651Y0148179D01*
X0106250Y0148777D02*
X0106276Y0148777D01*
X0101296Y0147580D02*
X0094052Y0147580D01*
X0093454Y0148179D02*
X0091011Y0148179D01*
X0090921Y0148270D01*
X0091041Y0148270D01*
X0091993Y0148664D01*
X0092705Y0149376D02*
X0098804Y0149376D01*
X0098529Y0149974D02*
X0092962Y0149974D01*
X0093115Y0150573D02*
X0098281Y0150573D01*
X0098033Y0151171D02*
X0093115Y0151171D01*
X0092951Y0151770D02*
X0098026Y0151770D01*
X0098026Y0152369D02*
X0092678Y0152369D01*
X0092080Y0152967D02*
X0098026Y0152967D01*
X0098221Y0153566D02*
X0085405Y0153566D01*
X0085919Y0154164D02*
X0098468Y0154164D01*
X0098716Y0154763D02*
X0086201Y0154763D01*
X0086335Y0155361D02*
X0099257Y0155361D01*
X0099856Y0155960D02*
X0086351Y0155960D01*
X0086253Y0156558D02*
X0100944Y0156558D01*
X0101824Y0158952D02*
X0106276Y0158952D01*
X0106276Y0158354D02*
X0085056Y0158354D01*
X0085658Y0157755D02*
X0106276Y0157755D01*
X0106276Y0157157D02*
X0086034Y0157157D01*
X0084453Y0152967D02*
X0088973Y0152967D01*
X0088375Y0152369D02*
X0080063Y0152369D01*
X0079832Y0152967D02*
X0080885Y0152967D01*
X0079932Y0153566D02*
X0079832Y0153566D01*
X0080661Y0151770D02*
X0088102Y0151770D01*
X0088282Y0146383D02*
X0086048Y0146383D01*
X0086646Y0145785D02*
X0088355Y0145785D01*
X0088355Y0145186D02*
X0086926Y0145186D01*
X0087945Y0144588D02*
X0088355Y0144588D01*
X0088355Y0143989D02*
X0088198Y0143989D01*
X0088198Y0143391D02*
X0088832Y0143391D01*
X0088730Y0142792D02*
X0088198Y0142792D01*
X0088198Y0142194D02*
X0088355Y0142194D01*
X0088355Y0141595D02*
X0088198Y0141595D01*
X0089326Y0139942D02*
X0082352Y0139942D01*
X0082455Y0143989D02*
X0069127Y0143989D01*
X0067815Y0148777D02*
X0073089Y0148777D01*
X0072491Y0149376D02*
X0067815Y0149376D01*
X0067601Y0149974D02*
X0071892Y0149974D01*
X0071294Y0150573D02*
X0067257Y0150573D01*
X0066610Y0151171D02*
X0071198Y0151171D01*
X0071198Y0151770D02*
X0051122Y0151770D01*
X0051720Y0151171D02*
X0063843Y0151171D01*
X0063196Y0150573D02*
X0052319Y0150573D01*
X0052325Y0149974D02*
X0062852Y0149974D01*
X0062637Y0149376D02*
X0052325Y0149376D01*
X0052325Y0148777D02*
X0062275Y0148777D01*
X0061676Y0148179D02*
X0052325Y0148179D01*
X0052325Y0147580D02*
X0061078Y0147580D01*
X0060479Y0146982D02*
X0052325Y0146982D01*
X0052571Y0146383D02*
X0053701Y0146383D01*
X0053616Y0145785D02*
X0053170Y0145785D01*
X0050190Y0143391D02*
X0047505Y0143391D01*
X0047626Y0142792D02*
X0050789Y0142792D01*
X0051387Y0142194D02*
X0047626Y0142194D01*
X0047626Y0141595D02*
X0051986Y0141595D01*
X0053616Y0140997D02*
X0047548Y0140997D01*
X0048666Y0139201D02*
X0061124Y0139201D01*
X0060996Y0135012D02*
X0060292Y0135012D01*
X0064129Y0139201D02*
X0064774Y0139201D01*
X0065884Y0152369D02*
X0050523Y0152369D01*
X0049925Y0152967D02*
X0061200Y0152967D01*
X0060247Y0153566D02*
X0049326Y0153566D01*
X0047184Y0154164D02*
X0059734Y0154164D01*
X0059452Y0154763D02*
X0046937Y0154763D01*
X0046396Y0155361D02*
X0059318Y0155361D01*
X0059302Y0155960D02*
X0045797Y0155960D01*
X0044708Y0156558D02*
X0059400Y0156558D01*
X0059619Y0157157D02*
X0039376Y0157157D01*
X0039376Y0157755D02*
X0059995Y0157755D01*
X0060597Y0158354D02*
X0039376Y0158354D01*
X0039376Y0158952D02*
X0043829Y0158952D01*
X0042384Y0159551D02*
X0039376Y0159551D01*
X0039376Y0160149D02*
X0041575Y0160149D01*
X0040976Y0160748D02*
X0039376Y0160748D01*
X0039376Y0161346D02*
X0040381Y0161346D01*
X0040133Y0161945D02*
X0039376Y0161945D01*
X0039376Y0162543D02*
X0039886Y0162543D01*
X0039638Y0163142D02*
X0039376Y0163142D01*
X0039376Y0163740D02*
X0039496Y0163740D01*
X0039496Y0164339D02*
X0039392Y0164339D01*
X0039439Y0164937D02*
X0039496Y0164937D01*
X0039376Y0156558D02*
X0040944Y0156558D01*
X0039856Y0155960D02*
X0039376Y0155960D01*
X0039376Y0148777D02*
X0039403Y0148777D01*
X0039376Y0148179D02*
X0040001Y0148179D01*
X0039376Y0147580D02*
X0041296Y0147580D01*
X0040523Y0146383D02*
X0039376Y0146383D01*
X0039376Y0145785D02*
X0039681Y0145785D01*
X0039376Y0146982D02*
X0048525Y0146982D01*
X0048525Y0147580D02*
X0044356Y0147580D01*
X0045130Y0146383D02*
X0048525Y0146383D01*
X0048525Y0145785D02*
X0045972Y0145785D01*
X0046570Y0145186D02*
X0048525Y0145186D01*
X0048993Y0144588D02*
X0047009Y0144588D01*
X0047257Y0143989D02*
X0049591Y0143989D01*
X0048525Y0148179D02*
X0045651Y0148179D01*
X0046250Y0148777D02*
X0048525Y0148777D01*
X0048142Y0149376D02*
X0046848Y0149376D01*
X0047124Y0149974D02*
X0047543Y0149974D01*
X0046824Y0158952D02*
X0065700Y0158952D01*
X0065621Y0158354D02*
X0065371Y0158354D01*
X0066167Y0159551D02*
X0048269Y0159551D01*
X0049078Y0160149D02*
X0096575Y0160149D01*
X0095976Y0160748D02*
X0049677Y0160748D01*
X0050272Y0161346D02*
X0095381Y0161346D01*
X0095133Y0161945D02*
X0050519Y0161945D01*
X0050767Y0162543D02*
X0057587Y0162543D01*
X0056724Y0163142D02*
X0051015Y0163142D01*
X0051156Y0163740D02*
X0056277Y0163740D01*
X0055989Y0164339D02*
X0051156Y0164339D01*
X0051156Y0164937D02*
X0055858Y0164937D01*
X0055854Y0165536D02*
X0051156Y0165536D01*
X0051019Y0166134D02*
X0055880Y0166134D01*
X0055880Y0166733D02*
X0050771Y0166733D01*
X0050523Y0167331D02*
X0055849Y0167331D01*
X0055841Y0167930D02*
X0050275Y0167930D01*
X0049685Y0168528D02*
X0055984Y0168528D01*
X0056260Y0169127D02*
X0049087Y0169127D01*
X0048289Y0169725D02*
X0056695Y0169725D01*
X0057452Y0170324D02*
X0046844Y0170324D01*
X0064603Y0162543D02*
X0065244Y0162543D01*
X0067615Y0159551D02*
X0067802Y0159551D01*
X0067802Y0158952D02*
X0067615Y0158952D01*
X0067615Y0158354D02*
X0067802Y0158354D01*
X0067802Y0157755D02*
X0067615Y0157755D01*
X0067615Y0157157D02*
X0067802Y0157157D01*
X0067802Y0156558D02*
X0067615Y0156558D01*
X0067615Y0155960D02*
X0067802Y0155960D01*
X0067802Y0155361D02*
X0067615Y0155361D01*
X0067615Y0154763D02*
X0067802Y0154763D01*
X0067802Y0154164D02*
X0067615Y0154164D01*
X0067615Y0153566D02*
X0067802Y0153566D01*
X0067802Y0152967D02*
X0067615Y0152967D01*
X0067615Y0152369D02*
X0067802Y0152369D01*
X0065629Y0152967D02*
X0064768Y0152967D01*
X0071544Y0159551D02*
X0071549Y0159551D01*
X0074104Y0159551D02*
X0074108Y0159551D01*
X0076663Y0159551D02*
X0076668Y0159551D01*
X0079222Y0159551D02*
X0097384Y0159551D01*
X0098829Y0158952D02*
X0079820Y0158952D01*
X0079832Y0158354D02*
X0080282Y0158354D01*
X0080409Y0162543D02*
X0081049Y0162543D01*
X0088066Y0162543D02*
X0094886Y0162543D01*
X0094638Y0163142D02*
X0088929Y0163142D01*
X0089376Y0163740D02*
X0094496Y0163740D01*
X0094496Y0164339D02*
X0089664Y0164339D01*
X0089795Y0164937D02*
X0094496Y0164937D01*
X0094496Y0165536D02*
X0089799Y0165536D01*
X0089773Y0166134D02*
X0094634Y0166134D01*
X0094882Y0166733D02*
X0089773Y0166733D01*
X0089804Y0167331D02*
X0095130Y0167331D01*
X0095378Y0167930D02*
X0089812Y0167930D01*
X0089669Y0168528D02*
X0095968Y0168528D01*
X0096566Y0169127D02*
X0089393Y0169127D01*
X0088958Y0169725D02*
X0097364Y0169725D01*
X0098809Y0170324D02*
X0088201Y0170324D01*
X0073118Y0162543D02*
X0072535Y0162543D01*
X0088198Y0138004D02*
X0100273Y0138004D01*
X0101718Y0137406D02*
X0088198Y0137406D01*
X0088198Y0136807D02*
X0101546Y0136807D01*
X0100105Y0136209D02*
X0088198Y0136209D01*
X0088198Y0135610D02*
X0099506Y0135610D01*
X0098908Y0135012D02*
X0087660Y0135012D01*
X0086926Y0134413D02*
X0098572Y0134413D01*
X0104107Y0136807D02*
X0106276Y0136807D01*
X0106276Y0136209D02*
X0105548Y0136209D01*
X0106147Y0135610D02*
X0106276Y0135610D01*
X0106276Y0137406D02*
X0103935Y0137406D01*
X0105380Y0138004D02*
X0106276Y0138004D01*
X0106276Y0138603D02*
X0106075Y0138603D01*
X0106276Y0155960D02*
X0105797Y0155960D01*
X0106276Y0156558D02*
X0104708Y0156558D01*
X0103269Y0159551D02*
X0106276Y0159551D01*
X0106276Y0160149D02*
X0104078Y0160149D01*
X0104677Y0160748D02*
X0106276Y0160748D01*
X0106276Y0161346D02*
X0105272Y0161346D01*
X0105519Y0161945D02*
X0106276Y0161945D01*
X0106276Y0162543D02*
X0105767Y0162543D01*
X0106015Y0163142D02*
X0106276Y0163142D01*
X0106276Y0163740D02*
X0106156Y0163740D01*
X0106156Y0164339D02*
X0106261Y0164339D01*
X0106214Y0164937D02*
X0106156Y0164937D01*
X0083126Y0127231D02*
X0082526Y0127231D01*
X0082526Y0126633D02*
X0083126Y0126633D01*
X0083126Y0126034D02*
X0082526Y0126034D01*
X0082526Y0125435D02*
X0083126Y0125435D01*
X0083126Y0124837D02*
X0082526Y0124837D01*
X0082526Y0124238D02*
X0083126Y0124238D01*
X0083126Y0123640D02*
X0082526Y0123640D01*
X0082526Y0123041D02*
X0083126Y0123041D01*
X0075740Y0122142D02*
X0075740Y0122142D01*
X0066051Y0105685D02*
X0057567Y0105685D01*
X0057260Y0105086D02*
X0066051Y0105086D01*
X0066051Y0104488D02*
X0063454Y0104488D01*
X0063651Y0104291D02*
X0063007Y0104935D01*
X0060127Y0104935D01*
X0059482Y0104291D01*
X0059482Y0099442D01*
X0060127Y0098798D01*
X0063007Y0098798D01*
X0063651Y0099442D01*
X0063651Y0104291D01*
X0063651Y0103889D02*
X0066051Y0103889D01*
X0066215Y0103291D02*
X0063651Y0103291D01*
X0063651Y0102692D02*
X0066626Y0102692D01*
X0066626Y0102094D02*
X0063651Y0102094D01*
X0063651Y0101495D02*
X0066626Y0101495D01*
X0066626Y0100897D02*
X0063651Y0100897D01*
X0063651Y0100298D02*
X0066626Y0100298D01*
X0066626Y0099700D02*
X0063651Y0099700D01*
X0063309Y0099101D02*
X0066626Y0099101D01*
X0066626Y0096108D02*
X0045648Y0096108D01*
X0046247Y0095510D02*
X0056188Y0095510D01*
X0057634Y0095510D02*
X0058019Y0095510D01*
X0058019Y0094911D02*
X0057634Y0094911D01*
X0057634Y0094313D02*
X0058019Y0094313D01*
X0058019Y0093714D02*
X0057634Y0093714D01*
X0057634Y0093116D02*
X0058019Y0093116D01*
X0059464Y0095510D02*
X0066626Y0095510D01*
X0066626Y0094911D02*
X0063581Y0094911D01*
X0063651Y0094313D02*
X0066626Y0094313D01*
X0066626Y0093714D02*
X0063651Y0093714D01*
X0063651Y0093116D02*
X0066537Y0093116D01*
X0065939Y0092517D02*
X0063651Y0092517D01*
X0063651Y0091919D02*
X0065340Y0091919D01*
X0064742Y0091320D02*
X0063651Y0091320D01*
X0063651Y0090722D02*
X0064143Y0090722D01*
X0059824Y0099101D02*
X0055829Y0099101D01*
X0056171Y0099700D02*
X0059482Y0099700D01*
X0059482Y0100298D02*
X0056171Y0100298D01*
X0056171Y0100897D02*
X0059482Y0100897D01*
X0059482Y0101495D02*
X0056171Y0101495D01*
X0056171Y0102094D02*
X0059482Y0102094D01*
X0059482Y0102692D02*
X0056171Y0102692D01*
X0056171Y0103291D02*
X0059482Y0103291D01*
X0059482Y0103889D02*
X0056171Y0103889D01*
X0056659Y0104488D02*
X0059679Y0104488D01*
X0059514Y0106283D02*
X0059095Y0106283D01*
X0062867Y0106283D02*
X0063467Y0106283D01*
X0063467Y0106882D02*
X0062867Y0106882D01*
X0062867Y0107480D02*
X0063467Y0107480D01*
X0063467Y0108079D02*
X0062867Y0108079D01*
X0062867Y0108677D02*
X0063467Y0108677D01*
X0063467Y0109276D02*
X0062867Y0109276D01*
X0061102Y0126034D02*
X0058702Y0126034D01*
X0039853Y0088328D02*
X0039376Y0088328D01*
X0039376Y0087729D02*
X0040937Y0087729D01*
X0040882Y0086532D02*
X0039376Y0086532D01*
X0039376Y0085934D02*
X0039830Y0085934D01*
X0039376Y0087131D02*
X0045151Y0087131D01*
X0049972Y0075759D02*
X0050574Y0075759D01*
X0050571Y0075161D02*
X0050574Y0075161D01*
X0048439Y0072766D02*
X0047626Y0072766D01*
X0047626Y0073097D02*
X0047285Y0073921D01*
X0047564Y0073642D01*
X0054113Y0067093D01*
X0053889Y0066869D01*
X0053889Y0062415D01*
X0054534Y0061771D01*
X0054767Y0061771D01*
X0054767Y0060738D01*
X0057126Y0058379D01*
X0057126Y0052671D01*
X0059121Y0050677D01*
X0059014Y0050615D01*
X0058838Y0050439D01*
X0060871Y0048406D01*
X0060871Y0048406D01*
X0058838Y0050439D01*
X0058662Y0050263D01*
X0058413Y0049832D01*
X0058298Y0049400D01*
X0058083Y0049400D01*
X0057327Y0048645D01*
X0055773Y0050198D01*
X0055773Y0051879D01*
X0055815Y0052486D01*
X0055773Y0052533D01*
X0055773Y0052597D01*
X0055343Y0053027D01*
X0055246Y0053139D01*
X0054897Y0053539D01*
X0049826Y0059357D01*
X0049826Y0067405D01*
X0048889Y0068342D01*
X0047163Y0070068D01*
X0047626Y0071187D01*
X0047626Y0073097D01*
X0047515Y0073365D02*
X0047841Y0073365D01*
X0047564Y0073642D02*
X0047564Y0073642D01*
X0047626Y0072168D02*
X0049038Y0072168D01*
X0049636Y0071569D02*
X0047626Y0071569D01*
X0047537Y0070971D02*
X0050235Y0070971D01*
X0050833Y0070372D02*
X0047289Y0070372D01*
X0047457Y0069774D02*
X0051432Y0069774D01*
X0052030Y0069175D02*
X0048056Y0069175D01*
X0048654Y0068577D02*
X0052629Y0068577D01*
X0053227Y0067978D02*
X0049253Y0067978D01*
X0049826Y0067380D02*
X0053826Y0067380D01*
X0053889Y0066781D02*
X0049826Y0066781D01*
X0049826Y0066183D02*
X0053889Y0066183D01*
X0053889Y0065584D02*
X0049826Y0065584D01*
X0049826Y0064986D02*
X0053889Y0064986D01*
X0053889Y0064387D02*
X0049826Y0064387D01*
X0049826Y0063789D02*
X0053889Y0063789D01*
X0053889Y0063190D02*
X0049826Y0063190D01*
X0049826Y0062592D02*
X0053889Y0062592D01*
X0054311Y0061993D02*
X0049826Y0061993D01*
X0049826Y0061395D02*
X0054767Y0061395D01*
X0054767Y0060796D02*
X0049826Y0060796D01*
X0049826Y0060198D02*
X0055308Y0060198D01*
X0055907Y0059599D02*
X0049826Y0059599D01*
X0050137Y0059001D02*
X0056505Y0059001D01*
X0057104Y0058402D02*
X0050658Y0058402D01*
X0051180Y0057804D02*
X0057126Y0057804D01*
X0057126Y0057205D02*
X0051702Y0057205D01*
X0052223Y0056607D02*
X0057126Y0056607D01*
X0057126Y0056008D02*
X0052745Y0056008D01*
X0053266Y0055410D02*
X0057126Y0055410D01*
X0057126Y0054811D02*
X0053788Y0054811D01*
X0054310Y0054213D02*
X0057126Y0054213D01*
X0057126Y0053614D02*
X0054831Y0053614D01*
X0054897Y0053539D02*
X0054897Y0053539D01*
X0055354Y0053016D02*
X0057126Y0053016D01*
X0057381Y0052417D02*
X0055810Y0052417D01*
X0055773Y0051819D02*
X0057979Y0051819D01*
X0058578Y0051220D02*
X0055773Y0051220D01*
X0055773Y0050622D02*
X0059026Y0050622D01*
X0059254Y0050023D02*
X0059254Y0050023D01*
X0058524Y0050023D02*
X0055949Y0050023D01*
X0056547Y0049425D02*
X0058304Y0049425D01*
X0057508Y0048826D02*
X0057146Y0048826D01*
X0059852Y0049425D02*
X0059852Y0049425D01*
X0060451Y0048826D02*
X0060451Y0048826D01*
X0063444Y0047411D02*
X0063328Y0046980D01*
X0063305Y0046939D01*
X0068102Y0042142D01*
X0068526Y0041718D01*
X0063670Y0036862D01*
X0063659Y0036873D01*
X0063257Y0036873D01*
X0063257Y0037275D01*
X0063246Y0037286D01*
X0068102Y0042142D01*
X0068526Y0042566D01*
X0063670Y0047423D01*
X0063659Y0047411D01*
X0063444Y0047411D01*
X0063342Y0047031D02*
X0064062Y0047031D01*
X0063812Y0046432D02*
X0064661Y0046432D01*
X0064411Y0045833D02*
X0065259Y0045833D01*
X0065009Y0045235D02*
X0065858Y0045235D01*
X0065608Y0044636D02*
X0066456Y0044636D01*
X0066206Y0044038D02*
X0067055Y0044038D01*
X0066805Y0043439D02*
X0067653Y0043439D01*
X0067403Y0042841D02*
X0068252Y0042841D01*
X0068527Y0042566D02*
X0073383Y0047423D01*
X0073394Y0047411D01*
X0073796Y0047411D01*
X0073796Y0047010D01*
X0073807Y0046998D01*
X0068951Y0042142D01*
X0073748Y0037345D01*
X0073724Y0037304D01*
X0073609Y0036873D01*
X0073394Y0036873D01*
X0073383Y0036862D01*
X0068526Y0041718D01*
X0068951Y0042142D01*
X0068527Y0042566D01*
X0068801Y0042841D02*
X0069649Y0042841D01*
X0069400Y0043439D02*
X0070248Y0043439D01*
X0069998Y0044038D02*
X0070846Y0044038D01*
X0070597Y0044636D02*
X0071445Y0044636D01*
X0071195Y0045235D02*
X0072044Y0045235D01*
X0071794Y0045833D02*
X0072642Y0045833D01*
X0072392Y0046432D02*
X0073241Y0046432D01*
X0072991Y0047031D02*
X0073796Y0047031D01*
X0070047Y0041045D02*
X0069199Y0041045D01*
X0069449Y0041644D02*
X0068600Y0041644D01*
X0068452Y0041644D02*
X0067604Y0041644D01*
X0067854Y0041045D02*
X0067005Y0041045D01*
X0067255Y0040447D02*
X0066407Y0040447D01*
X0066657Y0039848D02*
X0065808Y0039848D01*
X0066058Y0039250D02*
X0065210Y0039250D01*
X0065460Y0038651D02*
X0064611Y0038651D01*
X0064861Y0038053D02*
X0064013Y0038053D01*
X0064263Y0037454D02*
X0063414Y0037454D01*
X0068002Y0042242D02*
X0068202Y0042242D01*
X0068851Y0042242D02*
X0069051Y0042242D01*
X0069797Y0040447D02*
X0070646Y0040447D01*
X0070396Y0039848D02*
X0071244Y0039848D01*
X0070995Y0039250D02*
X0071843Y0039250D01*
X0071593Y0038651D02*
X0072441Y0038651D01*
X0072192Y0038053D02*
X0073040Y0038053D01*
X0072790Y0037454D02*
X0073638Y0037454D01*
X0073398Y0033094D02*
X0075431Y0031062D01*
X0073398Y0033094D01*
X0073398Y0033094D01*
X0073826Y0032666D02*
X0073827Y0032666D01*
X0074425Y0032068D02*
X0074425Y0032068D01*
X0075023Y0031469D02*
X0075024Y0031469D01*
X0075229Y0030871D02*
X0076143Y0030871D01*
X0076317Y0030272D02*
X0075699Y0030272D01*
X0076298Y0029674D02*
X0076916Y0029674D01*
X0076896Y0029075D02*
X0077514Y0029075D01*
X0077495Y0028477D02*
X0078113Y0028477D01*
X0078093Y0027878D02*
X0078712Y0027878D01*
X0078692Y0027280D02*
X0079310Y0027280D01*
X0079290Y0026681D02*
X0079909Y0026681D01*
X0079426Y0026083D02*
X0080507Y0026083D01*
X0081106Y0025484D02*
X0079426Y0025484D01*
X0079426Y0024886D02*
X0081704Y0024886D01*
X0082303Y0024287D02*
X0079426Y0024287D01*
X0079426Y0023689D02*
X0082901Y0023689D01*
X0083500Y0023090D02*
X0079426Y0023090D01*
X0079426Y0022492D02*
X0084098Y0022492D01*
X0084697Y0021893D02*
X0079426Y0021893D01*
X0079426Y0021295D02*
X0085295Y0021295D01*
X0085894Y0020696D02*
X0079426Y0020696D01*
X0079993Y0020098D02*
X0086492Y0020098D01*
X0086846Y0019499D02*
X0080258Y0019499D01*
X0080415Y0018900D02*
X0086826Y0018900D01*
X0086826Y0018302D02*
X0080415Y0018302D01*
X0087078Y0024886D02*
X0090926Y0024886D01*
X0090387Y0024287D02*
X0087677Y0024287D01*
X0088275Y0023689D02*
X0090209Y0023689D01*
X0090320Y0023090D02*
X0088874Y0023090D01*
X0088817Y0027878D02*
X0088592Y0027878D01*
X0088218Y0028477D02*
X0087993Y0028477D01*
X0087620Y0029075D02*
X0087395Y0029075D01*
X0087021Y0029674D02*
X0086796Y0029674D01*
X0086557Y0030272D02*
X0086556Y0030272D01*
X0086423Y0030272D02*
X0086198Y0030272D01*
X0085824Y0030871D02*
X0085599Y0030871D01*
X0085226Y0031469D02*
X0085001Y0031469D01*
X0084627Y0032068D02*
X0084402Y0032068D01*
X0087155Y0030871D02*
X0087155Y0030871D01*
X0088498Y0030871D02*
X0088498Y0030871D01*
X0089096Y0030272D02*
X0089096Y0030272D01*
X0089695Y0029674D02*
X0089695Y0029674D01*
X0090293Y0029075D02*
X0090294Y0029075D01*
X0089002Y0033265D02*
X0088777Y0033265D01*
X0088404Y0033863D02*
X0088179Y0033863D01*
X0087805Y0034462D02*
X0087580Y0034462D01*
X0087207Y0035060D02*
X0086982Y0035060D01*
X0075174Y0060796D02*
X0074637Y0060796D01*
X0074389Y0061395D02*
X0075773Y0061395D01*
X0076026Y0061993D02*
X0074516Y0061993D01*
X0074761Y0062592D02*
X0076026Y0062592D01*
X0076026Y0063190D02*
X0074763Y0063190D01*
X0074763Y0063789D02*
X0076026Y0063789D01*
X0075539Y0064387D02*
X0072386Y0064387D01*
X0072385Y0064986D02*
X0071786Y0064986D01*
X0071786Y0065584D02*
X0072385Y0065584D01*
X0072385Y0066183D02*
X0071786Y0066183D01*
X0071786Y0066781D02*
X0072385Y0066781D01*
X0072385Y0067380D02*
X0071786Y0067380D01*
X0069954Y0067380D02*
X0068835Y0067380D01*
X0069433Y0066781D02*
X0069487Y0066781D01*
X0069926Y0070971D02*
X0070526Y0070971D01*
X0070526Y0071569D02*
X0069926Y0071569D01*
X0069926Y0072168D02*
X0070526Y0072168D01*
X0070526Y0072766D02*
X0069926Y0072766D01*
X0069926Y0073365D02*
X0070526Y0073365D01*
X0069926Y0073964D02*
X0064027Y0073964D01*
X0064026Y0073365D02*
X0063426Y0073365D01*
X0063426Y0072766D02*
X0064026Y0072766D01*
X0064026Y0072168D02*
X0063426Y0072168D01*
X0063426Y0071569D02*
X0064026Y0071569D01*
X0064026Y0070971D02*
X0063426Y0070971D01*
X0063426Y0073964D02*
X0059079Y0073964D01*
X0059079Y0074562D02*
X0060064Y0074562D01*
X0060064Y0075161D02*
X0059079Y0075161D01*
X0059079Y0075759D02*
X0060064Y0075759D01*
X0060064Y0076358D02*
X0055127Y0076358D01*
X0059079Y0076956D02*
X0059721Y0076956D01*
X0059122Y0077555D02*
X0059079Y0077555D01*
X0058997Y0073365D02*
X0060064Y0073365D01*
X0060064Y0072766D02*
X0058515Y0072766D01*
X0073552Y0070971D02*
X0073684Y0070971D01*
X0074217Y0067380D02*
X0075412Y0067380D01*
X0075164Y0066781D02*
X0074684Y0066781D01*
X0074763Y0066183D02*
X0075037Y0066183D01*
X0075037Y0065584D02*
X0074763Y0065584D01*
X0074763Y0064986D02*
X0075228Y0064986D01*
X0040999Y0017703D02*
X0039376Y0017703D01*
X0039376Y0018302D02*
X0039878Y0018302D01*
X0064652Y0006930D02*
X0065252Y0006930D01*
X0065252Y0006332D02*
X0064652Y0006332D01*
X0064652Y0005733D02*
X0065252Y0005733D01*
X0065252Y0005135D02*
X0064652Y0005135D01*
D30*
X0089544Y0019733D02*
X0078180Y0031096D01*
X0079626Y0032542D01*
X0090117Y0019733D02*
X0088726Y0018342D01*
X0088726Y0013601D01*
X0061926Y0059142D02*
X0066967Y0064183D01*
X0055993Y0085067D02*
X0055993Y0088542D01*
X0060526Y0088542D01*
X0061567Y0089582D01*
X0061567Y0092418D01*
X0055993Y0088542D02*
X0054290Y0088542D01*
X0054290Y0092214D01*
X0054290Y0088542D02*
X0046426Y0088542D01*
X0042826Y0092142D01*
X0054086Y0101867D02*
X0054086Y0104602D01*
X0055667Y0106183D01*
X0055686Y0109942D01*
X0050526Y0115083D01*
X0050526Y0122142D01*
X0052426Y0124042D01*
X0055469Y0124042D01*
X0056802Y0124042D01*
X0056802Y0131453D01*
X0057118Y0131768D01*
X0054426Y0137142D02*
X0049426Y0132142D01*
X0042826Y0132142D01*
X0042826Y0122142D02*
X0050526Y0122142D01*
X0056802Y0124042D02*
X0062771Y0124042D01*
X0067586Y0124042D01*
X0069245Y0135983D02*
X0068826Y0136402D01*
X0068186Y0137042D01*
X0062626Y0137042D01*
X0062926Y0137142D02*
X0054426Y0137142D01*
X0052886Y0143382D02*
X0050425Y0145843D01*
X0050425Y0149780D01*
X0048063Y0152142D01*
X0042826Y0152142D01*
X0052886Y0143382D02*
X0057118Y0143382D01*
X0059567Y0143382D01*
X0065126Y0148942D01*
X0065226Y0148942D01*
X0069245Y0135983D02*
X0076526Y0135983D01*
D31*
X0080826Y0143342D03*
X0090526Y0150859D03*
X0092645Y0157098D03*
X0083226Y0122542D03*
X0086626Y0111342D03*
X0087637Y0107342D03*
X0076289Y0110931D03*
X0070926Y0106842D03*
X0065226Y0094342D03*
X0071215Y0091942D03*
X0057826Y0070342D03*
X0061926Y0059142D03*
X0055026Y0057142D03*
X0067826Y0041142D03*
X0061836Y0027132D03*
X0060626Y0018342D03*
X0056126Y0018342D03*
X0053589Y0023617D03*
X0056033Y0007167D03*
X0066826Y0018642D03*
X0073626Y0018731D03*
X0077826Y0018603D03*
X0081826Y0021942D03*
X0079626Y0033542D03*
X0089226Y0044342D03*
X0081626Y0064148D03*
X0077626Y0065961D03*
X0072082Y0060198D03*
X0055026Y0097142D03*
X0048226Y0097142D03*
X0047626Y0107142D03*
X0056526Y0117842D03*
X0062771Y0124042D03*
X0062620Y0132330D03*
X0062626Y0137042D03*
X0065226Y0148942D03*
X0054395Y0156123D03*
X0047489Y0136886D03*
X0093226Y0006342D03*
M02*
