%
M48
M72
T01C0.0138
T02C0.0400
T03C0.0866
%
T01
X5359Y2277
X5613Y1750
X6063Y1750
X6683Y1780
X6184Y2629
X6783Y4030
X7963Y3270
X8183Y2110
X7783Y1776
X7363Y1789
X5603Y633
X8923Y4350
X8163Y6331
X7763Y6512
X7208Y5936
X6193Y5830
X5503Y5630
X5783Y6950
X7122Y9110
X6523Y9350
X7093Y10600
X7629Y11009
X8323Y12170
X8663Y11050
X8764Y10650
X8083Y14250
X9053Y15002
X9265Y15626
X6523Y14810
X6263Y13620
X6262Y13149
X6277Y12320
X5653Y11700
X4763Y10630
X4823Y9630
X5503Y9630
X4749Y13604
X5439Y15528
X9323Y550
T02
X4283Y2130
X4283Y3130
X4283Y4130
X4283Y5130
X4283Y6130
X4283Y7130
X4283Y8130
X4283Y9130
X4283Y10130
X4283Y11130
X4283Y12130
X4283Y13130
X4283Y14130
X4283Y15130
X10283Y15130
X10283Y14130
X10283Y13130
X10283Y12130
X10283Y11130
X10283Y10130
X10283Y9130
X10283Y8130
X10283Y7130
X10283Y6130
X10283Y5130
X10283Y4130
X10283Y3130
X10283Y2130
T03
X10033Y880
X4533Y880
X4533Y16380
X10033Y16380
M30
