G75*
%MOIN*%
%OFA0B0*%
%FSLAX25Y25*%
%IPPOS*%
%LPD*%
%AMOC8*
5,1,8,0,0,1.08239X$1,22.5*
%
%ADD10C,0.09460*%
%ADD11R,0.04343X0.03556*%
%ADD12R,0.06706X0.05918*%
%ADD13R,0.05918X0.06706*%
%ADD14R,0.03556X0.04343*%
%ADD15C,0.08200*%
%ADD16R,0.05524X0.05524*%
%ADD17R,0.04737X0.04737*%
%ADD18C,0.00178*%
%ADD19C,0.00867*%
%ADD20R,0.02769X0.04737*%
%ADD21C,0.01981*%
%ADD22R,0.13005X0.13005*%
%ADD23R,0.01981X0.07099*%
%ADD24C,0.00900*%
%ADD25R,0.02375X0.06115*%
%ADD26R,0.06706X0.06902*%
%ADD27C,0.00787*%
%ADD28R,0.05603X0.05721*%
D10*
X0045326Y0009642D03*
X0100326Y0009642D03*
X0100326Y0164642D03*
X0045326Y0164642D03*
D11*
X0067626Y0129201D03*
X0067626Y0124083D03*
X0076526Y0135983D03*
X0076526Y0141101D03*
X0085326Y0142501D03*
X0085326Y0137383D03*
X0091226Y0140583D03*
X0091226Y0145701D03*
X0088726Y0013601D03*
X0088726Y0008483D03*
D12*
X0054826Y0076402D03*
X0054826Y0083882D03*
X0068826Y0136402D03*
X0068826Y0143882D03*
D13*
X0063167Y0109942D03*
X0055686Y0109942D03*
D14*
X0060567Y0117842D03*
X0065686Y0117842D03*
X0066967Y0064542D03*
X0072086Y0064542D03*
X0061486Y0064642D03*
X0056367Y0064642D03*
X0057767Y0022942D03*
X0062886Y0022942D03*
G36*
X0087325Y0020010D02*
X0089840Y0022525D01*
X0092909Y0019456D01*
X0090394Y0016941D01*
X0087325Y0020010D01*
G37*
G36*
X0090944Y0023629D02*
X0093459Y0026144D01*
X0096528Y0023075D01*
X0094013Y0020560D01*
X0090944Y0023629D01*
G37*
D15*
X0042826Y0022142D03*
X0042826Y0032142D03*
X0042826Y0042142D03*
X0042826Y0052142D03*
X0042826Y0062142D03*
X0042826Y0072142D03*
X0042826Y0082142D03*
X0042826Y0092142D03*
X0042826Y0102142D03*
X0042826Y0112142D03*
X0042826Y0122142D03*
X0042826Y0132142D03*
X0042826Y0142142D03*
X0042826Y0152142D03*
X0102826Y0152142D03*
X0102826Y0142142D03*
X0102826Y0132142D03*
X0102826Y0122142D03*
X0102826Y0112142D03*
X0102826Y0102142D03*
X0102826Y0092142D03*
X0102826Y0082142D03*
X0102826Y0072142D03*
X0102826Y0062142D03*
X0102826Y0052142D03*
X0102826Y0042142D03*
X0102826Y0032142D03*
X0102826Y0022142D03*
D16*
X0083226Y0074208D03*
X0083226Y0082476D03*
X0076726Y0082476D03*
X0070226Y0082476D03*
X0070226Y0074208D03*
X0076726Y0074208D03*
X0063726Y0074208D03*
X0063726Y0082476D03*
D17*
X0064952Y0014292D03*
X0064952Y0007993D03*
X0080700Y0007993D03*
X0080700Y0014292D03*
D18*
X0080055Y0113958D02*
X0080055Y0116154D01*
X0081661Y0116154D01*
X0081661Y0113958D01*
X0080055Y0113958D01*
X0080055Y0114135D02*
X0081661Y0114135D01*
X0081661Y0114312D02*
X0080055Y0114312D01*
X0080055Y0114489D02*
X0081661Y0114489D01*
X0081661Y0114666D02*
X0080055Y0114666D01*
X0080055Y0114843D02*
X0081661Y0114843D01*
X0081661Y0115020D02*
X0080055Y0115020D01*
X0080055Y0115197D02*
X0081661Y0115197D01*
X0081661Y0115374D02*
X0080055Y0115374D01*
X0080055Y0115551D02*
X0081661Y0115551D01*
X0081661Y0115728D02*
X0080055Y0115728D01*
X0080055Y0115905D02*
X0081661Y0115905D01*
X0081661Y0116082D02*
X0080055Y0116082D01*
X0078086Y0116154D02*
X0078086Y0113958D01*
X0078086Y0116154D02*
X0079692Y0116154D01*
X0079692Y0113958D01*
X0078086Y0113958D01*
X0078086Y0114135D02*
X0079692Y0114135D01*
X0079692Y0114312D02*
X0078086Y0114312D01*
X0078086Y0114489D02*
X0079692Y0114489D01*
X0079692Y0114666D02*
X0078086Y0114666D01*
X0078086Y0114843D02*
X0079692Y0114843D01*
X0079692Y0115020D02*
X0078086Y0115020D01*
X0078086Y0115197D02*
X0079692Y0115197D01*
X0079692Y0115374D02*
X0078086Y0115374D01*
X0078086Y0115551D02*
X0079692Y0115551D01*
X0079692Y0115728D02*
X0078086Y0115728D01*
X0078086Y0115905D02*
X0079692Y0115905D01*
X0079692Y0116082D02*
X0078086Y0116082D01*
X0076838Y0119008D02*
X0074642Y0119008D01*
X0076838Y0119008D02*
X0076838Y0117402D01*
X0074642Y0117402D01*
X0074642Y0119008D01*
X0074642Y0117579D02*
X0076838Y0117579D01*
X0076838Y0117756D02*
X0074642Y0117756D01*
X0074642Y0117933D02*
X0076838Y0117933D01*
X0076838Y0118110D02*
X0074642Y0118110D01*
X0074642Y0118287D02*
X0076838Y0118287D01*
X0076838Y0118464D02*
X0074642Y0118464D01*
X0074642Y0118641D02*
X0076838Y0118641D01*
X0076838Y0118818D02*
X0074642Y0118818D01*
X0074642Y0118995D02*
X0076838Y0118995D01*
X0076838Y0120977D02*
X0074642Y0120977D01*
X0076838Y0120977D02*
X0076838Y0119371D01*
X0074642Y0119371D01*
X0074642Y0120977D01*
X0074642Y0119548D02*
X0076838Y0119548D01*
X0076838Y0119725D02*
X0074642Y0119725D01*
X0074642Y0119902D02*
X0076838Y0119902D01*
X0076838Y0120079D02*
X0074642Y0120079D01*
X0074642Y0120256D02*
X0076838Y0120256D01*
X0076838Y0120433D02*
X0074642Y0120433D01*
X0074642Y0120610D02*
X0076838Y0120610D01*
X0076838Y0120787D02*
X0074642Y0120787D01*
X0074642Y0120964D02*
X0076838Y0120964D01*
X0076838Y0122945D02*
X0074642Y0122945D01*
X0076838Y0122945D02*
X0076838Y0121339D01*
X0074642Y0121339D01*
X0074642Y0122945D01*
X0074642Y0121516D02*
X0076838Y0121516D01*
X0076838Y0121693D02*
X0074642Y0121693D01*
X0074642Y0121870D02*
X0076838Y0121870D01*
X0076838Y0122047D02*
X0074642Y0122047D01*
X0074642Y0122224D02*
X0076838Y0122224D01*
X0076838Y0122401D02*
X0074642Y0122401D01*
X0074642Y0122578D02*
X0076838Y0122578D01*
X0076838Y0122755D02*
X0074642Y0122755D01*
X0074642Y0122932D02*
X0076838Y0122932D01*
X0076838Y0124914D02*
X0074642Y0124914D01*
X0076838Y0124914D02*
X0076838Y0123308D01*
X0074642Y0123308D01*
X0074642Y0124914D01*
X0074642Y0123485D02*
X0076838Y0123485D01*
X0076838Y0123662D02*
X0074642Y0123662D01*
X0074642Y0123839D02*
X0076838Y0123839D01*
X0076838Y0124016D02*
X0074642Y0124016D01*
X0074642Y0124193D02*
X0076838Y0124193D01*
X0076838Y0124370D02*
X0074642Y0124370D01*
X0074642Y0124547D02*
X0076838Y0124547D01*
X0076838Y0124724D02*
X0074642Y0124724D01*
X0074642Y0124901D02*
X0076838Y0124901D01*
X0076838Y0126882D02*
X0074642Y0126882D01*
X0076838Y0126882D02*
X0076838Y0125276D01*
X0074642Y0125276D01*
X0074642Y0126882D01*
X0074642Y0125453D02*
X0076838Y0125453D01*
X0076838Y0125630D02*
X0074642Y0125630D01*
X0074642Y0125807D02*
X0076838Y0125807D01*
X0076838Y0125984D02*
X0074642Y0125984D01*
X0074642Y0126161D02*
X0076838Y0126161D01*
X0076838Y0126338D02*
X0074642Y0126338D01*
X0074642Y0126515D02*
X0076838Y0126515D01*
X0076838Y0126692D02*
X0074642Y0126692D01*
X0074642Y0126869D02*
X0076838Y0126869D01*
X0079692Y0128131D02*
X0079692Y0130327D01*
X0079692Y0128131D02*
X0078086Y0128131D01*
X0078086Y0130327D01*
X0079692Y0130327D01*
X0079692Y0128308D02*
X0078086Y0128308D01*
X0078086Y0128485D02*
X0079692Y0128485D01*
X0079692Y0128662D02*
X0078086Y0128662D01*
X0078086Y0128839D02*
X0079692Y0128839D01*
X0079692Y0129016D02*
X0078086Y0129016D01*
X0078086Y0129193D02*
X0079692Y0129193D01*
X0079692Y0129370D02*
X0078086Y0129370D01*
X0078086Y0129547D02*
X0079692Y0129547D01*
X0079692Y0129724D02*
X0078086Y0129724D01*
X0078086Y0129901D02*
X0079692Y0129901D01*
X0079692Y0130078D02*
X0078086Y0130078D01*
X0078086Y0130255D02*
X0079692Y0130255D01*
X0081661Y0130327D02*
X0081661Y0128131D01*
X0080055Y0128131D01*
X0080055Y0130327D01*
X0081661Y0130327D01*
X0081661Y0128308D02*
X0080055Y0128308D01*
X0080055Y0128485D02*
X0081661Y0128485D01*
X0081661Y0128662D02*
X0080055Y0128662D01*
X0080055Y0128839D02*
X0081661Y0128839D01*
X0081661Y0129016D02*
X0080055Y0129016D01*
X0080055Y0129193D02*
X0081661Y0129193D01*
X0081661Y0129370D02*
X0080055Y0129370D01*
X0080055Y0129547D02*
X0081661Y0129547D01*
X0081661Y0129724D02*
X0080055Y0129724D01*
X0080055Y0129901D02*
X0081661Y0129901D01*
X0081661Y0130078D02*
X0080055Y0130078D01*
X0080055Y0130255D02*
X0081661Y0130255D01*
X0083629Y0130327D02*
X0083629Y0128131D01*
X0082023Y0128131D01*
X0082023Y0130327D01*
X0083629Y0130327D01*
X0083629Y0128308D02*
X0082023Y0128308D01*
X0082023Y0128485D02*
X0083629Y0128485D01*
X0083629Y0128662D02*
X0082023Y0128662D01*
X0082023Y0128839D02*
X0083629Y0128839D01*
X0083629Y0129016D02*
X0082023Y0129016D01*
X0082023Y0129193D02*
X0083629Y0129193D01*
X0083629Y0129370D02*
X0082023Y0129370D01*
X0082023Y0129547D02*
X0083629Y0129547D01*
X0083629Y0129724D02*
X0082023Y0129724D01*
X0082023Y0129901D02*
X0083629Y0129901D01*
X0083629Y0130078D02*
X0082023Y0130078D01*
X0082023Y0130255D02*
X0083629Y0130255D01*
X0085598Y0130327D02*
X0085598Y0128131D01*
X0083992Y0128131D01*
X0083992Y0130327D01*
X0085598Y0130327D01*
X0085598Y0128308D02*
X0083992Y0128308D01*
X0083992Y0128485D02*
X0085598Y0128485D01*
X0085598Y0128662D02*
X0083992Y0128662D01*
X0083992Y0128839D02*
X0085598Y0128839D01*
X0085598Y0129016D02*
X0083992Y0129016D01*
X0083992Y0129193D02*
X0085598Y0129193D01*
X0085598Y0129370D02*
X0083992Y0129370D01*
X0083992Y0129547D02*
X0085598Y0129547D01*
X0085598Y0129724D02*
X0083992Y0129724D01*
X0083992Y0129901D02*
X0085598Y0129901D01*
X0085598Y0130078D02*
X0083992Y0130078D01*
X0083992Y0130255D02*
X0085598Y0130255D01*
X0087566Y0130327D02*
X0087566Y0128131D01*
X0085960Y0128131D01*
X0085960Y0130327D01*
X0087566Y0130327D01*
X0087566Y0128308D02*
X0085960Y0128308D01*
X0085960Y0128485D02*
X0087566Y0128485D01*
X0087566Y0128662D02*
X0085960Y0128662D01*
X0085960Y0128839D02*
X0087566Y0128839D01*
X0087566Y0129016D02*
X0085960Y0129016D01*
X0085960Y0129193D02*
X0087566Y0129193D01*
X0087566Y0129370D02*
X0085960Y0129370D01*
X0085960Y0129547D02*
X0087566Y0129547D01*
X0087566Y0129724D02*
X0085960Y0129724D01*
X0085960Y0129901D02*
X0087566Y0129901D01*
X0087566Y0130078D02*
X0085960Y0130078D01*
X0085960Y0130255D02*
X0087566Y0130255D01*
X0088815Y0125276D02*
X0091011Y0125276D01*
X0088815Y0125276D02*
X0088815Y0126882D01*
X0091011Y0126882D01*
X0091011Y0125276D01*
X0091011Y0125453D02*
X0088815Y0125453D01*
X0088815Y0125630D02*
X0091011Y0125630D01*
X0091011Y0125807D02*
X0088815Y0125807D01*
X0088815Y0125984D02*
X0091011Y0125984D01*
X0091011Y0126161D02*
X0088815Y0126161D01*
X0088815Y0126338D02*
X0091011Y0126338D01*
X0091011Y0126515D02*
X0088815Y0126515D01*
X0088815Y0126692D02*
X0091011Y0126692D01*
X0091011Y0126869D02*
X0088815Y0126869D01*
X0088815Y0123308D02*
X0091011Y0123308D01*
X0088815Y0123308D02*
X0088815Y0124914D01*
X0091011Y0124914D01*
X0091011Y0123308D01*
X0091011Y0123485D02*
X0088815Y0123485D01*
X0088815Y0123662D02*
X0091011Y0123662D01*
X0091011Y0123839D02*
X0088815Y0123839D01*
X0088815Y0124016D02*
X0091011Y0124016D01*
X0091011Y0124193D02*
X0088815Y0124193D01*
X0088815Y0124370D02*
X0091011Y0124370D01*
X0091011Y0124547D02*
X0088815Y0124547D01*
X0088815Y0124724D02*
X0091011Y0124724D01*
X0091011Y0124901D02*
X0088815Y0124901D01*
X0088815Y0121339D02*
X0091011Y0121339D01*
X0088815Y0121339D02*
X0088815Y0122945D01*
X0091011Y0122945D01*
X0091011Y0121339D01*
X0091011Y0121516D02*
X0088815Y0121516D01*
X0088815Y0121693D02*
X0091011Y0121693D01*
X0091011Y0121870D02*
X0088815Y0121870D01*
X0088815Y0122047D02*
X0091011Y0122047D01*
X0091011Y0122224D02*
X0088815Y0122224D01*
X0088815Y0122401D02*
X0091011Y0122401D01*
X0091011Y0122578D02*
X0088815Y0122578D01*
X0088815Y0122755D02*
X0091011Y0122755D01*
X0091011Y0122932D02*
X0088815Y0122932D01*
X0088815Y0119371D02*
X0091011Y0119371D01*
X0088815Y0119371D02*
X0088815Y0120977D01*
X0091011Y0120977D01*
X0091011Y0119371D01*
X0091011Y0119548D02*
X0088815Y0119548D01*
X0088815Y0119725D02*
X0091011Y0119725D01*
X0091011Y0119902D02*
X0088815Y0119902D01*
X0088815Y0120079D02*
X0091011Y0120079D01*
X0091011Y0120256D02*
X0088815Y0120256D01*
X0088815Y0120433D02*
X0091011Y0120433D01*
X0091011Y0120610D02*
X0088815Y0120610D01*
X0088815Y0120787D02*
X0091011Y0120787D01*
X0091011Y0120964D02*
X0088815Y0120964D01*
X0088815Y0117402D02*
X0091011Y0117402D01*
X0088815Y0117402D02*
X0088815Y0119008D01*
X0091011Y0119008D01*
X0091011Y0117402D01*
X0091011Y0117579D02*
X0088815Y0117579D01*
X0088815Y0117756D02*
X0091011Y0117756D01*
X0091011Y0117933D02*
X0088815Y0117933D01*
X0088815Y0118110D02*
X0091011Y0118110D01*
X0091011Y0118287D02*
X0088815Y0118287D01*
X0088815Y0118464D02*
X0091011Y0118464D01*
X0091011Y0118641D02*
X0088815Y0118641D01*
X0088815Y0118818D02*
X0091011Y0118818D01*
X0091011Y0118995D02*
X0088815Y0118995D01*
X0085960Y0116154D02*
X0085960Y0113958D01*
X0085960Y0116154D02*
X0087566Y0116154D01*
X0087566Y0113958D01*
X0085960Y0113958D01*
X0085960Y0114135D02*
X0087566Y0114135D01*
X0087566Y0114312D02*
X0085960Y0114312D01*
X0085960Y0114489D02*
X0087566Y0114489D01*
X0087566Y0114666D02*
X0085960Y0114666D01*
X0085960Y0114843D02*
X0087566Y0114843D01*
X0087566Y0115020D02*
X0085960Y0115020D01*
X0085960Y0115197D02*
X0087566Y0115197D01*
X0087566Y0115374D02*
X0085960Y0115374D01*
X0085960Y0115551D02*
X0087566Y0115551D01*
X0087566Y0115728D02*
X0085960Y0115728D01*
X0085960Y0115905D02*
X0087566Y0115905D01*
X0087566Y0116082D02*
X0085960Y0116082D01*
X0083992Y0116154D02*
X0083992Y0113958D01*
X0083992Y0116154D02*
X0085598Y0116154D01*
X0085598Y0113958D01*
X0083992Y0113958D01*
X0083992Y0114135D02*
X0085598Y0114135D01*
X0085598Y0114312D02*
X0083992Y0114312D01*
X0083992Y0114489D02*
X0085598Y0114489D01*
X0085598Y0114666D02*
X0083992Y0114666D01*
X0083992Y0114843D02*
X0085598Y0114843D01*
X0085598Y0115020D02*
X0083992Y0115020D01*
X0083992Y0115197D02*
X0085598Y0115197D01*
X0085598Y0115374D02*
X0083992Y0115374D01*
X0083992Y0115551D02*
X0085598Y0115551D01*
X0085598Y0115728D02*
X0083992Y0115728D01*
X0083992Y0115905D02*
X0085598Y0115905D01*
X0085598Y0116082D02*
X0083992Y0116082D01*
X0082023Y0116154D02*
X0082023Y0113958D01*
X0082023Y0116154D02*
X0083629Y0116154D01*
X0083629Y0113958D01*
X0082023Y0113958D01*
X0082023Y0114135D02*
X0083629Y0114135D01*
X0083629Y0114312D02*
X0082023Y0114312D01*
X0082023Y0114489D02*
X0083629Y0114489D01*
X0083629Y0114666D02*
X0082023Y0114666D01*
X0082023Y0114843D02*
X0083629Y0114843D01*
X0083629Y0115020D02*
X0082023Y0115020D01*
X0082023Y0115197D02*
X0083629Y0115197D01*
X0083629Y0115374D02*
X0082023Y0115374D01*
X0082023Y0115551D02*
X0083629Y0115551D01*
X0083629Y0115728D02*
X0082023Y0115728D01*
X0082023Y0115905D02*
X0083629Y0115905D01*
X0083629Y0116082D02*
X0082023Y0116082D01*
D19*
X0078922Y0118238D02*
X0078922Y0126046D01*
X0086730Y0126046D01*
X0086730Y0118238D01*
X0078922Y0118238D01*
X0078922Y0119104D02*
X0086730Y0119104D01*
X0086730Y0119970D02*
X0078922Y0119970D01*
X0078922Y0120836D02*
X0086730Y0120836D01*
X0086730Y0121702D02*
X0078922Y0121702D01*
X0078922Y0122568D02*
X0086730Y0122568D01*
X0086730Y0123434D02*
X0078922Y0123434D01*
X0078922Y0124300D02*
X0086730Y0124300D01*
X0086730Y0125166D02*
X0078922Y0125166D01*
X0078922Y0126032D02*
X0086730Y0126032D01*
D20*
X0061567Y0101867D03*
X0061567Y0092418D03*
X0057826Y0092418D03*
X0054086Y0092418D03*
X0054086Y0101867D03*
D21*
X0065743Y0054670D02*
X0067135Y0053278D01*
X0067135Y0053278D01*
X0065743Y0054670D01*
X0065743Y0054670D01*
X0064351Y0053278D02*
X0065743Y0051886D01*
X0065743Y0051886D01*
X0064351Y0053278D01*
X0064351Y0053278D01*
X0062959Y0051886D02*
X0064351Y0050494D01*
X0064351Y0050494D01*
X0062959Y0051886D01*
X0062959Y0051886D01*
X0061567Y0050494D02*
X0062959Y0049102D01*
X0062959Y0049102D01*
X0061567Y0050494D01*
X0061567Y0050494D01*
X0060175Y0049102D02*
X0061567Y0047710D01*
X0061567Y0047710D01*
X0060175Y0049102D01*
X0060175Y0049102D01*
X0058783Y0047710D02*
X0060175Y0046318D01*
X0060175Y0046318D01*
X0058783Y0047710D01*
X0058783Y0047710D01*
X0057391Y0046318D02*
X0058783Y0044926D01*
X0058783Y0044926D01*
X0057391Y0046318D01*
X0057391Y0046318D01*
X0055999Y0044926D02*
X0057391Y0043534D01*
X0057391Y0043534D01*
X0055999Y0044926D01*
X0055999Y0044926D01*
X0057391Y0040750D02*
X0055999Y0039358D01*
X0055999Y0039358D01*
X0057391Y0040750D01*
X0057391Y0040750D01*
X0058783Y0039358D02*
X0057391Y0037966D01*
X0057391Y0037966D01*
X0058783Y0039358D01*
X0058783Y0039358D01*
X0060175Y0037966D02*
X0058783Y0036574D01*
X0058783Y0036574D01*
X0060175Y0037966D01*
X0060175Y0037966D01*
X0061567Y0036574D02*
X0060175Y0035182D01*
X0060175Y0035182D01*
X0061567Y0036574D01*
X0061567Y0036574D01*
X0062959Y0035182D02*
X0061567Y0033790D01*
X0061567Y0033790D01*
X0062959Y0035182D01*
X0062959Y0035182D01*
X0064351Y0033791D02*
X0062959Y0032399D01*
X0062959Y0032399D01*
X0064351Y0033791D01*
X0064351Y0033791D01*
X0065743Y0032399D02*
X0064351Y0031007D01*
X0064351Y0031007D01*
X0065743Y0032399D01*
X0065743Y0032399D01*
X0067135Y0031007D02*
X0065743Y0029615D01*
X0065743Y0029615D01*
X0067135Y0031007D01*
X0067135Y0031007D01*
X0069918Y0031007D02*
X0071310Y0029615D01*
X0071310Y0029615D01*
X0069918Y0031007D01*
X0069918Y0031007D01*
X0071310Y0032399D02*
X0072702Y0031007D01*
X0072702Y0031007D01*
X0071310Y0032399D01*
X0071310Y0032399D01*
X0072702Y0033791D02*
X0074094Y0032399D01*
X0074094Y0032399D01*
X0072702Y0033791D01*
X0072702Y0033791D01*
X0074094Y0035182D02*
X0075486Y0033790D01*
X0075486Y0033790D01*
X0074094Y0035182D01*
X0074094Y0035182D01*
X0075486Y0036574D02*
X0076878Y0035182D01*
X0076878Y0035182D01*
X0075486Y0036574D01*
X0075486Y0036574D01*
X0076878Y0037966D02*
X0078270Y0036574D01*
X0078270Y0036574D01*
X0076878Y0037966D01*
X0076878Y0037966D01*
X0078270Y0039358D02*
X0079662Y0037966D01*
X0079662Y0037966D01*
X0078270Y0039358D01*
X0078270Y0039358D01*
X0079662Y0040750D02*
X0081054Y0039358D01*
X0081054Y0039358D01*
X0079662Y0040750D01*
X0079662Y0040750D01*
X0079662Y0043534D02*
X0081054Y0044926D01*
X0079662Y0043534D02*
X0079662Y0043534D01*
X0081054Y0044926D01*
X0081054Y0044926D01*
X0079662Y0046318D02*
X0078270Y0044926D01*
X0078270Y0044926D01*
X0079662Y0046318D01*
X0079662Y0046318D01*
X0078270Y0047710D02*
X0076878Y0046318D01*
X0076878Y0046318D01*
X0078270Y0047710D01*
X0078270Y0047710D01*
X0076878Y0049102D02*
X0075486Y0047710D01*
X0076878Y0049102D02*
X0076878Y0049102D01*
X0075486Y0047710D01*
X0075486Y0047710D01*
X0074094Y0049102D02*
X0075486Y0050494D01*
X0075486Y0050494D01*
X0074094Y0049102D01*
X0074094Y0049102D01*
X0072702Y0050494D02*
X0074094Y0051886D01*
X0072702Y0050494D02*
X0072702Y0050494D01*
X0074094Y0051886D01*
X0074094Y0051886D01*
X0072702Y0053278D02*
X0071310Y0051886D01*
X0071310Y0051886D01*
X0072702Y0053278D01*
X0072702Y0053278D01*
X0071310Y0054670D02*
X0069918Y0053278D01*
X0069918Y0053278D01*
X0071310Y0054670D01*
X0071310Y0054670D01*
D22*
G36*
X0068526Y0051337D02*
X0077721Y0042142D01*
X0068526Y0032947D01*
X0059331Y0042142D01*
X0068526Y0051337D01*
G37*
D23*
G36*
X0088391Y0027088D02*
X0086991Y0025688D01*
X0081973Y0030706D01*
X0083373Y0032106D01*
X0088391Y0027088D01*
G37*
G36*
X0091035Y0029733D02*
X0089635Y0028333D01*
X0084617Y0033351D01*
X0086017Y0034751D01*
X0091035Y0029733D01*
G37*
G36*
X0093680Y0032378D02*
X0092280Y0030978D01*
X0087262Y0035996D01*
X0088662Y0037396D01*
X0093680Y0032378D01*
G37*
D24*
X0085787Y0092175D02*
X0084115Y0092175D01*
X0084115Y0095617D01*
X0085787Y0095617D01*
X0085787Y0092175D01*
X0085787Y0093074D02*
X0084115Y0093074D01*
X0084115Y0093973D02*
X0085787Y0093973D01*
X0085787Y0094872D02*
X0084115Y0094872D01*
X0082637Y0092175D02*
X0080965Y0092175D01*
X0080965Y0095617D01*
X0082637Y0095617D01*
X0082637Y0092175D01*
X0082637Y0093074D02*
X0080965Y0093074D01*
X0080965Y0093973D02*
X0082637Y0093973D01*
X0082637Y0094872D02*
X0080965Y0094872D01*
X0079488Y0092175D02*
X0077816Y0092175D01*
X0077816Y0095617D01*
X0079488Y0095617D01*
X0079488Y0092175D01*
X0079488Y0093074D02*
X0077816Y0093074D01*
X0077816Y0093973D02*
X0079488Y0093973D01*
X0079488Y0094872D02*
X0077816Y0094872D01*
X0076338Y0092175D02*
X0074666Y0092175D01*
X0074666Y0095617D01*
X0076338Y0095617D01*
X0076338Y0092175D01*
X0076338Y0093074D02*
X0074666Y0093074D01*
X0074666Y0093973D02*
X0076338Y0093973D01*
X0076338Y0094872D02*
X0074666Y0094872D01*
X0074666Y0098868D02*
X0076338Y0098868D01*
X0074666Y0098868D02*
X0074666Y0102310D01*
X0076338Y0102310D01*
X0076338Y0098868D01*
X0076338Y0099767D02*
X0074666Y0099767D01*
X0074666Y0100666D02*
X0076338Y0100666D01*
X0076338Y0101565D02*
X0074666Y0101565D01*
X0077816Y0098868D02*
X0079488Y0098868D01*
X0077816Y0098868D02*
X0077816Y0102310D01*
X0079488Y0102310D01*
X0079488Y0098868D01*
X0079488Y0099767D02*
X0077816Y0099767D01*
X0077816Y0100666D02*
X0079488Y0100666D01*
X0079488Y0101565D02*
X0077816Y0101565D01*
X0080965Y0098868D02*
X0082637Y0098868D01*
X0080965Y0098868D02*
X0080965Y0102310D01*
X0082637Y0102310D01*
X0082637Y0098868D01*
X0082637Y0099767D02*
X0080965Y0099767D01*
X0080965Y0100666D02*
X0082637Y0100666D01*
X0082637Y0101565D02*
X0080965Y0101565D01*
X0084115Y0098868D02*
X0085787Y0098868D01*
X0084115Y0098868D02*
X0084115Y0102310D01*
X0085787Y0102310D01*
X0085787Y0098868D01*
X0085787Y0099767D02*
X0084115Y0099767D01*
X0084115Y0100666D02*
X0085787Y0100666D01*
X0085787Y0101565D02*
X0084115Y0101565D01*
D25*
X0077945Y0155827D03*
X0075386Y0155827D03*
X0072826Y0155827D03*
X0070267Y0155827D03*
X0067708Y0155827D03*
D26*
X0068889Y0166457D03*
X0076763Y0166457D03*
D27*
X0081882Y0166398D02*
X0088574Y0166398D01*
X0088574Y0167184D02*
X0081882Y0167184D01*
X0081882Y0167970D02*
X0088526Y0167970D01*
X0088525Y0167978D02*
X0088380Y0168394D01*
X0088145Y0168767D01*
X0087833Y0169079D01*
X0087460Y0169313D01*
X0087044Y0169459D01*
X0086606Y0169508D01*
X0081882Y0169508D01*
X0081882Y0163406D01*
X0086606Y0163406D01*
X0087044Y0163455D01*
X0087460Y0163601D01*
X0087833Y0163835D01*
X0088145Y0164147D01*
X0088380Y0164520D01*
X0088525Y0164936D01*
X0088574Y0165374D01*
X0088574Y0167540D01*
X0088525Y0167978D01*
X0088152Y0168756D02*
X0081882Y0168756D01*
X0081882Y0165612D02*
X0088574Y0165612D01*
X0088487Y0164826D02*
X0081882Y0164826D01*
X0081882Y0164040D02*
X0088038Y0164040D01*
X0084071Y0157512D02*
X0083676Y0157650D01*
X0083260Y0157697D01*
X0082078Y0157697D01*
X0081662Y0157650D01*
X0081267Y0157512D01*
X0080912Y0157289D01*
X0080616Y0156993D01*
X0080394Y0156639D01*
X0080255Y0156243D01*
X0080208Y0155827D01*
X0080255Y0155411D01*
X0080394Y0155016D01*
X0080616Y0154661D01*
X0080912Y0154365D01*
X0081267Y0154142D01*
X0081662Y0154004D01*
X0082078Y0153957D01*
X0083260Y0153957D01*
X0083676Y0154004D01*
X0084071Y0154142D01*
X0084426Y0154365D01*
X0084722Y0154661D01*
X0084944Y0155016D01*
X0085083Y0155411D01*
X0085130Y0155827D01*
X0085083Y0156243D01*
X0084944Y0156639D01*
X0084722Y0156993D01*
X0084426Y0157289D01*
X0084071Y0157512D01*
X0084738Y0156967D02*
X0080600Y0156967D01*
X0080248Y0156181D02*
X0085090Y0156181D01*
X0085077Y0155395D02*
X0080261Y0155395D01*
X0080668Y0154609D02*
X0084670Y0154609D01*
X0065445Y0155827D02*
X0065398Y0155411D01*
X0065259Y0155016D01*
X0065037Y0154661D01*
X0064740Y0154365D01*
X0064386Y0154142D01*
X0063991Y0154004D01*
X0063574Y0153957D01*
X0062393Y0153957D01*
X0061977Y0154004D01*
X0061582Y0154142D01*
X0061227Y0154365D01*
X0060931Y0154661D01*
X0060709Y0155016D01*
X0060570Y0155411D01*
X0060523Y0155827D01*
X0060570Y0156243D01*
X0060709Y0156639D01*
X0060931Y0156993D01*
X0061227Y0157289D01*
X0061582Y0157512D01*
X0061977Y0157650D01*
X0062393Y0157697D01*
X0063574Y0157697D01*
X0063991Y0157650D01*
X0064386Y0157512D01*
X0064740Y0157289D01*
X0065037Y0156993D01*
X0065259Y0156639D01*
X0065398Y0156243D01*
X0065445Y0155827D01*
X0065405Y0156181D02*
X0060563Y0156181D01*
X0060576Y0155395D02*
X0065392Y0155395D01*
X0064985Y0154609D02*
X0060983Y0154609D01*
X0060915Y0156967D02*
X0065053Y0156967D01*
X0063771Y0163406D02*
X0063771Y0169508D01*
X0059047Y0169508D01*
X0058609Y0169459D01*
X0058193Y0169313D01*
X0057820Y0169079D01*
X0057508Y0168767D01*
X0057273Y0168394D01*
X0057128Y0167978D01*
X0057078Y0167540D01*
X0057078Y0165374D01*
X0057128Y0164936D01*
X0057273Y0164520D01*
X0057508Y0164147D01*
X0057820Y0163835D01*
X0058193Y0163601D01*
X0058609Y0163455D01*
X0059047Y0163406D01*
X0063771Y0163406D01*
X0063771Y0164040D02*
X0057615Y0164040D01*
X0057166Y0164826D02*
X0063771Y0164826D01*
X0063771Y0165612D02*
X0057078Y0165612D01*
X0057078Y0166398D02*
X0063771Y0166398D01*
X0063771Y0167184D02*
X0057078Y0167184D01*
X0057127Y0167970D02*
X0063771Y0167970D01*
X0063771Y0168756D02*
X0057501Y0168756D01*
D28*
X0057118Y0143382D03*
X0057118Y0131768D03*
M02*
